<?xml version="1.0" encoding="utf-8" standalone="no"?>
<!DOCTYPE svg PUBLIC "-//W3C//DTD SVG 1.1//EN"
  "http://www.w3.org/Graphics/SVG/1.1/DTD/svg11.dtd">
<svg xmlns:xlink="http://www.w3.org/1999/xlink" width="360pt" height="360pt" viewBox="0 0 360 360" xmlns="http://www.w3.org/2000/svg" version="1.1">
 <metadata>
  <rdf:RDF xmlns:dc="http://purl.org/dc/elements/1.1/" xmlns:cc="http://creativecommons.org/ns#" xmlns:rdf="http://www.w3.org/1999/02/22-rdf-syntax-ns#">
   <cc:Work>
    <dc:type rdf:resource="http://purl.org/dc/dcmitype/StillImage"/>
    <dc:date>2024-07-22T16:55:42.160171</dc:date>
    <dc:format>image/svg+xml</dc:format>
    <dc:creator>
     <cc:Agent>
      <dc:title>Matplotlib v3.8.4, https://matplotlib.org/</dc:title>
     </cc:Agent>
    </dc:creator>
   </cc:Work>
  </rdf:RDF>
 </metadata>
 <defs>
  <style type="text/css">*{stroke-linejoin: round; stroke-linecap: butt}</style>
 </defs>
 <g id="figure_1">
  <g id="patch_1">
   <path d="M 0 360 
L 360 360 
L 360 0 
L 0 0 
L 0 360 
z
" style="fill: none"/>
  </g>
  <g id="axes_1">
   <g id="patch_2">
    <path d="M 73.95 295.8 
L 297.54 295.8 
L 297.54 64.131429 
L 73.95 64.131429 
L 73.95 295.8 
z
" style="fill: none"/>
   </g>
   <g id="PathCollection_1">
    <defs>
     <path id="C0_0_89724e5dae" d="M 0 3 
C 0.795609 3 1.55874 2.683901 2.12132 2.12132 
C 2.683901 1.55874 3 0.795609 3 -0 
C 3 -0.795609 2.683901 -1.55874 2.12132 -2.12132 
C 1.55874 -2.683901 0.795609 -3 0 -3 
C -0.795609 -3 -1.55874 -2.683901 -2.12132 -2.12132 
C -2.683901 -1.55874 -3 -0.795609 -3 0 
C -3 0.795609 -2.683901 1.55874 -2.12132 2.12132 
C -1.55874 2.683901 -0.795609 3 0 3 
z
"/>
    </defs>
    <g clip-path="url(#p96479fbef2)">
     <use xlink:href="#C0_0_89724e5dae" x="122.911777" y="161.74404" style="fill: #f28360; stroke: #ffffff; stroke-width: 0.48"/>
    </g>
    <g clip-path="url(#p96479fbef2)">
     <use xlink:href="#C0_0_89724e5dae" x="144.496152" y="176.922644" style="fill: #f28360; stroke: #ffffff; stroke-width: 0.48"/>
    </g>
    <g clip-path="url(#p96479fbef2)">
     <use xlink:href="#C0_0_89724e5dae" x="116.012308" y="177.59094" style="fill: #f28360; stroke: #ffffff; stroke-width: 0.48"/>
    </g>
    <g clip-path="url(#p96479fbef2)">
     <use xlink:href="#C0_0_89724e5dae" x="129.868367" y="185.73215" style="fill: #f28360; stroke: #ffffff; stroke-width: 0.48"/>
    </g>
    <g clip-path="url(#p96479fbef2)">
     <use xlink:href="#C0_0_89724e5dae" x="113.519619" y="108.95928" style="fill: #f28360; stroke: #ffffff; stroke-width: 0.48"/>
    </g>
    <g clip-path="url(#p96479fbef2)">
     <use xlink:href="#C0_0_89724e5dae" x="124.793603" y="213.06355" style="fill: #f28360; stroke: #ffffff; stroke-width: 0.48"/>
    </g>
    <g clip-path="url(#p96479fbef2)">
     <use xlink:href="#C0_0_89724e5dae" x="118.463843" y="136.626417" style="fill: #f28360; stroke: #ffffff; stroke-width: 0.48"/>
    </g>
    <g clip-path="url(#p96479fbef2)">
     <use xlink:href="#C0_0_89724e5dae" x="132.191493" y="158.148752" style="fill: #f28360; stroke: #ffffff; stroke-width: 0.48"/>
    </g>
    <g clip-path="url(#p96479fbef2)">
     <use xlink:href="#C0_0_89724e5dae" x="124.61888" y="150.857605" style="fill: #f28360; stroke: #ffffff; stroke-width: 0.48"/>
    </g>
    <g clip-path="url(#p96479fbef2)">
     <use xlink:href="#C0_0_89724e5dae" x="132.147918" y="205.909679" style="fill: #f28360; stroke: #ffffff; stroke-width: 0.48"/>
    </g>
    <g clip-path="url(#p96479fbef2)">
     <use xlink:href="#C0_0_89724e5dae" x="132.758181" y="156.536966" style="fill: #f28360; stroke: #ffffff; stroke-width: 0.48"/>
    </g>
    <g clip-path="url(#p96479fbef2)">
     <use xlink:href="#C0_0_89724e5dae" x="128.752603" y="188.887748" style="fill: #f28360; stroke: #ffffff; stroke-width: 0.48"/>
    </g>
    <g clip-path="url(#p96479fbef2)">
     <use xlink:href="#C0_0_89724e5dae" x="118.451811" y="180.368086" style="fill: #f28360; stroke: #ffffff; stroke-width: 0.48"/>
    </g>
    <g clip-path="url(#p96479fbef2)">
     <use xlink:href="#C0_0_89724e5dae" x="124.815173" y="208.426372" style="fill: #f28360; stroke: #ffffff; stroke-width: 0.48"/>
    </g>
    <g clip-path="url(#p96479fbef2)">
     <use xlink:href="#C0_0_89724e5dae" x="136.265415" y="209.432054" style="fill: #f28360; stroke: #ffffff; stroke-width: 0.48"/>
    </g>
    <g clip-path="url(#p96479fbef2)">
     <use xlink:href="#C0_0_89724e5dae" x="112.564024" y="127.926298" style="fill: #f28360; stroke: #ffffff; stroke-width: 0.48"/>
    </g>
    <g clip-path="url(#p96479fbef2)">
     <use xlink:href="#C0_0_89724e5dae" x="129.490239" y="214.097037" style="fill: #f28360; stroke: #ffffff; stroke-width: 0.48"/>
    </g>
    <g clip-path="url(#p96479fbef2)">
     <use xlink:href="#C0_0_89724e5dae" x="126.377222" y="199.809958" style="fill: #f28360; stroke: #ffffff; stroke-width: 0.48"/>
    </g>
    <g clip-path="url(#p96479fbef2)">
     <use xlink:href="#C0_0_89724e5dae" x="140.488474" y="216.442765" style="fill: #f28360; stroke: #ffffff; stroke-width: 0.48"/>
    </g>
    <g clip-path="url(#p96479fbef2)">
     <use xlink:href="#C0_0_89724e5dae" x="123.407951" y="200.661434" style="fill: #f28360; stroke: #ffffff; stroke-width: 0.48"/>
    </g>
    <g clip-path="url(#p96479fbef2)">
     <use xlink:href="#C0_0_89724e5dae" x="124.452348" y="223.995984" style="fill: #f28360; stroke: #ffffff; stroke-width: 0.48"/>
    </g>
    <g clip-path="url(#p96479fbef2)">
     <use xlink:href="#C0_0_89724e5dae" x="115.268121" y="182.417517" style="fill: #f28360; stroke: #ffffff; stroke-width: 0.48"/>
    </g>
    <g clip-path="url(#p96479fbef2)">
     <use xlink:href="#C0_0_89724e5dae" x="128.557704" y="212.100503" style="fill: #f28360; stroke: #ffffff; stroke-width: 0.48"/>
    </g>
    <g clip-path="url(#p96479fbef2)">
     <use xlink:href="#C0_0_89724e5dae" x="119.902088" y="177.94878" style="fill: #f28360; stroke: #ffffff; stroke-width: 0.48"/>
    </g>
    <g clip-path="url(#p96479fbef2)">
     <use xlink:href="#C0_0_89724e5dae" x="114.708764" y="196.285421" style="fill: #f28360; stroke: #ffffff; stroke-width: 0.48"/>
    </g>
    <g clip-path="url(#p96479fbef2)">
     <use xlink:href="#C0_0_89724e5dae" x="126.452478" y="188.734537" style="fill: #f28360; stroke: #ffffff; stroke-width: 0.48"/>
    </g>
    <g clip-path="url(#p96479fbef2)">
     <use xlink:href="#C0_0_89724e5dae" x="143.351506" y="223.369248" style="fill: #f28360; stroke: #ffffff; stroke-width: 0.48"/>
    </g>
    <g clip-path="url(#p96479fbef2)">
     <use xlink:href="#C0_0_89724e5dae" x="143.722444" y="182.104585" style="fill: #f28360; stroke: #ffffff; stroke-width: 0.48"/>
    </g>
    <g clip-path="url(#p96479fbef2)">
     <use xlink:href="#C0_0_89724e5dae" x="132.472473" y="158.424758" style="fill: #f28360; stroke: #ffffff; stroke-width: 0.48"/>
    </g>
    <g clip-path="url(#p96479fbef2)">
     <use xlink:href="#C0_0_89724e5dae" x="124.63284" y="250.972148" style="fill: #f28360; stroke: #ffffff; stroke-width: 0.48"/>
    </g>
    <g clip-path="url(#p96479fbef2)">
     <use xlink:href="#C0_0_89724e5dae" x="117.010615" y="126.621929" style="fill: #f28360; stroke: #ffffff; stroke-width: 0.48"/>
    </g>
    <g clip-path="url(#p96479fbef2)">
     <use xlink:href="#C0_0_89724e5dae" x="118.146421" y="162.137173" style="fill: #f28360; stroke: #ffffff; stroke-width: 0.48"/>
    </g>
    <g clip-path="url(#p96479fbef2)">
     <use xlink:href="#C0_0_89724e5dae" x="114.884061" y="173.415885" style="fill: #f28360; stroke: #ffffff; stroke-width: 0.48"/>
    </g>
    <g clip-path="url(#p96479fbef2)">
     <use xlink:href="#C0_0_89724e5dae" x="113.458847" y="135.81431" style="fill: #f28360; stroke: #ffffff; stroke-width: 0.48"/>
    </g>
    <g clip-path="url(#p96479fbef2)">
     <use xlink:href="#C0_0_89724e5dae" x="123.689495" y="134.51566" style="fill: #f28360; stroke: #ffffff; stroke-width: 0.48"/>
    </g>
    <g clip-path="url(#p96479fbef2)">
     <use xlink:href="#C0_0_89724e5dae" x="115.66187" y="173.464542" style="fill: #f28360; stroke: #ffffff; stroke-width: 0.48"/>
    </g>
    <g clip-path="url(#p96479fbef2)">
     <use xlink:href="#C0_0_89724e5dae" x="121.150548" y="184.766879" style="fill: #f28360; stroke: #ffffff; stroke-width: 0.48"/>
    </g>
    <g clip-path="url(#p96479fbef2)">
     <use xlink:href="#C0_0_89724e5dae" x="144.162516" y="230.874958" style="fill: #f28360; stroke: #ffffff; stroke-width: 0.48"/>
    </g>
    <g clip-path="url(#p96479fbef2)">
     <use xlink:href="#C0_0_89724e5dae" x="136.792153" y="200.543769" style="fill: #f28360; stroke: #ffffff; stroke-width: 0.48"/>
    </g>
    <g clip-path="url(#p96479fbef2)">
     <use xlink:href="#C0_0_89724e5dae" x="119.626605" y="250.788187" style="fill: #f28360; stroke: #ffffff; stroke-width: 0.48"/>
    </g>
    <g clip-path="url(#p96479fbef2)">
     <use xlink:href="#C0_0_89724e5dae" x="115.280392" y="249.42526" style="fill: #f28360; stroke: #ffffff; stroke-width: 0.48"/>
    </g>
    <g clip-path="url(#p96479fbef2)">
     <use xlink:href="#C0_0_89724e5dae" x="159.959253" y="211.894956" style="fill: #f28360; stroke: #ffffff; stroke-width: 0.48"/>
    </g>
    <g clip-path="url(#p96479fbef2)">
     <use xlink:href="#C0_0_89724e5dae" x="125.831775" y="215.142388" style="fill: #f28360; stroke: #ffffff; stroke-width: 0.48"/>
    </g>
    <g clip-path="url(#p96479fbef2)">
     <use xlink:href="#C0_0_89724e5dae" x="145.04517" y="208.054053" style="fill: #f28360; stroke: #ffffff; stroke-width: 0.48"/>
    </g>
    <g clip-path="url(#p96479fbef2)">
     <use xlink:href="#C0_0_89724e5dae" x="117.942919" y="248.123605" style="fill: #f28360; stroke: #ffffff; stroke-width: 0.48"/>
    </g>
    <g clip-path="url(#p96479fbef2)">
     <use xlink:href="#C0_0_89724e5dae" x="124.870532" y="167.237129" style="fill: #f28360; stroke: #ffffff; stroke-width: 0.48"/>
    </g>
    <g clip-path="url(#p96479fbef2)">
     <use xlink:href="#C0_0_89724e5dae" x="123.495522" y="209.139955" style="fill: #f28360; stroke: #ffffff; stroke-width: 0.48"/>
    </g>
    <g clip-path="url(#p96479fbef2)">
     <use xlink:href="#C0_0_89724e5dae" x="137.491328" y="218.093717" style="fill: #f28360; stroke: #ffffff; stroke-width: 0.48"/>
    </g>
    <g clip-path="url(#p96479fbef2)">
     <use xlink:href="#C0_0_89724e5dae" x="116.208171" y="204.90751" style="fill: #f28360; stroke: #ffffff; stroke-width: 0.48"/>
    </g>
    <g clip-path="url(#p96479fbef2)">
     <use xlink:href="#C0_0_89724e5dae" x="113.126662" y="244.92621" style="fill: #f28360; stroke: #ffffff; stroke-width: 0.48"/>
    </g>
    <g clip-path="url(#p96479fbef2)">
     <use xlink:href="#C0_0_89724e5dae" x="114.601658" y="140.490639" style="fill: #f28360; stroke: #ffffff; stroke-width: 0.48"/>
    </g>
    <g clip-path="url(#p96479fbef2)">
     <use xlink:href="#C0_0_89724e5dae" x="137.562349" y="176.658397" style="fill: #f28360; stroke: #ffffff; stroke-width: 0.48"/>
    </g>
    <g clip-path="url(#p96479fbef2)">
     <use xlink:href="#C0_0_89724e5dae" x="118.864086" y="250.855381" style="fill: #f28360; stroke: #ffffff; stroke-width: 0.48"/>
    </g>
    <g clip-path="url(#p96479fbef2)">
     <use xlink:href="#C0_0_89724e5dae" x="129.320914" y="196.742709" style="fill: #f28360; stroke: #ffffff; stroke-width: 0.48"/>
    </g>
    <g clip-path="url(#p96479fbef2)">
     <use xlink:href="#C0_0_89724e5dae" x="114.324178" y="113.692899" style="fill: #f28360; stroke: #ffffff; stroke-width: 0.48"/>
    </g>
    <g clip-path="url(#p96479fbef2)">
     <use xlink:href="#C0_0_89724e5dae" x="137.385673" y="183.760451" style="fill: #f28360; stroke: #ffffff; stroke-width: 0.48"/>
    </g>
    <g clip-path="url(#p96479fbef2)">
     <use xlink:href="#C0_0_89724e5dae" x="117.14137" y="178.370131" style="fill: #f28360; stroke: #ffffff; stroke-width: 0.48"/>
    </g>
    <g clip-path="url(#p96479fbef2)">
     <use xlink:href="#C0_0_89724e5dae" x="114.380631" y="202.040635" style="fill: #f28360; stroke: #ffffff; stroke-width: 0.48"/>
    </g>
    <g clip-path="url(#p96479fbef2)">
     <use xlink:href="#C0_0_89724e5dae" x="129.698028" y="179.309627" style="fill: #f28360; stroke: #ffffff; stroke-width: 0.48"/>
    </g>
    <g clip-path="url(#p96479fbef2)">
     <use xlink:href="#C0_0_89724e5dae" x="141.80122" y="193.568746" style="fill: #f28360; stroke: #ffffff; stroke-width: 0.48"/>
    </g>
    <g clip-path="url(#p96479fbef2)">
     <use xlink:href="#C0_0_89724e5dae" x="160.853031" y="240.884094" style="fill: #f28360; stroke: #ffffff; stroke-width: 0.48"/>
    </g>
    <g clip-path="url(#p96479fbef2)">
     <use xlink:href="#C0_0_89724e5dae" x="124.401564" y="157.562287" style="fill: #f28360; stroke: #ffffff; stroke-width: 0.48"/>
    </g>
    <g clip-path="url(#p96479fbef2)">
     <use xlink:href="#C0_0_89724e5dae" x="115.011787" y="162.853396" style="fill: #f28360; stroke: #ffffff; stroke-width: 0.48"/>
    </g>
    <g clip-path="url(#p96479fbef2)">
     <use xlink:href="#C0_0_89724e5dae" x="138.606651" y="190.998341" style="fill: #f28360; stroke: #ffffff; stroke-width: 0.48"/>
    </g>
    <g clip-path="url(#p96479fbef2)">
     <use xlink:href="#C0_0_89724e5dae" x="147.11502" y="202.483197" style="fill: #f28360; stroke: #ffffff; stroke-width: 0.48"/>
    </g>
    <g clip-path="url(#p96479fbef2)">
     <use xlink:href="#C0_0_89724e5dae" x="164.645364" y="224.486948" style="fill: #f28360; stroke: #ffffff; stroke-width: 0.48"/>
    </g>
    <g clip-path="url(#p96479fbef2)">
     <use xlink:href="#C0_0_89724e5dae" x="127.886799" y="194.15158" style="fill: #f28360; stroke: #ffffff; stroke-width: 0.48"/>
    </g>
    <g clip-path="url(#p96479fbef2)">
     <use xlink:href="#C0_0_89724e5dae" x="116.911901" y="193.047626" style="fill: #f28360; stroke: #ffffff; stroke-width: 0.48"/>
    </g>
    <g clip-path="url(#p96479fbef2)">
     <use xlink:href="#C0_0_89724e5dae" x="124.206799" y="203.773013" style="fill: #f28360; stroke: #ffffff; stroke-width: 0.48"/>
    </g>
    <g clip-path="url(#p96479fbef2)">
     <use xlink:href="#C0_0_89724e5dae" x="127.512732" y="209.92108" style="fill: #f28360; stroke: #ffffff; stroke-width: 0.48"/>
    </g>
    <g clip-path="url(#p96479fbef2)">
     <use xlink:href="#C0_0_89724e5dae" x="129.714221" y="218.661907" style="fill: #f28360; stroke: #ffffff; stroke-width: 0.48"/>
    </g>
    <g clip-path="url(#p96479fbef2)">
     <use xlink:href="#C0_0_89724e5dae" x="119.072289" y="194.852805" style="fill: #f28360; stroke: #ffffff; stroke-width: 0.48"/>
    </g>
    <g clip-path="url(#p96479fbef2)">
     <use xlink:href="#C0_0_89724e5dae" x="134.627227" y="225.885601" style="fill: #f28360; stroke: #ffffff; stroke-width: 0.48"/>
    </g>
    <g clip-path="url(#p96479fbef2)">
     <use xlink:href="#C0_0_89724e5dae" x="118.82214" y="143.737151" style="fill: #f28360; stroke: #ffffff; stroke-width: 0.48"/>
    </g>
    <g clip-path="url(#p96479fbef2)">
     <use xlink:href="#C0_0_89724e5dae" x="126.161139" y="160.864962" style="fill: #f28360; stroke: #ffffff; stroke-width: 0.48"/>
    </g>
    <g clip-path="url(#p96479fbef2)">
     <use xlink:href="#C0_0_89724e5dae" x="113.431678" y="224.460191" style="fill: #f28360; stroke: #ffffff; stroke-width: 0.48"/>
    </g>
    <g clip-path="url(#p96479fbef2)">
     <use xlink:href="#C0_0_89724e5dae" x="127.82068" y="220.033722" style="fill: #f28360; stroke: #ffffff; stroke-width: 0.48"/>
    </g>
    <g clip-path="url(#p96479fbef2)">
     <use xlink:href="#C0_0_89724e5dae" x="114.463536" y="234.598594" style="fill: #f28360; stroke: #ffffff; stroke-width: 0.48"/>
    </g>
    <g clip-path="url(#p96479fbef2)">
     <use xlink:href="#C0_0_89724e5dae" x="126.171515" y="181.230299" style="fill: #f28360; stroke: #ffffff; stroke-width: 0.48"/>
    </g>
    <g clip-path="url(#p96479fbef2)">
     <use xlink:href="#C0_0_89724e5dae" x="149.318386" y="242.435257" style="fill: #f28360; stroke: #ffffff; stroke-width: 0.48"/>
    </g>
    <g clip-path="url(#p96479fbef2)">
     <use xlink:href="#C0_0_89724e5dae" x="183.7135" y="247.399241" style="fill: #f28360; stroke: #ffffff; stroke-width: 0.48"/>
    </g>
    <g clip-path="url(#p96479fbef2)">
     <use xlink:href="#C0_0_89724e5dae" x="129.046011" y="211.693407" style="fill: #f28360; stroke: #ffffff; stroke-width: 0.48"/>
    </g>
    <g clip-path="url(#p96479fbef2)">
     <use xlink:href="#C0_0_89724e5dae" x="119.077776" y="205.593695" style="fill: #f28360; stroke: #ffffff; stroke-width: 0.48"/>
    </g>
    <g clip-path="url(#p96479fbef2)">
     <use xlink:href="#C0_0_89724e5dae" x="126.090555" y="226.953262" style="fill: #f28360; stroke: #ffffff; stroke-width: 0.48"/>
    </g>
    <g clip-path="url(#p96479fbef2)">
     <use xlink:href="#C0_0_89724e5dae" x="130.010511" y="213.450779" style="fill: #f28360; stroke: #ffffff; stroke-width: 0.48"/>
    </g>
    <g clip-path="url(#p96479fbef2)">
     <use xlink:href="#C0_0_89724e5dae" x="129.633546" y="156.636978" style="fill: #f28360; stroke: #ffffff; stroke-width: 0.48"/>
    </g>
    <g clip-path="url(#p96479fbef2)">
     <use xlink:href="#C0_0_89724e5dae" x="123.81227" y="218.789368" style="fill: #f28360; stroke: #ffffff; stroke-width: 0.48"/>
    </g>
    <g clip-path="url(#p96479fbef2)">
     <use xlink:href="#C0_0_89724e5dae" x="158.81882" y="218.598753" style="fill: #f28360; stroke: #ffffff; stroke-width: 0.48"/>
    </g>
    <g clip-path="url(#p96479fbef2)">
     <use xlink:href="#C0_0_89724e5dae" x="118.940056" y="214.510261" style="fill: #f28360; stroke: #ffffff; stroke-width: 0.48"/>
    </g>
    <g clip-path="url(#p96479fbef2)">
     <use xlink:href="#C0_0_89724e5dae" x="137.973276" y="181.67472" style="fill: #f28360; stroke: #ffffff; stroke-width: 0.48"/>
    </g>
    <g clip-path="url(#p96479fbef2)">
     <use xlink:href="#C0_0_89724e5dae" x="126.937763" y="228.489412" style="fill: #f28360; stroke: #ffffff; stroke-width: 0.48"/>
    </g>
    <g clip-path="url(#p96479fbef2)">
     <use xlink:href="#C0_0_89724e5dae" x="128.305187" y="195.185214" style="fill: #f28360; stroke: #ffffff; stroke-width: 0.48"/>
    </g>
    <g clip-path="url(#p96479fbef2)">
     <use xlink:href="#C0_0_89724e5dae" x="119.815369" y="191.815637" style="fill: #f28360; stroke: #ffffff; stroke-width: 0.48"/>
    </g>
    <g clip-path="url(#p96479fbef2)">
     <use xlink:href="#C0_0_89724e5dae" x="140.264475" y="192.594931" style="fill: #f28360; stroke: #ffffff; stroke-width: 0.48"/>
    </g>
    <g clip-path="url(#p96479fbef2)">
     <use xlink:href="#C0_0_89724e5dae" x="144.580245" y="211.887931" style="fill: #f28360; stroke: #ffffff; stroke-width: 0.48"/>
    </g>
    <g clip-path="url(#p96479fbef2)">
     <use xlink:href="#C0_0_89724e5dae" x="113.728912" y="241.387802" style="fill: #f28360; stroke: #ffffff; stroke-width: 0.48"/>
    </g>
    <g clip-path="url(#p96479fbef2)">
     <use xlink:href="#C0_0_89724e5dae" x="120.604676" y="249.107611" style="fill: #f28360; stroke: #ffffff; stroke-width: 0.48"/>
    </g>
    <g clip-path="url(#p96479fbef2)">
     <use xlink:href="#C0_0_89724e5dae" x="128.976514" y="174.885446" style="fill: #f28360; stroke: #ffffff; stroke-width: 0.48"/>
    </g>
    <g clip-path="url(#p96479fbef2)">
     <use xlink:href="#C0_0_89724e5dae" x="114.428805" y="191.933546" style="fill: #f28360; stroke: #ffffff; stroke-width: 0.48"/>
    </g>
    <g clip-path="url(#p96479fbef2)">
     <use xlink:href="#C0_0_89724e5dae" x="127.086853" y="201.001851" style="fill: #f28360; stroke: #ffffff; stroke-width: 0.48"/>
    </g>
    <g clip-path="url(#p96479fbef2)">
     <use xlink:href="#C0_0_89724e5dae" x="114.854984" y="215.157927" style="fill: #f28360; stroke: #ffffff; stroke-width: 0.48"/>
    </g>
    <g clip-path="url(#p96479fbef2)">
     <use xlink:href="#C0_0_89724e5dae" x="128.349691" y="202.432859" style="fill: #f28360; stroke: #ffffff; stroke-width: 0.48"/>
    </g>
    <g clip-path="url(#p96479fbef2)">
     <use xlink:href="#C0_0_89724e5dae" x="128.643136" y="219.266058" style="fill: #f28360; stroke: #ffffff; stroke-width: 0.48"/>
    </g>
    <g clip-path="url(#p96479fbef2)">
     <use xlink:href="#C0_0_89724e5dae" x="139.215788" y="184.750756" style="fill: #f28360; stroke: #ffffff; stroke-width: 0.48"/>
    </g>
    <g clip-path="url(#p96479fbef2)">
     <use xlink:href="#C0_0_89724e5dae" x="145.279198" y="203.381591" style="fill: #f28360; stroke: #ffffff; stroke-width: 0.48"/>
    </g>
    <g clip-path="url(#p96479fbef2)">
     <use xlink:href="#C0_0_89724e5dae" x="166.311853" y="238.32904" style="fill: #f28360; stroke: #ffffff; stroke-width: 0.48"/>
    </g>
    <g clip-path="url(#p96479fbef2)">
     <use xlink:href="#C0_0_89724e5dae" x="134.948949" y="204.621756" style="fill: #f28360; stroke: #ffffff; stroke-width: 0.48"/>
    </g>
    <g clip-path="url(#p96479fbef2)">
     <use xlink:href="#C0_0_89724e5dae" x="133.847832" y="199.964212" style="fill: #f28360; stroke: #ffffff; stroke-width: 0.48"/>
    </g>
    <g clip-path="url(#p96479fbef2)">
     <use xlink:href="#C0_0_89724e5dae" x="124.435725" y="217.310679" style="fill: #f28360; stroke: #ffffff; stroke-width: 0.48"/>
    </g>
    <g clip-path="url(#p96479fbef2)">
     <use xlink:href="#C0_0_89724e5dae" x="134.716455" y="217.094867" style="fill: #f28360; stroke: #ffffff; stroke-width: 0.48"/>
    </g>
    <g clip-path="url(#p96479fbef2)">
     <use xlink:href="#C0_0_89724e5dae" x="143.093185" y="195.686962" style="fill: #f28360; stroke: #ffffff; stroke-width: 0.48"/>
    </g>
    <g clip-path="url(#p96479fbef2)">
     <use xlink:href="#C0_0_89724e5dae" x="120.625601" y="143.517273" style="fill: #f28360; stroke: #ffffff; stroke-width: 0.48"/>
    </g>
    <g clip-path="url(#p96479fbef2)">
     <use xlink:href="#C0_0_89724e5dae" x="139.831965" y="179.990709" style="fill: #f28360; stroke: #ffffff; stroke-width: 0.48"/>
    </g>
    <g clip-path="url(#p96479fbef2)">
     <use xlink:href="#C0_0_89724e5dae" x="164.425145" y="226.392415" style="fill: #f28360; stroke: #ffffff; stroke-width: 0.48"/>
    </g>
    <g clip-path="url(#p96479fbef2)">
     <use xlink:href="#C0_0_89724e5dae" x="153.441883" y="235.591642" style="fill: #f28360; stroke: #ffffff; stroke-width: 0.48"/>
    </g>
    <g clip-path="url(#p96479fbef2)">
     <use xlink:href="#C0_0_89724e5dae" x="113.179286" y="141.42326" style="fill: #f28360; stroke: #ffffff; stroke-width: 0.48"/>
    </g>
    <g clip-path="url(#p96479fbef2)">
     <use xlink:href="#C0_0_89724e5dae" x="115.488706" y="219.860238" style="fill: #f28360; stroke: #ffffff; stroke-width: 0.48"/>
    </g>
    <g clip-path="url(#p96479fbef2)">
     <use xlink:href="#C0_0_89724e5dae" x="113.997566" y="222.459775" style="fill: #f28360; stroke: #ffffff; stroke-width: 0.48"/>
    </g>
    <g clip-path="url(#p96479fbef2)">
     <use xlink:href="#C0_0_89724e5dae" x="134.614693" y="194.097432" style="fill: #f28360; stroke: #ffffff; stroke-width: 0.48"/>
    </g>
    <g clip-path="url(#p96479fbef2)">
     <use xlink:href="#C0_0_89724e5dae" x="138.005306" y="198.927583" style="fill: #f28360; stroke: #ffffff; stroke-width: 0.48"/>
    </g>
    <g clip-path="url(#p96479fbef2)">
     <use xlink:href="#C0_0_89724e5dae" x="118.730324" y="236.549382" style="fill: #f28360; stroke: #ffffff; stroke-width: 0.48"/>
    </g>
    <g clip-path="url(#p96479fbef2)">
     <use xlink:href="#C0_0_89724e5dae" x="130.454657" y="204.87134" style="fill: #f28360; stroke: #ffffff; stroke-width: 0.48"/>
    </g>
    <g clip-path="url(#p96479fbef2)">
     <use xlink:href="#C0_0_89724e5dae" x="128.235416" y="180.339219" style="fill: #f28360; stroke: #ffffff; stroke-width: 0.48"/>
    </g>
    <g clip-path="url(#p96479fbef2)">
     <use xlink:href="#C0_0_89724e5dae" x="119.72503" y="184.5856" style="fill: #f28360; stroke: #ffffff; stroke-width: 0.48"/>
    </g>
    <g clip-path="url(#p96479fbef2)">
     <use xlink:href="#C0_0_89724e5dae" x="118.884845" y="188.352789" style="fill: #f28360; stroke: #ffffff; stroke-width: 0.48"/>
    </g>
    <g clip-path="url(#p96479fbef2)">
     <use xlink:href="#C0_0_89724e5dae" x="132.427891" y="159.320715" style="fill: #f28360; stroke: #ffffff; stroke-width: 0.48"/>
    </g>
    <g clip-path="url(#p96479fbef2)">
     <use xlink:href="#C0_0_89724e5dae" x="119.778845" y="131.41563" style="fill: #f28360; stroke: #ffffff; stroke-width: 0.48"/>
    </g>
    <g clip-path="url(#p96479fbef2)">
     <use xlink:href="#C0_0_89724e5dae" x="144.35167" y="231.717068" style="fill: #f28360; stroke: #ffffff; stroke-width: 0.48"/>
    </g>
    <g clip-path="url(#p96479fbef2)">
     <use xlink:href="#C0_0_89724e5dae" x="121.985196" y="115.782948" style="fill: #f28360; stroke: #ffffff; stroke-width: 0.48"/>
    </g>
    <g clip-path="url(#p96479fbef2)">
     <use xlink:href="#C0_0_89724e5dae" x="125.765869" y="145.85516" style="fill: #f28360; stroke: #ffffff; stroke-width: 0.48"/>
    </g>
    <g clip-path="url(#p96479fbef2)">
     <use xlink:href="#C0_0_89724e5dae" x="131.855177" y="182.244205" style="fill: #f28360; stroke: #ffffff; stroke-width: 0.48"/>
    </g>
    <g clip-path="url(#p96479fbef2)">
     <use xlink:href="#C0_0_89724e5dae" x="122.557207" y="180.412171" style="fill: #f28360; stroke: #ffffff; stroke-width: 0.48"/>
    </g>
    <g clip-path="url(#p96479fbef2)">
     <use xlink:href="#C0_0_89724e5dae" x="112.678252" y="234.95865" style="fill: #f28360; stroke: #ffffff; stroke-width: 0.48"/>
    </g>
    <g clip-path="url(#p96479fbef2)">
     <use xlink:href="#C0_0_89724e5dae" x="126.740193" y="238.765224" style="fill: #f28360; stroke: #ffffff; stroke-width: 0.48"/>
    </g>
    <g clip-path="url(#p96479fbef2)">
     <use xlink:href="#C0_0_89724e5dae" x="121.526276" y="149.527171" style="fill: #f28360; stroke: #ffffff; stroke-width: 0.48"/>
    </g>
    <g clip-path="url(#p96479fbef2)">
     <use xlink:href="#C0_0_89724e5dae" x="117.355557" y="156.436291" style="fill: #f28360; stroke: #ffffff; stroke-width: 0.48"/>
    </g>
    <g clip-path="url(#p96479fbef2)">
     <use xlink:href="#C0_0_89724e5dae" x="123.088603" y="156.439658" style="fill: #f28360; stroke: #ffffff; stroke-width: 0.48"/>
    </g>
    <g clip-path="url(#p96479fbef2)">
     <use xlink:href="#C0_0_89724e5dae" x="125.33114" y="166.081011" style="fill: #f28360; stroke: #ffffff; stroke-width: 0.48"/>
    </g>
    <g clip-path="url(#p96479fbef2)">
     <use xlink:href="#C0_0_89724e5dae" x="138.212338" y="240.949928" style="fill: #f28360; stroke: #ffffff; stroke-width: 0.48"/>
    </g>
    <g clip-path="url(#p96479fbef2)">
     <use xlink:href="#C0_0_89724e5dae" x="117.093841" y="158.266663" style="fill: #f28360; stroke: #ffffff; stroke-width: 0.48"/>
    </g>
    <g clip-path="url(#p96479fbef2)">
     <use xlink:href="#C0_0_89724e5dae" x="133.212157" y="169.292245" style="fill: #f28360; stroke: #ffffff; stroke-width: 0.48"/>
    </g>
    <g clip-path="url(#p96479fbef2)">
     <use xlink:href="#C0_0_89724e5dae" x="129.690828" y="215.800039" style="fill: #f28360; stroke: #ffffff; stroke-width: 0.48"/>
    </g>
    <g clip-path="url(#p96479fbef2)">
     <use xlink:href="#C0_0_89724e5dae" x="122.878088" y="202.618109" style="fill: #f28360; stroke: #ffffff; stroke-width: 0.48"/>
    </g>
    <g clip-path="url(#p96479fbef2)">
     <use xlink:href="#C0_0_89724e5dae" x="121.626744" y="149.96547" style="fill: #f28360; stroke: #ffffff; stroke-width: 0.48"/>
    </g>
    <g clip-path="url(#p96479fbef2)">
     <use xlink:href="#C0_0_89724e5dae" x="121.311974" y="162.157697" style="fill: #f28360; stroke: #ffffff; stroke-width: 0.48"/>
    </g>
    <g clip-path="url(#p96479fbef2)">
     <use xlink:href="#C0_0_89724e5dae" x="179.714475" y="223.76924" style="fill: #7a77ab; stroke: #ffffff; stroke-width: 0.48"/>
    </g>
    <g clip-path="url(#p96479fbef2)">
     <use xlink:href="#C0_0_89724e5dae" x="191.900308" y="202.559676" style="fill: #7a77ab; stroke: #ffffff; stroke-width: 0.48"/>
    </g>
    <g clip-path="url(#p96479fbef2)">
     <use xlink:href="#C0_0_89724e5dae" x="129.591949" y="252.369574" style="fill: #7a77ab; stroke: #ffffff; stroke-width: 0.48"/>
    </g>
    <g clip-path="url(#p96479fbef2)">
     <use xlink:href="#C0_0_89724e5dae" x="205.283233" y="227.721502" style="fill: #7a77ab; stroke: #ffffff; stroke-width: 0.48"/>
    </g>
    <g clip-path="url(#p96479fbef2)">
     <use xlink:href="#C0_0_89724e5dae" x="201.786502" y="235.014335" style="fill: #7a77ab; stroke: #ffffff; stroke-width: 0.48"/>
    </g>
    <g clip-path="url(#p96479fbef2)">
     <use xlink:href="#C0_0_89724e5dae" x="224.495526" y="198.211145" style="fill: #7a77ab; stroke: #ffffff; stroke-width: 0.48"/>
    </g>
    <g clip-path="url(#p96479fbef2)">
     <use xlink:href="#C0_0_89724e5dae" x="140.637437" y="218.612258" style="fill: #7a77ab; stroke: #ffffff; stroke-width: 0.48"/>
    </g>
    <g clip-path="url(#p96479fbef2)">
     <use xlink:href="#C0_0_89724e5dae" x="222.301493" y="222.539872" style="fill: #7a77ab; stroke: #ffffff; stroke-width: 0.48"/>
    </g>
    <g clip-path="url(#p96479fbef2)">
     <use xlink:href="#C0_0_89724e5dae" x="237.218052" y="227.640166" style="fill: #7a77ab; stroke: #ffffff; stroke-width: 0.48"/>
    </g>
    <g clip-path="url(#p96479fbef2)">
     <use xlink:href="#C0_0_89724e5dae" x="123.344249" y="234.862487" style="fill: #7a77ab; stroke: #ffffff; stroke-width: 0.48"/>
    </g>
    <g clip-path="url(#p96479fbef2)">
     <use xlink:href="#C0_0_89724e5dae" x="198.612871" y="221.737097" style="fill: #7a77ab; stroke: #ffffff; stroke-width: 0.48"/>
    </g>
    <g clip-path="url(#p96479fbef2)">
     <use xlink:href="#C0_0_89724e5dae" x="243.348952" y="160.266952" style="fill: #7a77ab; stroke: #ffffff; stroke-width: 0.48"/>
    </g>
    <g clip-path="url(#p96479fbef2)">
     <use xlink:href="#C0_0_89724e5dae" x="177.352485" y="250.596701" style="fill: #7a77ab; stroke: #ffffff; stroke-width: 0.48"/>
    </g>
    <g clip-path="url(#p96479fbef2)">
     <use xlink:href="#C0_0_89724e5dae" x="168.861192" y="249.079418" style="fill: #7a77ab; stroke: #ffffff; stroke-width: 0.48"/>
    </g>
    <g clip-path="url(#p96479fbef2)">
     <use xlink:href="#C0_0_89724e5dae" x="174.251366" y="249.752563" style="fill: #7a77ab; stroke: #ffffff; stroke-width: 0.48"/>
    </g>
    <g clip-path="url(#p96479fbef2)">
     <use xlink:href="#C0_0_89724e5dae" x="188.964502" y="250.890419" style="fill: #7a77ab; stroke: #ffffff; stroke-width: 0.48"/>
    </g>
    <g clip-path="url(#p96479fbef2)">
     <use xlink:href="#C0_0_89724e5dae" x="230.661827" y="220.890798" style="fill: #7a77ab; stroke: #ffffff; stroke-width: 0.48"/>
    </g>
    <g clip-path="url(#p96479fbef2)">
     <use xlink:href="#C0_0_89724e5dae" x="178.427766" y="225.266421" style="fill: #7a77ab; stroke: #ffffff; stroke-width: 0.48"/>
    </g>
    <g clip-path="url(#p96479fbef2)">
     <use xlink:href="#C0_0_89724e5dae" x="188.922098" y="237.493773" style="fill: #7a77ab; stroke: #ffffff; stroke-width: 0.48"/>
    </g>
    <g clip-path="url(#p96479fbef2)">
     <use xlink:href="#C0_0_89724e5dae" x="248.145751" y="222.061993" style="fill: #7a77ab; stroke: #ffffff; stroke-width: 0.48"/>
    </g>
    <g clip-path="url(#p96479fbef2)">
     <use xlink:href="#C0_0_89724e5dae" x="228.317489" y="241.156983" style="fill: #7a77ab; stroke: #ffffff; stroke-width: 0.48"/>
    </g>
    <g clip-path="url(#p96479fbef2)">
     <use xlink:href="#C0_0_89724e5dae" x="192.145896" y="242.456087" style="fill: #7a77ab; stroke: #ffffff; stroke-width: 0.48"/>
    </g>
    <g clip-path="url(#p96479fbef2)">
     <use xlink:href="#C0_0_89724e5dae" x="239.41119" y="204.500949" style="fill: #7a77ab; stroke: #ffffff; stroke-width: 0.48"/>
    </g>
    <g clip-path="url(#p96479fbef2)">
     <use xlink:href="#C0_0_89724e5dae" x="159.401188" y="244.050515" style="fill: #7a77ab; stroke: #ffffff; stroke-width: 0.48"/>
    </g>
    <g clip-path="url(#p96479fbef2)">
     <use xlink:href="#C0_0_89724e5dae" x="202.858787" y="250.142908" style="fill: #7a77ab; stroke: #ffffff; stroke-width: 0.48"/>
    </g>
    <g clip-path="url(#p96479fbef2)">
     <use xlink:href="#C0_0_89724e5dae" x="207.562774" y="250.123915" style="fill: #7a77ab; stroke: #ffffff; stroke-width: 0.48"/>
    </g>
    <g clip-path="url(#p96479fbef2)">
     <use xlink:href="#C0_0_89724e5dae" x="216.855804" y="249.938013" style="fill: #7a77ab; stroke: #ffffff; stroke-width: 0.48"/>
    </g>
    <g clip-path="url(#p96479fbef2)">
     <use xlink:href="#C0_0_89724e5dae" x="211.15696" y="249.819771" style="fill: #7a77ab; stroke: #ffffff; stroke-width: 0.48"/>
    </g>
    <g clip-path="url(#p96479fbef2)">
     <use xlink:href="#C0_0_89724e5dae" x="213.847014" y="249.731587" style="fill: #7a77ab; stroke: #ffffff; stroke-width: 0.48"/>
    </g>
    <g clip-path="url(#p96479fbef2)">
     <use xlink:href="#C0_0_89724e5dae" x="130.905986" y="239.578548" style="fill: #7a77ab; stroke: #ffffff; stroke-width: 0.48"/>
    </g>
    <g clip-path="url(#p96479fbef2)">
     <use xlink:href="#C0_0_89724e5dae" x="245.317534" y="181.917472" style="fill: #7a77ab; stroke: #ffffff; stroke-width: 0.48"/>
    </g>
    <g clip-path="url(#p96479fbef2)">
     <use xlink:href="#C0_0_89724e5dae" x="219.488346" y="237.449343" style="fill: #7a77ab; stroke: #ffffff; stroke-width: 0.48"/>
    </g>
    <g clip-path="url(#p96479fbef2)">
     <use xlink:href="#C0_0_89724e5dae" x="152.70905" y="234.703637" style="fill: #7a77ab; stroke: #ffffff; stroke-width: 0.48"/>
    </g>
    <g clip-path="url(#p96479fbef2)">
     <use xlink:href="#C0_0_89724e5dae" x="171.311991" y="224.503155" style="fill: #7a77ab; stroke: #ffffff; stroke-width: 0.48"/>
    </g>
    <g clip-path="url(#p96479fbef2)">
     <use xlink:href="#C0_0_89724e5dae" x="234.324291" y="235.881276" style="fill: #7a77ab; stroke: #ffffff; stroke-width: 0.48"/>
    </g>
    <g clip-path="url(#p96479fbef2)">
     <use xlink:href="#C0_0_89724e5dae" x="171.753907" y="247.360019" style="fill: #7a77ab; stroke: #ffffff; stroke-width: 0.48"/>
    </g>
    <g clip-path="url(#p96479fbef2)">
     <use xlink:href="#C0_0_89724e5dae" x="150.49141" y="232.05353" style="fill: #7a77ab; stroke: #ffffff; stroke-width: 0.48"/>
    </g>
    <g clip-path="url(#p96479fbef2)">
     <use xlink:href="#C0_0_89724e5dae" x="168.793984" y="225.124874" style="fill: #7a77ab; stroke: #ffffff; stroke-width: 0.48"/>
    </g>
    <g clip-path="url(#p96479fbef2)">
     <use xlink:href="#C0_0_89724e5dae" x="186.328348" y="230.328056" style="fill: #7a77ab; stroke: #ffffff; stroke-width: 0.48"/>
    </g>
    <g clip-path="url(#p96479fbef2)">
     <use xlink:href="#C0_0_89724e5dae" x="161.052431" y="233.363256" style="fill: #7a77ab; stroke: #ffffff; stroke-width: 0.48"/>
    </g>
    <g clip-path="url(#p96479fbef2)">
     <use xlink:href="#C0_0_89724e5dae" x="207.998027" y="251.170099" style="fill: #7a77ab; stroke: #ffffff; stroke-width: 0.48"/>
    </g>
    <g clip-path="url(#p96479fbef2)">
     <use xlink:href="#C0_0_89724e5dae" x="201.424413" y="248.152033" style="fill: #7a77ab; stroke: #ffffff; stroke-width: 0.48"/>
    </g>
    <g clip-path="url(#p96479fbef2)">
     <use xlink:href="#C0_0_89724e5dae" x="222.345237" y="246.046565" style="fill: #7a77ab; stroke: #ffffff; stroke-width: 0.48"/>
    </g>
    <g clip-path="url(#p96479fbef2)">
     <use xlink:href="#C0_0_89724e5dae" x="232.972022" y="251.161247" style="fill: #7a77ab; stroke: #ffffff; stroke-width: 0.48"/>
    </g>
    <g clip-path="url(#p96479fbef2)">
     <use xlink:href="#C0_0_89724e5dae" x="151.703064" y="237.374626" style="fill: #7a77ab; stroke: #ffffff; stroke-width: 0.48"/>
    </g>
    <g clip-path="url(#p96479fbef2)">
     <use xlink:href="#C0_0_89724e5dae" x="231.153037" y="189.394053" style="fill: #7a77ab; stroke: #ffffff; stroke-width: 0.48"/>
    </g>
    <g clip-path="url(#p96479fbef2)">
     <use xlink:href="#C0_0_89724e5dae" x="214.619327" y="229.378506" style="fill: #7a77ab; stroke: #ffffff; stroke-width: 0.48"/>
    </g>
    <g clip-path="url(#p96479fbef2)">
     <use xlink:href="#C0_0_89724e5dae" x="206.50314" y="233.306563" style="fill: #7a77ab; stroke: #ffffff; stroke-width: 0.48"/>
    </g>
    <g clip-path="url(#p96479fbef2)">
     <use xlink:href="#C0_0_89724e5dae" x="186.460307" y="236.040974" style="fill: #7a77ab; stroke: #ffffff; stroke-width: 0.48"/>
    </g>
    <g clip-path="url(#p96479fbef2)">
     <use xlink:href="#C0_0_89724e5dae" x="144.702934" y="236.990119" style="fill: #7a77ab; stroke: #ffffff; stroke-width: 0.48"/>
    </g>
    <g clip-path="url(#p96479fbef2)">
     <use xlink:href="#C0_0_89724e5dae" x="185.044149" y="225.234482" style="fill: #7a77ab; stroke: #ffffff; stroke-width: 0.48"/>
    </g>
    <g clip-path="url(#p96479fbef2)">
     <use xlink:href="#C0_0_89724e5dae" x="171.900206" y="219.557653" style="fill: #7a77ab; stroke: #ffffff; stroke-width: 0.48"/>
    </g>
    <g clip-path="url(#p96479fbef2)">
     <use xlink:href="#C0_0_89724e5dae" x="168.878773" y="233.408227" style="fill: #7a77ab; stroke: #ffffff; stroke-width: 0.48"/>
    </g>
    <g clip-path="url(#p96479fbef2)">
     <use xlink:href="#C0_0_89724e5dae" x="152.997588" y="249.635212" style="fill: #7a77ab; stroke: #ffffff; stroke-width: 0.48"/>
    </g>
    <g clip-path="url(#p96479fbef2)">
     <use xlink:href="#C0_0_89724e5dae" x="178.747098" y="240.053347" style="fill: #7a77ab; stroke: #ffffff; stroke-width: 0.48"/>
    </g>
    <g clip-path="url(#p96479fbef2)">
     <use xlink:href="#C0_0_89724e5dae" x="228.651303" y="206.996291" style="fill: #7a77ab; stroke: #ffffff; stroke-width: 0.48"/>
    </g>
    <g clip-path="url(#p96479fbef2)">
     <use xlink:href="#C0_0_89724e5dae" x="146.043223" y="240.654544" style="fill: #7a77ab; stroke: #ffffff; stroke-width: 0.48"/>
    </g>
    <g clip-path="url(#p96479fbef2)">
     <use xlink:href="#C0_0_89724e5dae" x="141.128708" y="243.372807" style="fill: #7a77ab; stroke: #ffffff; stroke-width: 0.48"/>
    </g>
    <g clip-path="url(#p96479fbef2)">
     <use xlink:href="#C0_0_89724e5dae" x="158.02421" y="224.735463" style="fill: #7a77ab; stroke: #ffffff; stroke-width: 0.48"/>
    </g>
    <g clip-path="url(#p96479fbef2)">
     <use xlink:href="#C0_0_89724e5dae" x="216.808691" y="203.764968" style="fill: #7a77ab; stroke: #ffffff; stroke-width: 0.48"/>
    </g>
    <g clip-path="url(#p96479fbef2)">
     <use xlink:href="#C0_0_89724e5dae" x="164.410039" y="229.1289" style="fill: #7a77ab; stroke: #ffffff; stroke-width: 0.48"/>
    </g>
    <g clip-path="url(#p96479fbef2)">
     <use xlink:href="#C0_0_89724e5dae" x="155.289642" y="240.304951" style="fill: #7a77ab; stroke: #ffffff; stroke-width: 0.48"/>
    </g>
    <g clip-path="url(#p96479fbef2)">
     <use xlink:href="#C0_0_89724e5dae" x="203.041272" y="226.8287" style="fill: #7a77ab; stroke: #ffffff; stroke-width: 0.48"/>
    </g>
    <g clip-path="url(#p96479fbef2)">
     <use xlink:href="#C0_0_89724e5dae" x="198.678434" y="230.36044" style="fill: #7a77ab; stroke: #ffffff; stroke-width: 0.48"/>
    </g>
    <g clip-path="url(#p96479fbef2)">
     <use xlink:href="#C0_0_89724e5dae" x="227.895041" y="230.573782" style="fill: #7a77ab; stroke: #ffffff; stroke-width: 0.48"/>
    </g>
    <g clip-path="url(#p96479fbef2)">
     <use xlink:href="#C0_0_89724e5dae" x="183.686158" y="248.031291" style="fill: #7a77ab; stroke: #ffffff; stroke-width: 0.48"/>
    </g>
    <g clip-path="url(#p96479fbef2)">
     <use xlink:href="#C0_0_89724e5dae" x="181.957905" y="246.459431" style="fill: #7a77ab; stroke: #ffffff; stroke-width: 0.48"/>
    </g>
    <g clip-path="url(#p96479fbef2)">
     <use xlink:href="#C0_0_89724e5dae" x="160.420028" y="241.744972" style="fill: #7a77ab; stroke: #ffffff; stroke-width: 0.48"/>
    </g>
    <g clip-path="url(#p96479fbef2)">
     <use xlink:href="#C0_0_89724e5dae" x="170.655519" y="244.766511" style="fill: #7a77ab; stroke: #ffffff; stroke-width: 0.48"/>
    </g>
    <g clip-path="url(#p96479fbef2)">
     <use xlink:href="#C0_0_89724e5dae" x="216.939091" y="214.135221" style="fill: #7a77ab; stroke: #ffffff; stroke-width: 0.48"/>
    </g>
    <g clip-path="url(#p96479fbef2)">
     <use xlink:href="#C0_0_89724e5dae" x="193.177321" y="220.724128" style="fill: #7a77ab; stroke: #ffffff; stroke-width: 0.48"/>
    </g>
    <g clip-path="url(#p96479fbef2)">
     <use xlink:href="#C0_0_89724e5dae" x="203.730534" y="232.50297" style="fill: #7a77ab; stroke: #ffffff; stroke-width: 0.48"/>
    </g>
    <g clip-path="url(#p96479fbef2)">
     <use xlink:href="#C0_0_89724e5dae" x="169.047564" y="241.212633" style="fill: #7a77ab; stroke: #ffffff; stroke-width: 0.48"/>
    </g>
    <g clip-path="url(#p96479fbef2)">
     <use xlink:href="#C0_0_89724e5dae" x="177.761158" y="210.379122" style="fill: #7a77ab; stroke: #ffffff; stroke-width: 0.48"/>
    </g>
    <g clip-path="url(#p96479fbef2)">
     <use xlink:href="#C0_0_89724e5dae" x="176.638813" y="246.805286" style="fill: #7a77ab; stroke: #ffffff; stroke-width: 0.48"/>
    </g>
    <g clip-path="url(#p96479fbef2)">
     <use xlink:href="#C0_0_89724e5dae" x="173.086449" y="236.24573" style="fill: #7a77ab; stroke: #ffffff; stroke-width: 0.48"/>
    </g>
    <g clip-path="url(#p96479fbef2)">
     <use xlink:href="#C0_0_89724e5dae" x="133.933106" y="241.283195" style="fill: #7a77ab; stroke: #ffffff; stroke-width: 0.48"/>
    </g>
    <g clip-path="url(#p96479fbef2)">
     <use xlink:href="#C0_0_89724e5dae" x="151.785501" y="235.719469" style="fill: #7a77ab; stroke: #ffffff; stroke-width: 0.48"/>
    </g>
    <g clip-path="url(#p96479fbef2)">
     <use xlink:href="#C0_0_89724e5dae" x="226.881954" y="193.395626" style="fill: #7a77ab; stroke: #ffffff; stroke-width: 0.48"/>
    </g>
    <g clip-path="url(#p96479fbef2)">
     <use xlink:href="#C0_0_89724e5dae" x="236.48758" y="227.973636" style="fill: #7a77ab; stroke: #ffffff; stroke-width: 0.48"/>
    </g>
    <g clip-path="url(#p96479fbef2)">
     <use xlink:href="#C0_0_89724e5dae" x="141.973121" y="212.568952" style="fill: #7a77ab; stroke: #ffffff; stroke-width: 0.48"/>
    </g>
    <g clip-path="url(#p96479fbef2)">
     <use xlink:href="#C0_0_89724e5dae" x="167.362536" y="247.751147" style="fill: #7a77ab; stroke: #ffffff; stroke-width: 0.48"/>
    </g>
    <g clip-path="url(#p96479fbef2)">
     <use xlink:href="#C0_0_89724e5dae" x="136.932997" y="226.118793" style="fill: #7a77ab; stroke: #ffffff; stroke-width: 0.48"/>
    </g>
    <g clip-path="url(#p96479fbef2)">
     <use xlink:href="#C0_0_89724e5dae" x="243.208823" y="148.539357" style="fill: #7a77ab; stroke: #ffffff; stroke-width: 0.48"/>
    </g>
    <g clip-path="url(#p96479fbef2)">
     <use xlink:href="#C0_0_89724e5dae" x="137.731692" y="242.408591" style="fill: #7a77ab; stroke: #ffffff; stroke-width: 0.48"/>
    </g>
    <g clip-path="url(#p96479fbef2)">
     <use xlink:href="#C0_0_89724e5dae" x="138.657667" y="243.65803" style="fill: #7a77ab; stroke: #ffffff; stroke-width: 0.48"/>
    </g>
    <g clip-path="url(#p96479fbef2)">
     <use xlink:href="#C0_0_89724e5dae" x="189.75943" y="252.115404" style="fill: #7a77ab; stroke: #ffffff; stroke-width: 0.48"/>
    </g>
    <g clip-path="url(#p96479fbef2)">
     <use xlink:href="#C0_0_89724e5dae" x="138.563072" y="236.309725" style="fill: #7a77ab; stroke: #ffffff; stroke-width: 0.48"/>
    </g>
    <g clip-path="url(#p96479fbef2)">
     <use xlink:href="#C0_0_89724e5dae" x="210.826205" y="241.364676" style="fill: #7a77ab; stroke: #ffffff; stroke-width: 0.48"/>
    </g>
    <g clip-path="url(#p96479fbef2)">
     <use xlink:href="#C0_0_89724e5dae" x="127.898072" y="228.447186" style="fill: #7a77ab; stroke: #ffffff; stroke-width: 0.48"/>
    </g>
    <g clip-path="url(#p96479fbef2)">
     <use xlink:href="#C0_0_89724e5dae" x="133.48629" y="229.579461" style="fill: #7a77ab; stroke: #ffffff; stroke-width: 0.48"/>
    </g>
   </g>
   <g id="matplotlib.axis_1">
    <g id="xtick_1">
     <g id="line2d_1">
      <defs>
       <path id="mf89f8c682c" d="M 0 0 
L 0 5 
" style="stroke: #000000; stroke-width: 0.75"/>
      </defs>
      <g>
       <use xlink:href="#mf89f8c682c" x="112.389626" y="295.8" style="stroke: #000000; stroke-width: 0.75"/>
      </g>
     </g>
     <g id="text_1">
      <text style="font: 15px &quot;Suisse Int&apos;l&quot;, sans-serif; text-anchor: middle" x="112.389626" y="316.675" transform="rotate(-0 112.389626 316.675)">0.0</text>
     </g>
    </g>
    <g id="xtick_2">
     <g id="line2d_2">
      <g>
       <use xlink:href="#mf89f8c682c" x="186.486516" y="295.8" style="stroke: #000000; stroke-width: 0.75"/>
      </g>
     </g>
     <g id="text_2">
      <text style="font: 15px &quot;Suisse Int&apos;l&quot;, sans-serif; text-anchor: middle" x="186.486516" y="316.675" transform="rotate(-0 186.486516 316.675)">0.5</text>
     </g>
    </g>
    <g id="xtick_3">
     <g id="line2d_3">
      <g>
       <use xlink:href="#mf89f8c682c" x="260.583406" y="295.8" style="stroke: #000000; stroke-width: 0.75"/>
      </g>
     </g>
     <g id="text_3">
      <text style="font: 15px &quot;Suisse Int&apos;l&quot;, sans-serif; text-anchor: middle" x="260.583406" y="316.675" transform="rotate(-0 260.583406 316.675)">1.0</text>
     </g>
    </g>
    <g id="text_4">
     <text style="font: 500 15px &quot;Suisse Int&apos;l&quot;, sans-serif; text-anchor: middle" x="185.745" y="340.175" transform="rotate(-0 185.745 340.175)">Confinement_ratio</text>
    </g>
   </g>
   <g id="matplotlib.axis_2">
    <g id="ytick_1">
     <g id="line2d_4">
      <defs>
       <path id="mda03586c3f" d="M 0 0 
L -5 0 
" style="stroke: #000000; stroke-width: 0.75"/>
      </defs>
      <g>
       <use xlink:href="#mda03586c3f" x="73.95" y="294.913188" style="stroke: #000000; stroke-width: 0.75"/>
      </g>
     </g>
     <g id="text_5">
      <text style="font: 15px &quot;Suisse Int&apos;l&quot;, sans-serif; text-anchor: end" x="63.95" y="300.350688" transform="rotate(-0 63.95 300.350688)">−20</text>
     </g>
    </g>
    <g id="ytick_2">
     <g id="line2d_5">
      <g>
       <use xlink:href="#mda03586c3f" x="73.95" y="256.599242" style="stroke: #000000; stroke-width: 0.75"/>
      </g>
     </g>
     <g id="text_6">
      <text style="font: 15px &quot;Suisse Int&apos;l&quot;, sans-serif; text-anchor: end" x="63.95" y="262.036742" transform="rotate(-0 63.95 262.036742)">0</text>
     </g>
    </g>
    <g id="ytick_3">
     <g id="line2d_6">
      <g>
       <use xlink:href="#mda03586c3f" x="73.95" y="218.285297" style="stroke: #000000; stroke-width: 0.75"/>
      </g>
     </g>
     <g id="text_7">
      <text style="font: 15px &quot;Suisse Int&apos;l&quot;, sans-serif; text-anchor: end" x="63.95" y="223.722797" transform="rotate(-0 63.95 223.722797)">20</text>
     </g>
    </g>
    <g id="ytick_4">
     <g id="line2d_7">
      <g>
       <use xlink:href="#mda03586c3f" x="73.95" y="179.971351" style="stroke: #000000; stroke-width: 0.75"/>
      </g>
     </g>
     <g id="text_8">
      <text style="font: 15px &quot;Suisse Int&apos;l&quot;, sans-serif; text-anchor: end" x="63.95" y="185.408851" transform="rotate(-0 63.95 185.408851)">40</text>
     </g>
    </g>
    <g id="ytick_5">
     <g id="line2d_8">
      <g>
       <use xlink:href="#mda03586c3f" x="73.95" y="141.657406" style="stroke: #000000; stroke-width: 0.75"/>
      </g>
     </g>
     <g id="text_9">
      <text style="font: 15px &quot;Suisse Int&apos;l&quot;, sans-serif; text-anchor: end" x="63.95" y="147.094906" transform="rotate(-0 63.95 147.094906)">60</text>
     </g>
    </g>
    <g id="ytick_6">
     <g id="line2d_9">
      <g>
       <use xlink:href="#mda03586c3f" x="73.95" y="103.34346" style="stroke: #000000; stroke-width: 0.75"/>
      </g>
     </g>
     <g id="text_10">
      <text style="font: 15px &quot;Suisse Int&apos;l&quot;, sans-serif; text-anchor: end" x="63.95" y="108.78096" transform="rotate(-0 63.95 108.78096)">80</text>
     </g>
    </g>
    <g id="ytick_7">
     <g id="line2d_10">
      <g>
       <use xlink:href="#mda03586c3f" x="73.95" y="65.029515" style="stroke: #000000; stroke-width: 0.75"/>
      </g>
     </g>
     <g id="text_11">
      <text style="font: 15px &quot;Suisse Int&apos;l&quot;, sans-serif; text-anchor: end" x="63.95" y="70.467015" transform="rotate(-0 63.95 70.467015)">100</text>
     </g>
    </g>
    <g id="text_12">
     <text style="font: 500 15px &quot;Suisse Int&apos;l&quot;, sans-serif; text-anchor: middle" x="22.391406" y="179.965714" transform="rotate(-90 22.391406 179.965714)">Mean_curvilinear_speed</text>
    </g>
   </g>
   <g id="line2d_11"/>
   <g id="line2d_12"/>
   <g id="patch_3">
    <path d="M 73.95 295.8 
L 73.95 64.131429 
" style="fill: none; stroke: #000000; stroke-width: 0.75; stroke-linejoin: miter; stroke-linecap: square"/>
   </g>
   <g id="patch_4">
    <path d="M 73.95 295.8 
L 297.54 295.8 
" style="fill: none; stroke: #000000; stroke-width: 0.75; stroke-linejoin: miter; stroke-linecap: square"/>
   </g>
   <g id="legend_1">
    <g id="text_13">
     <text style="font: 600 16px &quot;Suisse Int&apos;l&quot;, sans-serif; text-anchor: start" x="317.7525" y="75.731429" transform="rotate(-0 317.7525 75.731429)">Vessel_type</text>
    </g>
    <g id="line2d_13">
     <path d="M 317.7525 86.031429 
L 361 86.031429 
" style="fill: none; stroke: #bab0a8; stroke-width: 1.5; stroke-linecap: round"/>
    </g>
    <g id="line2d_14">
     <defs>
      <path id="m55ed0630cf" d="M 0 3 
C 0.795609 3 1.55874 2.683901 2.12132 2.12132 
C 2.683901 1.55874 3 0.795609 3 0 
C 3 -0.795609 2.683901 -1.55874 2.12132 -2.12132 
C 1.55874 -2.683901 0.795609 -3 0 -3 
C -0.795609 -3 -1.55874 -2.683901 -2.12132 -2.12132 
C -2.683901 -1.55874 -3 -0.795609 -3 0 
C -3 0.795609 -2.683901 1.55874 -2.12132 2.12132 
C -1.55874 2.683901 -0.795609 3 0 3 
z
" style="stroke: #ffffff; stroke-width: 0.48"/>
     </defs>
     <g>
      <use xlink:href="#m55ed0630cf" x="325.2525" y="99.906429" style="fill: #f28360; stroke: #ffffff; stroke-width: 0.48"/>
     </g>
    </g>
    <g id="text_14">
     <text style="font: 15px &quot;Suisse Int&apos;l&quot;, sans-serif; text-anchor: start" x="338.7525" y="106.281429" transform="rotate(-0 338.7525 106.281429)">Pools</text>
    </g>
    <g id="line2d_15">
     <defs>
      <path id="m1549994c93" d="M 0 3 
C 0.795609 3 1.55874 2.683901 2.12132 2.12132 
C 2.683901 1.55874 3 0.795609 3 0 
C 3 -0.795609 2.683901 -1.55874 2.12132 -2.12132 
C 1.55874 -2.683901 0.795609 -3 0 -3 
C -0.795609 -3 -1.55874 -2.683901 -2.12132 -2.12132 
C -2.683901 -1.55874 -3 -0.795609 -3 0 
C -3 0.795609 -2.683901 1.55874 -2.12132 2.12132 
C -1.55874 2.683901 -0.795609 3 0 3 
z
" style="stroke: #ffffff; stroke-width: 0.48"/>
     </defs>
     <g>
      <use xlink:href="#m1549994c93" x="325.2525" y="122.781429" style="fill: #7a77ab; stroke: #ffffff; stroke-width: 0.48"/>
     </g>
    </g>
    <g id="text_15">
     <text style="font: 15px &quot;Suisse Int&apos;l&quot;, sans-serif; text-anchor: start" x="338.7525" y="129.156429" transform="rotate(-0 338.7525 129.156429)">Wells</text>
    </g>
   </g>
  </g>
  <g id="axes_2">
   <g id="patch_5">
    <path d="M 73.95 56.142857 
L 297.54 56.142857 
L 297.54 16.2 
L 73.95 16.2 
L 73.95 56.142857 
z
" style="fill: none"/>
   </g>
   <g id="PolyCollection_1">
    <defs>
     <path id="m155c768c8f" d="M 82.231111 -303.865015 
L 82.231111 -303.857143 
L 83.271452 -303.857143 
L 84.311792 -303.857143 
L 85.352133 -303.857143 
L 86.392473 -303.857143 
L 87.432814 -303.857143 
L 88.473155 -303.857143 
L 89.513495 -303.857143 
L 90.553836 -303.857143 
L 91.594176 -303.857143 
L 92.634517 -303.857143 
L 93.674858 -303.857143 
L 94.715198 -303.857143 
L 95.755539 -303.857143 
L 96.795879 -303.857143 
L 97.83622 -303.857143 
L 98.876561 -303.857143 
L 99.916901 -303.857143 
L 100.957242 -303.857143 
L 101.997582 -303.857143 
L 103.037923 -303.857143 
L 104.078264 -303.857143 
L 105.118604 -303.857143 
L 106.158945 -303.857143 
L 107.199285 -303.857143 
L 108.239626 -303.857143 
L 109.279966 -303.857143 
L 110.320307 -303.857143 
L 111.360648 -303.857143 
L 112.400988 -303.857143 
L 113.441329 -303.857143 
L 114.481669 -303.857143 
L 115.52201 -303.857143 
L 116.562351 -303.857143 
L 117.602691 -303.857143 
L 118.643032 -303.857143 
L 119.683372 -303.857143 
L 120.723713 -303.857143 
L 121.764054 -303.857143 
L 122.804394 -303.857143 
L 123.844735 -303.857143 
L 124.885075 -303.857143 
L 125.925416 -303.857143 
L 126.965757 -303.857143 
L 128.006097 -303.857143 
L 129.046438 -303.857143 
L 130.086778 -303.857143 
L 131.127119 -303.857143 
L 132.16746 -303.857143 
L 133.2078 -303.857143 
L 134.248141 -303.857143 
L 135.288481 -303.857143 
L 136.328822 -303.857143 
L 137.369162 -303.857143 
L 138.409503 -303.857143 
L 139.449844 -303.857143 
L 140.490184 -303.857143 
L 141.530525 -303.857143 
L 142.570865 -303.857143 
L 143.611206 -303.857143 
L 144.651547 -303.857143 
L 145.691887 -303.857143 
L 146.732228 -303.857143 
L 147.772568 -303.857143 
L 148.812909 -303.857143 
L 149.85325 -303.857143 
L 150.89359 -303.857143 
L 151.933931 -303.857143 
L 152.974271 -303.857143 
L 154.014612 -303.857143 
L 155.054953 -303.857143 
L 156.095293 -303.857143 
L 157.135634 -303.857143 
L 158.175974 -303.857143 
L 159.216315 -303.857143 
L 160.256655 -303.857143 
L 161.296996 -303.857143 
L 162.337337 -303.857143 
L 163.377677 -303.857143 
L 164.418018 -303.857143 
L 165.458358 -303.857143 
L 166.498699 -303.857143 
L 167.53904 -303.857143 
L 168.57938 -303.857143 
L 169.619721 -303.857143 
L 170.660061 -303.857143 
L 171.700402 -303.857143 
L 172.740743 -303.857143 
L 173.781083 -303.857143 
L 174.821424 -303.857143 
L 175.861764 -303.857143 
L 176.902105 -303.857143 
L 177.942446 -303.857143 
L 178.982786 -303.857143 
L 180.023127 -303.857143 
L 181.063467 -303.857143 
L 182.103808 -303.857143 
L 183.144149 -303.857143 
L 184.184489 -303.857143 
L 185.22483 -303.857143 
L 186.26517 -303.857143 
L 187.305511 -303.857143 
L 188.345851 -303.857143 
L 189.386192 -303.857143 
L 190.426533 -303.857143 
L 191.466873 -303.857143 
L 192.507214 -303.857143 
L 193.547554 -303.857143 
L 194.587895 -303.857143 
L 195.628236 -303.857143 
L 196.668576 -303.857143 
L 197.708917 -303.857143 
L 198.749257 -303.857143 
L 199.789598 -303.857143 
L 200.829939 -303.857143 
L 201.870279 -303.857143 
L 202.91062 -303.857143 
L 203.95096 -303.857143 
L 204.991301 -303.857143 
L 206.031642 -303.857143 
L 207.071982 -303.857143 
L 208.112323 -303.857143 
L 209.152663 -303.857143 
L 210.193004 -303.857143 
L 211.233345 -303.857143 
L 212.273685 -303.857143 
L 213.314026 -303.857143 
L 214.354366 -303.857143 
L 215.394707 -303.857143 
L 216.435047 -303.857143 
L 217.475388 -303.857143 
L 218.515729 -303.857143 
L 219.556069 -303.857143 
L 220.59641 -303.857143 
L 221.63675 -303.857143 
L 222.677091 -303.857143 
L 223.717432 -303.857143 
L 224.757772 -303.857143 
L 225.798113 -303.857143 
L 226.838453 -303.857143 
L 227.878794 -303.857143 
L 228.919135 -303.857143 
L 229.959475 -303.857143 
L 230.999816 -303.857143 
L 232.040156 -303.857143 
L 233.080497 -303.857143 
L 234.120838 -303.857143 
L 235.161178 -303.857143 
L 236.201519 -303.857143 
L 237.241859 -303.857143 
L 238.2822 -303.857143 
L 239.32254 -303.857143 
L 240.362881 -303.857143 
L 241.403222 -303.857143 
L 242.443562 -303.857143 
L 243.483903 -303.857143 
L 244.524243 -303.857143 
L 245.564584 -303.857143 
L 246.604925 -303.857143 
L 247.645265 -303.857143 
L 248.685606 -303.857143 
L 249.725946 -303.857143 
L 250.766287 -303.857143 
L 251.806628 -303.857143 
L 252.846968 -303.857143 
L 253.887309 -303.857143 
L 254.927649 -303.857143 
L 255.96799 -303.857143 
L 257.008331 -303.857143 
L 258.048671 -303.857143 
L 259.089012 -303.857143 
L 260.129352 -303.857143 
L 261.169693 -303.857143 
L 262.210034 -303.857143 
L 263.250374 -303.857143 
L 264.290715 -303.857143 
L 265.331055 -303.857143 
L 266.371396 -303.857143 
L 267.411736 -303.857143 
L 268.452077 -303.857143 
L 269.492418 -303.857143 
L 270.532758 -303.857143 
L 271.573099 -303.857143 
L 272.613439 -303.857143 
L 273.65378 -303.857143 
L 274.694121 -303.857143 
L 275.734461 -303.857143 
L 276.774802 -303.857143 
L 277.815142 -303.857143 
L 278.855483 -303.857143 
L 279.895824 -303.857143 
L 280.936164 -303.857143 
L 281.976505 -303.857143 
L 283.016845 -303.857143 
L 284.057186 -303.857143 
L 285.097527 -303.857143 
L 286.137867 -303.857143 
L 287.178208 -303.857143 
L 288.218548 -303.857143 
L 289.258889 -303.857143 
L 289.258889 -303.866885 
L 289.258889 -303.866885 
L 288.218548 -303.869577 
L 287.178208 -303.872929 
L 286.137867 -303.87708 
L 285.097527 -303.882191 
L 284.057186 -303.888451 
L 283.016845 -303.896073 
L 281.976505 -303.905302 
L 280.936164 -303.916415 
L 279.895824 -303.929721 
L 278.855483 -303.945566 
L 277.815142 -303.964329 
L 276.774802 -303.986425 
L 275.734461 -304.012302 
L 274.694121 -304.042441 
L 273.65378 -304.077351 
L 272.613439 -304.117566 
L 271.573099 -304.163642 
L 270.532758 -304.216145 
L 269.492418 -304.275648 
L 268.452077 -304.342722 
L 267.411736 -304.417924 
L 266.371396 -304.501789 
L 265.331055 -304.594817 
L 264.290715 -304.697464 
L 263.250374 -304.810126 
L 262.210034 -304.933131 
L 261.169693 -305.066728 
L 260.129352 -305.211076 
L 259.089012 -305.366232 
L 258.048671 -305.532148 
L 257.008331 -305.708661 
L 255.96799 -305.895493 
L 254.927649 -306.092243 
L 253.887309 -306.298394 
L 252.846968 -306.513311 
L 251.806628 -306.736249 
L 250.766287 -306.966357 
L 249.725946 -307.202693 
L 248.685606 -307.44423 
L 247.645265 -307.689874 
L 246.604925 -307.938479 
L 245.564584 -308.188859 
L 244.524243 -308.439813 
L 243.483903 -308.690133 
L 242.443562 -308.938633 
L 241.403222 -309.184155 
L 240.362881 -309.425596 
L 239.32254 -309.661915 
L 238.2822 -309.892153 
L 237.241859 -310.115441 
L 236.201519 -310.331013 
L 235.161178 -310.53821 
L 234.120838 -310.73649 
L 233.080497 -310.925424 
L 232.040156 -311.104703 
L 230.999816 -311.27413 
L 229.959475 -311.433619 
L 228.919135 -311.583185 
L 227.878794 -311.722937 
L 226.838453 -311.853069 
L 225.798113 -311.973846 
L 224.757772 -312.085596 
L 223.717432 -312.188696 
L 222.677091 -312.283559 
L 221.63675 -312.37063 
L 220.59641 -312.450368 
L 219.556069 -312.523247 
L 218.515729 -312.58974 
L 217.475388 -312.650323 
L 216.435047 -312.705468 
L 215.394707 -312.755643 
L 214.354366 -312.801311 
L 213.314026 -312.842935 
L 212.273685 -312.880977 
L 211.233345 -312.915904 
L 210.193004 -312.94819 
L 209.152663 -312.978316 
L 208.112323 -313.006775 
L 207.071982 -313.034073 
L 206.031642 -313.060723 
L 204.991301 -313.087243 
L 203.95096 -313.114155 
L 202.91062 -313.14197 
L 201.870279 -313.171183 
L 200.829939 -313.202259 
L 199.789598 -313.235622 
L 198.749257 -313.27164 
L 197.708917 -313.310609 
L 196.668576 -313.352742 
L 195.628236 -313.398154 
L 194.587895 -313.446848 
L 193.547554 -313.498711 
L 192.507214 -313.553502 
L 191.466873 -313.610852 
L 190.426533 -313.670262 
L 189.386192 -313.731108 
L 188.345851 -313.792649 
L 187.305511 -313.85404 
L 186.26517 -313.914346 
L 185.22483 -313.972565 
L 184.184489 -314.027645 
L 183.144149 -314.078516 
L 182.103808 -314.12411 
L 181.063467 -314.163392 
L 180.023127 -314.195387 
L 178.982786 -314.219204 
L 177.942446 -314.234064 
L 176.902105 -314.239321 
L 175.861764 -314.234478 
L 174.821424 -314.219204 
L 173.781083 -314.193343 
L 172.740743 -314.156918 
L 171.700402 -314.110131 
L 170.660061 -314.053356 
L 169.619721 -313.987129 
L 168.57938 -313.912131 
L 167.53904 -313.829167 
L 166.498699 -313.739142 
L 165.458358 -313.643034 
L 164.418018 -313.541864 
L 163.377677 -313.436665 
L 162.337337 -313.328454 
L 161.296996 -313.218195 
L 160.256655 -313.106777 
L 159.216315 -312.994984 
L 158.175974 -312.883474 
L 157.135634 -312.77276 
L 156.095293 -312.663194 
L 155.054953 -312.554959 
L 154.014612 -312.448065 
L 152.974271 -312.342348 
L 151.933931 -312.237478 
L 150.89359 -312.13297 
L 149.85325 -312.028197 
L 148.812909 -311.922415 
L 147.772568 -311.814778 
L 146.732228 -311.704375 
L 145.691887 -311.590249 
L 144.651547 -311.471431 
L 143.611206 -311.346971 
L 142.570865 -311.215966 
L 141.530525 -311.077588 
L 140.490184 -310.931115 
L 139.449844 -310.775949 
L 138.409503 -310.611643 
L 137.369162 -310.437914 
L 136.328822 -310.254655 
L 135.288481 -310.061945 
L 134.248141 -309.860053 
L 133.2078 -309.64943 
L 132.16746 -309.43071 
L 131.127119 -309.204693 
L 130.086778 -308.972332 
L 129.046438 -308.734712 
L 128.006097 -308.49303 
L 126.965757 -308.24857 
L 125.925416 -308.002675 
L 124.885075 -307.756721 
L 123.844735 -307.51209 
L 122.804394 -307.270146 
L 121.764054 -307.032203 
L 120.723713 -306.799512 
L 119.683372 -306.57323 
L 118.643032 -306.35441 
L 117.602691 -306.143985 
L 116.562351 -305.942755 
L 115.52201 -305.751382 
L 114.481669 -305.570384 
L 113.441329 -305.400139 
L 112.400988 -305.240883 
L 111.360648 -305.092718 
L 110.320307 -304.955622 
L 109.279966 -304.829454 
L 108.239626 -304.71397 
L 107.199285 -304.608837 
L 106.158945 -304.513641 
L 105.118604 -304.427906 
L 104.078264 -304.351105 
L 103.037923 -304.282677 
L 101.997582 -304.222035 
L 100.957242 -304.16858 
L 99.916901 -304.121713 
L 98.876561 -304.080842 
L 97.83622 -304.045389 
L 96.795879 -304.014801 
L 95.755539 -303.988551 
L 94.715198 -303.966145 
L 93.674858 -303.947122 
L 92.634517 -303.931058 
L 91.594176 -303.917566 
L 90.553836 -303.906293 
L 89.513495 -303.896927 
L 88.473155 -303.889186 
L 87.432814 -303.882823 
L 86.392473 -303.877621 
L 85.352133 -303.87339 
L 84.311792 -303.869969 
L 83.271452 -303.867217 
L 82.231111 -303.865015 
z
" style="stroke: #7a77ab; stroke-width: 2"/>
    </defs>
    <g clip-path="url(#pdd92a9ce68)">
     <use xlink:href="#m155c768c8f" x="0" y="360" style="fill: #7a77ab; fill-opacity: 0.25; stroke: #7a77ab; stroke-width: 2"/>
    </g>
   </g>
   <g id="PolyCollection_2">
    <defs>
     <path id="m0c15dc3b09" d="M 98.518081 -303.921192 
L 98.518081 -303.857143 
L 99.016781 -303.857143 
L 99.515481 -303.857143 
L 100.014182 -303.857143 
L 100.512882 -303.857143 
L 101.011582 -303.857143 
L 101.510283 -303.857143 
L 102.008983 -303.857143 
L 102.507683 -303.857143 
L 103.006384 -303.857143 
L 103.505084 -303.857143 
L 104.003784 -303.857143 
L 104.502485 -303.857143 
L 105.001185 -303.857143 
L 105.499885 -303.857143 
L 105.998585 -303.857143 
L 106.497286 -303.857143 
L 106.995986 -303.857143 
L 107.494686 -303.857143 
L 107.993387 -303.857143 
L 108.492087 -303.857143 
L 108.990787 -303.857143 
L 109.489488 -303.857143 
L 109.988188 -303.857143 
L 110.486888 -303.857143 
L 110.985589 -303.857143 
L 111.484289 -303.857143 
L 111.982989 -303.857143 
L 112.48169 -303.857143 
L 112.98039 -303.857143 
L 113.47909 -303.857143 
L 113.977791 -303.857143 
L 114.476491 -303.857143 
L 114.975191 -303.857143 
L 115.473891 -303.857143 
L 115.972592 -303.857143 
L 116.471292 -303.857143 
L 116.969992 -303.857143 
L 117.468693 -303.857143 
L 117.967393 -303.857143 
L 118.466093 -303.857143 
L 118.964794 -303.857143 
L 119.463494 -303.857143 
L 119.962194 -303.857143 
L 120.460895 -303.857143 
L 120.959595 -303.857143 
L 121.458295 -303.857143 
L 121.956996 -303.857143 
L 122.455696 -303.857143 
L 122.954396 -303.857143 
L 123.453097 -303.857143 
L 123.951797 -303.857143 
L 124.450497 -303.857143 
L 124.949197 -303.857143 
L 125.447898 -303.857143 
L 125.946598 -303.857143 
L 126.445298 -303.857143 
L 126.943999 -303.857143 
L 127.442699 -303.857143 
L 127.941399 -303.857143 
L 128.4401 -303.857143 
L 128.9388 -303.857143 
L 129.4375 -303.857143 
L 129.936201 -303.857143 
L 130.434901 -303.857143 
L 130.933601 -303.857143 
L 131.432302 -303.857143 
L 131.931002 -303.857143 
L 132.429702 -303.857143 
L 132.928402 -303.857143 
L 133.427103 -303.857143 
L 133.925803 -303.857143 
L 134.424503 -303.857143 
L 134.923204 -303.857143 
L 135.421904 -303.857143 
L 135.920604 -303.857143 
L 136.419305 -303.857143 
L 136.918005 -303.857143 
L 137.416705 -303.857143 
L 137.915406 -303.857143 
L 138.414106 -303.857143 
L 138.912806 -303.857143 
L 139.411507 -303.857143 
L 139.910207 -303.857143 
L 140.408907 -303.857143 
L 140.907608 -303.857143 
L 141.406308 -303.857143 
L 141.905008 -303.857143 
L 142.403708 -303.857143 
L 142.902409 -303.857143 
L 143.401109 -303.857143 
L 143.899809 -303.857143 
L 144.39851 -303.857143 
L 144.89721 -303.857143 
L 145.39591 -303.857143 
L 145.894611 -303.857143 
L 146.393311 -303.857143 
L 146.892011 -303.857143 
L 147.390712 -303.857143 
L 147.889412 -303.857143 
L 148.388112 -303.857143 
L 148.886813 -303.857143 
L 149.385513 -303.857143 
L 149.884213 -303.857143 
L 150.382914 -303.857143 
L 150.881614 -303.857143 
L 151.380314 -303.857143 
L 151.879014 -303.857143 
L 152.377715 -303.857143 
L 152.876415 -303.857143 
L 153.375115 -303.857143 
L 153.873816 -303.857143 
L 154.372516 -303.857143 
L 154.871216 -303.857143 
L 155.369917 -303.857143 
L 155.868617 -303.857143 
L 156.367317 -303.857143 
L 156.866018 -303.857143 
L 157.364718 -303.857143 
L 157.863418 -303.857143 
L 158.362119 -303.857143 
L 158.860819 -303.857143 
L 159.359519 -303.857143 
L 159.858219 -303.857143 
L 160.35692 -303.857143 
L 160.85562 -303.857143 
L 161.35432 -303.857143 
L 161.853021 -303.857143 
L 162.351721 -303.857143 
L 162.850421 -303.857143 
L 163.349122 -303.857143 
L 163.847822 -303.857143 
L 164.346522 -303.857143 
L 164.845223 -303.857143 
L 165.343923 -303.857143 
L 165.842623 -303.857143 
L 166.341324 -303.857143 
L 166.840024 -303.857143 
L 167.338724 -303.857143 
L 167.837425 -303.857143 
L 168.336125 -303.857143 
L 168.834825 -303.857143 
L 169.333525 -303.857143 
L 169.832226 -303.857143 
L 170.330926 -303.857143 
L 170.829626 -303.857143 
L 171.328327 -303.857143 
L 171.827027 -303.857143 
L 172.325727 -303.857143 
L 172.824428 -303.857143 
L 173.323128 -303.857143 
L 173.821828 -303.857143 
L 174.320529 -303.857143 
L 174.819229 -303.857143 
L 175.317929 -303.857143 
L 175.81663 -303.857143 
L 176.31533 -303.857143 
L 176.81403 -303.857143 
L 177.312731 -303.857143 
L 177.811431 -303.857143 
L 178.310131 -303.857143 
L 178.808831 -303.857143 
L 179.307532 -303.857143 
L 179.806232 -303.857143 
L 180.304932 -303.857143 
L 180.803633 -303.857143 
L 181.302333 -303.857143 
L 181.801033 -303.857143 
L 182.299734 -303.857143 
L 182.798434 -303.857143 
L 183.297134 -303.857143 
L 183.795835 -303.857143 
L 184.294535 -303.857143 
L 184.793235 -303.857143 
L 185.291936 -303.857143 
L 185.790636 -303.857143 
L 186.289336 -303.857143 
L 186.788037 -303.857143 
L 187.286737 -303.857143 
L 187.785437 -303.857143 
L 188.284137 -303.857143 
L 188.782838 -303.857143 
L 189.281538 -303.857143 
L 189.780238 -303.857143 
L 190.278939 -303.857143 
L 190.777639 -303.857143 
L 191.276339 -303.857143 
L 191.77504 -303.857143 
L 192.27374 -303.857143 
L 192.77244 -303.857143 
L 193.271141 -303.857143 
L 193.769841 -303.857143 
L 194.268541 -303.857143 
L 194.767242 -303.857143 
L 195.265942 -303.857143 
L 195.764642 -303.857143 
L 196.263342 -303.857143 
L 196.762043 -303.857143 
L 197.260743 -303.857143 
L 197.759443 -303.857143 
L 197.759443 -303.864288 
L 197.759443 -303.864288 
L 197.260743 -303.866922 
L 196.762043 -303.870377 
L 196.263342 -303.87485 
L 195.764642 -303.880568 
L 195.265942 -303.887782 
L 194.767242 -303.896767 
L 194.268541 -303.907808 
L 193.769841 -303.921195 
L 193.271141 -303.937205 
L 192.77244 -303.956088 
L 192.27374 -303.978045 
L 191.77504 -304.003208 
L 191.276339 -304.031618 
L 190.777639 -304.063202 
L 190.278939 -304.097759 
L 189.780238 -304.134942 
L 189.281538 -304.174252 
L 188.782838 -304.215043 
L 188.284137 -304.256526 
L 187.785437 -304.297791 
L 187.286737 -304.33784 
L 186.788037 -304.37562 
L 186.289336 -304.410071 
L 185.790636 -304.440177 
L 185.291936 -304.465013 
L 184.793235 -304.483801 
L 184.294535 -304.495947 
L 183.795835 -304.501081 
L 183.297134 -304.499084 
L 182.798434 -304.490095 
L 182.299734 -304.474518 
L 181.801033 -304.453006 
L 181.302333 -304.426437 
L 180.803633 -304.395887 
L 180.304932 -304.362585 
L 179.806232 -304.327879 
L 179.307532 -304.293192 
L 178.808831 -304.259988 
L 178.310131 -304.229734 
L 177.811431 -304.203878 
L 177.312731 -304.183829 
L 176.81403 -304.170936 
L 176.31533 -304.166484 
L 175.81663 -304.171679 
L 175.317929 -304.187638 
L 174.819229 -304.215378 
L 174.320529 -304.255798 
L 173.821828 -304.309653 
L 173.323128 -304.377526 
L 172.824428 -304.459797 
L 172.325727 -304.556601 
L 171.827027 -304.667792 
L 171.328327 -304.79291 
L 170.829626 -304.931148 
L 170.330926 -305.081339 
L 169.832226 -305.241951 
L 169.333525 -305.411092 
L 168.834825 -305.586546 
L 168.336125 -305.765811 
L 167.837425 -305.946163 
L 167.338724 -306.124729 
L 166.840024 -306.298571 
L 166.341324 -306.464775 
L 165.842623 -306.620542 
L 165.343923 -306.763279 
L 164.845223 -306.890678 
L 164.346522 -307.000794 
L 163.847822 -307.092105 
L 163.349122 -307.16356 
L 162.850421 -307.21462 
L 162.351721 -307.245275 
L 161.853021 -307.256062 
L 161.35432 -307.248057 
L 160.85562 -307.222864 
L 160.35692 -307.182595 
L 159.858219 -307.129838 
L 159.359519 -307.067612 
L 158.860819 -306.999328 
L 158.362119 -306.928725 
L 157.863418 -306.859819 
L 157.364718 -306.796831 
L 156.866018 -306.744122 
L 156.367317 -306.706121 
L 155.868617 -306.687243 
L 155.369917 -306.691819 
L 154.871216 -306.724004 
L 154.372516 -306.787702 
L 153.873816 -306.886466 
L 153.375115 -307.023419 
L 152.876415 -307.20115 
L 152.377715 -307.421631 
L 151.879014 -307.686125 
L 151.380314 -307.995113 
L 150.881614 -308.348233 
L 150.382914 -308.744238 
L 149.884213 -309.180991 
L 149.385513 -309.655489 
L 148.886813 -310.163924 
L 148.388112 -310.701791 
L 147.889412 -311.264024 
L 147.390712 -311.845178 
L 146.892011 -312.439622 
L 146.393311 -313.041759 
L 145.894611 -313.646244 
L 145.39591 -314.248193 
L 144.89721 -314.843369 
L 144.39851 -315.428336 
L 143.899809 -316.00058 
L 143.401109 -316.558579 
L 142.902409 -317.101835 
L 142.403708 -317.630868 
L 141.905008 -318.147174 
L 141.406308 -318.653152 
L 140.907608 -319.15202 
L 140.408907 -319.647709 
L 139.910207 -320.144748 
L 139.411507 -320.648141 
L 138.912806 -321.163235 
L 138.414106 -321.695573 
L 137.915406 -322.25073 
L 137.416705 -322.834133 
L 136.918005 -323.450854 
L 136.419305 -324.105386 
L 135.920604 -324.801405 
L 135.421904 -325.541523 
L 134.923204 -326.327052 
L 134.424503 -327.15779 
L 133.925803 -328.03185 
L 133.427103 -328.945549 
L 132.928402 -329.893376 
L 132.429702 -330.868048 
L 131.931002 -331.860658 
L 131.432302 -332.860926 
L 130.933601 -333.857532 
L 130.434901 -334.838527 
L 129.936201 -335.791793 
L 129.4375 -336.705528 
L 128.9388 -337.568728 
L 128.4401 -338.371631 
L 127.941399 -339.106097 
L 127.442699 -339.76589 
L 126.943999 -340.346853 
L 126.445298 -340.846951 
L 125.946598 -341.266183 
L 125.447898 -341.606367 
L 124.949197 -341.870809 
L 124.450497 -342.06387 
L 123.951797 -342.190483 
L 123.453097 -342.255613 
L 122.954396 -342.263736 
L 122.455696 -342.218347 
L 121.956996 -342.121539 
L 121.458295 -341.973692 
L 120.959595 -341.77328 
L 120.460895 -341.51683 
L 119.962194 -341.199034 
L 119.463494 -340.813007 
L 118.964794 -340.350691 
L 118.466093 -339.80338 
L 117.967393 -339.162328 
L 117.468693 -338.419421 
L 116.969992 -337.567854 
L 116.471292 -336.602781 
L 115.972592 -335.521892 
L 115.473891 -334.325871 
L 114.975191 -333.018709 
L 114.476491 -331.607846 
L 113.977791 -330.10412 
L 113.47909 -328.521537 
L 112.98039 -326.876851 
L 112.48169 -325.189006 
L 111.982989 -323.478445 
L 111.484289 -321.766344 
L 110.985589 -320.073824 
L 110.486888 -318.421165 
L 109.988188 -316.827096 
L 109.489488 -315.308176 
L 108.990787 -313.878315 
L 108.492087 -312.548446 
L 107.993387 -311.326353 
L 107.494686 -310.216661 
L 106.995986 -309.220973 
L 106.497286 -308.338127 
L 105.998585 -307.564547 
L 105.499885 -306.894664 
L 105.001185 -306.321363 
L 104.502485 -305.836447 
L 104.003784 -305.431063 
L 103.505084 -305.096104 
L 103.006384 -304.822543 
L 102.507683 -304.601712 
L 102.008983 -304.425503 
L 101.510283 -304.286523 
L 101.011582 -304.178166 
L 100.512882 -304.094656 
L 100.014182 -304.031034 
L 99.515481 -303.98312 
L 99.016781 -303.947447 
L 98.518081 -303.921192 
z
" style="stroke: #f28360; stroke-width: 2"/>
    </defs>
    <g clip-path="url(#pdd92a9ce68)">
     <use xlink:href="#m0c15dc3b09" x="0" y="360" style="fill: #f28360; fill-opacity: 0.25; stroke: #f28360; stroke-width: 2"/>
    </g>
   </g>
   <g id="matplotlib.axis_3">
    <g id="xtick_4">
     <g id="line2d_16">
      <g>
       <use xlink:href="#mf89f8c682c" x="112.389626" y="56.142857" style="stroke: #000000; stroke-width: 0.75"/>
      </g>
     </g>
    </g>
    <g id="xtick_5">
     <g id="line2d_17">
      <g>
       <use xlink:href="#mf89f8c682c" x="186.486516" y="56.142857" style="stroke: #000000; stroke-width: 0.75"/>
      </g>
     </g>
    </g>
    <g id="xtick_6">
     <g id="line2d_18">
      <g>
       <use xlink:href="#mf89f8c682c" x="260.583406" y="56.142857" style="stroke: #000000; stroke-width: 0.75"/>
      </g>
     </g>
    </g>
   </g>
   <g id="matplotlib.axis_4">
    <g id="ytick_8"/>
    <g id="ytick_9"/>
   </g>
   <g id="patch_6">
    <path d="M 73.95 56.142857 
L 297.54 56.142857 
" style="fill: none; stroke: #000000; stroke-width: 0.75; stroke-linejoin: miter; stroke-linecap: square"/>
   </g>
  </g>
  <g id="axes_3">
   <g id="patch_7">
    <path d="M 305.25 295.8 
L 343.8 295.8 
L 343.8 64.131429 
L 305.25 64.131429 
L 305.25 295.8 
z
" style="fill: none"/>
   </g>
   <g id="PolyCollection_3">
    <defs>
     <path id="mf52f272569" d="M 305.324417 -84.436969 
L 305.25 -84.436969 
L 305.25 -85.191829 
L 305.25 -85.946689 
L 305.25 -86.701549 
L 305.25 -87.456409 
L 305.25 -88.211269 
L 305.25 -88.966129 
L 305.25 -89.720989 
L 305.25 -90.475849 
L 305.25 -91.230709 
L 305.25 -91.985569 
L 305.25 -92.740429 
L 305.25 -93.495289 
L 305.25 -94.250149 
L 305.25 -95.005009 
L 305.25 -95.759868 
L 305.25 -96.514728 
L 305.25 -97.269588 
L 305.25 -98.024448 
L 305.25 -98.779308 
L 305.25 -99.534168 
L 305.25 -100.289028 
L 305.25 -101.043888 
L 305.25 -101.798748 
L 305.25 -102.553608 
L 305.25 -103.308468 
L 305.25 -104.063328 
L 305.25 -104.818188 
L 305.25 -105.573048 
L 305.25 -106.327908 
L 305.25 -107.082768 
L 305.25 -107.837628 
L 305.25 -108.592488 
L 305.25 -109.347348 
L 305.25 -110.102208 
L 305.25 -110.857068 
L 305.25 -111.611928 
L 305.25 -112.366787 
L 305.25 -113.121647 
L 305.25 -113.876507 
L 305.25 -114.631367 
L 305.25 -115.386227 
L 305.25 -116.141087 
L 305.25 -116.895947 
L 305.25 -117.650807 
L 305.25 -118.405667 
L 305.25 -119.160527 
L 305.25 -119.915387 
L 305.25 -120.670247 
L 305.25 -121.425107 
L 305.25 -122.179967 
L 305.25 -122.934827 
L 305.25 -123.689687 
L 305.25 -124.444547 
L 305.25 -125.199407 
L 305.25 -125.954267 
L 305.25 -126.709127 
L 305.25 -127.463987 
L 305.25 -128.218847 
L 305.25 -128.973706 
L 305.25 -129.728566 
L 305.25 -130.483426 
L 305.25 -131.238286 
L 305.25 -131.993146 
L 305.25 -132.748006 
L 305.25 -133.502866 
L 305.25 -134.257726 
L 305.25 -135.012586 
L 305.25 -135.767446 
L 305.25 -136.522306 
L 305.25 -137.277166 
L 305.25 -138.032026 
L 305.25 -138.786886 
L 305.25 -139.541746 
L 305.25 -140.296606 
L 305.25 -141.051466 
L 305.25 -141.806326 
L 305.25 -142.561186 
L 305.25 -143.316046 
L 305.25 -144.070906 
L 305.25 -144.825766 
L 305.25 -145.580625 
L 305.25 -146.335485 
L 305.25 -147.090345 
L 305.25 -147.845205 
L 305.25 -148.600065 
L 305.25 -149.354925 
L 305.25 -150.109785 
L 305.25 -150.864645 
L 305.25 -151.619505 
L 305.25 -152.374365 
L 305.25 -153.129225 
L 305.25 -153.884085 
L 305.25 -154.638945 
L 305.25 -155.393805 
L 305.25 -156.148665 
L 305.25 -156.903525 
L 305.25 -157.658385 
L 305.25 -158.413245 
L 305.25 -159.168105 
L 305.25 -159.922965 
L 305.25 -160.677825 
L 305.25 -161.432685 
L 305.25 -162.187544 
L 305.25 -162.942404 
L 305.25 -163.697264 
L 305.25 -164.452124 
L 305.25 -165.206984 
L 305.25 -165.961844 
L 305.25 -166.716704 
L 305.25 -167.471564 
L 305.25 -168.226424 
L 305.25 -168.981284 
L 305.25 -169.736144 
L 305.25 -170.491004 
L 305.25 -171.245864 
L 305.25 -172.000724 
L 305.25 -172.755584 
L 305.25 -173.510444 
L 305.25 -174.265304 
L 305.25 -175.020164 
L 305.25 -175.775024 
L 305.25 -176.529884 
L 305.25 -177.284744 
L 305.25 -178.039604 
L 305.25 -178.794464 
L 305.25 -179.549323 
L 305.25 -180.304183 
L 305.25 -181.059043 
L 305.25 -181.813903 
L 305.25 -182.568763 
L 305.25 -183.323623 
L 305.25 -184.078483 
L 305.25 -184.833343 
L 305.25 -185.588203 
L 305.25 -186.343063 
L 305.25 -187.097923 
L 305.25 -187.852783 
L 305.25 -188.607643 
L 305.25 -189.362503 
L 305.25 -190.117363 
L 305.25 -190.872223 
L 305.25 -191.627083 
L 305.25 -192.381943 
L 305.25 -193.136803 
L 305.25 -193.891663 
L 305.25 -194.646523 
L 305.25 -195.401383 
L 305.25 -196.156242 
L 305.25 -196.911102 
L 305.25 -197.665962 
L 305.25 -198.420822 
L 305.25 -199.175682 
L 305.25 -199.930542 
L 305.25 -200.685402 
L 305.25 -201.440262 
L 305.25 -202.195122 
L 305.25 -202.949982 
L 305.25 -203.704842 
L 305.25 -204.459702 
L 305.25 -205.214562 
L 305.25 -205.969422 
L 305.25 -206.724282 
L 305.25 -207.479142 
L 305.25 -208.234002 
L 305.25 -208.988862 
L 305.25 -209.743722 
L 305.25 -210.498582 
L 305.25 -211.253442 
L 305.25 -212.008302 
L 305.25 -212.763161 
L 305.25 -213.518021 
L 305.25 -214.272881 
L 305.25 -215.027741 
L 305.25 -215.782601 
L 305.25 -216.537461 
L 305.25 -217.292321 
L 305.25 -218.047181 
L 305.25 -218.802041 
L 305.25 -219.556901 
L 305.25 -220.311761 
L 305.25 -221.066621 
L 305.25 -221.821481 
L 305.25 -222.576341 
L 305.25 -223.331201 
L 305.25 -224.086061 
L 305.25 -224.840921 
L 305.25 -225.595781 
L 305.25 -226.350641 
L 305.25 -227.105501 
L 305.25 -227.860361 
L 305.25 -228.615221 
L 305.25 -229.37008 
L 305.25 -230.12494 
L 305.25 -230.8798 
L 305.25 -231.63466 
L 305.25 -232.38952 
L 305.25 -233.14438 
L 305.25 -233.89924 
L 305.25 -234.6541 
L 305.259417 -234.6541 
L 305.259417 -234.6541 
L 305.262569 -233.89924 
L 305.266617 -233.14438 
L 305.271764 -232.38952 
L 305.278237 -231.63466 
L 305.286292 -230.8798 
L 305.29621 -230.12494 
L 305.30829 -229.37008 
L 305.322845 -228.615221 
L 305.340192 -227.860361 
L 305.36064 -227.105501 
L 305.384479 -226.350641 
L 305.411962 -225.595781 
L 305.443292 -224.840921 
L 305.478603 -224.086061 
L 305.517948 -223.331201 
L 305.561284 -222.576341 
L 305.608459 -221.821481 
L 305.659211 -221.066621 
L 305.713161 -220.311761 
L 305.769821 -219.556901 
L 305.8286 -218.802041 
L 305.888825 -218.047181 
L 305.949757 -217.292321 
L 306.010616 -216.537461 
L 306.07061 -215.782601 
L 306.128963 -215.027741 
L 306.18494 -214.272881 
L 306.237872 -213.518021 
L 306.287173 -212.763161 
L 306.332356 -212.008302 
L 306.373037 -211.253442 
L 306.408933 -210.498582 
L 306.439857 -209.743722 
L 306.465702 -208.988862 
L 306.486426 -208.234002 
L 306.502034 -207.479142 
L 306.512559 -206.724282 
L 306.518049 -205.969422 
L 306.518556 -205.214562 
L 306.514129 -204.459702 
L 306.504823 -203.704842 
L 306.490703 -202.949982 
L 306.471859 -202.195122 
L 306.448433 -201.440262 
L 306.420632 -200.685402 
L 306.388758 -199.930542 
L 306.353224 -199.175682 
L 306.314571 -198.420822 
L 306.273479 -197.665962 
L 306.230766 -196.911102 
L 306.187383 -196.156242 
L 306.144394 -195.401383 
L 306.102958 -194.646523 
L 306.064291 -193.891663 
L 306.029636 -193.136803 
L 306.000218 -192.381943 
L 305.977206 -191.627083 
L 305.961676 -190.872223 
L 305.954573 -190.117363 
L 305.95668 -189.362503 
L 305.968598 -188.607643 
L 305.990729 -187.852783 
L 306.023268 -187.097923 
L 306.066209 -186.343063 
L 306.119348 -185.588203 
L 306.182308 -184.833343 
L 306.254556 -184.078483 
L 306.335437 -183.323623 
L 306.424203 -182.568763 
L 306.520048 -181.813903 
L 306.622143 -181.059043 
L 306.72967 -180.304183 
L 306.84185 -179.549323 
L 306.957973 -178.794464 
L 307.07742 -178.039604 
L 307.199679 -177.284744 
L 307.324359 -176.529884 
L 307.451193 -175.775024 
L 307.580045 -175.020164 
L 307.710897 -174.265304 
L 307.843846 -173.510444 
L 307.979085 -172.755584 
L 308.116885 -172.000724 
L 308.257574 -171.245864 
L 308.40151 -170.491004 
L 308.549053 -169.736144 
L 308.700534 -168.981284 
L 308.856233 -168.226424 
L 309.016345 -167.471564 
L 309.180965 -166.716704 
L 309.350069 -165.961844 
L 309.523506 -165.206984 
L 309.701005 -164.452124 
L 309.882192 -163.697264 
L 310.066618 -162.942404 
L 310.253811 -162.187544 
L 310.443328 -161.432685 
L 310.634835 -160.677825 
L 310.82819 -159.922965 
L 311.023527 -159.168105 
L 311.221355 -158.413245 
L 311.42264 -157.658385 
L 311.628883 -156.903525 
L 311.842178 -156.148665 
L 312.065255 -155.393805 
L 312.301479 -154.638945 
L 312.554836 -153.884085 
L 312.829865 -153.129225 
L 313.131567 -152.374365 
L 313.465275 -151.619505 
L 313.836486 -150.864645 
L 314.250675 -150.109785 
L 314.713083 -149.354925 
L 315.228495 -148.600065 
L 315.801019 -147.845205 
L 316.433872 -147.090345 
L 317.129189 -146.335485 
L 317.887861 -145.580625 
L 318.709414 -144.825766 
L 319.591938 -144.070906 
L 320.532068 -143.316046 
L 321.525022 -142.561186 
L 322.564695 -141.806326 
L 323.643806 -141.051466 
L 324.754092 -140.296606 
L 325.886538 -139.541746 
L 327.031636 -138.786886 
L 328.179656 -138.032026 
L 329.320919 -137.277166 
L 330.446053 -136.522306 
L 331.546234 -135.767446 
L 332.613384 -135.012586 
L 333.640325 -134.257726 
L 334.620899 -133.502866 
L 335.550018 -132.748006 
L 336.423681 -131.993146 
L 337.238936 -131.238286 
L 337.993802 -130.483426 
L 338.687157 -129.728566 
L 339.318596 -128.973706 
L 339.888274 -128.218847 
L 340.396732 -127.463987 
L 340.844717 -126.709127 
L 341.233011 -125.954267 
L 341.562254 -125.199407 
L 341.832796 -124.444547 
L 342.044545 -123.689687 
L 342.196858 -122.934827 
L 342.288444 -122.179967 
L 342.317308 -121.425107 
L 342.280726 -120.670247 
L 342.175271 -119.915387 
L 341.996882 -119.160527 
L 341.740986 -118.405667 
L 341.402673 -117.650807 
L 340.97692 -116.895947 
L 340.458866 -116.141087 
L 339.84412 -115.386227 
L 339.12909 -114.631367 
L 338.311326 -113.876507 
L 337.389845 -113.121647 
L 336.365426 -112.366787 
L 335.240844 -111.611928 
L 334.021044 -110.857068 
L 332.713206 -110.102208 
L 331.326726 -109.347348 
L 329.873078 -108.592488 
L 328.365578 -107.837628 
L 326.819054 -107.082768 
L 325.249425 -106.327908 
L 323.673236 -105.573048 
L 322.107146 -104.818188 
L 320.567416 -104.063328 
L 319.069416 -103.308468 
L 317.627178 -102.553608 
L 316.25302 -101.798748 
L 314.957249 -101.043888 
L 313.74797 -100.289028 
L 312.630985 -99.534168 
L 311.609797 -98.779308 
L 310.685705 -98.024448 
L 309.857972 -97.269588 
L 309.124059 -96.514728 
L 308.479903 -95.759868 
L 307.92022 -95.005009 
L 307.438814 -94.250149 
L 307.028884 -93.495289 
L 306.683305 -92.740429 
L 306.394875 -91.985569 
L 306.156538 -91.230709 
L 305.961544 -90.475849 
L 305.803591 -89.720989 
L 305.676905 -88.966129 
L 305.576296 -88.211269 
L 305.497184 -87.456409 
L 305.435584 -86.701549 
L 305.38809 -85.946689 
L 305.35183 -85.191829 
L 305.324417 -84.436969 
z
" style="stroke: #7a77ab; stroke-width: 2"/>
    </defs>
    <g clip-path="url(#pdcaffa501e)">
     <use xlink:href="#mf52f272569" x="0" y="360" style="fill: #7a77ab; fill-opacity: 0.25; stroke: #7a77ab; stroke-width: 2"/>
    </g>
   </g>
   <g id="PolyCollection_4">
    <defs>
     <path id="m9390f35bc5" d="M 305.271372 -72.780317 
L 305.25 -72.780317 
L 305.25 -73.858247 
L 305.25 -74.936176 
L 305.25 -76.014105 
L 305.25 -77.092035 
L 305.25 -78.169964 
L 305.25 -79.247893 
L 305.25 -80.325823 
L 305.25 -81.403752 
L 305.25 -82.481681 
L 305.25 -83.559611 
L 305.25 -84.63754 
L 305.25 -85.715469 
L 305.25 -86.793399 
L 305.25 -87.871328 
L 305.25 -88.949257 
L 305.25 -90.027187 
L 305.25 -91.105116 
L 305.25 -92.183045 
L 305.25 -93.260975 
L 305.25 -94.338904 
L 305.25 -95.416833 
L 305.25 -96.494763 
L 305.25 -97.572692 
L 305.25 -98.650621 
L 305.25 -99.728551 
L 305.25 -100.80648 
L 305.25 -101.884409 
L 305.25 -102.962339 
L 305.25 -104.040268 
L 305.25 -105.118197 
L 305.25 -106.196127 
L 305.25 -107.274056 
L 305.25 -108.351985 
L 305.25 -109.429915 
L 305.25 -110.507844 
L 305.25 -111.585773 
L 305.25 -112.663703 
L 305.25 -113.741632 
L 305.25 -114.819561 
L 305.25 -115.897491 
L 305.25 -116.97542 
L 305.25 -118.053349 
L 305.25 -119.131279 
L 305.25 -120.209208 
L 305.25 -121.287137 
L 305.25 -122.365067 
L 305.25 -123.442996 
L 305.25 -124.520925 
L 305.25 -125.598855 
L 305.25 -126.676784 
L 305.25 -127.754713 
L 305.25 -128.832643 
L 305.25 -129.910572 
L 305.25 -130.988501 
L 305.25 -132.066431 
L 305.25 -133.14436 
L 305.25 -134.222289 
L 305.25 -135.300219 
L 305.25 -136.378148 
L 305.25 -137.456077 
L 305.25 -138.534007 
L 305.25 -139.611936 
L 305.25 -140.689865 
L 305.25 -141.767795 
L 305.25 -142.845724 
L 305.25 -143.923653 
L 305.25 -145.001583 
L 305.25 -146.079512 
L 305.25 -147.157441 
L 305.25 -148.235371 
L 305.25 -149.3133 
L 305.25 -150.391229 
L 305.25 -151.469158 
L 305.25 -152.547088 
L 305.25 -153.625017 
L 305.25 -154.702946 
L 305.25 -155.780876 
L 305.25 -156.858805 
L 305.25 -157.936734 
L 305.25 -159.014664 
L 305.25 -160.092593 
L 305.25 -161.170522 
L 305.25 -162.248452 
L 305.25 -163.326381 
L 305.25 -164.40431 
L 305.25 -165.48224 
L 305.25 -166.560169 
L 305.25 -167.638098 
L 305.25 -168.716028 
L 305.25 -169.793957 
L 305.25 -170.871886 
L 305.25 -171.949816 
L 305.25 -173.027745 
L 305.25 -174.105674 
L 305.25 -175.183604 
L 305.25 -176.261533 
L 305.25 -177.339462 
L 305.25 -178.417392 
L 305.25 -179.495321 
L 305.25 -180.57325 
L 305.25 -181.65118 
L 305.25 -182.729109 
L 305.25 -183.807038 
L 305.25 -184.884968 
L 305.25 -185.962897 
L 305.25 -187.040826 
L 305.25 -188.118756 
L 305.25 -189.196685 
L 305.25 -190.274614 
L 305.25 -191.352544 
L 305.25 -192.430473 
L 305.25 -193.508402 
L 305.25 -194.586332 
L 305.25 -195.664261 
L 305.25 -196.74219 
L 305.25 -197.82012 
L 305.25 -198.898049 
L 305.25 -199.975978 
L 305.25 -201.053908 
L 305.25 -202.131837 
L 305.25 -203.209766 
L 305.25 -204.287696 
L 305.25 -205.365625 
L 305.25 -206.443554 
L 305.25 -207.521484 
L 305.25 -208.599413 
L 305.25 -209.677342 
L 305.25 -210.755272 
L 305.25 -211.833201 
L 305.25 -212.91113 
L 305.25 -213.98906 
L 305.25 -215.066989 
L 305.25 -216.144918 
L 305.25 -217.222848 
L 305.25 -218.300777 
L 305.25 -219.378706 
L 305.25 -220.456636 
L 305.25 -221.534565 
L 305.25 -222.612494 
L 305.25 -223.690424 
L 305.25 -224.768353 
L 305.25 -225.846282 
L 305.25 -226.924212 
L 305.25 -228.002141 
L 305.25 -229.08007 
L 305.25 -230.158 
L 305.25 -231.235929 
L 305.25 -232.313858 
L 305.25 -233.391788 
L 305.25 -234.469717 
L 305.25 -235.547646 
L 305.25 -236.625575 
L 305.25 -237.703505 
L 305.25 -238.781434 
L 305.25 -239.859363 
L 305.25 -240.937293 
L 305.25 -242.015222 
L 305.25 -243.093151 
L 305.25 -244.171081 
L 305.25 -245.24901 
L 305.25 -246.326939 
L 305.25 -247.404869 
L 305.25 -248.482798 
L 305.25 -249.560727 
L 305.25 -250.638657 
L 305.25 -251.716586 
L 305.25 -252.794515 
L 305.25 -253.872445 
L 305.25 -254.950374 
L 305.25 -256.028303 
L 305.25 -257.106233 
L 305.25 -258.184162 
L 305.25 -259.262091 
L 305.25 -260.340021 
L 305.25 -261.41795 
L 305.25 -262.495879 
L 305.25 -263.573809 
L 305.25 -264.651738 
L 305.25 -265.729667 
L 305.25 -266.807597 
L 305.25 -267.885526 
L 305.25 -268.963455 
L 305.25 -270.041385 
L 305.25 -271.119314 
L 305.25 -272.197243 
L 305.25 -273.275173 
L 305.25 -274.353102 
L 305.25 -275.431031 
L 305.25 -276.508961 
L 305.25 -277.58689 
L 305.25 -278.664819 
L 305.25 -279.742749 
L 305.25 -280.820678 
L 305.25 -281.898607 
L 305.25 -282.976537 
L 305.25 -284.054466 
L 305.25 -285.132395 
L 305.25 -286.210325 
L 305.25 -287.288254 
L 305.255467 -287.288254 
L 305.255467 -287.288254 
L 305.257212 -286.210325 
L 305.259443 -285.132395 
L 305.262272 -284.054466 
L 305.26583 -282.976537 
L 305.270268 -281.898607 
L 305.27576 -280.820678 
L 305.2825 -279.742749 
L 305.290703 -278.664819 
L 305.300606 -277.58689 
L 305.312462 -276.508961 
L 305.326541 -275.431031 
L 305.343123 -274.353102 
L 305.362492 -273.275173 
L 305.384932 -272.197243 
L 305.410717 -271.119314 
L 305.440107 -270.041385 
L 305.473332 -268.963455 
L 305.510592 -267.885526 
L 305.552043 -266.807597 
L 305.597795 -265.729667 
L 305.6479 -264.651738 
L 305.702354 -263.573809 
L 305.761094 -262.495879 
L 305.824 -261.41795 
L 305.890899 -260.340021 
L 305.961571 -259.262091 
L 306.035764 -258.184162 
L 306.113201 -257.106233 
L 306.1936 -256.028303 
L 306.276686 -254.950374 
L 306.36221 -253.872445 
L 306.449962 -252.794515 
L 306.539787 -251.716586 
L 306.631595 -250.638657 
L 306.725371 -249.560727 
L 306.821177 -248.482798 
L 306.919152 -247.404869 
L 307.019508 -246.326939 
L 307.122519 -245.24901 
L 307.228511 -244.171081 
L 307.337843 -243.093151 
L 307.450891 -242.015222 
L 307.568027 -240.937293 
L 307.689602 -239.859363 
L 307.815931 -238.781434 
L 307.947275 -237.703505 
L 308.083833 -236.625575 
L 308.225735 -235.547646 
L 308.373039 -234.469717 
L 308.525739 -233.391788 
L 308.683762 -232.313858 
L 308.846988 -231.235929 
L 309.015254 -230.158 
L 309.188368 -229.08007 
L 309.366124 -228.002141 
L 309.548307 -226.924212 
L 309.734702 -225.846282 
L 309.925098 -224.768353 
L 310.119282 -223.690424 
L 310.31704 -222.612494 
L 310.518138 -221.534565 
L 310.722317 -220.456636 
L 310.929275 -219.378706 
L 311.13865 -218.300777 
L 311.350016 -217.222848 
L 311.562865 -216.144918 
L 311.776611 -215.066989 
L 311.990596 -213.98906 
L 312.204099 -212.91113 
L 312.416366 -211.833201 
L 312.626635 -210.755272 
L 312.83418 -209.677342 
L 313.038352 -208.599413 
L 313.238628 -207.521484 
L 313.434656 -206.443554 
L 313.626296 -205.365625 
L 313.813657 -204.287696 
L 313.997113 -203.209766 
L 314.177319 -202.131837 
L 314.355194 -201.053908 
L 314.531902 -199.975978 
L 314.708806 -198.898049 
L 314.887411 -197.82012 
L 315.069292 -196.74219 
L 315.256015 -195.664261 
L 315.449056 -194.586332 
L 315.649714 -193.508402 
L 315.859041 -192.430473 
L 316.077774 -191.352544 
L 316.306289 -190.274614 
L 316.544569 -189.196685 
L 316.792201 -188.118756 
L 317.048386 -187.040826 
L 317.311972 -185.962897 
L 317.581512 -184.884968 
L 317.855322 -183.807038 
L 318.131565 -182.729109 
L 318.408326 -181.65118 
L 318.683697 -180.57325 
L 318.955847 -179.495321 
L 319.223087 -178.417392 
L 319.48392 -177.339462 
L 319.737077 -176.261533 
L 319.98153 -175.183604 
L 320.216494 -174.105674 
L 320.441407 -173.027745 
L 320.655902 -171.949816 
L 320.859768 -170.871886 
L 321.052894 -169.793957 
L 321.235227 -168.716028 
L 321.406712 -167.638098 
L 321.567249 -166.560169 
L 321.716646 -165.48224 
L 321.854588 -164.40431 
L 321.980611 -163.326381 
L 322.094087 -162.248452 
L 322.194222 -161.170522 
L 322.28006 -160.092593 
L 322.350501 -159.014664 
L 322.404326 -157.936734 
L 322.440231 -156.858805 
L 322.456865 -155.780876 
L 322.452875 -154.702946 
L 322.426954 -153.625017 
L 322.377892 -152.547088 
L 322.304627 -151.469158 
L 322.206295 -150.391229 
L 322.082277 -149.3133 
L 321.932246 -148.235371 
L 321.756198 -147.157441 
L 321.554483 -146.079512 
L 321.327824 -145.001583 
L 321.077324 -143.923653 
L 320.804454 -142.845724 
L 320.51104 -141.767795 
L 320.199223 -140.689865 
L 319.871416 -139.611936 
L 319.53024 -138.534007 
L 319.178455 -137.456077 
L 318.818884 -136.378148 
L 318.454325 -135.300219 
L 318.087473 -134.222289 
L 317.720832 -133.14436 
L 317.356643 -132.066431 
L 316.99682 -130.988501 
L 316.642891 -129.910572 
L 316.295966 -128.832643 
L 315.956715 -127.754713 
L 315.625369 -126.676784 
L 315.301733 -125.598855 
L 314.985226 -124.520925 
L 314.674928 -123.442996 
L 314.36965 -122.365067 
L 314.068004 -121.287137 
L 313.768493 -120.209208 
L 313.46959 -119.131279 
L 313.16983 -118.053349 
L 312.867889 -116.97542 
L 312.562654 -115.897491 
L 312.25329 -114.819561 
L 311.939286 -113.741632 
L 311.620488 -112.663703 
L 311.297111 -111.585773 
L 310.969746 -110.507844 
L 310.639333 -109.429915 
L 310.307136 -108.351985 
L 309.974693 -107.274056 
L 309.64376 -106.196127 
L 309.316249 -105.118197 
L 308.994157 -104.040268 
L 308.679497 -102.962339 
L 308.374231 -101.884409 
L 308.080204 -100.80648 
L 307.799093 -99.728551 
L 307.532355 -98.650621 
L 307.281193 -97.572692 
L 307.046533 -96.494763 
L 306.829008 -95.416833 
L 306.628961 -94.338904 
L 306.446451 -93.260975 
L 306.281272 -92.183045 
L 306.132976 -91.105116 
L 306.000909 -90.027187 
L 305.884245 -88.949257 
L 305.78202 -87.871328 
L 305.693172 -86.793399 
L 305.616576 -85.715469 
L 305.551079 -84.63754 
L 305.495525 -83.559611 
L 305.448789 -82.481681 
L 305.40979 -81.403752 
L 305.377512 -80.325823 
L 305.351012 -79.247893 
L 305.329435 -78.169964 
L 305.312007 -77.092035 
L 305.298045 -76.014105 
L 305.286951 -74.936176 
L 305.278207 -73.858247 
L 305.271372 -72.780317 
z
" style="stroke: #f28360; stroke-width: 2"/>
    </defs>
    <g clip-path="url(#pdcaffa501e)">
     <use xlink:href="#m9390f35bc5" x="0" y="360" style="fill: #f28360; fill-opacity: 0.25; stroke: #f28360; stroke-width: 2"/>
    </g>
   </g>
   <g id="matplotlib.axis_5">
    <g id="xtick_7"/>
    <g id="xtick_8"/>
   </g>
   <g id="matplotlib.axis_6">
    <g id="ytick_10">
     <g id="line2d_19">
      <g>
       <use xlink:href="#mda03586c3f" x="305.25" y="294.913188" style="stroke: #000000; stroke-width: 0.75"/>
      </g>
     </g>
    </g>
    <g id="ytick_11">
     <g id="line2d_20">
      <g>
       <use xlink:href="#mda03586c3f" x="305.25" y="256.599242" style="stroke: #000000; stroke-width: 0.75"/>
      </g>
     </g>
    </g>
    <g id="ytick_12">
     <g id="line2d_21">
      <g>
       <use xlink:href="#mda03586c3f" x="305.25" y="218.285297" style="stroke: #000000; stroke-width: 0.75"/>
      </g>
     </g>
    </g>
    <g id="ytick_13">
     <g id="line2d_22">
      <g>
       <use xlink:href="#mda03586c3f" x="305.25" y="179.971351" style="stroke: #000000; stroke-width: 0.75"/>
      </g>
     </g>
    </g>
    <g id="ytick_14">
     <g id="line2d_23">
      <g>
       <use xlink:href="#mda03586c3f" x="305.25" y="141.657406" style="stroke: #000000; stroke-width: 0.75"/>
      </g>
     </g>
    </g>
    <g id="ytick_15">
     <g id="line2d_24">
      <g>
       <use xlink:href="#mda03586c3f" x="305.25" y="103.34346" style="stroke: #000000; stroke-width: 0.75"/>
      </g>
     </g>
    </g>
    <g id="ytick_16">
     <g id="line2d_25">
      <g>
       <use xlink:href="#mda03586c3f" x="305.25" y="65.029515" style="stroke: #000000; stroke-width: 0.75"/>
      </g>
     </g>
    </g>
   </g>
   <g id="patch_8">
    <path d="M 305.25 295.8 
L 305.25 64.131429 
" style="fill: none; stroke: #000000; stroke-width: 0.75; stroke-linejoin: miter; stroke-linecap: square"/>
   </g>
  </g>
 </g>
 <defs>
  <clipPath id="p96479fbef2">
   <rect x="73.95" y="64.131429" width="223.59" height="231.668571"/>
  </clipPath>
  <clipPath id="pdd92a9ce68">
   <rect x="73.95" y="16.2" width="223.59" height="39.942857"/>
  </clipPath>
  <clipPath id="pdcaffa501e">
   <rect x="305.25" y="64.131429" width="38.55" height="231.668571"/>
  </clipPath>
 </defs>
</svg>
