<?xml version="1.0" encoding="utf-8" standalone="no"?>
<!DOCTYPE svg PUBLIC "-//W3C//DTD SVG 1.1//EN"
  "http://www.w3.org/Graphics/SVG/1.1/DTD/svg11.dtd">
<svg xmlns:xlink="http://www.w3.org/1999/xlink" width="360pt" height="360pt" viewBox="0 0 360 360" xmlns="http://www.w3.org/2000/svg" version="1.1">
 <metadata>
  <rdf:RDF xmlns:dc="http://purl.org/dc/elements/1.1/" xmlns:cc="http://creativecommons.org/ns#" xmlns:rdf="http://www.w3.org/1999/02/22-rdf-syntax-ns#">
   <cc:Work>
    <dc:type rdf:resource="http://purl.org/dc/dcmitype/StillImage"/>
    <dc:date>2024-07-24T17:37:10.849217</dc:date>
    <dc:format>image/svg+xml</dc:format>
    <dc:creator>
     <cc:Agent>
      <dc:title>Matplotlib v3.8.4, https://matplotlib.org/</dc:title>
     </cc:Agent>
    </dc:creator>
   </cc:Work>
  </rdf:RDF>
 </metadata>
 <defs>
  <style type="text/css">*{stroke-linejoin: round; stroke-linecap: butt}</style>
 </defs>
 <g id="figure_1">
  <g id="patch_1">
   <path d="M 0 360 
L 360 360 
L 360 0 
L 0 0 
L 0 360 
z
" style="fill: none"/>
  </g>
  <g id="axes_1">
   <g id="patch_2">
    <path d="M 73.95 295.8 
L 297.54 295.8 
L 297.54 64.131429 
L 73.95 64.131429 
L 73.95 295.8 
z
" style="fill: none"/>
   </g>
   <g id="PathCollection_1">
    <defs>
     <path id="C0_0_4cb64bf1d9" d="M 0 3 
C 0.795609 3 1.55874 2.683901 2.12132 2.12132 
C 2.683901 1.55874 3 0.795609 3 -0 
C 3 -0.795609 2.683901 -1.55874 2.12132 -2.12132 
C 1.55874 -2.683901 0.795609 -3 0 -3 
C -0.795609 -3 -1.55874 -2.683901 -2.12132 -2.12132 
C -2.683901 -1.55874 -3 -0.795609 -3 0 
C -3 0.795609 -2.683901 1.55874 -2.12132 2.12132 
C -1.55874 2.683901 -0.795609 3 0 3 
z
"/>
    </defs>
    <g clip-path="url(#pd3edfd16a7)">
     <use xlink:href="#C0_0_4cb64bf1d9" x="122.911777" y="243.46601" style="fill: #f28360; stroke: #ffffff; stroke-width: 0.48"/>
    </g>
    <g clip-path="url(#pd3edfd16a7)">
     <use xlink:href="#C0_0_4cb64bf1d9" x="144.496152" y="246.779917" style="fill: #f28360; stroke: #ffffff; stroke-width: 0.48"/>
    </g>
    <g clip-path="url(#pd3edfd16a7)">
     <use xlink:href="#C0_0_4cb64bf1d9" x="116.012308" y="241.907799" style="fill: #f28360; stroke: #ffffff; stroke-width: 0.48"/>
    </g>
    <g clip-path="url(#pd3edfd16a7)">
     <use xlink:href="#C0_0_4cb64bf1d9" x="129.868367" y="240.412875" style="fill: #f28360; stroke: #ffffff; stroke-width: 0.48"/>
    </g>
    <g clip-path="url(#pd3edfd16a7)">
     <use xlink:href="#C0_0_4cb64bf1d9" x="113.519619" y="249.43145" style="fill: #f28360; stroke: #ffffff; stroke-width: 0.48"/>
    </g>
    <g clip-path="url(#pd3edfd16a7)">
     <use xlink:href="#C0_0_4cb64bf1d9" x="124.793603" y="251.970855" style="fill: #f28360; stroke: #ffffff; stroke-width: 0.48"/>
    </g>
    <g clip-path="url(#pd3edfd16a7)">
     <use xlink:href="#C0_0_4cb64bf1d9" x="118.463843" y="250.450293" style="fill: #f28360; stroke: #ffffff; stroke-width: 0.48"/>
    </g>
    <g clip-path="url(#pd3edfd16a7)">
     <use xlink:href="#C0_0_4cb64bf1d9" x="132.191493" y="245.705764" style="fill: #f28360; stroke: #ffffff; stroke-width: 0.48"/>
    </g>
    <g clip-path="url(#pd3edfd16a7)">
     <use xlink:href="#C0_0_4cb64bf1d9" x="124.61888" y="245.651936" style="fill: #f28360; stroke: #ffffff; stroke-width: 0.48"/>
    </g>
    <g clip-path="url(#pd3edfd16a7)">
     <use xlink:href="#C0_0_4cb64bf1d9" x="132.147918" y="236.050484" style="fill: #f28360; stroke: #ffffff; stroke-width: 0.48"/>
    </g>
    <g clip-path="url(#pd3edfd16a7)">
     <use xlink:href="#C0_0_4cb64bf1d9" x="132.758181" y="245.254899" style="fill: #f28360; stroke: #ffffff; stroke-width: 0.48"/>
    </g>
    <g clip-path="url(#pd3edfd16a7)">
     <use xlink:href="#C0_0_4cb64bf1d9" x="128.752603" y="242.034241" style="fill: #f28360; stroke: #ffffff; stroke-width: 0.48"/>
    </g>
    <g clip-path="url(#pd3edfd16a7)">
     <use xlink:href="#C0_0_4cb64bf1d9" x="118.451811" y="240.556948" style="fill: #f28360; stroke: #ffffff; stroke-width: 0.48"/>
    </g>
    <g clip-path="url(#pd3edfd16a7)">
     <use xlink:href="#C0_0_4cb64bf1d9" x="124.815173" y="237.54462" style="fill: #f28360; stroke: #ffffff; stroke-width: 0.48"/>
    </g>
    <g clip-path="url(#pd3edfd16a7)">
     <use xlink:href="#C0_0_4cb64bf1d9" x="136.265415" y="238.096545" style="fill: #f28360; stroke: #ffffff; stroke-width: 0.48"/>
    </g>
    <g clip-path="url(#pd3edfd16a7)">
     <use xlink:href="#C0_0_4cb64bf1d9" x="112.564024" y="242.478423" style="fill: #f28360; stroke: #ffffff; stroke-width: 0.48"/>
    </g>
    <g clip-path="url(#pd3edfd16a7)">
     <use xlink:href="#C0_0_4cb64bf1d9" x="129.490239" y="244.766878" style="fill: #f28360; stroke: #ffffff; stroke-width: 0.48"/>
    </g>
    <g clip-path="url(#pd3edfd16a7)">
     <use xlink:href="#C0_0_4cb64bf1d9" x="126.377222" y="236.98291" style="fill: #f28360; stroke: #ffffff; stroke-width: 0.48"/>
    </g>
    <g clip-path="url(#pd3edfd16a7)">
     <use xlink:href="#C0_0_4cb64bf1d9" x="140.488474" y="257.385353" style="fill: #f28360; stroke: #ffffff; stroke-width: 0.48"/>
    </g>
    <g clip-path="url(#pd3edfd16a7)">
     <use xlink:href="#C0_0_4cb64bf1d9" x="123.407951" y="239.212309" style="fill: #f28360; stroke: #ffffff; stroke-width: 0.48"/>
    </g>
    <g clip-path="url(#pd3edfd16a7)">
     <use xlink:href="#C0_0_4cb64bf1d9" x="124.452348" y="246.828474" style="fill: #f28360; stroke: #ffffff; stroke-width: 0.48"/>
    </g>
    <g clip-path="url(#pd3edfd16a7)">
     <use xlink:href="#C0_0_4cb64bf1d9" x="115.268121" y="241.296458" style="fill: #f28360; stroke: #ffffff; stroke-width: 0.48"/>
    </g>
    <g clip-path="url(#pd3edfd16a7)">
     <use xlink:href="#C0_0_4cb64bf1d9" x="128.557704" y="239.375211" style="fill: #f28360; stroke: #ffffff; stroke-width: 0.48"/>
    </g>
    <g clip-path="url(#pd3edfd16a7)">
     <use xlink:href="#C0_0_4cb64bf1d9" x="119.902088" y="250.225707" style="fill: #f28360; stroke: #ffffff; stroke-width: 0.48"/>
    </g>
    <g clip-path="url(#pd3edfd16a7)">
     <use xlink:href="#C0_0_4cb64bf1d9" x="114.708764" y="255.878188" style="fill: #f28360; stroke: #ffffff; stroke-width: 0.48"/>
    </g>
    <g clip-path="url(#pd3edfd16a7)">
     <use xlink:href="#C0_0_4cb64bf1d9" x="126.452478" y="242.021663" style="fill: #f28360; stroke: #ffffff; stroke-width: 0.48"/>
    </g>
    <g clip-path="url(#pd3edfd16a7)">
     <use xlink:href="#C0_0_4cb64bf1d9" x="143.351506" y="221.000658" style="fill: #f28360; stroke: #ffffff; stroke-width: 0.48"/>
    </g>
    <g clip-path="url(#pd3edfd16a7)">
     <use xlink:href="#C0_0_4cb64bf1d9" x="143.722444" y="248.49563" style="fill: #f28360; stroke: #ffffff; stroke-width: 0.48"/>
    </g>
    <g clip-path="url(#pd3edfd16a7)">
     <use xlink:href="#C0_0_4cb64bf1d9" x="132.472473" y="249.890223" style="fill: #f28360; stroke: #ffffff; stroke-width: 0.48"/>
    </g>
    <g clip-path="url(#pd3edfd16a7)">
     <use xlink:href="#C0_0_4cb64bf1d9" x="124.63284" y="160.166493" style="fill: #f28360; stroke: #ffffff; stroke-width: 0.48"/>
    </g>
    <g clip-path="url(#pd3edfd16a7)">
     <use xlink:href="#C0_0_4cb64bf1d9" x="117.010615" y="245.386193" style="fill: #f28360; stroke: #ffffff; stroke-width: 0.48"/>
    </g>
    <g clip-path="url(#pd3edfd16a7)">
     <use xlink:href="#C0_0_4cb64bf1d9" x="118.146421" y="247.94467" style="fill: #f28360; stroke: #ffffff; stroke-width: 0.48"/>
    </g>
    <g clip-path="url(#pd3edfd16a7)">
     <use xlink:href="#C0_0_4cb64bf1d9" x="114.884061" y="230.810757" style="fill: #f28360; stroke: #ffffff; stroke-width: 0.48"/>
    </g>
    <g clip-path="url(#pd3edfd16a7)">
     <use xlink:href="#C0_0_4cb64bf1d9" x="113.458847" y="251.21067" style="fill: #f28360; stroke: #ffffff; stroke-width: 0.48"/>
    </g>
    <g clip-path="url(#pd3edfd16a7)">
     <use xlink:href="#C0_0_4cb64bf1d9" x="123.689495" y="247.394075" style="fill: #f28360; stroke: #ffffff; stroke-width: 0.48"/>
    </g>
    <g clip-path="url(#pd3edfd16a7)">
     <use xlink:href="#C0_0_4cb64bf1d9" x="115.66187" y="231.393518" style="fill: #f28360; stroke: #ffffff; stroke-width: 0.48"/>
    </g>
    <g clip-path="url(#pd3edfd16a7)">
     <use xlink:href="#C0_0_4cb64bf1d9" x="121.150548" y="244.001239" style="fill: #f28360; stroke: #ffffff; stroke-width: 0.48"/>
    </g>
    <g clip-path="url(#pd3edfd16a7)">
     <use xlink:href="#C0_0_4cb64bf1d9" x="144.162516" y="221.681015" style="fill: #f28360; stroke: #ffffff; stroke-width: 0.48"/>
    </g>
    <g clip-path="url(#pd3edfd16a7)">
     <use xlink:href="#C0_0_4cb64bf1d9" x="136.792153" y="235.365331" style="fill: #f28360; stroke: #ffffff; stroke-width: 0.48"/>
    </g>
    <g clip-path="url(#pd3edfd16a7)">
     <use xlink:href="#C0_0_4cb64bf1d9" x="119.626605" y="148.654941" style="fill: #f28360; stroke: #ffffff; stroke-width: 0.48"/>
    </g>
    <g clip-path="url(#pd3edfd16a7)">
     <use xlink:href="#C0_0_4cb64bf1d9" x="115.280392" y="119.85953" style="fill: #f28360; stroke: #ffffff; stroke-width: 0.48"/>
    </g>
    <g clip-path="url(#pd3edfd16a7)">
     <use xlink:href="#C0_0_4cb64bf1d9" x="159.959253" y="241.82253" style="fill: #f28360; stroke: #ffffff; stroke-width: 0.48"/>
    </g>
    <g clip-path="url(#pd3edfd16a7)">
     <use xlink:href="#C0_0_4cb64bf1d9" x="125.831775" y="241.531821" style="fill: #f28360; stroke: #ffffff; stroke-width: 0.48"/>
    </g>
    <g clip-path="url(#pd3edfd16a7)">
     <use xlink:href="#C0_0_4cb64bf1d9" x="145.04517" y="249.412508" style="fill: #f28360; stroke: #ffffff; stroke-width: 0.48"/>
    </g>
    <g clip-path="url(#pd3edfd16a7)">
     <use xlink:href="#C0_0_4cb64bf1d9" x="117.942919" y="124.349629" style="fill: #f28360; stroke: #ffffff; stroke-width: 0.48"/>
    </g>
    <g clip-path="url(#pd3edfd16a7)">
     <use xlink:href="#C0_0_4cb64bf1d9" x="124.870532" y="238.72356" style="fill: #f28360; stroke: #ffffff; stroke-width: 0.48"/>
    </g>
    <g clip-path="url(#pd3edfd16a7)">
     <use xlink:href="#C0_0_4cb64bf1d9" x="123.495522" y="240.472118" style="fill: #f28360; stroke: #ffffff; stroke-width: 0.48"/>
    </g>
    <g clip-path="url(#pd3edfd16a7)">
     <use xlink:href="#C0_0_4cb64bf1d9" x="137.491328" y="236.729945" style="fill: #f28360; stroke: #ffffff; stroke-width: 0.48"/>
    </g>
    <g clip-path="url(#pd3edfd16a7)">
     <use xlink:href="#C0_0_4cb64bf1d9" x="116.208171" y="233.932241" style="fill: #f28360; stroke: #ffffff; stroke-width: 0.48"/>
    </g>
    <g clip-path="url(#pd3edfd16a7)">
     <use xlink:href="#C0_0_4cb64bf1d9" x="113.126662" y="251.260003" style="fill: #f28360; stroke: #ffffff; stroke-width: 0.48"/>
    </g>
    <g clip-path="url(#pd3edfd16a7)">
     <use xlink:href="#C0_0_4cb64bf1d9" x="114.601658" y="244.59176" style="fill: #f28360; stroke: #ffffff; stroke-width: 0.48"/>
    </g>
    <g clip-path="url(#pd3edfd16a7)">
     <use xlink:href="#C0_0_4cb64bf1d9" x="137.562349" y="251.484262" style="fill: #f28360; stroke: #ffffff; stroke-width: 0.48"/>
    </g>
    <g clip-path="url(#pd3edfd16a7)">
     <use xlink:href="#C0_0_4cb64bf1d9" x="118.864086" y="148.562991" style="fill: #f28360; stroke: #ffffff; stroke-width: 0.48"/>
    </g>
    <g clip-path="url(#pd3edfd16a7)">
     <use xlink:href="#C0_0_4cb64bf1d9" x="129.320914" y="241.147785" style="fill: #f28360; stroke: #ffffff; stroke-width: 0.48"/>
    </g>
    <g clip-path="url(#pd3edfd16a7)">
     <use xlink:href="#C0_0_4cb64bf1d9" x="114.324178" y="252.883437" style="fill: #f28360; stroke: #ffffff; stroke-width: 0.48"/>
    </g>
    <g clip-path="url(#pd3edfd16a7)">
     <use xlink:href="#C0_0_4cb64bf1d9" x="137.385673" y="250.356548" style="fill: #f28360; stroke: #ffffff; stroke-width: 0.48"/>
    </g>
    <g clip-path="url(#pd3edfd16a7)">
     <use xlink:href="#C0_0_4cb64bf1d9" x="117.14137" y="236.176741" style="fill: #f28360; stroke: #ffffff; stroke-width: 0.48"/>
    </g>
    <g clip-path="url(#pd3edfd16a7)">
     <use xlink:href="#C0_0_4cb64bf1d9" x="114.380631" y="249.763525" style="fill: #f28360; stroke: #ffffff; stroke-width: 0.48"/>
    </g>
    <g clip-path="url(#pd3edfd16a7)">
     <use xlink:href="#C0_0_4cb64bf1d9" x="129.698028" y="235.478645" style="fill: #f28360; stroke: #ffffff; stroke-width: 0.48"/>
    </g>
    <g clip-path="url(#pd3edfd16a7)">
     <use xlink:href="#C0_0_4cb64bf1d9" x="141.80122" y="248.452799" style="fill: #f28360; stroke: #ffffff; stroke-width: 0.48"/>
    </g>
    <g clip-path="url(#pd3edfd16a7)">
     <use xlink:href="#C0_0_4cb64bf1d9" x="160.853031" y="235.974038" style="fill: #f28360; stroke: #ffffff; stroke-width: 0.48"/>
    </g>
    <g clip-path="url(#pd3edfd16a7)">
     <use xlink:href="#C0_0_4cb64bf1d9" x="124.401564" y="249.473067" style="fill: #f28360; stroke: #ffffff; stroke-width: 0.48"/>
    </g>
    <g clip-path="url(#pd3edfd16a7)">
     <use xlink:href="#C0_0_4cb64bf1d9" x="115.011787" y="235.687236" style="fill: #f28360; stroke: #ffffff; stroke-width: 0.48"/>
    </g>
    <g clip-path="url(#pd3edfd16a7)">
     <use xlink:href="#C0_0_4cb64bf1d9" x="138.606651" y="244.352681" style="fill: #f28360; stroke: #ffffff; stroke-width: 0.48"/>
    </g>
    <g clip-path="url(#pd3edfd16a7)">
     <use xlink:href="#C0_0_4cb64bf1d9" x="147.11502" y="233.10249" style="fill: #f28360; stroke: #ffffff; stroke-width: 0.48"/>
    </g>
    <g clip-path="url(#pd3edfd16a7)">
     <use xlink:href="#C0_0_4cb64bf1d9" x="164.645364" y="244.534083" style="fill: #f28360; stroke: #ffffff; stroke-width: 0.48"/>
    </g>
    <g clip-path="url(#pd3edfd16a7)">
     <use xlink:href="#C0_0_4cb64bf1d9" x="127.886799" y="236.604833" style="fill: #f28360; stroke: #ffffff; stroke-width: 0.48"/>
    </g>
    <g clip-path="url(#pd3edfd16a7)">
     <use xlink:href="#C0_0_4cb64bf1d9" x="116.911901" y="242.353493" style="fill: #f28360; stroke: #ffffff; stroke-width: 0.48"/>
    </g>
    <g clip-path="url(#pd3edfd16a7)">
     <use xlink:href="#C0_0_4cb64bf1d9" x="124.206799" y="238.170379" style="fill: #f28360; stroke: #ffffff; stroke-width: 0.48"/>
    </g>
    <g clip-path="url(#pd3edfd16a7)">
     <use xlink:href="#C0_0_4cb64bf1d9" x="127.512732" y="232.262804" style="fill: #f28360; stroke: #ffffff; stroke-width: 0.48"/>
    </g>
    <g clip-path="url(#pd3edfd16a7)">
     <use xlink:href="#C0_0_4cb64bf1d9" x="129.714221" y="247.959449" style="fill: #f28360; stroke: #ffffff; stroke-width: 0.48"/>
    </g>
    <g clip-path="url(#pd3edfd16a7)">
     <use xlink:href="#C0_0_4cb64bf1d9" x="119.072289" y="239.942282" style="fill: #f28360; stroke: #ffffff; stroke-width: 0.48"/>
    </g>
    <g clip-path="url(#pd3edfd16a7)">
     <use xlink:href="#C0_0_4cb64bf1d9" x="134.627227" y="207.677237" style="fill: #f28360; stroke: #ffffff; stroke-width: 0.48"/>
    </g>
    <g clip-path="url(#pd3edfd16a7)">
     <use xlink:href="#C0_0_4cb64bf1d9" x="118.82214" y="252.842347" style="fill: #f28360; stroke: #ffffff; stroke-width: 0.48"/>
    </g>
    <g clip-path="url(#pd3edfd16a7)">
     <use xlink:href="#C0_0_4cb64bf1d9" x="126.161139" y="250.375177" style="fill: #f28360; stroke: #ffffff; stroke-width: 0.48"/>
    </g>
    <g clip-path="url(#pd3edfd16a7)">
     <use xlink:href="#C0_0_4cb64bf1d9" x="113.431678" y="211.993727" style="fill: #f28360; stroke: #ffffff; stroke-width: 0.48"/>
    </g>
    <g clip-path="url(#pd3edfd16a7)">
     <use xlink:href="#C0_0_4cb64bf1d9" x="127.82068" y="255.783732" style="fill: #f28360; stroke: #ffffff; stroke-width: 0.48"/>
    </g>
    <g clip-path="url(#pd3edfd16a7)">
     <use xlink:href="#C0_0_4cb64bf1d9" x="114.463536" y="225.42935" style="fill: #f28360; stroke: #ffffff; stroke-width: 0.48"/>
    </g>
    <g clip-path="url(#pd3edfd16a7)">
     <use xlink:href="#C0_0_4cb64bf1d9" x="126.171515" y="231.243057" style="fill: #f28360; stroke: #ffffff; stroke-width: 0.48"/>
    </g>
    <g clip-path="url(#pd3edfd16a7)">
     <use xlink:href="#C0_0_4cb64bf1d9" x="149.318386" y="243.669418" style="fill: #f28360; stroke: #ffffff; stroke-width: 0.48"/>
    </g>
    <g clip-path="url(#pd3edfd16a7)">
     <use xlink:href="#C0_0_4cb64bf1d9" x="183.7135" y="246.533205" style="fill: #f28360; stroke: #ffffff; stroke-width: 0.48"/>
    </g>
    <g clip-path="url(#pd3edfd16a7)">
     <use xlink:href="#C0_0_4cb64bf1d9" x="129.046011" y="249.48219" style="fill: #f28360; stroke: #ffffff; stroke-width: 0.48"/>
    </g>
    <g clip-path="url(#pd3edfd16a7)">
     <use xlink:href="#C0_0_4cb64bf1d9" x="119.077776" y="256.032984" style="fill: #f28360; stroke: #ffffff; stroke-width: 0.48"/>
    </g>
    <g clip-path="url(#pd3edfd16a7)">
     <use xlink:href="#C0_0_4cb64bf1d9" x="126.090555" y="243.261331" style="fill: #f28360; stroke: #ffffff; stroke-width: 0.48"/>
    </g>
    <g clip-path="url(#pd3edfd16a7)">
     <use xlink:href="#C0_0_4cb64bf1d9" x="130.010511" y="231.596657" style="fill: #f28360; stroke: #ffffff; stroke-width: 0.48"/>
    </g>
    <g clip-path="url(#pd3edfd16a7)">
     <use xlink:href="#C0_0_4cb64bf1d9" x="129.633546" y="251.213819" style="fill: #f28360; stroke: #ffffff; stroke-width: 0.48"/>
    </g>
    <g clip-path="url(#pd3edfd16a7)">
     <use xlink:href="#C0_0_4cb64bf1d9" x="123.81227" y="243.813821" style="fill: #f28360; stroke: #ffffff; stroke-width: 0.48"/>
    </g>
    <g clip-path="url(#pd3edfd16a7)">
     <use xlink:href="#C0_0_4cb64bf1d9" x="158.81882" y="246.83193" style="fill: #f28360; stroke: #ffffff; stroke-width: 0.48"/>
    </g>
    <g clip-path="url(#pd3edfd16a7)">
     <use xlink:href="#C0_0_4cb64bf1d9" x="118.940056" y="253.138723" style="fill: #f28360; stroke: #ffffff; stroke-width: 0.48"/>
    </g>
    <g clip-path="url(#pd3edfd16a7)">
     <use xlink:href="#C0_0_4cb64bf1d9" x="137.973276" y="251.070592" style="fill: #f28360; stroke: #ffffff; stroke-width: 0.48"/>
    </g>
    <g clip-path="url(#pd3edfd16a7)">
     <use xlink:href="#C0_0_4cb64bf1d9" x="126.937763" y="235.568086" style="fill: #f28360; stroke: #ffffff; stroke-width: 0.48"/>
    </g>
    <g clip-path="url(#pd3edfd16a7)">
     <use xlink:href="#C0_0_4cb64bf1d9" x="128.305187" y="247.061431" style="fill: #f28360; stroke: #ffffff; stroke-width: 0.48"/>
    </g>
    <g clip-path="url(#pd3edfd16a7)">
     <use xlink:href="#C0_0_4cb64bf1d9" x="119.815369" y="244.55946" style="fill: #f28360; stroke: #ffffff; stroke-width: 0.48"/>
    </g>
    <g clip-path="url(#pd3edfd16a7)">
     <use xlink:href="#C0_0_4cb64bf1d9" x="140.264475" y="244.516428" style="fill: #f28360; stroke: #ffffff; stroke-width: 0.48"/>
    </g>
    <g clip-path="url(#pd3edfd16a7)">
     <use xlink:href="#C0_0_4cb64bf1d9" x="144.580245" y="245.466733" style="fill: #f28360; stroke: #ffffff; stroke-width: 0.48"/>
    </g>
    <g clip-path="url(#pd3edfd16a7)">
     <use xlink:href="#C0_0_4cb64bf1d9" x="113.728912" y="236.382035" style="fill: #f28360; stroke: #ffffff; stroke-width: 0.48"/>
    </g>
    <g clip-path="url(#pd3edfd16a7)">
     <use xlink:href="#C0_0_4cb64bf1d9" x="120.604676" y="143.209861" style="fill: #f28360; stroke: #ffffff; stroke-width: 0.48"/>
    </g>
    <g clip-path="url(#pd3edfd16a7)">
     <use xlink:href="#C0_0_4cb64bf1d9" x="128.976514" y="248.23188" style="fill: #f28360; stroke: #ffffff; stroke-width: 0.48"/>
    </g>
    <g clip-path="url(#pd3edfd16a7)">
     <use xlink:href="#C0_0_4cb64bf1d9" x="114.428805" y="249.473072" style="fill: #f28360; stroke: #ffffff; stroke-width: 0.48"/>
    </g>
    <g clip-path="url(#pd3edfd16a7)">
     <use xlink:href="#C0_0_4cb64bf1d9" x="127.086853" y="243.566562" style="fill: #f28360; stroke: #ffffff; stroke-width: 0.48"/>
    </g>
    <g clip-path="url(#pd3edfd16a7)">
     <use xlink:href="#C0_0_4cb64bf1d9" x="114.854984" y="209.484112" style="fill: #f28360; stroke: #ffffff; stroke-width: 0.48"/>
    </g>
    <g clip-path="url(#pd3edfd16a7)">
     <use xlink:href="#C0_0_4cb64bf1d9" x="128.349691" y="247.864644" style="fill: #f28360; stroke: #ffffff; stroke-width: 0.48"/>
    </g>
    <g clip-path="url(#pd3edfd16a7)">
     <use xlink:href="#C0_0_4cb64bf1d9" x="128.643136" y="246.791052" style="fill: #f28360; stroke: #ffffff; stroke-width: 0.48"/>
    </g>
    <g clip-path="url(#pd3edfd16a7)">
     <use xlink:href="#C0_0_4cb64bf1d9" x="139.215788" y="231.128948" style="fill: #f28360; stroke: #ffffff; stroke-width: 0.48"/>
    </g>
    <g clip-path="url(#pd3edfd16a7)">
     <use xlink:href="#C0_0_4cb64bf1d9" x="145.279198" y="240.289371" style="fill: #f28360; stroke: #ffffff; stroke-width: 0.48"/>
    </g>
    <g clip-path="url(#pd3edfd16a7)">
     <use xlink:href="#C0_0_4cb64bf1d9" x="166.311853" y="242.685998" style="fill: #f28360; stroke: #ffffff; stroke-width: 0.48"/>
    </g>
    <g clip-path="url(#pd3edfd16a7)">
     <use xlink:href="#C0_0_4cb64bf1d9" x="134.948949" y="243.865124" style="fill: #f28360; stroke: #ffffff; stroke-width: 0.48"/>
    </g>
    <g clip-path="url(#pd3edfd16a7)">
     <use xlink:href="#C0_0_4cb64bf1d9" x="133.847832" y="253.475271" style="fill: #f28360; stroke: #ffffff; stroke-width: 0.48"/>
    </g>
    <g clip-path="url(#pd3edfd16a7)">
     <use xlink:href="#C0_0_4cb64bf1d9" x="124.435725" y="242.760589" style="fill: #f28360; stroke: #ffffff; stroke-width: 0.48"/>
    </g>
    <g clip-path="url(#pd3edfd16a7)">
     <use xlink:href="#C0_0_4cb64bf1d9" x="134.716455" y="247.871188" style="fill: #f28360; stroke: #ffffff; stroke-width: 0.48"/>
    </g>
    <g clip-path="url(#pd3edfd16a7)">
     <use xlink:href="#C0_0_4cb64bf1d9" x="143.093185" y="226.645874" style="fill: #f28360; stroke: #ffffff; stroke-width: 0.48"/>
    </g>
    <g clip-path="url(#pd3edfd16a7)">
     <use xlink:href="#C0_0_4cb64bf1d9" x="120.625601" y="249.24836" style="fill: #f28360; stroke: #ffffff; stroke-width: 0.48"/>
    </g>
    <g clip-path="url(#pd3edfd16a7)">
     <use xlink:href="#C0_0_4cb64bf1d9" x="139.831965" y="236.535247" style="fill: #f28360; stroke: #ffffff; stroke-width: 0.48"/>
    </g>
    <g clip-path="url(#pd3edfd16a7)">
     <use xlink:href="#C0_0_4cb64bf1d9" x="164.425145" y="248.095158" style="fill: #f28360; stroke: #ffffff; stroke-width: 0.48"/>
    </g>
    <g clip-path="url(#pd3edfd16a7)">
     <use xlink:href="#C0_0_4cb64bf1d9" x="153.441883" y="228.712078" style="fill: #f28360; stroke: #ffffff; stroke-width: 0.48"/>
    </g>
    <g clip-path="url(#pd3edfd16a7)">
     <use xlink:href="#C0_0_4cb64bf1d9" x="113.179286" y="244.785421" style="fill: #f28360; stroke: #ffffff; stroke-width: 0.48"/>
    </g>
    <g clip-path="url(#pd3edfd16a7)">
     <use xlink:href="#C0_0_4cb64bf1d9" x="115.488706" y="239.810581" style="fill: #f28360; stroke: #ffffff; stroke-width: 0.48"/>
    </g>
    <g clip-path="url(#pd3edfd16a7)">
     <use xlink:href="#C0_0_4cb64bf1d9" x="113.997566" y="225.17025" style="fill: #f28360; stroke: #ffffff; stroke-width: 0.48"/>
    </g>
    <g clip-path="url(#pd3edfd16a7)">
     <use xlink:href="#C0_0_4cb64bf1d9" x="134.614693" y="254.107156" style="fill: #f28360; stroke: #ffffff; stroke-width: 0.48"/>
    </g>
    <g clip-path="url(#pd3edfd16a7)">
     <use xlink:href="#C0_0_4cb64bf1d9" x="138.005306" y="235.182327" style="fill: #f28360; stroke: #ffffff; stroke-width: 0.48"/>
    </g>
    <g clip-path="url(#pd3edfd16a7)">
     <use xlink:href="#C0_0_4cb64bf1d9" x="118.730324" y="233.069201" style="fill: #f28360; stroke: #ffffff; stroke-width: 0.48"/>
    </g>
    <g clip-path="url(#pd3edfd16a7)">
     <use xlink:href="#C0_0_4cb64bf1d9" x="130.454657" y="247.998827" style="fill: #f28360; stroke: #ffffff; stroke-width: 0.48"/>
    </g>
    <g clip-path="url(#pd3edfd16a7)">
     <use xlink:href="#C0_0_4cb64bf1d9" x="128.235416" y="241.630341" style="fill: #f28360; stroke: #ffffff; stroke-width: 0.48"/>
    </g>
    <g clip-path="url(#pd3edfd16a7)">
     <use xlink:href="#C0_0_4cb64bf1d9" x="119.72503" y="225.401063" style="fill: #f28360; stroke: #ffffff; stroke-width: 0.48"/>
    </g>
    <g clip-path="url(#pd3edfd16a7)">
     <use xlink:href="#C0_0_4cb64bf1d9" x="118.884845" y="238.803616" style="fill: #f28360; stroke: #ffffff; stroke-width: 0.48"/>
    </g>
    <g clip-path="url(#pd3edfd16a7)">
     <use xlink:href="#C0_0_4cb64bf1d9" x="132.427891" y="238.66307" style="fill: #f28360; stroke: #ffffff; stroke-width: 0.48"/>
    </g>
    <g clip-path="url(#pd3edfd16a7)">
     <use xlink:href="#C0_0_4cb64bf1d9" x="119.778845" y="244.34705" style="fill: #f28360; stroke: #ffffff; stroke-width: 0.48"/>
    </g>
    <g clip-path="url(#pd3edfd16a7)">
     <use xlink:href="#C0_0_4cb64bf1d9" x="144.35167" y="226.38276" style="fill: #f28360; stroke: #ffffff; stroke-width: 0.48"/>
    </g>
    <g clip-path="url(#pd3edfd16a7)">
     <use xlink:href="#C0_0_4cb64bf1d9" x="121.985196" y="254.201889" style="fill: #f28360; stroke: #ffffff; stroke-width: 0.48"/>
    </g>
    <g clip-path="url(#pd3edfd16a7)">
     <use xlink:href="#C0_0_4cb64bf1d9" x="125.765869" y="249.740984" style="fill: #f28360; stroke: #ffffff; stroke-width: 0.48"/>
    </g>
    <g clip-path="url(#pd3edfd16a7)">
     <use xlink:href="#C0_0_4cb64bf1d9" x="131.855177" y="253.584597" style="fill: #f28360; stroke: #ffffff; stroke-width: 0.48"/>
    </g>
    <g clip-path="url(#pd3edfd16a7)">
     <use xlink:href="#C0_0_4cb64bf1d9" x="122.557207" y="235.113749" style="fill: #f28360; stroke: #ffffff; stroke-width: 0.48"/>
    </g>
    <g clip-path="url(#pd3edfd16a7)">
     <use xlink:href="#C0_0_4cb64bf1d9" x="112.678252" y="173.068028" style="fill: #f28360; stroke: #ffffff; stroke-width: 0.48"/>
    </g>
    <g clip-path="url(#pd3edfd16a7)">
     <use xlink:href="#C0_0_4cb64bf1d9" x="126.740193" y="102.546076" style="fill: #f28360; stroke: #ffffff; stroke-width: 0.48"/>
    </g>
    <g clip-path="url(#pd3edfd16a7)">
     <use xlink:href="#C0_0_4cb64bf1d9" x="121.526276" y="254.900162" style="fill: #f28360; stroke: #ffffff; stroke-width: 0.48"/>
    </g>
    <g clip-path="url(#pd3edfd16a7)">
     <use xlink:href="#C0_0_4cb64bf1d9" x="117.355557" y="253.079977" style="fill: #f28360; stroke: #ffffff; stroke-width: 0.48"/>
    </g>
    <g clip-path="url(#pd3edfd16a7)">
     <use xlink:href="#C0_0_4cb64bf1d9" x="123.088603" y="244.190581" style="fill: #f28360; stroke: #ffffff; stroke-width: 0.48"/>
    </g>
    <g clip-path="url(#pd3edfd16a7)">
     <use xlink:href="#C0_0_4cb64bf1d9" x="125.33114" y="247.980784" style="fill: #f28360; stroke: #ffffff; stroke-width: 0.48"/>
    </g>
    <g clip-path="url(#pd3edfd16a7)">
     <use xlink:href="#C0_0_4cb64bf1d9" x="138.212338" y="135.82215" style="fill: #f28360; stroke: #ffffff; stroke-width: 0.48"/>
    </g>
    <g clip-path="url(#pd3edfd16a7)">
     <use xlink:href="#C0_0_4cb64bf1d9" x="117.093841" y="243.487535" style="fill: #f28360; stroke: #ffffff; stroke-width: 0.48"/>
    </g>
    <g clip-path="url(#pd3edfd16a7)">
     <use xlink:href="#C0_0_4cb64bf1d9" x="133.212157" y="246.584168" style="fill: #f28360; stroke: #ffffff; stroke-width: 0.48"/>
    </g>
    <g clip-path="url(#pd3edfd16a7)">
     <use xlink:href="#C0_0_4cb64bf1d9" x="129.690828" y="252.287647" style="fill: #f28360; stroke: #ffffff; stroke-width: 0.48"/>
    </g>
    <g clip-path="url(#pd3edfd16a7)">
     <use xlink:href="#C0_0_4cb64bf1d9" x="122.878088" y="238.014151" style="fill: #f28360; stroke: #ffffff; stroke-width: 0.48"/>
    </g>
    <g clip-path="url(#pd3edfd16a7)">
     <use xlink:href="#C0_0_4cb64bf1d9" x="121.626744" y="253.720772" style="fill: #f28360; stroke: #ffffff; stroke-width: 0.48"/>
    </g>
    <g clip-path="url(#pd3edfd16a7)">
     <use xlink:href="#C0_0_4cb64bf1d9" x="121.311974" y="247.918466" style="fill: #f28360; stroke: #ffffff; stroke-width: 0.48"/>
    </g>
    <g clip-path="url(#pd3edfd16a7)">
     <use xlink:href="#C0_0_4cb64bf1d9" x="179.714475" y="249.410989" style="fill: #7a77ab; stroke: #ffffff; stroke-width: 0.48"/>
    </g>
    <g clip-path="url(#pd3edfd16a7)">
     <use xlink:href="#C0_0_4cb64bf1d9" x="191.900308" y="235.200793" style="fill: #7a77ab; stroke: #ffffff; stroke-width: 0.48"/>
    </g>
    <g clip-path="url(#pd3edfd16a7)">
     <use xlink:href="#C0_0_4cb64bf1d9" x="129.591949" y="173.111567" style="fill: #7a77ab; stroke: #ffffff; stroke-width: 0.48"/>
    </g>
    <g clip-path="url(#pd3edfd16a7)">
     <use xlink:href="#C0_0_4cb64bf1d9" x="205.283233" y="246.379591" style="fill: #7a77ab; stroke: #ffffff; stroke-width: 0.48"/>
    </g>
    <g clip-path="url(#pd3edfd16a7)">
     <use xlink:href="#C0_0_4cb64bf1d9" x="201.786502" y="250.223789" style="fill: #7a77ab; stroke: #ffffff; stroke-width: 0.48"/>
    </g>
    <g clip-path="url(#pd3edfd16a7)">
     <use xlink:href="#C0_0_4cb64bf1d9" x="224.495526" y="249.403052" style="fill: #7a77ab; stroke: #ffffff; stroke-width: 0.48"/>
    </g>
    <g clip-path="url(#pd3edfd16a7)">
     <use xlink:href="#C0_0_4cb64bf1d9" x="140.637437" y="255.993336" style="fill: #7a77ab; stroke: #ffffff; stroke-width: 0.48"/>
    </g>
    <g clip-path="url(#pd3edfd16a7)">
     <use xlink:href="#C0_0_4cb64bf1d9" x="222.301493" y="254.23392" style="fill: #7a77ab; stroke: #ffffff; stroke-width: 0.48"/>
    </g>
    <g clip-path="url(#pd3edfd16a7)">
     <use xlink:href="#C0_0_4cb64bf1d9" x="237.218052" y="254.033284" style="fill: #7a77ab; stroke: #ffffff; stroke-width: 0.48"/>
    </g>
    <g clip-path="url(#pd3edfd16a7)">
     <use xlink:href="#C0_0_4cb64bf1d9" x="123.344249" y="248.215952" style="fill: #7a77ab; stroke: #ffffff; stroke-width: 0.48"/>
    </g>
    <g clip-path="url(#pd3edfd16a7)">
     <use xlink:href="#C0_0_4cb64bf1d9" x="198.612871" y="253.181505" style="fill: #7a77ab; stroke: #ffffff; stroke-width: 0.48"/>
    </g>
    <g clip-path="url(#pd3edfd16a7)">
     <use xlink:href="#C0_0_4cb64bf1d9" x="243.348952" y="255.102656" style="fill: #7a77ab; stroke: #ffffff; stroke-width: 0.48"/>
    </g>
    <g clip-path="url(#pd3edfd16a7)">
     <use xlink:href="#C0_0_4cb64bf1d9" x="177.352485" y="210.613173" style="fill: #7a77ab; stroke: #ffffff; stroke-width: 0.48"/>
    </g>
    <g clip-path="url(#pd3edfd16a7)">
     <use xlink:href="#C0_0_4cb64bf1d9" x="168.861192" y="207.277532" style="fill: #7a77ab; stroke: #ffffff; stroke-width: 0.48"/>
    </g>
    <g clip-path="url(#pd3edfd16a7)">
     <use xlink:href="#C0_0_4cb64bf1d9" x="174.251366" y="200.87485" style="fill: #7a77ab; stroke: #ffffff; stroke-width: 0.48"/>
    </g>
    <g clip-path="url(#pd3edfd16a7)">
     <use xlink:href="#C0_0_4cb64bf1d9" x="188.964502" y="220.494603" style="fill: #7a77ab; stroke: #ffffff; stroke-width: 0.48"/>
    </g>
    <g clip-path="url(#pd3edfd16a7)">
     <use xlink:href="#C0_0_4cb64bf1d9" x="230.661827" y="259.418913" style="fill: #7a77ab; stroke: #ffffff; stroke-width: 0.48"/>
    </g>
    <g clip-path="url(#pd3edfd16a7)">
     <use xlink:href="#C0_0_4cb64bf1d9" x="178.427766" y="254.516365" style="fill: #7a77ab; stroke: #ffffff; stroke-width: 0.48"/>
    </g>
    <g clip-path="url(#pd3edfd16a7)">
     <use xlink:href="#C0_0_4cb64bf1d9" x="188.922098" y="252.139521" style="fill: #7a77ab; stroke: #ffffff; stroke-width: 0.48"/>
    </g>
    <g clip-path="url(#pd3edfd16a7)">
     <use xlink:href="#C0_0_4cb64bf1d9" x="248.145751" y="261.906262" style="fill: #7a77ab; stroke: #ffffff; stroke-width: 0.48"/>
    </g>
    <g clip-path="url(#pd3edfd16a7)">
     <use xlink:href="#C0_0_4cb64bf1d9" x="228.317489" y="249.737949" style="fill: #7a77ab; stroke: #ffffff; stroke-width: 0.48"/>
    </g>
    <g clip-path="url(#pd3edfd16a7)">
     <use xlink:href="#C0_0_4cb64bf1d9" x="192.145896" y="252.343367" style="fill: #7a77ab; stroke: #ffffff; stroke-width: 0.48"/>
    </g>
    <g clip-path="url(#pd3edfd16a7)">
     <use xlink:href="#C0_0_4cb64bf1d9" x="239.41119" y="251.418881" style="fill: #7a77ab; stroke: #ffffff; stroke-width: 0.48"/>
    </g>
    <g clip-path="url(#pd3edfd16a7)">
     <use xlink:href="#C0_0_4cb64bf1d9" x="159.401188" y="187.878661" style="fill: #7a77ab; stroke: #ffffff; stroke-width: 0.48"/>
    </g>
    <g clip-path="url(#pd3edfd16a7)">
     <use xlink:href="#C0_0_4cb64bf1d9" x="202.858787" y="228.764652" style="fill: #7a77ab; stroke: #ffffff; stroke-width: 0.48"/>
    </g>
    <g clip-path="url(#pd3edfd16a7)">
     <use xlink:href="#C0_0_4cb64bf1d9" x="207.562774" y="232.217179" style="fill: #7a77ab; stroke: #ffffff; stroke-width: 0.48"/>
    </g>
    <g clip-path="url(#pd3edfd16a7)">
     <use xlink:href="#C0_0_4cb64bf1d9" x="216.855804" y="238.298671" style="fill: #7a77ab; stroke: #ffffff; stroke-width: 0.48"/>
    </g>
    <g clip-path="url(#pd3edfd16a7)">
     <use xlink:href="#C0_0_4cb64bf1d9" x="211.15696" y="235.247543" style="fill: #7a77ab; stroke: #ffffff; stroke-width: 0.48"/>
    </g>
    <g clip-path="url(#pd3edfd16a7)">
     <use xlink:href="#C0_0_4cb64bf1d9" x="213.847014" y="233.781462" style="fill: #7a77ab; stroke: #ffffff; stroke-width: 0.48"/>
    </g>
    <g clip-path="url(#pd3edfd16a7)">
     <use xlink:href="#C0_0_4cb64bf1d9" x="130.905986" y="243.066426" style="fill: #7a77ab; stroke: #ffffff; stroke-width: 0.48"/>
    </g>
    <g clip-path="url(#pd3edfd16a7)">
     <use xlink:href="#C0_0_4cb64bf1d9" x="245.317534" y="254.128432" style="fill: #7a77ab; stroke: #ffffff; stroke-width: 0.48"/>
    </g>
    <g clip-path="url(#pd3edfd16a7)">
     <use xlink:href="#C0_0_4cb64bf1d9" x="219.488346" y="250.037188" style="fill: #7a77ab; stroke: #ffffff; stroke-width: 0.48"/>
    </g>
    <g clip-path="url(#pd3edfd16a7)">
     <use xlink:href="#C0_0_4cb64bf1d9" x="152.70905" y="235.319315" style="fill: #7a77ab; stroke: #ffffff; stroke-width: 0.48"/>
    </g>
    <g clip-path="url(#pd3edfd16a7)">
     <use xlink:href="#C0_0_4cb64bf1d9" x="171.311991" y="242.815934" style="fill: #7a77ab; stroke: #ffffff; stroke-width: 0.48"/>
    </g>
    <g clip-path="url(#pd3edfd16a7)">
     <use xlink:href="#C0_0_4cb64bf1d9" x="234.324291" y="255.93739" style="fill: #7a77ab; stroke: #ffffff; stroke-width: 0.48"/>
    </g>
    <g clip-path="url(#pd3edfd16a7)">
     <use xlink:href="#C0_0_4cb64bf1d9" x="171.753907" y="248.454572" style="fill: #7a77ab; stroke: #ffffff; stroke-width: 0.48"/>
    </g>
    <g clip-path="url(#pd3edfd16a7)">
     <use xlink:href="#C0_0_4cb64bf1d9" x="150.49141" y="214.805707" style="fill: #7a77ab; stroke: #ffffff; stroke-width: 0.48"/>
    </g>
    <g clip-path="url(#pd3edfd16a7)">
     <use xlink:href="#C0_0_4cb64bf1d9" x="168.793984" y="255.911" style="fill: #7a77ab; stroke: #ffffff; stroke-width: 0.48"/>
    </g>
    <g clip-path="url(#pd3edfd16a7)">
     <use xlink:href="#C0_0_4cb64bf1d9" x="186.328348" y="249.40303" style="fill: #7a77ab; stroke: #ffffff; stroke-width: 0.48"/>
    </g>
    <g clip-path="url(#pd3edfd16a7)">
     <use xlink:href="#C0_0_4cb64bf1d9" x="161.052431" y="235.278257" style="fill: #7a77ab; stroke: #ffffff; stroke-width: 0.48"/>
    </g>
    <g clip-path="url(#pd3edfd16a7)">
     <use xlink:href="#C0_0_4cb64bf1d9" x="207.998027" y="233.625393" style="fill: #7a77ab; stroke: #ffffff; stroke-width: 0.48"/>
    </g>
    <g clip-path="url(#pd3edfd16a7)">
     <use xlink:href="#C0_0_4cb64bf1d9" x="201.424413" y="232.650258" style="fill: #7a77ab; stroke: #ffffff; stroke-width: 0.48"/>
    </g>
    <g clip-path="url(#pd3edfd16a7)">
     <use xlink:href="#C0_0_4cb64bf1d9" x="222.345237" y="247.375132" style="fill: #7a77ab; stroke: #ffffff; stroke-width: 0.48"/>
    </g>
    <g clip-path="url(#pd3edfd16a7)">
     <use xlink:href="#C0_0_4cb64bf1d9" x="232.972022" y="244.410955" style="fill: #7a77ab; stroke: #ffffff; stroke-width: 0.48"/>
    </g>
    <g clip-path="url(#pd3edfd16a7)">
     <use xlink:href="#C0_0_4cb64bf1d9" x="151.703064" y="242.66593" style="fill: #7a77ab; stroke: #ffffff; stroke-width: 0.48"/>
    </g>
    <g clip-path="url(#pd3edfd16a7)">
     <use xlink:href="#C0_0_4cb64bf1d9" x="231.153037" y="251.225906" style="fill: #7a77ab; stroke: #ffffff; stroke-width: 0.48"/>
    </g>
    <g clip-path="url(#pd3edfd16a7)">
     <use xlink:href="#C0_0_4cb64bf1d9" x="214.619327" y="257.929866" style="fill: #7a77ab; stroke: #ffffff; stroke-width: 0.48"/>
    </g>
    <g clip-path="url(#pd3edfd16a7)">
     <use xlink:href="#C0_0_4cb64bf1d9" x="206.50314" y="257.419001" style="fill: #7a77ab; stroke: #ffffff; stroke-width: 0.48"/>
    </g>
    <g clip-path="url(#pd3edfd16a7)">
     <use xlink:href="#C0_0_4cb64bf1d9" x="186.460307" y="233.396907" style="fill: #7a77ab; stroke: #ffffff; stroke-width: 0.48"/>
    </g>
    <g clip-path="url(#pd3edfd16a7)">
     <use xlink:href="#C0_0_4cb64bf1d9" x="144.702934" y="221.844844" style="fill: #7a77ab; stroke: #ffffff; stroke-width: 0.48"/>
    </g>
    <g clip-path="url(#pd3edfd16a7)">
     <use xlink:href="#C0_0_4cb64bf1d9" x="185.044149" y="245.033824" style="fill: #7a77ab; stroke: #ffffff; stroke-width: 0.48"/>
    </g>
    <g clip-path="url(#pd3edfd16a7)">
     <use xlink:href="#C0_0_4cb64bf1d9" x="171.900206" y="216.208364" style="fill: #7a77ab; stroke: #ffffff; stroke-width: 0.48"/>
    </g>
    <g clip-path="url(#pd3edfd16a7)">
     <use xlink:href="#C0_0_4cb64bf1d9" x="168.878773" y="209.087732" style="fill: #7a77ab; stroke: #ffffff; stroke-width: 0.48"/>
    </g>
    <g clip-path="url(#pd3edfd16a7)">
     <use xlink:href="#C0_0_4cb64bf1d9" x="152.997588" y="219.875607" style="fill: #7a77ab; stroke: #ffffff; stroke-width: 0.48"/>
    </g>
    <g clip-path="url(#pd3edfd16a7)">
     <use xlink:href="#C0_0_4cb64bf1d9" x="178.747098" y="253.815039" style="fill: #7a77ab; stroke: #ffffff; stroke-width: 0.48"/>
    </g>
    <g clip-path="url(#pd3edfd16a7)">
     <use xlink:href="#C0_0_4cb64bf1d9" x="228.651303" y="254.595865" style="fill: #7a77ab; stroke: #ffffff; stroke-width: 0.48"/>
    </g>
    <g clip-path="url(#pd3edfd16a7)">
     <use xlink:href="#C0_0_4cb64bf1d9" x="146.043223" y="240.726862" style="fill: #7a77ab; stroke: #ffffff; stroke-width: 0.48"/>
    </g>
    <g clip-path="url(#pd3edfd16a7)">
     <use xlink:href="#C0_0_4cb64bf1d9" x="141.128708" y="202.472" style="fill: #7a77ab; stroke: #ffffff; stroke-width: 0.48"/>
    </g>
    <g clip-path="url(#pd3edfd16a7)">
     <use xlink:href="#C0_0_4cb64bf1d9" x="158.02421" y="252.371707" style="fill: #7a77ab; stroke: #ffffff; stroke-width: 0.48"/>
    </g>
    <g clip-path="url(#pd3edfd16a7)">
     <use xlink:href="#C0_0_4cb64bf1d9" x="216.808691" y="236.71757" style="fill: #7a77ab; stroke: #ffffff; stroke-width: 0.48"/>
    </g>
    <g clip-path="url(#pd3edfd16a7)">
     <use xlink:href="#C0_0_4cb64bf1d9" x="164.410039" y="239.698569" style="fill: #7a77ab; stroke: #ffffff; stroke-width: 0.48"/>
    </g>
    <g clip-path="url(#pd3edfd16a7)">
     <use xlink:href="#C0_0_4cb64bf1d9" x="155.289642" y="250.500471" style="fill: #7a77ab; stroke: #ffffff; stroke-width: 0.48"/>
    </g>
    <g clip-path="url(#pd3edfd16a7)">
     <use xlink:href="#C0_0_4cb64bf1d9" x="203.041272" y="247.943948" style="fill: #7a77ab; stroke: #ffffff; stroke-width: 0.48"/>
    </g>
    <g clip-path="url(#pd3edfd16a7)">
     <use xlink:href="#C0_0_4cb64bf1d9" x="198.678434" y="242.388618" style="fill: #7a77ab; stroke: #ffffff; stroke-width: 0.48"/>
    </g>
    <g clip-path="url(#pd3edfd16a7)">
     <use xlink:href="#C0_0_4cb64bf1d9" x="227.895041" y="258.611069" style="fill: #7a77ab; stroke: #ffffff; stroke-width: 0.48"/>
    </g>
    <g clip-path="url(#pd3edfd16a7)">
     <use xlink:href="#C0_0_4cb64bf1d9" x="183.686158" y="242.976065" style="fill: #7a77ab; stroke: #ffffff; stroke-width: 0.48"/>
    </g>
    <g clip-path="url(#pd3edfd16a7)">
     <use xlink:href="#C0_0_4cb64bf1d9" x="181.957905" y="245.316468" style="fill: #7a77ab; stroke: #ffffff; stroke-width: 0.48"/>
    </g>
    <g clip-path="url(#pd3edfd16a7)">
     <use xlink:href="#C0_0_4cb64bf1d9" x="160.420028" y="231.2548" style="fill: #7a77ab; stroke: #ffffff; stroke-width: 0.48"/>
    </g>
    <g clip-path="url(#pd3edfd16a7)">
     <use xlink:href="#C0_0_4cb64bf1d9" x="170.655519" y="249.033153" style="fill: #7a77ab; stroke: #ffffff; stroke-width: 0.48"/>
    </g>
    <g clip-path="url(#pd3edfd16a7)">
     <use xlink:href="#C0_0_4cb64bf1d9" x="216.939091" y="246.797845" style="fill: #7a77ab; stroke: #ffffff; stroke-width: 0.48"/>
    </g>
    <g clip-path="url(#pd3edfd16a7)">
     <use xlink:href="#C0_0_4cb64bf1d9" x="193.177321" y="239.369786" style="fill: #7a77ab; stroke: #ffffff; stroke-width: 0.48"/>
    </g>
    <g clip-path="url(#pd3edfd16a7)">
     <use xlink:href="#C0_0_4cb64bf1d9" x="203.730534" y="250.73102" style="fill: #7a77ab; stroke: #ffffff; stroke-width: 0.48"/>
    </g>
    <g clip-path="url(#pd3edfd16a7)">
     <use xlink:href="#C0_0_4cb64bf1d9" x="169.047564" y="222.706517" style="fill: #7a77ab; stroke: #ffffff; stroke-width: 0.48"/>
    </g>
    <g clip-path="url(#pd3edfd16a7)">
     <use xlink:href="#C0_0_4cb64bf1d9" x="177.761158" y="236.64081" style="fill: #7a77ab; stroke: #ffffff; stroke-width: 0.48"/>
    </g>
    <g clip-path="url(#pd3edfd16a7)">
     <use xlink:href="#C0_0_4cb64bf1d9" x="176.638813" y="240.828814" style="fill: #7a77ab; stroke: #ffffff; stroke-width: 0.48"/>
    </g>
    <g clip-path="url(#pd3edfd16a7)">
     <use xlink:href="#C0_0_4cb64bf1d9" x="173.086449" y="255.370293" style="fill: #7a77ab; stroke: #ffffff; stroke-width: 0.48"/>
    </g>
    <g clip-path="url(#pd3edfd16a7)">
     <use xlink:href="#C0_0_4cb64bf1d9" x="133.933106" y="231.442497" style="fill: #7a77ab; stroke: #ffffff; stroke-width: 0.48"/>
    </g>
    <g clip-path="url(#pd3edfd16a7)">
     <use xlink:href="#C0_0_4cb64bf1d9" x="151.785501" y="206.127204" style="fill: #7a77ab; stroke: #ffffff; stroke-width: 0.48"/>
    </g>
    <g clip-path="url(#pd3edfd16a7)">
     <use xlink:href="#C0_0_4cb64bf1d9" x="226.881954" y="246.380494" style="fill: #7a77ab; stroke: #ffffff; stroke-width: 0.48"/>
    </g>
    <g clip-path="url(#pd3edfd16a7)">
     <use xlink:href="#C0_0_4cb64bf1d9" x="236.48758" y="259.970024" style="fill: #7a77ab; stroke: #ffffff; stroke-width: 0.48"/>
    </g>
    <g clip-path="url(#pd3edfd16a7)">
     <use xlink:href="#C0_0_4cb64bf1d9" x="141.973121" y="210.973281" style="fill: #7a77ab; stroke: #ffffff; stroke-width: 0.48"/>
    </g>
    <g clip-path="url(#pd3edfd16a7)">
     <use xlink:href="#C0_0_4cb64bf1d9" x="167.362536" y="221.607326" style="fill: #7a77ab; stroke: #ffffff; stroke-width: 0.48"/>
    </g>
    <g clip-path="url(#pd3edfd16a7)">
     <use xlink:href="#C0_0_4cb64bf1d9" x="136.932997" y="214.196349" style="fill: #7a77ab; stroke: #ffffff; stroke-width: 0.48"/>
    </g>
    <g clip-path="url(#pd3edfd16a7)">
     <use xlink:href="#C0_0_4cb64bf1d9" x="243.208823" y="253.949987" style="fill: #7a77ab; stroke: #ffffff; stroke-width: 0.48"/>
    </g>
    <g clip-path="url(#pd3edfd16a7)">
     <use xlink:href="#C0_0_4cb64bf1d9" x="137.731692" y="227.811656" style="fill: #7a77ab; stroke: #ffffff; stroke-width: 0.48"/>
    </g>
    <g clip-path="url(#pd3edfd16a7)">
     <use xlink:href="#C0_0_4cb64bf1d9" x="138.657667" y="222.277986" style="fill: #7a77ab; stroke: #ffffff; stroke-width: 0.48"/>
    </g>
    <g clip-path="url(#pd3edfd16a7)">
     <use xlink:href="#C0_0_4cb64bf1d9" x="189.75943" y="228.106143" style="fill: #7a77ab; stroke: #ffffff; stroke-width: 0.48"/>
    </g>
    <g clip-path="url(#pd3edfd16a7)">
     <use xlink:href="#C0_0_4cb64bf1d9" x="138.563072" y="234.462482" style="fill: #7a77ab; stroke: #ffffff; stroke-width: 0.48"/>
    </g>
    <g clip-path="url(#pd3edfd16a7)">
     <use xlink:href="#C0_0_4cb64bf1d9" x="210.826205" y="256.396377" style="fill: #7a77ab; stroke: #ffffff; stroke-width: 0.48"/>
    </g>
    <g clip-path="url(#pd3edfd16a7)">
     <use xlink:href="#C0_0_4cb64bf1d9" x="127.898072" y="206.324852" style="fill: #7a77ab; stroke: #ffffff; stroke-width: 0.48"/>
    </g>
    <g clip-path="url(#pd3edfd16a7)">
     <use xlink:href="#C0_0_4cb64bf1d9" x="133.48629" y="230.376487" style="fill: #7a77ab; stroke: #ffffff; stroke-width: 0.48"/>
    </g>
   </g>
   <g id="matplotlib.axis_1">
    <g id="xtick_1">
     <g id="line2d_1">
      <defs>
       <path id="m7aebef21b3" d="M 0 0 
L 0 5 
" style="stroke: #000000; stroke-width: 0.75"/>
      </defs>
      <g>
       <use xlink:href="#m7aebef21b3" x="112.389626" y="295.8" style="stroke: #000000; stroke-width: 0.75"/>
      </g>
     </g>
     <g id="text_1">
      <text style="font: 15px &quot;Suisse Int&apos;l&quot;, sans-serif; text-anchor: middle" x="112.389626" y="316.675" transform="rotate(-0 112.389626 316.675)">0.0</text>
     </g>
    </g>
    <g id="xtick_2">
     <g id="line2d_2">
      <g>
       <use xlink:href="#m7aebef21b3" x="186.486516" y="295.8" style="stroke: #000000; stroke-width: 0.75"/>
      </g>
     </g>
     <g id="text_2">
      <text style="font: 15px &quot;Suisse Int&apos;l&quot;, sans-serif; text-anchor: middle" x="186.486516" y="316.675" transform="rotate(-0 186.486516 316.675)">0.5</text>
     </g>
    </g>
    <g id="xtick_3">
     <g id="line2d_3">
      <g>
       <use xlink:href="#m7aebef21b3" x="260.583406" y="295.8" style="stroke: #000000; stroke-width: 0.75"/>
      </g>
     </g>
     <g id="text_3">
      <text style="font: 15px &quot;Suisse Int&apos;l&quot;, sans-serif; text-anchor: middle" x="260.583406" y="316.675" transform="rotate(-0 260.583406 316.675)">1.0</text>
     </g>
    </g>
    <g id="text_4">
     <text style="font: 500 15px &quot;Suisse Int&apos;l&quot;, sans-serif; text-anchor: middle" x="185.745" y="340.175" transform="rotate(-0 185.745 340.175)">Confinement_ratio</text>
    </g>
   </g>
   <g id="matplotlib.axis_2">
    <g id="ytick_1">
     <g id="line2d_4">
      <defs>
       <path id="mb917c34805" d="M 0 0 
L -5 0 
" style="stroke: #000000; stroke-width: 0.75"/>
      </defs>
      <g>
       <use xlink:href="#mb917c34805" x="73.95" y="266.89099" style="stroke: #000000; stroke-width: 0.75"/>
      </g>
     </g>
     <g id="text_5">
      <text style="font: 15px &quot;Suisse Int&apos;l&quot;, sans-serif; text-anchor: end" x="63.95" y="272.32849" transform="rotate(-0 63.95 272.32849)">0</text>
     </g>
    </g>
    <g id="ytick_2">
     <g id="line2d_5">
      <g>
       <use xlink:href="#mb917c34805" x="73.95" y="201.736575" style="stroke: #000000; stroke-width: 0.75"/>
      </g>
     </g>
     <g id="text_6">
      <text style="font: 15px &quot;Suisse Int&apos;l&quot;, sans-serif; text-anchor: end" x="63.95" y="207.174075" transform="rotate(-0 63.95 207.174075)">10</text>
     </g>
    </g>
    <g id="ytick_3">
     <g id="line2d_6">
      <g>
       <use xlink:href="#mb917c34805" x="73.95" y="136.58216" style="stroke: #000000; stroke-width: 0.75"/>
      </g>
     </g>
     <g id="text_7">
      <text style="font: 15px &quot;Suisse Int&apos;l&quot;, sans-serif; text-anchor: end" x="63.95" y="142.01966" transform="rotate(-0 63.95 142.01966)">20</text>
     </g>
    </g>
    <g id="ytick_4">
     <g id="line2d_7">
      <g>
       <use xlink:href="#mb917c34805" x="73.95" y="71.427745" style="stroke: #000000; stroke-width: 0.75"/>
      </g>
     </g>
     <g id="text_8">
      <text style="font: 15px &quot;Suisse Int&apos;l&quot;, sans-serif; text-anchor: end" x="63.95" y="76.865245" transform="rotate(-0 63.95 76.865245)">30</text>
     </g>
    </g>
    <g id="text_9">
     <text style="font: 500 15px &quot;Suisse Int&apos;l&quot;, sans-serif; text-anchor: middle" x="32.275" y="179.965714" transform="rotate(-90 32.275 179.965714)">Mean_angular_speed</text>
    </g>
   </g>
   <g id="line2d_8"/>
   <g id="line2d_9"/>
   <g id="patch_3">
    <path d="M 73.95 295.8 
L 73.95 64.131429 
" style="fill: none; stroke: #000000; stroke-width: 0.75; stroke-linejoin: miter; stroke-linecap: square"/>
   </g>
   <g id="patch_4">
    <path d="M 73.95 295.8 
L 297.54 295.8 
" style="fill: none; stroke: #000000; stroke-width: 0.75; stroke-linejoin: miter; stroke-linecap: square"/>
   </g>
   <g id="legend_1">
    <g id="text_10">
     <text style="font: 600 16px &quot;Suisse Int&apos;l&quot;, sans-serif; text-anchor: start" x="340.553" y="75.731429" transform="rotate(-0 340.553 75.731429)">Vessel_type</text>
    </g>
    <g id="line2d_10">
     <path d="M 340.553 86.031429 
L 361 86.031429 
" style="fill: none; stroke: #bab0a8; stroke-width: 1.5; stroke-linecap: round"/>
    </g>
    <g id="line2d_11">
     <defs>
      <path id="m7988d6784b" d="M 0 3 
C 0.795609 3 1.55874 2.683901 2.12132 2.12132 
C 2.683901 1.55874 3 0.795609 3 0 
C 3 -0.795609 2.683901 -1.55874 2.12132 -2.12132 
C 1.55874 -2.683901 0.795609 -3 0 -3 
C -0.795609 -3 -1.55874 -2.683901 -2.12132 -2.12132 
C -2.683901 -1.55874 -3 -0.795609 -3 0 
C -3 0.795609 -2.683901 1.55874 -2.12132 2.12132 
C -1.55874 2.683901 -0.795609 3 0 3 
z
" style="stroke: #ffffff; stroke-width: 0.48"/>
     </defs>
     <g>
      <use xlink:href="#m7988d6784b" x="348.053" y="99.906429" style="fill: #f28360; stroke: #ffffff; stroke-width: 0.48"/>
     </g>
    </g>
    <g id="text_11">
     <text style="font: 15px &quot;Suisse Int&apos;l&quot;, sans-serif; text-anchor: start" x="361.553" y="106.281429" transform="rotate(-0 361.553 106.281429)">Pools | n=145</text>
    </g>
    <g id="line2d_12">
     <defs>
      <path id="m289c81a231" d="M 0 3 
C 0.795609 3 1.55874 2.683901 2.12132 2.12132 
C 2.683901 1.55874 3 0.795609 3 0 
C 3 -0.795609 2.683901 -1.55874 2.12132 -2.12132 
C 1.55874 -2.683901 0.795609 -3 0 -3 
C -0.795609 -3 -1.55874 -2.683901 -2.12132 -2.12132 
C -2.683901 -1.55874 -3 -0.795609 -3 0 
C -3 0.795609 -2.683901 1.55874 -2.12132 2.12132 
C -1.55874 2.683901 -0.795609 3 0 3 
z
" style="stroke: #ffffff; stroke-width: 0.48"/>
     </defs>
     <g>
      <use xlink:href="#m289c81a231" x="348.053" y="122.781429" style="fill: #7a77ab; stroke: #ffffff; stroke-width: 0.48"/>
     </g>
    </g>
    <g id="text_12">
     <text style="font: 15px &quot;Suisse Int&apos;l&quot;, sans-serif; text-anchor: start" x="361.553" y="129.156429" transform="rotate(-0 361.553 129.156429)">Wells | n=91</text>
    </g>
   </g>
  </g>
  <g id="axes_2">
   <g id="patch_5">
    <path d="M 73.95 56.142857 
L 297.54 56.142857 
L 297.54 16.2 
L 73.95 16.2 
L 73.95 56.142857 
z
" style="fill: none"/>
   </g>
   <g id="PolyCollection_1">
    <defs>
     <path id="me5164eb784" d="M 82.231111 -303.863451 
L 82.231111 -303.857143 
L 83.271452 -303.857143 
L 84.311792 -303.857143 
L 85.352133 -303.857143 
L 86.392473 -303.857143 
L 87.432814 -303.857143 
L 88.473155 -303.857143 
L 89.513495 -303.857143 
L 90.553836 -303.857143 
L 91.594176 -303.857143 
L 92.634517 -303.857143 
L 93.674858 -303.857143 
L 94.715198 -303.857143 
L 95.755539 -303.857143 
L 96.795879 -303.857143 
L 97.83622 -303.857143 
L 98.876561 -303.857143 
L 99.916901 -303.857143 
L 100.957242 -303.857143 
L 101.997582 -303.857143 
L 103.037923 -303.857143 
L 104.078264 -303.857143 
L 105.118604 -303.857143 
L 106.158945 -303.857143 
L 107.199285 -303.857143 
L 108.239626 -303.857143 
L 109.279966 -303.857143 
L 110.320307 -303.857143 
L 111.360648 -303.857143 
L 112.400988 -303.857143 
L 113.441329 -303.857143 
L 114.481669 -303.857143 
L 115.52201 -303.857143 
L 116.562351 -303.857143 
L 117.602691 -303.857143 
L 118.643032 -303.857143 
L 119.683372 -303.857143 
L 120.723713 -303.857143 
L 121.764054 -303.857143 
L 122.804394 -303.857143 
L 123.844735 -303.857143 
L 124.885075 -303.857143 
L 125.925416 -303.857143 
L 126.965757 -303.857143 
L 128.006097 -303.857143 
L 129.046438 -303.857143 
L 130.086778 -303.857143 
L 131.127119 -303.857143 
L 132.16746 -303.857143 
L 133.2078 -303.857143 
L 134.248141 -303.857143 
L 135.288481 -303.857143 
L 136.328822 -303.857143 
L 137.369162 -303.857143 
L 138.409503 -303.857143 
L 139.449844 -303.857143 
L 140.490184 -303.857143 
L 141.530525 -303.857143 
L 142.570865 -303.857143 
L 143.611206 -303.857143 
L 144.651547 -303.857143 
L 145.691887 -303.857143 
L 146.732228 -303.857143 
L 147.772568 -303.857143 
L 148.812909 -303.857143 
L 149.85325 -303.857143 
L 150.89359 -303.857143 
L 151.933931 -303.857143 
L 152.974271 -303.857143 
L 154.014612 -303.857143 
L 155.054953 -303.857143 
L 156.095293 -303.857143 
L 157.135634 -303.857143 
L 158.175974 -303.857143 
L 159.216315 -303.857143 
L 160.256655 -303.857143 
L 161.296996 -303.857143 
L 162.337337 -303.857143 
L 163.377677 -303.857143 
L 164.418018 -303.857143 
L 165.458358 -303.857143 
L 166.498699 -303.857143 
L 167.53904 -303.857143 
L 168.57938 -303.857143 
L 169.619721 -303.857143 
L 170.660061 -303.857143 
L 171.700402 -303.857143 
L 172.740743 -303.857143 
L 173.781083 -303.857143 
L 174.821424 -303.857143 
L 175.861764 -303.857143 
L 176.902105 -303.857143 
L 177.942446 -303.857143 
L 178.982786 -303.857143 
L 180.023127 -303.857143 
L 181.063467 -303.857143 
L 182.103808 -303.857143 
L 183.144149 -303.857143 
L 184.184489 -303.857143 
L 185.22483 -303.857143 
L 186.26517 -303.857143 
L 187.305511 -303.857143 
L 188.345851 -303.857143 
L 189.386192 -303.857143 
L 190.426533 -303.857143 
L 191.466873 -303.857143 
L 192.507214 -303.857143 
L 193.547554 -303.857143 
L 194.587895 -303.857143 
L 195.628236 -303.857143 
L 196.668576 -303.857143 
L 197.708917 -303.857143 
L 198.749257 -303.857143 
L 199.789598 -303.857143 
L 200.829939 -303.857143 
L 201.870279 -303.857143 
L 202.91062 -303.857143 
L 203.95096 -303.857143 
L 204.991301 -303.857143 
L 206.031642 -303.857143 
L 207.071982 -303.857143 
L 208.112323 -303.857143 
L 209.152663 -303.857143 
L 210.193004 -303.857143 
L 211.233345 -303.857143 
L 212.273685 -303.857143 
L 213.314026 -303.857143 
L 214.354366 -303.857143 
L 215.394707 -303.857143 
L 216.435047 -303.857143 
L 217.475388 -303.857143 
L 218.515729 -303.857143 
L 219.556069 -303.857143 
L 220.59641 -303.857143 
L 221.63675 -303.857143 
L 222.677091 -303.857143 
L 223.717432 -303.857143 
L 224.757772 -303.857143 
L 225.798113 -303.857143 
L 226.838453 -303.857143 
L 227.878794 -303.857143 
L 228.919135 -303.857143 
L 229.959475 -303.857143 
L 230.999816 -303.857143 
L 232.040156 -303.857143 
L 233.080497 -303.857143 
L 234.120838 -303.857143 
L 235.161178 -303.857143 
L 236.201519 -303.857143 
L 237.241859 -303.857143 
L 238.2822 -303.857143 
L 239.32254 -303.857143 
L 240.362881 -303.857143 
L 241.403222 -303.857143 
L 242.443562 -303.857143 
L 243.483903 -303.857143 
L 244.524243 -303.857143 
L 245.564584 -303.857143 
L 246.604925 -303.857143 
L 247.645265 -303.857143 
L 248.685606 -303.857143 
L 249.725946 -303.857143 
L 250.766287 -303.857143 
L 251.806628 -303.857143 
L 252.846968 -303.857143 
L 253.887309 -303.857143 
L 254.927649 -303.857143 
L 255.96799 -303.857143 
L 257.008331 -303.857143 
L 258.048671 -303.857143 
L 259.089012 -303.857143 
L 260.129352 -303.857143 
L 261.169693 -303.857143 
L 262.210034 -303.857143 
L 263.250374 -303.857143 
L 264.290715 -303.857143 
L 265.331055 -303.857143 
L 266.371396 -303.857143 
L 267.411736 -303.857143 
L 268.452077 -303.857143 
L 269.492418 -303.857143 
L 270.532758 -303.857143 
L 271.573099 -303.857143 
L 272.613439 -303.857143 
L 273.65378 -303.857143 
L 274.694121 -303.857143 
L 275.734461 -303.857143 
L 276.774802 -303.857143 
L 277.815142 -303.857143 
L 278.855483 -303.857143 
L 279.895824 -303.857143 
L 280.936164 -303.857143 
L 281.976505 -303.857143 
L 283.016845 -303.857143 
L 284.057186 -303.857143 
L 285.097527 -303.857143 
L 286.137867 -303.857143 
L 287.178208 -303.857143 
L 288.218548 -303.857143 
L 289.258889 -303.857143 
L 289.258889 -303.864949 
L 289.258889 -303.864949 
L 288.218548 -303.867106 
L 287.178208 -303.869792 
L 286.137867 -303.873118 
L 285.097527 -303.877214 
L 284.057186 -303.882229 
L 283.016845 -303.888337 
L 281.976505 -303.895732 
L 280.936164 -303.904636 
L 279.895824 -303.915299 
L 278.855483 -303.927995 
L 277.815142 -303.94303 
L 276.774802 -303.960734 
L 275.734461 -303.981469 
L 274.694121 -304.005619 
L 273.65378 -304.033591 
L 272.613439 -304.065816 
L 271.573099 -304.102735 
L 270.532758 -304.144805 
L 269.492418 -304.192483 
L 268.452077 -304.246229 
L 267.411736 -304.306487 
L 266.371396 -304.373686 
L 265.331055 -304.448228 
L 264.290715 -304.530477 
L 263.250374 -304.620751 
L 262.210034 -304.719313 
L 261.169693 -304.826362 
L 260.129352 -304.942025 
L 259.089012 -305.066349 
L 258.048671 -305.199294 
L 257.008331 -305.340731 
L 255.96799 -305.490436 
L 254.927649 -305.648088 
L 253.887309 -305.813274 
L 252.846968 -305.985483 
L 251.806628 -306.164119 
L 250.766287 -306.3485 
L 249.725946 -306.537872 
L 248.685606 -306.731411 
L 247.645265 -306.928242 
L 246.604925 -307.127444 
L 245.564584 -307.328069 
L 244.524243 -307.529154 
L 243.483903 -307.729731 
L 242.443562 -307.928849 
L 241.403222 -308.125582 
L 240.362881 -308.319044 
L 239.32254 -308.508403 
L 238.2822 -308.692888 
L 237.241859 -308.871805 
L 236.201519 -309.044539 
L 235.161178 -309.210562 
L 234.120838 -309.36944 
L 233.080497 -309.52083 
L 232.040156 -309.664482 
L 230.999816 -309.800242 
L 229.959475 -309.928037 
L 228.919135 -310.047882 
L 227.878794 -310.159863 
L 226.838453 -310.264135 
L 225.798113 -310.360912 
L 224.757772 -310.450455 
L 223.717432 -310.533066 
L 222.677091 -310.609079 
L 221.63675 -310.678847 
L 220.59641 -310.74274 
L 219.556069 -310.801136 
L 218.515729 -310.854416 
L 217.475388 -310.90296 
L 216.435047 -310.947147 
L 215.394707 -310.987351 
L 214.354366 -311.023944 
L 213.314026 -311.057297 
L 212.273685 -311.087779 
L 211.233345 -311.115766 
L 210.193004 -311.141636 
L 209.152663 -311.165775 
L 208.112323 -311.188579 
L 207.071982 -311.210452 
L 206.031642 -311.231806 
L 204.991301 -311.253057 
L 203.95096 -311.274621 
L 202.91062 -311.296908 
L 201.870279 -311.320316 
L 200.829939 -311.345217 
L 199.789598 -311.37195 
L 198.749257 -311.400811 
L 197.708917 -311.432036 
L 196.668576 -311.465796 
L 195.628236 -311.502184 
L 194.587895 -311.541201 
L 193.547554 -311.582758 
L 192.507214 -311.626661 
L 191.466873 -311.672615 
L 190.426533 -311.720219 
L 189.386192 -311.768974 
L 188.345851 -311.818285 
L 187.305511 -311.867477 
L 186.26517 -311.915799 
L 185.22483 -311.962449 
L 184.184489 -312.006584 
L 183.144149 -312.047346 
L 182.103808 -312.08388 
L 181.063467 -312.115356 
L 180.023127 -312.140992 
L 178.982786 -312.160076 
L 177.942446 -312.171984 
L 176.902105 -312.176196 
L 175.861764 -312.172315 
L 174.821424 -312.160076 
L 173.781083 -312.139354 
L 172.740743 -312.110168 
L 171.700402 -312.072678 
L 170.660061 -312.027186 
L 169.619721 -311.974119 
L 168.57938 -311.914025 
L 167.53904 -311.847547 
L 166.498699 -311.775411 
L 165.458358 -311.698401 
L 164.418018 -311.617336 
L 163.377677 -311.533042 
L 162.337337 -311.446334 
L 161.296996 -311.357986 
L 160.256655 -311.268708 
L 159.216315 -311.179131 
L 158.175974 -311.08978 
L 157.135634 -311.001067 
L 156.095293 -310.913273 
L 155.054953 -310.826547 
L 154.014612 -310.740894 
L 152.974271 -310.656185 
L 151.933931 -310.572155 
L 150.89359 -310.488414 
L 149.85325 -310.404462 
L 148.812909 -310.3197 
L 147.772568 -310.233453 
L 146.732228 -310.144989 
L 145.691887 -310.053542 
L 144.651547 -309.958335 
L 143.611206 -309.858608 
L 142.570865 -309.753636 
L 141.530525 -309.642756 
L 140.490184 -309.52539 
L 139.449844 -309.401058 
L 138.409503 -309.269403 
L 137.369162 -309.130197 
L 136.328822 -308.983354 
L 135.288481 -308.82894 
L 134.248141 -308.667167 
L 133.2078 -308.498399 
L 132.16746 -308.323142 
L 131.127119 -308.142039 
L 130.086778 -307.955852 
L 129.046438 -307.765451 
L 128.006097 -307.571796 
L 126.965757 -307.375915 
L 125.925416 -307.178883 
L 124.885075 -306.981805 
L 123.844735 -306.785787 
L 122.804394 -306.591921 
L 121.764054 -306.401262 
L 120.723713 -306.21481 
L 119.683372 -306.033495 
L 118.643032 -305.858158 
L 117.602691 -305.689549 
L 116.562351 -305.528307 
L 115.52201 -305.374962 
L 114.481669 -305.229932 
L 113.441329 -305.093518 
L 112.400988 -304.965909 
L 111.360648 -304.847187 
L 110.320307 -304.737334 
L 109.279966 -304.636238 
L 108.239626 -304.543703 
L 107.199285 -304.459462 
L 106.158945 -304.383183 
L 105.118604 -304.314485 
L 104.078264 -304.252946 
L 103.037923 -304.198116 
L 101.997582 -304.149524 
L 100.957242 -304.106692 
L 99.916901 -304.069138 
L 98.876561 -304.036389 
L 97.83622 -304.007981 
L 96.795879 -303.983471 
L 95.755539 -303.962438 
L 94.715198 -303.944484 
L 93.674858 -303.929242 
L 92.634517 -303.91637 
L 91.594176 -303.905558 
L 90.553836 -303.896526 
L 89.513495 -303.889021 
L 88.473155 -303.882819 
L 87.432814 -303.87772 
L 86.392473 -303.873551 
L 85.352133 -303.870162 
L 84.311792 -303.86742 
L 83.271452 -303.865215 
L 82.231111 -303.863451 
z
" style="stroke: #7a77ab; stroke-width: 2"/>
    </defs>
    <g clip-path="url(#p2ab60cf729)">
     <use xlink:href="#me5164eb784" x="0" y="360" style="fill: #7a77ab; fill-opacity: 0.25; stroke: #7a77ab; stroke-width: 2"/>
    </g>
   </g>
   <g id="PolyCollection_2">
    <defs>
     <path id="mcf5c766503" d="M 98.518081 -303.908465 
L 98.518081 -303.857143 
L 99.016781 -303.857143 
L 99.515481 -303.857143 
L 100.014182 -303.857143 
L 100.512882 -303.857143 
L 101.011582 -303.857143 
L 101.510283 -303.857143 
L 102.008983 -303.857143 
L 102.507683 -303.857143 
L 103.006384 -303.857143 
L 103.505084 -303.857143 
L 104.003784 -303.857143 
L 104.502485 -303.857143 
L 105.001185 -303.857143 
L 105.499885 -303.857143 
L 105.998585 -303.857143 
L 106.497286 -303.857143 
L 106.995986 -303.857143 
L 107.494686 -303.857143 
L 107.993387 -303.857143 
L 108.492087 -303.857143 
L 108.990787 -303.857143 
L 109.489488 -303.857143 
L 109.988188 -303.857143 
L 110.486888 -303.857143 
L 110.985589 -303.857143 
L 111.484289 -303.857143 
L 111.982989 -303.857143 
L 112.48169 -303.857143 
L 112.98039 -303.857143 
L 113.47909 -303.857143 
L 113.977791 -303.857143 
L 114.476491 -303.857143 
L 114.975191 -303.857143 
L 115.473891 -303.857143 
L 115.972592 -303.857143 
L 116.471292 -303.857143 
L 116.969992 -303.857143 
L 117.468693 -303.857143 
L 117.967393 -303.857143 
L 118.466093 -303.857143 
L 118.964794 -303.857143 
L 119.463494 -303.857143 
L 119.962194 -303.857143 
L 120.460895 -303.857143 
L 120.959595 -303.857143 
L 121.458295 -303.857143 
L 121.956996 -303.857143 
L 122.455696 -303.857143 
L 122.954396 -303.857143 
L 123.453097 -303.857143 
L 123.951797 -303.857143 
L 124.450497 -303.857143 
L 124.949197 -303.857143 
L 125.447898 -303.857143 
L 125.946598 -303.857143 
L 126.445298 -303.857143 
L 126.943999 -303.857143 
L 127.442699 -303.857143 
L 127.941399 -303.857143 
L 128.4401 -303.857143 
L 128.9388 -303.857143 
L 129.4375 -303.857143 
L 129.936201 -303.857143 
L 130.434901 -303.857143 
L 130.933601 -303.857143 
L 131.432302 -303.857143 
L 131.931002 -303.857143 
L 132.429702 -303.857143 
L 132.928402 -303.857143 
L 133.427103 -303.857143 
L 133.925803 -303.857143 
L 134.424503 -303.857143 
L 134.923204 -303.857143 
L 135.421904 -303.857143 
L 135.920604 -303.857143 
L 136.419305 -303.857143 
L 136.918005 -303.857143 
L 137.416705 -303.857143 
L 137.915406 -303.857143 
L 138.414106 -303.857143 
L 138.912806 -303.857143 
L 139.411507 -303.857143 
L 139.910207 -303.857143 
L 140.408907 -303.857143 
L 140.907608 -303.857143 
L 141.406308 -303.857143 
L 141.905008 -303.857143 
L 142.403708 -303.857143 
L 142.902409 -303.857143 
L 143.401109 -303.857143 
L 143.899809 -303.857143 
L 144.39851 -303.857143 
L 144.89721 -303.857143 
L 145.39591 -303.857143 
L 145.894611 -303.857143 
L 146.393311 -303.857143 
L 146.892011 -303.857143 
L 147.390712 -303.857143 
L 147.889412 -303.857143 
L 148.388112 -303.857143 
L 148.886813 -303.857143 
L 149.385513 -303.857143 
L 149.884213 -303.857143 
L 150.382914 -303.857143 
L 150.881614 -303.857143 
L 151.380314 -303.857143 
L 151.879014 -303.857143 
L 152.377715 -303.857143 
L 152.876415 -303.857143 
L 153.375115 -303.857143 
L 153.873816 -303.857143 
L 154.372516 -303.857143 
L 154.871216 -303.857143 
L 155.369917 -303.857143 
L 155.868617 -303.857143 
L 156.367317 -303.857143 
L 156.866018 -303.857143 
L 157.364718 -303.857143 
L 157.863418 -303.857143 
L 158.362119 -303.857143 
L 158.860819 -303.857143 
L 159.359519 -303.857143 
L 159.858219 -303.857143 
L 160.35692 -303.857143 
L 160.85562 -303.857143 
L 161.35432 -303.857143 
L 161.853021 -303.857143 
L 162.351721 -303.857143 
L 162.850421 -303.857143 
L 163.349122 -303.857143 
L 163.847822 -303.857143 
L 164.346522 -303.857143 
L 164.845223 -303.857143 
L 165.343923 -303.857143 
L 165.842623 -303.857143 
L 166.341324 -303.857143 
L 166.840024 -303.857143 
L 167.338724 -303.857143 
L 167.837425 -303.857143 
L 168.336125 -303.857143 
L 168.834825 -303.857143 
L 169.333525 -303.857143 
L 169.832226 -303.857143 
L 170.330926 -303.857143 
L 170.829626 -303.857143 
L 171.328327 -303.857143 
L 171.827027 -303.857143 
L 172.325727 -303.857143 
L 172.824428 -303.857143 
L 173.323128 -303.857143 
L 173.821828 -303.857143 
L 174.320529 -303.857143 
L 174.819229 -303.857143 
L 175.317929 -303.857143 
L 175.81663 -303.857143 
L 176.31533 -303.857143 
L 176.81403 -303.857143 
L 177.312731 -303.857143 
L 177.811431 -303.857143 
L 178.310131 -303.857143 
L 178.808831 -303.857143 
L 179.307532 -303.857143 
L 179.806232 -303.857143 
L 180.304932 -303.857143 
L 180.803633 -303.857143 
L 181.302333 -303.857143 
L 181.801033 -303.857143 
L 182.299734 -303.857143 
L 182.798434 -303.857143 
L 183.297134 -303.857143 
L 183.795835 -303.857143 
L 184.294535 -303.857143 
L 184.793235 -303.857143 
L 185.291936 -303.857143 
L 185.790636 -303.857143 
L 186.289336 -303.857143 
L 186.788037 -303.857143 
L 187.286737 -303.857143 
L 187.785437 -303.857143 
L 188.284137 -303.857143 
L 188.782838 -303.857143 
L 189.281538 -303.857143 
L 189.780238 -303.857143 
L 190.278939 -303.857143 
L 190.777639 -303.857143 
L 191.276339 -303.857143 
L 191.77504 -303.857143 
L 192.27374 -303.857143 
L 192.77244 -303.857143 
L 193.271141 -303.857143 
L 193.769841 -303.857143 
L 194.268541 -303.857143 
L 194.767242 -303.857143 
L 195.265942 -303.857143 
L 195.764642 -303.857143 
L 196.263342 -303.857143 
L 196.762043 -303.857143 
L 197.260743 -303.857143 
L 197.759443 -303.857143 
L 197.759443 -303.862868 
L 197.759443 -303.862868 
L 197.260743 -303.864979 
L 196.762043 -303.867747 
L 196.263342 -303.871331 
L 195.764642 -303.875913 
L 195.265942 -303.881694 
L 194.767242 -303.888893 
L 194.268541 -303.89774 
L 193.769841 -303.908466 
L 193.271141 -303.921295 
L 192.77244 -303.936426 
L 192.27374 -303.954019 
L 191.77504 -303.974182 
L 191.276339 -303.996947 
L 190.777639 -304.022255 
L 190.278939 -304.049944 
L 189.780238 -304.079738 
L 189.281538 -304.111237 
L 188.782838 -304.143922 
L 188.284137 -304.177161 
L 187.785437 -304.210227 
L 187.286737 -304.242317 
L 186.788037 -304.272589 
L 186.289336 -304.300194 
L 185.790636 -304.324317 
L 185.291936 -304.344219 
L 184.793235 -304.359273 
L 184.294535 -304.369005 
L 183.795835 -304.373119 
L 183.297134 -304.371519 
L 182.798434 -304.364316 
L 182.299734 -304.351835 
L 181.801033 -304.334597 
L 181.302333 -304.313308 
L 180.803633 -304.288829 
L 180.304932 -304.262144 
L 179.806232 -304.234335 
L 179.307532 -304.206542 
L 178.808831 -304.179935 
L 178.310131 -304.155693 
L 177.811431 -304.134976 
L 177.312731 -304.11891 
L 176.81403 -304.10858 
L 176.31533 -304.105013 
L 175.81663 -304.109175 
L 175.317929 -304.121963 
L 174.819229 -304.144191 
L 174.320529 -304.176578 
L 173.821828 -304.219731 
L 173.323128 -304.274117 
L 172.824428 -304.340039 
L 172.325727 -304.417606 
L 171.827027 -304.506702 
L 171.328327 -304.606956 
L 170.829626 -304.717724 
L 170.330926 -304.838069 
L 169.832226 -304.966765 
L 169.333525 -305.102295 
L 168.834825 -305.242883 
L 168.336125 -305.386524 
L 167.837425 -305.531037 
L 167.338724 -305.674119 
L 166.840024 -305.813416 
L 166.341324 -305.946592 
L 165.842623 -306.071405 
L 165.343923 -306.185778 
L 164.845223 -306.28786 
L 164.346522 -306.376094 
L 163.847822 -306.44926 
L 163.349122 -306.506516 
L 162.850421 -306.547429 
L 162.351721 -306.571993 
L 161.853021 -306.580636 
L 161.35432 -306.574221 
L 160.85562 -306.554035 
L 160.35692 -306.521768 
L 159.858219 -306.479495 
L 159.359519 -306.429634 
L 158.860819 -306.374919 
L 158.362119 -306.318346 
L 157.863418 -306.263133 
L 157.364718 -306.212662 
L 156.866018 -306.170428 
L 156.367317 -306.139978 
L 155.868617 -306.124852 
L 155.369917 -306.128518 
L 154.871216 -306.154308 
L 154.372516 -306.205347 
L 153.873816 -306.284485 
L 153.375115 -306.394223 
L 152.876415 -306.536636 
L 152.377715 -306.713303 
L 151.879014 -306.925238 
L 151.380314 -307.172824 
L 150.881614 -307.455773 
L 150.382914 -307.773084 
L 149.884213 -308.123047 
L 149.385513 -308.503253 
L 148.886813 -308.910653 
L 148.388112 -309.341636 
L 147.889412 -309.792144 
L 147.390712 -310.257812 
L 146.892011 -310.734129 
L 146.393311 -311.216611 
L 145.894611 -311.700974 
L 145.39591 -312.183305 
L 144.89721 -312.660209 
L 144.39851 -313.128933 
L 143.899809 -313.587461 
L 143.401109 -314.034576 
L 142.902409 -314.469877 
L 142.403708 -314.893782 
L 141.905008 -315.307488 
L 141.406308 -315.712919 
L 140.907608 -316.112654 
L 140.408907 -316.50984 
L 139.910207 -316.908108 
L 139.411507 -317.311468 
L 138.912806 -317.724204 
L 138.414106 -318.150756 
L 137.915406 -318.595594 
L 137.416705 -319.063065 
L 136.918005 -319.557232 
L 136.419305 -320.081697 
L 135.920604 -320.639404 
L 135.421904 -321.232448 
L 134.923204 -321.861878 
L 134.424503 -322.527533 
L 133.925803 -323.227902 
L 133.427103 -323.960032 
L 132.928402 -324.719509 
L 132.429702 -325.500496 
L 131.931002 -326.295857 
L 131.432302 -327.097354 
L 130.933601 -327.895916 
L 130.434901 -328.68197 
L 129.936201 -329.445805 
L 129.4375 -330.177964 
L 128.9388 -330.869631 
L 128.4401 -331.512983 
L 127.941399 -332.101497 
L 127.442699 -332.630177 
L 126.943999 -333.095693 
L 126.445298 -333.496412 
L 125.946598 -333.832335 
L 125.447898 -334.104919 
L 124.949197 -334.316811 
L 124.450497 -334.471508 
L 123.951797 -334.57296 
L 123.453097 -334.625148 
L 122.954396 -334.631657 
L 122.455696 -334.595287 
L 121.956996 -334.517717 
L 121.458295 -334.399249 
L 120.959595 -334.238663 
L 120.460895 -334.033174 
L 119.962194 -333.77853 
L 119.463494 -333.469213 
L 118.964794 -333.098768 
L 118.466093 -332.660218 
L 117.967393 -332.146554 
L 117.468693 -331.551276 
L 116.969992 -330.86893 
L 116.471292 -330.095635 
L 115.972592 -329.229538 
L 115.473891 -328.271188 
L 114.975191 -327.223783 
L 114.476491 -326.093283 
L 113.977791 -324.888375 
L 113.47909 -323.620279 
L 112.98039 -322.302422 
L 112.48169 -320.949982 
L 111.982989 -319.57934 
L 111.484289 -318.207465 
L 110.985589 -316.851278 
L 110.486888 -315.527033 
L 109.988188 -314.249733 
L 109.489488 -313.03265 
L 108.990787 -311.886929 
L 108.492087 -310.821328 
L 107.993387 -309.842087 
L 107.494686 -308.95291 
L 106.995986 -308.155084 
L 106.497286 -307.447675 
L 105.998585 -306.82782 
L 105.499885 -306.291054 
L 105.001185 -305.831679 
L 104.502485 -305.443123 
L 104.003784 -305.118297 
L 103.505084 -304.8499 
L 103.006384 -304.630701 
L 102.507683 -304.453752 
L 102.008983 -304.31256 
L 101.510283 -304.201197 
L 101.011582 -304.114373 
L 100.512882 -304.047458 
L 100.014182 -303.996479 
L 99.515481 -303.958086 
L 99.016781 -303.929502 
L 98.518081 -303.908465 
z
" style="stroke: #f28360; stroke-width: 2"/>
    </defs>
    <g clip-path="url(#p2ab60cf729)">
     <use xlink:href="#mcf5c766503" x="0" y="360" style="fill: #f28360; fill-opacity: 0.25; stroke: #f28360; stroke-width: 2"/>
    </g>
   </g>
   <g id="matplotlib.axis_3">
    <g id="xtick_4">
     <g id="line2d_13">
      <g>
       <use xlink:href="#m7aebef21b3" x="112.389626" y="56.142857" style="stroke: #000000; stroke-width: 0.75"/>
      </g>
     </g>
    </g>
    <g id="xtick_5">
     <g id="line2d_14">
      <g>
       <use xlink:href="#m7aebef21b3" x="186.486516" y="56.142857" style="stroke: #000000; stroke-width: 0.75"/>
      </g>
     </g>
    </g>
    <g id="xtick_6">
     <g id="line2d_15">
      <g>
       <use xlink:href="#m7aebef21b3" x="260.583406" y="56.142857" style="stroke: #000000; stroke-width: 0.75"/>
      </g>
     </g>
    </g>
   </g>
   <g id="matplotlib.axis_4">
    <g id="ytick_5"/>
    <g id="ytick_6"/>
   </g>
   <g id="line2d_16">
    <path d="M 127.618602 17.736264 
L 183.516102 17.736264 
" clip-path="url(#p2ab60cf729)" style="fill: none; stroke: #000000; stroke-width: 2; stroke-linecap: round"/>
   </g>
   <g id="patch_6">
    <path d="M 73.95 56.142857 
L 297.54 56.142857 
" style="fill: none; stroke: #000000; stroke-width: 0.75; stroke-linejoin: miter; stroke-linecap: square"/>
   </g>
   <g id="text_13">
    <text style="font: 20px &quot;Suisse Int&apos;l&quot;, sans-serif; text-anchor: middle" x="155.567352" y="17.736264" transform="rotate(-0 155.567352 17.736264)">****</text>
   </g>
  </g>
  <g id="axes_3">
   <g id="patch_7">
    <path d="M 305.25 295.8 
L 343.8 295.8 
L 343.8 64.131429 
L 305.25 64.131429 
L 305.25 295.8 
z
" style="fill: none"/>
   </g>
   <g id="PolyCollection_3">
    <defs>
     <path id="m28ccd6e236" d="M 305.269606 -76.528138 
L 305.25 -76.528138 
L 305.25 -77.191083 
L 305.25 -77.854027 
L 305.25 -78.516971 
L 305.25 -79.179915 
L 305.25 -79.842859 
L 305.25 -80.505804 
L 305.25 -81.168748 
L 305.25 -81.831692 
L 305.25 -82.494636 
L 305.25 -83.15758 
L 305.25 -83.820525 
L 305.25 -84.483469 
L 305.25 -85.146413 
L 305.25 -85.809357 
L 305.25 -86.472301 
L 305.25 -87.135245 
L 305.25 -87.79819 
L 305.25 -88.461134 
L 305.25 -89.124078 
L 305.25 -89.787022 
L 305.25 -90.449966 
L 305.25 -91.112911 
L 305.25 -91.775855 
L 305.25 -92.438799 
L 305.25 -93.101743 
L 305.25 -93.764687 
L 305.25 -94.427632 
L 305.25 -95.090576 
L 305.25 -95.75352 
L 305.25 -96.416464 
L 305.25 -97.079408 
L 305.25 -97.742353 
L 305.25 -98.405297 
L 305.25 -99.068241 
L 305.25 -99.731185 
L 305.25 -100.394129 
L 305.25 -101.057074 
L 305.25 -101.720018 
L 305.25 -102.382962 
L 305.25 -103.045906 
L 305.25 -103.70885 
L 305.25 -104.371794 
L 305.25 -105.034739 
L 305.25 -105.697683 
L 305.25 -106.360627 
L 305.25 -107.023571 
L 305.25 -107.686515 
L 305.25 -108.34946 
L 305.25 -109.012404 
L 305.25 -109.675348 
L 305.25 -110.338292 
L 305.25 -111.001236 
L 305.25 -111.664181 
L 305.25 -112.327125 
L 305.25 -112.990069 
L 305.25 -113.653013 
L 305.25 -114.315957 
L 305.25 -114.978902 
L 305.25 -115.641846 
L 305.25 -116.30479 
L 305.25 -116.967734 
L 305.25 -117.630678 
L 305.25 -118.293622 
L 305.25 -118.956567 
L 305.25 -119.619511 
L 305.25 -120.282455 
L 305.25 -120.945399 
L 305.25 -121.608343 
L 305.25 -122.271288 
L 305.25 -122.934232 
L 305.25 -123.597176 
L 305.25 -124.26012 
L 305.25 -124.923064 
L 305.25 -125.586009 
L 305.25 -126.248953 
L 305.25 -126.911897 
L 305.25 -127.574841 
L 305.25 -128.237785 
L 305.25 -128.90073 
L 305.25 -129.563674 
L 305.25 -130.226618 
L 305.25 -130.889562 
L 305.25 -131.552506 
L 305.25 -132.215451 
L 305.25 -132.878395 
L 305.25 -133.541339 
L 305.25 -134.204283 
L 305.25 -134.867227 
L 305.25 -135.530171 
L 305.25 -136.193116 
L 305.25 -136.85606 
L 305.25 -137.519004 
L 305.25 -138.181948 
L 305.25 -138.844892 
L 305.25 -139.507837 
L 305.25 -140.170781 
L 305.25 -140.833725 
L 305.25 -141.496669 
L 305.25 -142.159613 
L 305.25 -142.822558 
L 305.25 -143.485502 
L 305.25 -144.148446 
L 305.25 -144.81139 
L 305.25 -145.474334 
L 305.25 -146.137279 
L 305.25 -146.800223 
L 305.25 -147.463167 
L 305.25 -148.126111 
L 305.25 -148.789055 
L 305.25 -149.451999 
L 305.25 -150.114944 
L 305.25 -150.777888 
L 305.25 -151.440832 
L 305.25 -152.103776 
L 305.25 -152.76672 
L 305.25 -153.429665 
L 305.25 -154.092609 
L 305.25 -154.755553 
L 305.25 -155.418497 
L 305.25 -156.081441 
L 305.25 -156.744386 
L 305.25 -157.40733 
L 305.25 -158.070274 
L 305.25 -158.733218 
L 305.25 -159.396162 
L 305.25 -160.059107 
L 305.25 -160.722051 
L 305.25 -161.384995 
L 305.25 -162.047939 
L 305.25 -162.710883 
L 305.25 -163.373828 
L 305.25 -164.036772 
L 305.25 -164.699716 
L 305.25 -165.36266 
L 305.25 -166.025604 
L 305.25 -166.688548 
L 305.25 -167.351493 
L 305.25 -168.014437 
L 305.25 -168.677381 
L 305.25 -169.340325 
L 305.25 -170.003269 
L 305.25 -170.666214 
L 305.25 -171.329158 
L 305.25 -171.992102 
L 305.25 -172.655046 
L 305.25 -173.31799 
L 305.25 -173.980935 
L 305.25 -174.643879 
L 305.25 -175.306823 
L 305.25 -175.969767 
L 305.25 -176.632711 
L 305.25 -177.295656 
L 305.25 -177.9586 
L 305.25 -178.621544 
L 305.25 -179.284488 
L 305.25 -179.947432 
L 305.25 -180.610376 
L 305.25 -181.273321 
L 305.25 -181.936265 
L 305.25 -182.599209 
L 305.25 -183.262153 
L 305.25 -183.925097 
L 305.25 -184.588042 
L 305.25 -185.250986 
L 305.25 -185.91393 
L 305.25 -186.576874 
L 305.25 -187.239818 
L 305.25 -187.902763 
L 305.25 -188.565707 
L 305.25 -189.228651 
L 305.25 -189.891595 
L 305.25 -190.554539 
L 305.25 -191.217484 
L 305.25 -191.880428 
L 305.25 -192.543372 
L 305.25 -193.206316 
L 305.25 -193.86926 
L 305.25 -194.532204 
L 305.25 -195.195149 
L 305.25 -195.858093 
L 305.25 -196.521037 
L 305.25 -197.183981 
L 305.25 -197.846925 
L 305.25 -198.50987 
L 305.25 -199.172814 
L 305.25 -199.835758 
L 305.25 -200.498702 
L 305.25 -201.161646 
L 305.25 -201.824591 
L 305.25 -202.487535 
L 305.25 -203.150479 
L 305.25 -203.813423 
L 305.25 -204.476367 
L 305.25 -205.139312 
L 305.25 -205.802256 
L 305.25 -206.4652 
L 305.25 -207.128144 
L 305.25 -207.791088 
L 305.25 -208.454033 
L 305.256925 -208.454033 
L 305.256925 -208.454033 
L 305.259094 -207.791088 
L 305.261842 -207.128144 
L 305.265288 -206.4652 
L 305.269572 -205.802256 
L 305.274844 -205.139312 
L 305.281269 -204.476367 
L 305.289024 -203.813423 
L 305.298291 -203.150479 
L 305.309256 -202.487535 
L 305.322099 -201.824591 
L 305.336987 -201.161646 
L 305.354068 -200.498702 
L 305.373459 -199.835758 
L 305.39524 -199.172814 
L 305.419438 -198.50987 
L 305.446023 -197.846925 
L 305.474903 -197.183981 
L 305.50591 -196.521037 
L 305.538804 -195.858093 
L 305.573274 -195.195149 
L 305.608937 -194.532204 
L 305.645348 -193.86926 
L 305.682014 -193.206316 
L 305.718407 -192.543372 
L 305.753984 -191.880428 
L 305.788206 -191.217484 
L 305.820564 -190.554539 
L 305.850598 -189.891595 
L 305.877921 -189.228651 
L 305.902236 -188.565707 
L 305.923352 -187.902763 
L 305.941197 -187.239818 
L 305.955816 -186.576874 
L 305.967376 -185.91393 
L 305.976155 -185.250986 
L 305.98253 -184.588042 
L 305.986957 -183.925097 
L 305.989948 -183.262153 
L 305.992048 -182.599209 
L 305.993812 -181.936265 
L 305.995776 -181.273321 
L 305.998438 -180.610376 
L 306.002248 -179.947432 
L 306.00759 -179.284488 
L 306.014784 -178.621544 
L 306.024091 -177.9586 
L 306.035724 -177.295656 
L 306.049864 -176.632711 
L 306.066689 -175.969767 
L 306.086394 -175.306823 
L 306.109223 -174.643879 
L 306.135496 -173.980935 
L 306.165628 -173.31799 
L 306.200153 -172.655046 
L 306.239731 -171.992102 
L 306.285148 -171.329158 
L 306.337311 -170.666214 
L 306.39723 -170.003269 
L 306.465984 -169.340325 
L 306.544692 -168.677381 
L 306.634461 -168.014437 
L 306.736343 -167.351493 
L 306.851279 -166.688548 
L 306.980049 -166.025604 
L 307.12322 -165.36266 
L 307.281105 -164.699716 
L 307.453726 -164.036772 
L 307.640786 -163.373828 
L 307.841659 -162.710883 
L 308.055385 -162.047939 
L 308.280683 -161.384995 
L 308.515974 -160.722051 
L 308.759423 -160.059107 
L 309.008984 -159.396162 
L 309.262457 -158.733218 
L 309.517556 -158.070274 
L 309.771973 -157.40733 
L 310.023456 -156.744386 
L 310.26987 -156.081441 
L 310.509271 -155.418497 
L 310.739956 -154.755553 
L 310.960519 -154.092609 
L 311.169888 -153.429665 
L 311.367351 -152.76672 
L 311.552571 -152.103776 
L 311.725588 -151.440832 
L 311.886804 -150.777888 
L 312.03697 -150.114944 
L 312.177146 -149.451999 
L 312.308671 -148.789055 
L 312.433119 -148.126111 
L 312.552254 -147.463167 
L 312.667991 -146.800223 
L 312.782353 -146.137279 
L 312.897435 -145.474334 
L 313.015375 -144.81139 
L 313.138323 -144.148446 
L 313.268423 -143.485502 
L 313.407788 -142.822558 
L 313.558483 -142.159613 
L 313.722504 -141.496669 
L 313.901753 -140.833725 
L 314.098014 -140.170781 
L 314.312911 -139.507837 
L 314.547873 -138.844892 
L 314.804086 -138.181948 
L 315.082442 -137.519004 
L 315.383493 -136.85606 
L 315.7074 -136.193116 
L 316.053899 -135.530171 
L 316.422275 -134.867227 
L 316.811351 -134.204283 
L 317.219502 -133.541339 
L 317.644692 -132.878395 
L 318.084537 -132.215451 
L 318.536384 -131.552506 
L 318.997418 -130.889562 
L 319.464787 -130.226618 
L 319.935729 -129.563674 
L 320.407704 -128.90073 
L 320.878525 -128.237785 
L 321.346463 -127.574841 
L 321.810336 -126.911897 
L 322.269559 -126.248953 
L 322.724168 -125.586009 
L 323.174788 -124.923064 
L 323.62257 -124.26012 
L 324.069081 -123.597176 
L 324.516159 -122.934232 
L 324.965741 -122.271288 
L 325.419657 -121.608343 
L 325.879427 -120.945399 
L 326.346049 -120.282455 
L 326.819794 -119.619511 
L 327.300033 -118.956567 
L 327.785085 -118.293622 
L 328.272117 -117.630678 
L 328.757082 -116.967734 
L 329.234719 -116.30479 
L 329.698602 -115.641846 
L 330.141249 -114.978902 
L 330.554282 -114.315957 
L 330.928636 -113.653013 
L 331.254811 -112.990069 
L 331.523153 -112.327125 
L 331.724154 -111.664181 
L 331.848775 -111.001236 
L 331.888746 -110.338292 
L 331.836872 -109.675348 
L 331.687297 -109.012404 
L 331.435742 -108.34946 
L 331.079685 -107.686515 
L 330.6185 -107.023571 
L 330.053521 -106.360627 
L 329.388056 -105.697683 
L 328.62733 -105.034739 
L 327.778368 -104.371794 
L 326.849823 -103.70885 
L 325.851751 -103.045906 
L 324.795352 -102.382962 
L 323.692671 -101.720018 
L 322.556289 -101.057074 
L 321.399002 -100.394129 
L 320.233505 -99.731185 
L 319.072096 -99.068241 
L 317.926401 -98.405297 
L 316.807138 -97.742353 
L 315.723919 -97.079408 
L 314.685098 -96.416464 
L 313.69767 -95.75352 
L 312.767214 -95.090576 
L 311.897883 -94.427632 
L 311.09244 -93.764687 
L 310.352326 -93.101743 
L 309.677764 -92.438799 
L 309.067886 -91.775855 
L 308.520874 -91.112911 
L 308.034119 -90.449966 
L 307.604375 -89.787022 
L 307.227921 -89.124078 
L 306.900704 -88.461134 
L 306.618478 -87.79819 
L 306.376929 -87.135245 
L 306.171782 -86.472301 
L 305.998883 -85.809357 
L 305.854277 -85.146413 
L 305.734259 -84.483469 
L 305.635408 -83.820525 
L 305.554613 -83.15758 
L 305.489079 -82.494636 
L 305.436331 -81.831692 
L 305.394199 -81.168748 
L 305.360803 -80.505804 
L 305.334536 -79.842859 
L 305.314034 -79.179915 
L 305.298156 -78.516971 
L 305.285953 -77.854027 
L 305.276648 -77.191083 
L 305.269606 -76.528138 
z
" style="stroke: #7a77ab; stroke-width: 2"/>
    </defs>
    <g clip-path="url(#p16f82e6782)">
     <use xlink:href="#m28ccd6e236" x="0" y="360" style="fill: #7a77ab; fill-opacity: 0.25; stroke: #7a77ab; stroke-width: 2"/>
    </g>
   </g>
   <g id="PolyCollection_4">
    <defs>
     <path id="m8f28eec2b8" d="M 305.277611 -72.780317 
L 305.25 -72.780317 
L 305.25 -73.858247 
L 305.25 -74.936176 
L 305.25 -76.014105 
L 305.25 -77.092035 
L 305.25 -78.169964 
L 305.25 -79.247893 
L 305.25 -80.325823 
L 305.25 -81.403752 
L 305.25 -82.481681 
L 305.25 -83.559611 
L 305.25 -84.63754 
L 305.25 -85.715469 
L 305.25 -86.793399 
L 305.25 -87.871328 
L 305.25 -88.949257 
L 305.25 -90.027187 
L 305.25 -91.105116 
L 305.25 -92.183045 
L 305.25 -93.260975 
L 305.25 -94.338904 
L 305.25 -95.416833 
L 305.25 -96.494763 
L 305.25 -97.572692 
L 305.25 -98.650621 
L 305.25 -99.728551 
L 305.25 -100.80648 
L 305.25 -101.884409 
L 305.25 -102.962339 
L 305.25 -104.040268 
L 305.25 -105.118197 
L 305.25 -106.196127 
L 305.25 -107.274056 
L 305.25 -108.351985 
L 305.25 -109.429915 
L 305.25 -110.507844 
L 305.25 -111.585773 
L 305.25 -112.663703 
L 305.25 -113.741632 
L 305.25 -114.819561 
L 305.25 -115.897491 
L 305.25 -116.97542 
L 305.25 -118.053349 
L 305.25 -119.131279 
L 305.25 -120.209208 
L 305.25 -121.287137 
L 305.25 -122.365067 
L 305.25 -123.442996 
L 305.25 -124.520925 
L 305.25 -125.598855 
L 305.25 -126.676784 
L 305.25 -127.754713 
L 305.25 -128.832643 
L 305.25 -129.910572 
L 305.25 -130.988501 
L 305.25 -132.066431 
L 305.25 -133.14436 
L 305.25 -134.222289 
L 305.25 -135.300219 
L 305.25 -136.378148 
L 305.25 -137.456077 
L 305.25 -138.534007 
L 305.25 -139.611936 
L 305.25 -140.689865 
L 305.25 -141.767795 
L 305.25 -142.845724 
L 305.25 -143.923653 
L 305.25 -145.001583 
L 305.25 -146.079512 
L 305.25 -147.157441 
L 305.25 -148.235371 
L 305.25 -149.3133 
L 305.25 -150.391229 
L 305.25 -151.469158 
L 305.25 -152.547088 
L 305.25 -153.625017 
L 305.25 -154.702946 
L 305.25 -155.780876 
L 305.25 -156.858805 
L 305.25 -157.936734 
L 305.25 -159.014664 
L 305.25 -160.092593 
L 305.25 -161.170522 
L 305.25 -162.248452 
L 305.25 -163.326381 
L 305.25 -164.40431 
L 305.25 -165.48224 
L 305.25 -166.560169 
L 305.25 -167.638098 
L 305.25 -168.716028 
L 305.25 -169.793957 
L 305.25 -170.871886 
L 305.25 -171.949816 
L 305.25 -173.027745 
L 305.25 -174.105674 
L 305.25 -175.183604 
L 305.25 -176.261533 
L 305.25 -177.339462 
L 305.25 -178.417392 
L 305.25 -179.495321 
L 305.25 -180.57325 
L 305.25 -181.65118 
L 305.25 -182.729109 
L 305.25 -183.807038 
L 305.25 -184.884968 
L 305.25 -185.962897 
L 305.25 -187.040826 
L 305.25 -188.118756 
L 305.25 -189.196685 
L 305.25 -190.274614 
L 305.25 -191.352544 
L 305.25 -192.430473 
L 305.25 -193.508402 
L 305.25 -194.586332 
L 305.25 -195.664261 
L 305.25 -196.74219 
L 305.25 -197.82012 
L 305.25 -198.898049 
L 305.25 -199.975978 
L 305.25 -201.053908 
L 305.25 -202.131837 
L 305.25 -203.209766 
L 305.25 -204.287696 
L 305.25 -205.365625 
L 305.25 -206.443554 
L 305.25 -207.521484 
L 305.25 -208.599413 
L 305.25 -209.677342 
L 305.25 -210.755272 
L 305.25 -211.833201 
L 305.25 -212.91113 
L 305.25 -213.98906 
L 305.25 -215.066989 
L 305.25 -216.144918 
L 305.25 -217.222848 
L 305.25 -218.300777 
L 305.25 -219.378706 
L 305.25 -220.456636 
L 305.25 -221.534565 
L 305.25 -222.612494 
L 305.25 -223.690424 
L 305.25 -224.768353 
L 305.25 -225.846282 
L 305.25 -226.924212 
L 305.25 -228.002141 
L 305.25 -229.08007 
L 305.25 -230.158 
L 305.25 -231.235929 
L 305.25 -232.313858 
L 305.25 -233.391788 
L 305.25 -234.469717 
L 305.25 -235.547646 
L 305.25 -236.625575 
L 305.25 -237.703505 
L 305.25 -238.781434 
L 305.25 -239.859363 
L 305.25 -240.937293 
L 305.25 -242.015222 
L 305.25 -243.093151 
L 305.25 -244.171081 
L 305.25 -245.24901 
L 305.25 -246.326939 
L 305.25 -247.404869 
L 305.25 -248.482798 
L 305.25 -249.560727 
L 305.25 -250.638657 
L 305.25 -251.716586 
L 305.25 -252.794515 
L 305.25 -253.872445 
L 305.25 -254.950374 
L 305.25 -256.028303 
L 305.25 -257.106233 
L 305.25 -258.184162 
L 305.25 -259.262091 
L 305.25 -260.340021 
L 305.25 -261.41795 
L 305.25 -262.495879 
L 305.25 -263.573809 
L 305.25 -264.651738 
L 305.25 -265.729667 
L 305.25 -266.807597 
L 305.25 -267.885526 
L 305.25 -268.963455 
L 305.25 -270.041385 
L 305.25 -271.119314 
L 305.25 -272.197243 
L 305.25 -273.275173 
L 305.25 -274.353102 
L 305.25 -275.431031 
L 305.25 -276.508961 
L 305.25 -277.58689 
L 305.25 -278.664819 
L 305.25 -279.742749 
L 305.25 -280.820678 
L 305.25 -281.898607 
L 305.25 -282.976537 
L 305.25 -284.054466 
L 305.25 -285.132395 
L 305.25 -286.210325 
L 305.25 -287.288254 
L 305.253145 -287.288254 
L 305.253145 -287.288254 
L 305.254329 -286.210325 
L 305.25589 -285.132395 
L 305.257921 -284.054466 
L 305.260528 -282.976537 
L 305.263831 -281.898607 
L 305.267962 -280.820678 
L 305.273057 -279.742749 
L 305.279257 -278.664819 
L 305.286699 -277.58689 
L 305.29551 -276.508961 
L 305.305796 -275.431031 
L 305.317638 -274.353102 
L 305.331077 -273.275173 
L 305.346112 -272.197243 
L 305.36269 -271.119314 
L 305.380705 -270.041385 
L 305.399999 -268.963455 
L 305.420361 -267.885526 
L 305.441543 -266.807597 
L 305.463264 -265.729667 
L 305.485234 -264.651738 
L 305.507165 -263.573809 
L 305.528798 -262.495879 
L 305.549919 -261.41795 
L 305.570373 -260.340021 
L 305.590084 -259.262091 
L 305.609056 -258.184162 
L 305.627375 -257.106233 
L 305.645204 -256.028303 
L 305.662765 -254.950374 
L 305.68032 -253.872445 
L 305.698145 -252.794515 
L 305.716502 -251.716586 
L 305.735611 -250.638657 
L 305.755628 -249.560727 
L 305.776624 -248.482798 
L 305.798573 -247.404869 
L 305.821356 -246.326939 
L 305.844762 -245.24901 
L 305.868513 -244.171081 
L 305.892284 -243.093151 
L 305.915734 -242.015222 
L 305.938544 -240.937293 
L 305.960443 -239.859363 
L 305.98124 -238.781434 
L 306.000845 -237.703505 
L 306.019277 -236.625575 
L 306.036672 -235.547646 
L 306.053266 -234.469717 
L 306.069381 -233.391788 
L 306.08539 -232.313858 
L 306.101689 -231.235929 
L 306.11865 -230.158 
L 306.136592 -229.08007 
L 306.155735 -228.002141 
L 306.176178 -226.924212 
L 306.197876 -225.846282 
L 306.220626 -224.768353 
L 306.244073 -223.690424 
L 306.267715 -222.612494 
L 306.290929 -221.534565 
L 306.313004 -220.456636 
L 306.333174 -219.378706 
L 306.350665 -218.300777 
L 306.364738 -217.222848 
L 306.374729 -216.144918 
L 306.380092 -215.066989 
L 306.380424 -213.98906 
L 306.375495 -212.91113 
L 306.365251 -211.833201 
L 306.349824 -210.755272 
L 306.329518 -209.677342 
L 306.304788 -208.599413 
L 306.276217 -207.521484 
L 306.244482 -206.443554 
L 306.210312 -205.365625 
L 306.174458 -204.287696 
L 306.137647 -203.209766 
L 306.100555 -202.131837 
L 306.063777 -201.053908 
L 306.027803 -199.975978 
L 305.993005 -198.898049 
L 305.959632 -197.82012 
L 305.927808 -196.74219 
L 305.897542 -195.664261 
L 305.868741 -194.586332 
L 305.84123 -193.508402 
L 305.814773 -192.430473 
L 305.789101 -191.352544 
L 305.763939 -190.274614 
L 305.739025 -189.196685 
L 305.71414 -188.118756 
L 305.689128 -187.040826 
L 305.663907 -185.962897 
L 305.638483 -184.884968 
L 305.612959 -183.807038 
L 305.587532 -182.729109 
L 305.562491 -181.65118 
L 305.538207 -180.57325 
L 305.515127 -179.495321 
L 305.493756 -178.417392 
L 305.474646 -177.339462 
L 305.458379 -176.261533 
L 305.445557 -175.183604 
L 305.436781 -174.105674 
L 305.432646 -173.027745 
L 305.433723 -171.949816 
L 305.440554 -170.871886 
L 305.453637 -169.793957 
L 305.473423 -168.716028 
L 305.500304 -167.638098 
L 305.534614 -166.560169 
L 305.57663 -165.48224 
L 305.626574 -164.40431 
L 305.684631 -163.326381 
L 305.750967 -162.248452 
L 305.825766 -161.170522 
L 305.909267 -160.092593 
L 306.001821 -159.014664 
L 306.103951 -157.936734 
L 306.216422 -156.858805 
L 306.34031 -155.780876 
L 306.477079 -154.702946 
L 306.628643 -153.625017 
L 306.797425 -152.547088 
L 306.986399 -151.469158 
L 307.199108 -150.391229 
L 307.439664 -149.3133 
L 307.71272 -148.235371 
L 308.023412 -147.157441 
L 308.377268 -146.079512 
L 308.780097 -145.001583 
L 309.237843 -143.923653 
L 309.75641 -142.845724 
L 310.34147 -141.767795 
L 310.998242 -140.689865 
L 311.731257 -139.611936 
L 312.544106 -138.534007 
L 313.439182 -137.456077 
L 314.417415 -136.378148 
L 315.478014 -135.300219 
L 316.618225 -134.222289 
L 317.833107 -133.14436 
L 319.115353 -132.066431 
L 320.455159 -130.988501 
L 321.840154 -129.910572 
L 323.255421 -128.832643 
L 324.683589 -127.754713 
L 326.105047 -126.676784 
L 327.498254 -125.598855 
L 328.840155 -124.520925 
L 330.106714 -123.442996 
L 331.273529 -122.365067 
L 332.316536 -121.287137 
L 333.212754 -120.209208 
L 333.941075 -119.131279 
L 334.483023 -118.053349 
L 334.823489 -116.97542 
L 334.951368 -115.897491 
L 334.860088 -114.819561 
L 334.547975 -113.741632 
L 334.018457 -112.663703 
L 333.280055 -111.585773 
L 332.346185 -110.507844 
L 331.234749 -109.429915 
L 329.967558 -108.351985 
L 328.569581 -107.274056 
L 327.068087 -106.196127 
L 325.491705 -105.118197 
L 323.86945 -104.040268 
L 322.229776 -102.962339 
L 320.599691 -101.884409 
L 319.003975 -100.80648 
L 317.464545 -99.728551 
L 315.999978 -98.650621 
L 314.625209 -97.572692 
L 313.351407 -96.494763 
L 312.186018 -95.416833 
L 311.132956 -94.338904 
L 310.192913 -93.260975 
L 309.363768 -92.183045 
L 308.641052 -91.105116 
L 308.018449 -90.027187 
L 307.488291 -88.949257 
L 307.042032 -87.871328 
L 306.670682 -86.793399 
L 306.365174 -85.715469 
L 306.116678 -84.63754 
L 305.916832 -83.559611 
L 305.75792 -82.481681 
L 305.632975 -81.403752 
L 305.535838 -80.325823 
L 305.461164 -79.247893 
L 305.404402 -78.169964 
L 305.361736 -77.092035 
L 305.330025 -76.014105 
L 305.306719 -74.936176 
L 305.289782 -73.858247 
L 305.277611 -72.780317 
z
" style="stroke: #f28360; stroke-width: 2"/>
    </defs>
    <g clip-path="url(#p16f82e6782)">
     <use xlink:href="#m8f28eec2b8" x="0" y="360" style="fill: #f28360; fill-opacity: 0.25; stroke: #f28360; stroke-width: 2"/>
    </g>
   </g>
   <g id="matplotlib.axis_5">
    <g id="xtick_7"/>
    <g id="xtick_8"/>
   </g>
   <g id="matplotlib.axis_6">
    <g id="ytick_7">
     <g id="line2d_17">
      <g>
       <use xlink:href="#mb917c34805" x="305.25" y="266.89099" style="stroke: #000000; stroke-width: 0.75"/>
      </g>
     </g>
    </g>
    <g id="ytick_8">
     <g id="line2d_18">
      <g>
       <use xlink:href="#mb917c34805" x="305.25" y="201.736575" style="stroke: #000000; stroke-width: 0.75"/>
      </g>
     </g>
    </g>
    <g id="ytick_9">
     <g id="line2d_19">
      <g>
       <use xlink:href="#mb917c34805" x="305.25" y="136.58216" style="stroke: #000000; stroke-width: 0.75"/>
      </g>
     </g>
    </g>
    <g id="ytick_10">
     <g id="line2d_20">
      <g>
       <use xlink:href="#mb917c34805" x="305.25" y="71.427745" style="stroke: #000000; stroke-width: 0.75"/>
      </g>
     </g>
    </g>
   </g>
   <g id="line2d_21">
    <path d="M 342.317308 272.190371 
L 342.317308 214.273229 
" clip-path="url(#p16f82e6782)" style="fill: none; stroke: #000000; stroke-width: 2; stroke-linecap: round"/>
   </g>
   <g id="patch_8">
    <path d="M 305.25 295.8 
L 305.25 64.131429 
" style="fill: none; stroke: #000000; stroke-width: 0.75; stroke-linejoin: miter; stroke-linecap: square"/>
   </g>
   <g id="text_14">
    <text style="font: 16px &quot;Suisse Int&apos;l&quot;, sans-serif" transform="translate(346.970673 234.40805) rotate(-270)">ns</text>
   </g>
  </g>
 </g>
 <defs>
  <clipPath id="pd3edfd16a7">
   <rect x="73.95" y="64.131429" width="223.59" height="231.668571"/>
  </clipPath>
  <clipPath id="p2ab60cf729">
   <rect x="73.95" y="16.2" width="223.59" height="39.942857"/>
  </clipPath>
  <clipPath id="p16f82e6782">
   <rect x="305.25" y="64.131429" width="38.55" height="231.668571"/>
  </clipPath>
 </defs>
</svg>
