<?xml version="1.0" encoding="utf-8" standalone="no"?>
<!DOCTYPE svg PUBLIC "-//W3C//DTD SVG 1.1//EN"
  "http://www.w3.org/Graphics/SVG/1.1/DTD/svg11.dtd">
<svg xmlns:xlink="http://www.w3.org/1999/xlink" width="864pt" height="144pt" viewBox="0 0 864 144" xmlns="http://www.w3.org/2000/svg" version="1.1">
 <metadata>
  <rdf:RDF xmlns:dc="http://purl.org/dc/elements/1.1/" xmlns:cc="http://creativecommons.org/ns#" xmlns:rdf="http://www.w3.org/1999/02/22-rdf-syntax-ns#">
   <cc:Work>
    <dc:type rdf:resource="http://purl.org/dc/dcmitype/StillImage"/>
    <dc:date>2024-07-22T14:56:25.866683</dc:date>
    <dc:format>image/svg+xml</dc:format>
    <dc:creator>
     <cc:Agent>
      <dc:title>Matplotlib v3.8.4, https://matplotlib.org/</dc:title>
     </cc:Agent>
    </dc:creator>
   </cc:Work>
  </rdf:RDF>
 </metadata>
 <defs>
  <style type="text/css">*{stroke-linejoin: round; stroke-linecap: butt}</style>
 </defs>
 <g id="figure_1">
  <g id="patch_1">
   <path d="M 0 144 
L 864 144 
L 864 0 
L 0 0 
L 0 144 
z
" style="fill: none"/>
  </g>
  <g id="axes_1">
   <g id="patch_2">
    <path d="M 108 128.16 
L 304.941176 128.16 
L 304.941176 17.28 
L 108 17.28 
L 108 128.16 
z
" style="fill: none"/>
   </g>
   <g id="patch_3">
    <path d="M 115.294118 128.16 
L 120.992647 128.16 
L 120.992647 80.648688 
L 115.294118 80.648688 
L 115.294118 128.16 
z
" clip-path="url(#p0d7f392392)" style="fill: none; stroke: #377bb7; stroke-width: 0.5; stroke-linejoin: miter"/>
   </g>
   <g id="patch_4">
    <path d="M 120.992647 128.16 
L 126.691176 128.16 
L 126.691176 90.829683 
L 120.992647 90.829683 
L 120.992647 128.16 
z
" clip-path="url(#p0d7f392392)" style="fill: none; stroke: #377bb7; stroke-width: 0.5; stroke-linejoin: miter"/>
   </g>
   <g id="patch_5">
    <path d="M 126.691176 128.16 
L 132.389706 128.16 
L 132.389706 94.223348 
L 126.691176 94.223348 
L 126.691176 128.16 
z
" clip-path="url(#p0d7f392392)" style="fill: none; stroke: #377bb7; stroke-width: 0.5; stroke-linejoin: miter"/>
   </g>
   <g id="patch_6">
    <path d="M 132.389706 128.16 
L 138.088235 128.16 
L 138.088235 107.798009 
L 132.389706 107.798009 
L 132.389706 128.16 
z
" clip-path="url(#p0d7f392392)" style="fill: none; stroke: #377bb7; stroke-width: 0.5; stroke-linejoin: miter"/>
   </g>
   <g id="patch_7">
    <path d="M 138.088235 128.16 
L 143.786765 128.16 
L 143.786765 117.979005 
L 138.088235 117.979005 
L 138.088235 128.16 
z
" clip-path="url(#p0d7f392392)" style="fill: none; stroke: #377bb7; stroke-width: 0.5; stroke-linejoin: miter"/>
   </g>
   <g id="patch_8">
    <path d="M 143.786765 128.16 
L 149.485294 128.16 
L 149.485294 87.436018 
L 143.786765 87.436018 
L 143.786765 128.16 
z
" clip-path="url(#p0d7f392392)" style="fill: none; stroke: #377bb7; stroke-width: 0.5; stroke-linejoin: miter"/>
   </g>
   <g id="patch_9">
    <path d="M 149.485294 128.16 
L 155.183824 128.16 
L 155.183824 94.223348 
L 149.485294 94.223348 
L 149.485294 128.16 
z
" clip-path="url(#p0d7f392392)" style="fill: none; stroke: #377bb7; stroke-width: 0.5; stroke-linejoin: miter"/>
   </g>
   <g id="patch_10">
    <path d="M 155.183824 128.16 
L 160.882353 128.16 
L 160.882353 80.648688 
L 155.183824 80.648688 
L 155.183824 128.16 
z
" clip-path="url(#p0d7f392392)" style="fill: none; stroke: #377bb7; stroke-width: 0.5; stroke-linejoin: miter"/>
   </g>
   <g id="patch_11">
    <path d="M 160.882353 128.16 
L 166.580882 128.16 
L 166.580882 117.979005 
L 160.882353 117.979005 
L 160.882353 128.16 
z
" clip-path="url(#p0d7f392392)" style="fill: none; stroke: #377bb7; stroke-width: 0.5; stroke-linejoin: miter"/>
   </g>
   <g id="patch_12">
    <path d="M 166.580882 128.16 
L 172.279412 128.16 
L 172.279412 111.191674 
L 166.580882 111.191674 
L 166.580882 128.16 
z
" clip-path="url(#p0d7f392392)" style="fill: none; stroke: #377bb7; stroke-width: 0.5; stroke-linejoin: miter"/>
   </g>
   <g id="patch_13">
    <path d="M 172.279412 128.16 
L 177.977941 128.16 
L 177.977941 117.979005 
L 172.279412 117.979005 
L 172.279412 128.16 
z
" clip-path="url(#p0d7f392392)" style="fill: none; stroke: #377bb7; stroke-width: 0.5; stroke-linejoin: miter"/>
   </g>
   <g id="patch_14">
    <path d="M 177.977941 128.16 
L 183.676471 128.16 
L 183.676471 107.798009 
L 177.977941 107.798009 
L 177.977941 128.16 
z
" clip-path="url(#p0d7f392392)" style="fill: none; stroke: #377bb7; stroke-width: 0.5; stroke-linejoin: miter"/>
   </g>
   <g id="patch_15">
    <path d="M 183.676471 128.16 
L 189.375 128.16 
L 189.375 117.979005 
L 183.676471 117.979005 
L 183.676471 128.16 
z
" clip-path="url(#p0d7f392392)" style="fill: none; stroke: #377bb7; stroke-width: 0.5; stroke-linejoin: miter"/>
   </g>
   <g id="patch_16">
    <path d="M 189.375 128.16 
L 195.073529 128.16 
L 195.073529 117.979005 
L 189.375 117.979005 
L 189.375 128.16 
z
" clip-path="url(#p0d7f392392)" style="fill: none; stroke: #377bb7; stroke-width: 0.5; stroke-linejoin: miter"/>
   </g>
   <g id="patch_17">
    <path d="M 195.073529 128.16 
L 200.772059 128.16 
L 200.772059 107.798009 
L 195.073529 107.798009 
L 195.073529 128.16 
z
" clip-path="url(#p0d7f392392)" style="fill: none; stroke: #377bb7; stroke-width: 0.5; stroke-linejoin: miter"/>
   </g>
   <g id="patch_18">
    <path d="M 200.772059 128.16 
L 206.470588 128.16 
L 206.470588 124.766335 
L 200.772059 124.766335 
L 200.772059 128.16 
z
" clip-path="url(#p0d7f392392)" style="fill: none; stroke: #377bb7; stroke-width: 0.5; stroke-linejoin: miter"/>
   </g>
   <g id="patch_19">
    <path d="M 206.470588 128.16 
L 212.169118 128.16 
L 212.169118 124.766335 
L 206.470588 124.766335 
L 206.470588 128.16 
z
" clip-path="url(#p0d7f392392)" style="fill: none; stroke: #377bb7; stroke-width: 0.5; stroke-linejoin: miter"/>
   </g>
   <g id="patch_20">
    <path d="M 212.169118 128.16 
L 217.867647 128.16 
L 217.867647 128.16 
L 212.169118 128.16 
L 212.169118 128.16 
z
" clip-path="url(#p0d7f392392)" style="fill: none; stroke: #377bb7; stroke-width: 0.5; stroke-linejoin: miter"/>
   </g>
   <g id="patch_21">
    <path d="M 217.867647 128.16 
L 223.566176 128.16 
L 223.566176 124.766335 
L 217.867647 124.766335 
L 217.867647 128.16 
z
" clip-path="url(#p0d7f392392)" style="fill: none; stroke: #377bb7; stroke-width: 0.5; stroke-linejoin: miter"/>
   </g>
   <g id="patch_22">
    <path d="M 223.566176 128.16 
L 229.264706 128.16 
L 229.264706 128.16 
L 223.566176 128.16 
L 223.566176 128.16 
z
" clip-path="url(#p0d7f392392)" style="fill: none; stroke: #377bb7; stroke-width: 0.5; stroke-linejoin: miter"/>
   </g>
   <g id="patch_23">
    <path d="M 229.264706 128.16 
L 234.963235 128.16 
L 234.963235 124.766335 
L 229.264706 124.766335 
L 229.264706 128.16 
z
" clip-path="url(#p0d7f392392)" style="fill: none; stroke: #377bb7; stroke-width: 0.5; stroke-linejoin: miter"/>
   </g>
   <g id="patch_24">
    <path d="M 234.963235 128.16 
L 240.661765 128.16 
L 240.661765 121.37267 
L 234.963235 121.37267 
L 234.963235 128.16 
z
" clip-path="url(#p0d7f392392)" style="fill: none; stroke: #377bb7; stroke-width: 0.5; stroke-linejoin: miter"/>
   </g>
   <g id="patch_25">
    <path d="M 240.661765 128.16 
L 246.360294 128.16 
L 246.360294 128.16 
L 240.661765 128.16 
L 240.661765 128.16 
z
" clip-path="url(#p0d7f392392)" style="fill: none; stroke: #377bb7; stroke-width: 0.5; stroke-linejoin: miter"/>
   </g>
   <g id="patch_26">
    <path d="M 246.360294 128.16 
L 252.058824 128.16 
L 252.058824 121.37267 
L 246.360294 121.37267 
L 246.360294 128.16 
z
" clip-path="url(#p0d7f392392)" style="fill: none; stroke: #377bb7; stroke-width: 0.5; stroke-linejoin: miter"/>
   </g>
   <g id="patch_27">
    <path d="M 252.058824 128.16 
L 257.757353 128.16 
L 257.757353 124.766335 
L 252.058824 124.766335 
L 252.058824 128.16 
z
" clip-path="url(#p0d7f392392)" style="fill: none; stroke: #377bb7; stroke-width: 0.5; stroke-linejoin: miter"/>
   </g>
   <g id="patch_28">
    <path d="M 257.757353 128.16 
L 263.455882 128.16 
L 263.455882 128.16 
L 257.757353 128.16 
L 257.757353 128.16 
z
" clip-path="url(#p0d7f392392)" style="fill: none; stroke: #377bb7; stroke-width: 0.5; stroke-linejoin: miter"/>
   </g>
   <g id="patch_29">
    <path d="M 263.455882 128.16 
L 269.154412 128.16 
L 269.154412 128.16 
L 263.455882 128.16 
L 263.455882 128.16 
z
" clip-path="url(#p0d7f392392)" style="fill: none; stroke: #377bb7; stroke-width: 0.5; stroke-linejoin: miter"/>
   </g>
   <g id="patch_30">
    <path d="M 269.154412 128.16 
L 274.852941 128.16 
L 274.852941 128.16 
L 269.154412 128.16 
L 269.154412 128.16 
z
" clip-path="url(#p0d7f392392)" style="fill: none; stroke: #377bb7; stroke-width: 0.5; stroke-linejoin: miter"/>
   </g>
   <g id="patch_31">
    <path d="M 274.852941 128.16 
L 280.551471 128.16 
L 280.551471 128.16 
L 274.852941 128.16 
L 274.852941 128.16 
z
" clip-path="url(#p0d7f392392)" style="fill: none; stroke: #377bb7; stroke-width: 0.5; stroke-linejoin: miter"/>
   </g>
   <g id="patch_32">
    <path d="M 280.551471 128.16 
L 286.25 128.16 
L 286.25 128.16 
L 280.551471 128.16 
L 280.551471 128.16 
z
" clip-path="url(#p0d7f392392)" style="fill: none; stroke: #377bb7; stroke-width: 0.5; stroke-linejoin: miter"/>
   </g>
   <g id="patch_33">
    <path d="M 286.25 128.16 
L 291.948529 128.16 
L 291.948529 128.16 
L 286.25 128.16 
L 286.25 128.16 
z
" clip-path="url(#p0d7f392392)" style="fill: none; stroke: #377bb7; stroke-width: 0.5; stroke-linejoin: miter"/>
   </g>
   <g id="patch_34">
    <path d="M 291.948529 128.16 
L 297.647059 128.16 
L 297.647059 124.766335 
L 291.948529 124.766335 
L 291.948529 128.16 
z
" clip-path="url(#p0d7f392392)" style="fill: none; stroke: #377bb7; stroke-width: 0.5; stroke-linejoin: miter"/>
   </g>
   <g id="patch_35">
    <path d="M 115.294118 128.16 
L 120.992647 128.16 
L 120.992647 112.627456 
L 115.294118 112.627456 
L 115.294118 128.16 
z
" clip-path="url(#p0d7f392392)" style="fill: none; stroke: #73b5e3; stroke-width: 0.5; stroke-linejoin: miter"/>
   </g>
   <g id="patch_36">
    <path d="M 120.992647 128.16 
L 126.691176 128.16 
L 126.691176 128.16 
L 120.992647 128.16 
L 120.992647 128.16 
z
" clip-path="url(#p0d7f392392)" style="fill: none; stroke: #73b5e3; stroke-width: 0.5; stroke-linejoin: miter"/>
   </g>
   <g id="patch_37">
    <path d="M 126.691176 128.16 
L 132.389706 128.16 
L 132.389706 66.029822 
L 126.691176 66.029822 
L 126.691176 128.16 
z
" clip-path="url(#p0d7f392392)" style="fill: none; stroke: #73b5e3; stroke-width: 0.5; stroke-linejoin: miter"/>
   </g>
   <g id="patch_38">
    <path d="M 132.389706 128.16 
L 138.088235 128.16 
L 138.088235 81.562367 
L 132.389706 81.562367 
L 132.389706 128.16 
z
" clip-path="url(#p0d7f392392)" style="fill: none; stroke: #73b5e3; stroke-width: 0.5; stroke-linejoin: miter"/>
   </g>
   <g id="patch_39">
    <path d="M 138.088235 128.16 
L 143.786765 128.16 
L 143.786765 34.964734 
L 138.088235 34.964734 
L 138.088235 128.16 
z
" clip-path="url(#p0d7f392392)" style="fill: none; stroke: #73b5e3; stroke-width: 0.5; stroke-linejoin: miter"/>
   </g>
   <g id="patch_40">
    <path d="M 143.786765 128.16 
L 149.485294 128.16 
L 149.485294 97.094911 
L 143.786765 97.094911 
L 143.786765 128.16 
z
" clip-path="url(#p0d7f392392)" style="fill: none; stroke: #73b5e3; stroke-width: 0.5; stroke-linejoin: miter"/>
   </g>
   <g id="patch_41">
    <path d="M 149.485294 128.16 
L 155.183824 128.16 
L 155.183824 112.627456 
L 149.485294 112.627456 
L 149.485294 128.16 
z
" clip-path="url(#p0d7f392392)" style="fill: none; stroke: #73b5e3; stroke-width: 0.5; stroke-linejoin: miter"/>
   </g>
   <g id="patch_42">
    <path d="M 155.183824 128.16 
L 160.882353 128.16 
L 160.882353 97.094911 
L 155.183824 97.094911 
L 155.183824 128.16 
z
" clip-path="url(#p0d7f392392)" style="fill: none; stroke: #73b5e3; stroke-width: 0.5; stroke-linejoin: miter"/>
   </g>
   <g id="patch_43">
    <path d="M 160.882353 128.16 
L 166.580882 128.16 
L 166.580882 81.562367 
L 160.882353 81.562367 
L 160.882353 128.16 
z
" clip-path="url(#p0d7f392392)" style="fill: none; stroke: #73b5e3; stroke-width: 0.5; stroke-linejoin: miter"/>
   </g>
   <g id="patch_44">
    <path d="M 166.580882 128.16 
L 172.279412 128.16 
L 172.279412 112.627456 
L 166.580882 112.627456 
L 166.580882 128.16 
z
" clip-path="url(#p0d7f392392)" style="fill: none; stroke: #73b5e3; stroke-width: 0.5; stroke-linejoin: miter"/>
   </g>
   <g id="patch_45">
    <path d="M 172.279412 128.16 
L 177.977941 128.16 
L 177.977941 128.16 
L 172.279412 128.16 
L 172.279412 128.16 
z
" clip-path="url(#p0d7f392392)" style="fill: none; stroke: #73b5e3; stroke-width: 0.5; stroke-linejoin: miter"/>
   </g>
   <g id="patch_46">
    <path d="M 177.977941 128.16 
L 183.676471 128.16 
L 183.676471 97.094911 
L 177.977941 97.094911 
L 177.977941 128.16 
z
" clip-path="url(#p0d7f392392)" style="fill: none; stroke: #73b5e3; stroke-width: 0.5; stroke-linejoin: miter"/>
   </g>
   <g id="patch_47">
    <path d="M 183.676471 128.16 
L 189.375 128.16 
L 189.375 128.16 
L 183.676471 128.16 
L 183.676471 128.16 
z
" clip-path="url(#p0d7f392392)" style="fill: none; stroke: #73b5e3; stroke-width: 0.5; stroke-linejoin: miter"/>
   </g>
   <g id="patch_48">
    <path d="M 189.375 128.16 
L 195.073529 128.16 
L 195.073529 128.16 
L 189.375 128.16 
L 189.375 128.16 
z
" clip-path="url(#p0d7f392392)" style="fill: none; stroke: #73b5e3; stroke-width: 0.5; stroke-linejoin: miter"/>
   </g>
   <g id="patch_49">
    <path d="M 195.073529 128.16 
L 200.772059 128.16 
L 200.772059 112.627456 
L 195.073529 112.627456 
L 195.073529 128.16 
z
" clip-path="url(#p0d7f392392)" style="fill: none; stroke: #73b5e3; stroke-width: 0.5; stroke-linejoin: miter"/>
   </g>
   <g id="patch_50">
    <path d="M 200.772059 128.16 
L 206.470588 128.16 
L 206.470588 128.16 
L 200.772059 128.16 
L 200.772059 128.16 
z
" clip-path="url(#p0d7f392392)" style="fill: none; stroke: #73b5e3; stroke-width: 0.5; stroke-linejoin: miter"/>
   </g>
   <g id="patch_51">
    <path d="M 206.470588 128.16 
L 212.169118 128.16 
L 212.169118 128.16 
L 206.470588 128.16 
L 206.470588 128.16 
z
" clip-path="url(#p0d7f392392)" style="fill: none; stroke: #73b5e3; stroke-width: 0.5; stroke-linejoin: miter"/>
   </g>
   <g id="patch_52">
    <path d="M 212.169118 128.16 
L 217.867647 128.16 
L 217.867647 128.16 
L 212.169118 128.16 
L 212.169118 128.16 
z
" clip-path="url(#p0d7f392392)" style="fill: none; stroke: #73b5e3; stroke-width: 0.5; stroke-linejoin: miter"/>
   </g>
   <g id="patch_53">
    <path d="M 217.867647 128.16 
L 223.566176 128.16 
L 223.566176 128.16 
L 217.867647 128.16 
L 217.867647 128.16 
z
" clip-path="url(#p0d7f392392)" style="fill: none; stroke: #73b5e3; stroke-width: 0.5; stroke-linejoin: miter"/>
   </g>
   <g id="patch_54">
    <path d="M 223.566176 128.16 
L 229.264706 128.16 
L 229.264706 128.16 
L 223.566176 128.16 
L 223.566176 128.16 
z
" clip-path="url(#p0d7f392392)" style="fill: none; stroke: #73b5e3; stroke-width: 0.5; stroke-linejoin: miter"/>
   </g>
   <g id="patch_55">
    <path d="M 229.264706 128.16 
L 234.963235 128.16 
L 234.963235 128.16 
L 229.264706 128.16 
L 229.264706 128.16 
z
" clip-path="url(#p0d7f392392)" style="fill: none; stroke: #73b5e3; stroke-width: 0.5; stroke-linejoin: miter"/>
   </g>
   <g id="patch_56">
    <path d="M 234.963235 128.16 
L 240.661765 128.16 
L 240.661765 128.16 
L 234.963235 128.16 
L 234.963235 128.16 
z
" clip-path="url(#p0d7f392392)" style="fill: none; stroke: #73b5e3; stroke-width: 0.5; stroke-linejoin: miter"/>
   </g>
   <g id="patch_57">
    <path d="M 240.661765 128.16 
L 246.360294 128.16 
L 246.360294 128.16 
L 240.661765 128.16 
L 240.661765 128.16 
z
" clip-path="url(#p0d7f392392)" style="fill: none; stroke: #73b5e3; stroke-width: 0.5; stroke-linejoin: miter"/>
   </g>
   <g id="patch_58">
    <path d="M 246.360294 128.16 
L 252.058824 128.16 
L 252.058824 128.16 
L 246.360294 128.16 
L 246.360294 128.16 
z
" clip-path="url(#p0d7f392392)" style="fill: none; stroke: #73b5e3; stroke-width: 0.5; stroke-linejoin: miter"/>
   </g>
   <g id="patch_59">
    <path d="M 252.058824 128.16 
L 257.757353 128.16 
L 257.757353 128.16 
L 252.058824 128.16 
L 252.058824 128.16 
z
" clip-path="url(#p0d7f392392)" style="fill: none; stroke: #73b5e3; stroke-width: 0.5; stroke-linejoin: miter"/>
   </g>
   <g id="patch_60">
    <path d="M 257.757353 128.16 
L 263.455882 128.16 
L 263.455882 128.16 
L 257.757353 128.16 
L 257.757353 128.16 
z
" clip-path="url(#p0d7f392392)" style="fill: none; stroke: #73b5e3; stroke-width: 0.5; stroke-linejoin: miter"/>
   </g>
   <g id="patch_61">
    <path d="M 263.455882 128.16 
L 269.154412 128.16 
L 269.154412 128.16 
L 263.455882 128.16 
L 263.455882 128.16 
z
" clip-path="url(#p0d7f392392)" style="fill: none; stroke: #73b5e3; stroke-width: 0.5; stroke-linejoin: miter"/>
   </g>
   <g id="patch_62">
    <path d="M 269.154412 128.16 
L 274.852941 128.16 
L 274.852941 128.16 
L 269.154412 128.16 
L 269.154412 128.16 
z
" clip-path="url(#p0d7f392392)" style="fill: none; stroke: #73b5e3; stroke-width: 0.5; stroke-linejoin: miter"/>
   </g>
   <g id="patch_63">
    <path d="M 274.852941 128.16 
L 280.551471 128.16 
L 280.551471 128.16 
L 274.852941 128.16 
L 274.852941 128.16 
z
" clip-path="url(#p0d7f392392)" style="fill: none; stroke: #73b5e3; stroke-width: 0.5; stroke-linejoin: miter"/>
   </g>
   <g id="patch_64">
    <path d="M 280.551471 128.16 
L 286.25 128.16 
L 286.25 128.16 
L 280.551471 128.16 
L 280.551471 128.16 
z
" clip-path="url(#p0d7f392392)" style="fill: none; stroke: #73b5e3; stroke-width: 0.5; stroke-linejoin: miter"/>
   </g>
   <g id="patch_65">
    <path d="M 286.25 128.16 
L 291.948529 128.16 
L 291.948529 128.16 
L 286.25 128.16 
L 286.25 128.16 
z
" clip-path="url(#p0d7f392392)" style="fill: none; stroke: #73b5e3; stroke-width: 0.5; stroke-linejoin: miter"/>
   </g>
   <g id="patch_66">
    <path d="M 291.948529 128.16 
L 297.647059 128.16 
L 297.647059 128.16 
L 291.948529 128.16 
L 291.948529 128.16 
z
" clip-path="url(#p0d7f392392)" style="fill: none; stroke: #73b5e3; stroke-width: 0.5; stroke-linejoin: miter"/>
   </g>
   <g id="matplotlib.axis_1">
    <g id="xtick_1">
     <g id="line2d_1">
      <defs>
       <path id="m3b07cac70f" d="M 0 0 
L 0 5 
" style="stroke: #000000; stroke-width: 0.75"/>
      </defs>
      <g>
       <use xlink:href="#m3b07cac70f" x="114.847144" y="128.16" style="stroke: #000000; stroke-width: 0.75"/>
      </g>
     </g>
     <g id="text_1">
      <text style="font: 15px &quot;Suisse Int&apos;l&quot;, sans-serif; text-anchor: middle" x="114.847144" y="149.035" transform="rotate(-0 114.847144 149.035)">0.0</text>
     </g>
    </g>
    <g id="xtick_2">
     <g id="line2d_2">
      <g>
       <use xlink:href="#m3b07cac70f" x="190.809957" y="128.16" style="stroke: #000000; stroke-width: 0.75"/>
      </g>
     </g>
     <g id="text_2">
      <text style="font: 15px &quot;Suisse Int&apos;l&quot;, sans-serif; text-anchor: middle" x="190.809957" y="149.035" transform="rotate(-0 190.809957 149.035)">0.2</text>
     </g>
    </g>
    <g id="xtick_3">
     <g id="line2d_3">
      <g>
       <use xlink:href="#m3b07cac70f" x="266.772769" y="128.16" style="stroke: #000000; stroke-width: 0.75"/>
      </g>
     </g>
     <g id="text_3">
      <text style="font: 15px &quot;Suisse Int&apos;l&quot;, sans-serif; text-anchor: middle" x="266.772769" y="149.035" transform="rotate(-0 266.772769 149.035)">0.4</text>
     </g>
    </g>
    <g id="text_4">
     <text style="font: 500 15px &quot;Suisse Int&apos;l&quot;, sans-serif; text-anchor: middle" x="206.470588" y="172.535" transform="rotate(-0 206.470588 172.535)">Confinement_ratio</text>
    </g>
   </g>
   <g id="matplotlib.axis_2">
    <g id="ytick_1">
     <g id="line2d_4">
      <defs>
       <path id="me411d3423b" d="M 0 0 
L -5 0 
" style="stroke: #000000; stroke-width: 0.75"/>
      </defs>
      <g>
       <use xlink:href="#me411d3423b" x="108" y="128.16" style="stroke: #000000; stroke-width: 0.75"/>
      </g>
     </g>
     <g id="text_5">
      <text style="font: 15px &quot;Suisse Int&apos;l&quot;, sans-serif; text-anchor: end" x="98" y="133.5975" transform="rotate(-0 98 133.5975)">0</text>
     </g>
    </g>
    <g id="ytick_2">
     <g id="line2d_5">
      <g>
       <use xlink:href="#me411d3423b" x="108" y="87.775385" style="stroke: #000000; stroke-width: 0.75"/>
      </g>
     </g>
     <g id="text_6">
      <text style="font: 15px &quot;Suisse Int&apos;l&quot;, sans-serif; text-anchor: end" x="98" y="93.212885" transform="rotate(-0 98 93.212885)">10</text>
     </g>
    </g>
    <g id="ytick_3">
     <g id="line2d_6">
      <g>
       <use xlink:href="#me411d3423b" x="108" y="47.390769" style="stroke: #000000; stroke-width: 0.75"/>
      </g>
     </g>
     <g id="text_7">
      <text style="font: 15px &quot;Suisse Int&apos;l&quot;, sans-serif; text-anchor: end" x="98" y="52.828269" transform="rotate(-0 98 52.828269)">20</text>
     </g>
    </g>
    <g id="text_8">
     <text style="font: 500 15px &quot;Suisse Int&apos;l&quot;, sans-serif; text-anchor: middle" x="66.610938" y="72.72" transform="rotate(-90 66.610938 72.72)">Percent</text>
    </g>
   </g>
   <g id="line2d_7">
    <path d="M 115.294118 109.968244 
L 118.043157 107.542897 
L 120.792196 105.410551 
L 123.541236 103.644241 
L 125.373928 102.683368 
L 128.122968 101.553529 
L 130.872007 100.749835 
L 133.621046 100.199909 
L 137.286432 99.739236 
L 140.951818 99.49314 
L 144.617204 99.452358 
L 147.366243 99.601275 
L 150.115282 99.954702 
L 152.864322 100.549913 
L 155.613361 101.40063 
L 158.3624 102.489346 
L 162.027786 104.225169 
L 173.023943 109.766394 
L 176.689329 111.296745 
L 181.271061 112.92833 
L 189.518179 115.503977 
L 195.932604 117.63721 
L 211.510494 123.081958 
L 215.175879 123.986995 
L 218.841265 124.627613 
L 222.506651 125.005172 
L 226.172037 125.157123 
L 231.670115 125.106447 
L 241.749926 124.928404 
L 246.331658 125.078605 
L 251.829737 125.512973 
L 260.076855 126.470191 
L 267.407626 127.245775 
L 272.905705 127.607687 
L 278.403784 127.756731 
L 285.734555 127.718323 
L 297.647059 127.575926 
L 297.647059 127.575926 
" clip-path="url(#p0d7f392392)" style="fill: none; stroke: #377bb7; stroke-width: 3; stroke-linecap: round"/>
   </g>
   <g id="line2d_8">
    <path d="M 115.294118 116.53637 
L 117.126811 113.97578 
L 118.959503 111.058228 
L 120.792196 107.805853 
L 123.541236 102.427178 
L 129.039314 91.267989 
L 130.872007 87.989283 
L 132.7047 85.199977 
L 134.537393 83.031903 
L 135.453739 82.210885 
L 136.370086 81.574944 
L 137.286432 81.127032 
L 138.202779 80.866517 
L 139.119125 80.789239 
L 140.035471 80.887685 
L 140.951818 81.151265 
L 141.868164 81.566702 
L 143.700857 82.789476 
L 145.53355 84.415309 
L 148.282589 87.286432 
L 152.864322 92.207129 
L 155.613361 94.862816 
L 159.278747 98.028408 
L 168.442211 105.666314 
L 173.94029 110.31522 
L 177.605675 113.097373 
L 180.354715 114.942165 
L 184.020101 117.089598 
L 187.685486 118.927739 
L 191.350872 120.512748 
L 195.932604 122.242984 
L 202.347029 124.42751 
L 206.928761 125.81363 
L 210.594147 126.712285 
L 214.259533 127.362679 
L 217.924919 127.771243 
L 222.506651 128.027515 
L 229.837422 128.144509 
L 258.244162 128.16 
L 297.647059 128.16 
L 297.647059 128.16 
" clip-path="url(#p0d7f392392)" style="fill: none; stroke: #73b5e3; stroke-width: 3; stroke-linecap: round"/>
   </g>
   <g id="line2d_9">
    <path d="M 121.729905 21.544615 
L 170.965199 21.544615 
" clip-path="url(#p0d7f392392)" style="fill: none; stroke: #000000; stroke-width: 2; stroke-linecap: round"/>
   </g>
   <g id="patch_67">
    <path d="M 108 128.16 
L 108 17.28 
" style="fill: none; stroke: #000000; stroke-width: 0.75; stroke-linejoin: miter; stroke-linecap: square"/>
   </g>
   <g id="patch_68">
    <path d="M 108 128.16 
L 304.941176 128.16 
" style="fill: none; stroke: #000000; stroke-width: 0.75; stroke-linejoin: miter; stroke-linecap: square"/>
   </g>
   <g id="text_9">
    <text style="font: 12px &quot;Suisse Int&apos;l&quot;, sans-serif; text-anchor: middle" x="146.347552" y="16.213846" transform="rotate(-0 146.347552 16.213846)">NS</text>
   </g>
  </g>
  <g id="axes_2">
   <g id="patch_69">
    <path d="M 344.329412 128.16 
L 541.270588 128.16 
L 541.270588 17.28 
L 344.329412 17.28 
L 344.329412 128.16 
z
" style="fill: none"/>
   </g>
   <g id="patch_70">
    <path d="M 351.623529 128.16 
L 357.322059 128.16 
L 357.322059 80.648688 
L 351.623529 80.648688 
L 351.623529 128.16 
z
" clip-path="url(#p19a3819fc6)" style="fill: none; stroke: #377bb7; stroke-width: 0.5; stroke-linejoin: miter"/>
   </g>
   <g id="patch_71">
    <path d="M 357.322059 128.16 
L 363.020588 128.16 
L 363.020588 114.585339 
L 357.322059 114.585339 
L 357.322059 128.16 
z
" clip-path="url(#p19a3819fc6)" style="fill: none; stroke: #377bb7; stroke-width: 0.5; stroke-linejoin: miter"/>
   </g>
   <g id="patch_72">
    <path d="M 363.020588 128.16 
L 368.719118 128.16 
L 368.719118 107.798009 
L 363.020588 107.798009 
L 363.020588 128.16 
z
" clip-path="url(#p19a3819fc6)" style="fill: none; stroke: #377bb7; stroke-width: 0.5; stroke-linejoin: miter"/>
   </g>
   <g id="patch_73">
    <path d="M 368.719118 128.16 
L 374.417647 128.16 
L 374.417647 114.585339 
L 368.719118 114.585339 
L 368.719118 128.16 
z
" clip-path="url(#p19a3819fc6)" style="fill: none; stroke: #377bb7; stroke-width: 0.5; stroke-linejoin: miter"/>
   </g>
   <g id="patch_74">
    <path d="M 374.417647 128.16 
L 380.116176 128.16 
L 380.116176 121.37267 
L 374.417647 121.37267 
L 374.417647 128.16 
z
" clip-path="url(#p19a3819fc6)" style="fill: none; stroke: #377bb7; stroke-width: 0.5; stroke-linejoin: miter"/>
   </g>
   <g id="patch_75">
    <path d="M 380.116176 128.16 
L 385.814706 128.16 
L 385.814706 87.436018 
L 380.116176 87.436018 
L 380.116176 128.16 
z
" clip-path="url(#p19a3819fc6)" style="fill: none; stroke: #377bb7; stroke-width: 0.5; stroke-linejoin: miter"/>
   </g>
   <g id="patch_76">
    <path d="M 385.814706 128.16 
L 391.513235 128.16 
L 391.513235 101.010679 
L 385.814706 101.010679 
L 385.814706 128.16 
z
" clip-path="url(#p19a3819fc6)" style="fill: none; stroke: #377bb7; stroke-width: 0.5; stroke-linejoin: miter"/>
   </g>
   <g id="patch_77">
    <path d="M 391.513235 128.16 
L 397.211765 128.16 
L 397.211765 67.074027 
L 391.513235 67.074027 
L 391.513235 128.16 
z
" clip-path="url(#p19a3819fc6)" style="fill: none; stroke: #377bb7; stroke-width: 0.5; stroke-linejoin: miter"/>
   </g>
   <g id="patch_78">
    <path d="M 397.211765 128.16 
L 402.910294 128.16 
L 402.910294 60.286697 
L 397.211765 60.286697 
L 397.211765 128.16 
z
" clip-path="url(#p19a3819fc6)" style="fill: none; stroke: #377bb7; stroke-width: 0.5; stroke-linejoin: miter"/>
   </g>
   <g id="patch_79">
    <path d="M 402.910294 128.16 
L 408.608824 128.16 
L 408.608824 94.223348 
L 402.910294 94.223348 
L 402.910294 128.16 
z
" clip-path="url(#p19a3819fc6)" style="fill: none; stroke: #377bb7; stroke-width: 0.5; stroke-linejoin: miter"/>
   </g>
   <g id="patch_80">
    <path d="M 408.608824 128.16 
L 414.307353 128.16 
L 414.307353 73.861357 
L 408.608824 73.861357 
L 408.608824 128.16 
z
" clip-path="url(#p19a3819fc6)" style="fill: none; stroke: #377bb7; stroke-width: 0.5; stroke-linejoin: miter"/>
   </g>
   <g id="patch_81">
    <path d="M 414.307353 128.16 
L 420.005882 128.16 
L 420.005882 87.436018 
L 414.307353 87.436018 
L 414.307353 128.16 
z
" clip-path="url(#p19a3819fc6)" style="fill: none; stroke: #377bb7; stroke-width: 0.5; stroke-linejoin: miter"/>
   </g>
   <g id="patch_82">
    <path d="M 420.005882 128.16 
L 425.704412 128.16 
L 425.704412 73.861357 
L 420.005882 73.861357 
L 420.005882 128.16 
z
" clip-path="url(#p19a3819fc6)" style="fill: none; stroke: #377bb7; stroke-width: 0.5; stroke-linejoin: miter"/>
   </g>
   <g id="patch_83">
    <path d="M 425.704412 128.16 
L 431.402941 128.16 
L 431.402941 87.436018 
L 425.704412 87.436018 
L 425.704412 128.16 
z
" clip-path="url(#p19a3819fc6)" style="fill: none; stroke: #377bb7; stroke-width: 0.5; stroke-linejoin: miter"/>
   </g>
   <g id="patch_84">
    <path d="M 431.402941 128.16 
L 437.101471 128.16 
L 437.101471 101.010679 
L 431.402941 101.010679 
L 431.402941 128.16 
z
" clip-path="url(#p19a3819fc6)" style="fill: none; stroke: #377bb7; stroke-width: 0.5; stroke-linejoin: miter"/>
   </g>
   <g id="patch_85">
    <path d="M 437.101471 128.16 
L 442.8 128.16 
L 442.8 80.648688 
L 437.101471 80.648688 
L 437.101471 128.16 
z
" clip-path="url(#p19a3819fc6)" style="fill: none; stroke: #377bb7; stroke-width: 0.5; stroke-linejoin: miter"/>
   </g>
   <g id="patch_86">
    <path d="M 442.8 128.16 
L 448.498529 128.16 
L 448.498529 87.436018 
L 442.8 87.436018 
L 442.8 128.16 
z
" clip-path="url(#p19a3819fc6)" style="fill: none; stroke: #377bb7; stroke-width: 0.5; stroke-linejoin: miter"/>
   </g>
   <g id="patch_87">
    <path d="M 448.498529 128.16 
L 454.197059 128.16 
L 454.197059 107.798009 
L 448.498529 107.798009 
L 448.498529 128.16 
z
" clip-path="url(#p19a3819fc6)" style="fill: none; stroke: #377bb7; stroke-width: 0.5; stroke-linejoin: miter"/>
   </g>
   <g id="patch_88">
    <path d="M 454.197059 128.16 
L 459.895588 128.16 
L 459.895588 121.37267 
L 454.197059 121.37267 
L 454.197059 128.16 
z
" clip-path="url(#p19a3819fc6)" style="fill: none; stroke: #377bb7; stroke-width: 0.5; stroke-linejoin: miter"/>
   </g>
   <g id="patch_89">
    <path d="M 459.895588 128.16 
L 465.594118 128.16 
L 465.594118 121.37267 
L 459.895588 121.37267 
L 459.895588 128.16 
z
" clip-path="url(#p19a3819fc6)" style="fill: none; stroke: #377bb7; stroke-width: 0.5; stroke-linejoin: miter"/>
   </g>
   <g id="patch_90">
    <path d="M 465.594118 128.16 
L 471.292647 128.16 
L 471.292647 94.223348 
L 465.594118 94.223348 
L 465.594118 128.16 
z
" clip-path="url(#p19a3819fc6)" style="fill: none; stroke: #377bb7; stroke-width: 0.5; stroke-linejoin: miter"/>
   </g>
   <g id="patch_91">
    <path d="M 471.292647 128.16 
L 476.991176 128.16 
L 476.991176 107.798009 
L 471.292647 107.798009 
L 471.292647 128.16 
z
" clip-path="url(#p19a3819fc6)" style="fill: none; stroke: #377bb7; stroke-width: 0.5; stroke-linejoin: miter"/>
   </g>
   <g id="patch_92">
    <path d="M 476.991176 128.16 
L 482.689706 128.16 
L 482.689706 121.37267 
L 476.991176 121.37267 
L 476.991176 128.16 
z
" clip-path="url(#p19a3819fc6)" style="fill: none; stroke: #377bb7; stroke-width: 0.5; stroke-linejoin: miter"/>
   </g>
   <g id="patch_93">
    <path d="M 482.689706 128.16 
L 488.388235 128.16 
L 488.388235 128.16 
L 482.689706 128.16 
L 482.689706 128.16 
z
" clip-path="url(#p19a3819fc6)" style="fill: none; stroke: #377bb7; stroke-width: 0.5; stroke-linejoin: miter"/>
   </g>
   <g id="patch_94">
    <path d="M 488.388235 128.16 
L 494.086765 128.16 
L 494.086765 101.010679 
L 488.388235 101.010679 
L 488.388235 128.16 
z
" clip-path="url(#p19a3819fc6)" style="fill: none; stroke: #377bb7; stroke-width: 0.5; stroke-linejoin: miter"/>
   </g>
   <g id="patch_95">
    <path d="M 494.086765 128.16 
L 499.785294 128.16 
L 499.785294 114.585339 
L 494.086765 114.585339 
L 494.086765 128.16 
z
" clip-path="url(#p19a3819fc6)" style="fill: none; stroke: #377bb7; stroke-width: 0.5; stroke-linejoin: miter"/>
   </g>
   <g id="patch_96">
    <path d="M 499.785294 128.16 
L 505.483824 128.16 
L 505.483824 121.37267 
L 499.785294 121.37267 
L 499.785294 128.16 
z
" clip-path="url(#p19a3819fc6)" style="fill: none; stroke: #377bb7; stroke-width: 0.5; stroke-linejoin: miter"/>
   </g>
   <g id="patch_97">
    <path d="M 505.483824 128.16 
L 511.182353 128.16 
L 511.182353 121.37267 
L 505.483824 121.37267 
L 505.483824 128.16 
z
" clip-path="url(#p19a3819fc6)" style="fill: none; stroke: #377bb7; stroke-width: 0.5; stroke-linejoin: miter"/>
   </g>
   <g id="patch_98">
    <path d="M 511.182353 128.16 
L 516.880882 128.16 
L 516.880882 121.37267 
L 511.182353 121.37267 
L 511.182353 128.16 
z
" clip-path="url(#p19a3819fc6)" style="fill: none; stroke: #377bb7; stroke-width: 0.5; stroke-linejoin: miter"/>
   </g>
   <g id="patch_99">
    <path d="M 516.880882 128.16 
L 522.579412 128.16 
L 522.579412 128.16 
L 516.880882 128.16 
L 516.880882 128.16 
z
" clip-path="url(#p19a3819fc6)" style="fill: none; stroke: #377bb7; stroke-width: 0.5; stroke-linejoin: miter"/>
   </g>
   <g id="patch_100">
    <path d="M 522.579412 128.16 
L 528.277941 128.16 
L 528.277941 121.37267 
L 522.579412 121.37267 
L 522.579412 128.16 
z
" clip-path="url(#p19a3819fc6)" style="fill: none; stroke: #377bb7; stroke-width: 0.5; stroke-linejoin: miter"/>
   </g>
   <g id="patch_101">
    <path d="M 528.277941 128.16 
L 533.976471 128.16 
L 533.976471 121.37267 
L 528.277941 121.37267 
L 528.277941 128.16 
z
" clip-path="url(#p19a3819fc6)" style="fill: none; stroke: #377bb7; stroke-width: 0.5; stroke-linejoin: miter"/>
   </g>
   <g id="patch_102">
    <path d="M 351.623529 128.16 
L 357.322059 128.16 
L 357.322059 128.16 
L 351.623529 128.16 
L 351.623529 128.16 
z
" clip-path="url(#p19a3819fc6)" style="fill: none; stroke: #73b5e3; stroke-width: 0.5; stroke-linejoin: miter"/>
   </g>
   <g id="patch_103">
    <path d="M 357.322059 128.16 
L 363.020588 128.16 
L 363.020588 128.16 
L 357.322059 128.16 
L 357.322059 128.16 
z
" clip-path="url(#p19a3819fc6)" style="fill: none; stroke: #73b5e3; stroke-width: 0.5; stroke-linejoin: miter"/>
   </g>
   <g id="patch_104">
    <path d="M 363.020588 128.16 
L 368.719118 128.16 
L 368.719118 66.029822 
L 363.020588 66.029822 
L 363.020588 128.16 
z
" clip-path="url(#p19a3819fc6)" style="fill: none; stroke: #73b5e3; stroke-width: 0.5; stroke-linejoin: miter"/>
   </g>
   <g id="patch_105">
    <path d="M 368.719118 128.16 
L 374.417647 128.16 
L 374.417647 66.029822 
L 368.719118 66.029822 
L 368.719118 128.16 
z
" clip-path="url(#p19a3819fc6)" style="fill: none; stroke: #73b5e3; stroke-width: 0.5; stroke-linejoin: miter"/>
   </g>
   <g id="patch_106">
    <path d="M 374.417647 128.16 
L 380.116176 128.16 
L 380.116176 97.094911 
L 374.417647 97.094911 
L 374.417647 128.16 
z
" clip-path="url(#p19a3819fc6)" style="fill: none; stroke: #73b5e3; stroke-width: 0.5; stroke-linejoin: miter"/>
   </g>
   <g id="patch_107">
    <path d="M 380.116176 128.16 
L 385.814706 128.16 
L 385.814706 128.16 
L 380.116176 128.16 
L 380.116176 128.16 
z
" clip-path="url(#p19a3819fc6)" style="fill: none; stroke: #73b5e3; stroke-width: 0.5; stroke-linejoin: miter"/>
   </g>
   <g id="patch_108">
    <path d="M 385.814706 128.16 
L 391.513235 128.16 
L 391.513235 128.16 
L 385.814706 128.16 
L 385.814706 128.16 
z
" clip-path="url(#p19a3819fc6)" style="fill: none; stroke: #73b5e3; stroke-width: 0.5; stroke-linejoin: miter"/>
   </g>
   <g id="patch_109">
    <path d="M 391.513235 128.16 
L 397.211765 128.16 
L 397.211765 97.094911 
L 391.513235 97.094911 
L 391.513235 128.16 
z
" clip-path="url(#p19a3819fc6)" style="fill: none; stroke: #73b5e3; stroke-width: 0.5; stroke-linejoin: miter"/>
   </g>
   <g id="patch_110">
    <path d="M 397.211765 128.16 
L 402.910294 128.16 
L 402.910294 128.16 
L 397.211765 128.16 
L 397.211765 128.16 
z
" clip-path="url(#p19a3819fc6)" style="fill: none; stroke: #73b5e3; stroke-width: 0.5; stroke-linejoin: miter"/>
   </g>
   <g id="patch_111">
    <path d="M 402.910294 128.16 
L 408.608824 128.16 
L 408.608824 128.16 
L 402.910294 128.16 
L 402.910294 128.16 
z
" clip-path="url(#p19a3819fc6)" style="fill: none; stroke: #73b5e3; stroke-width: 0.5; stroke-linejoin: miter"/>
   </g>
   <g id="patch_112">
    <path d="M 408.608824 128.16 
L 414.307353 128.16 
L 414.307353 66.029822 
L 408.608824 66.029822 
L 408.608824 128.16 
z
" clip-path="url(#p19a3819fc6)" style="fill: none; stroke: #73b5e3; stroke-width: 0.5; stroke-linejoin: miter"/>
   </g>
   <g id="patch_113">
    <path d="M 414.307353 128.16 
L 420.005882 128.16 
L 420.005882 97.094911 
L 414.307353 97.094911 
L 414.307353 128.16 
z
" clip-path="url(#p19a3819fc6)" style="fill: none; stroke: #73b5e3; stroke-width: 0.5; stroke-linejoin: miter"/>
   </g>
   <g id="patch_114">
    <path d="M 420.005882 128.16 
L 425.704412 128.16 
L 425.704412 128.16 
L 420.005882 128.16 
L 420.005882 128.16 
z
" clip-path="url(#p19a3819fc6)" style="fill: none; stroke: #73b5e3; stroke-width: 0.5; stroke-linejoin: miter"/>
   </g>
   <g id="patch_115">
    <path d="M 425.704412 128.16 
L 431.402941 128.16 
L 431.402941 128.16 
L 425.704412 128.16 
L 425.704412 128.16 
z
" clip-path="url(#p19a3819fc6)" style="fill: none; stroke: #73b5e3; stroke-width: 0.5; stroke-linejoin: miter"/>
   </g>
   <g id="patch_116">
    <path d="M 431.402941 128.16 
L 437.101471 128.16 
L 437.101471 66.029822 
L 431.402941 66.029822 
L 431.402941 128.16 
z
" clip-path="url(#p19a3819fc6)" style="fill: none; stroke: #73b5e3; stroke-width: 0.5; stroke-linejoin: miter"/>
   </g>
   <g id="patch_117">
    <path d="M 437.101471 128.16 
L 442.8 128.16 
L 442.8 34.964734 
L 437.101471 34.964734 
L 437.101471 128.16 
z
" clip-path="url(#p19a3819fc6)" style="fill: none; stroke: #73b5e3; stroke-width: 0.5; stroke-linejoin: miter"/>
   </g>
   <g id="patch_118">
    <path d="M 442.8 128.16 
L 448.498529 128.16 
L 448.498529 128.16 
L 442.8 128.16 
L 442.8 128.16 
z
" clip-path="url(#p19a3819fc6)" style="fill: none; stroke: #73b5e3; stroke-width: 0.5; stroke-linejoin: miter"/>
   </g>
   <g id="patch_119">
    <path d="M 448.498529 128.16 
L 454.197059 128.16 
L 454.197059 128.16 
L 448.498529 128.16 
L 448.498529 128.16 
z
" clip-path="url(#p19a3819fc6)" style="fill: none; stroke: #73b5e3; stroke-width: 0.5; stroke-linejoin: miter"/>
   </g>
   <g id="patch_120">
    <path d="M 454.197059 128.16 
L 459.895588 128.16 
L 459.895588 97.094911 
L 454.197059 97.094911 
L 454.197059 128.16 
z
" clip-path="url(#p19a3819fc6)" style="fill: none; stroke: #73b5e3; stroke-width: 0.5; stroke-linejoin: miter"/>
   </g>
   <g id="patch_121">
    <path d="M 459.895588 128.16 
L 465.594118 128.16 
L 465.594118 97.094911 
L 459.895588 97.094911 
L 459.895588 128.16 
z
" clip-path="url(#p19a3819fc6)" style="fill: none; stroke: #73b5e3; stroke-width: 0.5; stroke-linejoin: miter"/>
   </g>
   <g id="patch_122">
    <path d="M 465.594118 128.16 
L 471.292647 128.16 
L 471.292647 34.964734 
L 465.594118 34.964734 
L 465.594118 128.16 
z
" clip-path="url(#p19a3819fc6)" style="fill: none; stroke: #73b5e3; stroke-width: 0.5; stroke-linejoin: miter"/>
   </g>
   <g id="patch_123">
    <path d="M 471.292647 128.16 
L 476.991176 128.16 
L 476.991176 66.029822 
L 471.292647 66.029822 
L 471.292647 128.16 
z
" clip-path="url(#p19a3819fc6)" style="fill: none; stroke: #73b5e3; stroke-width: 0.5; stroke-linejoin: miter"/>
   </g>
   <g id="patch_124">
    <path d="M 476.991176 128.16 
L 482.689706 128.16 
L 482.689706 66.029822 
L 476.991176 66.029822 
L 476.991176 128.16 
z
" clip-path="url(#p19a3819fc6)" style="fill: none; stroke: #73b5e3; stroke-width: 0.5; stroke-linejoin: miter"/>
   </g>
   <g id="patch_125">
    <path d="M 482.689706 128.16 
L 488.388235 128.16 
L 488.388235 97.094911 
L 482.689706 97.094911 
L 482.689706 128.16 
z
" clip-path="url(#p19a3819fc6)" style="fill: none; stroke: #73b5e3; stroke-width: 0.5; stroke-linejoin: miter"/>
   </g>
   <g id="patch_126">
    <path d="M 488.388235 128.16 
L 494.086765 128.16 
L 494.086765 128.16 
L 488.388235 128.16 
L 488.388235 128.16 
z
" clip-path="url(#p19a3819fc6)" style="fill: none; stroke: #73b5e3; stroke-width: 0.5; stroke-linejoin: miter"/>
   </g>
   <g id="patch_127">
    <path d="M 494.086765 128.16 
L 499.785294 128.16 
L 499.785294 128.16 
L 494.086765 128.16 
L 494.086765 128.16 
z
" clip-path="url(#p19a3819fc6)" style="fill: none; stroke: #73b5e3; stroke-width: 0.5; stroke-linejoin: miter"/>
   </g>
   <g id="patch_128">
    <path d="M 499.785294 128.16 
L 505.483824 128.16 
L 505.483824 97.094911 
L 499.785294 97.094911 
L 499.785294 128.16 
z
" clip-path="url(#p19a3819fc6)" style="fill: none; stroke: #73b5e3; stroke-width: 0.5; stroke-linejoin: miter"/>
   </g>
   <g id="patch_129">
    <path d="M 505.483824 128.16 
L 511.182353 128.16 
L 511.182353 128.16 
L 505.483824 128.16 
L 505.483824 128.16 
z
" clip-path="url(#p19a3819fc6)" style="fill: none; stroke: #73b5e3; stroke-width: 0.5; stroke-linejoin: miter"/>
   </g>
   <g id="patch_130">
    <path d="M 511.182353 128.16 
L 516.880882 128.16 
L 516.880882 128.16 
L 511.182353 128.16 
L 511.182353 128.16 
z
" clip-path="url(#p19a3819fc6)" style="fill: none; stroke: #73b5e3; stroke-width: 0.5; stroke-linejoin: miter"/>
   </g>
   <g id="patch_131">
    <path d="M 516.880882 128.16 
L 522.579412 128.16 
L 522.579412 128.16 
L 516.880882 128.16 
L 516.880882 128.16 
z
" clip-path="url(#p19a3819fc6)" style="fill: none; stroke: #73b5e3; stroke-width: 0.5; stroke-linejoin: miter"/>
   </g>
   <g id="patch_132">
    <path d="M 522.579412 128.16 
L 528.277941 128.16 
L 528.277941 97.094911 
L 522.579412 97.094911 
L 522.579412 128.16 
z
" clip-path="url(#p19a3819fc6)" style="fill: none; stroke: #73b5e3; stroke-width: 0.5; stroke-linejoin: miter"/>
   </g>
   <g id="patch_133">
    <path d="M 528.277941 128.16 
L 533.976471 128.16 
L 533.976471 128.16 
L 528.277941 128.16 
L 528.277941 128.16 
z
" clip-path="url(#p19a3819fc6)" style="fill: none; stroke: #73b5e3; stroke-width: 0.5; stroke-linejoin: miter"/>
   </g>
   <g id="matplotlib.axis_3">
    <g id="xtick_4">
     <g id="line2d_10">
      <g>
       <use xlink:href="#m3b07cac70f" x="344.398007" y="128.16" style="stroke: #000000; stroke-width: 0.75"/>
      </g>
     </g>
     <g id="text_10">
      <text style="font: 15px &quot;Suisse Int&apos;l&quot;, sans-serif; text-anchor: middle" x="344.398007" y="149.035" transform="rotate(-0 344.398007 149.035)">0</text>
     </g>
    </g>
    <g id="xtick_5">
     <g id="line2d_11">
      <g>
       <use xlink:href="#m3b07cac70f" x="405.894729" y="128.16" style="stroke: #000000; stroke-width: 0.75"/>
      </g>
     </g>
     <g id="text_11">
      <text style="font: 15px &quot;Suisse Int&apos;l&quot;, sans-serif; text-anchor: middle" x="405.894729" y="149.035" transform="rotate(-0 405.894729 149.035)">25</text>
     </g>
    </g>
    <g id="xtick_6">
     <g id="line2d_12">
      <g>
       <use xlink:href="#m3b07cac70f" x="467.39145" y="128.16" style="stroke: #000000; stroke-width: 0.75"/>
      </g>
     </g>
     <g id="text_12">
      <text style="font: 15px &quot;Suisse Int&apos;l&quot;, sans-serif; text-anchor: middle" x="467.39145" y="149.035" transform="rotate(-0 467.39145 149.035)">50</text>
     </g>
    </g>
    <g id="xtick_7">
     <g id="line2d_13">
      <g>
       <use xlink:href="#m3b07cac70f" x="528.888172" y="128.16" style="stroke: #000000; stroke-width: 0.75"/>
      </g>
     </g>
     <g id="text_13">
      <text style="font: 15px &quot;Suisse Int&apos;l&quot;, sans-serif; text-anchor: middle" x="528.888172" y="149.035" transform="rotate(-0 528.888172 149.035)">75</text>
     </g>
    </g>
    <g id="text_14">
     <text style="font: 500 15px &quot;Suisse Int&apos;l&quot;, sans-serif; text-anchor: middle" x="442.8" y="172.535" transform="rotate(-0 442.8 172.535)">Mean_curvilinear_speed</text>
    </g>
   </g>
   <g id="matplotlib.axis_4">
    <g id="ytick_4">
     <g id="line2d_14">
      <g>
       <use xlink:href="#me411d3423b" x="344.329412" y="128.16" style="stroke: #000000; stroke-width: 0.75"/>
      </g>
     </g>
     <g id="text_15">
      <text style="font: 15px &quot;Suisse Int&apos;l&quot;, sans-serif; text-anchor: end" x="334.329412" y="133.5975" transform="rotate(-0 334.329412 133.5975)">0</text>
     </g>
    </g>
    <g id="ytick_5">
     <g id="line2d_15">
      <g>
       <use xlink:href="#me411d3423b" x="344.329412" y="87.775385" style="stroke: #000000; stroke-width: 0.75"/>
      </g>
     </g>
     <g id="text_16">
      <text style="font: 15px &quot;Suisse Int&apos;l&quot;, sans-serif; text-anchor: end" x="334.329412" y="93.212885" transform="rotate(-0 334.329412 93.212885)">5</text>
     </g>
    </g>
    <g id="ytick_6">
     <g id="line2d_16">
      <g>
       <use xlink:href="#me411d3423b" x="344.329412" y="47.390769" style="stroke: #000000; stroke-width: 0.75"/>
      </g>
     </g>
     <g id="text_17">
      <text style="font: 15px &quot;Suisse Int&apos;l&quot;, sans-serif; text-anchor: end" x="334.329412" y="52.828269" transform="rotate(-0 334.329412 52.828269)">10</text>
     </g>
    </g>
   </g>
   <g id="line2d_17">
    <path d="M 351.623529 115.233898 
L 358.954301 111.541677 
L 365.368726 108.30477 
L 369.034112 106.244842 
L 372.699497 103.912406 
L 376.364883 101.267924 
L 380.030269 98.346517 
L 391.026426 89.300382 
L 393.775466 87.384863 
L 396.524505 85.748576 
L 399.273544 84.434201 
L 402.022584 83.463379 
L 404.771623 82.837747 
L 407.520662 82.54225 
L 410.269701 82.549825 
L 413.018741 82.826561 
L 415.76778 83.336537 
L 418.516819 84.045794 
L 422.182205 85.251929 
L 425.847591 86.709671 
L 429.512977 88.387274 
L 434.094709 90.766398 
L 438.676441 93.428251 
L 444.17452 96.902416 
L 454.25433 103.338417 
L 458.836063 105.928611 
L 462.501448 107.750442 
L 466.166834 109.341318 
L 469.83222 110.720375 
L 474.413952 112.195246 
L 479.912031 113.685589 
L 486.326456 115.166507 
L 503.737038 119.027224 
L 519.314928 122.746846 
L 525.729353 123.971365 
L 533.060124 125.117607 
L 533.976471 125.246845 
L 533.976471 125.246845 
" clip-path="url(#p19a3819fc6)" style="fill: none; stroke: #377bb7; stroke-width: 3; stroke-linecap: round"/>
   </g>
   <g id="line2d_18">
    <path d="M 351.623529 116.425008 
L 358.037954 113.779593 
L 362.619687 112.105536 
L 366.285072 110.959472 
L 369.950458 110.010401 
L 373.615844 109.261239 
L 378.197576 108.57867 
L 383.695655 108.034942 
L 397.440851 106.877286 
L 402.022584 106.234968 
L 406.604316 105.375874 
L 411.186048 104.295419 
L 416.684127 102.740202 
L 423.098552 100.665269 
L 442.341827 94.230506 
L 446.923559 92.992653 
L 450.588945 92.182779 
L 454.25433 91.578241 
L 457.919716 91.221728 
L 460.668756 91.141707 
L 463.417795 91.239178 
L 466.166834 91.52615 
L 468.915873 92.010562 
L 471.664913 92.695379 
L 474.413952 93.577932 
L 477.162991 94.649581 
L 480.828377 96.346614 
L 484.493763 98.303987 
L 489.075495 101.020339 
L 507.402424 112.275902 
L 511.984156 114.663037 
L 516.565888 116.779829 
L 521.14762 118.629906 
L 525.729353 120.234791 
L 530.311085 121.623872 
L 533.976471 122.599525 
L 533.976471 122.599525 
" clip-path="url(#p19a3819fc6)" style="fill: none; stroke: #73b5e3; stroke-width: 3; stroke-linecap: round"/>
   </g>
   <g id="line2d_19">
    <path d="M 404.631868 21.544615 
L 453.867162 21.544615 
" clip-path="url(#p19a3819fc6)" style="fill: none; stroke: #000000; stroke-width: 2; stroke-linecap: round"/>
   </g>
   <g id="patch_134">
    <path d="M 344.329412 128.16 
L 344.329412 17.28 
" style="fill: none; stroke: #000000; stroke-width: 0.75; stroke-linejoin: miter; stroke-linecap: square"/>
   </g>
   <g id="patch_135">
    <path d="M 344.329412 128.16 
L 541.270588 128.16 
" style="fill: none; stroke: #000000; stroke-width: 0.75; stroke-linejoin: miter; stroke-linecap: square"/>
   </g>
   <g id="text_18">
    <text style="font: 20px &quot;Suisse Int&apos;l&quot;, sans-serif; text-anchor: middle" x="429.249515" y="16.213846" transform="rotate(-0 429.249515 16.213846)">*</text>
   </g>
  </g>
  <g id="axes_3">
   <g id="patch_136">
    <path d="M 580.658824 128.16 
L 777.6 128.16 
L 777.6 17.28 
L 580.658824 17.28 
L 580.658824 128.16 
z
" style="fill: none"/>
   </g>
   <g id="patch_137">
    <path d="M 596.023806 128.16 
L 601.47012 128.16 
L 601.47012 95.9001 
L 596.023806 95.9001 
L 596.023806 128.16 
z
" clip-path="url(#p7c723b4d67)" style="fill: none; stroke: #377bb7; stroke-width: 0.5; stroke-linejoin: miter"/>
   </g>
   <g id="patch_138">
    <path d="M 601.47012 128.16 
L 606.916435 128.16 
L 606.916435 34.964734 
L 601.47012 34.964734 
L 601.47012 128.16 
z
" clip-path="url(#p7c723b4d67)" style="fill: none; stroke: #377bb7; stroke-width: 0.5; stroke-linejoin: miter"/>
   </g>
   <g id="patch_139">
    <path d="M 606.916435 128.16 
L 612.36275 128.16 
L 612.36275 34.964734 
L 606.916435 34.964734 
L 606.916435 128.16 
z
" clip-path="url(#p7c723b4d67)" style="fill: none; stroke: #377bb7; stroke-width: 0.5; stroke-linejoin: miter"/>
   </g>
   <g id="patch_140">
    <path d="M 612.36275 128.16 
L 617.809065 128.16 
L 617.809065 49.302467 
L 612.36275 49.302467 
L 612.36275 128.16 
z
" clip-path="url(#p7c723b4d67)" style="fill: none; stroke: #377bb7; stroke-width: 0.5; stroke-linejoin: miter"/>
   </g>
   <g id="patch_141">
    <path d="M 617.809065 128.16 
L 623.25538 128.16 
L 623.25538 77.977934 
L 617.809065 77.977934 
L 617.809065 128.16 
z
" clip-path="url(#p7c723b4d67)" style="fill: none; stroke: #377bb7; stroke-width: 0.5; stroke-linejoin: miter"/>
   </g>
   <g id="patch_142">
    <path d="M 623.25538 128.16 
L 628.701695 128.16 
L 628.701695 99.484533 
L 623.25538 99.484533 
L 623.25538 128.16 
z
" clip-path="url(#p7c723b4d67)" style="fill: none; stroke: #377bb7; stroke-width: 0.5; stroke-linejoin: miter"/>
   </g>
   <g id="patch_143">
    <path d="M 628.701695 128.16 
L 634.14801 128.16 
L 634.14801 117.4067 
L 628.701695 117.4067 
L 628.701695 128.16 
z
" clip-path="url(#p7c723b4d67)" style="fill: none; stroke: #377bb7; stroke-width: 0.5; stroke-linejoin: miter"/>
   </g>
   <g id="patch_144">
    <path d="M 634.14801 128.16 
L 639.594325 128.16 
L 639.594325 120.991133 
L 634.14801 120.991133 
L 634.14801 128.16 
z
" clip-path="url(#p7c723b4d67)" style="fill: none; stroke: #377bb7; stroke-width: 0.5; stroke-linejoin: miter"/>
   </g>
   <g id="patch_145">
    <path d="M 639.594325 128.16 
L 645.04064 128.16 
L 645.04064 128.16 
L 639.594325 128.16 
L 639.594325 128.16 
z
" clip-path="url(#p7c723b4d67)" style="fill: none; stroke: #377bb7; stroke-width: 0.5; stroke-linejoin: miter"/>
   </g>
   <g id="patch_146">
    <path d="M 645.04064 128.16 
L 650.486955 128.16 
L 650.486955 120.991133 
L 645.04064 120.991133 
L 645.04064 128.16 
z
" clip-path="url(#p7c723b4d67)" style="fill: none; stroke: #377bb7; stroke-width: 0.5; stroke-linejoin: miter"/>
   </g>
   <g id="patch_147">
    <path d="M 650.486955 128.16 
L 655.933269 128.16 
L 655.933269 124.575567 
L 650.486955 124.575567 
L 650.486955 128.16 
z
" clip-path="url(#p7c723b4d67)" style="fill: none; stroke: #377bb7; stroke-width: 0.5; stroke-linejoin: miter"/>
   </g>
   <g id="patch_148">
    <path d="M 655.933269 128.16 
L 661.379584 128.16 
L 661.379584 128.16 
L 655.933269 128.16 
L 655.933269 128.16 
z
" clip-path="url(#p7c723b4d67)" style="fill: none; stroke: #377bb7; stroke-width: 0.5; stroke-linejoin: miter"/>
   </g>
   <g id="patch_149">
    <path d="M 661.379584 128.16 
L 666.825899 128.16 
L 666.825899 128.16 
L 661.379584 128.16 
L 661.379584 128.16 
z
" clip-path="url(#p7c723b4d67)" style="fill: none; stroke: #377bb7; stroke-width: 0.5; stroke-linejoin: miter"/>
   </g>
   <g id="patch_150">
    <path d="M 666.825899 128.16 
L 672.272214 128.16 
L 672.272214 128.16 
L 666.825899 128.16 
L 666.825899 128.16 
z
" clip-path="url(#p7c723b4d67)" style="fill: none; stroke: #377bb7; stroke-width: 0.5; stroke-linejoin: miter"/>
   </g>
   <g id="patch_151">
    <path d="M 672.272214 128.16 
L 677.718529 128.16 
L 677.718529 128.16 
L 672.272214 128.16 
L 672.272214 128.16 
z
" clip-path="url(#p7c723b4d67)" style="fill: none; stroke: #377bb7; stroke-width: 0.5; stroke-linejoin: miter"/>
   </g>
   <g id="patch_152">
    <path d="M 677.718529 128.16 
L 683.164844 128.16 
L 683.164844 128.16 
L 677.718529 128.16 
L 677.718529 128.16 
z
" clip-path="url(#p7c723b4d67)" style="fill: none; stroke: #377bb7; stroke-width: 0.5; stroke-linejoin: miter"/>
   </g>
   <g id="patch_153">
    <path d="M 683.164844 128.16 
L 688.611159 128.16 
L 688.611159 128.16 
L 683.164844 128.16 
L 683.164844 128.16 
z
" clip-path="url(#p7c723b4d67)" style="fill: none; stroke: #377bb7; stroke-width: 0.5; stroke-linejoin: miter"/>
   </g>
   <g id="patch_154">
    <path d="M 688.611159 128.16 
L 694.057474 128.16 
L 694.057474 128.16 
L 688.611159 128.16 
L 688.611159 128.16 
z
" clip-path="url(#p7c723b4d67)" style="fill: none; stroke: #377bb7; stroke-width: 0.5; stroke-linejoin: miter"/>
   </g>
   <g id="patch_155">
    <path d="M 694.057474 128.16 
L 699.503789 128.16 
L 699.503789 128.16 
L 694.057474 128.16 
L 694.057474 128.16 
z
" clip-path="url(#p7c723b4d67)" style="fill: none; stroke: #377bb7; stroke-width: 0.5; stroke-linejoin: miter"/>
   </g>
   <g id="patch_156">
    <path d="M 699.503789 128.16 
L 704.950104 128.16 
L 704.950104 128.16 
L 699.503789 128.16 
L 699.503789 128.16 
z
" clip-path="url(#p7c723b4d67)" style="fill: none; stroke: #377bb7; stroke-width: 0.5; stroke-linejoin: miter"/>
   </g>
   <g id="patch_157">
    <path d="M 704.950104 128.16 
L 710.396418 128.16 
L 710.396418 124.575567 
L 704.950104 124.575567 
L 704.950104 128.16 
z
" clip-path="url(#p7c723b4d67)" style="fill: none; stroke: #377bb7; stroke-width: 0.5; stroke-linejoin: miter"/>
   </g>
   <g id="patch_158">
    <path d="M 710.396418 128.16 
L 715.842733 128.16 
L 715.842733 128.16 
L 710.396418 128.16 
L 710.396418 128.16 
z
" clip-path="url(#p7c723b4d67)" style="fill: none; stroke: #377bb7; stroke-width: 0.5; stroke-linejoin: miter"/>
   </g>
   <g id="patch_159">
    <path d="M 715.842733 128.16 
L 721.289048 128.16 
L 721.289048 120.991133 
L 715.842733 120.991133 
L 715.842733 128.16 
z
" clip-path="url(#p7c723b4d67)" style="fill: none; stroke: #377bb7; stroke-width: 0.5; stroke-linejoin: miter"/>
   </g>
   <g id="patch_160">
    <path d="M 721.289048 128.16 
L 726.735363 128.16 
L 726.735363 124.575567 
L 721.289048 124.575567 
L 721.289048 128.16 
z
" clip-path="url(#p7c723b4d67)" style="fill: none; stroke: #377bb7; stroke-width: 0.5; stroke-linejoin: miter"/>
   </g>
   <g id="patch_161">
    <path d="M 726.735363 128.16 
L 732.181678 128.16 
L 732.181678 128.16 
L 726.735363 128.16 
L 726.735363 128.16 
z
" clip-path="url(#p7c723b4d67)" style="fill: none; stroke: #377bb7; stroke-width: 0.5; stroke-linejoin: miter"/>
   </g>
   <g id="patch_162">
    <path d="M 732.181678 128.16 
L 737.627993 128.16 
L 737.627993 128.16 
L 732.181678 128.16 
L 732.181678 128.16 
z
" clip-path="url(#p7c723b4d67)" style="fill: none; stroke: #377bb7; stroke-width: 0.5; stroke-linejoin: miter"/>
   </g>
   <g id="patch_163">
    <path d="M 737.627993 128.16 
L 743.074308 128.16 
L 743.074308 128.16 
L 737.627993 128.16 
L 737.627993 128.16 
z
" clip-path="url(#p7c723b4d67)" style="fill: none; stroke: #377bb7; stroke-width: 0.5; stroke-linejoin: miter"/>
   </g>
   <g id="patch_164">
    <path d="M 743.074308 128.16 
L 748.520623 128.16 
L 748.520623 124.575567 
L 743.074308 124.575567 
L 743.074308 128.16 
z
" clip-path="url(#p7c723b4d67)" style="fill: none; stroke: #377bb7; stroke-width: 0.5; stroke-linejoin: miter"/>
   </g>
   <g id="patch_165">
    <path d="M 748.520623 128.16 
L 753.966938 128.16 
L 753.966938 124.575567 
L 748.520623 124.575567 
L 748.520623 128.16 
z
" clip-path="url(#p7c723b4d67)" style="fill: none; stroke: #377bb7; stroke-width: 0.5; stroke-linejoin: miter"/>
   </g>
   <g id="patch_166">
    <path d="M 753.966938 128.16 
L 759.413253 128.16 
L 759.413253 128.16 
L 753.966938 128.16 
L 753.966938 128.16 
z
" clip-path="url(#p7c723b4d67)" style="fill: none; stroke: #377bb7; stroke-width: 0.5; stroke-linejoin: miter"/>
   </g>
   <g id="patch_167">
    <path d="M 759.413253 128.16 
L 764.859567 128.16 
L 764.859567 128.16 
L 759.413253 128.16 
L 759.413253 128.16 
z
" clip-path="url(#p7c723b4d67)" style="fill: none; stroke: #377bb7; stroke-width: 0.5; stroke-linejoin: miter"/>
   </g>
   <g id="patch_168">
    <path d="M 764.859567 128.16 
L 770.305882 128.16 
L 770.305882 128.16 
L 764.859567 128.16 
L 764.859567 128.16 
z
" clip-path="url(#p7c723b4d67)" style="fill: none; stroke: #377bb7; stroke-width: 0.5; stroke-linejoin: miter"/>
   </g>
   <g id="patch_169">
    <path d="M 596.023806 128.16 
L 601.47012 128.16 
L 601.47012 46.131622 
L 596.023806 46.131622 
L 596.023806 128.16 
z
" clip-path="url(#p7c723b4d67)" style="fill: none; stroke: #73b5e3; stroke-width: 0.5; stroke-linejoin: miter"/>
   </g>
   <g id="patch_170">
    <path d="M 601.47012 128.16 
L 606.916435 128.16 
L 606.916435 46.131622 
L 601.47012 46.131622 
L 601.47012 128.16 
z
" clip-path="url(#p7c723b4d67)" style="fill: none; stroke: #73b5e3; stroke-width: 0.5; stroke-linejoin: miter"/>
   </g>
   <g id="patch_171">
    <path d="M 606.916435 128.16 
L 612.36275 128.16 
L 612.36275 62.537298 
L 606.916435 62.537298 
L 606.916435 128.16 
z
" clip-path="url(#p7c723b4d67)" style="fill: none; stroke: #73b5e3; stroke-width: 0.5; stroke-linejoin: miter"/>
   </g>
   <g id="patch_172">
    <path d="M 612.36275 128.16 
L 617.809065 128.16 
L 617.809065 78.942973 
L 612.36275 78.942973 
L 612.36275 128.16 
z
" clip-path="url(#p7c723b4d67)" style="fill: none; stroke: #73b5e3; stroke-width: 0.5; stroke-linejoin: miter"/>
   </g>
   <g id="patch_173">
    <path d="M 617.809065 128.16 
L 623.25538 128.16 
L 623.25538 78.942973 
L 617.809065 78.942973 
L 617.809065 128.16 
z
" clip-path="url(#p7c723b4d67)" style="fill: none; stroke: #73b5e3; stroke-width: 0.5; stroke-linejoin: miter"/>
   </g>
   <g id="patch_174">
    <path d="M 623.25538 128.16 
L 628.701695 128.16 
L 628.701695 111.754324 
L 623.25538 111.754324 
L 623.25538 128.16 
z
" clip-path="url(#p7c723b4d67)" style="fill: none; stroke: #73b5e3; stroke-width: 0.5; stroke-linejoin: miter"/>
   </g>
   <g id="patch_175">
    <path d="M 628.701695 128.16 
L 634.14801 128.16 
L 634.14801 95.348649 
L 628.701695 95.348649 
L 628.701695 128.16 
z
" clip-path="url(#p7c723b4d67)" style="fill: none; stroke: #73b5e3; stroke-width: 0.5; stroke-linejoin: miter"/>
   </g>
   <g id="patch_176">
    <path d="M 634.14801 128.16 
L 639.594325 128.16 
L 639.594325 128.16 
L 634.14801 128.16 
L 634.14801 128.16 
z
" clip-path="url(#p7c723b4d67)" style="fill: none; stroke: #73b5e3; stroke-width: 0.5; stroke-linejoin: miter"/>
   </g>
   <g id="patch_177">
    <path d="M 639.594325 128.16 
L 645.04064 128.16 
L 645.04064 128.16 
L 639.594325 128.16 
L 639.594325 128.16 
z
" clip-path="url(#p7c723b4d67)" style="fill: none; stroke: #73b5e3; stroke-width: 0.5; stroke-linejoin: miter"/>
   </g>
   <g id="patch_178">
    <path d="M 645.04064 128.16 
L 650.486955 128.16 
L 650.486955 128.16 
L 645.04064 128.16 
L 645.04064 128.16 
z
" clip-path="url(#p7c723b4d67)" style="fill: none; stroke: #73b5e3; stroke-width: 0.5; stroke-linejoin: miter"/>
   </g>
   <g id="patch_179">
    <path d="M 650.486955 128.16 
L 655.933269 128.16 
L 655.933269 128.16 
L 650.486955 128.16 
L 650.486955 128.16 
z
" clip-path="url(#p7c723b4d67)" style="fill: none; stroke: #73b5e3; stroke-width: 0.5; stroke-linejoin: miter"/>
   </g>
   <g id="patch_180">
    <path d="M 655.933269 128.16 
L 661.379584 128.16 
L 661.379584 128.16 
L 655.933269 128.16 
L 655.933269 128.16 
z
" clip-path="url(#p7c723b4d67)" style="fill: none; stroke: #73b5e3; stroke-width: 0.5; stroke-linejoin: miter"/>
   </g>
   <g id="patch_181">
    <path d="M 661.379584 128.16 
L 666.825899 128.16 
L 666.825899 128.16 
L 661.379584 128.16 
L 661.379584 128.16 
z
" clip-path="url(#p7c723b4d67)" style="fill: none; stroke: #73b5e3; stroke-width: 0.5; stroke-linejoin: miter"/>
   </g>
   <g id="patch_182">
    <path d="M 666.825899 128.16 
L 672.272214 128.16 
L 672.272214 128.16 
L 666.825899 128.16 
L 666.825899 128.16 
z
" clip-path="url(#p7c723b4d67)" style="fill: none; stroke: #73b5e3; stroke-width: 0.5; stroke-linejoin: miter"/>
   </g>
   <g id="patch_183">
    <path d="M 672.272214 128.16 
L 677.718529 128.16 
L 677.718529 128.16 
L 672.272214 128.16 
L 672.272214 128.16 
z
" clip-path="url(#p7c723b4d67)" style="fill: none; stroke: #73b5e3; stroke-width: 0.5; stroke-linejoin: miter"/>
   </g>
   <g id="patch_184">
    <path d="M 677.718529 128.16 
L 683.164844 128.16 
L 683.164844 128.16 
L 677.718529 128.16 
L 677.718529 128.16 
z
" clip-path="url(#p7c723b4d67)" style="fill: none; stroke: #73b5e3; stroke-width: 0.5; stroke-linejoin: miter"/>
   </g>
   <g id="patch_185">
    <path d="M 683.164844 128.16 
L 688.611159 128.16 
L 688.611159 128.16 
L 683.164844 128.16 
L 683.164844 128.16 
z
" clip-path="url(#p7c723b4d67)" style="fill: none; stroke: #73b5e3; stroke-width: 0.5; stroke-linejoin: miter"/>
   </g>
   <g id="patch_186">
    <path d="M 688.611159 128.16 
L 694.057474 128.16 
L 694.057474 111.754324 
L 688.611159 111.754324 
L 688.611159 128.16 
z
" clip-path="url(#p7c723b4d67)" style="fill: none; stroke: #73b5e3; stroke-width: 0.5; stroke-linejoin: miter"/>
   </g>
   <g id="patch_187">
    <path d="M 694.057474 128.16 
L 699.503789 128.16 
L 699.503789 128.16 
L 694.057474 128.16 
L 694.057474 128.16 
z
" clip-path="url(#p7c723b4d67)" style="fill: none; stroke: #73b5e3; stroke-width: 0.5; stroke-linejoin: miter"/>
   </g>
   <g id="patch_188">
    <path d="M 699.503789 128.16 
L 704.950104 128.16 
L 704.950104 128.16 
L 699.503789 128.16 
L 699.503789 128.16 
z
" clip-path="url(#p7c723b4d67)" style="fill: none; stroke: #73b5e3; stroke-width: 0.5; stroke-linejoin: miter"/>
   </g>
   <g id="patch_189">
    <path d="M 704.950104 128.16 
L 710.396418 128.16 
L 710.396418 128.16 
L 704.950104 128.16 
L 704.950104 128.16 
z
" clip-path="url(#p7c723b4d67)" style="fill: none; stroke: #73b5e3; stroke-width: 0.5; stroke-linejoin: miter"/>
   </g>
   <g id="patch_190">
    <path d="M 710.396418 128.16 
L 715.842733 128.16 
L 715.842733 128.16 
L 710.396418 128.16 
L 710.396418 128.16 
z
" clip-path="url(#p7c723b4d67)" style="fill: none; stroke: #73b5e3; stroke-width: 0.5; stroke-linejoin: miter"/>
   </g>
   <g id="patch_191">
    <path d="M 715.842733 128.16 
L 721.289048 128.16 
L 721.289048 128.16 
L 715.842733 128.16 
L 715.842733 128.16 
z
" clip-path="url(#p7c723b4d67)" style="fill: none; stroke: #73b5e3; stroke-width: 0.5; stroke-linejoin: miter"/>
   </g>
   <g id="patch_192">
    <path d="M 721.289048 128.16 
L 726.735363 128.16 
L 726.735363 128.16 
L 721.289048 128.16 
L 721.289048 128.16 
z
" clip-path="url(#p7c723b4d67)" style="fill: none; stroke: #73b5e3; stroke-width: 0.5; stroke-linejoin: miter"/>
   </g>
   <g id="patch_193">
    <path d="M 726.735363 128.16 
L 732.181678 128.16 
L 732.181678 128.16 
L 726.735363 128.16 
L 726.735363 128.16 
z
" clip-path="url(#p7c723b4d67)" style="fill: none; stroke: #73b5e3; stroke-width: 0.5; stroke-linejoin: miter"/>
   </g>
   <g id="patch_194">
    <path d="M 732.181678 128.16 
L 737.627993 128.16 
L 737.627993 111.754324 
L 732.181678 111.754324 
L 732.181678 128.16 
z
" clip-path="url(#p7c723b4d67)" style="fill: none; stroke: #73b5e3; stroke-width: 0.5; stroke-linejoin: miter"/>
   </g>
   <g id="patch_195">
    <path d="M 737.627993 128.16 
L 743.074308 128.16 
L 743.074308 128.16 
L 737.627993 128.16 
L 737.627993 128.16 
z
" clip-path="url(#p7c723b4d67)" style="fill: none; stroke: #73b5e3; stroke-width: 0.5; stroke-linejoin: miter"/>
   </g>
   <g id="patch_196">
    <path d="M 743.074308 128.16 
L 748.520623 128.16 
L 748.520623 128.16 
L 743.074308 128.16 
L 743.074308 128.16 
z
" clip-path="url(#p7c723b4d67)" style="fill: none; stroke: #73b5e3; stroke-width: 0.5; stroke-linejoin: miter"/>
   </g>
   <g id="patch_197">
    <path d="M 748.520623 128.16 
L 753.966938 128.16 
L 753.966938 128.16 
L 748.520623 128.16 
L 748.520623 128.16 
z
" clip-path="url(#p7c723b4d67)" style="fill: none; stroke: #73b5e3; stroke-width: 0.5; stroke-linejoin: miter"/>
   </g>
   <g id="patch_198">
    <path d="M 753.966938 128.16 
L 759.413253 128.16 
L 759.413253 128.16 
L 753.966938 128.16 
L 753.966938 128.16 
z
" clip-path="url(#p7c723b4d67)" style="fill: none; stroke: #73b5e3; stroke-width: 0.5; stroke-linejoin: miter"/>
   </g>
   <g id="patch_199">
    <path d="M 759.413253 128.16 
L 764.859567 128.16 
L 764.859567 128.16 
L 759.413253 128.16 
L 759.413253 128.16 
z
" clip-path="url(#p7c723b4d67)" style="fill: none; stroke: #73b5e3; stroke-width: 0.5; stroke-linejoin: miter"/>
   </g>
   <g id="patch_200">
    <path d="M 764.859567 128.16 
L 770.305882 128.16 
L 770.305882 111.754324 
L 764.859567 111.754324 
L 764.859567 128.16 
z
" clip-path="url(#p7c723b4d67)" style="fill: none; stroke: #73b5e3; stroke-width: 0.5; stroke-linejoin: miter"/>
   </g>
   <g id="matplotlib.axis_5">
    <g id="xtick_8">
     <g id="line2d_20">
      <g>
       <use xlink:href="#m3b07cac70f" x="585.324569" y="128.16" style="stroke: #000000; stroke-width: 0.75"/>
      </g>
     </g>
     <g id="text_19">
      <text style="font: 15px &quot;Suisse Int&apos;l&quot;, sans-serif; text-anchor: middle" x="585.324569" y="149.035" transform="rotate(-0 585.324569 149.035)">0</text>
     </g>
    </g>
    <g id="xtick_9">
     <g id="line2d_21">
      <g>
       <use xlink:href="#m3b07cac70f" x="658.660268" y="128.16" style="stroke: #000000; stroke-width: 0.75"/>
      </g>
     </g>
     <g id="text_20">
      <text style="font: 15px &quot;Suisse Int&apos;l&quot;, sans-serif; text-anchor: middle" x="658.660268" y="149.035" transform="rotate(-0 658.660268 149.035)">10</text>
     </g>
    </g>
    <g id="xtick_10">
     <g id="line2d_22">
      <g>
       <use xlink:href="#m3b07cac70f" x="731.995968" y="128.16" style="stroke: #000000; stroke-width: 0.75"/>
      </g>
     </g>
     <g id="text_21">
      <text style="font: 15px &quot;Suisse Int&apos;l&quot;, sans-serif; text-anchor: middle" x="731.995968" y="149.035" transform="rotate(-0 731.995968 149.035)">20</text>
     </g>
    </g>
    <g id="text_22">
     <text style="font: 500 15px &quot;Suisse Int&apos;l&quot;, sans-serif; text-anchor: middle" x="679.129412" y="172.535" transform="rotate(-0 679.129412 172.535)">Mean_angular_speed</text>
    </g>
   </g>
   <g id="matplotlib.axis_6">
    <g id="ytick_7">
     <g id="line2d_23">
      <g>
       <use xlink:href="#me411d3423b" x="580.658824" y="128.16" style="stroke: #000000; stroke-width: 0.75"/>
      </g>
     </g>
     <g id="text_23">
      <text style="font: 15px &quot;Suisse Int&apos;l&quot;, sans-serif; text-anchor: end" x="570.658824" y="133.5975" transform="rotate(-0 570.658824 133.5975)">0</text>
     </g>
    </g>
    <g id="ytick_8">
     <g id="line2d_24">
      <g>
       <use xlink:href="#me411d3423b" x="580.658824" y="85.505244" style="stroke: #000000; stroke-width: 0.75"/>
      </g>
     </g>
     <g id="text_24">
      <text style="font: 15px &quot;Suisse Int&apos;l&quot;, sans-serif; text-anchor: end" x="570.658824" y="90.942744" transform="rotate(-0 570.658824 90.942744)">10</text>
     </g>
    </g>
    <g id="ytick_9">
     <g id="line2d_25">
      <g>
       <use xlink:href="#me411d3423b" x="580.658824" y="42.850487" style="stroke: #000000; stroke-width: 0.75"/>
      </g>
     </g>
     <g id="text_25">
      <text style="font: 15px &quot;Suisse Int&apos;l&quot;, sans-serif; text-anchor: end" x="570.658824" y="48.287987" transform="rotate(-0 570.658824 48.287987)">20</text>
     </g>
    </g>
   </g>
   <g id="line2d_26">
    <path d="M 596.023806 95.713105 
L 601.278542 79.896192 
L 603.03012 75.20589 
L 604.781699 71.165486 
L 606.533278 67.961023 
L 607.409067 66.719423 
L 608.284856 65.737127 
L 609.160646 65.023891 
L 610.036435 64.585745 
L 610.912224 64.424927 
L 611.788013 64.53991 
L 612.663803 64.925506 
L 613.539592 65.573065 
L 614.415381 66.470723 
L 615.291171 67.603733 
L 617.042749 70.504637 
L 618.794328 74.114924 
L 620.545907 78.253929 
L 624.049064 87.377521 
L 627.552221 96.515822 
L 630.179589 102.759386 
L 631.931168 106.47731 
L 633.682747 109.790027 
L 635.434325 112.683538 
L 637.185904 115.164901 
L 638.937483 117.25779 
L 640.689061 118.997979 
L 642.44064 120.428997 
L 644.192219 121.598143 
L 645.943797 122.552951 
L 648.571165 123.679984 
L 651.198533 124.552774 
L 654.701691 125.476888 
L 659.080637 126.400805 
L 663.459584 127.117822 
L 667.838531 127.618093 
L 672.217477 127.913401 
L 678.348003 128.072833 
L 685.354317 128.022593 
L 692.360632 127.744697 
L 698.491157 127.28765 
L 716.882733 125.691618 
L 721.26168 125.718624 
L 726.516416 126.03757 
L 734.39852 126.567745 
L 739.653256 126.652927 
L 750.162728 126.685609 
L 755.417464 126.986493 
L 769.430093 127.948003 
L 770.305882 127.979835 
L 770.305882 127.979835 
" clip-path="url(#p7c723b4d67)" style="fill: none; stroke: #377bb7; stroke-width: 3; stroke-linecap: round"/>
   </g>
   <g id="line2d_27">
    <path d="M 596.023806 99.83253 
L 598.651174 97.981404 
L 601.278542 96.407776 
L 603.90591 95.163574 
L 605.657488 94.538133 
L 607.409067 94.08707 
L 609.160646 93.81688 
L 610.912224 93.731156 
L 612.663803 93.830512 
L 614.415381 94.112588 
L 616.16696 94.572132 
L 617.918539 95.201155 
L 620.545907 96.438871 
L 623.173275 97.98926 
L 625.800643 99.799144 
L 629.3038 102.513633 
L 634.558536 106.934518 
L 640.689061 112.071596 
L 644.192219 114.777623 
L 647.695376 117.217072 
L 651.198533 119.3427 
L 653.825901 120.717243 
L 656.453269 121.90227 
L 659.956427 123.197838 
L 663.459584 124.193131 
L 666.962741 124.92489 
L 670.465899 125.435748 
L 674.844845 125.831261 
L 680.099581 126.057418 
L 687.981685 126.129119 
L 723.013258 125.973658 
L 749.286938 125.855755 
L 764.175357 125.99789 
L 770.305882 126.146464 
L 770.305882 126.146464 
" clip-path="url(#p7c723b4d67)" style="fill: none; stroke: #73b5e3; stroke-width: 3; stroke-linecap: round"/>
   </g>
   <g id="line2d_28">
    <path d="M 587.952941 21.544615 
L 635.009102 21.544615 
" clip-path="url(#p7c723b4d67)" style="fill: none; stroke: #000000; stroke-width: 2; stroke-linecap: round"/>
   </g>
   <g id="patch_201">
    <path d="M 580.658824 128.16 
L 580.658824 17.28 
" style="fill: none; stroke: #000000; stroke-width: 0.75; stroke-linejoin: miter; stroke-linecap: square"/>
   </g>
   <g id="patch_202">
    <path d="M 580.658824 128.16 
L 777.6 128.16 
" style="fill: none; stroke: #000000; stroke-width: 0.75; stroke-linejoin: miter; stroke-linecap: square"/>
   </g>
   <g id="text_26">
    <text style="font: 12px &quot;Suisse Int&apos;l&quot;, sans-serif; text-anchor: middle" x="611.481022" y="16.213846" transform="rotate(-0 611.481022 16.213846)">NS</text>
   </g>
   <g id="legend_1">
    <g id="text_27">
     <text style="font: 600 16px &quot;Suisse Int&apos;l&quot;, sans-serif; text-anchor: start" x="707.405735" y="28.88" transform="rotate(-0 707.405735 28.88)">Time_in_water</text>
    </g>
    <g id="line2d_29">
     <path d="M 707.405735 39.18 
L 743.030735 39.18 
" style="fill: none; stroke: #bab0a8; stroke-width: 1.5; stroke-linecap: round"/>
    </g>
    <g id="patch_203">
     <path d="M 707.405735 62.055 
L 722.405735 62.055 
L 722.405735 46.68 
L 707.405735 46.68 
L 707.405735 62.055 
z
" style="fill: none"/>
    </g>
    <g id="text_28">
     <text style="font: 15px &quot;Suisse Int&apos;l&quot;, sans-serif; text-anchor: start" x="728.405735" y="59.43" transform="rotate(-0 728.405735 59.43)">4</text>
    </g>
    <g id="patch_204">
     <path d="M 707.405735 84.93 
L 722.405735 84.93 
L 722.405735 69.555 
L 707.405735 69.555 
L 707.405735 84.93 
z
" style="fill: none"/>
    </g>
    <g id="text_29">
     <text style="font: 15px &quot;Suisse Int&apos;l&quot;, sans-serif; text-anchor: start" x="728.405735" y="82.305" transform="rotate(-0 728.405735 82.305)">21</text>
    </g>
   </g>
  </g>
 </g>
 <defs>
  <clipPath id="p0d7f392392">
   <rect x="108" y="17.28" width="196.941176" height="110.88"/>
  </clipPath>
  <clipPath id="p19a3819fc6">
   <rect x="344.329412" y="17.28" width="196.941176" height="110.88"/>
  </clipPath>
  <clipPath id="p7c723b4d67">
   <rect x="580.658824" y="17.28" width="196.941176" height="110.88"/>
  </clipPath>
 </defs>
</svg>
