<?xml version="1.0" encoding="utf-8" standalone="no"?>
<!DOCTYPE svg PUBLIC "-//W3C//DTD SVG 1.1//EN"
  "http://www.w3.org/Graphics/SVG/1.1/DTD/svg11.dtd">
<svg xmlns:xlink="http://www.w3.org/1999/xlink" width="953.661034pt" height="378.799603pt" viewBox="0 0 953.661034 378.799603" xmlns="http://www.w3.org/2000/svg" version="1.1">
 <metadata>
  <rdf:RDF xmlns:dc="http://purl.org/dc/elements/1.1/" xmlns:cc="http://creativecommons.org/ns#" xmlns:rdf="http://www.w3.org/1999/02/22-rdf-syntax-ns#">
   <cc:Work>
    <dc:type rdf:resource="http://purl.org/dc/dcmitype/StillImage"/>
    <dc:date>2024-08-02T12:16:22.688811</dc:date>
    <dc:format>image/svg+xml</dc:format>
    <dc:creator>
     <cc:Agent>
      <dc:title>Matplotlib v3.8.4, https://matplotlib.org/</dc:title>
     </cc:Agent>
    </dc:creator>
   </cc:Work>
  </rdf:RDF>
 </metadata>
 <defs>
  <style type="text/css">*{stroke-linejoin: round; stroke-linecap: butt}</style>
 </defs>
 <g id="figure_1">
  <g id="patch_1">
   <path d="M 0 378.799603 
L 953.661034 378.799603 
L 953.661034 0 
L 0 0 
L 0 378.799603 
z
" style="fill: none"/>
  </g>
  <g id="axes_1">
   <g id="patch_2">
    <path d="M 81.598281 311.799603 
L 301.451499 311.799603 
L 301.451499 87.33837 
L 81.598281 87.33837 
L 81.598281 311.799603 
z
" style="fill: none"/>
   </g>
   <g id="PolyCollection_1">
    <defs>
     <path id="md14ff6a010" d="M 180.215568 -80.201543 
L 179.177619 -80.201543 
L 178.872095 -81.083878 
L 178.496634 -81.966212 
L 178.040512 -82.848547 
L 177.492325 -83.730881 
L 176.83999 -84.613216 
L 176.070693 -85.49555 
L 175.170782 -86.377885 
L 174.125628 -87.26022 
L 172.91947 -88.142554 
L 171.535305 -89.024889 
L 169.954884 -89.907223 
L 168.15888 -90.789558 
L 166.127317 -91.671892 
L 163.840307 -92.554227 
L 161.279158 -93.436562 
L 158.427819 -94.318896 
L 155.274658 -95.201231 
L 151.814448 -96.083565 
L 148.050434 -96.9659 
L 143.996299 -97.848234 
L 139.677817 -98.730569 
L 135.133998 -99.612904 
L 130.417521 -100.495238 
L 125.594324 -101.377573 
L 120.74225 -102.259907 
L 115.948752 -103.142242 
L 111.307725 -104.024577 
L 106.915614 -104.906911 
L 102.867034 -105.789246 
L 99.250181 -106.67158 
L 96.142349 -107.553915 
L 93.605879 -108.436249 
L 91.684849 -109.318584 
L 90.402758 -110.200919 
L 89.761394 -111.083253 
L 89.740993 -111.965588 
L 90.30168 -112.847922 
L 91.386106 -113.730257 
L 92.923088 -114.612591 
L 94.831977 -115.494926 
L 97.027446 -116.377261 
L 99.424338 -117.259595 
L 101.942233 -118.14193 
L 104.509417 -119.024264 
L 107.065996 -119.906599 
L 109.565968 -120.788933 
L 111.978164 -121.671268 
L 114.286048 -122.553603 
L 116.486471 -123.435937 
L 118.587539 -124.318272 
L 120.605836 -125.200606 
L 122.563271 -126.082941 
L 124.483841 -126.965275 
L 126.390602 -127.84761 
L 128.303106 -128.729945 
L 130.235493 -129.612279 
L 132.195366 -130.494614 
L 134.183494 -131.376948 
L 136.194284 -132.259283 
L 138.2169 -133.141617 
L 140.236828 -134.023952 
L 142.23767 -134.906287 
L 144.202918 -135.788621 
L 146.117502 -136.670956 
L 147.968953 -137.55329 
L 149.748086 -138.435625 
L 151.449193 -139.317959 
L 153.069796 -140.200294 
L 154.610094 -141.082629 
L 156.072226 -141.964963 
L 157.459528 -142.847298 
L 158.775892 -143.729632 
L 160.025337 -144.611967 
L 161.211796 -145.494301 
L 162.339132 -146.376636 
L 163.411295 -147.258971 
L 164.432534 -148.141305 
L 165.40758 -149.02364 
L 166.341706 -149.905974 
L 167.240625 -150.788309 
L 168.110212 -151.670643 
L 168.956086 -152.552978 
L 169.783114 -153.435313 
L 170.594914 -154.317647 
L 171.393449 -155.199982 
L 172.178777 -156.082316 
L 172.949 -156.964651 
L 173.700432 -157.846986 
L 174.427955 -158.72932 
L 175.125529 -159.611655 
L 175.786783 -160.493989 
L 176.405614 -161.376324 
L 176.976728 -162.258658 
L 177.496075 -163.140993 
L 177.961133 -164.023328 
L 178.371029 -164.905662 
L 178.726517 -165.787997 
L 179.029814 -166.670331 
L 179.284348 -167.552666 
L 180.215568 -167.552666 
L 180.215568 -167.552666 
L 180.215568 -166.670331 
L 180.215568 -165.787997 
L 180.215568 -164.905662 
L 180.215568 -164.023328 
L 180.215568 -163.140993 
L 180.215568 -162.258658 
L 180.215568 -161.376324 
L 180.215568 -160.493989 
L 180.215568 -159.611655 
L 180.215568 -158.72932 
L 180.215568 -157.846986 
L 180.215568 -156.964651 
L 180.215568 -156.082316 
L 180.215568 -155.199982 
L 180.215568 -154.317647 
L 180.215568 -153.435313 
L 180.215568 -152.552978 
L 180.215568 -151.670643 
L 180.215568 -150.788309 
L 180.215568 -149.905974 
L 180.215568 -149.02364 
L 180.215568 -148.141305 
L 180.215568 -147.258971 
L 180.215568 -146.376636 
L 180.215568 -145.494301 
L 180.215568 -144.611967 
L 180.215568 -143.729632 
L 180.215568 -142.847298 
L 180.215568 -141.964963 
L 180.215568 -141.082629 
L 180.215568 -140.200294 
L 180.215568 -139.317959 
L 180.215568 -138.435625 
L 180.215568 -137.55329 
L 180.215568 -136.670956 
L 180.215568 -135.788621 
L 180.215568 -134.906287 
L 180.215568 -134.023952 
L 180.215568 -133.141617 
L 180.215568 -132.259283 
L 180.215568 -131.376948 
L 180.215568 -130.494614 
L 180.215568 -129.612279 
L 180.215568 -128.729945 
L 180.215568 -127.84761 
L 180.215568 -126.965275 
L 180.215568 -126.082941 
L 180.215568 -125.200606 
L 180.215568 -124.318272 
L 180.215568 -123.435937 
L 180.215568 -122.553603 
L 180.215568 -121.671268 
L 180.215568 -120.788933 
L 180.215568 -119.906599 
L 180.215568 -119.024264 
L 180.215568 -118.14193 
L 180.215568 -117.259595 
L 180.215568 -116.377261 
L 180.215568 -115.494926 
L 180.215568 -114.612591 
L 180.215568 -113.730257 
L 180.215568 -112.847922 
L 180.215568 -111.965588 
L 180.215568 -111.083253 
L 180.215568 -110.200919 
L 180.215568 -109.318584 
L 180.215568 -108.436249 
L 180.215568 -107.553915 
L 180.215568 -106.67158 
L 180.215568 -105.789246 
L 180.215568 -104.906911 
L 180.215568 -104.024577 
L 180.215568 -103.142242 
L 180.215568 -102.259907 
L 180.215568 -101.377573 
L 180.215568 -100.495238 
L 180.215568 -99.612904 
L 180.215568 -98.730569 
L 180.215568 -97.848234 
L 180.215568 -96.9659 
L 180.215568 -96.083565 
L 180.215568 -95.201231 
L 180.215568 -94.318896 
L 180.215568 -93.436562 
L 180.215568 -92.554227 
L 180.215568 -91.671892 
L 180.215568 -90.789558 
L 180.215568 -89.907223 
L 180.215568 -89.024889 
L 180.215568 -88.142554 
L 180.215568 -87.26022 
L 180.215568 -86.377885 
L 180.215568 -85.49555 
L 180.215568 -84.613216 
L 180.215568 -83.730881 
L 180.215568 -82.848547 
L 180.215568 -81.966212 
L 180.215568 -81.083878 
L 180.215568 -80.201543 
z
"/>
    </defs>
    <g clip-path="url(#pd82cfcb269)">
     <use xlink:href="#md14ff6a010" x="0" y="378.799603" style="fill: #81b2d5"/>
    </g>
   </g>
   <g id="PolyCollection_2">
    <defs>
     <path id="md0f07b3def" d="M 205.828153 -75.313379 
L 202.834212 -75.313379 
L 202.834212 -77.025988 
L 202.834212 -78.738596 
L 202.834212 -80.451205 
L 202.834212 -82.163814 
L 202.834212 -83.876423 
L 202.834212 -85.589031 
L 202.834212 -87.30164 
L 202.834212 -89.014249 
L 202.834212 -90.726858 
L 202.834212 -92.439466 
L 202.834212 -94.152075 
L 202.834212 -95.864684 
L 202.834212 -97.577292 
L 202.834212 -99.289901 
L 202.834212 -101.00251 
L 202.834212 -102.715119 
L 202.834212 -104.427727 
L 202.834212 -106.140336 
L 202.834212 -107.852945 
L 202.834212 -109.565554 
L 202.834212 -111.278162 
L 202.834212 -112.990771 
L 202.834212 -114.70338 
L 202.834212 -116.415988 
L 202.834212 -118.128597 
L 202.834212 -119.841206 
L 202.834212 -121.553815 
L 202.834212 -123.266423 
L 202.834212 -124.979032 
L 202.834212 -126.691641 
L 202.834212 -128.404249 
L 202.834212 -130.116858 
L 202.834212 -131.829467 
L 202.834212 -133.542076 
L 202.834212 -135.254684 
L 202.834212 -136.967293 
L 202.834212 -138.679902 
L 202.834212 -140.392511 
L 202.834212 -142.105119 
L 202.834212 -143.817728 
L 202.834212 -145.530337 
L 202.834212 -147.242945 
L 202.834212 -148.955554 
L 202.834212 -150.668163 
L 202.834212 -152.380772 
L 202.834212 -154.09338 
L 202.834212 -155.805989 
L 202.834212 -157.518598 
L 202.834212 -159.231207 
L 202.834212 -160.943815 
L 202.834212 -162.656424 
L 202.834212 -164.369033 
L 202.834212 -166.081641 
L 202.834212 -167.79425 
L 202.834212 -169.506859 
L 202.834212 -171.219468 
L 202.834212 -172.932076 
L 202.834212 -174.644685 
L 202.834212 -176.357294 
L 202.834212 -178.069903 
L 202.834212 -179.782511 
L 202.834212 -181.49512 
L 202.834212 -183.207729 
L 202.834212 -184.920337 
L 202.834212 -186.632946 
L 202.834212 -188.345555 
L 202.834212 -190.058164 
L 202.834212 -191.770772 
L 202.834212 -193.483381 
L 202.834212 -195.19599 
L 202.834212 -196.908599 
L 202.834212 -198.621207 
L 202.834212 -200.333816 
L 202.834212 -202.046425 
L 202.834212 -203.759033 
L 202.834212 -205.471642 
L 202.834212 -207.184251 
L 202.834212 -208.89686 
L 202.834212 -210.609468 
L 202.834212 -212.322077 
L 202.834212 -214.034686 
L 202.834212 -215.747294 
L 202.834212 -217.459903 
L 202.834212 -219.172512 
L 202.834212 -220.885121 
L 202.834212 -222.597729 
L 202.834212 -224.310338 
L 202.834212 -226.022947 
L 202.834212 -227.735556 
L 202.834212 -229.448164 
L 202.834212 -231.160773 
L 202.834212 -232.873382 
L 202.834212 -234.58599 
L 202.834212 -236.298599 
L 202.834212 -238.011208 
L 202.834212 -239.723817 
L 202.834212 -241.436425 
L 202.834212 -243.149034 
L 202.834212 -244.861643 
L 203.081785 -244.861643 
L 203.081785 -244.861643 
L 203.182757 -243.149034 
L 203.309433 -241.436425 
L 203.461711 -239.723817 
L 203.636656 -238.011208 
L 203.828028 -236.298599 
L 204.026268 -234.58599 
L 204.219069 -232.873382 
L 204.392566 -231.160773 
L 204.533023 -229.448164 
L 204.628792 -227.735556 
L 204.67222 -226.022947 
L 204.661146 -224.310338 
L 204.599756 -222.597729 
L 204.498632 -220.885121 
L 204.374067 -219.172512 
L 204.246788 -217.459903 
L 204.140346 -215.747294 
L 204.079412 -214.034686 
L 204.088116 -212.322077 
L 204.188495 -210.609468 
L 204.398988 -208.89686 
L 204.732942 -207.184251 
L 205.197096 -205.471642 
L 205.790136 -203.759033 
L 206.501565 -202.046425 
L 207.311161 -200.333816 
L 208.189344 -198.621207 
L 209.098642 -196.908599 
L 209.996292 -195.19599 
L 210.837788 -193.483381 
L 211.581003 -191.770772 
L 212.190416 -190.058164 
L 212.640948 -188.345555 
L 212.92098 -186.632946 
L 213.034266 -184.920337 
L 213.000595 -183.207729 
L 212.855177 -181.49512 
L 212.646856 -179.782511 
L 212.435293 -178.069903 
L 212.287313 -176.357294 
L 212.272613 -174.644685 
L 212.459045 -172.932076 
L 212.907697 -171.219468 
L 213.668033 -169.506859 
L 214.773442 -167.79425 
L 216.237634 -166.081641 
L 218.052402 -164.369033 
L 220.18729 -162.656424 
L 222.591557 -160.943815 
L 225.198579 -159.231207 
L 227.932432 -157.518598 
L 230.715952 -155.805989 
L 233.479278 -154.09338 
L 236.167732 -152.380772 
L 238.747976 -150.668163 
L 241.211734 -148.955554 
L 243.576698 -147.242945 
L 245.884596 -145.530337 
L 248.196608 -143.817728 
L 250.586355 -142.105119 
L 253.130785 -140.392511 
L 255.899381 -138.679902 
L 258.942477 -136.967293 
L 262.279992 -135.254684 
L 265.89237 -133.542076 
L 269.715858 -131.829467 
L 273.643989 -130.116858 
L 277.536356 -128.404249 
L 281.23432 -126.691641 
L 284.581659 -124.979032 
L 287.446596 -123.266423 
L 289.740773 -121.553815 
L 291.430824 -119.841206 
L 292.539374 -118.128597 
L 293.134443 -116.415988 
L 293.308788 -114.70338 
L 293.153197 -112.990771 
L 292.729447 -111.278162 
L 292.049083 -109.565554 
L 291.063241 -107.852945 
L 289.666521 -106.140336 
L 287.714897 -104.427727 
L 285.0545 -102.715119 
L 281.555623 -101.00251 
L 277.144944 -99.289901 
L 271.829274 -97.577292 
L 265.705868 -95.864684 
L 258.957216 -94.152075 
L 251.831497 -92.439466 
L 244.612762 -90.726858 
L 237.586756 -89.014249 
L 231.008691 -87.30164 
L 225.07829 -85.589031 
L 219.9254 -83.876423 
L 215.607017 -82.163814 
L 212.11429 -80.451205 
L 209.386524 -78.738596 
L 207.328567 -77.025988 
L 205.828153 -75.313379 
z
"/>
    </defs>
    <g clip-path="url(#pd82cfcb269)">
     <use xlink:href="#md0f07b3def" x="0" y="378.799603" style="fill: #477aa7"/>
    </g>
   </g>
   <g id="matplotlib.axis_1">
    <g id="xtick_1">
     <g id="line2d_1">
      <defs>
       <path id="m5383da24a4" d="M 0 0 
L 0 5 
" style="stroke: #000000; stroke-width: 0.75"/>
      </defs>
      <g>
       <use xlink:href="#m5383da24a4" x="134.978281" y="311.799603" style="stroke: #000000; stroke-width: 0.75"/>
      </g>
     </g>
     <g id="text_1">
      <text style="font: 15px &quot;Suisse Int&apos;l&quot;, sans-serif; text-anchor: middle" x="134.978281" y="332.674603" transform="rotate(-0 134.978281 332.674603)">4</text>
     </g>
    </g>
    <g id="xtick_2">
     <g id="line2d_2">
      <g>
       <use xlink:href="#m5383da24a4" x="248.0715" y="311.799603" style="stroke: #000000; stroke-width: 0.75"/>
      </g>
     </g>
     <g id="text_2">
      <text style="font: 15px &quot;Suisse Int&apos;l&quot;, sans-serif; text-anchor: middle" x="248.0715" y="332.674603" transform="rotate(-0 248.0715 332.674603)">21</text>
     </g>
    </g>
    <g id="text_3">
     <text style="font: 500 15px &quot;Suisse Int&apos;l&quot;, sans-serif; text-anchor: middle" x="191.52489" y="356.174603" transform="rotate(-0 191.52489 356.174603)">Time in water</text>
    </g>
   </g>
   <g id="matplotlib.axis_2">
    <g id="ytick_1">
     <g id="line2d_3">
      <defs>
       <path id="m2c0a822a2a" d="M 0 0 
L -5 0 
" style="stroke: #000000; stroke-width: 0.75"/>
      </defs>
      <g>
       <use xlink:href="#m2c0a822a2a" x="81.598281" y="284.677434" style="stroke: #000000; stroke-width: 0.75"/>
      </g>
     </g>
     <g id="text_4">
      <text style="font: 14.5px &quot;Suisse Int&apos;l Mono&quot;; text-anchor: end" x="71.598281" y="289.933684" transform="rotate(-0 71.598281 289.933684)">0.0</text>
     </g>
    </g>
    <g id="ytick_2">
     <g id="line2d_4">
      <g>
       <use xlink:href="#m2c0a822a2a" x="81.598281" y="229.987142" style="stroke: #000000; stroke-width: 0.75"/>
      </g>
     </g>
     <g id="text_5">
      <text style="font: 14.5px &quot;Suisse Int&apos;l Mono&quot;; text-anchor: end" x="71.598281" y="235.243392" transform="rotate(-0 71.598281 235.243392)">0.2</text>
     </g>
    </g>
    <g id="ytick_3">
     <g id="line2d_5">
      <g>
       <use xlink:href="#m2c0a822a2a" x="81.598281" y="175.296851" style="stroke: #000000; stroke-width: 0.75"/>
      </g>
     </g>
     <g id="text_6">
      <text style="font: 14.5px &quot;Suisse Int&apos;l Mono&quot;; text-anchor: end" x="71.598281" y="180.553101" transform="rotate(-0 71.598281 180.553101)">0.4</text>
     </g>
    </g>
    <g id="ytick_4">
     <g id="line2d_6">
      <g>
       <use xlink:href="#m2c0a822a2a" x="81.598281" y="120.606559" style="stroke: #000000; stroke-width: 0.75"/>
      </g>
     </g>
     <g id="text_7">
      <text style="font: 14.5px &quot;Suisse Int&apos;l Mono&quot;; text-anchor: end" x="71.598281" y="125.862809" transform="rotate(-0 71.598281 125.862809)">0.6</text>
     </g>
    </g>
    <g id="text_8">
     <text style="font: 500 15px &quot;Suisse Int&apos;l&quot;, sans-serif; text-anchor: middle" x="30.875" y="199.568987" transform="rotate(-90 30.875 199.568987)">Confinement ratio</text>
    </g>
   </g>
   <g id="line2d_7">
    <path d="M 177.715568 284.144853 
L 177.715568 225.700145 
" clip-path="url(#pd82cfcb269)" style="fill: none; stroke: #474747; stroke-width: 1.666667; stroke-linecap: round"/>
   </g>
   <g id="line2d_8">
    <path d="M 177.715568 270.335391 
L 177.715568 251.695676 
" clip-path="url(#pd82cfcb269)" style="fill: none; stroke: #474747; stroke-width: 5; stroke-linecap: round"/>
   </g>
   <g id="line2d_9">
    <path d="M 177.715568 265.129597 
" clip-path="url(#pd82cfcb269)" style="fill: none; stroke: #474747; stroke-width: 2; stroke-linecap: round"/>
    <defs>
     <path id="m0c46f63b87" d="M 2.083333 0 
L -2.083333 -0 
" style="stroke: #ffffff"/>
    </defs>
    <g clip-path="url(#pd82cfcb269)">
     <use xlink:href="#m0c46f63b87" x="177.715568" y="265.129597" style="fill: #ffffff; stroke: #ffffff"/>
    </g>
   </g>
   <g id="line2d_10">
    <path d="M 205.334212 284.35563 
L 205.334212 195.251355 
" clip-path="url(#pd82cfcb269)" style="fill: none; stroke: #474747; stroke-width: 1.666667; stroke-linecap: round"/>
   </g>
   <g id="line2d_11">
    <path d="M 205.334212 273.138544 
L 205.334212 241.835727 
" clip-path="url(#pd82cfcb269)" style="fill: none; stroke: #474747; stroke-width: 5; stroke-linecap: round"/>
   </g>
   <g id="line2d_12">
    <path d="M 205.334212 258.867116 
" clip-path="url(#pd82cfcb269)" style="fill: none; stroke: #474747; stroke-width: 2; stroke-linecap: round"/>
    <g clip-path="url(#pd82cfcb269)">
     <use xlink:href="#m0c46f63b87" x="205.334212" y="258.867116" style="fill: #ffffff; stroke: #ffffff"/>
    </g>
   </g>
   <g id="line2d_13">
    <path d="M 168.906247 95.651749 
L 214.143534 95.651749 
" clip-path="url(#pd82cfcb269)" style="fill: none; stroke: #000000; stroke-width: 2; stroke-linecap: round"/>
   </g>
   <g id="patch_3">
    <path d="M 81.598281 311.799603 
L 81.598281 87.33837 
" style="fill: none; stroke: #000000; stroke-width: 0.75; stroke-linejoin: miter; stroke-linecap: square"/>
   </g>
   <g id="patch_4">
    <path d="M 81.598281 311.799603 
L 301.451499 311.799603 
" style="fill: none; stroke: #000000; stroke-width: 0.75; stroke-linejoin: miter; stroke-linecap: square"/>
   </g>
   <g id="text_9">
    <text style="font: 16px &quot;Suisse Int&apos;l&quot;, sans-serif; text-anchor: middle" x="191.52489" y="86.200465" transform="rotate(-0 191.52489 86.200465)">ns</text>
   </g>
  </g>
  <g id="axes_2">
   <g id="patch_5">
    <path d="M 369.347175 311.799603 
L 589.200393 311.799603 
L 589.200393 87.33837 
L 369.347175 87.33837 
L 369.347175 311.799603 
z
" style="fill: none"/>
   </g>
   <g id="PolyCollection_3">
    <defs>
     <path id="mb7d18370d1" d="M 467.964462 -75.313379 
L 464.758482 -75.313379 
L 463.914755 -77.024555 
L 462.907099 -78.735731 
L 461.720211 -80.446907 
L 460.341679 -82.158083 
L 458.763181 -83.869258 
L 456.981658 -85.580434 
L 455.000375 -87.29161 
L 452.829766 -89.002786 
L 450.487953 -90.713962 
L 448.000854 -92.425138 
L 445.401792 -94.136314 
L 442.730581 -95.84749 
L 440.032086 -97.558665 
L 437.354298 -99.269841 
L 434.746034 -100.981017 
L 432.254398 -102.692193 
L 429.922166 -104.403369 
L 427.785312 -106.114545 
L 425.870842 -107.825721 
L 424.195145 -109.536897 
L 422.762966 -111.248073 
L 421.567125 -112.959248 
L 420.588994 -114.670424 
L 419.7997 -116.3816 
L 419.161954 -118.092776 
L 418.63237 -119.803952 
L 418.164072 -121.515128 
L 417.709405 -123.226304 
L 417.222528 -124.93748 
L 416.661731 -126.648655 
L 415.991319 -128.359831 
L 415.182963 -130.071007 
L 414.216494 -131.782183 
L 413.08012 -133.493359 
L 411.770138 -135.204535 
L 410.290222 -136.915711 
L 408.650405 -138.626887 
L 406.865871 -140.338062 
L 404.955697 -142.049238 
L 402.941654 -143.760414 
L 400.847157 -145.47159 
L 398.696451 -147.182766 
L 396.51407 -148.893942 
L 394.324584 -150.605118 
L 392.152618 -152.316294 
L 390.023107 -154.02747 
L 387.961711 -155.738645 
L 385.995306 -157.449821 
L 384.152452 -159.160997 
L 382.463726 -160.872173 
L 380.961826 -162.583349 
L 379.681366 -164.294525 
L 378.658289 -166.005701 
L 377.928903 -167.716877 
L 377.528534 -169.428052 
L 377.489887 -171.139228 
L 377.8412 -172.850404 
L 378.604356 -174.56158 
L 379.793091 -176.272756 
L 381.411486 -177.983932 
L 383.452887 -179.695108 
L 385.899381 -181.406284 
L 388.721908 -183.117459 
L 391.881044 -184.828635 
L 395.32841 -186.539811 
L 399.00863 -188.250987 
L 402.861686 -189.962163 
L 406.825523 -191.673339 
L 410.838689 -193.384515 
L 414.842833 -195.095691 
L 418.784899 -196.806867 
L 422.618856 -198.518042 
L 426.306903 -200.229218 
L 429.820085 -201.940394 
L 433.138327 -203.65157 
L 436.249966 -205.362746 
L 439.15084 -207.073922 
L 441.843073 -208.785098 
L 444.333673 -210.496274 
L 446.633084 -212.207449 
L 448.753785 -213.918625 
L 450.709055 -215.629801 
L 452.511965 -217.340977 
L 454.174622 -219.052153 
L 455.707696 -220.763329 
L 457.120207 -222.474505 
L 458.419529 -224.185681 
L 459.611574 -225.896857 
L 460.701093 -227.608032 
L 461.692041 -229.319208 
L 462.587954 -231.030384 
L 463.392289 -232.74156 
L 464.108707 -234.452736 
L 464.741272 -236.163912 
L 465.294561 -237.875088 
L 465.773692 -239.586264 
L 466.184272 -241.297439 
L 466.532295 -243.008615 
L 466.823998 -244.719791 
L 467.964462 -244.719791 
L 467.964462 -244.719791 
L 467.964462 -243.008615 
L 467.964462 -241.297439 
L 467.964462 -239.586264 
L 467.964462 -237.875088 
L 467.964462 -236.163912 
L 467.964462 -234.452736 
L 467.964462 -232.74156 
L 467.964462 -231.030384 
L 467.964462 -229.319208 
L 467.964462 -227.608032 
L 467.964462 -225.896857 
L 467.964462 -224.185681 
L 467.964462 -222.474505 
L 467.964462 -220.763329 
L 467.964462 -219.052153 
L 467.964462 -217.340977 
L 467.964462 -215.629801 
L 467.964462 -213.918625 
L 467.964462 -212.207449 
L 467.964462 -210.496274 
L 467.964462 -208.785098 
L 467.964462 -207.073922 
L 467.964462 -205.362746 
L 467.964462 -203.65157 
L 467.964462 -201.940394 
L 467.964462 -200.229218 
L 467.964462 -198.518042 
L 467.964462 -196.806867 
L 467.964462 -195.095691 
L 467.964462 -193.384515 
L 467.964462 -191.673339 
L 467.964462 -189.962163 
L 467.964462 -188.250987 
L 467.964462 -186.539811 
L 467.964462 -184.828635 
L 467.964462 -183.117459 
L 467.964462 -181.406284 
L 467.964462 -179.695108 
L 467.964462 -177.983932 
L 467.964462 -176.272756 
L 467.964462 -174.56158 
L 467.964462 -172.850404 
L 467.964462 -171.139228 
L 467.964462 -169.428052 
L 467.964462 -167.716877 
L 467.964462 -166.005701 
L 467.964462 -164.294525 
L 467.964462 -162.583349 
L 467.964462 -160.872173 
L 467.964462 -159.160997 
L 467.964462 -157.449821 
L 467.964462 -155.738645 
L 467.964462 -154.02747 
L 467.964462 -152.316294 
L 467.964462 -150.605118 
L 467.964462 -148.893942 
L 467.964462 -147.182766 
L 467.964462 -145.47159 
L 467.964462 -143.760414 
L 467.964462 -142.049238 
L 467.964462 -140.338062 
L 467.964462 -138.626887 
L 467.964462 -136.915711 
L 467.964462 -135.204535 
L 467.964462 -133.493359 
L 467.964462 -131.782183 
L 467.964462 -130.071007 
L 467.964462 -128.359831 
L 467.964462 -126.648655 
L 467.964462 -124.93748 
L 467.964462 -123.226304 
L 467.964462 -121.515128 
L 467.964462 -119.803952 
L 467.964462 -118.092776 
L 467.964462 -116.3816 
L 467.964462 -114.670424 
L 467.964462 -112.959248 
L 467.964462 -111.248073 
L 467.964462 -109.536897 
L 467.964462 -107.825721 
L 467.964462 -106.114545 
L 467.964462 -104.403369 
L 467.964462 -102.692193 
L 467.964462 -100.981017 
L 467.964462 -99.269841 
L 467.964462 -97.558665 
L 467.964462 -95.84749 
L 467.964462 -94.136314 
L 467.964462 -92.425138 
L 467.964462 -90.713962 
L 467.964462 -89.002786 
L 467.964462 -87.29161 
L 467.964462 -85.580434 
L 467.964462 -83.869258 
L 467.964462 -82.158083 
L 467.964462 -80.446907 
L 467.964462 -78.735731 
L 467.964462 -77.024555 
L 467.964462 -75.313379 
z
"/>
    </defs>
    <g clip-path="url(#pbc426f2420)">
     <use xlink:href="#mb7d18370d1" x="0" y="378.799603" style="fill: #81b2d5"/>
    </g>
   </g>
   <g id="PolyCollection_4">
    <defs>
     <path id="m8438b4c6ab" d="M 492.319129 -77.226319 
L 490.583106 -77.226319 
L 490.583106 -78.871271 
L 490.583106 -80.516223 
L 490.583106 -82.161175 
L 490.583106 -83.806127 
L 490.583106 -85.451079 
L 490.583106 -87.096031 
L 490.583106 -88.740983 
L 490.583106 -90.385935 
L 490.583106 -92.030887 
L 490.583106 -93.675839 
L 490.583106 -95.320791 
L 490.583106 -96.965743 
L 490.583106 -98.610695 
L 490.583106 -100.255647 
L 490.583106 -101.900599 
L 490.583106 -103.545551 
L 490.583106 -105.190503 
L 490.583106 -106.835455 
L 490.583106 -108.480407 
L 490.583106 -110.125359 
L 490.583106 -111.770311 
L 490.583106 -113.415263 
L 490.583106 -115.060215 
L 490.583106 -116.705167 
L 490.583106 -118.350119 
L 490.583106 -119.995071 
L 490.583106 -121.640023 
L 490.583106 -123.284975 
L 490.583106 -124.929927 
L 490.583106 -126.574879 
L 490.583106 -128.219831 
L 490.583106 -129.864783 
L 490.583106 -131.509734 
L 490.583106 -133.154686 
L 490.583106 -134.799638 
L 490.583106 -136.44459 
L 490.583106 -138.089542 
L 490.583106 -139.734494 
L 490.583106 -141.379446 
L 490.583106 -143.024398 
L 490.583106 -144.66935 
L 490.583106 -146.314302 
L 490.583106 -147.959254 
L 490.583106 -149.604206 
L 490.583106 -151.249158 
L 490.583106 -152.89411 
L 490.583106 -154.539062 
L 490.583106 -156.184014 
L 490.583106 -157.828966 
L 490.583106 -159.473918 
L 490.583106 -161.11887 
L 490.583106 -162.763822 
L 490.583106 -164.408774 
L 490.583106 -166.053726 
L 490.583106 -167.698678 
L 490.583106 -169.34363 
L 490.583106 -170.988582 
L 490.583106 -172.633534 
L 490.583106 -174.278486 
L 490.583106 -175.923438 
L 490.583106 -177.56839 
L 490.583106 -179.213342 
L 490.583106 -180.858294 
L 490.583106 -182.503246 
L 490.583106 -184.148198 
L 490.583106 -185.79315 
L 490.583106 -187.438102 
L 490.583106 -189.083054 
L 490.583106 -190.728006 
L 490.583106 -192.372958 
L 490.583106 -194.01791 
L 490.583106 -195.662862 
L 490.583106 -197.307814 
L 490.583106 -198.952765 
L 490.583106 -200.597717 
L 490.583106 -202.242669 
L 490.583106 -203.887621 
L 490.583106 -205.532573 
L 490.583106 -207.177525 
L 490.583106 -208.822477 
L 490.583106 -210.467429 
L 490.583106 -212.112381 
L 490.583106 -213.757333 
L 490.583106 -215.402285 
L 490.583106 -217.047237 
L 490.583106 -218.692189 
L 490.583106 -220.337141 
L 490.583106 -221.982093 
L 490.583106 -223.627045 
L 490.583106 -225.271997 
L 490.583106 -226.916949 
L 490.583106 -228.561901 
L 490.583106 -230.206853 
L 490.583106 -231.851805 
L 490.583106 -233.496757 
L 490.583106 -235.141709 
L 490.583106 -236.786661 
L 490.583106 -238.431613 
L 490.583106 -240.076565 
L 490.969998 -240.076565 
L 490.969998 -240.076565 
L 491.120645 -238.431613 
L 491.313319 -236.786661 
L 491.553387 -235.141709 
L 491.8449 -233.496757 
L 492.190082 -231.851805 
L 492.58902 -230.206853 
L 493.039644 -228.561901 
L 493.538083 -226.916949 
L 494.079397 -225.271997 
L 494.658614 -223.627045 
L 495.2719 -221.982093 
L 495.917658 -220.337141 
L 496.597283 -218.692189 
L 497.315364 -217.047237 
L 498.079197 -215.402285 
L 498.897596 -213.757333 
L 499.779149 -212.112381 
L 500.730208 -210.467429 
L 501.752978 -208.822477 
L 502.844117 -207.177525 
L 503.994182 -205.532573 
L 505.18813 -203.887621 
L 506.406867 -202.242669 
L 507.629671 -200.597717 
L 508.83707 -198.952765 
L 510.013685 -197.307814 
L 511.150518 -195.662862 
L 512.24624 -194.01791 
L 513.307287 -192.372958 
L 514.346771 -190.728006 
L 515.382549 -189.083054 
L 516.434926 -187.438102 
L 517.52459 -185.79315 
L 518.671262 -184.148198 
L 519.893321 -182.503246 
L 521.208334 -180.858294 
L 522.634121 -179.213342 
L 524.189735 -177.56839 
L 525.895723 -175.923438 
L 527.773189 -174.278486 
L 529.841539 -172.633534 
L 532.115182 -170.988582 
L 534.599878 -169.34363 
L 537.289589 -167.698678 
L 540.164717 -166.053726 
L 543.192288 -164.408774 
L 546.328229 -162.763822 
L 549.521387 -161.11887 
L 552.718519 -159.473918 
L 555.869274 -157.828966 
L 558.930221 -156.184014 
L 561.867233 -154.539062 
L 564.65593 -152.89411 
L 567.280275 -151.249158 
L 569.729788 -149.604206 
L 571.995988 -147.959254 
L 574.06873 -146.314302 
L 575.932984 -144.66935 
L 577.566465 -143.024398 
L 578.938369 -141.379446 
L 580.009353 -139.734494 
L 580.732841 -138.089542 
L 581.057681 -136.44459 
L 580.932118 -134.799638 
L 580.308889 -133.154686 
L 579.151099 -131.509734 
L 577.438275 -129.864783 
L 575.171829 -128.219831 
L 572.379034 -126.574879 
L 569.114678 -124.929927 
L 565.459755 -123.284975 
L 561.516946 -121.640023 
L 557.403125 -119.995071 
L 553.239602 -118.350119 
L 549.141276 -116.705167 
L 545.206109 -115.060215 
L 541.506388 -113.415263 
L 538.083022 -111.770311 
L 534.943737 -110.125359 
L 532.065427 -108.480407 
L 529.400317 -106.835455 
L 526.885018 -105.190503 
L 524.451108 -103.545551 
L 522.035695 -101.900599 
L 519.590436 -100.255647 
L 517.087826 -98.610695 
L 514.524011 -96.965743 
L 511.917998 -95.320791 
L 509.307686 -93.675839 
L 506.743611 -92.030887 
L 504.281565 -90.385935 
L 501.975285 -88.740983 
L 499.870271 -87.096031 
L 497.999444 -85.451079 
L 496.38098 -83.806127 
L 495.018254 -82.161175 
L 493.901519 -80.516223 
L 493.010765 -78.871271 
L 492.319129 -77.226319 
z
"/>
    </defs>
    <g clip-path="url(#pbc426f2420)">
     <use xlink:href="#m8438b4c6ab" x="0" y="378.799603" style="fill: #477aa7"/>
    </g>
   </g>
   <g id="matplotlib.axis_3">
    <g id="xtick_3">
     <g id="line2d_14">
      <g>
       <use xlink:href="#m5383da24a4" x="422.727174" y="311.799603" style="stroke: #000000; stroke-width: 0.75"/>
      </g>
     </g>
     <g id="text_10">
      <text style="font: 15px &quot;Suisse Int&apos;l&quot;, sans-serif; text-anchor: middle" x="422.727174" y="332.674603" transform="rotate(-0 422.727174 332.674603)">4</text>
     </g>
    </g>
    <g id="xtick_4">
     <g id="line2d_15">
      <g>
       <use xlink:href="#m5383da24a4" x="535.820394" y="311.799603" style="stroke: #000000; stroke-width: 0.75"/>
      </g>
     </g>
     <g id="text_11">
      <text style="font: 15px &quot;Suisse Int&apos;l&quot;, sans-serif; text-anchor: middle" x="535.820394" y="332.674603" transform="rotate(-0 535.820394 332.674603)">21</text>
     </g>
    </g>
    <g id="text_12">
     <text style="font: 500 15px &quot;Suisse Int&apos;l&quot;, sans-serif; text-anchor: middle" x="479.273784" y="356.174603" transform="rotate(-0 479.273784 356.174603)">Time in water</text>
    </g>
   </g>
   <g id="matplotlib.axis_4">
    <g id="ytick_5">
     <g id="line2d_16">
      <g>
       <use xlink:href="#m2c0a822a2a" x="369.347175" y="285.562588" style="stroke: #000000; stroke-width: 0.75"/>
      </g>
     </g>
     <g id="text_13">
      <text style="font: 14.5px &quot;Suisse Int&apos;l Mono&quot;; text-anchor: end" x="359.347175" y="290.818838" transform="rotate(-0 359.347175 290.818838)">0</text>
     </g>
    </g>
    <g id="ytick_6">
     <g id="line2d_17">
      <g>
       <use xlink:href="#m2c0a822a2a" x="369.347175" y="252.85778" style="stroke: #000000; stroke-width: 0.75"/>
      </g>
     </g>
     <g id="text_14">
      <text style="font: 14.5px &quot;Suisse Int&apos;l Mono&quot;; text-anchor: end" x="359.347175" y="258.11403" transform="rotate(-0 359.347175 258.11403)">20</text>
     </g>
    </g>
    <g id="ytick_7">
     <g id="line2d_18">
      <g>
       <use xlink:href="#m2c0a822a2a" x="369.347175" y="220.152973" style="stroke: #000000; stroke-width: 0.75"/>
      </g>
     </g>
     <g id="text_15">
      <text style="font: 14.5px &quot;Suisse Int&apos;l Mono&quot;; text-anchor: end" x="359.347175" y="225.409223" transform="rotate(-0 359.347175 225.409223)">40</text>
     </g>
    </g>
    <g id="ytick_8">
     <g id="line2d_19">
      <g>
       <use xlink:href="#m2c0a822a2a" x="369.347175" y="187.448165" style="stroke: #000000; stroke-width: 0.75"/>
      </g>
     </g>
     <g id="text_16">
      <text style="font: 14.5px &quot;Suisse Int&apos;l Mono&quot;; text-anchor: end" x="359.347175" y="192.704415" transform="rotate(-0 359.347175 192.704415)">60</text>
     </g>
    </g>
    <g id="ytick_9">
     <g id="line2d_20">
      <g>
       <use xlink:href="#m2c0a822a2a" x="369.347175" y="154.743358" style="stroke: #000000; stroke-width: 0.75"/>
      </g>
     </g>
     <g id="text_17">
      <text style="font: 14.5px &quot;Suisse Int&apos;l Mono&quot;; text-anchor: end" x="359.347175" y="159.999608" transform="rotate(-0 359.347175 159.999608)">80</text>
     </g>
    </g>
    <g id="ytick_10">
     <g id="line2d_21">
      <g>
       <use xlink:href="#m2c0a822a2a" x="369.347175" y="122.03855" style="stroke: #000000; stroke-width: 0.75"/>
      </g>
     </g>
     <g id="text_18">
      <text style="font: 14.5px &quot;Suisse Int&apos;l Mono&quot;; text-anchor: end" x="359.347175" y="127.2948" transform="rotate(-0 359.347175 127.2948)">100</text>
     </g>
    </g>
    <g id="ytick_11">
     <g id="line2d_22">
      <g>
       <use xlink:href="#m2c0a822a2a" x="369.347175" y="89.333743" style="stroke: #000000; stroke-width: 0.75"/>
      </g>
     </g>
     <g id="text_19">
      <text style="font: 14.5px &quot;Suisse Int&apos;l Mono&quot;; text-anchor: end" x="359.347175" y="94.589993" transform="rotate(-0 359.347175 94.589993)">120</text>
     </g>
    </g>
    <g id="text_20">
     <text style="font: 500 15px &quot;Suisse Int&apos;l&quot;, sans-serif; text-anchor: middle" x="318.459831" y="199.568987" transform="rotate(-90 318.459831 199.568987)">Mean curvilinear speed (µm/s)</text>
    </g>
   </g>
   <g id="line2d_23">
    <path d="M 465.464462 272.204324 
L 465.464462 165.361713 
" clip-path="url(#pbc426f2420)" style="fill: none; stroke: #474747; stroke-width: 1.666667; stroke-linecap: round"/>
   </g>
   <g id="line2d_24">
    <path d="M 465.464462 240.926779 
L 465.464462 200.456188 
" clip-path="url(#pbc426f2420)" style="fill: none; stroke: #474747; stroke-width: 5; stroke-linecap: round"/>
   </g>
   <g id="line2d_25">
    <path d="M 465.464462 220.498121 
" clip-path="url(#pbc426f2420)" style="fill: none; stroke: #474747; stroke-width: 2; stroke-linecap: round"/>
    <g clip-path="url(#pbc426f2420)">
     <use xlink:href="#m0c46f63b87" x="465.464462" y="220.498121" style="fill: #ffffff; stroke: #ffffff"/>
    </g>
   </g>
   <g id="line2d_26">
    <path d="M 493.083106 280.759297 
L 493.083106 174.613873 
" clip-path="url(#pbc426f2420)" style="fill: none; stroke: #474747; stroke-width: 1.666667; stroke-linecap: round"/>
   </g>
   <g id="line2d_27">
    <path d="M 493.083106 252.909797 
L 493.083106 219.187148 
" clip-path="url(#pbc426f2420)" style="fill: none; stroke: #474747; stroke-width: 5; stroke-linecap: round"/>
   </g>
   <g id="line2d_28">
    <path d="M 493.083106 237.81404 
" clip-path="url(#pbc426f2420)" style="fill: none; stroke: #474747; stroke-width: 2; stroke-linecap: round"/>
    <g clip-path="url(#pbc426f2420)">
     <use xlink:href="#m0c46f63b87" x="493.083106" y="237.81404" style="fill: #ffffff; stroke: #ffffff"/>
    </g>
   </g>
   <g id="line2d_29">
    <path d="M 456.65514 95.651749 
L 501.892428 95.651749 
" clip-path="url(#pbc426f2420)" style="fill: none; stroke: #000000; stroke-width: 2; stroke-linecap: round"/>
   </g>
   <g id="patch_6">
    <path d="M 369.347175 311.799603 
L 369.347175 87.33837 
" style="fill: none; stroke: #000000; stroke-width: 0.75; stroke-linejoin: miter; stroke-linecap: square"/>
   </g>
   <g id="patch_7">
    <path d="M 369.347175 311.799603 
L 589.200393 311.799603 
" style="fill: none; stroke: #000000; stroke-width: 0.75; stroke-linejoin: miter; stroke-linecap: square"/>
   </g>
   <g id="text_21">
    <text style="font: 20px &quot;Suisse Int&apos;l&quot;, sans-serif; text-anchor: middle" x="479.273784" y="95.651749" transform="rotate(-0 479.273784 95.651749)">*</text>
   </g>
  </g>
  <g id="axes_3">
   <g id="patch_8">
    <path d="M 647.85185 311.799603 
L 867.705068 311.799603 
L 867.705068 87.33837 
L 647.85185 87.33837 
L 647.85185 311.799603 
z
" style="fill: none"/>
   </g>
   <g id="PolyCollection_5">
    <defs>
     <path id="m8dd2c105a3" d="M 746.469137 -75.313379 
L 741.078856 -75.313379 
L 739.451602 -77.027405 
L 737.454105 -78.741431 
L 735.040834 -80.455456 
L 732.171936 -82.169482 
L 728.816922 -83.883508 
L 724.958597 -85.597534 
L 720.596939 -87.31156 
L 715.752605 -89.025585 
L 710.469701 -90.739611 
L 704.817447 -92.453637 
L 698.890441 -94.167663 
L 692.807269 -95.881689 
L 686.707368 -97.595715 
L 680.746162 -99.30974 
L 675.088683 -101.023766 
L 669.902008 -102.737792 
L 665.347016 -104.451818 
L 661.570019 -106.165844 
L 658.694897 -107.879869 
L 656.816316 -109.593895 
L 655.994562 -111.307921 
L 656.252361 -113.021947 
L 657.573929 -114.735973 
L 659.906257 -116.449998 
L 663.16252 -118.164024 
L 667.227273 -119.87805 
L 671.963009 -121.592076 
L 677.217558 -123.306102 
L 682.831778 -125.020127 
L 688.647026 -126.734153 
L 694.511931 -128.448179 
L 700.28813 -130.162205 
L 705.854712 -131.876231 
L 711.111257 -133.590256 
L 715.979467 -135.304282 
L 720.403499 -137.018308 
L 724.349154 -138.732334 
L 727.802165 -140.44636 
L 730.765824 -142.160385 
L 733.258179 -143.874411 
L 735.309041 -145.588437 
L 736.95697 -147.302463 
L 738.246393 -149.016489 
L 739.224962 -150.730515 
L 739.941209 -152.44454 
L 740.442541 -154.158566 
L 740.773598 -155.872592 
L 740.974961 -157.586618 
L 741.082216 -159.300644 
L 741.125361 -161.014669 
L 741.128546 -162.728695 
L 741.110117 -164.442721 
L 741.082951 -166.156747 
L 741.055045 -167.870773 
L 741.030292 -169.584798 
L 741.009413 -171.298824 
L 740.990935 -173.01285 
L 740.972169 -174.726876 
L 740.950099 -176.440902 
L 740.922102 -178.154927 
L 740.886473 -179.868953 
L 740.842708 -181.582979 
L 740.791561 -183.297005 
L 740.734888 -185.011031 
L 740.675339 -186.725056 
L 740.615965 -188.439082 
L 740.559811 -190.153108 
L 740.509556 -191.867134 
L 740.467284 -193.58116 
L 740.434377 -195.295186 
L 740.411586 -197.009211 
L 740.399219 -198.723237 
L 740.397435 -200.437263 
L 740.406572 -202.151289 
L 740.427442 -203.865315 
L 740.461554 -205.57934 
L 740.511196 -207.293366 
L 740.579371 -209.007392 
L 740.669577 -210.721418 
L 740.785459 -212.435444 
L 740.930381 -214.149469 
L 741.106972 -215.863495 
L 741.316706 -217.577521 
L 741.559579 -219.291547 
L 741.833922 -221.005573 
L 742.136369 -222.719598 
L 742.461999 -224.433624 
L 742.804616 -226.14765 
L 743.157147 -227.861676 
L 743.5121 -229.575702 
L 743.862044 -231.289727 
L 744.200056 -233.003753 
L 744.520094 -234.717779 
L 744.817272 -236.431805 
L 745.088023 -238.145831 
L 745.330147 -239.859857 
L 745.542751 -241.573882 
L 745.726118 -243.287908 
L 745.881501 -245.001934 
L 746.469137 -245.001934 
L 746.469137 -245.001934 
L 746.469137 -243.287908 
L 746.469137 -241.573882 
L 746.469137 -239.859857 
L 746.469137 -238.145831 
L 746.469137 -236.431805 
L 746.469137 -234.717779 
L 746.469137 -233.003753 
L 746.469137 -231.289727 
L 746.469137 -229.575702 
L 746.469137 -227.861676 
L 746.469137 -226.14765 
L 746.469137 -224.433624 
L 746.469137 -222.719598 
L 746.469137 -221.005573 
L 746.469137 -219.291547 
L 746.469137 -217.577521 
L 746.469137 -215.863495 
L 746.469137 -214.149469 
L 746.469137 -212.435444 
L 746.469137 -210.721418 
L 746.469137 -209.007392 
L 746.469137 -207.293366 
L 746.469137 -205.57934 
L 746.469137 -203.865315 
L 746.469137 -202.151289 
L 746.469137 -200.437263 
L 746.469137 -198.723237 
L 746.469137 -197.009211 
L 746.469137 -195.295186 
L 746.469137 -193.58116 
L 746.469137 -191.867134 
L 746.469137 -190.153108 
L 746.469137 -188.439082 
L 746.469137 -186.725056 
L 746.469137 -185.011031 
L 746.469137 -183.297005 
L 746.469137 -181.582979 
L 746.469137 -179.868953 
L 746.469137 -178.154927 
L 746.469137 -176.440902 
L 746.469137 -174.726876 
L 746.469137 -173.01285 
L 746.469137 -171.298824 
L 746.469137 -169.584798 
L 746.469137 -167.870773 
L 746.469137 -166.156747 
L 746.469137 -164.442721 
L 746.469137 -162.728695 
L 746.469137 -161.014669 
L 746.469137 -159.300644 
L 746.469137 -157.586618 
L 746.469137 -155.872592 
L 746.469137 -154.158566 
L 746.469137 -152.44454 
L 746.469137 -150.730515 
L 746.469137 -149.016489 
L 746.469137 -147.302463 
L 746.469137 -145.588437 
L 746.469137 -143.874411 
L 746.469137 -142.160385 
L 746.469137 -140.44636 
L 746.469137 -138.732334 
L 746.469137 -137.018308 
L 746.469137 -135.304282 
L 746.469137 -133.590256 
L 746.469137 -131.876231 
L 746.469137 -130.162205 
L 746.469137 -128.448179 
L 746.469137 -126.734153 
L 746.469137 -125.020127 
L 746.469137 -123.306102 
L 746.469137 -121.592076 
L 746.469137 -119.87805 
L 746.469137 -118.164024 
L 746.469137 -116.449998 
L 746.469137 -114.735973 
L 746.469137 -113.021947 
L 746.469137 -111.307921 
L 746.469137 -109.593895 
L 746.469137 -107.879869 
L 746.469137 -106.165844 
L 746.469137 -104.451818 
L 746.469137 -102.737792 
L 746.469137 -101.023766 
L 746.469137 -99.30974 
L 746.469137 -97.595715 
L 746.469137 -95.881689 
L 746.469137 -94.167663 
L 746.469137 -92.453637 
L 746.469137 -90.739611 
L 746.469137 -89.025585 
L 746.469137 -87.31156 
L 746.469137 -85.597534 
L 746.469137 -83.883508 
L 746.469137 -82.169482 
L 746.469137 -80.455456 
L 746.469137 -78.741431 
L 746.469137 -77.027405 
L 746.469137 -75.313379 
z
"/>
    </defs>
    <g clip-path="url(#p830af71a4d)">
     <use xlink:href="#m8dd2c105a3" x="0" y="378.799603" style="fill: #81b2d5"/>
    </g>
   </g>
   <g id="PolyCollection_6">
    <defs>
     <path id="mda53748c85" d="M 770.483732 -88.252496 
L 769.087781 -88.252496 
L 769.087781 -89.557326 
L 769.087781 -90.862157 
L 769.087781 -92.166987 
L 769.087781 -93.471818 
L 769.087781 -94.776648 
L 769.087781 -96.081479 
L 769.087781 -97.386309 
L 769.087781 -98.69114 
L 769.087781 -99.99597 
L 769.087781 -101.300801 
L 769.087781 -102.605631 
L 769.087781 -103.910462 
L 769.087781 -105.215292 
L 769.087781 -106.520123 
L 769.087781 -107.824953 
L 769.087781 -109.129784 
L 769.087781 -110.434614 
L 769.087781 -111.739445 
L 769.087781 -113.044275 
L 769.087781 -114.349106 
L 769.087781 -115.653936 
L 769.087781 -116.958767 
L 769.087781 -118.263598 
L 769.087781 -119.568428 
L 769.087781 -120.873259 
L 769.087781 -122.178089 
L 769.087781 -123.48292 
L 769.087781 -124.78775 
L 769.087781 -126.092581 
L 769.087781 -127.397411 
L 769.087781 -128.702242 
L 769.087781 -130.007072 
L 769.087781 -131.311903 
L 769.087781 -132.616733 
L 769.087781 -133.921564 
L 769.087781 -135.226394 
L 769.087781 -136.531225 
L 769.087781 -137.836055 
L 769.087781 -139.140886 
L 769.087781 -140.445716 
L 769.087781 -141.750547 
L 769.087781 -143.055377 
L 769.087781 -144.360208 
L 769.087781 -145.665038 
L 769.087781 -146.969869 
L 769.087781 -148.274699 
L 769.087781 -149.57953 
L 769.087781 -150.88436 
L 769.087781 -152.189191 
L 769.087781 -153.494021 
L 769.087781 -154.798852 
L 769.087781 -156.103682 
L 769.087781 -157.408513 
L 769.087781 -158.713343 
L 769.087781 -160.018174 
L 769.087781 -161.323004 
L 769.087781 -162.627835 
L 769.087781 -163.932665 
L 769.087781 -165.237496 
L 769.087781 -166.542327 
L 769.087781 -167.847157 
L 769.087781 -169.151988 
L 769.087781 -170.456818 
L 769.087781 -171.761649 
L 769.087781 -173.066479 
L 769.087781 -174.37131 
L 769.087781 -175.67614 
L 769.087781 -176.980971 
L 769.087781 -178.285801 
L 769.087781 -179.590632 
L 769.087781 -180.895462 
L 769.087781 -182.200293 
L 769.087781 -183.505123 
L 769.087781 -184.809954 
L 769.087781 -186.114784 
L 769.087781 -187.419615 
L 769.087781 -188.724445 
L 769.087781 -190.029276 
L 769.087781 -191.334106 
L 769.087781 -192.638937 
L 769.087781 -193.943767 
L 769.087781 -195.248598 
L 769.087781 -196.553428 
L 769.087781 -197.858259 
L 769.087781 -199.163089 
L 769.087781 -200.46792 
L 769.087781 -201.77275 
L 769.087781 -203.077581 
L 769.087781 -204.382411 
L 769.087781 -205.687242 
L 769.087781 -206.992072 
L 769.087781 -208.296903 
L 769.087781 -209.601733 
L 769.087781 -210.906564 
L 769.087781 -212.211394 
L 769.087781 -213.516225 
L 769.087781 -214.821056 
L 769.087781 -216.125886 
L 769.087781 -217.430717 
L 769.278976 -217.430717 
L 769.278976 -217.430717 
L 769.368812 -216.125886 
L 769.486977 -214.821056 
L 769.635834 -213.516225 
L 769.8151 -212.211394 
L 770.02098 -210.906564 
L 770.245701 -209.601733 
L 770.477713 -208.296903 
L 770.702696 -206.992072 
L 770.90537 -205.687242 
L 771.071886 -204.382411 
L 771.192381 -203.077581 
L 771.263187 -201.77275 
L 771.288131 -200.46792 
L 771.27857 -199.163089 
L 771.251969 -197.858259 
L 771.229224 -196.553428 
L 771.231128 -195.248598 
L 771.274652 -193.943767 
L 771.369743 -192.638937 
L 771.51727 -191.334106 
L 771.708529 -190.029276 
L 771.926446 -188.724445 
L 772.148213 -187.419615 
L 772.348886 -186.114784 
L 772.505196 -184.809954 
L 772.598875 -183.505123 
L 772.618872 -182.200293 
L 772.562152 -180.895462 
L 772.433091 -179.590632 
L 772.241798 -178.285801 
L 772.00189 -176.980971 
L 771.728277 -175.67614 
L 771.435396 -174.37131 
L 771.136094 -173.066479 
L 770.841147 -171.761649 
L 770.559238 -170.456818 
L 770.297134 -169.151988 
L 770.059895 -167.847157 
L 769.850992 -166.542327 
L 769.672367 -165.237496 
L 769.524521 -163.932665 
L 769.406699 -162.627835 
L 769.317253 -161.323004 
L 769.254174 -160.018174 
L 769.215723 -158.713343 
L 769.201107 -157.408513 
L 769.211044 -156.103682 
L 769.248152 -154.798852 
L 769.31704 -153.494021 
L 769.424029 -152.189191 
L 769.576493 -150.88436 
L 769.781854 -149.57953 
L 770.046397 -148.274699 
L 770.374189 -146.969869 
L 770.766449 -145.665038 
L 771.221783 -144.360208 
L 771.737564 -143.055377 
L 772.312555 -141.750547 
L 772.950575 -140.445716 
L 773.664701 -139.140886 
L 774.481263 -137.836055 
L 775.442843 -136.531225 
L 776.609545 -135.226394 
L 778.058073 -133.921564 
L 779.878456 -132.616733 
L 782.168476 -131.311903 
L 785.026059 -130.007072 
L 788.539931 -128.702242 
L 792.778868 -127.397411 
L 797.779987 -126.092581 
L 803.536715 -124.78775 
L 809.987457 -123.48292 
L 817.006388 -122.178089 
L 824.398204 -120.873259 
L 831.898756 -119.568428 
L 839.183351 -118.263598 
L 845.883754 -116.958767 
L 851.613839 -115.653936 
L 856.002305 -114.349106 
L 858.729299 -113.044275 
L 859.562356 -111.739445 
L 858.386353 -110.434614 
L 855.222293 -109.129784 
L 850.231041 -107.824953 
L 843.700352 -106.520123 
L 836.016372 -105.215292 
L 827.623573 -103.910462 
L 818.979155 -102.605631 
L 810.508835 -101.300801 
L 802.570358 -99.99597 
L 795.429299 -98.69114 
L 789.249134 -97.386309 
L 784.094909 -96.081479 
L 779.947653 -94.776648 
L 776.7254 -93.471818 
L 774.306455 -92.166987 
L 772.551147 -90.862157 
L 771.319522 -89.557326 
L 770.483732 -88.252496 
z
"/>
    </defs>
    <g clip-path="url(#p830af71a4d)">
     <use xlink:href="#mda53748c85" x="0" y="378.799603" style="fill: #477aa7"/>
    </g>
   </g>
   <g id="patch_9">
    <path d="M 701.231849 283.802017 
L 701.231849 283.802017 
L 701.231849 283.802017 
L 701.231849 283.802017 
z
" clip-path="url(#p830af71a4d)" style="fill: #81b2d5"/>
   </g>
   <g id="patch_10">
    <path d="M 701.231849 283.802017 
L 701.231849 283.802017 
L 701.231849 283.802017 
L 701.231849 283.802017 
z
" clip-path="url(#p830af71a4d)" style="fill: #477aa7"/>
   </g>
   <g id="matplotlib.axis_5">
    <g id="xtick_5">
     <g id="line2d_30">
      <g>
       <use xlink:href="#m5383da24a4" x="701.231849" y="311.799603" style="stroke: #000000; stroke-width: 0.75"/>
      </g>
     </g>
     <g id="text_22">
      <text style="font: 15px &quot;Suisse Int&apos;l&quot;, sans-serif; text-anchor: middle" x="701.231849" y="332.674603" transform="rotate(-0 701.231849 332.674603)">4</text>
     </g>
    </g>
    <g id="xtick_6">
     <g id="line2d_31">
      <g>
       <use xlink:href="#m5383da24a4" x="814.325069" y="311.799603" style="stroke: #000000; stroke-width: 0.75"/>
      </g>
     </g>
     <g id="text_23">
      <text style="font: 15px &quot;Suisse Int&apos;l&quot;, sans-serif; text-anchor: middle" x="814.325069" y="332.674603" transform="rotate(-0 814.325069 332.674603)">21</text>
     </g>
    </g>
    <g id="text_24">
     <text style="font: 500 15px &quot;Suisse Int&apos;l&quot;, sans-serif; text-anchor: middle" x="757.778459" y="356.174603" transform="rotate(-0 757.778459 356.174603)">Time in water</text>
    </g>
   </g>
   <g id="matplotlib.axis_6">
    <g id="ytick_12">
     <g id="line2d_32">
      <g>
       <use xlink:href="#m2c0a822a2a" x="647.85185" y="283.802017" style="stroke: #000000; stroke-width: 0.75"/>
      </g>
     </g>
     <g id="text_25">
      <text style="font: 14.5px &quot;Suisse Int&apos;l Mono&quot;; text-anchor: end" x="637.85185" y="289.058267" transform="rotate(-0 637.85185 289.058267)">0</text>
     </g>
    </g>
    <g id="ytick_13">
     <g id="line2d_33">
      <g>
       <use xlink:href="#m2c0a822a2a" x="647.85185" y="235.649938" style="stroke: #000000; stroke-width: 0.75"/>
      </g>
     </g>
     <g id="text_26">
      <text style="font: 14.5px &quot;Suisse Int&apos;l Mono&quot;; text-anchor: end" x="637.85185" y="240.906188" transform="rotate(-0 637.85185 240.906188)">10</text>
     </g>
    </g>
    <g id="ytick_14">
     <g id="line2d_34">
      <g>
       <use xlink:href="#m2c0a822a2a" x="647.85185" y="187.49786" style="stroke: #000000; stroke-width: 0.75"/>
      </g>
     </g>
     <g id="text_27">
      <text style="font: 14.5px &quot;Suisse Int&apos;l Mono&quot;; text-anchor: end" x="637.85185" y="192.75411" transform="rotate(-0 637.85185 192.75411)">20</text>
     </g>
    </g>
    <g id="ytick_15">
     <g id="line2d_35">
      <g>
       <use xlink:href="#m2c0a822a2a" x="647.85185" y="139.345781" style="stroke: #000000; stroke-width: 0.75"/>
      </g>
     </g>
     <g id="text_28">
      <text style="font: 14.5px &quot;Suisse Int&apos;l Mono&quot;; text-anchor: end" x="637.85185" y="144.602031" transform="rotate(-0 637.85185 144.602031)">30</text>
     </g>
    </g>
    <g id="ytick_16">
     <g id="line2d_36">
      <g>
       <use xlink:href="#m2c0a822a2a" x="647.85185" y="91.193702" style="stroke: #000000; stroke-width: 0.75"/>
      </g>
     </g>
     <g id="text_29">
      <text style="font: 14.5px &quot;Suisse Int&apos;l Mono&quot;; text-anchor: end" x="637.85185" y="96.449952" transform="rotate(-0 637.85185 96.449952)">40</text>
     </g>
    </g>
    <g id="text_30">
     <text style="font: 500 15px &quot;Suisse Int&apos;l&quot;, sans-serif; text-anchor: middle" x="606.208725" y="199.568987" transform="rotate(-90 606.208725 199.568987)">Mean angular speed (rad/s)</text>
    </g>
   </g>
   <g id="line2d_37">
    <path d="M 743.969137 274.94025 
L 743.969137 253.139073 
" clip-path="url(#p830af71a4d)" style="fill: none; stroke: #474747; stroke-width: 1.666667; stroke-linecap: round"/>
   </g>
   <g id="line2d_38">
    <path d="M 743.969137 270.805499 
L 743.969137 260.32986 
" clip-path="url(#p830af71a4d)" style="fill: none; stroke: #474747; stroke-width: 5; stroke-linecap: round"/>
   </g>
   <g id="line2d_39">
    <path d="M 743.969137 266.765591 
" clip-path="url(#p830af71a4d)" style="fill: none; stroke: #474747; stroke-width: 2; stroke-linecap: round"/>
    <g clip-path="url(#p830af71a4d)">
     <use xlink:href="#m0c46f63b87" x="743.969137" y="266.765591" style="fill: #ffffff; stroke: #ffffff"/>
    </g>
   </g>
   <g id="line2d_40">
    <path d="M 771.587781 276.776919 
L 771.587781 249.886973 
" clip-path="url(#p830af71a4d)" style="fill: none; stroke: #474747; stroke-width: 1.666667; stroke-linecap: round"/>
   </g>
   <g id="line2d_41">
    <path d="M 771.587781 269.961564 
L 771.587781 261.17865 
" clip-path="url(#p830af71a4d)" style="fill: none; stroke: #474747; stroke-width: 5; stroke-linecap: round"/>
   </g>
   <g id="line2d_42">
    <path d="M 771.587781 266.489891 
" clip-path="url(#p830af71a4d)" style="fill: none; stroke: #474747; stroke-width: 2; stroke-linecap: round"/>
    <g clip-path="url(#p830af71a4d)">
     <use xlink:href="#m0c46f63b87" x="771.587781" y="266.489891" style="fill: #ffffff; stroke: #ffffff"/>
    </g>
   </g>
   <g id="line2d_43">
    <path d="M 735.159815 95.651749 
L 780.397103 95.651749 
" clip-path="url(#p830af71a4d)" style="fill: none; stroke: #000000; stroke-width: 2; stroke-linecap: round"/>
   </g>
   <g id="patch_11">
    <path d="M 647.85185 311.799603 
L 647.85185 87.33837 
" style="fill: none; stroke: #000000; stroke-width: 0.75; stroke-linejoin: miter; stroke-linecap: square"/>
   </g>
   <g id="patch_12">
    <path d="M 647.85185 311.799603 
L 867.705068 311.799603 
" style="fill: none; stroke: #000000; stroke-width: 0.75; stroke-linejoin: miter; stroke-linecap: square"/>
   </g>
   <g id="text_31">
    <text style="font: 16px &quot;Suisse Int&apos;l&quot;, sans-serif; text-anchor: middle" x="757.778459" y="86.244236" transform="rotate(-0 757.778459 86.244236)">ns</text>
   </g>
   <g id="legend_1">
    <g id="text_32">
     <text style="font: 600 16px &quot;Suisse Int&apos;l&quot;, sans-serif; text-anchor: start" x="824.078534" y="31.6" transform="rotate(-0 824.078534 31.6)">Time_in_water</text>
    </g>
    <g id="line2d_44">
     <path d="M 824.078534 41.9 
L 909.828534 41.9 
" style="fill: none; stroke: #bab0a8; stroke-width: 1.5; stroke-linecap: round"/>
    </g>
    <g id="patch_13">
     <path d="M 824.078534 64.775 
L 839.078534 64.775 
L 839.078534 49.4 
L 824.078534 49.4 
z
" style="fill: #81b2d5"/>
    </g>
    <g id="text_33">
     <text style="font: 15px &quot;Suisse Int&apos;l&quot;, sans-serif; text-anchor: start" x="845.078534" y="62.15" transform="rotate(-0 845.078534 62.15)">4 | n=26</text>
    </g>
    <g id="patch_14">
     <path d="M 824.078534 87.65 
L 839.078534 87.65 
L 839.078534 72.275 
L 824.078534 72.275 
z
" style="fill: #477aa7"/>
    </g>
    <g id="text_34">
     <text style="font: 15px &quot;Suisse Int&apos;l&quot;, sans-serif; text-anchor: start" x="845.078534" y="85.025" transform="rotate(-0 845.078534 85.025)">21 | n=119</text>
    </g>
   </g>
  </g>
 </g>
 <defs>
  <clipPath id="pd82cfcb269">
   <rect x="81.598281" y="87.33837" width="219.853218" height="224.461233"/>
  </clipPath>
  <clipPath id="pbc426f2420">
   <rect x="369.347175" y="87.33837" width="219.853218" height="224.461233"/>
  </clipPath>
  <clipPath id="p830af71a4d">
   <rect x="647.85185" y="87.33837" width="219.853218" height="224.461233"/>
  </clipPath>
 </defs>
</svg>
