<?xml version="1.0" encoding="utf-8" standalone="no"?>
<!DOCTYPE svg PUBLIC "-//W3C//DTD SVG 1.1//EN"
  "http://www.w3.org/Graphics/SVG/1.1/DTD/svg11.dtd">
<svg xmlns:xlink="http://www.w3.org/1999/xlink" width="972pt" height="252pt" viewBox="0 0 972 252" xmlns="http://www.w3.org/2000/svg" version="1.1">
 <metadata>
  <rdf:RDF xmlns:dc="http://purl.org/dc/elements/1.1/" xmlns:cc="http://creativecommons.org/ns#" xmlns:rdf="http://www.w3.org/1999/02/22-rdf-syntax-ns#">
   <cc:Work>
    <dc:type rdf:resource="http://purl.org/dc/dcmitype/StillImage"/>
    <dc:date>2024-07-22T14:56:26.145369</dc:date>
    <dc:format>image/svg+xml</dc:format>
    <dc:creator>
     <cc:Agent>
      <dc:title>Matplotlib v3.8.4, https://matplotlib.org/</dc:title>
     </cc:Agent>
    </dc:creator>
   </cc:Work>
  </rdf:RDF>
 </metadata>
 <defs>
  <style type="text/css">*{stroke-linejoin: round; stroke-linecap: butt}</style>
 </defs>
 <g id="figure_1">
  <g id="patch_1">
   <path d="M 0 252 
L 972 252 
L 972 0 
L 0 0 
L 0 252 
z
" style="fill: none"/>
  </g>
  <g id="axes_1">
   <g id="patch_2">
    <path d="M 73.95 187.8 
L 295.194118 187.8 
L 295.194118 57.665008 
L 73.95 57.665008 
L 73.95 187.8 
z
" style="fill: none"/>
   </g>
   <g id="PolyCollection_1">
    <defs>
     <path id="m527a42e962" d="M 173.191189 -71.427476 
L 170.208865 -71.427476 
L 168.772036 -72.479808 
L 166.816832 -73.532139 
L 164.238469 -74.584471 
L 160.944468 -75.636802 
L 156.869105 -76.689133 
L 151.988467 -77.741465 
L 146.333607 -78.793796 
L 139.998926 -79.846128 
L 133.143178 -80.898459 
L 125.981449 -81.950791 
L 118.767998 -83.003122 
L 111.771753 -84.055453 
L 105.247985 -85.107785 
L 99.410929 -86.160116 
L 94.412298 -87.212448 
L 90.329768 -88.264779 
L 87.167591 -89.317111 
L 84.869005 -90.369442 
L 83.337576 -91.421774 
L 82.462769 -92.474105 
L 82.144227 -93.526436 
L 82.309757 -94.578768 
L 82.923696 -95.631099 
L 83.984666 -96.683431 
L 85.514201 -97.735762 
L 87.539698 -98.788094 
L 90.076133 -99.840425 
L 93.110891 -100.892757 
L 96.594987 -101.945088 
L 100.44223 -102.997419 
L 104.535999 -104.049751 
L 108.741759 -105.102082 
L 112.922472 -106.154414 
L 116.95384 -107.206745 
L 120.73681 -108.259077 
L 124.20566 -109.311408 
L 127.331076 -110.363739 
L 130.118563 -111.416071 
L 132.603193 -112.468402 
L 134.841965 -113.520734 
L 136.904999 -114.573065 
L 138.866584 -115.625397 
L 140.796796 -116.677728 
L 142.754233 -117.73006 
L 144.780252 -118.782391 
L 146.895091 -119.834722 
L 149.096161 -120.887054 
L 151.358726 -121.939385 
L 153.638942 -122.991717 
L 155.878979 -124.044048 
L 158.013694 -125.09638 
L 159.978062 -126.148711 
L 161.71452 -127.201043 
L 163.179367 -128.253374 
L 164.347527 -129.305705 
L 165.215173 -130.358037 
L 165.799991 -131.410368 
L 166.139129 -132.4627 
L 166.285099 -133.515031 
L 166.300174 -134.567363 
L 166.24994 -135.619694 
L 166.196782 -136.672026 
L 166.194092 -137.724357 
L 166.281834 -138.776688 
L 166.483952 -139.82902 
L 166.807785 -140.881351 
L 167.245383 -141.933683 
L 167.77636 -142.986014 
L 168.371708 -144.038346 
L 168.997986 -145.090677 
L 169.621249 -146.143008 
L 170.210314 -147.19534 
L 170.739062 -148.247671 
L 171.187744 -149.300003 
L 171.543397 -150.352334 
L 171.79963 -151.404666 
L 171.956027 -152.456997 
L 172.017457 -153.509329 
L 171.993409 -154.56166 
L 171.897417 -155.613991 
L 171.746477 -156.666323 
L 171.560346 -157.718654 
L 171.360543 -158.770986 
L 171.169014 -159.823317 
L 171.00647 -160.875649 
L 170.890578 -161.92798 
L 170.83428 -162.980312 
L 170.844525 -164.032643 
L 170.921702 -165.084974 
L 171.059892 -166.137306 
L 171.247931 -167.189637 
L 171.471106 -168.241969 
L 171.713167 -169.2943 
L 171.958329 -170.346632 
L 172.192932 -171.398963 
L 172.406562 -172.451294 
L 172.592537 -173.503626 
L 172.747809 -174.555957 
L 172.872427 -175.608289 
L 173.191189 -175.608289 
L 173.191189 -175.608289 
L 173.191189 -174.555957 
L 173.191189 -173.503626 
L 173.191189 -172.451294 
L 173.191189 -171.398963 
L 173.191189 -170.346632 
L 173.191189 -169.2943 
L 173.191189 -168.241969 
L 173.191189 -167.189637 
L 173.191189 -166.137306 
L 173.191189 -165.084974 
L 173.191189 -164.032643 
L 173.191189 -162.980312 
L 173.191189 -161.92798 
L 173.191189 -160.875649 
L 173.191189 -159.823317 
L 173.191189 -158.770986 
L 173.191189 -157.718654 
L 173.191189 -156.666323 
L 173.191189 -155.613991 
L 173.191189 -154.56166 
L 173.191189 -153.509329 
L 173.191189 -152.456997 
L 173.191189 -151.404666 
L 173.191189 -150.352334 
L 173.191189 -149.300003 
L 173.191189 -148.247671 
L 173.191189 -147.19534 
L 173.191189 -146.143008 
L 173.191189 -145.090677 
L 173.191189 -144.038346 
L 173.191189 -142.986014 
L 173.191189 -141.933683 
L 173.191189 -140.881351 
L 173.191189 -139.82902 
L 173.191189 -138.776688 
L 173.191189 -137.724357 
L 173.191189 -136.672026 
L 173.191189 -135.619694 
L 173.191189 -134.567363 
L 173.191189 -133.515031 
L 173.191189 -132.4627 
L 173.191189 -131.410368 
L 173.191189 -130.358037 
L 173.191189 -129.305705 
L 173.191189 -128.253374 
L 173.191189 -127.201043 
L 173.191189 -126.148711 
L 173.191189 -125.09638 
L 173.191189 -124.044048 
L 173.191189 -122.991717 
L 173.191189 -121.939385 
L 173.191189 -120.887054 
L 173.191189 -119.834722 
L 173.191189 -118.782391 
L 173.191189 -117.73006 
L 173.191189 -116.677728 
L 173.191189 -115.625397 
L 173.191189 -114.573065 
L 173.191189 -113.520734 
L 173.191189 -112.468402 
L 173.191189 -111.416071 
L 173.191189 -110.363739 
L 173.191189 -109.311408 
L 173.191189 -108.259077 
L 173.191189 -107.206745 
L 173.191189 -106.154414 
L 173.191189 -105.102082 
L 173.191189 -104.049751 
L 173.191189 -102.997419 
L 173.191189 -101.945088 
L 173.191189 -100.892757 
L 173.191189 -99.840425 
L 173.191189 -98.788094 
L 173.191189 -97.735762 
L 173.191189 -96.683431 
L 173.191189 -95.631099 
L 173.191189 -94.578768 
L 173.191189 -93.526436 
L 173.191189 -92.474105 
L 173.191189 -91.421774 
L 173.191189 -90.369442 
L 173.191189 -89.317111 
L 173.191189 -88.264779 
L 173.191189 -87.212448 
L 173.191189 -86.160116 
L 173.191189 -85.107785 
L 173.191189 -84.055453 
L 173.191189 -83.003122 
L 173.191189 -81.950791 
L 173.191189 -80.898459 
L 173.191189 -79.846128 
L 173.191189 -78.793796 
L 173.191189 -77.741465 
L 173.191189 -76.689133 
L 173.191189 -75.636802 
L 173.191189 -74.584471 
L 173.191189 -73.532139 
L 173.191189 -72.479808 
L 173.191189 -71.427476 
z
"/>
    </defs>
    <g clip-path="url(#p9f7955d2f2)">
     <use xlink:href="#m527a42e962" x="0" y="252" style="fill: #b4bba7"/>
    </g>
   </g>
   <g id="PolyCollection_2">
    <defs>
     <path id="m76f1a1a683" d="M 199.382939 -69.019815 
L 195.952929 -69.019815 
L 195.952929 -69.930687 
L 195.952929 -70.841559 
L 195.952929 -71.752431 
L 195.952929 -72.663304 
L 195.952929 -73.574176 
L 195.952929 -74.485048 
L 195.952929 -75.395921 
L 195.952929 -76.306793 
L 195.952929 -77.217665 
L 195.952929 -78.128538 
L 195.952929 -79.03941 
L 195.952929 -79.950282 
L 195.952929 -80.861155 
L 195.952929 -81.772027 
L 195.952929 -82.682899 
L 195.952929 -83.593772 
L 195.952929 -84.504644 
L 195.952929 -85.415516 
L 195.952929 -86.326389 
L 195.952929 -87.237261 
L 195.952929 -88.148133 
L 195.952929 -89.059006 
L 195.952929 -89.969878 
L 195.952929 -90.88075 
L 195.952929 -91.791623 
L 195.952929 -92.702495 
L 195.952929 -93.613367 
L 195.952929 -94.52424 
L 195.952929 -95.435112 
L 195.952929 -96.345984 
L 195.952929 -97.256857 
L 195.952929 -98.167729 
L 195.952929 -99.078601 
L 195.952929 -99.989474 
L 195.952929 -100.900346 
L 195.952929 -101.811218 
L 195.952929 -102.72209 
L 195.952929 -103.632963 
L 195.952929 -104.543835 
L 195.952929 -105.454707 
L 195.952929 -106.36558 
L 195.952929 -107.276452 
L 195.952929 -108.187324 
L 195.952929 -109.098197 
L 195.952929 -110.009069 
L 195.952929 -110.919941 
L 195.952929 -111.830814 
L 195.952929 -112.741686 
L 195.952929 -113.652558 
L 195.952929 -114.563431 
L 195.952929 -115.474303 
L 195.952929 -116.385175 
L 195.952929 -117.296048 
L 195.952929 -118.20692 
L 195.952929 -119.117792 
L 195.952929 -120.028665 
L 195.952929 -120.939537 
L 195.952929 -121.850409 
L 195.952929 -122.761282 
L 195.952929 -123.672154 
L 195.952929 -124.583026 
L 195.952929 -125.493899 
L 195.952929 -126.404771 
L 195.952929 -127.315643 
L 195.952929 -128.226516 
L 195.952929 -129.137388 
L 195.952929 -130.04826 
L 195.952929 -130.959133 
L 195.952929 -131.870005 
L 195.952929 -132.780877 
L 195.952929 -133.69175 
L 195.952929 -134.602622 
L 195.952929 -135.513494 
L 195.952929 -136.424366 
L 195.952929 -137.335239 
L 195.952929 -138.246111 
L 195.952929 -139.156983 
L 195.952929 -140.067856 
L 195.952929 -140.978728 
L 195.952929 -141.8896 
L 195.952929 -142.800473 
L 195.952929 -143.711345 
L 195.952929 -144.622217 
L 195.952929 -145.53309 
L 195.952929 -146.443962 
L 195.952929 -147.354834 
L 195.952929 -148.265707 
L 195.952929 -149.176579 
L 195.952929 -150.087451 
L 195.952929 -150.998324 
L 195.952929 -151.909196 
L 195.952929 -152.820068 
L 195.952929 -153.730941 
L 195.952929 -154.641813 
L 195.952929 -155.552685 
L 195.952929 -156.463558 
L 195.952929 -157.37443 
L 195.952929 -158.285302 
L 195.952929 -159.196175 
L 197.118207 -159.196175 
L 197.118207 -159.196175 
L 197.446421 -158.285302 
L 197.841921 -157.37443 
L 198.31097 -156.463558 
L 198.858368 -155.552685 
L 199.48689 -154.641813 
L 200.196764 -153.730941 
L 200.985227 -152.820068 
L 201.846221 -151.909196 
L 202.770277 -150.998324 
L 203.744613 -150.087451 
L 204.753487 -149.176579 
L 205.778782 -148.265707 
L 206.800813 -147.354834 
L 207.799313 -146.443962 
L 208.754515 -145.53309 
L 209.648283 -144.622217 
L 210.465184 -143.711345 
L 211.19345 -142.800473 
L 211.825746 -141.8896 
L 212.359719 -140.978728 
L 212.798292 -140.067856 
L 213.149714 -139.156983 
L 213.427364 -138.246111 
L 213.649364 -137.335239 
L 213.838013 -136.424366 
L 214.019091 -135.513494 
L 214.221059 -134.602622 
L 214.474171 -133.69175 
L 214.809523 -132.780877 
L 215.258044 -131.870005 
L 215.849437 -130.959133 
L 216.611095 -130.04826 
L 217.567022 -129.137388 
L 218.736798 -128.226516 
L 220.134654 -127.315643 
L 221.768719 -126.404771 
L 223.640512 -125.493899 
L 225.744745 -124.583026 
L 228.069473 -123.672154 
L 230.596626 -122.761282 
L 233.302882 -121.850409 
L 236.160849 -120.939537 
L 239.140454 -120.028665 
L 242.210422 -119.117792 
L 245.339713 -118.20692 
L 248.498777 -117.296048 
L 251.660507 -116.385175 
L 254.80079 -115.474303 
L 257.898619 -114.563431 
L 260.93576 -113.652558 
L 263.896037 -112.741686 
L 266.764343 -111.830814 
L 269.525526 -110.919941 
L 272.163325 -110.009069 
L 274.659532 -109.098197 
L 276.993523 -108.187324 
L 279.142275 -107.276452 
L 281.080911 -106.36558 
L 282.783747 -105.454707 
L 284.225738 -104.543835 
L 285.384162 -103.632963 
L 286.24033 -102.72209 
L 286.781085 -101.811218 
L 286.999891 -100.900346 
L 286.897318 -99.989474 
L 286.480845 -99.078601 
L 285.763953 -98.167729 
L 284.764604 -97.256857 
L 283.503282 -96.345984 
L 282.000817 -95.435112 
L 280.276303 -94.52424 
L 278.345358 -93.613367 
L 276.218981 -92.702495 
L 273.903167 -91.791623 
L 271.399355 -90.88075 
L 268.705668 -89.969878 
L 265.818805 -89.059006 
L 262.736355 -88.148133 
L 259.45925 -87.237261 
L 255.994047 -86.326389 
L 252.354748 -85.415516 
L 248.56394 -84.504644 
L 244.653075 -83.593772 
L 240.661872 -82.682899 
L 236.636868 -81.772027 
L 232.629283 -80.861155 
L 228.692403 -79.950282 
L 224.878754 -79.03941 
L 221.237327 -78.128538 
L 217.811114 -77.217665 
L 214.63515 -76.306793 
L 211.735199 -75.395921 
L 209.12714 -74.485048 
L 206.81704 -73.574176 
L 204.801839 -72.663304 
L 203.070522 -71.752431 
L 201.605616 -70.841559 
L 200.384868 -69.930687 
L 199.382939 -69.019815 
z
"/>
    </defs>
    <g clip-path="url(#p9f7955d2f2)">
     <use xlink:href="#m76f1a1a683" x="0" y="252" style="fill: #5c6d71"/>
    </g>
   </g>
   <g id="matplotlib.axis_1">
    <g id="xtick_1">
     <g id="line2d_1">
      <defs>
       <path id="m9e6e563ac1" d="M 0 0 
L 0 5 
" style="stroke: #000000; stroke-width: 0.75"/>
      </defs>
      <g>
       <use xlink:href="#m9e6e563ac1" x="127.667708" y="187.8" style="stroke: #000000; stroke-width: 0.75"/>
      </g>
     </g>
     <g id="text_1">
      <text style="font: 15px &quot;Suisse Int&apos;l&quot;, sans-serif; text-anchor: middle" x="127.667708" y="208.675" transform="rotate(-0 127.667708 208.675)">top</text>
     </g>
    </g>
    <g id="xtick_2">
     <g id="line2d_2">
      <g>
       <use xlink:href="#m9e6e563ac1" x="241.47641" y="187.8" style="stroke: #000000; stroke-width: 0.75"/>
      </g>
     </g>
     <g id="text_2">
      <text style="font: 15px &quot;Suisse Int&apos;l&quot;, sans-serif; text-anchor: middle" x="241.47641" y="208.675" transform="rotate(-0 241.47641 208.675)">middle</text>
     </g>
    </g>
    <g id="text_3">
     <text style="font: 500 15px &quot;Suisse Int&apos;l&quot;, sans-serif; text-anchor: middle" x="184.572059" y="232.175" transform="rotate(-0 184.572059 232.175)">Position_in_tube</text>
    </g>
   </g>
   <g id="matplotlib.axis_2">
    <g id="ytick_1">
     <g id="line2d_3">
      <defs>
       <path id="m5971aea14e" d="M 0 0 
L -5 0 
" style="stroke: #000000; stroke-width: 0.75"/>
      </defs>
      <g>
       <use xlink:href="#m5971aea14e" x="73.95" y="168.561665" style="stroke: #000000; stroke-width: 0.75"/>
      </g>
     </g>
     <g id="text_4">
      <text style="font: 15px &quot;Suisse Int&apos;l&quot;, sans-serif; text-anchor: end" x="63.95" y="173.999165" transform="rotate(-0 63.95 173.999165)">0.0</text>
     </g>
    </g>
    <g id="ytick_2">
     <g id="line2d_4">
      <g>
       <use xlink:href="#m5971aea14e" x="73.95" y="135.332668" style="stroke: #000000; stroke-width: 0.75"/>
      </g>
     </g>
     <g id="text_5">
      <text style="font: 15px &quot;Suisse Int&apos;l&quot;, sans-serif; text-anchor: end" x="63.95" y="140.770168" transform="rotate(-0 63.95 140.770168)">0.2</text>
     </g>
    </g>
    <g id="ytick_3">
     <g id="line2d_5">
      <g>
       <use xlink:href="#m5971aea14e" x="73.95" y="102.103671" style="stroke: #000000; stroke-width: 0.75"/>
      </g>
     </g>
     <g id="text_6">
      <text style="font: 15px &quot;Suisse Int&apos;l&quot;, sans-serif; text-anchor: end" x="63.95" y="107.541171" transform="rotate(-0 63.95 107.541171)">0.4</text>
     </g>
    </g>
    <g id="ytick_4">
     <g id="line2d_6">
      <g>
       <use xlink:href="#m5971aea14e" x="73.95" y="68.874673" style="stroke: #000000; stroke-width: 0.75"/>
      </g>
     </g>
     <g id="text_7">
      <text style="font: 15px &quot;Suisse Int&apos;l&quot;, sans-serif; text-anchor: end" x="63.95" y="74.312173" transform="rotate(-0 63.95 74.312173)">0.6</text>
     </g>
    </g>
    <g id="text_8">
     <text style="font: 500 15px &quot;Suisse Int&apos;l&quot;, sans-serif; text-anchor: middle" x="27.821875" y="122.732504" transform="rotate(-90 27.821875 122.732504)">Confinement_ratio</text>
    </g>
   </g>
   <g id="line2d_7">
    <path d="M 170.691189 168.366142 
L 170.691189 127.159602 
" clip-path="url(#p9f7955d2f2)" style="fill: none; stroke: #3e3e3e; stroke-width: 1.666667; stroke-linecap: round"/>
   </g>
   <g id="line2d_8">
    <path d="M 170.691189 162.221608 
L 170.691189 145.885958 
" clip-path="url(#p9f7955d2f2)" style="fill: none; stroke: #3e3e3e; stroke-width: 5; stroke-linecap: round"/>
   </g>
   <g id="line2d_9">
    <path d="M 170.691189 154.630971 
" clip-path="url(#p9f7955d2f2)" style="fill: none; stroke: #3e3e3e; stroke-width: 2; stroke-linecap: round"/>
    <defs>
     <path id="mcc69b9f171" d="M 2.083333 0 
L -2.083333 -0 
" style="stroke: #ffffff"/>
    </defs>
    <g clip-path="url(#p9f7955d2f2)">
     <use xlink:href="#mcc69b9f171" x="170.691189" y="154.630971" style="fill: #ffffff; stroke: #ffffff"/>
    </g>
   </g>
   <g id="line2d_10">
    <path d="M 198.452929 167.676351 
L 198.452929 108.10766 
" clip-path="url(#p9f7955d2f2)" style="fill: none; stroke: #3e3e3e; stroke-width: 1.666667; stroke-linecap: round"/>
   </g>
   <g id="line2d_11">
    <path d="M 198.452929 159.333904 
L 198.452929 138.313257 
" clip-path="url(#p9f7955d2f2)" style="fill: none; stroke: #3e3e3e; stroke-width: 5; stroke-linecap: round"/>
   </g>
   <g id="line2d_12">
    <path d="M 198.452929 150.152433 
" clip-path="url(#p9f7955d2f2)" style="fill: none; stroke: #3e3e3e; stroke-width: 2; stroke-linecap: round"/>
    <g clip-path="url(#p9f7955d2f2)">
     <use xlink:href="#mcc69b9f171" x="198.452929" y="150.152433" style="fill: #ffffff; stroke: #ffffff"/>
    </g>
   </g>
   <g id="line2d_13">
    <path d="M 161.810318 62.484823 
L 207.333799 62.484823 
" clip-path="url(#p9f7955d2f2)" style="fill: none; stroke: #000000; stroke-width: 2; stroke-linecap: round"/>
   </g>
   <g id="patch_3">
    <path d="M 73.95 187.8 
L 73.95 57.665008 
" style="fill: none; stroke: #000000; stroke-width: 0.75; stroke-linejoin: miter; stroke-linecap: square"/>
   </g>
   <g id="patch_4">
    <path d="M 73.95 187.8 
L 295.194118 187.8 
" style="fill: none; stroke: #000000; stroke-width: 0.75; stroke-linejoin: miter; stroke-linecap: square"/>
   </g>
   <g id="text_9">
    <text style="font: 12px &quot;Suisse Int&apos;l&quot;, sans-serif; text-anchor: middle" x="184.572059" y="57.180981" transform="rotate(-0 184.572059 57.180981)">NS</text>
   </g>
  </g>
  <g id="axes_2">
   <g id="patch_5">
    <path d="M 371.019118 187.8 
L 592.263235 187.8 
L 592.263235 57.665008 
L 371.019118 57.665008 
L 371.019118 187.8 
z
" style="fill: none"/>
   </g>
   <g id="PolyCollection_3">
    <defs>
     <path id="m3d6351f6e6" d="M 470.260306 -69.019815 
L 468.065027 -69.019815 
L 467.295202 -70.0943 
L 466.331206 -71.168785 
L 465.1514 -72.24327 
L 463.740447 -73.317755 
L 462.0919 -74.39224 
L 460.210397 -75.466725 
L 458.113035 -76.54121 
L 455.829557 -77.615695 
L 453.401069 -78.69018 
L 450.877195 -79.764665 
L 448.311785 -80.83915 
L 445.757548 -81.913635 
L 443.260213 -82.98812 
L 440.852945 -84.062605 
L 438.551824 -85.13709 
L 436.353098 -86.211576 
L 434.232726 -87.286061 
L 432.148442 -88.360546 
L 430.044214 -89.435031 
L 427.856643 -90.509516 
L 425.522562 -91.584001 
L 422.986946 -92.658486 
L 420.210175 -93.732971 
L 417.173813 -94.807456 
L 413.884237 -95.881941 
L 410.373749 -96.956426 
L 406.69908 -98.030911 
L 402.937523 -99.105396 
L 399.18112 -100.179881 
L 395.529585 -101.254366 
L 392.082656 -102.328851 
L 388.932683 -103.403337 
L 386.158129 -104.477822 
L 383.818602 -105.552307 
L 381.951842 -106.626792 
L 380.572886 -107.701277 
L 379.675388 -108.775762 
L 379.234857 -109.850247 
L 379.213344 -110.924732 
L 379.564951 -111.999217 
L 380.241437 -113.073702 
L 381.197219 -114.148187 
L 382.393163 -115.222672 
L 383.798753 -116.297157 
L 385.3925 -117.371642 
L 387.160734 -118.446127 
L 389.095167 -119.520612 
L 391.189804 -120.595098 
L 393.437852 -121.669583 
L 395.82919 -122.744068 
L 398.34884 -123.818553 
L 400.976604 -124.893038 
L 403.687782 -125.967523 
L 406.45469 -127.042008 
L 409.248538 -128.116493 
L 412.041239 -129.190978 
L 414.806789 -130.265463 
L 417.522054 -131.339948 
L 420.166969 -132.414433 
L 422.724344 -133.488918 
L 425.179549 -134.563403 
L 427.520344 -135.637888 
L 429.737052 -136.712373 
L 431.823104 -137.786859 
L 433.775823 -138.861344 
L 435.597221 -139.935829 
L 437.2945 -141.010314 
L 438.880005 -142.084799 
L 440.370499 -143.159284 
L 441.785752 -144.233769 
L 443.146642 -145.308254 
L 444.473053 -146.382739 
L 445.781928 -147.457224 
L 447.085787 -148.531709 
L 448.391945 -149.606194 
L 449.702515 -150.680679 
L 451.015105 -151.755164 
L 452.324029 -152.829649 
L 453.621752 -153.904134 
L 454.900262 -154.97862 
L 456.152162 -156.053105 
L 457.371294 -157.12759 
L 458.552903 -158.202075 
L 459.693381 -159.27656 
L 460.789759 -160.351045 
L 461.839132 -161.42553 
L 462.838178 -162.500015 
L 463.782917 -163.5745 
L 464.668746 -164.648985 
L 465.490756 -165.72347 
L 466.24424 -166.797955 
L 466.925283 -167.87244 
L 467.531323 -168.946925 
L 468.061565 -170.02141 
L 468.517202 -171.095896 
L 468.901395 -172.170381 
L 469.21906 -173.244866 
L 469.476483 -174.319351 
L 469.680849 -175.393836 
L 470.260306 -175.393836 
L 470.260306 -175.393836 
L 470.260306 -174.319351 
L 470.260306 -173.244866 
L 470.260306 -172.170381 
L 470.260306 -171.095896 
L 470.260306 -170.02141 
L 470.260306 -168.946925 
L 470.260306 -167.87244 
L 470.260306 -166.797955 
L 470.260306 -165.72347 
L 470.260306 -164.648985 
L 470.260306 -163.5745 
L 470.260306 -162.500015 
L 470.260306 -161.42553 
L 470.260306 -160.351045 
L 470.260306 -159.27656 
L 470.260306 -158.202075 
L 470.260306 -157.12759 
L 470.260306 -156.053105 
L 470.260306 -154.97862 
L 470.260306 -153.904134 
L 470.260306 -152.829649 
L 470.260306 -151.755164 
L 470.260306 -150.680679 
L 470.260306 -149.606194 
L 470.260306 -148.531709 
L 470.260306 -147.457224 
L 470.260306 -146.382739 
L 470.260306 -145.308254 
L 470.260306 -144.233769 
L 470.260306 -143.159284 
L 470.260306 -142.084799 
L 470.260306 -141.010314 
L 470.260306 -139.935829 
L 470.260306 -138.861344 
L 470.260306 -137.786859 
L 470.260306 -136.712373 
L 470.260306 -135.637888 
L 470.260306 -134.563403 
L 470.260306 -133.488918 
L 470.260306 -132.414433 
L 470.260306 -131.339948 
L 470.260306 -130.265463 
L 470.260306 -129.190978 
L 470.260306 -128.116493 
L 470.260306 -127.042008 
L 470.260306 -125.967523 
L 470.260306 -124.893038 
L 470.260306 -123.818553 
L 470.260306 -122.744068 
L 470.260306 -121.669583 
L 470.260306 -120.595098 
L 470.260306 -119.520612 
L 470.260306 -118.446127 
L 470.260306 -117.371642 
L 470.260306 -116.297157 
L 470.260306 -115.222672 
L 470.260306 -114.148187 
L 470.260306 -113.073702 
L 470.260306 -111.999217 
L 470.260306 -110.924732 
L 470.260306 -109.850247 
L 470.260306 -108.775762 
L 470.260306 -107.701277 
L 470.260306 -106.626792 
L 470.260306 -105.552307 
L 470.260306 -104.477822 
L 470.260306 -103.403337 
L 470.260306 -102.328851 
L 470.260306 -101.254366 
L 470.260306 -100.179881 
L 470.260306 -99.105396 
L 470.260306 -98.030911 
L 470.260306 -96.956426 
L 470.260306 -95.881941 
L 470.260306 -94.807456 
L 470.260306 -93.732971 
L 470.260306 -92.658486 
L 470.260306 -91.584001 
L 470.260306 -90.509516 
L 470.260306 -89.435031 
L 470.260306 -88.360546 
L 470.260306 -87.286061 
L 470.260306 -86.211576 
L 470.260306 -85.13709 
L 470.260306 -84.062605 
L 470.260306 -82.98812 
L 470.260306 -81.913635 
L 470.260306 -80.83915 
L 470.260306 -79.764665 
L 470.260306 -78.69018 
L 470.260306 -77.615695 
L 470.260306 -76.54121 
L 470.260306 -75.466725 
L 470.260306 -74.39224 
L 470.260306 -73.317755 
L 470.260306 -72.24327 
L 470.260306 -71.168785 
L 470.260306 -70.0943 
L 470.260306 -69.019815 
z
"/>
    </defs>
    <g clip-path="url(#pec7eedae70)">
     <use xlink:href="#m3d6351f6e6" x="0" y="252" style="fill: #b4bba7"/>
    </g>
   </g>
   <g id="PolyCollection_4">
    <defs>
     <path id="m6f0e299150" d="M 494.041015 -71.837269 
L 493.022047 -71.837269 
L 493.022047 -72.688576 
L 493.022047 -73.539883 
L 493.022047 -74.39119 
L 493.022047 -75.242497 
L 493.022047 -76.093805 
L 493.022047 -76.945112 
L 493.022047 -77.796419 
L 493.022047 -78.647726 
L 493.022047 -79.499033 
L 493.022047 -80.35034 
L 493.022047 -81.201648 
L 493.022047 -82.052955 
L 493.022047 -82.904262 
L 493.022047 -83.755569 
L 493.022047 -84.606876 
L 493.022047 -85.458183 
L 493.022047 -86.309491 
L 493.022047 -87.160798 
L 493.022047 -88.012105 
L 493.022047 -88.863412 
L 493.022047 -89.714719 
L 493.022047 -90.566026 
L 493.022047 -91.417334 
L 493.022047 -92.268641 
L 493.022047 -93.119948 
L 493.022047 -93.971255 
L 493.022047 -94.822562 
L 493.022047 -95.673869 
L 493.022047 -96.525177 
L 493.022047 -97.376484 
L 493.022047 -98.227791 
L 493.022047 -99.079098 
L 493.022047 -99.930405 
L 493.022047 -100.781712 
L 493.022047 -101.63302 
L 493.022047 -102.484327 
L 493.022047 -103.335634 
L 493.022047 -104.186941 
L 493.022047 -105.038248 
L 493.022047 -105.889555 
L 493.022047 -106.740863 
L 493.022047 -107.59217 
L 493.022047 -108.443477 
L 493.022047 -109.294784 
L 493.022047 -110.146091 
L 493.022047 -110.997398 
L 493.022047 -111.848706 
L 493.022047 -112.700013 
L 493.022047 -113.55132 
L 493.022047 -114.402627 
L 493.022047 -115.253934 
L 493.022047 -116.105241 
L 493.022047 -116.956549 
L 493.022047 -117.807856 
L 493.022047 -118.659163 
L 493.022047 -119.51047 
L 493.022047 -120.361777 
L 493.022047 -121.213084 
L 493.022047 -122.064391 
L 493.022047 -122.915699 
L 493.022047 -123.767006 
L 493.022047 -124.618313 
L 493.022047 -125.46962 
L 493.022047 -126.320927 
L 493.022047 -127.172234 
L 493.022047 -128.023542 
L 493.022047 -128.874849 
L 493.022047 -129.726156 
L 493.022047 -130.577463 
L 493.022047 -131.42877 
L 493.022047 -132.280077 
L 493.022047 -133.131385 
L 493.022047 -133.982692 
L 493.022047 -134.833999 
L 493.022047 -135.685306 
L 493.022047 -136.536613 
L 493.022047 -137.38792 
L 493.022047 -138.239228 
L 493.022047 -139.090535 
L 493.022047 -139.941842 
L 493.022047 -140.793149 
L 493.022047 -141.644456 
L 493.022047 -142.495763 
L 493.022047 -143.347071 
L 493.022047 -144.198378 
L 493.022047 -145.049685 
L 493.022047 -145.900992 
L 493.022047 -146.752299 
L 493.022047 -147.603606 
L 493.022047 -148.454914 
L 493.022047 -149.306221 
L 493.022047 -150.157528 
L 493.022047 -151.008835 
L 493.022047 -151.860142 
L 493.022047 -152.711449 
L 493.022047 -153.562757 
L 493.022047 -154.414064 
L 493.022047 -155.265371 
L 493.022047 -156.116678 
L 494.260671 -156.116678 
L 494.260671 -156.116678 
L 494.633067 -155.265371 
L 495.084183 -154.414064 
L 495.619983 -153.562757 
L 496.243714 -152.711449 
L 496.955077 -151.860142 
L 497.749529 -151.008835 
L 498.617818 -150.157528 
L 499.545837 -149.306221 
L 500.514877 -148.454914 
L 501.502309 -147.603606 
L 502.482693 -146.752299 
L 503.429246 -145.900992 
L 504.315579 -145.049685 
L 505.117563 -144.198378 
L 505.815159 -143.347071 
L 506.394075 -142.495763 
L 506.847085 -141.644456 
L 507.174937 -140.793149 
L 507.38676 -139.941842 
L 507.499984 -139.090535 
L 507.539771 -138.239228 
L 507.538051 -137.38792 
L 507.532209 -136.536613 
L 507.563544 -135.685306 
L 507.675563 -134.833999 
L 507.912216 -133.982692 
L 508.316123 -133.131385 
L 508.92688 -132.280077 
L 509.779497 -131.42877 
L 510.903018 -130.577463 
L 512.319385 -129.726156 
L 514.042566 -128.874849 
L 516.077991 -128.023542 
L 518.422283 -127.172234 
L 521.063296 -126.320927 
L 523.98042 -125.46962 
L 527.145134 -124.618313 
L 530.521786 -123.767006 
L 534.068576 -122.915699 
L 537.738761 -122.064391 
L 541.482067 -121.213084 
L 545.246356 -120.361777 
L 548.979506 -119.51047 
L 552.631487 -118.659163 
L 556.156527 -117.807856 
L 559.515209 -116.956549 
L 562.676287 -116.105241 
L 565.617981 -115.253934 
L 568.328489 -114.402627 
L 570.805551 -113.55132 
L 573.054942 -112.700013 
L 575.087962 -111.848706 
L 576.91811 -110.997398 
L 578.5573 -110.146091 
L 580.012095 -109.294784 
L 581.280477 -108.443477 
L 582.349666 -107.59217 
L 583.195385 -106.740863 
L 583.782778 -105.889555 
L 584.069009 -105.038248 
L 584.007254 -104.186941 
L 583.551675 -103.335634 
L 582.662724 -102.484327 
L 581.312145 -101.63302 
L 579.487003 -100.781712 
L 577.192258 -99.930405 
L 574.451562 -99.079098 
L 571.306222 -98.227791 
L 567.812506 -97.376484 
L 564.037658 -96.525177 
L 560.055168 -95.673869 
L 555.939845 -94.822562 
L 551.76327 -93.971255 
L 547.590059 -93.119948 
L 543.475247 -92.268641 
L 539.462922 -91.417334 
L 535.586051 -90.566026 
L 531.867335 -89.714719 
L 528.320798 -88.863412 
L 524.95379 -88.012105 
L 521.76909 -87.160798 
L 518.766829 -86.309491 
L 515.946046 -85.458183 
L 513.305751 -84.606876 
L 510.845486 -83.755569 
L 508.56542 -82.904262 
L 506.466076 -82.052955 
L 504.547829 -81.201648 
L 502.810291 -80.35034 
L 501.25173 -79.499033 
L 499.868593 -78.647726 
L 498.655215 -77.796419 
L 497.60374 -76.945112 
L 496.704241 -76.093805 
L 495.945023 -75.242497 
L 495.313055 -74.39119 
L 494.794473 -73.539883 
L 494.375114 -72.688576 
L 494.041015 -71.837269 
z
"/>
    </defs>
    <g clip-path="url(#pec7eedae70)">
     <use xlink:href="#m6f0e299150" x="0" y="252" style="fill: #5c6d71"/>
    </g>
   </g>
   <g id="matplotlib.axis_3">
    <g id="xtick_3">
     <g id="line2d_14">
      <g>
       <use xlink:href="#m9e6e563ac1" x="424.736825" y="187.8" style="stroke: #000000; stroke-width: 0.75"/>
      </g>
     </g>
     <g id="text_10">
      <text style="font: 15px &quot;Suisse Int&apos;l&quot;, sans-serif; text-anchor: middle" x="424.736825" y="208.675" transform="rotate(-0 424.736825 208.675)">top</text>
     </g>
    </g>
    <g id="xtick_4">
     <g id="line2d_15">
      <g>
       <use xlink:href="#m9e6e563ac1" x="538.545528" y="187.8" style="stroke: #000000; stroke-width: 0.75"/>
      </g>
     </g>
     <g id="text_11">
      <text style="font: 15px &quot;Suisse Int&apos;l&quot;, sans-serif; text-anchor: middle" x="538.545528" y="208.675" transform="rotate(-0 538.545528 208.675)">middle</text>
     </g>
    </g>
    <g id="text_12">
     <text style="font: 500 15px &quot;Suisse Int&apos;l&quot;, sans-serif; text-anchor: middle" x="481.641176" y="232.175" transform="rotate(-0 481.641176 232.175)">Position_in_tube</text>
    </g>
   </g>
   <g id="matplotlib.axis_4">
    <g id="ytick_5">
     <g id="line2d_16">
      <g>
       <use xlink:href="#m5971aea14e" x="371.019118" y="171.015008" style="stroke: #000000; stroke-width: 0.75"/>
      </g>
     </g>
     <g id="text_13">
      <text style="font: 15px &quot;Suisse Int&apos;l&quot;, sans-serif; text-anchor: end" x="361.019118" y="176.452508" transform="rotate(-0 361.019118 176.452508)">0</text>
     </g>
    </g>
    <g id="ytick_6">
     <g id="line2d_17">
      <g>
       <use xlink:href="#m5971aea14e" x="371.019118" y="119.491507" style="stroke: #000000; stroke-width: 0.75"/>
      </g>
     </g>
     <g id="text_14">
      <text style="font: 15px &quot;Suisse Int&apos;l&quot;, sans-serif; text-anchor: end" x="361.019118" y="124.929007" transform="rotate(-0 361.019118 124.929007)">50</text>
     </g>
    </g>
    <g id="ytick_7">
     <g id="line2d_18">
      <g>
       <use xlink:href="#m5971aea14e" x="371.019118" y="67.968006" style="stroke: #000000; stroke-width: 0.75"/>
      </g>
     </g>
     <g id="text_15">
      <text style="font: 15px &quot;Suisse Int&apos;l&quot;, sans-serif; text-anchor: end" x="361.019118" y="73.405506" transform="rotate(-0 361.019118 73.405506)">100</text>
     </g>
    </g>
    <g id="text_16">
     <text style="font: 500 15px &quot;Suisse Int&apos;l&quot;, sans-serif; text-anchor: middle" x="323.046461" y="122.732504" transform="rotate(-90 323.046461 122.732504)">Mean_curvilinear_speed</text>
    </g>
   </g>
   <g id="line2d_19">
    <path d="M 467.760306 167.988146 
L 467.760306 101.099094 
" clip-path="url(#pec7eedae70)" style="fill: none; stroke: #3e3e3e; stroke-width: 1.666667; stroke-linecap: round"/>
   </g>
   <g id="line2d_20">
    <path d="M 467.760306 148.433858 
L 467.760306 127.155139 
" clip-path="url(#pec7eedae70)" style="fill: none; stroke: #3e3e3e; stroke-width: 5; stroke-linecap: round"/>
   </g>
   <g id="line2d_21">
    <path d="M 467.760306 138.571686 
" clip-path="url(#pec7eedae70)" style="fill: none; stroke: #3e3e3e; stroke-width: 2; stroke-linecap: round"/>
    <g clip-path="url(#pec7eedae70)">
     <use xlink:href="#mcc69b9f171" x="467.760306" y="138.571686" style="fill: #ffffff; stroke: #ffffff"/>
    </g>
   </g>
   <g id="line2d_22">
    <path d="M 495.522047 166.985196 
L 495.522047 117.244447 
" clip-path="url(#pec7eedae70)" style="fill: none; stroke: #3e3e3e; stroke-width: 1.666667; stroke-linecap: round"/>
   </g>
   <g id="line2d_23">
    <path d="M 495.522047 151.013071 
L 495.522047 136.497598 
" clip-path="url(#pec7eedae70)" style="fill: none; stroke: #3e3e3e; stroke-width: 5; stroke-linecap: round"/>
   </g>
   <g id="line2d_24">
    <path d="M 495.522047 145.010141 
" clip-path="url(#pec7eedae70)" style="fill: none; stroke: #3e3e3e; stroke-width: 2; stroke-linecap: round"/>
    <g clip-path="url(#pec7eedae70)">
     <use xlink:href="#mcc69b9f171" x="495.522047" y="145.010141" style="fill: #ffffff; stroke: #ffffff"/>
    </g>
   </g>
   <g id="line2d_25">
    <path d="M 458.879436 62.484823 
L 504.402917 62.484823 
" clip-path="url(#pec7eedae70)" style="fill: none; stroke: #000000; stroke-width: 2; stroke-linecap: round"/>
   </g>
   <g id="patch_6">
    <path d="M 371.019118 187.8 
L 371.019118 57.665008 
" style="fill: none; stroke: #000000; stroke-width: 0.75; stroke-linejoin: miter; stroke-linecap: square"/>
   </g>
   <g id="patch_7">
    <path d="M 371.019118 187.8 
L 592.263235 187.8 
" style="fill: none; stroke: #000000; stroke-width: 0.75; stroke-linejoin: miter; stroke-linecap: square"/>
   </g>
   <g id="text_17">
    <text style="font: 12px &quot;Suisse Int&apos;l&quot;, sans-serif; text-anchor: middle" x="481.641176" y="57.058314" transform="rotate(-0 481.641176 57.058314)">NS</text>
   </g>
  </g>
  <g id="axes_3">
   <g id="patch_8">
    <path d="M 668.088235 187.8 
L 889.332353 187.8 
L 889.332353 57.665008 
L 668.088235 57.665008 
L 668.088235 187.8 
z
" style="fill: none"/>
   </g>
   <g id="PolyCollection_5">
    <defs>
     <path id="mc249dc7ef6" d="M 767.329424 -69.019815 
L 765.564345 -69.019815 
L 764.668429 -70.090031 
L 763.412492 -71.160248 
L 761.698759 -72.230465 
L 759.423039 -73.300682 
L 756.482729 -74.370899 
L 752.787613 -75.441116 
L 748.272824 -76.511333 
L 742.912764 -77.58155 
L 736.73426 -78.651767 
L 729.826936 -79.721984 
L 722.348744 -80.792201 
L 714.524979 -81.862418 
L 706.639784 -82.932634 
L 699.020177 -84.002851 
L 692.013687 -85.073068 
L 685.96173 -86.143285 
L 681.171578 -87.213502 
L 677.890119 -88.283719 
L 676.282462 -89.353936 
L 676.41789 -90.424153 
L 678.264717 -91.49437 
L 681.694535 -92.564587 
L 686.495159 -93.634804 
L 692.390613 -94.705021 
L 699.065714 -95.775237 
L 706.192417 -96.845454 
L 713.455048 -97.915671 
L 720.571894 -98.985888 
L 727.311276 -100.056105 
L 733.501026 -101.126322 
L 739.031252 -102.196539 
L 743.851051 -103.266756 
L 747.960487 -104.336973 
L 751.39949 -105.40719 
L 754.235443 -106.477407 
L 756.551025 -107.547624 
L 758.433534 -108.61784 
L 759.966502 -109.688057 
L 761.223931 -110.758274 
L 762.267132 -111.828491 
L 763.143813 -112.898708 
L 763.888927 -113.968925 
L 764.526647 -115.039142 
L 765.072916 -116.109359 
L 765.538036 -117.179576 
L 765.928945 -118.249793 
L 766.250926 -119.32001 
L 766.508692 -120.390227 
L 766.706881 -121.460443 
L 766.85009 -122.53066 
L 766.942631 -123.600877 
L 766.988192 -124.671094 
L 766.989558 -125.741311 
L 766.948499 -126.811528 
L 766.86588 -127.881745 
L 766.741995 -128.951962 
L 766.577075 -130.022179 
L 766.371903 -131.092396 
L 766.12844 -132.162613 
L 765.850389 -133.23283 
L 765.54361 -134.303046 
L 765.216343 -135.373263 
L 764.879181 -136.44348 
L 764.544775 -137.513697 
L 764.227249 -138.583914 
L 763.94133 -139.654131 
L 763.7012 -140.724348 
L 763.519159 -141.794565 
L 763.404202 -142.864782 
L 763.360698 -143.934999 
L 763.387395 -145.005216 
L 763.47698 -146.075433 
L 763.616373 -147.145649 
L 763.787854 -148.215866 
L 763.970953 -149.286083 
L 764.144909 -150.3563 
L 764.291352 -151.426517 
L 764.396795 -152.496734 
L 764.454509 -153.566951 
L 764.465472 -154.637168 
L 764.438179 -155.707385 
L 764.387347 -156.777602 
L 764.331699 -157.847819 
L 764.291198 -158.918036 
L 764.284173 -159.988252 
L 764.324807 -161.058469 
L 764.421355 -162.128686 
L 764.57534 -163.198903 
L 764.781779 -164.26912 
L 765.030312 -165.339337 
L 765.306969 -166.409554 
L 765.596224 -167.479771 
L 765.882977 -168.549988 
L 766.154189 -169.620205 
L 766.399953 -170.690422 
L 766.613974 -171.760639 
L 766.793488 -172.830855 
L 766.938759 -173.901072 
L 767.052329 -174.971289 
L 767.329424 -174.971289 
L 767.329424 -174.971289 
L 767.329424 -173.901072 
L 767.329424 -172.830855 
L 767.329424 -171.760639 
L 767.329424 -170.690422 
L 767.329424 -169.620205 
L 767.329424 -168.549988 
L 767.329424 -167.479771 
L 767.329424 -166.409554 
L 767.329424 -165.339337 
L 767.329424 -164.26912 
L 767.329424 -163.198903 
L 767.329424 -162.128686 
L 767.329424 -161.058469 
L 767.329424 -159.988252 
L 767.329424 -158.918036 
L 767.329424 -157.847819 
L 767.329424 -156.777602 
L 767.329424 -155.707385 
L 767.329424 -154.637168 
L 767.329424 -153.566951 
L 767.329424 -152.496734 
L 767.329424 -151.426517 
L 767.329424 -150.3563 
L 767.329424 -149.286083 
L 767.329424 -148.215866 
L 767.329424 -147.145649 
L 767.329424 -146.075433 
L 767.329424 -145.005216 
L 767.329424 -143.934999 
L 767.329424 -142.864782 
L 767.329424 -141.794565 
L 767.329424 -140.724348 
L 767.329424 -139.654131 
L 767.329424 -138.583914 
L 767.329424 -137.513697 
L 767.329424 -136.44348 
L 767.329424 -135.373263 
L 767.329424 -134.303046 
L 767.329424 -133.23283 
L 767.329424 -132.162613 
L 767.329424 -131.092396 
L 767.329424 -130.022179 
L 767.329424 -128.951962 
L 767.329424 -127.881745 
L 767.329424 -126.811528 
L 767.329424 -125.741311 
L 767.329424 -124.671094 
L 767.329424 -123.600877 
L 767.329424 -122.53066 
L 767.329424 -121.460443 
L 767.329424 -120.390227 
L 767.329424 -119.32001 
L 767.329424 -118.249793 
L 767.329424 -117.179576 
L 767.329424 -116.109359 
L 767.329424 -115.039142 
L 767.329424 -113.968925 
L 767.329424 -112.898708 
L 767.329424 -111.828491 
L 767.329424 -110.758274 
L 767.329424 -109.688057 
L 767.329424 -108.61784 
L 767.329424 -107.547624 
L 767.329424 -106.477407 
L 767.329424 -105.40719 
L 767.329424 -104.336973 
L 767.329424 -103.266756 
L 767.329424 -102.196539 
L 767.329424 -101.126322 
L 767.329424 -100.056105 
L 767.329424 -98.985888 
L 767.329424 -97.915671 
L 767.329424 -96.845454 
L 767.329424 -95.775237 
L 767.329424 -94.705021 
L 767.329424 -93.634804 
L 767.329424 -92.564587 
L 767.329424 -91.49437 
L 767.329424 -90.424153 
L 767.329424 -89.353936 
L 767.329424 -88.283719 
L 767.329424 -87.213502 
L 767.329424 -86.143285 
L 767.329424 -85.073068 
L 767.329424 -84.002851 
L 767.329424 -82.932634 
L 767.329424 -81.862418 
L 767.329424 -80.792201 
L 767.329424 -79.721984 
L 767.329424 -78.651767 
L 767.329424 -77.58155 
L 767.329424 -76.511333 
L 767.329424 -75.441116 
L 767.329424 -74.370899 
L 767.329424 -73.300682 
L 767.329424 -72.230465 
L 767.329424 -71.160248 
L 767.329424 -70.090031 
L 767.329424 -69.019815 
z
"/>
    </defs>
    <g clip-path="url(#p4f8cffe458)">
     <use xlink:href="#mc249dc7ef6" x="0" y="252" style="fill: #b4bba7"/>
    </g>
   </g>
   <g id="PolyCollection_6">
    <defs>
     <path id="m0e886bfa13" d="M 793.00116 -72.808137 
L 790.091164 -72.808137 
L 790.091164 -73.683065 
L 790.091164 -74.557994 
L 790.091164 -75.432922 
L 790.091164 -76.307851 
L 790.091164 -77.182779 
L 790.091164 -78.057708 
L 790.091164 -78.932636 
L 790.091164 -79.807564 
L 790.091164 -80.682493 
L 790.091164 -81.557421 
L 790.091164 -82.43235 
L 790.091164 -83.307278 
L 790.091164 -84.182206 
L 790.091164 -85.057135 
L 790.091164 -85.932063 
L 790.091164 -86.806992 
L 790.091164 -87.68192 
L 790.091164 -88.556849 
L 790.091164 -89.431777 
L 790.091164 -90.306705 
L 790.091164 -91.181634 
L 790.091164 -92.056562 
L 790.091164 -92.931491 
L 790.091164 -93.806419 
L 790.091164 -94.681348 
L 790.091164 -95.556276 
L 790.091164 -96.431204 
L 790.091164 -97.306133 
L 790.091164 -98.181061 
L 790.091164 -99.05599 
L 790.091164 -99.930918 
L 790.091164 -100.805846 
L 790.091164 -101.680775 
L 790.091164 -102.555703 
L 790.091164 -103.430632 
L 790.091164 -104.30556 
L 790.091164 -105.180489 
L 790.091164 -106.055417 
L 790.091164 -106.930345 
L 790.091164 -107.805274 
L 790.091164 -108.680202 
L 790.091164 -109.555131 
L 790.091164 -110.430059 
L 790.091164 -111.304987 
L 790.091164 -112.179916 
L 790.091164 -113.054844 
L 790.091164 -113.929773 
L 790.091164 -114.804701 
L 790.091164 -115.67963 
L 790.091164 -116.554558 
L 790.091164 -117.429486 
L 790.091164 -118.304415 
L 790.091164 -119.179343 
L 790.091164 -120.054272 
L 790.091164 -120.9292 
L 790.091164 -121.804129 
L 790.091164 -122.679057 
L 790.091164 -123.553985 
L 790.091164 -124.428914 
L 790.091164 -125.303842 
L 790.091164 -126.178771 
L 790.091164 -127.053699 
L 790.091164 -127.928627 
L 790.091164 -128.803556 
L 790.091164 -129.678484 
L 790.091164 -130.553413 
L 790.091164 -131.428341 
L 790.091164 -132.30327 
L 790.091164 -133.178198 
L 790.091164 -134.053126 
L 790.091164 -134.928055 
L 790.091164 -135.802983 
L 790.091164 -136.677912 
L 790.091164 -137.55284 
L 790.091164 -138.427768 
L 790.091164 -139.302697 
L 790.091164 -140.177625 
L 790.091164 -141.052554 
L 790.091164 -141.927482 
L 790.091164 -142.802411 
L 790.091164 -143.677339 
L 790.091164 -144.552267 
L 790.091164 -145.427196 
L 790.091164 -146.302124 
L 790.091164 -147.177053 
L 790.091164 -148.051981 
L 790.091164 -148.92691 
L 790.091164 -149.801838 
L 790.091164 -150.676766 
L 790.091164 -151.551695 
L 790.091164 -152.426623 
L 790.091164 -153.301552 
L 790.091164 -154.17648 
L 790.091164 -155.051408 
L 790.091164 -155.926337 
L 790.091164 -156.801265 
L 790.091164 -157.676194 
L 790.091164 -158.551122 
L 790.091164 -159.426051 
L 790.553073 -159.426051 
L 790.553073 -159.426051 
L 790.720989 -158.551122 
L 790.92782 -157.676194 
L 791.173938 -156.801265 
L 791.456353 -155.926337 
L 791.76808 -155.051408 
L 792.097917 -154.17648 
L 792.430757 -153.301552 
L 792.748526 -152.426623 
L 793.031689 -151.551695 
L 793.261191 -150.676766 
L 793.420555 -149.801838 
L 793.497838 -148.92691 
L 793.487106 -148.051981 
L 793.389187 -147.177053 
L 793.21157 -146.302124 
L 792.967452 -145.427196 
L 792.674122 -144.552267 
L 792.350945 -143.677339 
L 792.017266 -142.802411 
L 791.69056 -141.927482 
L 791.385051 -141.052554 
L 791.110931 -140.177625 
L 790.874179 -139.302697 
L 790.676902 -138.427768 
L 790.518042 -137.55284 
L 790.394259 -136.677912 
L 790.30084 -135.802983 
L 790.232511 -134.928055 
L 790.184063 -134.053126 
L 790.15079 -133.178198 
L 790.128728 -132.30327 
L 790.11476 -131.428341 
L 790.10661 -130.553413 
L 790.102798 -129.678484 
L 790.102584 -128.803556 
L 790.105925 -127.928627 
L 790.113482 -127.053699 
L 790.126651 -126.178771 
L 790.147629 -125.303842 
L 790.179478 -124.428914 
L 790.226149 -123.553985 
L 790.292443 -122.679057 
L 790.383837 -121.804129 
L 790.506175 -120.9292 
L 790.6652 -120.054272 
L 790.86598 -119.179343 
L 791.112297 -118.304415 
L 791.406145 -117.429486 
L 791.747501 -116.554558 
L 792.134532 -115.67963 
L 792.564363 -114.804701 
L 793.034457 -113.929773 
L 793.544495 -113.054844 
L 794.098539 -112.179916 
L 794.707112 -111.304987 
L 795.388778 -110.430059 
L 796.170831 -109.555131 
L 797.088813 -108.680202 
L 798.184829 -107.805274 
L 799.504838 -106.930345 
L 801.095398 -106.055417 
L 803.000415 -105.180489 
L 805.258513 -104.30556 
L 807.901414 -103.430632 
L 810.953416 -102.555703 
L 814.431651 -101.680775 
L 818.346426 -100.805846 
L 822.70074 -99.930918 
L 827.488084 -99.05599 
L 832.687974 -98.181061 
L 838.259246 -97.306133 
L 844.13191 -96.431204 
L 850.199108 -95.556276 
L 856.311238 -94.681348 
L 862.274439 -93.806419 
L 867.855266 -92.931491 
L 872.7925 -92.056562 
L 876.815779 -91.181634 
L 879.669359 -90.306705 
L 881.138126 -89.431777 
L 881.072175 -88.556849 
L 879.406202 -87.68192 
L 876.170558 -86.806992 
L 871.492014 -85.932063 
L 865.583929 -85.057135 
L 858.727113 -84.182206 
L 851.244137 -83.307278 
L 843.47063 -82.43235 
L 835.727378 -81.557421 
L 828.296566 -80.682493 
L 821.404588 -79.807564 
L 815.212622 -78.932636 
L 809.814961 -78.057708 
L 805.243992 -77.182779 
L 801.480086 -76.307851 
L 798.464273 -75.432922 
L 796.111713 -74.557994 
L 794.324289 -73.683065 
L 793.00116 -72.808137 
z
"/>
    </defs>
    <g clip-path="url(#p4f8cffe458)">
     <use xlink:href="#m0e886bfa13" x="0" y="252" style="fill: #5c6d71"/>
    </g>
   </g>
   <g id="patch_9">
    <path d="M 721.805943 175.84894 
L 721.805943 175.84894 
L 721.805943 175.84894 
L 721.805943 175.84894 
z
" clip-path="url(#p4f8cffe458)" style="fill: #b4bba7"/>
   </g>
   <g id="patch_10">
    <path d="M 721.805943 175.84894 
L 721.805943 175.84894 
L 721.805943 175.84894 
L 721.805943 175.84894 
z
" clip-path="url(#p4f8cffe458)" style="fill: #5c6d71"/>
   </g>
   <g id="matplotlib.axis_5">
    <g id="xtick_5">
     <g id="line2d_26">
      <g>
       <use xlink:href="#m9e6e563ac1" x="721.805943" y="187.8" style="stroke: #000000; stroke-width: 0.75"/>
      </g>
     </g>
     <g id="text_18">
      <text style="font: 15px &quot;Suisse Int&apos;l&quot;, sans-serif; text-anchor: middle" x="721.805943" y="208.675" transform="rotate(-0 721.805943 208.675)">top</text>
     </g>
    </g>
    <g id="xtick_6">
     <g id="line2d_27">
      <g>
       <use xlink:href="#m9e6e563ac1" x="835.614645" y="187.8" style="stroke: #000000; stroke-width: 0.75"/>
      </g>
     </g>
     <g id="text_19">
      <text style="font: 15px &quot;Suisse Int&apos;l&quot;, sans-serif; text-anchor: middle" x="835.614645" y="208.675" transform="rotate(-0 835.614645 208.675)">middle</text>
     </g>
    </g>
    <g id="text_20">
     <text style="font: 500 15px &quot;Suisse Int&apos;l&quot;, sans-serif; text-anchor: middle" x="778.710294" y="232.175" transform="rotate(-0 778.710294 232.175)">Position_in_tube</text>
    </g>
   </g>
   <g id="matplotlib.axis_6">
    <g id="ytick_8">
     <g id="line2d_28">
      <g>
       <use xlink:href="#m5971aea14e" x="668.088235" y="175.84894" style="stroke: #000000; stroke-width: 0.75"/>
      </g>
     </g>
     <g id="text_21">
      <text style="font: 15px &quot;Suisse Int&apos;l&quot;, sans-serif; text-anchor: end" x="658.088235" y="181.28644" transform="rotate(-0 658.088235 181.28644)">0</text>
     </g>
    </g>
    <g id="ytick_9">
     <g id="line2d_29">
      <g>
       <use xlink:href="#m5971aea14e" x="668.088235" y="137.685832" style="stroke: #000000; stroke-width: 0.75"/>
      </g>
     </g>
     <g id="text_22">
      <text style="font: 15px &quot;Suisse Int&apos;l&quot;, sans-serif; text-anchor: end" x="658.088235" y="143.123332" transform="rotate(-0 658.088235 143.123332)">10</text>
     </g>
    </g>
    <g id="ytick_10">
     <g id="line2d_30">
      <g>
       <use xlink:href="#m5971aea14e" x="668.088235" y="99.522724" style="stroke: #000000; stroke-width: 0.75"/>
      </g>
     </g>
     <g id="text_23">
      <text style="font: 15px &quot;Suisse Int&apos;l&quot;, sans-serif; text-anchor: end" x="658.088235" y="104.960224" transform="rotate(-0 658.088235 104.960224)">20</text>
     </g>
    </g>
    <g id="ytick_11">
     <g id="line2d_31">
      <g>
       <use xlink:href="#m5971aea14e" x="668.088235" y="61.359616" style="stroke: #000000; stroke-width: 0.75"/>
      </g>
     </g>
     <g id="text_24">
      <text style="font: 15px &quot;Suisse Int&apos;l&quot;, sans-serif; text-anchor: end" x="658.088235" y="66.797116" transform="rotate(-0 658.088235 66.797116)">30</text>
     </g>
    </g>
    <g id="text_25">
     <text style="font: 500 15px &quot;Suisse Int&apos;l&quot;, sans-serif; text-anchor: middle" x="626.413235" y="122.732504" transform="rotate(-90 626.413235 122.732504)">Mean_angular_speed</text>
    </g>
   </g>
   <g id="line2d_32">
    <path d="M 764.829424 170.281172 
L 764.829424 148.969446 
" clip-path="url(#p4f8cffe458)" style="fill: none; stroke: #3e3e3e; stroke-width: 1.666667; stroke-linecap: round"/>
   </g>
   <g id="line2d_33">
    <path d="M 764.829424 165.061622 
L 764.829424 157.821606 
" clip-path="url(#p4f8cffe458)" style="fill: none; stroke: #3e3e3e; stroke-width: 5; stroke-linecap: round"/>
   </g>
   <g id="line2d_34">
    <path d="M 764.829424 161.289515 
" clip-path="url(#p4f8cffe458)" style="fill: none; stroke: #3e3e3e; stroke-width: 2; stroke-linecap: round"/>
    <g clip-path="url(#p4f8cffe458)">
     <use xlink:href="#mcc69b9f171" x="764.829424" y="161.289515" style="fill: #ffffff; stroke: #ffffff"/>
    </g>
   </g>
   <g id="line2d_35">
    <path d="M 792.591164 168.361023 
L 792.591164 151.411715 
" clip-path="url(#p4f8cffe458)" style="fill: none; stroke: #3e3e3e; stroke-width: 1.666667; stroke-linecap: round"/>
   </g>
   <g id="line2d_36">
    <path d="M 792.591164 164.741206 
L 792.591164 158.046136 
" clip-path="url(#p4f8cffe458)" style="fill: none; stroke: #3e3e3e; stroke-width: 5; stroke-linecap: round"/>
   </g>
   <g id="line2d_37">
    <path d="M 792.591164 162.55267 
" clip-path="url(#p4f8cffe458)" style="fill: none; stroke: #3e3e3e; stroke-width: 2; stroke-linecap: round"/>
    <g clip-path="url(#p4f8cffe458)">
     <use xlink:href="#mcc69b9f171" x="792.591164" y="162.55267" style="fill: #ffffff; stroke: #ffffff"/>
    </g>
   </g>
   <g id="line2d_38">
    <path d="M 755.948554 62.484823 
L 801.472035 62.484823 
" clip-path="url(#p4f8cffe458)" style="fill: none; stroke: #000000; stroke-width: 2; stroke-linecap: round"/>
   </g>
   <g id="patch_11">
    <path d="M 668.088235 187.8 
L 668.088235 57.665008 
" style="fill: none; stroke: #000000; stroke-width: 0.75; stroke-linejoin: miter; stroke-linecap: square"/>
   </g>
   <g id="patch_12">
    <path d="M 668.088235 187.8 
L 889.332353 187.8 
" style="fill: none; stroke: #000000; stroke-width: 0.75; stroke-linejoin: miter; stroke-linecap: square"/>
   </g>
   <g id="text_26">
    <text style="font: 12px &quot;Suisse Int&apos;l&quot;, sans-serif; text-anchor: middle" x="778.710294" y="56.816617" transform="rotate(-0 778.710294 56.816617)">NS</text>
   </g>
   <g id="legend_1">
    <g id="text_27">
     <text style="font: 600 16px &quot;Suisse Int&apos;l&quot;, sans-serif; text-anchor: start" x="830.538088" y="69.265008" transform="rotate(-0 830.538088 69.265008)">Position_in_tube</text>
    </g>
    <g id="line2d_39">
     <path d="M 830.538088 79.565008 
L 898.913088 79.565008 
" style="fill: none; stroke: #bab0a8; stroke-width: 1.5; stroke-linecap: round"/>
    </g>
    <g id="patch_13">
     <path d="M 830.538088 102.440008 
L 845.538088 102.440008 
L 845.538088 87.065008 
L 830.538088 87.065008 
z
" style="fill: #b4bba7"/>
    </g>
    <g id="text_28">
     <text style="font: 15px &quot;Suisse Int&apos;l&quot;, sans-serif; text-anchor: start" x="851.538088" y="99.815008" transform="rotate(-0 851.538088 99.815008)">Top</text>
    </g>
    <g id="patch_14">
     <path d="M 830.538088 125.315008 
L 845.538088 125.315008 
L 845.538088 109.940008 
L 830.538088 109.940008 
z
" style="fill: #5c6d71"/>
    </g>
    <g id="text_29">
     <text style="font: 15px &quot;Suisse Int&apos;l&quot;, sans-serif; text-anchor: start" x="851.538088" y="122.690008" transform="rotate(-0 851.538088 122.690008)">Middle</text>
    </g>
   </g>
  </g>
  <g id="text_30">
   <text style="font: 500 16px &quot;Suisse Int&apos;l&quot;, sans-serif; text-anchor: middle" x="486" y="16.64" transform="rotate(-0 486 16.64)">position_in_tube</text>
  </g>
 </g>
 <defs>
  <clipPath id="p9f7955d2f2">
   <rect x="73.95" y="57.665008" width="221.244118" height="130.134992"/>
  </clipPath>
  <clipPath id="pec7eedae70">
   <rect x="371.019118" y="57.665008" width="221.244118" height="130.134992"/>
  </clipPath>
  <clipPath id="p4f8cffe458">
   <rect x="668.088235" y="57.665008" width="221.244118" height="130.134992"/>
  </clipPath>
 </defs>
</svg>
