<?xml version="1.0" encoding="utf-8" standalone="no"?>
<!DOCTYPE svg PUBLIC "-//W3C//DTD SVG 1.1//EN"
  "http://www.w3.org/Graphics/SVG/1.1/DTD/svg11.dtd">
<svg xmlns:xlink="http://www.w3.org/1999/xlink" width="472.621125pt" height="379.113736pt" viewBox="0 0 472.621125 379.113736" xmlns="http://www.w3.org/2000/svg" version="1.1">
 <metadata>
  <rdf:RDF xmlns:dc="http://purl.org/dc/elements/1.1/" xmlns:cc="http://creativecommons.org/ns#" xmlns:rdf="http://www.w3.org/1999/02/22-rdf-syntax-ns#">
   <cc:Work>
    <dc:type rdf:resource="http://purl.org/dc/dcmitype/StillImage"/>
    <dc:date>2024-08-02T14:02:45.145683</dc:date>
    <dc:format>image/svg+xml</dc:format>
    <dc:creator>
     <cc:Agent>
      <dc:title>Matplotlib v3.8.4, https://matplotlib.org/</dc:title>
     </cc:Agent>
    </dc:creator>
   </cc:Work>
  </rdf:RDF>
 </metadata>
 <defs>
  <style type="text/css">*{stroke-linejoin: round; stroke-linecap: butt}</style>
 </defs>
 <g id="figure_1">
  <g id="patch_1">
   <path d="M 0 379.113736 
L 472.621125 379.113736 
L 472.621125 0 
L 0 0 
L 0 379.113736 
z
" style="fill: none"/>
  </g>
  <g id="axes_1">
   <g id="patch_2">
    <path d="M 72.518125 312.563736 
L 296.108125 312.563736 
L 296.108125 80.895165 
L 72.518125 80.895165 
L 72.518125 312.563736 
z
" style="fill: none"/>
   </g>
   <g id="PathCollection_1">
    <defs>
     <path id="C0_0_55407db5fa" d="M 0 3 
C 0.795609 3 1.55874 2.683901 2.12132 2.12132 
C 2.683901 1.55874 3 0.795609 3 -0 
C 3 -0.795609 2.683901 -1.55874 2.12132 -2.12132 
C 1.55874 -2.683901 0.795609 -3 0 -3 
C -0.795609 -3 -1.55874 -2.683901 -2.12132 -2.12132 
C -2.683901 -1.55874 -3 -0.795609 -3 0 
C -3 0.795609 -2.683901 1.55874 -2.12132 2.12132 
C -1.55874 2.683901 -0.795609 3 0 3 
z
"/>
    </defs>
    <g clip-path="url(#p74f2b8bc50)">
     <use xlink:href="#C0_0_55407db5fa" x="121.479902" y="260.229746" style="fill: #f28360; stroke: #ffffff; stroke-width: 0.48"/>
    </g>
    <g clip-path="url(#p74f2b8bc50)">
     <use xlink:href="#C0_0_55407db5fa" x="143.064277" y="263.543653" style="fill: #f28360; stroke: #ffffff; stroke-width: 0.48"/>
    </g>
    <g clip-path="url(#p74f2b8bc50)">
     <use xlink:href="#C0_0_55407db5fa" x="114.580433" y="258.671535" style="fill: #f28360; stroke: #ffffff; stroke-width: 0.48"/>
    </g>
    <g clip-path="url(#p74f2b8bc50)">
     <use xlink:href="#C0_0_55407db5fa" x="128.436492" y="257.176612" style="fill: #f28360; stroke: #ffffff; stroke-width: 0.48"/>
    </g>
    <g clip-path="url(#p74f2b8bc50)">
     <use xlink:href="#C0_0_55407db5fa" x="112.087744" y="266.195186" style="fill: #f28360; stroke: #ffffff; stroke-width: 0.48"/>
    </g>
    <g clip-path="url(#p74f2b8bc50)">
     <use xlink:href="#C0_0_55407db5fa" x="123.361728" y="268.734592" style="fill: #f28360; stroke: #ffffff; stroke-width: 0.48"/>
    </g>
    <g clip-path="url(#p74f2b8bc50)">
     <use xlink:href="#C0_0_55407db5fa" x="117.031968" y="267.214029" style="fill: #f28360; stroke: #ffffff; stroke-width: 0.48"/>
    </g>
    <g clip-path="url(#p74f2b8bc50)">
     <use xlink:href="#C0_0_55407db5fa" x="130.759618" y="262.4695" style="fill: #f28360; stroke: #ffffff; stroke-width: 0.48"/>
    </g>
    <g clip-path="url(#p74f2b8bc50)">
     <use xlink:href="#C0_0_55407db5fa" x="123.187005" y="262.415672" style="fill: #f28360; stroke: #ffffff; stroke-width: 0.48"/>
    </g>
    <g clip-path="url(#p74f2b8bc50)">
     <use xlink:href="#C0_0_55407db5fa" x="130.716043" y="252.81422" style="fill: #f28360; stroke: #ffffff; stroke-width: 0.48"/>
    </g>
    <g clip-path="url(#p74f2b8bc50)">
     <use xlink:href="#C0_0_55407db5fa" x="131.326306" y="262.018635" style="fill: #f28360; stroke: #ffffff; stroke-width: 0.48"/>
    </g>
    <g clip-path="url(#p74f2b8bc50)">
     <use xlink:href="#C0_0_55407db5fa" x="127.320728" y="258.797977" style="fill: #f28360; stroke: #ffffff; stroke-width: 0.48"/>
    </g>
    <g clip-path="url(#p74f2b8bc50)">
     <use xlink:href="#C0_0_55407db5fa" x="117.019936" y="257.320684" style="fill: #f28360; stroke: #ffffff; stroke-width: 0.48"/>
    </g>
    <g clip-path="url(#p74f2b8bc50)">
     <use xlink:href="#C0_0_55407db5fa" x="123.383298" y="254.308357" style="fill: #f28360; stroke: #ffffff; stroke-width: 0.48"/>
    </g>
    <g clip-path="url(#p74f2b8bc50)">
     <use xlink:href="#C0_0_55407db5fa" x="134.83354" y="254.860281" style="fill: #f28360; stroke: #ffffff; stroke-width: 0.48"/>
    </g>
    <g clip-path="url(#p74f2b8bc50)">
     <use xlink:href="#C0_0_55407db5fa" x="111.132149" y="259.242159" style="fill: #f28360; stroke: #ffffff; stroke-width: 0.48"/>
    </g>
    <g clip-path="url(#p74f2b8bc50)">
     <use xlink:href="#C0_0_55407db5fa" x="128.058364" y="261.530614" style="fill: #f28360; stroke: #ffffff; stroke-width: 0.48"/>
    </g>
    <g clip-path="url(#p74f2b8bc50)">
     <use xlink:href="#C0_0_55407db5fa" x="124.945347" y="253.746646" style="fill: #f28360; stroke: #ffffff; stroke-width: 0.48"/>
    </g>
    <g clip-path="url(#p74f2b8bc50)">
     <use xlink:href="#C0_0_55407db5fa" x="139.056599" y="274.149089" style="fill: #f28360; stroke: #ffffff; stroke-width: 0.48"/>
    </g>
    <g clip-path="url(#p74f2b8bc50)">
     <use xlink:href="#C0_0_55407db5fa" x="121.976076" y="255.976045" style="fill: #f28360; stroke: #ffffff; stroke-width: 0.48"/>
    </g>
    <g clip-path="url(#p74f2b8bc50)">
     <use xlink:href="#C0_0_55407db5fa" x="123.020473" y="263.59221" style="fill: #f28360; stroke: #ffffff; stroke-width: 0.48"/>
    </g>
    <g clip-path="url(#p74f2b8bc50)">
     <use xlink:href="#C0_0_55407db5fa" x="113.836246" y="258.060194" style="fill: #f28360; stroke: #ffffff; stroke-width: 0.48"/>
    </g>
    <g clip-path="url(#p74f2b8bc50)">
     <use xlink:href="#C0_0_55407db5fa" x="127.125829" y="256.138948" style="fill: #f28360; stroke: #ffffff; stroke-width: 0.48"/>
    </g>
    <g clip-path="url(#p74f2b8bc50)">
     <use xlink:href="#C0_0_55407db5fa" x="118.470213" y="266.989443" style="fill: #f28360; stroke: #ffffff; stroke-width: 0.48"/>
    </g>
    <g clip-path="url(#p74f2b8bc50)">
     <use xlink:href="#C0_0_55407db5fa" x="113.276889" y="272.641924" style="fill: #f28360; stroke: #ffffff; stroke-width: 0.48"/>
    </g>
    <g clip-path="url(#p74f2b8bc50)">
     <use xlink:href="#C0_0_55407db5fa" x="125.020603" y="258.785399" style="fill: #f28360; stroke: #ffffff; stroke-width: 0.48"/>
    </g>
    <g clip-path="url(#p74f2b8bc50)">
     <use xlink:href="#C0_0_55407db5fa" x="141.919631" y="237.764394" style="fill: #f28360; stroke: #ffffff; stroke-width: 0.48"/>
    </g>
    <g clip-path="url(#p74f2b8bc50)">
     <use xlink:href="#C0_0_55407db5fa" x="142.290569" y="265.259366" style="fill: #f28360; stroke: #ffffff; stroke-width: 0.48"/>
    </g>
    <g clip-path="url(#p74f2b8bc50)">
     <use xlink:href="#C0_0_55407db5fa" x="131.040598" y="266.653959" style="fill: #f28360; stroke: #ffffff; stroke-width: 0.48"/>
    </g>
    <g clip-path="url(#p74f2b8bc50)">
     <use xlink:href="#C0_0_55407db5fa" x="123.200965" y="176.930229" style="fill: #f28360; stroke: #ffffff; stroke-width: 0.48"/>
    </g>
    <g clip-path="url(#p74f2b8bc50)">
     <use xlink:href="#C0_0_55407db5fa" x="115.57874" y="262.149929" style="fill: #f28360; stroke: #ffffff; stroke-width: 0.48"/>
    </g>
    <g clip-path="url(#p74f2b8bc50)">
     <use xlink:href="#C0_0_55407db5fa" x="116.714546" y="264.708406" style="fill: #f28360; stroke: #ffffff; stroke-width: 0.48"/>
    </g>
    <g clip-path="url(#p74f2b8bc50)">
     <use xlink:href="#C0_0_55407db5fa" x="113.452186" y="247.574493" style="fill: #f28360; stroke: #ffffff; stroke-width: 0.48"/>
    </g>
    <g clip-path="url(#p74f2b8bc50)">
     <use xlink:href="#C0_0_55407db5fa" x="112.026972" y="267.974407" style="fill: #f28360; stroke: #ffffff; stroke-width: 0.48"/>
    </g>
    <g clip-path="url(#p74f2b8bc50)">
     <use xlink:href="#C0_0_55407db5fa" x="122.25762" y="264.157812" style="fill: #f28360; stroke: #ffffff; stroke-width: 0.48"/>
    </g>
    <g clip-path="url(#p74f2b8bc50)">
     <use xlink:href="#C0_0_55407db5fa" x="114.229995" y="248.157254" style="fill: #f28360; stroke: #ffffff; stroke-width: 0.48"/>
    </g>
    <g clip-path="url(#p74f2b8bc50)">
     <use xlink:href="#C0_0_55407db5fa" x="119.718673" y="260.764975" style="fill: #f28360; stroke: #ffffff; stroke-width: 0.48"/>
    </g>
    <g clip-path="url(#p74f2b8bc50)">
     <use xlink:href="#C0_0_55407db5fa" x="142.730641" y="238.444752" style="fill: #f28360; stroke: #ffffff; stroke-width: 0.48"/>
    </g>
    <g clip-path="url(#p74f2b8bc50)">
     <use xlink:href="#C0_0_55407db5fa" x="135.360278" y="252.129067" style="fill: #f28360; stroke: #ffffff; stroke-width: 0.48"/>
    </g>
    <g clip-path="url(#p74f2b8bc50)">
     <use xlink:href="#C0_0_55407db5fa" x="118.19473" y="165.418678" style="fill: #f28360; stroke: #ffffff; stroke-width: 0.48"/>
    </g>
    <g clip-path="url(#p74f2b8bc50)">
     <use xlink:href="#C0_0_55407db5fa" x="113.848517" y="136.623267" style="fill: #f28360; stroke: #ffffff; stroke-width: 0.48"/>
    </g>
    <g clip-path="url(#p74f2b8bc50)">
     <use xlink:href="#C0_0_55407db5fa" x="158.527378" y="258.586266" style="fill: #f28360; stroke: #ffffff; stroke-width: 0.48"/>
    </g>
    <g clip-path="url(#p74f2b8bc50)">
     <use xlink:href="#C0_0_55407db5fa" x="124.3999" y="258.295557" style="fill: #f28360; stroke: #ffffff; stroke-width: 0.48"/>
    </g>
    <g clip-path="url(#p74f2b8bc50)">
     <use xlink:href="#C0_0_55407db5fa" x="143.613295" y="266.176244" style="fill: #f28360; stroke: #ffffff; stroke-width: 0.48"/>
    </g>
    <g clip-path="url(#p74f2b8bc50)">
     <use xlink:href="#C0_0_55407db5fa" x="116.511044" y="141.113365" style="fill: #f28360; stroke: #ffffff; stroke-width: 0.48"/>
    </g>
    <g clip-path="url(#p74f2b8bc50)">
     <use xlink:href="#C0_0_55407db5fa" x="123.438657" y="255.487296" style="fill: #f28360; stroke: #ffffff; stroke-width: 0.48"/>
    </g>
    <g clip-path="url(#p74f2b8bc50)">
     <use xlink:href="#C0_0_55407db5fa" x="122.063647" y="257.235854" style="fill: #f28360; stroke: #ffffff; stroke-width: 0.48"/>
    </g>
    <g clip-path="url(#p74f2b8bc50)">
     <use xlink:href="#C0_0_55407db5fa" x="136.059453" y="253.493682" style="fill: #f28360; stroke: #ffffff; stroke-width: 0.48"/>
    </g>
    <g clip-path="url(#p74f2b8bc50)">
     <use xlink:href="#C0_0_55407db5fa" x="114.776296" y="250.695978" style="fill: #f28360; stroke: #ffffff; stroke-width: 0.48"/>
    </g>
    <g clip-path="url(#p74f2b8bc50)">
     <use xlink:href="#C0_0_55407db5fa" x="111.694787" y="268.023739" style="fill: #f28360; stroke: #ffffff; stroke-width: 0.48"/>
    </g>
    <g clip-path="url(#p74f2b8bc50)">
     <use xlink:href="#C0_0_55407db5fa" x="113.169783" y="261.355496" style="fill: #f28360; stroke: #ffffff; stroke-width: 0.48"/>
    </g>
    <g clip-path="url(#p74f2b8bc50)">
     <use xlink:href="#C0_0_55407db5fa" x="136.130474" y="268.247998" style="fill: #f28360; stroke: #ffffff; stroke-width: 0.48"/>
    </g>
    <g clip-path="url(#p74f2b8bc50)">
     <use xlink:href="#C0_0_55407db5fa" x="117.432211" y="165.326728" style="fill: #f28360; stroke: #ffffff; stroke-width: 0.48"/>
    </g>
    <g clip-path="url(#p74f2b8bc50)">
     <use xlink:href="#C0_0_55407db5fa" x="127.889039" y="257.911521" style="fill: #f28360; stroke: #ffffff; stroke-width: 0.48"/>
    </g>
    <g clip-path="url(#p74f2b8bc50)">
     <use xlink:href="#C0_0_55407db5fa" x="112.892303" y="269.647173" style="fill: #f28360; stroke: #ffffff; stroke-width: 0.48"/>
    </g>
    <g clip-path="url(#p74f2b8bc50)">
     <use xlink:href="#C0_0_55407db5fa" x="135.953798" y="267.120285" style="fill: #f28360; stroke: #ffffff; stroke-width: 0.48"/>
    </g>
    <g clip-path="url(#p74f2b8bc50)">
     <use xlink:href="#C0_0_55407db5fa" x="115.709495" y="252.940477" style="fill: #f28360; stroke: #ffffff; stroke-width: 0.48"/>
    </g>
    <g clip-path="url(#p74f2b8bc50)">
     <use xlink:href="#C0_0_55407db5fa" x="112.948756" y="266.527261" style="fill: #f28360; stroke: #ffffff; stroke-width: 0.48"/>
    </g>
    <g clip-path="url(#p74f2b8bc50)">
     <use xlink:href="#C0_0_55407db5fa" x="128.266153" y="252.242381" style="fill: #f28360; stroke: #ffffff; stroke-width: 0.48"/>
    </g>
    <g clip-path="url(#p74f2b8bc50)">
     <use xlink:href="#C0_0_55407db5fa" x="140.369345" y="265.216535" style="fill: #f28360; stroke: #ffffff; stroke-width: 0.48"/>
    </g>
    <g clip-path="url(#p74f2b8bc50)">
     <use xlink:href="#C0_0_55407db5fa" x="159.421156" y="252.737775" style="fill: #f28360; stroke: #ffffff; stroke-width: 0.48"/>
    </g>
    <g clip-path="url(#p74f2b8bc50)">
     <use xlink:href="#C0_0_55407db5fa" x="122.969689" y="266.236803" style="fill: #f28360; stroke: #ffffff; stroke-width: 0.48"/>
    </g>
    <g clip-path="url(#p74f2b8bc50)">
     <use xlink:href="#C0_0_55407db5fa" x="113.579912" y="252.450972" style="fill: #f28360; stroke: #ffffff; stroke-width: 0.48"/>
    </g>
    <g clip-path="url(#p74f2b8bc50)">
     <use xlink:href="#C0_0_55407db5fa" x="137.174776" y="261.116417" style="fill: #f28360; stroke: #ffffff; stroke-width: 0.48"/>
    </g>
    <g clip-path="url(#p74f2b8bc50)">
     <use xlink:href="#C0_0_55407db5fa" x="145.683145" y="249.866226" style="fill: #f28360; stroke: #ffffff; stroke-width: 0.48"/>
    </g>
    <g clip-path="url(#p74f2b8bc50)">
     <use xlink:href="#C0_0_55407db5fa" x="163.213489" y="261.297819" style="fill: #f28360; stroke: #ffffff; stroke-width: 0.48"/>
    </g>
    <g clip-path="url(#p74f2b8bc50)">
     <use xlink:href="#C0_0_55407db5fa" x="126.454924" y="253.368569" style="fill: #f28360; stroke: #ffffff; stroke-width: 0.48"/>
    </g>
    <g clip-path="url(#p74f2b8bc50)">
     <use xlink:href="#C0_0_55407db5fa" x="115.480026" y="259.117229" style="fill: #f28360; stroke: #ffffff; stroke-width: 0.48"/>
    </g>
    <g clip-path="url(#p74f2b8bc50)">
     <use xlink:href="#C0_0_55407db5fa" x="122.774924" y="254.934116" style="fill: #f28360; stroke: #ffffff; stroke-width: 0.48"/>
    </g>
    <g clip-path="url(#p74f2b8bc50)">
     <use xlink:href="#C0_0_55407db5fa" x="126.080857" y="249.02654" style="fill: #f28360; stroke: #ffffff; stroke-width: 0.48"/>
    </g>
    <g clip-path="url(#p74f2b8bc50)">
     <use xlink:href="#C0_0_55407db5fa" x="128.282346" y="264.723185" style="fill: #f28360; stroke: #ffffff; stroke-width: 0.48"/>
    </g>
    <g clip-path="url(#p74f2b8bc50)">
     <use xlink:href="#C0_0_55407db5fa" x="117.640414" y="256.706018" style="fill: #f28360; stroke: #ffffff; stroke-width: 0.48"/>
    </g>
    <g clip-path="url(#p74f2b8bc50)">
     <use xlink:href="#C0_0_55407db5fa" x="133.195352" y="224.440973" style="fill: #f28360; stroke: #ffffff; stroke-width: 0.48"/>
    </g>
    <g clip-path="url(#p74f2b8bc50)">
     <use xlink:href="#C0_0_55407db5fa" x="117.390265" y="269.606083" style="fill: #f28360; stroke: #ffffff; stroke-width: 0.48"/>
    </g>
    <g clip-path="url(#p74f2b8bc50)">
     <use xlink:href="#C0_0_55407db5fa" x="124.729264" y="267.138913" style="fill: #f28360; stroke: #ffffff; stroke-width: 0.48"/>
    </g>
    <g clip-path="url(#p74f2b8bc50)">
     <use xlink:href="#C0_0_55407db5fa" x="111.999803" y="228.757464" style="fill: #f28360; stroke: #ffffff; stroke-width: 0.48"/>
    </g>
    <g clip-path="url(#p74f2b8bc50)">
     <use xlink:href="#C0_0_55407db5fa" x="126.388805" y="272.547468" style="fill: #f28360; stroke: #ffffff; stroke-width: 0.48"/>
    </g>
    <g clip-path="url(#p74f2b8bc50)">
     <use xlink:href="#C0_0_55407db5fa" x="113.031661" y="242.193086" style="fill: #f28360; stroke: #ffffff; stroke-width: 0.48"/>
    </g>
    <g clip-path="url(#p74f2b8bc50)">
     <use xlink:href="#C0_0_55407db5fa" x="124.73964" y="248.006793" style="fill: #f28360; stroke: #ffffff; stroke-width: 0.48"/>
    </g>
    <g clip-path="url(#p74f2b8bc50)">
     <use xlink:href="#C0_0_55407db5fa" x="147.886511" y="260.433154" style="fill: #f28360; stroke: #ffffff; stroke-width: 0.48"/>
    </g>
    <g clip-path="url(#p74f2b8bc50)">
     <use xlink:href="#C0_0_55407db5fa" x="182.281625" y="263.296941" style="fill: #f28360; stroke: #ffffff; stroke-width: 0.48"/>
    </g>
    <g clip-path="url(#p74f2b8bc50)">
     <use xlink:href="#C0_0_55407db5fa" x="127.614136" y="266.245926" style="fill: #f28360; stroke: #ffffff; stroke-width: 0.48"/>
    </g>
    <g clip-path="url(#p74f2b8bc50)">
     <use xlink:href="#C0_0_55407db5fa" x="117.645901" y="272.79672" style="fill: #f28360; stroke: #ffffff; stroke-width: 0.48"/>
    </g>
    <g clip-path="url(#p74f2b8bc50)">
     <use xlink:href="#C0_0_55407db5fa" x="124.65868" y="260.025068" style="fill: #f28360; stroke: #ffffff; stroke-width: 0.48"/>
    </g>
    <g clip-path="url(#p74f2b8bc50)">
     <use xlink:href="#C0_0_55407db5fa" x="128.578636" y="248.360393" style="fill: #f28360; stroke: #ffffff; stroke-width: 0.48"/>
    </g>
    <g clip-path="url(#p74f2b8bc50)">
     <use xlink:href="#C0_0_55407db5fa" x="128.201671" y="267.977555" style="fill: #f28360; stroke: #ffffff; stroke-width: 0.48"/>
    </g>
    <g clip-path="url(#p74f2b8bc50)">
     <use xlink:href="#C0_0_55407db5fa" x="122.380395" y="260.577557" style="fill: #f28360; stroke: #ffffff; stroke-width: 0.48"/>
    </g>
    <g clip-path="url(#p74f2b8bc50)">
     <use xlink:href="#C0_0_55407db5fa" x="157.386945" y="263.595666" style="fill: #f28360; stroke: #ffffff; stroke-width: 0.48"/>
    </g>
    <g clip-path="url(#p74f2b8bc50)">
     <use xlink:href="#C0_0_55407db5fa" x="117.508181" y="269.90246" style="fill: #f28360; stroke: #ffffff; stroke-width: 0.48"/>
    </g>
    <g clip-path="url(#p74f2b8bc50)">
     <use xlink:href="#C0_0_55407db5fa" x="136.541401" y="267.834329" style="fill: #f28360; stroke: #ffffff; stroke-width: 0.48"/>
    </g>
    <g clip-path="url(#p74f2b8bc50)">
     <use xlink:href="#C0_0_55407db5fa" x="125.505888" y="252.331822" style="fill: #f28360; stroke: #ffffff; stroke-width: 0.48"/>
    </g>
    <g clip-path="url(#p74f2b8bc50)">
     <use xlink:href="#C0_0_55407db5fa" x="126.873312" y="263.825167" style="fill: #f28360; stroke: #ffffff; stroke-width: 0.48"/>
    </g>
    <g clip-path="url(#p74f2b8bc50)">
     <use xlink:href="#C0_0_55407db5fa" x="118.383494" y="261.323196" style="fill: #f28360; stroke: #ffffff; stroke-width: 0.48"/>
    </g>
    <g clip-path="url(#p74f2b8bc50)">
     <use xlink:href="#C0_0_55407db5fa" x="138.8326" y="261.280164" style="fill: #f28360; stroke: #ffffff; stroke-width: 0.48"/>
    </g>
    <g clip-path="url(#p74f2b8bc50)">
     <use xlink:href="#C0_0_55407db5fa" x="143.14837" y="262.230469" style="fill: #f28360; stroke: #ffffff; stroke-width: 0.48"/>
    </g>
    <g clip-path="url(#p74f2b8bc50)">
     <use xlink:href="#C0_0_55407db5fa" x="112.297037" y="253.145771" style="fill: #f28360; stroke: #ffffff; stroke-width: 0.48"/>
    </g>
    <g clip-path="url(#p74f2b8bc50)">
     <use xlink:href="#C0_0_55407db5fa" x="119.172801" y="159.973597" style="fill: #f28360; stroke: #ffffff; stroke-width: 0.48"/>
    </g>
    <g clip-path="url(#p74f2b8bc50)">
     <use xlink:href="#C0_0_55407db5fa" x="127.544639" y="264.995617" style="fill: #f28360; stroke: #ffffff; stroke-width: 0.48"/>
    </g>
    <g clip-path="url(#p74f2b8bc50)">
     <use xlink:href="#C0_0_55407db5fa" x="112.99693" y="266.236809" style="fill: #f28360; stroke: #ffffff; stroke-width: 0.48"/>
    </g>
    <g clip-path="url(#p74f2b8bc50)">
     <use xlink:href="#C0_0_55407db5fa" x="125.654978" y="260.330298" style="fill: #f28360; stroke: #ffffff; stroke-width: 0.48"/>
    </g>
    <g clip-path="url(#p74f2b8bc50)">
     <use xlink:href="#C0_0_55407db5fa" x="113.423109" y="226.247848" style="fill: #f28360; stroke: #ffffff; stroke-width: 0.48"/>
    </g>
    <g clip-path="url(#p74f2b8bc50)">
     <use xlink:href="#C0_0_55407db5fa" x="126.917816" y="264.62838" style="fill: #f28360; stroke: #ffffff; stroke-width: 0.48"/>
    </g>
    <g clip-path="url(#p74f2b8bc50)">
     <use xlink:href="#C0_0_55407db5fa" x="127.211261" y="263.554788" style="fill: #f28360; stroke: #ffffff; stroke-width: 0.48"/>
    </g>
    <g clip-path="url(#p74f2b8bc50)">
     <use xlink:href="#C0_0_55407db5fa" x="137.783913" y="247.892685" style="fill: #f28360; stroke: #ffffff; stroke-width: 0.48"/>
    </g>
    <g clip-path="url(#p74f2b8bc50)">
     <use xlink:href="#C0_0_55407db5fa" x="143.847323" y="257.053107" style="fill: #f28360; stroke: #ffffff; stroke-width: 0.48"/>
    </g>
    <g clip-path="url(#p74f2b8bc50)">
     <use xlink:href="#C0_0_55407db5fa" x="164.879978" y="259.449735" style="fill: #f28360; stroke: #ffffff; stroke-width: 0.48"/>
    </g>
    <g clip-path="url(#p74f2b8bc50)">
     <use xlink:href="#C0_0_55407db5fa" x="133.517074" y="260.628861" style="fill: #f28360; stroke: #ffffff; stroke-width: 0.48"/>
    </g>
    <g clip-path="url(#p74f2b8bc50)">
     <use xlink:href="#C0_0_55407db5fa" x="132.415957" y="270.239007" style="fill: #f28360; stroke: #ffffff; stroke-width: 0.48"/>
    </g>
    <g clip-path="url(#p74f2b8bc50)">
     <use xlink:href="#C0_0_55407db5fa" x="123.00385" y="259.524326" style="fill: #f28360; stroke: #ffffff; stroke-width: 0.48"/>
    </g>
    <g clip-path="url(#p74f2b8bc50)">
     <use xlink:href="#C0_0_55407db5fa" x="133.28458" y="264.634924" style="fill: #f28360; stroke: #ffffff; stroke-width: 0.48"/>
    </g>
    <g clip-path="url(#p74f2b8bc50)">
     <use xlink:href="#C0_0_55407db5fa" x="141.66131" y="243.40961" style="fill: #f28360; stroke: #ffffff; stroke-width: 0.48"/>
    </g>
    <g clip-path="url(#p74f2b8bc50)">
     <use xlink:href="#C0_0_55407db5fa" x="119.193726" y="266.012096" style="fill: #f28360; stroke: #ffffff; stroke-width: 0.48"/>
    </g>
    <g clip-path="url(#p74f2b8bc50)">
     <use xlink:href="#C0_0_55407db5fa" x="138.40009" y="253.298983" style="fill: #f28360; stroke: #ffffff; stroke-width: 0.48"/>
    </g>
    <g clip-path="url(#p74f2b8bc50)">
     <use xlink:href="#C0_0_55407db5fa" x="162.99327" y="264.858894" style="fill: #f28360; stroke: #ffffff; stroke-width: 0.48"/>
    </g>
    <g clip-path="url(#p74f2b8bc50)">
     <use xlink:href="#C0_0_55407db5fa" x="152.010008" y="245.475814" style="fill: #f28360; stroke: #ffffff; stroke-width: 0.48"/>
    </g>
    <g clip-path="url(#p74f2b8bc50)">
     <use xlink:href="#C0_0_55407db5fa" x="111.747411" y="261.549157" style="fill: #f28360; stroke: #ffffff; stroke-width: 0.48"/>
    </g>
    <g clip-path="url(#p74f2b8bc50)">
     <use xlink:href="#C0_0_55407db5fa" x="114.056831" y="256.574317" style="fill: #f28360; stroke: #ffffff; stroke-width: 0.48"/>
    </g>
    <g clip-path="url(#p74f2b8bc50)">
     <use xlink:href="#C0_0_55407db5fa" x="112.565691" y="241.933986" style="fill: #f28360; stroke: #ffffff; stroke-width: 0.48"/>
    </g>
    <g clip-path="url(#p74f2b8bc50)">
     <use xlink:href="#C0_0_55407db5fa" x="133.182818" y="270.870892" style="fill: #f28360; stroke: #ffffff; stroke-width: 0.48"/>
    </g>
    <g clip-path="url(#p74f2b8bc50)">
     <use xlink:href="#C0_0_55407db5fa" x="136.573431" y="251.946063" style="fill: #f28360; stroke: #ffffff; stroke-width: 0.48"/>
    </g>
    <g clip-path="url(#p74f2b8bc50)">
     <use xlink:href="#C0_0_55407db5fa" x="117.298449" y="249.832937" style="fill: #f28360; stroke: #ffffff; stroke-width: 0.48"/>
    </g>
    <g clip-path="url(#p74f2b8bc50)">
     <use xlink:href="#C0_0_55407db5fa" x="129.022782" y="264.762564" style="fill: #f28360; stroke: #ffffff; stroke-width: 0.48"/>
    </g>
    <g clip-path="url(#p74f2b8bc50)">
     <use xlink:href="#C0_0_55407db5fa" x="126.803541" y="258.394077" style="fill: #f28360; stroke: #ffffff; stroke-width: 0.48"/>
    </g>
    <g clip-path="url(#p74f2b8bc50)">
     <use xlink:href="#C0_0_55407db5fa" x="118.293155" y="242.164799" style="fill: #f28360; stroke: #ffffff; stroke-width: 0.48"/>
    </g>
    <g clip-path="url(#p74f2b8bc50)">
     <use xlink:href="#C0_0_55407db5fa" x="117.45297" y="255.567352" style="fill: #f28360; stroke: #ffffff; stroke-width: 0.48"/>
    </g>
    <g clip-path="url(#p74f2b8bc50)">
     <use xlink:href="#C0_0_55407db5fa" x="130.996016" y="255.426806" style="fill: #f28360; stroke: #ffffff; stroke-width: 0.48"/>
    </g>
    <g clip-path="url(#p74f2b8bc50)">
     <use xlink:href="#C0_0_55407db5fa" x="118.34697" y="261.110786" style="fill: #f28360; stroke: #ffffff; stroke-width: 0.48"/>
    </g>
    <g clip-path="url(#p74f2b8bc50)">
     <use xlink:href="#C0_0_55407db5fa" x="142.919795" y="243.146496" style="fill: #f28360; stroke: #ffffff; stroke-width: 0.48"/>
    </g>
    <g clip-path="url(#p74f2b8bc50)">
     <use xlink:href="#C0_0_55407db5fa" x="120.553321" y="270.965625" style="fill: #f28360; stroke: #ffffff; stroke-width: 0.48"/>
    </g>
    <g clip-path="url(#p74f2b8bc50)">
     <use xlink:href="#C0_0_55407db5fa" x="124.333994" y="266.50472" style="fill: #f28360; stroke: #ffffff; stroke-width: 0.48"/>
    </g>
    <g clip-path="url(#p74f2b8bc50)">
     <use xlink:href="#C0_0_55407db5fa" x="130.423302" y="270.348333" style="fill: #f28360; stroke: #ffffff; stroke-width: 0.48"/>
    </g>
    <g clip-path="url(#p74f2b8bc50)">
     <use xlink:href="#C0_0_55407db5fa" x="121.125332" y="251.877485" style="fill: #f28360; stroke: #ffffff; stroke-width: 0.48"/>
    </g>
    <g clip-path="url(#p74f2b8bc50)">
     <use xlink:href="#C0_0_55407db5fa" x="111.246377" y="189.831764" style="fill: #f28360; stroke: #ffffff; stroke-width: 0.48"/>
    </g>
    <g clip-path="url(#p74f2b8bc50)">
     <use xlink:href="#C0_0_55407db5fa" x="125.308318" y="119.309812" style="fill: #f28360; stroke: #ffffff; stroke-width: 0.48"/>
    </g>
    <g clip-path="url(#p74f2b8bc50)">
     <use xlink:href="#C0_0_55407db5fa" x="120.094401" y="271.663898" style="fill: #f28360; stroke: #ffffff; stroke-width: 0.48"/>
    </g>
    <g clip-path="url(#p74f2b8bc50)">
     <use xlink:href="#C0_0_55407db5fa" x="115.923682" y="269.843714" style="fill: #f28360; stroke: #ffffff; stroke-width: 0.48"/>
    </g>
    <g clip-path="url(#p74f2b8bc50)">
     <use xlink:href="#C0_0_55407db5fa" x="121.656728" y="260.954318" style="fill: #f28360; stroke: #ffffff; stroke-width: 0.48"/>
    </g>
    <g clip-path="url(#p74f2b8bc50)">
     <use xlink:href="#C0_0_55407db5fa" x="123.899265" y="264.744521" style="fill: #f28360; stroke: #ffffff; stroke-width: 0.48"/>
    </g>
    <g clip-path="url(#p74f2b8bc50)">
     <use xlink:href="#C0_0_55407db5fa" x="136.780463" y="152.585886" style="fill: #f28360; stroke: #ffffff; stroke-width: 0.48"/>
    </g>
    <g clip-path="url(#p74f2b8bc50)">
     <use xlink:href="#C0_0_55407db5fa" x="115.661966" y="260.251272" style="fill: #f28360; stroke: #ffffff; stroke-width: 0.48"/>
    </g>
    <g clip-path="url(#p74f2b8bc50)">
     <use xlink:href="#C0_0_55407db5fa" x="131.780282" y="263.347904" style="fill: #f28360; stroke: #ffffff; stroke-width: 0.48"/>
    </g>
    <g clip-path="url(#p74f2b8bc50)">
     <use xlink:href="#C0_0_55407db5fa" x="128.258953" y="269.051383" style="fill: #f28360; stroke: #ffffff; stroke-width: 0.48"/>
    </g>
    <g clip-path="url(#p74f2b8bc50)">
     <use xlink:href="#C0_0_55407db5fa" x="121.446213" y="254.777888" style="fill: #f28360; stroke: #ffffff; stroke-width: 0.48"/>
    </g>
    <g clip-path="url(#p74f2b8bc50)">
     <use xlink:href="#C0_0_55407db5fa" x="120.194869" y="270.484508" style="fill: #f28360; stroke: #ffffff; stroke-width: 0.48"/>
    </g>
    <g clip-path="url(#p74f2b8bc50)">
     <use xlink:href="#C0_0_55407db5fa" x="119.880099" y="264.682203" style="fill: #f28360; stroke: #ffffff; stroke-width: 0.48"/>
    </g>
    <g clip-path="url(#p74f2b8bc50)">
     <use xlink:href="#C0_0_55407db5fa" x="178.2826" y="266.174725" style="fill: #7a77ab; stroke: #ffffff; stroke-width: 0.48"/>
    </g>
    <g clip-path="url(#p74f2b8bc50)">
     <use xlink:href="#C0_0_55407db5fa" x="190.468433" y="251.96453" style="fill: #7a77ab; stroke: #ffffff; stroke-width: 0.48"/>
    </g>
    <g clip-path="url(#p74f2b8bc50)">
     <use xlink:href="#C0_0_55407db5fa" x="128.160074" y="189.875303" style="fill: #7a77ab; stroke: #ffffff; stroke-width: 0.48"/>
    </g>
    <g clip-path="url(#p74f2b8bc50)">
     <use xlink:href="#C0_0_55407db5fa" x="203.851358" y="263.143327" style="fill: #7a77ab; stroke: #ffffff; stroke-width: 0.48"/>
    </g>
    <g clip-path="url(#p74f2b8bc50)">
     <use xlink:href="#C0_0_55407db5fa" x="200.354627" y="266.987525" style="fill: #7a77ab; stroke: #ffffff; stroke-width: 0.48"/>
    </g>
    <g clip-path="url(#p74f2b8bc50)">
     <use xlink:href="#C0_0_55407db5fa" x="223.063651" y="266.166789" style="fill: #7a77ab; stroke: #ffffff; stroke-width: 0.48"/>
    </g>
    <g clip-path="url(#p74f2b8bc50)">
     <use xlink:href="#C0_0_55407db5fa" x="139.205562" y="272.757072" style="fill: #7a77ab; stroke: #ffffff; stroke-width: 0.48"/>
    </g>
    <g clip-path="url(#p74f2b8bc50)">
     <use xlink:href="#C0_0_55407db5fa" x="220.869618" y="270.997656" style="fill: #7a77ab; stroke: #ffffff; stroke-width: 0.48"/>
    </g>
    <g clip-path="url(#p74f2b8bc50)">
     <use xlink:href="#C0_0_55407db5fa" x="235.786177" y="270.797021" style="fill: #7a77ab; stroke: #ffffff; stroke-width: 0.48"/>
    </g>
    <g clip-path="url(#p74f2b8bc50)">
     <use xlink:href="#C0_0_55407db5fa" x="121.912374" y="264.979688" style="fill: #7a77ab; stroke: #ffffff; stroke-width: 0.48"/>
    </g>
    <g clip-path="url(#p74f2b8bc50)">
     <use xlink:href="#C0_0_55407db5fa" x="197.180996" y="269.945241" style="fill: #7a77ab; stroke: #ffffff; stroke-width: 0.48"/>
    </g>
    <g clip-path="url(#p74f2b8bc50)">
     <use xlink:href="#C0_0_55407db5fa" x="241.917077" y="271.866392" style="fill: #7a77ab; stroke: #ffffff; stroke-width: 0.48"/>
    </g>
    <g clip-path="url(#p74f2b8bc50)">
     <use xlink:href="#C0_0_55407db5fa" x="175.92061" y="227.376909" style="fill: #7a77ab; stroke: #ffffff; stroke-width: 0.48"/>
    </g>
    <g clip-path="url(#p74f2b8bc50)">
     <use xlink:href="#C0_0_55407db5fa" x="167.429317" y="224.041268" style="fill: #7a77ab; stroke: #ffffff; stroke-width: 0.48"/>
    </g>
    <g clip-path="url(#p74f2b8bc50)">
     <use xlink:href="#C0_0_55407db5fa" x="172.819491" y="217.638586" style="fill: #7a77ab; stroke: #ffffff; stroke-width: 0.48"/>
    </g>
    <g clip-path="url(#p74f2b8bc50)">
     <use xlink:href="#C0_0_55407db5fa" x="187.532627" y="237.258339" style="fill: #7a77ab; stroke: #ffffff; stroke-width: 0.48"/>
    </g>
    <g clip-path="url(#p74f2b8bc50)">
     <use xlink:href="#C0_0_55407db5fa" x="229.229952" y="276.182649" style="fill: #7a77ab; stroke: #ffffff; stroke-width: 0.48"/>
    </g>
    <g clip-path="url(#p74f2b8bc50)">
     <use xlink:href="#C0_0_55407db5fa" x="176.995891" y="271.280101" style="fill: #7a77ab; stroke: #ffffff; stroke-width: 0.48"/>
    </g>
    <g clip-path="url(#p74f2b8bc50)">
     <use xlink:href="#C0_0_55407db5fa" x="187.490223" y="268.903258" style="fill: #7a77ab; stroke: #ffffff; stroke-width: 0.48"/>
    </g>
    <g clip-path="url(#p74f2b8bc50)">
     <use xlink:href="#C0_0_55407db5fa" x="246.713876" y="278.669999" style="fill: #7a77ab; stroke: #ffffff; stroke-width: 0.48"/>
    </g>
    <g clip-path="url(#p74f2b8bc50)">
     <use xlink:href="#C0_0_55407db5fa" x="226.885614" y="266.501685" style="fill: #7a77ab; stroke: #ffffff; stroke-width: 0.48"/>
    </g>
    <g clip-path="url(#p74f2b8bc50)">
     <use xlink:href="#C0_0_55407db5fa" x="190.714021" y="269.107103" style="fill: #7a77ab; stroke: #ffffff; stroke-width: 0.48"/>
    </g>
    <g clip-path="url(#p74f2b8bc50)">
     <use xlink:href="#C0_0_55407db5fa" x="237.979315" y="268.182618" style="fill: #7a77ab; stroke: #ffffff; stroke-width: 0.48"/>
    </g>
    <g clip-path="url(#p74f2b8bc50)">
     <use xlink:href="#C0_0_55407db5fa" x="157.969313" y="204.642397" style="fill: #7a77ab; stroke: #ffffff; stroke-width: 0.48"/>
    </g>
    <g clip-path="url(#p74f2b8bc50)">
     <use xlink:href="#C0_0_55407db5fa" x="201.426912" y="245.528388" style="fill: #7a77ab; stroke: #ffffff; stroke-width: 0.48"/>
    </g>
    <g clip-path="url(#p74f2b8bc50)">
     <use xlink:href="#C0_0_55407db5fa" x="206.130899" y="248.980915" style="fill: #7a77ab; stroke: #ffffff; stroke-width: 0.48"/>
    </g>
    <g clip-path="url(#p74f2b8bc50)">
     <use xlink:href="#C0_0_55407db5fa" x="215.423929" y="255.062408" style="fill: #7a77ab; stroke: #ffffff; stroke-width: 0.48"/>
    </g>
    <g clip-path="url(#p74f2b8bc50)">
     <use xlink:href="#C0_0_55407db5fa" x="209.725085" y="252.011279" style="fill: #7a77ab; stroke: #ffffff; stroke-width: 0.48"/>
    </g>
    <g clip-path="url(#p74f2b8bc50)">
     <use xlink:href="#C0_0_55407db5fa" x="212.415139" y="250.545198" style="fill: #7a77ab; stroke: #ffffff; stroke-width: 0.48"/>
    </g>
    <g clip-path="url(#p74f2b8bc50)">
     <use xlink:href="#C0_0_55407db5fa" x="129.474111" y="259.830162" style="fill: #7a77ab; stroke: #ffffff; stroke-width: 0.48"/>
    </g>
    <g clip-path="url(#p74f2b8bc50)">
     <use xlink:href="#C0_0_55407db5fa" x="243.885659" y="270.892168" style="fill: #7a77ab; stroke: #ffffff; stroke-width: 0.48"/>
    </g>
    <g clip-path="url(#p74f2b8bc50)">
     <use xlink:href="#C0_0_55407db5fa" x="218.056471" y="266.800925" style="fill: #7a77ab; stroke: #ffffff; stroke-width: 0.48"/>
    </g>
    <g clip-path="url(#p74f2b8bc50)">
     <use xlink:href="#C0_0_55407db5fa" x="151.277175" y="252.083051" style="fill: #7a77ab; stroke: #ffffff; stroke-width: 0.48"/>
    </g>
    <g clip-path="url(#p74f2b8bc50)">
     <use xlink:href="#C0_0_55407db5fa" x="169.880116" y="259.57967" style="fill: #7a77ab; stroke: #ffffff; stroke-width: 0.48"/>
    </g>
    <g clip-path="url(#p74f2b8bc50)">
     <use xlink:href="#C0_0_55407db5fa" x="232.892416" y="272.701126" style="fill: #7a77ab; stroke: #ffffff; stroke-width: 0.48"/>
    </g>
    <g clip-path="url(#p74f2b8bc50)">
     <use xlink:href="#C0_0_55407db5fa" x="170.322032" y="265.218308" style="fill: #7a77ab; stroke: #ffffff; stroke-width: 0.48"/>
    </g>
    <g clip-path="url(#p74f2b8bc50)">
     <use xlink:href="#C0_0_55407db5fa" x="149.059535" y="231.569444" style="fill: #7a77ab; stroke: #ffffff; stroke-width: 0.48"/>
    </g>
    <g clip-path="url(#p74f2b8bc50)">
     <use xlink:href="#C0_0_55407db5fa" x="167.362109" y="272.674736" style="fill: #7a77ab; stroke: #ffffff; stroke-width: 0.48"/>
    </g>
    <g clip-path="url(#p74f2b8bc50)">
     <use xlink:href="#C0_0_55407db5fa" x="184.896473" y="266.166766" style="fill: #7a77ab; stroke: #ffffff; stroke-width: 0.48"/>
    </g>
    <g clip-path="url(#p74f2b8bc50)">
     <use xlink:href="#C0_0_55407db5fa" x="159.620556" y="252.041993" style="fill: #7a77ab; stroke: #ffffff; stroke-width: 0.48"/>
    </g>
    <g clip-path="url(#p74f2b8bc50)">
     <use xlink:href="#C0_0_55407db5fa" x="206.566152" y="250.389129" style="fill: #7a77ab; stroke: #ffffff; stroke-width: 0.48"/>
    </g>
    <g clip-path="url(#p74f2b8bc50)">
     <use xlink:href="#C0_0_55407db5fa" x="199.992538" y="249.413994" style="fill: #7a77ab; stroke: #ffffff; stroke-width: 0.48"/>
    </g>
    <g clip-path="url(#p74f2b8bc50)">
     <use xlink:href="#C0_0_55407db5fa" x="220.913362" y="264.138869" style="fill: #7a77ab; stroke: #ffffff; stroke-width: 0.48"/>
    </g>
    <g clip-path="url(#p74f2b8bc50)">
     <use xlink:href="#C0_0_55407db5fa" x="231.540147" y="261.174691" style="fill: #7a77ab; stroke: #ffffff; stroke-width: 0.48"/>
    </g>
    <g clip-path="url(#p74f2b8bc50)">
     <use xlink:href="#C0_0_55407db5fa" x="150.271189" y="259.429667" style="fill: #7a77ab; stroke: #ffffff; stroke-width: 0.48"/>
    </g>
    <g clip-path="url(#p74f2b8bc50)">
     <use xlink:href="#C0_0_55407db5fa" x="229.721162" y="267.989643" style="fill: #7a77ab; stroke: #ffffff; stroke-width: 0.48"/>
    </g>
    <g clip-path="url(#p74f2b8bc50)">
     <use xlink:href="#C0_0_55407db5fa" x="213.187452" y="274.693602" style="fill: #7a77ab; stroke: #ffffff; stroke-width: 0.48"/>
    </g>
    <g clip-path="url(#p74f2b8bc50)">
     <use xlink:href="#C0_0_55407db5fa" x="205.071265" y="274.182738" style="fill: #7a77ab; stroke: #ffffff; stroke-width: 0.48"/>
    </g>
    <g clip-path="url(#p74f2b8bc50)">
     <use xlink:href="#C0_0_55407db5fa" x="185.028432" y="250.160644" style="fill: #7a77ab; stroke: #ffffff; stroke-width: 0.48"/>
    </g>
    <g clip-path="url(#p74f2b8bc50)">
     <use xlink:href="#C0_0_55407db5fa" x="143.271059" y="238.60858" style="fill: #7a77ab; stroke: #ffffff; stroke-width: 0.48"/>
    </g>
    <g clip-path="url(#p74f2b8bc50)">
     <use xlink:href="#C0_0_55407db5fa" x="183.612274" y="261.797561" style="fill: #7a77ab; stroke: #ffffff; stroke-width: 0.48"/>
    </g>
    <g clip-path="url(#p74f2b8bc50)">
     <use xlink:href="#C0_0_55407db5fa" x="170.468331" y="232.9721" style="fill: #7a77ab; stroke: #ffffff; stroke-width: 0.48"/>
    </g>
    <g clip-path="url(#p74f2b8bc50)">
     <use xlink:href="#C0_0_55407db5fa" x="167.446898" y="225.851468" style="fill: #7a77ab; stroke: #ffffff; stroke-width: 0.48"/>
    </g>
    <g clip-path="url(#p74f2b8bc50)">
     <use xlink:href="#C0_0_55407db5fa" x="151.565713" y="236.639343" style="fill: #7a77ab; stroke: #ffffff; stroke-width: 0.48"/>
    </g>
    <g clip-path="url(#p74f2b8bc50)">
     <use xlink:href="#C0_0_55407db5fa" x="177.315223" y="270.578776" style="fill: #7a77ab; stroke: #ffffff; stroke-width: 0.48"/>
    </g>
    <g clip-path="url(#p74f2b8bc50)">
     <use xlink:href="#C0_0_55407db5fa" x="227.219428" y="271.359601" style="fill: #7a77ab; stroke: #ffffff; stroke-width: 0.48"/>
    </g>
    <g clip-path="url(#p74f2b8bc50)">
     <use xlink:href="#C0_0_55407db5fa" x="144.611348" y="257.490599" style="fill: #7a77ab; stroke: #ffffff; stroke-width: 0.48"/>
    </g>
    <g clip-path="url(#p74f2b8bc50)">
     <use xlink:href="#C0_0_55407db5fa" x="139.696833" y="219.235736" style="fill: #7a77ab; stroke: #ffffff; stroke-width: 0.48"/>
    </g>
    <g clip-path="url(#p74f2b8bc50)">
     <use xlink:href="#C0_0_55407db5fa" x="156.592335" y="269.135443" style="fill: #7a77ab; stroke: #ffffff; stroke-width: 0.48"/>
    </g>
    <g clip-path="url(#p74f2b8bc50)">
     <use xlink:href="#C0_0_55407db5fa" x="215.376816" y="253.481306" style="fill: #7a77ab; stroke: #ffffff; stroke-width: 0.48"/>
    </g>
    <g clip-path="url(#p74f2b8bc50)">
     <use xlink:href="#C0_0_55407db5fa" x="162.978164" y="256.462305" style="fill: #7a77ab; stroke: #ffffff; stroke-width: 0.48"/>
    </g>
    <g clip-path="url(#p74f2b8bc50)">
     <use xlink:href="#C0_0_55407db5fa" x="153.857767" y="267.264207" style="fill: #7a77ab; stroke: #ffffff; stroke-width: 0.48"/>
    </g>
    <g clip-path="url(#p74f2b8bc50)">
     <use xlink:href="#C0_0_55407db5fa" x="201.609397" y="264.707685" style="fill: #7a77ab; stroke: #ffffff; stroke-width: 0.48"/>
    </g>
    <g clip-path="url(#p74f2b8bc50)">
     <use xlink:href="#C0_0_55407db5fa" x="197.246559" y="259.152354" style="fill: #7a77ab; stroke: #ffffff; stroke-width: 0.48"/>
    </g>
    <g clip-path="url(#p74f2b8bc50)">
     <use xlink:href="#C0_0_55407db5fa" x="226.463166" y="275.374805" style="fill: #7a77ab; stroke: #ffffff; stroke-width: 0.48"/>
    </g>
    <g clip-path="url(#p74f2b8bc50)">
     <use xlink:href="#C0_0_55407db5fa" x="182.254283" y="259.739801" style="fill: #7a77ab; stroke: #ffffff; stroke-width: 0.48"/>
    </g>
    <g clip-path="url(#p74f2b8bc50)">
     <use xlink:href="#C0_0_55407db5fa" x="180.52603" y="262.080204" style="fill: #7a77ab; stroke: #ffffff; stroke-width: 0.48"/>
    </g>
    <g clip-path="url(#p74f2b8bc50)">
     <use xlink:href="#C0_0_55407db5fa" x="158.988153" y="248.018536" style="fill: #7a77ab; stroke: #ffffff; stroke-width: 0.48"/>
    </g>
    <g clip-path="url(#p74f2b8bc50)">
     <use xlink:href="#C0_0_55407db5fa" x="169.223644" y="265.796889" style="fill: #7a77ab; stroke: #ffffff; stroke-width: 0.48"/>
    </g>
    <g clip-path="url(#p74f2b8bc50)">
     <use xlink:href="#C0_0_55407db5fa" x="215.507216" y="263.561581" style="fill: #7a77ab; stroke: #ffffff; stroke-width: 0.48"/>
    </g>
    <g clip-path="url(#p74f2b8bc50)">
     <use xlink:href="#C0_0_55407db5fa" x="191.745446" y="256.133523" style="fill: #7a77ab; stroke: #ffffff; stroke-width: 0.48"/>
    </g>
    <g clip-path="url(#p74f2b8bc50)">
     <use xlink:href="#C0_0_55407db5fa" x="202.298659" y="267.494756" style="fill: #7a77ab; stroke: #ffffff; stroke-width: 0.48"/>
    </g>
    <g clip-path="url(#p74f2b8bc50)">
     <use xlink:href="#C0_0_55407db5fa" x="167.615689" y="239.470254" style="fill: #7a77ab; stroke: #ffffff; stroke-width: 0.48"/>
    </g>
    <g clip-path="url(#p74f2b8bc50)">
     <use xlink:href="#C0_0_55407db5fa" x="176.329283" y="253.404547" style="fill: #7a77ab; stroke: #ffffff; stroke-width: 0.48"/>
    </g>
    <g clip-path="url(#p74f2b8bc50)">
     <use xlink:href="#C0_0_55407db5fa" x="175.206938" y="257.59255" style="fill: #7a77ab; stroke: #ffffff; stroke-width: 0.48"/>
    </g>
    <g clip-path="url(#p74f2b8bc50)">
     <use xlink:href="#C0_0_55407db5fa" x="171.654574" y="272.13403" style="fill: #7a77ab; stroke: #ffffff; stroke-width: 0.48"/>
    </g>
    <g clip-path="url(#p74f2b8bc50)">
     <use xlink:href="#C0_0_55407db5fa" x="132.501231" y="248.206233" style="fill: #7a77ab; stroke: #ffffff; stroke-width: 0.48"/>
    </g>
    <g clip-path="url(#p74f2b8bc50)">
     <use xlink:href="#C0_0_55407db5fa" x="150.353626" y="222.89094" style="fill: #7a77ab; stroke: #ffffff; stroke-width: 0.48"/>
    </g>
    <g clip-path="url(#p74f2b8bc50)">
     <use xlink:href="#C0_0_55407db5fa" x="225.450079" y="263.14423" style="fill: #7a77ab; stroke: #ffffff; stroke-width: 0.48"/>
    </g>
    <g clip-path="url(#p74f2b8bc50)">
     <use xlink:href="#C0_0_55407db5fa" x="235.055705" y="276.73376" style="fill: #7a77ab; stroke: #ffffff; stroke-width: 0.48"/>
    </g>
    <g clip-path="url(#p74f2b8bc50)">
     <use xlink:href="#C0_0_55407db5fa" x="140.541246" y="227.737018" style="fill: #7a77ab; stroke: #ffffff; stroke-width: 0.48"/>
    </g>
    <g clip-path="url(#p74f2b8bc50)">
     <use xlink:href="#C0_0_55407db5fa" x="165.930661" y="238.371062" style="fill: #7a77ab; stroke: #ffffff; stroke-width: 0.48"/>
    </g>
    <g clip-path="url(#p74f2b8bc50)">
     <use xlink:href="#C0_0_55407db5fa" x="135.501122" y="230.960085" style="fill: #7a77ab; stroke: #ffffff; stroke-width: 0.48"/>
    </g>
    <g clip-path="url(#p74f2b8bc50)">
     <use xlink:href="#C0_0_55407db5fa" x="241.776948" y="270.713723" style="fill: #7a77ab; stroke: #ffffff; stroke-width: 0.48"/>
    </g>
    <g clip-path="url(#p74f2b8bc50)">
     <use xlink:href="#C0_0_55407db5fa" x="136.299817" y="244.575392" style="fill: #7a77ab; stroke: #ffffff; stroke-width: 0.48"/>
    </g>
    <g clip-path="url(#p74f2b8bc50)">
     <use xlink:href="#C0_0_55407db5fa" x="137.225792" y="239.041722" style="fill: #7a77ab; stroke: #ffffff; stroke-width: 0.48"/>
    </g>
    <g clip-path="url(#p74f2b8bc50)">
     <use xlink:href="#C0_0_55407db5fa" x="188.327555" y="244.869879" style="fill: #7a77ab; stroke: #ffffff; stroke-width: 0.48"/>
    </g>
    <g clip-path="url(#p74f2b8bc50)">
     <use xlink:href="#C0_0_55407db5fa" x="137.131197" y="251.226218" style="fill: #7a77ab; stroke: #ffffff; stroke-width: 0.48"/>
    </g>
    <g clip-path="url(#p74f2b8bc50)">
     <use xlink:href="#C0_0_55407db5fa" x="209.39433" y="273.160113" style="fill: #7a77ab; stroke: #ffffff; stroke-width: 0.48"/>
    </g>
    <g clip-path="url(#p74f2b8bc50)">
     <use xlink:href="#C0_0_55407db5fa" x="126.466197" y="223.088588" style="fill: #7a77ab; stroke: #ffffff; stroke-width: 0.48"/>
    </g>
    <g clip-path="url(#p74f2b8bc50)">
     <use xlink:href="#C0_0_55407db5fa" x="132.054415" y="247.140224" style="fill: #7a77ab; stroke: #ffffff; stroke-width: 0.48"/>
    </g>
   </g>
   <g id="matplotlib.axis_1">
    <g id="xtick_1">
     <g id="line2d_1">
      <defs>
       <path id="mb07636c17f" d="M 0 0 
L 0 5 
" style="stroke: #000000; stroke-width: 0.75"/>
      </defs>
      <g>
       <use xlink:href="#mb07636c17f" x="110.957751" y="312.563736" style="stroke: #000000; stroke-width: 0.75"/>
      </g>
     </g>
     <g id="text_1">
      <text style="font: 14.5px &quot;Suisse Int&apos;l Mono&quot;; text-anchor: middle" x="110.957751" y="333.076236" transform="rotate(-0 110.957751 333.076236)">0.0</text>
     </g>
    </g>
    <g id="xtick_2">
     <g id="line2d_2">
      <g>
       <use xlink:href="#mb07636c17f" x="185.054641" y="312.563736" style="stroke: #000000; stroke-width: 0.75"/>
      </g>
     </g>
     <g id="text_2">
      <text style="font: 14.5px &quot;Suisse Int&apos;l Mono&quot;; text-anchor: middle" x="185.054641" y="333.076236" transform="rotate(-0 185.054641 333.076236)">0.5</text>
     </g>
    </g>
    <g id="xtick_3">
     <g id="line2d_3">
      <g>
       <use xlink:href="#mb07636c17f" x="259.151531" y="312.563736" style="stroke: #000000; stroke-width: 0.75"/>
      </g>
     </g>
     <g id="text_3">
      <text style="font: 14.5px &quot;Suisse Int&apos;l Mono&quot;; text-anchor: middle" x="259.151531" y="333.076236" transform="rotate(-0 259.151531 333.076236)">1.0</text>
     </g>
    </g>
    <g id="text_4">
     <text style="font: 500 15px &quot;Suisse Int&apos;l&quot;, sans-serif; text-anchor: middle" x="184.313125" y="356.488736" transform="rotate(-0 184.313125 356.488736)">Confinement ratio</text>
    </g>
   </g>
   <g id="matplotlib.axis_2">
    <g id="ytick_1">
     <g id="line2d_4">
      <defs>
       <path id="me5ab1d3f83" d="M 0 0 
L -5 0 
" style="stroke: #000000; stroke-width: 0.75"/>
      </defs>
      <g>
       <use xlink:href="#me5ab1d3f83" x="72.518125" y="283.654726" style="stroke: #000000; stroke-width: 0.75"/>
      </g>
     </g>
     <g id="text_5">
      <text style="font: 14.5px &quot;Suisse Int&apos;l Mono&quot;; text-anchor: end" x="62.518125" y="288.910976" transform="rotate(-0 62.518125 288.910976)">0</text>
     </g>
    </g>
    <g id="ytick_2">
     <g id="line2d_5">
      <g>
       <use xlink:href="#me5ab1d3f83" x="72.518125" y="218.500311" style="stroke: #000000; stroke-width: 0.75"/>
      </g>
     </g>
     <g id="text_6">
      <text style="font: 14.5px &quot;Suisse Int&apos;l Mono&quot;; text-anchor: end" x="62.518125" y="223.756561" transform="rotate(-0 62.518125 223.756561)">10</text>
     </g>
    </g>
    <g id="ytick_3">
     <g id="line2d_6">
      <g>
       <use xlink:href="#me5ab1d3f83" x="72.518125" y="153.345896" style="stroke: #000000; stroke-width: 0.75"/>
      </g>
     </g>
     <g id="text_7">
      <text style="font: 14.5px &quot;Suisse Int&apos;l Mono&quot;; text-anchor: end" x="62.518125" y="158.602146" transform="rotate(-0 62.518125 158.602146)">20</text>
     </g>
    </g>
    <g id="ytick_4">
     <g id="line2d_7">
      <g>
       <use xlink:href="#me5ab1d3f83" x="72.518125" y="88.191482" style="stroke: #000000; stroke-width: 0.75"/>
      </g>
     </g>
     <g id="text_8">
      <text style="font: 14.5px &quot;Suisse Int&apos;l Mono&quot;; text-anchor: end" x="62.518125" y="93.447732" transform="rotate(-0 62.518125 93.447732)">30</text>
     </g>
    </g>
    <g id="text_9">
     <text style="font: 500 15px &quot;Suisse Int&apos;l&quot;, sans-serif; text-anchor: middle" x="30.875" y="196.729451" transform="rotate(-90 30.875 196.729451)">Mean angular speed (rad/s)</text>
    </g>
   </g>
   <g id="line2d_8"/>
   <g id="line2d_9"/>
   <g id="patch_3">
    <path d="M 72.518125 312.563736 
L 72.518125 80.895165 
" style="fill: none; stroke: #000000; stroke-width: 0.75; stroke-linejoin: miter; stroke-linecap: square"/>
   </g>
   <g id="patch_4">
    <path d="M 72.518125 312.563736 
L 296.108125 312.563736 
" style="fill: none; stroke: #000000; stroke-width: 0.75; stroke-linejoin: miter; stroke-linecap: square"/>
   </g>
   <g id="legend_1">
    <g id="text_10">
     <text style="font: 600 16px &quot;Suisse Int&apos;l&quot;, sans-serif; text-anchor: start" x="339.121125" y="92.495165" transform="rotate(-0 339.121125 92.495165)">Vessel_type</text>
    </g>
    <g id="line2d_10">
     <path d="M 339.121125 102.795165 
L 452.621125 102.795165 
" style="fill: none; stroke: #bab0a8; stroke-width: 1.5; stroke-linecap: round"/>
    </g>
    <g id="line2d_11">
     <defs>
      <path id="m156b0be5a4" d="M 0 3 
C 0.795609 3 1.55874 2.683901 2.12132 2.12132 
C 2.683901 1.55874 3 0.795609 3 0 
C 3 -0.795609 2.683901 -1.55874 2.12132 -2.12132 
C 1.55874 -2.683901 0.795609 -3 0 -3 
C -0.795609 -3 -1.55874 -2.683901 -2.12132 -2.12132 
C -2.683901 -1.55874 -3 -0.795609 -3 0 
C -3 0.795609 -2.683901 1.55874 -2.12132 2.12132 
C -1.55874 2.683901 -0.795609 3 0 3 
z
" style="stroke: #ffffff; stroke-width: 0.48"/>
     </defs>
     <g>
      <use xlink:href="#m156b0be5a4" x="346.621125" y="116.670165" style="fill: #f28360; stroke: #ffffff; stroke-width: 0.48"/>
     </g>
    </g>
    <g id="text_11">
     <text style="font: 15px &quot;Suisse Int&apos;l&quot;, sans-serif; text-anchor: start" x="360.121125" y="123.045165" transform="rotate(-0 360.121125 123.045165)">Pools | n=145</text>
    </g>
    <g id="line2d_12">
     <defs>
      <path id="m5be2da07eb" d="M 0 3 
C 0.795609 3 1.55874 2.683901 2.12132 2.12132 
C 2.683901 1.55874 3 0.795609 3 0 
C 3 -0.795609 2.683901 -1.55874 2.12132 -2.12132 
C 1.55874 -2.683901 0.795609 -3 0 -3 
C -0.795609 -3 -1.55874 -2.683901 -2.12132 -2.12132 
C -2.683901 -1.55874 -3 -0.795609 -3 0 
C -3 0.795609 -2.683901 1.55874 -2.12132 2.12132 
C -1.55874 2.683901 -0.795609 3 0 3 
z
" style="stroke: #ffffff; stroke-width: 0.48"/>
     </defs>
     <g>
      <use xlink:href="#m5be2da07eb" x="346.621125" y="139.545165" style="fill: #7a77ab; stroke: #ffffff; stroke-width: 0.48"/>
     </g>
    </g>
    <g id="text_12">
     <text style="font: 15px &quot;Suisse Int&apos;l&quot;, sans-serif; text-anchor: start" x="360.121125" y="145.920165" transform="rotate(-0 360.121125 145.920165)">Wells | n=91</text>
    </g>
   </g>
  </g>
  <g id="axes_2">
   <g id="patch_5">
    <path d="M 72.518125 72.906593 
L 296.108125 72.906593 
L 296.108125 32.963736 
L 72.518125 32.963736 
L 72.518125 72.906593 
z
" style="fill: none"/>
   </g>
   <g id="PolyCollection_1">
    <defs>
     <path id="m44a5bda1ba" d="M 80.799236 -306.213451 
L 80.799236 -306.207143 
L 81.839577 -306.207143 
L 82.879917 -306.207143 
L 83.920258 -306.207143 
L 84.960598 -306.207143 
L 86.000939 -306.207143 
L 87.04128 -306.207143 
L 88.08162 -306.207143 
L 89.121961 -306.207143 
L 90.162301 -306.207143 
L 91.202642 -306.207143 
L 92.242983 -306.207143 
L 93.283323 -306.207143 
L 94.323664 -306.207143 
L 95.364004 -306.207143 
L 96.404345 -306.207143 
L 97.444686 -306.207143 
L 98.485026 -306.207143 
L 99.525367 -306.207143 
L 100.565707 -306.207143 
L 101.606048 -306.207143 
L 102.646389 -306.207143 
L 103.686729 -306.207143 
L 104.72707 -306.207143 
L 105.76741 -306.207143 
L 106.807751 -306.207143 
L 107.848091 -306.207143 
L 108.888432 -306.207143 
L 109.928773 -306.207143 
L 110.969113 -306.207143 
L 112.009454 -306.207143 
L 113.049794 -306.207143 
L 114.090135 -306.207143 
L 115.130476 -306.207143 
L 116.170816 -306.207143 
L 117.211157 -306.207143 
L 118.251497 -306.207143 
L 119.291838 -306.207143 
L 120.332179 -306.207143 
L 121.372519 -306.207143 
L 122.41286 -306.207143 
L 123.4532 -306.207143 
L 124.493541 -306.207143 
L 125.533882 -306.207143 
L 126.574222 -306.207143 
L 127.614563 -306.207143 
L 128.654903 -306.207143 
L 129.695244 -306.207143 
L 130.735585 -306.207143 
L 131.775925 -306.207143 
L 132.816266 -306.207143 
L 133.856606 -306.207143 
L 134.896947 -306.207143 
L 135.937287 -306.207143 
L 136.977628 -306.207143 
L 138.017969 -306.207143 
L 139.058309 -306.207143 
L 140.09865 -306.207143 
L 141.13899 -306.207143 
L 142.179331 -306.207143 
L 143.219672 -306.207143 
L 144.260012 -306.207143 
L 145.300353 -306.207143 
L 146.340693 -306.207143 
L 147.381034 -306.207143 
L 148.421375 -306.207143 
L 149.461715 -306.207143 
L 150.502056 -306.207143 
L 151.542396 -306.207143 
L 152.582737 -306.207143 
L 153.623078 -306.207143 
L 154.663418 -306.207143 
L 155.703759 -306.207143 
L 156.744099 -306.207143 
L 157.78444 -306.207143 
L 158.82478 -306.207143 
L 159.865121 -306.207143 
L 160.905462 -306.207143 
L 161.945802 -306.207143 
L 162.986143 -306.207143 
L 164.026483 -306.207143 
L 165.066824 -306.207143 
L 166.107165 -306.207143 
L 167.147505 -306.207143 
L 168.187846 -306.207143 
L 169.228186 -306.207143 
L 170.268527 -306.207143 
L 171.308868 -306.207143 
L 172.349208 -306.207143 
L 173.389549 -306.207143 
L 174.429889 -306.207143 
L 175.47023 -306.207143 
L 176.510571 -306.207143 
L 177.550911 -306.207143 
L 178.591252 -306.207143 
L 179.631592 -306.207143 
L 180.671933 -306.207143 
L 181.712274 -306.207143 
L 182.752614 -306.207143 
L 183.792955 -306.207143 
L 184.833295 -306.207143 
L 185.873636 -306.207143 
L 186.913976 -306.207143 
L 187.954317 -306.207143 
L 188.994658 -306.207143 
L 190.034998 -306.207143 
L 191.075339 -306.207143 
L 192.115679 -306.207143 
L 193.15602 -306.207143 
L 194.196361 -306.207143 
L 195.236701 -306.207143 
L 196.277042 -306.207143 
L 197.317382 -306.207143 
L 198.357723 -306.207143 
L 199.398064 -306.207143 
L 200.438404 -306.207143 
L 201.478745 -306.207143 
L 202.519085 -306.207143 
L 203.559426 -306.207143 
L 204.599767 -306.207143 
L 205.640107 -306.207143 
L 206.680448 -306.207143 
L 207.720788 -306.207143 
L 208.761129 -306.207143 
L 209.80147 -306.207143 
L 210.84181 -306.207143 
L 211.882151 -306.207143 
L 212.922491 -306.207143 
L 213.962832 -306.207143 
L 215.003172 -306.207143 
L 216.043513 -306.207143 
L 217.083854 -306.207143 
L 218.124194 -306.207143 
L 219.164535 -306.207143 
L 220.204875 -306.207143 
L 221.245216 -306.207143 
L 222.285557 -306.207143 
L 223.325897 -306.207143 
L 224.366238 -306.207143 
L 225.406578 -306.207143 
L 226.446919 -306.207143 
L 227.48726 -306.207143 
L 228.5276 -306.207143 
L 229.567941 -306.207143 
L 230.608281 -306.207143 
L 231.648622 -306.207143 
L 232.688963 -306.207143 
L 233.729303 -306.207143 
L 234.769644 -306.207143 
L 235.809984 -306.207143 
L 236.850325 -306.207143 
L 237.890665 -306.207143 
L 238.931006 -306.207143 
L 239.971347 -306.207143 
L 241.011687 -306.207143 
L 242.052028 -306.207143 
L 243.092368 -306.207143 
L 244.132709 -306.207143 
L 245.17305 -306.207143 
L 246.21339 -306.207143 
L 247.253731 -306.207143 
L 248.294071 -306.207143 
L 249.334412 -306.207143 
L 250.374753 -306.207143 
L 251.415093 -306.207143 
L 252.455434 -306.207143 
L 253.495774 -306.207143 
L 254.536115 -306.207143 
L 255.576456 -306.207143 
L 256.616796 -306.207143 
L 257.657137 -306.207143 
L 258.697477 -306.207143 
L 259.737818 -306.207143 
L 260.778159 -306.207143 
L 261.818499 -306.207143 
L 262.85884 -306.207143 
L 263.89918 -306.207143 
L 264.939521 -306.207143 
L 265.979861 -306.207143 
L 267.020202 -306.207143 
L 268.060543 -306.207143 
L 269.100883 -306.207143 
L 270.141224 -306.207143 
L 271.181564 -306.207143 
L 272.221905 -306.207143 
L 273.262246 -306.207143 
L 274.302586 -306.207143 
L 275.342927 -306.207143 
L 276.383267 -306.207143 
L 277.423608 -306.207143 
L 278.463949 -306.207143 
L 279.504289 -306.207143 
L 280.54463 -306.207143 
L 281.58497 -306.207143 
L 282.625311 -306.207143 
L 283.665652 -306.207143 
L 284.705992 -306.207143 
L 285.746333 -306.207143 
L 286.786673 -306.207143 
L 287.827014 -306.207143 
L 287.827014 -306.214949 
L 287.827014 -306.214949 
L 286.786673 -306.217106 
L 285.746333 -306.219792 
L 284.705992 -306.223118 
L 283.665652 -306.227214 
L 282.625311 -306.232229 
L 281.58497 -306.238337 
L 280.54463 -306.245732 
L 279.504289 -306.254636 
L 278.463949 -306.265299 
L 277.423608 -306.277995 
L 276.383267 -306.29303 
L 275.342927 -306.310734 
L 274.302586 -306.331469 
L 273.262246 -306.355619 
L 272.221905 -306.383591 
L 271.181564 -306.415816 
L 270.141224 -306.452735 
L 269.100883 -306.494805 
L 268.060543 -306.542483 
L 267.020202 -306.596229 
L 265.979861 -306.656487 
L 264.939521 -306.723686 
L 263.89918 -306.798228 
L 262.85884 -306.880477 
L 261.818499 -306.970751 
L 260.778159 -307.069313 
L 259.737818 -307.176362 
L 258.697477 -307.292025 
L 257.657137 -307.416349 
L 256.616796 -307.549294 
L 255.576456 -307.690731 
L 254.536115 -307.840436 
L 253.495774 -307.998088 
L 252.455434 -308.163274 
L 251.415093 -308.335483 
L 250.374753 -308.514119 
L 249.334412 -308.6985 
L 248.294071 -308.887872 
L 247.253731 -309.081411 
L 246.21339 -309.278242 
L 245.17305 -309.477444 
L 244.132709 -309.678069 
L 243.092368 -309.879154 
L 242.052028 -310.079731 
L 241.011687 -310.278849 
L 239.971347 -310.475582 
L 238.931006 -310.669044 
L 237.890665 -310.858403 
L 236.850325 -311.042888 
L 235.809984 -311.221805 
L 234.769644 -311.394539 
L 233.729303 -311.560562 
L 232.688963 -311.71944 
L 231.648622 -311.87083 
L 230.608281 -312.014482 
L 229.567941 -312.150242 
L 228.5276 -312.278037 
L 227.48726 -312.397882 
L 226.446919 -312.509863 
L 225.406578 -312.614135 
L 224.366238 -312.710912 
L 223.325897 -312.800455 
L 222.285557 -312.883066 
L 221.245216 -312.959079 
L 220.204875 -313.028847 
L 219.164535 -313.09274 
L 218.124194 -313.151136 
L 217.083854 -313.204416 
L 216.043513 -313.25296 
L 215.003172 -313.297147 
L 213.962832 -313.337351 
L 212.922491 -313.373944 
L 211.882151 -313.407297 
L 210.84181 -313.437779 
L 209.80147 -313.465766 
L 208.761129 -313.491636 
L 207.720788 -313.515775 
L 206.680448 -313.538579 
L 205.640107 -313.560452 
L 204.599767 -313.581806 
L 203.559426 -313.603057 
L 202.519085 -313.624621 
L 201.478745 -313.646908 
L 200.438404 -313.670316 
L 199.398064 -313.695217 
L 198.357723 -313.72195 
L 197.317382 -313.750811 
L 196.277042 -313.782036 
L 195.236701 -313.815796 
L 194.196361 -313.852184 
L 193.15602 -313.891201 
L 192.115679 -313.932758 
L 191.075339 -313.976661 
L 190.034998 -314.022615 
L 188.994658 -314.070219 
L 187.954317 -314.118974 
L 186.913976 -314.168285 
L 185.873636 -314.217477 
L 184.833295 -314.265799 
L 183.792955 -314.312449 
L 182.752614 -314.356584 
L 181.712274 -314.397346 
L 180.671933 -314.43388 
L 179.631592 -314.465356 
L 178.591252 -314.490992 
L 177.550911 -314.510076 
L 176.510571 -314.521984 
L 175.47023 -314.526196 
L 174.429889 -314.522315 
L 173.389549 -314.510076 
L 172.349208 -314.489354 
L 171.308868 -314.460168 
L 170.268527 -314.422678 
L 169.228186 -314.377186 
L 168.187846 -314.324119 
L 167.147505 -314.264025 
L 166.107165 -314.197547 
L 165.066824 -314.125411 
L 164.026483 -314.048401 
L 162.986143 -313.967336 
L 161.945802 -313.883042 
L 160.905462 -313.796334 
L 159.865121 -313.707986 
L 158.82478 -313.618708 
L 157.78444 -313.529131 
L 156.744099 -313.43978 
L 155.703759 -313.351067 
L 154.663418 -313.263273 
L 153.623078 -313.176547 
L 152.582737 -313.090894 
L 151.542396 -313.006185 
L 150.502056 -312.922155 
L 149.461715 -312.838414 
L 148.421375 -312.754462 
L 147.381034 -312.6697 
L 146.340693 -312.583453 
L 145.300353 -312.494989 
L 144.260012 -312.403542 
L 143.219672 -312.308335 
L 142.179331 -312.208608 
L 141.13899 -312.103636 
L 140.09865 -311.992756 
L 139.058309 -311.87539 
L 138.017969 -311.751058 
L 136.977628 -311.619403 
L 135.937287 -311.480197 
L 134.896947 -311.333354 
L 133.856606 -311.17894 
L 132.816266 -311.017167 
L 131.775925 -310.848399 
L 130.735585 -310.673142 
L 129.695244 -310.492039 
L 128.654903 -310.305852 
L 127.614563 -310.115451 
L 126.574222 -309.921796 
L 125.533882 -309.725915 
L 124.493541 -309.528883 
L 123.4532 -309.331805 
L 122.41286 -309.135787 
L 121.372519 -308.941921 
L 120.332179 -308.751262 
L 119.291838 -308.56481 
L 118.251497 -308.383495 
L 117.211157 -308.208158 
L 116.170816 -308.039549 
L 115.130476 -307.878307 
L 114.090135 -307.724962 
L 113.049794 -307.579932 
L 112.009454 -307.443518 
L 110.969113 -307.315909 
L 109.928773 -307.197187 
L 108.888432 -307.087334 
L 107.848091 -306.986238 
L 106.807751 -306.893703 
L 105.76741 -306.809462 
L 104.72707 -306.733183 
L 103.686729 -306.664485 
L 102.646389 -306.602946 
L 101.606048 -306.548116 
L 100.565707 -306.499524 
L 99.525367 -306.456692 
L 98.485026 -306.419138 
L 97.444686 -306.386389 
L 96.404345 -306.357981 
L 95.364004 -306.333471 
L 94.323664 -306.312438 
L 93.283323 -306.294484 
L 92.242983 -306.279242 
L 91.202642 -306.26637 
L 90.162301 -306.255558 
L 89.121961 -306.246526 
L 88.08162 -306.239021 
L 87.04128 -306.232819 
L 86.000939 -306.22772 
L 84.960598 -306.223551 
L 83.920258 -306.220162 
L 82.879917 -306.21742 
L 81.839577 -306.215215 
L 80.799236 -306.213451 
z
" style="stroke: #7a77ab; stroke-width: 2"/>
    </defs>
    <g clip-path="url(#p081ec99b1e)">
     <use xlink:href="#m44a5bda1ba" x="0" y="379.113736" style="fill: #7a77ab; fill-opacity: 0.25; stroke: #7a77ab; stroke-width: 2"/>
    </g>
   </g>
   <g id="PolyCollection_2">
    <defs>
     <path id="ma773fa9054" d="M 97.086206 -306.258465 
L 97.086206 -306.207143 
L 97.584906 -306.207143 
L 98.083606 -306.207143 
L 98.582307 -306.207143 
L 99.081007 -306.207143 
L 99.579707 -306.207143 
L 100.078408 -306.207143 
L 100.577108 -306.207143 
L 101.075808 -306.207143 
L 101.574509 -306.207143 
L 102.073209 -306.207143 
L 102.571909 -306.207143 
L 103.07061 -306.207143 
L 103.56931 -306.207143 
L 104.06801 -306.207143 
L 104.56671 -306.207143 
L 105.065411 -306.207143 
L 105.564111 -306.207143 
L 106.062811 -306.207143 
L 106.561512 -306.207143 
L 107.060212 -306.207143 
L 107.558912 -306.207143 
L 108.057613 -306.207143 
L 108.556313 -306.207143 
L 109.055013 -306.207143 
L 109.553714 -306.207143 
L 110.052414 -306.207143 
L 110.551114 -306.207143 
L 111.049815 -306.207143 
L 111.548515 -306.207143 
L 112.047215 -306.207143 
L 112.545916 -306.207143 
L 113.044616 -306.207143 
L 113.543316 -306.207143 
L 114.042016 -306.207143 
L 114.540717 -306.207143 
L 115.039417 -306.207143 
L 115.538117 -306.207143 
L 116.036818 -306.207143 
L 116.535518 -306.207143 
L 117.034218 -306.207143 
L 117.532919 -306.207143 
L 118.031619 -306.207143 
L 118.530319 -306.207143 
L 119.02902 -306.207143 
L 119.52772 -306.207143 
L 120.02642 -306.207143 
L 120.525121 -306.207143 
L 121.023821 -306.207143 
L 121.522521 -306.207143 
L 122.021222 -306.207143 
L 122.519922 -306.207143 
L 123.018622 -306.207143 
L 123.517322 -306.207143 
L 124.016023 -306.207143 
L 124.514723 -306.207143 
L 125.013423 -306.207143 
L 125.512124 -306.207143 
L 126.010824 -306.207143 
L 126.509524 -306.207143 
L 127.008225 -306.207143 
L 127.506925 -306.207143 
L 128.005625 -306.207143 
L 128.504326 -306.207143 
L 129.003026 -306.207143 
L 129.501726 -306.207143 
L 130.000427 -306.207143 
L 130.499127 -306.207143 
L 130.997827 -306.207143 
L 131.496527 -306.207143 
L 131.995228 -306.207143 
L 132.493928 -306.207143 
L 132.992628 -306.207143 
L 133.491329 -306.207143 
L 133.990029 -306.207143 
L 134.488729 -306.207143 
L 134.98743 -306.207143 
L 135.48613 -306.207143 
L 135.98483 -306.207143 
L 136.483531 -306.207143 
L 136.982231 -306.207143 
L 137.480931 -306.207143 
L 137.979632 -306.207143 
L 138.478332 -306.207143 
L 138.977032 -306.207143 
L 139.475733 -306.207143 
L 139.974433 -306.207143 
L 140.473133 -306.207143 
L 140.971833 -306.207143 
L 141.470534 -306.207143 
L 141.969234 -306.207143 
L 142.467934 -306.207143 
L 142.966635 -306.207143 
L 143.465335 -306.207143 
L 143.964035 -306.207143 
L 144.462736 -306.207143 
L 144.961436 -306.207143 
L 145.460136 -306.207143 
L 145.958837 -306.207143 
L 146.457537 -306.207143 
L 146.956237 -306.207143 
L 147.454938 -306.207143 
L 147.953638 -306.207143 
L 148.452338 -306.207143 
L 148.951039 -306.207143 
L 149.449739 -306.207143 
L 149.948439 -306.207143 
L 150.447139 -306.207143 
L 150.94584 -306.207143 
L 151.44454 -306.207143 
L 151.94324 -306.207143 
L 152.441941 -306.207143 
L 152.940641 -306.207143 
L 153.439341 -306.207143 
L 153.938042 -306.207143 
L 154.436742 -306.207143 
L 154.935442 -306.207143 
L 155.434143 -306.207143 
L 155.932843 -306.207143 
L 156.431543 -306.207143 
L 156.930244 -306.207143 
L 157.428944 -306.207143 
L 157.927644 -306.207143 
L 158.426344 -306.207143 
L 158.925045 -306.207143 
L 159.423745 -306.207143 
L 159.922445 -306.207143 
L 160.421146 -306.207143 
L 160.919846 -306.207143 
L 161.418546 -306.207143 
L 161.917247 -306.207143 
L 162.415947 -306.207143 
L 162.914647 -306.207143 
L 163.413348 -306.207143 
L 163.912048 -306.207143 
L 164.410748 -306.207143 
L 164.909449 -306.207143 
L 165.408149 -306.207143 
L 165.906849 -306.207143 
L 166.40555 -306.207143 
L 166.90425 -306.207143 
L 167.40295 -306.207143 
L 167.90165 -306.207143 
L 168.400351 -306.207143 
L 168.899051 -306.207143 
L 169.397751 -306.207143 
L 169.896452 -306.207143 
L 170.395152 -306.207143 
L 170.893852 -306.207143 
L 171.392553 -306.207143 
L 171.891253 -306.207143 
L 172.389953 -306.207143 
L 172.888654 -306.207143 
L 173.387354 -306.207143 
L 173.886054 -306.207143 
L 174.384755 -306.207143 
L 174.883455 -306.207143 
L 175.382155 -306.207143 
L 175.880856 -306.207143 
L 176.379556 -306.207143 
L 176.878256 -306.207143 
L 177.376956 -306.207143 
L 177.875657 -306.207143 
L 178.374357 -306.207143 
L 178.873057 -306.207143 
L 179.371758 -306.207143 
L 179.870458 -306.207143 
L 180.369158 -306.207143 
L 180.867859 -306.207143 
L 181.366559 -306.207143 
L 181.865259 -306.207143 
L 182.36396 -306.207143 
L 182.86266 -306.207143 
L 183.36136 -306.207143 
L 183.860061 -306.207143 
L 184.358761 -306.207143 
L 184.857461 -306.207143 
L 185.356162 -306.207143 
L 185.854862 -306.207143 
L 186.353562 -306.207143 
L 186.852262 -306.207143 
L 187.350963 -306.207143 
L 187.849663 -306.207143 
L 188.348363 -306.207143 
L 188.847064 -306.207143 
L 189.345764 -306.207143 
L 189.844464 -306.207143 
L 190.343165 -306.207143 
L 190.841865 -306.207143 
L 191.340565 -306.207143 
L 191.839266 -306.207143 
L 192.337966 -306.207143 
L 192.836666 -306.207143 
L 193.335367 -306.207143 
L 193.834067 -306.207143 
L 194.332767 -306.207143 
L 194.831467 -306.207143 
L 195.330168 -306.207143 
L 195.828868 -306.207143 
L 196.327568 -306.207143 
L 196.327568 -306.212868 
L 196.327568 -306.212868 
L 195.828868 -306.214979 
L 195.330168 -306.217747 
L 194.831467 -306.221331 
L 194.332767 -306.225913 
L 193.834067 -306.231694 
L 193.335367 -306.238893 
L 192.836666 -306.24774 
L 192.337966 -306.258466 
L 191.839266 -306.271295 
L 191.340565 -306.286426 
L 190.841865 -306.304019 
L 190.343165 -306.324182 
L 189.844464 -306.346947 
L 189.345764 -306.372255 
L 188.847064 -306.399944 
L 188.348363 -306.429738 
L 187.849663 -306.461237 
L 187.350963 -306.493922 
L 186.852262 -306.527161 
L 186.353562 -306.560227 
L 185.854862 -306.592317 
L 185.356162 -306.622589 
L 184.857461 -306.650194 
L 184.358761 -306.674317 
L 183.860061 -306.694219 
L 183.36136 -306.709273 
L 182.86266 -306.719005 
L 182.36396 -306.723119 
L 181.865259 -306.721519 
L 181.366559 -306.714316 
L 180.867859 -306.701835 
L 180.369158 -306.684597 
L 179.870458 -306.663308 
L 179.371758 -306.638829 
L 178.873057 -306.612144 
L 178.374357 -306.584335 
L 177.875657 -306.556542 
L 177.376956 -306.529935 
L 176.878256 -306.505693 
L 176.379556 -306.484976 
L 175.880856 -306.46891 
L 175.382155 -306.45858 
L 174.883455 -306.455013 
L 174.384755 -306.459175 
L 173.886054 -306.471963 
L 173.387354 -306.494191 
L 172.888654 -306.526578 
L 172.389953 -306.569731 
L 171.891253 -306.624117 
L 171.392553 -306.690039 
L 170.893852 -306.767606 
L 170.395152 -306.856702 
L 169.896452 -306.956956 
L 169.397751 -307.067724 
L 168.899051 -307.188069 
L 168.400351 -307.316765 
L 167.90165 -307.452295 
L 167.40295 -307.592883 
L 166.90425 -307.736524 
L 166.40555 -307.881037 
L 165.906849 -308.024119 
L 165.408149 -308.163416 
L 164.909449 -308.296592 
L 164.410748 -308.421405 
L 163.912048 -308.535778 
L 163.413348 -308.63786 
L 162.914647 -308.726094 
L 162.415947 -308.79926 
L 161.917247 -308.856516 
L 161.418546 -308.897429 
L 160.919846 -308.921993 
L 160.421146 -308.930636 
L 159.922445 -308.924221 
L 159.423745 -308.904035 
L 158.925045 -308.871768 
L 158.426344 -308.829495 
L 157.927644 -308.779634 
L 157.428944 -308.724919 
L 156.930244 -308.668346 
L 156.431543 -308.613133 
L 155.932843 -308.562662 
L 155.434143 -308.520428 
L 154.935442 -308.489978 
L 154.436742 -308.474852 
L 153.938042 -308.478518 
L 153.439341 -308.504308 
L 152.940641 -308.555347 
L 152.441941 -308.634485 
L 151.94324 -308.744223 
L 151.44454 -308.886636 
L 150.94584 -309.063303 
L 150.447139 -309.275238 
L 149.948439 -309.522824 
L 149.449739 -309.805773 
L 148.951039 -310.123084 
L 148.452338 -310.473047 
L 147.953638 -310.853253 
L 147.454938 -311.260653 
L 146.956237 -311.691636 
L 146.457537 -312.142144 
L 145.958837 -312.607812 
L 145.460136 -313.084129 
L 144.961436 -313.566611 
L 144.462736 -314.050974 
L 143.964035 -314.533305 
L 143.465335 -315.010209 
L 142.966635 -315.478933 
L 142.467934 -315.937461 
L 141.969234 -316.384576 
L 141.470534 -316.819877 
L 140.971833 -317.243782 
L 140.473133 -317.657488 
L 139.974433 -318.062919 
L 139.475733 -318.462654 
L 138.977032 -318.85984 
L 138.478332 -319.258108 
L 137.979632 -319.661468 
L 137.480931 -320.074204 
L 136.982231 -320.500756 
L 136.483531 -320.945594 
L 135.98483 -321.413065 
L 135.48613 -321.907232 
L 134.98743 -322.431697 
L 134.488729 -322.989404 
L 133.990029 -323.582448 
L 133.491329 -324.211878 
L 132.992628 -324.877533 
L 132.493928 -325.577902 
L 131.995228 -326.310032 
L 131.496527 -327.069509 
L 130.997827 -327.850496 
L 130.499127 -328.645857 
L 130.000427 -329.447354 
L 129.501726 -330.245916 
L 129.003026 -331.03197 
L 128.504326 -331.795805 
L 128.005625 -332.527964 
L 127.506925 -333.219631 
L 127.008225 -333.862983 
L 126.509524 -334.451497 
L 126.010824 -334.980177 
L 125.512124 -335.445693 
L 125.013423 -335.846412 
L 124.514723 -336.182335 
L 124.016023 -336.454919 
L 123.517322 -336.666811 
L 123.018622 -336.821508 
L 122.519922 -336.92296 
L 122.021222 -336.975148 
L 121.522521 -336.981657 
L 121.023821 -336.945287 
L 120.525121 -336.867717 
L 120.02642 -336.749249 
L 119.52772 -336.588663 
L 119.02902 -336.383174 
L 118.530319 -336.12853 
L 118.031619 -335.819213 
L 117.532919 -335.448768 
L 117.034218 -335.010218 
L 116.535518 -334.496554 
L 116.036818 -333.901276 
L 115.538117 -333.21893 
L 115.039417 -332.445635 
L 114.540717 -331.579538 
L 114.042016 -330.621188 
L 113.543316 -329.573783 
L 113.044616 -328.443283 
L 112.545916 -327.238375 
L 112.047215 -325.970279 
L 111.548515 -324.652422 
L 111.049815 -323.299982 
L 110.551114 -321.92934 
L 110.052414 -320.557465 
L 109.553714 -319.201278 
L 109.055013 -317.877033 
L 108.556313 -316.599733 
L 108.057613 -315.38265 
L 107.558912 -314.236929 
L 107.060212 -313.171328 
L 106.561512 -312.192087 
L 106.062811 -311.30291 
L 105.564111 -310.505084 
L 105.065411 -309.797675 
L 104.56671 -309.17782 
L 104.06801 -308.641054 
L 103.56931 -308.181679 
L 103.07061 -307.793123 
L 102.571909 -307.468297 
L 102.073209 -307.1999 
L 101.574509 -306.980701 
L 101.075808 -306.803752 
L 100.577108 -306.66256 
L 100.078408 -306.551197 
L 99.579707 -306.464373 
L 99.081007 -306.397458 
L 98.582307 -306.346479 
L 98.083606 -306.308086 
L 97.584906 -306.279502 
L 97.086206 -306.258465 
z
" style="stroke: #f28360; stroke-width: 2"/>
    </defs>
    <g clip-path="url(#p081ec99b1e)">
     <use xlink:href="#ma773fa9054" x="0" y="379.113736" style="fill: #f28360; fill-opacity: 0.25; stroke: #f28360; stroke-width: 2"/>
    </g>
   </g>
   <g id="matplotlib.axis_3">
    <g id="xtick_4">
     <g id="line2d_13">
      <g>
       <use xlink:href="#mb07636c17f" x="110.957751" y="72.906593" style="stroke: #000000; stroke-width: 0.75"/>
      </g>
     </g>
    </g>
    <g id="xtick_5">
     <g id="line2d_14">
      <g>
       <use xlink:href="#mb07636c17f" x="185.054641" y="72.906593" style="stroke: #000000; stroke-width: 0.75"/>
      </g>
     </g>
    </g>
    <g id="xtick_6">
     <g id="line2d_15">
      <g>
       <use xlink:href="#mb07636c17f" x="259.151531" y="72.906593" style="stroke: #000000; stroke-width: 0.75"/>
      </g>
     </g>
    </g>
   </g>
   <g id="matplotlib.axis_4">
    <g id="ytick_5"/>
    <g id="ytick_6"/>
   </g>
   <g id="line2d_16">
    <path d="M 126.186727 34.5 
L 182.084227 34.5 
" clip-path="url(#p081ec99b1e)" style="fill: none; stroke: #000000; stroke-width: 2; stroke-linecap: round"/>
   </g>
   <g id="patch_6">
    <path d="M 72.518125 72.906593 
L 296.108125 72.906593 
" style="fill: none; stroke: #000000; stroke-width: 0.75; stroke-linejoin: miter; stroke-linecap: square"/>
   </g>
   <g id="text_13">
    <text style="font: 20px &quot;Suisse Int&apos;l&quot;, sans-serif; text-anchor: middle" x="154.135477" y="34.5" transform="rotate(-0 154.135477 34.5)">****</text>
   </g>
  </g>
  <g id="axes_3">
   <g id="patch_7">
    <path d="M 303.818125 312.563736 
L 342.368125 312.563736 
L 342.368125 80.895165 
L 303.818125 80.895165 
L 303.818125 312.563736 
z
" style="fill: none"/>
   </g>
   <g id="PolyCollection_3">
    <defs>
     <path id="mee132f5ee6" d="M 303.837731 -78.878138 
L 303.818125 -78.878138 
L 303.818125 -79.541083 
L 303.818125 -80.204027 
L 303.818125 -80.866971 
L 303.818125 -81.529915 
L 303.818125 -82.192859 
L 303.818125 -82.855804 
L 303.818125 -83.518748 
L 303.818125 -84.181692 
L 303.818125 -84.844636 
L 303.818125 -85.50758 
L 303.818125 -86.170525 
L 303.818125 -86.833469 
L 303.818125 -87.496413 
L 303.818125 -88.159357 
L 303.818125 -88.822301 
L 303.818125 -89.485245 
L 303.818125 -90.14819 
L 303.818125 -90.811134 
L 303.818125 -91.474078 
L 303.818125 -92.137022 
L 303.818125 -92.799966 
L 303.818125 -93.462911 
L 303.818125 -94.125855 
L 303.818125 -94.788799 
L 303.818125 -95.451743 
L 303.818125 -96.114687 
L 303.818125 -96.777632 
L 303.818125 -97.440576 
L 303.818125 -98.10352 
L 303.818125 -98.766464 
L 303.818125 -99.429408 
L 303.818125 -100.092353 
L 303.818125 -100.755297 
L 303.818125 -101.418241 
L 303.818125 -102.081185 
L 303.818125 -102.744129 
L 303.818125 -103.407074 
L 303.818125 -104.070018 
L 303.818125 -104.732962 
L 303.818125 -105.395906 
L 303.818125 -106.05885 
L 303.818125 -106.721794 
L 303.818125 -107.384739 
L 303.818125 -108.047683 
L 303.818125 -108.710627 
L 303.818125 -109.373571 
L 303.818125 -110.036515 
L 303.818125 -110.69946 
L 303.818125 -111.362404 
L 303.818125 -112.025348 
L 303.818125 -112.688292 
L 303.818125 -113.351236 
L 303.818125 -114.014181 
L 303.818125 -114.677125 
L 303.818125 -115.340069 
L 303.818125 -116.003013 
L 303.818125 -116.665957 
L 303.818125 -117.328902 
L 303.818125 -117.991846 
L 303.818125 -118.65479 
L 303.818125 -119.317734 
L 303.818125 -119.980678 
L 303.818125 -120.643622 
L 303.818125 -121.306567 
L 303.818125 -121.969511 
L 303.818125 -122.632455 
L 303.818125 -123.295399 
L 303.818125 -123.958343 
L 303.818125 -124.621288 
L 303.818125 -125.284232 
L 303.818125 -125.947176 
L 303.818125 -126.61012 
L 303.818125 -127.273064 
L 303.818125 -127.936009 
L 303.818125 -128.598953 
L 303.818125 -129.261897 
L 303.818125 -129.924841 
L 303.818125 -130.587785 
L 303.818125 -131.25073 
L 303.818125 -131.913674 
L 303.818125 -132.576618 
L 303.818125 -133.239562 
L 303.818125 -133.902506 
L 303.818125 -134.565451 
L 303.818125 -135.228395 
L 303.818125 -135.891339 
L 303.818125 -136.554283 
L 303.818125 -137.217227 
L 303.818125 -137.880171 
L 303.818125 -138.543116 
L 303.818125 -139.20606 
L 303.818125 -139.869004 
L 303.818125 -140.531948 
L 303.818125 -141.194892 
L 303.818125 -141.857837 
L 303.818125 -142.520781 
L 303.818125 -143.183725 
L 303.818125 -143.846669 
L 303.818125 -144.509613 
L 303.818125 -145.172558 
L 303.818125 -145.835502 
L 303.818125 -146.498446 
L 303.818125 -147.16139 
L 303.818125 -147.824334 
L 303.818125 -148.487279 
L 303.818125 -149.150223 
L 303.818125 -149.813167 
L 303.818125 -150.476111 
L 303.818125 -151.139055 
L 303.818125 -151.801999 
L 303.818125 -152.464944 
L 303.818125 -153.127888 
L 303.818125 -153.790832 
L 303.818125 -154.453776 
L 303.818125 -155.11672 
L 303.818125 -155.779665 
L 303.818125 -156.442609 
L 303.818125 -157.105553 
L 303.818125 -157.768497 
L 303.818125 -158.431441 
L 303.818125 -159.094386 
L 303.818125 -159.75733 
L 303.818125 -160.420274 
L 303.818125 -161.083218 
L 303.818125 -161.746162 
L 303.818125 -162.409107 
L 303.818125 -163.072051 
L 303.818125 -163.734995 
L 303.818125 -164.397939 
L 303.818125 -165.060883 
L 303.818125 -165.723828 
L 303.818125 -166.386772 
L 303.818125 -167.049716 
L 303.818125 -167.71266 
L 303.818125 -168.375604 
L 303.818125 -169.038548 
L 303.818125 -169.701493 
L 303.818125 -170.364437 
L 303.818125 -171.027381 
L 303.818125 -171.690325 
L 303.818125 -172.353269 
L 303.818125 -173.016214 
L 303.818125 -173.679158 
L 303.818125 -174.342102 
L 303.818125 -175.005046 
L 303.818125 -175.66799 
L 303.818125 -176.330935 
L 303.818125 -176.993879 
L 303.818125 -177.656823 
L 303.818125 -178.319767 
L 303.818125 -178.982711 
L 303.818125 -179.645656 
L 303.818125 -180.3086 
L 303.818125 -180.971544 
L 303.818125 -181.634488 
L 303.818125 -182.297432 
L 303.818125 -182.960376 
L 303.818125 -183.623321 
L 303.818125 -184.286265 
L 303.818125 -184.949209 
L 303.818125 -185.612153 
L 303.818125 -186.275097 
L 303.818125 -186.938042 
L 303.818125 -187.600986 
L 303.818125 -188.26393 
L 303.818125 -188.926874 
L 303.818125 -189.589818 
L 303.818125 -190.252763 
L 303.818125 -190.915707 
L 303.818125 -191.578651 
L 303.818125 -192.241595 
L 303.818125 -192.904539 
L 303.818125 -193.567484 
L 303.818125 -194.230428 
L 303.818125 -194.893372 
L 303.818125 -195.556316 
L 303.818125 -196.21926 
L 303.818125 -196.882204 
L 303.818125 -197.545149 
L 303.818125 -198.208093 
L 303.818125 -198.871037 
L 303.818125 -199.533981 
L 303.818125 -200.196925 
L 303.818125 -200.85987 
L 303.818125 -201.522814 
L 303.818125 -202.185758 
L 303.818125 -202.848702 
L 303.818125 -203.511646 
L 303.818125 -204.174591 
L 303.818125 -204.837535 
L 303.818125 -205.500479 
L 303.818125 -206.163423 
L 303.818125 -206.826367 
L 303.818125 -207.489312 
L 303.818125 -208.152256 
L 303.818125 -208.8152 
L 303.818125 -209.478144 
L 303.818125 -210.141088 
L 303.818125 -210.804033 
L 303.82505 -210.804033 
L 303.82505 -210.804033 
L 303.827219 -210.141088 
L 303.829967 -209.478144 
L 303.833413 -208.8152 
L 303.837697 -208.152256 
L 303.842969 -207.489312 
L 303.849394 -206.826367 
L 303.857149 -206.163423 
L 303.866416 -205.500479 
L 303.877381 -204.837535 
L 303.890224 -204.174591 
L 303.905112 -203.511646 
L 303.922193 -202.848702 
L 303.941584 -202.185758 
L 303.963365 -201.522814 
L 303.987563 -200.85987 
L 304.014148 -200.196925 
L 304.043028 -199.533981 
L 304.074035 -198.871037 
L 304.106929 -198.208093 
L 304.141399 -197.545149 
L 304.177062 -196.882204 
L 304.213473 -196.21926 
L 304.250139 -195.556316 
L 304.286532 -194.893372 
L 304.322109 -194.230428 
L 304.356331 -193.567484 
L 304.388689 -192.904539 
L 304.418723 -192.241595 
L 304.446046 -191.578651 
L 304.470361 -190.915707 
L 304.491477 -190.252763 
L 304.509322 -189.589818 
L 304.523941 -188.926874 
L 304.535501 -188.26393 
L 304.54428 -187.600986 
L 304.550655 -186.938042 
L 304.555082 -186.275097 
L 304.558073 -185.612153 
L 304.560173 -184.949209 
L 304.561937 -184.286265 
L 304.563901 -183.623321 
L 304.566563 -182.960376 
L 304.570373 -182.297432 
L 304.575715 -181.634488 
L 304.582909 -180.971544 
L 304.592216 -180.3086 
L 304.603849 -179.645656 
L 304.617989 -178.982711 
L 304.634814 -178.319767 
L 304.654519 -177.656823 
L 304.677348 -176.993879 
L 304.703621 -176.330935 
L 304.733753 -175.66799 
L 304.768278 -175.005046 
L 304.807856 -174.342102 
L 304.853273 -173.679158 
L 304.905436 -173.016214 
L 304.965355 -172.353269 
L 305.034109 -171.690325 
L 305.112817 -171.027381 
L 305.202586 -170.364437 
L 305.304468 -169.701493 
L 305.419404 -169.038548 
L 305.548174 -168.375604 
L 305.691345 -167.71266 
L 305.84923 -167.049716 
L 306.021851 -166.386772 
L 306.208911 -165.723828 
L 306.409784 -165.060883 
L 306.62351 -164.397939 
L 306.848808 -163.734995 
L 307.084099 -163.072051 
L 307.327548 -162.409107 
L 307.577109 -161.746162 
L 307.830582 -161.083218 
L 308.085681 -160.420274 
L 308.340098 -159.75733 
L 308.591581 -159.094386 
L 308.837995 -158.431441 
L 309.077396 -157.768497 
L 309.308081 -157.105553 
L 309.528644 -156.442609 
L 309.738013 -155.779665 
L 309.935476 -155.11672 
L 310.120696 -154.453776 
L 310.293713 -153.790832 
L 310.454929 -153.127888 
L 310.605095 -152.464944 
L 310.745271 -151.801999 
L 310.876796 -151.139055 
L 311.001244 -150.476111 
L 311.120379 -149.813167 
L 311.236116 -149.150223 
L 311.350478 -148.487279 
L 311.46556 -147.824334 
L 311.5835 -147.16139 
L 311.706448 -146.498446 
L 311.836548 -145.835502 
L 311.975913 -145.172558 
L 312.126608 -144.509613 
L 312.290629 -143.846669 
L 312.469878 -143.183725 
L 312.666139 -142.520781 
L 312.881036 -141.857837 
L 313.115998 -141.194892 
L 313.372211 -140.531948 
L 313.650567 -139.869004 
L 313.951618 -139.20606 
L 314.275525 -138.543116 
L 314.622024 -137.880171 
L 314.9904 -137.217227 
L 315.379476 -136.554283 
L 315.787627 -135.891339 
L 316.212817 -135.228395 
L 316.652662 -134.565451 
L 317.104509 -133.902506 
L 317.565543 -133.239562 
L 318.032912 -132.576618 
L 318.503854 -131.913674 
L 318.975829 -131.25073 
L 319.44665 -130.587785 
L 319.914588 -129.924841 
L 320.378461 -129.261897 
L 320.837684 -128.598953 
L 321.292293 -127.936009 
L 321.742913 -127.273064 
L 322.190695 -126.61012 
L 322.637206 -125.947176 
L 323.084284 -125.284232 
L 323.533866 -124.621288 
L 323.987782 -123.958343 
L 324.447552 -123.295399 
L 324.914174 -122.632455 
L 325.387919 -121.969511 
L 325.868158 -121.306567 
L 326.35321 -120.643622 
L 326.840242 -119.980678 
L 327.325207 -119.317734 
L 327.802844 -118.65479 
L 328.266727 -117.991846 
L 328.709374 -117.328902 
L 329.122407 -116.665957 
L 329.496761 -116.003013 
L 329.822936 -115.340069 
L 330.091278 -114.677125 
L 330.292279 -114.014181 
L 330.4169 -113.351236 
L 330.456871 -112.688292 
L 330.404997 -112.025348 
L 330.255422 -111.362404 
L 330.003867 -110.69946 
L 329.64781 -110.036515 
L 329.186625 -109.373571 
L 328.621646 -108.710627 
L 327.956181 -108.047683 
L 327.195455 -107.384739 
L 326.346493 -106.721794 
L 325.417948 -106.05885 
L 324.419876 -105.395906 
L 323.363477 -104.732962 
L 322.260796 -104.070018 
L 321.124414 -103.407074 
L 319.967127 -102.744129 
L 318.80163 -102.081185 
L 317.640221 -101.418241 
L 316.494526 -100.755297 
L 315.375263 -100.092353 
L 314.292044 -99.429408 
L 313.253223 -98.766464 
L 312.265795 -98.10352 
L 311.335339 -97.440576 
L 310.466008 -96.777632 
L 309.660565 -96.114687 
L 308.920451 -95.451743 
L 308.245889 -94.788799 
L 307.636011 -94.125855 
L 307.088999 -93.462911 
L 306.602244 -92.799966 
L 306.1725 -92.137022 
L 305.796046 -91.474078 
L 305.468829 -90.811134 
L 305.186603 -90.14819 
L 304.945054 -89.485245 
L 304.739907 -88.822301 
L 304.567008 -88.159357 
L 304.422402 -87.496413 
L 304.302384 -86.833469 
L 304.203533 -86.170525 
L 304.122738 -85.50758 
L 304.057204 -84.844636 
L 304.004456 -84.181692 
L 303.962324 -83.518748 
L 303.928928 -82.855804 
L 303.902661 -82.192859 
L 303.882159 -81.529915 
L 303.866281 -80.866971 
L 303.854078 -80.204027 
L 303.844773 -79.541083 
L 303.837731 -78.878138 
z
" style="stroke: #7a77ab; stroke-width: 2"/>
    </defs>
    <g clip-path="url(#p762962e64a)">
     <use xlink:href="#mee132f5ee6" x="0" y="379.113736" style="fill: #7a77ab; fill-opacity: 0.25; stroke: #7a77ab; stroke-width: 2"/>
    </g>
   </g>
   <g id="PolyCollection_4">
    <defs>
     <path id="mac110921a7" d="M 303.845736 -75.130317 
L 303.818125 -75.130317 
L 303.818125 -76.208247 
L 303.818125 -77.286176 
L 303.818125 -78.364105 
L 303.818125 -79.442035 
L 303.818125 -80.519964 
L 303.818125 -81.597893 
L 303.818125 -82.675823 
L 303.818125 -83.753752 
L 303.818125 -84.831681 
L 303.818125 -85.909611 
L 303.818125 -86.98754 
L 303.818125 -88.065469 
L 303.818125 -89.143399 
L 303.818125 -90.221328 
L 303.818125 -91.299257 
L 303.818125 -92.377187 
L 303.818125 -93.455116 
L 303.818125 -94.533045 
L 303.818125 -95.610975 
L 303.818125 -96.688904 
L 303.818125 -97.766833 
L 303.818125 -98.844763 
L 303.818125 -99.922692 
L 303.818125 -101.000621 
L 303.818125 -102.078551 
L 303.818125 -103.15648 
L 303.818125 -104.234409 
L 303.818125 -105.312339 
L 303.818125 -106.390268 
L 303.818125 -107.468197 
L 303.818125 -108.546127 
L 303.818125 -109.624056 
L 303.818125 -110.701985 
L 303.818125 -111.779915 
L 303.818125 -112.857844 
L 303.818125 -113.935773 
L 303.818125 -115.013703 
L 303.818125 -116.091632 
L 303.818125 -117.169561 
L 303.818125 -118.247491 
L 303.818125 -119.32542 
L 303.818125 -120.403349 
L 303.818125 -121.481279 
L 303.818125 -122.559208 
L 303.818125 -123.637137 
L 303.818125 -124.715067 
L 303.818125 -125.792996 
L 303.818125 -126.870925 
L 303.818125 -127.948855 
L 303.818125 -129.026784 
L 303.818125 -130.104713 
L 303.818125 -131.182643 
L 303.818125 -132.260572 
L 303.818125 -133.338501 
L 303.818125 -134.416431 
L 303.818125 -135.49436 
L 303.818125 -136.572289 
L 303.818125 -137.650219 
L 303.818125 -138.728148 
L 303.818125 -139.806077 
L 303.818125 -140.884007 
L 303.818125 -141.961936 
L 303.818125 -143.039865 
L 303.818125 -144.117795 
L 303.818125 -145.195724 
L 303.818125 -146.273653 
L 303.818125 -147.351583 
L 303.818125 -148.429512 
L 303.818125 -149.507441 
L 303.818125 -150.585371 
L 303.818125 -151.6633 
L 303.818125 -152.741229 
L 303.818125 -153.819158 
L 303.818125 -154.897088 
L 303.818125 -155.975017 
L 303.818125 -157.052946 
L 303.818125 -158.130876 
L 303.818125 -159.208805 
L 303.818125 -160.286734 
L 303.818125 -161.364664 
L 303.818125 -162.442593 
L 303.818125 -163.520522 
L 303.818125 -164.598452 
L 303.818125 -165.676381 
L 303.818125 -166.75431 
L 303.818125 -167.83224 
L 303.818125 -168.910169 
L 303.818125 -169.988098 
L 303.818125 -171.066028 
L 303.818125 -172.143957 
L 303.818125 -173.221886 
L 303.818125 -174.299816 
L 303.818125 -175.377745 
L 303.818125 -176.455674 
L 303.818125 -177.533604 
L 303.818125 -178.611533 
L 303.818125 -179.689462 
L 303.818125 -180.767392 
L 303.818125 -181.845321 
L 303.818125 -182.92325 
L 303.818125 -184.00118 
L 303.818125 -185.079109 
L 303.818125 -186.157038 
L 303.818125 -187.234968 
L 303.818125 -188.312897 
L 303.818125 -189.390826 
L 303.818125 -190.468756 
L 303.818125 -191.546685 
L 303.818125 -192.624614 
L 303.818125 -193.702544 
L 303.818125 -194.780473 
L 303.818125 -195.858402 
L 303.818125 -196.936332 
L 303.818125 -198.014261 
L 303.818125 -199.09219 
L 303.818125 -200.17012 
L 303.818125 -201.248049 
L 303.818125 -202.325978 
L 303.818125 -203.403908 
L 303.818125 -204.481837 
L 303.818125 -205.559766 
L 303.818125 -206.637696 
L 303.818125 -207.715625 
L 303.818125 -208.793554 
L 303.818125 -209.871484 
L 303.818125 -210.949413 
L 303.818125 -212.027342 
L 303.818125 -213.105272 
L 303.818125 -214.183201 
L 303.818125 -215.26113 
L 303.818125 -216.33906 
L 303.818125 -217.416989 
L 303.818125 -218.494918 
L 303.818125 -219.572848 
L 303.818125 -220.650777 
L 303.818125 -221.728706 
L 303.818125 -222.806636 
L 303.818125 -223.884565 
L 303.818125 -224.962494 
L 303.818125 -226.040424 
L 303.818125 -227.118353 
L 303.818125 -228.196282 
L 303.818125 -229.274212 
L 303.818125 -230.352141 
L 303.818125 -231.43007 
L 303.818125 -232.508 
L 303.818125 -233.585929 
L 303.818125 -234.663858 
L 303.818125 -235.741788 
L 303.818125 -236.819717 
L 303.818125 -237.897646 
L 303.818125 -238.975575 
L 303.818125 -240.053505 
L 303.818125 -241.131434 
L 303.818125 -242.209363 
L 303.818125 -243.287293 
L 303.818125 -244.365222 
L 303.818125 -245.443151 
L 303.818125 -246.521081 
L 303.818125 -247.59901 
L 303.818125 -248.676939 
L 303.818125 -249.754869 
L 303.818125 -250.832798 
L 303.818125 -251.910727 
L 303.818125 -252.988657 
L 303.818125 -254.066586 
L 303.818125 -255.144515 
L 303.818125 -256.222445 
L 303.818125 -257.300374 
L 303.818125 -258.378303 
L 303.818125 -259.456233 
L 303.818125 -260.534162 
L 303.818125 -261.612091 
L 303.818125 -262.690021 
L 303.818125 -263.76795 
L 303.818125 -264.845879 
L 303.818125 -265.923809 
L 303.818125 -267.001738 
L 303.818125 -268.079667 
L 303.818125 -269.157597 
L 303.818125 -270.235526 
L 303.818125 -271.313455 
L 303.818125 -272.391385 
L 303.818125 -273.469314 
L 303.818125 -274.547243 
L 303.818125 -275.625173 
L 303.818125 -276.703102 
L 303.818125 -277.781031 
L 303.818125 -278.858961 
L 303.818125 -279.93689 
L 303.818125 -281.014819 
L 303.818125 -282.092749 
L 303.818125 -283.170678 
L 303.818125 -284.248607 
L 303.818125 -285.326537 
L 303.818125 -286.404466 
L 303.818125 -287.482395 
L 303.818125 -288.560325 
L 303.818125 -289.638254 
L 303.82127 -289.638254 
L 303.82127 -289.638254 
L 303.822454 -288.560325 
L 303.824015 -287.482395 
L 303.826046 -286.404466 
L 303.828653 -285.326537 
L 303.831956 -284.248607 
L 303.836087 -283.170678 
L 303.841182 -282.092749 
L 303.847382 -281.014819 
L 303.854824 -279.93689 
L 303.863635 -278.858961 
L 303.873921 -277.781031 
L 303.885763 -276.703102 
L 303.899202 -275.625173 
L 303.914237 -274.547243 
L 303.930815 -273.469314 
L 303.94883 -272.391385 
L 303.968124 -271.313455 
L 303.988486 -270.235526 
L 304.009668 -269.157597 
L 304.031389 -268.079667 
L 304.053359 -267.001738 
L 304.07529 -265.923809 
L 304.096923 -264.845879 
L 304.118044 -263.76795 
L 304.138498 -262.690021 
L 304.158209 -261.612091 
L 304.177181 -260.534162 
L 304.1955 -259.456233 
L 304.213329 -258.378303 
L 304.23089 -257.300374 
L 304.248445 -256.222445 
L 304.26627 -255.144515 
L 304.284627 -254.066586 
L 304.303736 -252.988657 
L 304.323753 -251.910727 
L 304.344749 -250.832798 
L 304.366698 -249.754869 
L 304.389481 -248.676939 
L 304.412887 -247.59901 
L 304.436638 -246.521081 
L 304.460409 -245.443151 
L 304.483859 -244.365222 
L 304.506669 -243.287293 
L 304.528568 -242.209363 
L 304.549365 -241.131434 
L 304.56897 -240.053505 
L 304.587402 -238.975575 
L 304.604797 -237.897646 
L 304.621391 -236.819717 
L 304.637506 -235.741788 
L 304.653515 -234.663858 
L 304.669814 -233.585929 
L 304.686775 -232.508 
L 304.704717 -231.43007 
L 304.72386 -230.352141 
L 304.744303 -229.274212 
L 304.766001 -228.196282 
L 304.788751 -227.118353 
L 304.812198 -226.040424 
L 304.83584 -224.962494 
L 304.859054 -223.884565 
L 304.881129 -222.806636 
L 304.901299 -221.728706 
L 304.91879 -220.650777 
L 304.932863 -219.572848 
L 304.942854 -218.494918 
L 304.948217 -217.416989 
L 304.948549 -216.33906 
L 304.94362 -215.26113 
L 304.933376 -214.183201 
L 304.917949 -213.105272 
L 304.897643 -212.027342 
L 304.872913 -210.949413 
L 304.844342 -209.871484 
L 304.812607 -208.793554 
L 304.778437 -207.715625 
L 304.742583 -206.637696 
L 304.705772 -205.559766 
L 304.66868 -204.481837 
L 304.631902 -203.403908 
L 304.595928 -202.325978 
L 304.56113 -201.248049 
L 304.527757 -200.17012 
L 304.495933 -199.09219 
L 304.465667 -198.014261 
L 304.436866 -196.936332 
L 304.409355 -195.858402 
L 304.382898 -194.780473 
L 304.357226 -193.702544 
L 304.332064 -192.624614 
L 304.30715 -191.546685 
L 304.282265 -190.468756 
L 304.257253 -189.390826 
L 304.232032 -188.312897 
L 304.206608 -187.234968 
L 304.181084 -186.157038 
L 304.155657 -185.079109 
L 304.130616 -184.00118 
L 304.106332 -182.92325 
L 304.083252 -181.845321 
L 304.061881 -180.767392 
L 304.042771 -179.689462 
L 304.026504 -178.611533 
L 304.013682 -177.533604 
L 304.004906 -176.455674 
L 304.000771 -175.377745 
L 304.001848 -174.299816 
L 304.008679 -173.221886 
L 304.021762 -172.143957 
L 304.041548 -171.066028 
L 304.068429 -169.988098 
L 304.102739 -168.910169 
L 304.144755 -167.83224 
L 304.194699 -166.75431 
L 304.252756 -165.676381 
L 304.319092 -164.598452 
L 304.393891 -163.520522 
L 304.477392 -162.442593 
L 304.569946 -161.364664 
L 304.672076 -160.286734 
L 304.784547 -159.208805 
L 304.908435 -158.130876 
L 305.045204 -157.052946 
L 305.196768 -155.975017 
L 305.36555 -154.897088 
L 305.554524 -153.819158 
L 305.767233 -152.741229 
L 306.007789 -151.6633 
L 306.280845 -150.585371 
L 306.591537 -149.507441 
L 306.945393 -148.429512 
L 307.348222 -147.351583 
L 307.805968 -146.273653 
L 308.324535 -145.195724 
L 308.909595 -144.117795 
L 309.566367 -143.039865 
L 310.299382 -141.961936 
L 311.112231 -140.884007 
L 312.007307 -139.806077 
L 312.98554 -138.728148 
L 314.046139 -137.650219 
L 315.18635 -136.572289 
L 316.401232 -135.49436 
L 317.683478 -134.416431 
L 319.023284 -133.338501 
L 320.408279 -132.260572 
L 321.823546 -131.182643 
L 323.251714 -130.104713 
L 324.673172 -129.026784 
L 326.066379 -127.948855 
L 327.40828 -126.870925 
L 328.674839 -125.792996 
L 329.841654 -124.715067 
L 330.884661 -123.637137 
L 331.780879 -122.559208 
L 332.5092 -121.481279 
L 333.051148 -120.403349 
L 333.391614 -119.32542 
L 333.519493 -118.247491 
L 333.428213 -117.169561 
L 333.1161 -116.091632 
L 332.586582 -115.013703 
L 331.84818 -113.935773 
L 330.91431 -112.857844 
L 329.802874 -111.779915 
L 328.535683 -110.701985 
L 327.137706 -109.624056 
L 325.636212 -108.546127 
L 324.05983 -107.468197 
L 322.437575 -106.390268 
L 320.797901 -105.312339 
L 319.167816 -104.234409 
L 317.5721 -103.15648 
L 316.03267 -102.078551 
L 314.568103 -101.000621 
L 313.193334 -99.922692 
L 311.919532 -98.844763 
L 310.754143 -97.766833 
L 309.701081 -96.688904 
L 308.761038 -95.610975 
L 307.931893 -94.533045 
L 307.209177 -93.455116 
L 306.586574 -92.377187 
L 306.056416 -91.299257 
L 305.610157 -90.221328 
L 305.238807 -89.143399 
L 304.933299 -88.065469 
L 304.684803 -86.98754 
L 304.484957 -85.909611 
L 304.326045 -84.831681 
L 304.2011 -83.753752 
L 304.103963 -82.675823 
L 304.029289 -81.597893 
L 303.972527 -80.519964 
L 303.929861 -79.442035 
L 303.89815 -78.364105 
L 303.874844 -77.286176 
L 303.857907 -76.208247 
L 303.845736 -75.130317 
z
" style="stroke: #f28360; stroke-width: 2"/>
    </defs>
    <g clip-path="url(#p762962e64a)">
     <use xlink:href="#mac110921a7" x="0" y="379.113736" style="fill: #f28360; fill-opacity: 0.25; stroke: #f28360; stroke-width: 2"/>
    </g>
   </g>
   <g id="matplotlib.axis_5">
    <g id="xtick_7"/>
    <g id="xtick_8"/>
   </g>
   <g id="matplotlib.axis_6">
    <g id="ytick_7">
     <g id="line2d_17">
      <g>
       <use xlink:href="#me5ab1d3f83" x="303.818125" y="283.654726" style="stroke: #000000; stroke-width: 0.75"/>
      </g>
     </g>
    </g>
    <g id="ytick_8">
     <g id="line2d_18">
      <g>
       <use xlink:href="#me5ab1d3f83" x="303.818125" y="218.500311" style="stroke: #000000; stroke-width: 0.75"/>
      </g>
     </g>
    </g>
    <g id="ytick_9">
     <g id="line2d_19">
      <g>
       <use xlink:href="#me5ab1d3f83" x="303.818125" y="153.345896" style="stroke: #000000; stroke-width: 0.75"/>
      </g>
     </g>
    </g>
    <g id="ytick_10">
     <g id="line2d_20">
      <g>
       <use xlink:href="#me5ab1d3f83" x="303.818125" y="88.191482" style="stroke: #000000; stroke-width: 0.75"/>
      </g>
     </g>
    </g>
   </g>
   <g id="line2d_21">
    <path d="M 340.885433 288.954108 
L 340.885433 231.036965 
" clip-path="url(#p762962e64a)" style="fill: none; stroke: #000000; stroke-width: 2; stroke-linecap: round"/>
   </g>
   <g id="patch_8">
    <path d="M 303.818125 312.563736 
L 303.818125 80.895165 
" style="fill: none; stroke: #000000; stroke-width: 0.75; stroke-linejoin: miter; stroke-linecap: square"/>
   </g>
   <g id="text_14">
    <text style="font: 16px &quot;Suisse Int&apos;l&quot;, sans-serif" transform="translate(345.538798 251.171786) rotate(-270)">ns</text>
   </g>
  </g>
 </g>
 <defs>
  <clipPath id="p74f2b8bc50">
   <rect x="72.518125" y="80.895165" width="223.59" height="231.668571"/>
  </clipPath>
  <clipPath id="p081ec99b1e">
   <rect x="72.518125" y="32.963736" width="223.59" height="39.942857"/>
  </clipPath>
  <clipPath id="p762962e64a">
   <rect x="303.818125" y="80.895165" width="38.55" height="231.668571"/>
  </clipPath>
 </defs>
</svg>
