<?xml version="1.0" encoding="utf-8" standalone="no"?>
<!DOCTYPE svg PUBLIC "-//W3C//DTD SVG 1.1//EN"
  "http://www.w3.org/Graphics/SVG/1.1/DTD/svg11.dtd">
<svg xmlns:xlink="http://www.w3.org/1999/xlink" width="1080pt" height="216pt" viewBox="0 0 1080 216" xmlns="http://www.w3.org/2000/svg" version="1.1">
 <metadata>
  <rdf:RDF xmlns:dc="http://purl.org/dc/elements/1.1/" xmlns:cc="http://creativecommons.org/ns#" xmlns:rdf="http://www.w3.org/1999/02/22-rdf-syntax-ns#">
   <cc:Work>
    <dc:type rdf:resource="http://purl.org/dc/dcmitype/StillImage"/>
    <dc:date>2024-07-24T17:53:01.763835</dc:date>
    <dc:format>image/svg+xml</dc:format>
    <dc:creator>
     <cc:Agent>
      <dc:title>Matplotlib v3.8.4, https://matplotlib.org/</dc:title>
     </cc:Agent>
    </dc:creator>
   </cc:Work>
  </rdf:RDF>
 </metadata>
 <defs>
  <style type="text/css">*{stroke-linejoin: round; stroke-linecap: butt}</style>
 </defs>
 <g id="figure_1">
  <g id="patch_1">
   <path d="M 0 216 
L 1080 216 
L 1080 0 
L 0 0 
L 0 216 
z
" style="fill: none"/>
  </g>
  <g id="axes_1">
   <g id="patch_2">
    <path d="M 135 192.24 
L 355.263158 192.24 
L 355.263158 25.92 
L 135 25.92 
L 135 192.24 
z
" style="fill: none"/>
   </g>
   <g id="PolyCollection_1">
    <defs>
     <path id="mf6d18f2d78" d="M 233.80117 -33.542004 
L 232.761285 -33.542004 
L 232.455191 -34.195791 
L 232.07903 -34.849578 
L 231.622057 -35.503365 
L 231.072848 -36.157153 
L 230.419297 -36.81094 
L 229.648566 -37.464727 
L 228.746977 -38.118514 
L 227.699874 -38.772302 
L 226.491466 -39.426089 
L 225.104721 -40.079876 
L 223.521353 -40.733663 
L 221.722001 -41.38745 
L 219.686649 -42.041238 
L 217.395375 -42.695025 
L 214.82945 -43.348812 
L 211.972794 -44.002599 
L 208.813754 -44.656387 
L 205.347092 -45.310174 
L 201.57606 -45.963961 
L 197.514365 -46.617748 
L 193.187831 -47.271535 
L 188.635539 -47.925323 
L 183.910268 -48.57911 
L 179.078078 -49.232897 
L 174.216957 -49.886684 
L 169.414521 -50.540472 
L 164.76484 -51.194259 
L 160.36454 -51.848046 
L 156.308411 -52.501833 
L 152.684814 -53.15562 
L 149.571187 -53.809408 
L 147.029987 -54.463195 
L 145.105375 -55.116982 
L 143.820894 -55.770769 
L 143.178334 -56.424557 
L 143.157895 -57.078344 
L 143.719627 -57.732131 
L 144.806075 -58.385918 
L 146.345923 -59.039705 
L 148.258371 -59.693493 
L 150.457934 -60.34728 
L 152.859296 -61.001067 
L 155.381885 -61.654854 
L 157.953856 -62.308642 
L 160.515202 -62.962429 
L 163.019835 -63.616216 
L 165.436529 -64.270003 
L 167.748717 -64.92379 
L 169.953243 -65.577578 
L 172.058228 -66.231365 
L 174.080289 -66.885152 
L 176.041374 -67.538939 
L 177.965524 -68.192727 
L 179.87584 -68.846514 
L 181.791911 -69.500301 
L 183.727901 -70.154088 
L 185.691428 -70.807875 
L 187.683263 -71.461663 
L 189.697803 -72.11545 
L 191.72419 -72.769237 
L 193.747885 -73.423024 
L 195.752458 -74.076812 
L 197.72137 -74.730599 
L 199.639524 -75.384386 
L 201.494427 -76.038173 
L 203.276877 -76.691961 
L 204.981156 -77.345748 
L 206.604781 -77.999535 
L 208.147951 -78.653322 
L 209.612809 -79.307109 
L 211.002698 -79.960897 
L 212.321517 -80.614684 
L 213.573291 -81.268471 
L 214.761962 -81.922258 
L 215.891401 -82.576046 
L 216.965562 -83.229833 
L 217.988706 -83.88362 
L 218.96557 -84.537407 
L 219.901438 -85.191194 
L 220.802033 -85.844982 
L 221.673241 -86.498769 
L 222.520693 -87.152556 
L 223.349263 -87.806343 
L 224.162576 -88.460131 
L 224.9626 -89.113918 
L 225.749392 -89.767705 
L 226.521052 -90.421492 
L 227.273885 -91.075279 
L 228.002764 -91.729067 
L 228.701639 -92.382854 
L 229.364126 -93.036641 
L 229.984111 -93.690428 
L 230.556289 -94.344216 
L 231.076605 -94.998003 
L 231.54253 -95.65179 
L 231.953191 -96.305577 
L 232.309342 -96.959364 
L 232.613204 -97.613152 
L 232.868213 -98.266939 
L 233.80117 -98.266939 
L 233.80117 -98.266939 
L 233.80117 -97.613152 
L 233.80117 -96.959364 
L 233.80117 -96.305577 
L 233.80117 -95.65179 
L 233.80117 -94.998003 
L 233.80117 -94.344216 
L 233.80117 -93.690428 
L 233.80117 -93.036641 
L 233.80117 -92.382854 
L 233.80117 -91.729067 
L 233.80117 -91.075279 
L 233.80117 -90.421492 
L 233.80117 -89.767705 
L 233.80117 -89.113918 
L 233.80117 -88.460131 
L 233.80117 -87.806343 
L 233.80117 -87.152556 
L 233.80117 -86.498769 
L 233.80117 -85.844982 
L 233.80117 -85.191194 
L 233.80117 -84.537407 
L 233.80117 -83.88362 
L 233.80117 -83.229833 
L 233.80117 -82.576046 
L 233.80117 -81.922258 
L 233.80117 -81.268471 
L 233.80117 -80.614684 
L 233.80117 -79.960897 
L 233.80117 -79.307109 
L 233.80117 -78.653322 
L 233.80117 -77.999535 
L 233.80117 -77.345748 
L 233.80117 -76.691961 
L 233.80117 -76.038173 
L 233.80117 -75.384386 
L 233.80117 -74.730599 
L 233.80117 -74.076812 
L 233.80117 -73.423024 
L 233.80117 -72.769237 
L 233.80117 -72.11545 
L 233.80117 -71.461663 
L 233.80117 -70.807875 
L 233.80117 -70.154088 
L 233.80117 -69.500301 
L 233.80117 -68.846514 
L 233.80117 -68.192727 
L 233.80117 -67.538939 
L 233.80117 -66.885152 
L 233.80117 -66.231365 
L 233.80117 -65.577578 
L 233.80117 -64.92379 
L 233.80117 -64.270003 
L 233.80117 -63.616216 
L 233.80117 -62.962429 
L 233.80117 -62.308642 
L 233.80117 -61.654854 
L 233.80117 -61.001067 
L 233.80117 -60.34728 
L 233.80117 -59.693493 
L 233.80117 -59.039705 
L 233.80117 -58.385918 
L 233.80117 -57.732131 
L 233.80117 -57.078344 
L 233.80117 -56.424557 
L 233.80117 -55.770769 
L 233.80117 -55.116982 
L 233.80117 -54.463195 
L 233.80117 -53.809408 
L 233.80117 -53.15562 
L 233.80117 -52.501833 
L 233.80117 -51.848046 
L 233.80117 -51.194259 
L 233.80117 -50.540472 
L 233.80117 -49.886684 
L 233.80117 -49.232897 
L 233.80117 -48.57911 
L 233.80117 -47.925323 
L 233.80117 -47.271535 
L 233.80117 -46.617748 
L 233.80117 -45.963961 
L 233.80117 -45.310174 
L 233.80117 -44.656387 
L 233.80117 -44.002599 
L 233.80117 -43.348812 
L 233.80117 -42.695025 
L 233.80117 -42.041238 
L 233.80117 -41.38745 
L 233.80117 -40.733663 
L 233.80117 -40.079876 
L 233.80117 -39.426089 
L 233.80117 -38.772302 
L 233.80117 -38.118514 
L 233.80117 -37.464727 
L 233.80117 -36.81094 
L 233.80117 -36.157153 
L 233.80117 -35.503365 
L 233.80117 -34.849578 
L 233.80117 -34.195791 
L 233.80117 -33.542004 
z
"/>
    </defs>
    <g clip-path="url(#p7a27acdcb3)">
     <use xlink:href="#mf6d18f2d78" x="0" y="216" style="fill: #81b2d5"/>
    </g>
   </g>
   <g id="PolyCollection_2">
    <defs>
     <path id="mbf1741e1df" d="M 259.461511 -29.92 
L 256.461988 -29.92 
L 256.461988 -31.188999 
L 256.461988 -32.457998 
L 256.461988 -33.726997 
L 256.461988 -34.995996 
L 256.461988 -36.264995 
L 256.461988 -37.533994 
L 256.461988 -38.802993 
L 256.461988 -40.071992 
L 256.461988 -41.340991 
L 256.461988 -42.60999 
L 256.461988 -43.878989 
L 256.461988 -45.147988 
L 256.461988 -46.416987 
L 256.461988 -47.685986 
L 256.461988 -48.954985 
L 256.461988 -50.223984 
L 256.461988 -51.492983 
L 256.461988 -52.761982 
L 256.461988 -54.030981 
L 256.461988 -55.29998 
L 256.461988 -56.568979 
L 256.461988 -57.837978 
L 256.461988 -59.106977 
L 256.461988 -60.375976 
L 256.461988 -61.644975 
L 256.461988 -62.913974 
L 256.461988 -64.182973 
L 256.461988 -65.451972 
L 256.461988 -66.720971 
L 256.461988 -67.98997 
L 256.461988 -69.258969 
L 256.461988 -70.527968 
L 256.461988 -71.796967 
L 256.461988 -73.065966 
L 256.461988 -74.334965 
L 256.461988 -75.603964 
L 256.461988 -76.872963 
L 256.461988 -78.141962 
L 256.461988 -79.410961 
L 256.461988 -80.67996 
L 256.461988 -81.94896 
L 256.461988 -83.217959 
L 256.461988 -84.486958 
L 256.461988 -85.755957 
L 256.461988 -87.024956 
L 256.461988 -88.293955 
L 256.461988 -89.562954 
L 256.461988 -90.831953 
L 256.461988 -92.100952 
L 256.461988 -93.369951 
L 256.461988 -94.63895 
L 256.461988 -95.907949 
L 256.461988 -97.176948 
L 256.461988 -98.445947 
L 256.461988 -99.714946 
L 256.461988 -100.983945 
L 256.461988 -102.252944 
L 256.461988 -103.521943 
L 256.461988 -104.790942 
L 256.461988 -106.059941 
L 256.461988 -107.32894 
L 256.461988 -108.597939 
L 256.461988 -109.866938 
L 256.461988 -111.135937 
L 256.461988 -112.404936 
L 256.461988 -113.673935 
L 256.461988 -114.942934 
L 256.461988 -116.211933 
L 256.461988 -117.480932 
L 256.461988 -118.749931 
L 256.461988 -120.01893 
L 256.461988 -121.287929 
L 256.461988 -122.556928 
L 256.461988 -123.825927 
L 256.461988 -125.094926 
L 256.461988 -126.363925 
L 256.461988 -127.632924 
L 256.461988 -128.901923 
L 256.461988 -130.170922 
L 256.461988 -131.439921 
L 256.461988 -132.70892 
L 256.461988 -133.977919 
L 256.461988 -135.246918 
L 256.461988 -136.515917 
L 256.461988 -137.784916 
L 256.461988 -139.053915 
L 256.461988 -140.322914 
L 256.461988 -141.591913 
L 256.461988 -142.860912 
L 256.461988 -144.129911 
L 256.461988 -145.39891 
L 256.461988 -146.667909 
L 256.461988 -147.936908 
L 256.461988 -149.205907 
L 256.461988 -150.474906 
L 256.461988 -151.743905 
L 256.461988 -153.012904 
L 256.461988 -154.281903 
L 256.461988 -155.550902 
L 256.710022 -155.550902 
L 256.710022 -155.550902 
L 256.811183 -154.281903 
L 256.938095 -153.012904 
L 257.090657 -151.743905 
L 257.265928 -150.474906 
L 257.457657 -149.205907 
L 257.656266 -147.936908 
L 257.849428 -146.667909 
L 258.023248 -145.39891 
L 258.163966 -144.129911 
L 258.259915 -142.860912 
L 258.303423 -141.591913 
L 258.292329 -140.322914 
L 258.230824 -139.053915 
L 258.129512 -137.784916 
L 258.004715 -136.515917 
L 257.877198 -135.246918 
L 257.770557 -133.977919 
L 257.709509 -132.70892 
L 257.71823 -131.439921 
L 257.818796 -130.170922 
L 258.029681 -128.901923 
L 258.364259 -127.632924 
L 258.829277 -126.363925 
L 259.423423 -125.094926 
L 260.136179 -123.825927 
L 260.947285 -122.556928 
L 261.827105 -121.287929 
L 262.738098 -120.01893 
L 263.637422 -118.749931 
L 264.480487 -117.480932 
L 265.225088 -116.211933 
L 265.835638 -114.942934 
L 266.28701 -113.673935 
L 266.567563 -112.404936 
L 266.681061 -111.135937 
L 266.647327 -109.866938 
L 266.501638 -108.597939 
L 266.292929 -107.32894 
L 266.080972 -106.059941 
L 265.932716 -104.790942 
L 265.917988 -103.521943 
L 266.104768 -102.252944 
L 266.554256 -100.983945 
L 267.31601 -99.714946 
L 268.42348 -98.445947 
L 269.890402 -97.176948 
L 271.708554 -95.907949 
L 273.847423 -94.63895 
L 276.256172 -93.369951 
L 278.868056 -92.100952 
L 281.607007 -90.831953 
L 284.395716 -89.562954 
L 287.164195 -88.293955 
L 289.857661 -87.024956 
L 292.442717 -85.755957 
L 294.911069 -84.486958 
L 297.280443 -83.217959 
L 299.592644 -81.94896 
L 301.908967 -80.67996 
L 304.30317 -79.410961 
L 306.852344 -78.141962 
L 309.626102 -76.872963 
L 312.674873 -75.603964 
L 316.018611 -74.334965 
L 319.637725 -73.065966 
L 323.468342 -71.796967 
L 327.403798 -70.527968 
L 331.303422 -69.258969 
L 335.008281 -67.98997 
L 338.361862 -66.720971 
L 341.232141 -65.451972 
L 343.530596 -64.182973 
L 345.223797 -62.913974 
L 346.334415 -61.644975 
L 346.930594 -60.375976 
L 347.105263 -59.106977 
L 346.949382 -57.837978 
L 346.524842 -56.568979 
L 345.84321 -55.29998 
L 344.855529 -54.030981 
L 343.456205 -52.761982 
L 341.500942 -51.492983 
L 338.835585 -50.223984 
L 335.330184 -48.954985 
L 330.91128 -47.685986 
L 325.585698 -46.416987 
L 319.450875 -45.147988 
L 312.689639 -43.878989 
L 305.550634 -42.60999 
L 298.318438 -41.340991 
L 291.279332 -40.071992 
L 284.689002 -38.802993 
L 278.747542 -37.533994 
L 273.585044 -36.264995 
L 269.258609 -34.995996 
L 265.759369 -33.726997 
L 263.026518 -32.457998 
L 260.964723 -31.188999 
L 259.461511 -29.92 
z
"/>
    </defs>
    <g clip-path="url(#p7a27acdcb3)">
     <use xlink:href="#mbf1741e1df" x="0" y="216" style="fill: #477aa7"/>
    </g>
   </g>
   <g id="matplotlib.axis_1">
    <g id="xtick_1">
     <g id="line2d_1">
      <defs>
       <path id="m777c800b96" d="M 0 0 
L 0 5 
" style="stroke: #000000; stroke-width: 0.75"/>
      </defs>
      <g>
       <use xlink:href="#m777c800b96" x="188.479532" y="192.24" style="stroke: #000000; stroke-width: 0.75"/>
      </g>
     </g>
     <g id="text_1">
      <text style="font: 15px &quot;Suisse Int&apos;l&quot;, sans-serif; text-anchor: middle" x="188.479532" y="213.115" transform="rotate(-0 188.479532 213.115)">4</text>
     </g>
    </g>
    <g id="xtick_2">
     <g id="line2d_2">
      <g>
       <use xlink:href="#m777c800b96" x="301.783626" y="192.24" style="stroke: #000000; stroke-width: 0.75"/>
      </g>
     </g>
     <g id="text_2">
      <text style="font: 15px &quot;Suisse Int&apos;l&quot;, sans-serif; text-anchor: middle" x="301.783626" y="213.115" transform="rotate(-0 301.783626 213.115)">21</text>
     </g>
    </g>
    <g id="text_3">
     <text style="font: 500 15px &quot;Suisse Int&apos;l&quot;, sans-serif; text-anchor: middle" x="245.131579" y="236.615" transform="rotate(-0 245.131579 236.615)">Time_in_water</text>
    </g>
   </g>
   <g id="matplotlib.axis_2">
    <g id="ytick_1">
     <g id="line2d_3">
      <defs>
       <path id="m5dd06574c6" d="M 0 0 
L -5 0 
" style="stroke: #000000; stroke-width: 0.75"/>
      </defs>
      <g>
       <use xlink:href="#m5dd06574c6" x="135" y="172.14317" style="stroke: #000000; stroke-width: 0.75"/>
      </g>
     </g>
     <g id="text_4">
      <text style="font: 15px &quot;Suisse Int&apos;l&quot;, sans-serif; text-anchor: end" x="125" y="177.58067" transform="rotate(-0 125 177.58067)">0.0</text>
     </g>
    </g>
    <g id="ytick_2">
     <g id="line2d_4">
      <g>
       <use xlink:href="#m5dd06574c6" x="135" y="131.619071" style="stroke: #000000; stroke-width: 0.75"/>
      </g>
     </g>
     <g id="text_5">
      <text style="font: 15px &quot;Suisse Int&apos;l&quot;, sans-serif; text-anchor: end" x="125" y="137.056571" transform="rotate(-0 125 137.056571)">0.2</text>
     </g>
    </g>
    <g id="ytick_3">
     <g id="line2d_5">
      <g>
       <use xlink:href="#m5dd06574c6" x="135" y="91.094972" style="stroke: #000000; stroke-width: 0.75"/>
      </g>
     </g>
     <g id="text_6">
      <text style="font: 15px &quot;Suisse Int&apos;l&quot;, sans-serif; text-anchor: end" x="125" y="96.532472" transform="rotate(-0 125 96.532472)">0.4</text>
     </g>
    </g>
    <g id="ytick_4">
     <g id="line2d_6">
      <g>
       <use xlink:href="#m5dd06574c6" x="135" y="50.570873" style="stroke: #000000; stroke-width: 0.75"/>
      </g>
     </g>
     <g id="text_7">
      <text style="font: 15px &quot;Suisse Int&apos;l&quot;, sans-serif; text-anchor: end" x="125" y="56.008373" transform="rotate(-0 125 56.008373)">0.6</text>
     </g>
    </g>
    <g id="text_8">
     <text style="font: 500 15px &quot;Suisse Int&apos;l&quot;, sans-serif; text-anchor: middle" x="88.871875" y="109.08" transform="rotate(-90 88.871875 109.08)">Confinement_ratio</text>
    </g>
   </g>
   <g id="line2d_7">
    <path d="M 231.30117 171.748541 
L 231.30117 128.442516 
" clip-path="url(#p7a27acdcb3)" style="fill: none; stroke: #474747; stroke-width: 1.666667; stroke-linecap: round"/>
   </g>
   <g id="line2d_8">
    <path d="M 231.30117 161.516085 
L 231.30117 147.704536 
" clip-path="url(#p7a27acdcb3)" style="fill: none; stroke: #474747; stroke-width: 5; stroke-linecap: round"/>
   </g>
   <g id="line2d_9">
    <path d="M 231.30117 157.658726 
" clip-path="url(#p7a27acdcb3)" style="fill: none; stroke: #474747; stroke-width: 2; stroke-linecap: round"/>
    <defs>
     <path id="m9d8380af7e" d="M 2.083333 0 
L -2.083333 -0 
" style="stroke: #ffffff"/>
    </defs>
    <g clip-path="url(#p7a27acdcb3)">
     <use xlink:href="#m9d8380af7e" x="231.30117" y="157.658726" style="fill: #ffffff; stroke: #ffffff"/>
    </g>
   </g>
   <g id="line2d_10">
    <path d="M 258.961988 171.904722 
L 258.961988 105.880746 
" clip-path="url(#p7a27acdcb3)" style="fill: none; stroke: #474747; stroke-width: 1.666667; stroke-linecap: round"/>
   </g>
   <g id="line2d_11">
    <path d="M 258.961988 163.593149 
L 258.961988 140.398568 
" clip-path="url(#p7a27acdcb3)" style="fill: none; stroke: #474747; stroke-width: 5; stroke-linecap: round"/>
   </g>
   <g id="line2d_12">
    <path d="M 258.961988 153.018389 
" clip-path="url(#p7a27acdcb3)" style="fill: none; stroke: #474747; stroke-width: 2; stroke-linecap: round"/>
    <g clip-path="url(#p7a27acdcb3)">
     <use xlink:href="#m9d8380af7e" x="258.961988" y="153.018389" style="fill: #ffffff; stroke: #ffffff"/>
    </g>
   </g>
   <g id="line2d_13">
    <path d="M 222.47076 32.08 
L 267.792398 32.08 
" clip-path="url(#p7a27acdcb3)" style="fill: none; stroke: #000000; stroke-width: 2; stroke-linecap: round"/>
   </g>
   <g id="patch_3">
    <path d="M 135 192.24 
L 135 25.92 
" style="fill: none; stroke: #000000; stroke-width: 0.75; stroke-linejoin: miter; stroke-linecap: square"/>
   </g>
   <g id="patch_4">
    <path d="M 135 192.24 
L 355.263158 192.24 
" style="fill: none; stroke: #000000; stroke-width: 0.75; stroke-linejoin: miter; stroke-linecap: square"/>
   </g>
   <g id="text_9">
    <text style="font: 16px &quot;Suisse Int&apos;l&quot;, sans-serif; text-anchor: middle" x="245.131579" y="25.076841" transform="rotate(-0 245.131579 25.076841)">ns</text>
   </g>
  </g>
  <g id="axes_2">
   <g id="patch_5">
    <path d="M 443.368421 192.24 
L 663.631579 192.24 
L 663.631579 25.92 
L 443.368421 25.92 
L 443.368421 192.24 
z
" style="fill: none"/>
   </g>
   <g id="PolyCollection_3">
    <defs>
     <path id="mcc25d91665" d="M 542.169591 -29.92 
L 538.957633 -29.92 
L 538.112332 -31.187937 
L 537.102798 -32.455875 
L 535.913696 -33.723812 
L 534.532594 -34.991749 
L 532.951153 -36.259687 
L 531.166308 -37.527624 
L 529.18133 -38.795561 
L 527.006674 -40.063498 
L 524.660495 -41.331436 
L 522.168759 -42.599373 
L 519.56485 -43.86731 
L 516.888658 -45.135248 
L 514.185131 -46.403185 
L 511.50235 -47.671122 
L 508.889224 -48.93906 
L 506.392941 -50.206997 
L 504.056361 -51.474934 
L 501.915522 -52.742872 
L 499.997483 -54.010809 
L 498.318661 -55.278746 
L 496.883811 -56.546684 
L 495.68574 -57.814621 
L 494.705786 -59.082558 
L 493.91502 -60.350495 
L 493.276085 -61.618433 
L 492.745513 -62.88637 
L 492.276343 -64.154307 
L 491.820828 -65.422245 
L 491.333043 -66.690182 
L 490.771201 -67.958119 
L 490.099538 -69.226057 
L 489.289675 -70.493994 
L 488.321404 -71.761931 
L 487.182911 -73.029869 
L 485.870486 -74.297806 
L 484.387811 -75.565743 
L 482.744936 -76.833681 
L 480.957074 -78.101618 
L 479.043339 -79.369555 
L 477.025541 -80.637492 
L 474.927138 -81.90543 
L 472.772422 -83.173367 
L 470.585972 -84.441304 
L 468.392403 -85.709242 
L 466.216387 -86.977179 
L 464.082906 -88.245116 
L 462.017666 -89.513054 
L 460.047595 -90.780991 
L 458.201304 -92.048928 
L 456.509429 -93.316866 
L 455.004729 -94.584803 
L 453.721881 -95.85274 
L 452.696897 -97.120677 
L 451.966151 -98.388615 
L 451.565035 -99.656552 
L 451.526316 -100.924489 
L 451.878284 -102.192427 
L 452.642863 -103.460364 
L 453.833814 -104.728301 
L 455.455228 -105.996239 
L 457.500435 -107.264176 
L 459.95149 -108.532113 
L 462.77928 -109.800051 
L 465.944307 -111.067988 
L 469.398101 -112.335925 
L 473.085183 -113.603863 
L 476.945423 -114.8718 
L 480.916651 -116.139737 
L 484.9373 -117.407674 
L 488.948911 -118.675612 
L 492.898327 -119.943549 
L 496.739432 -121.211486 
L 500.434357 -122.479424 
L 503.954089 -123.747361 
L 507.278519 -125.015298 
L 510.39596 -126.283236 
L 513.302243 -127.551173 
L 515.999495 -128.81911 
L 518.49474 -130.087048 
L 520.798438 -131.354985 
L 522.923093 -132.622922 
L 524.882009 -133.89086 
L 526.688281 -135.158797 
L 528.354038 -136.426734 
L 529.889971 -137.694671 
L 531.305116 -138.962609 
L 532.60686 -140.230546 
L 533.801127 -141.498483 
L 534.892678 -142.766421 
L 535.885474 -144.034358 
L 536.783058 -145.302295 
L 537.588892 -146.570233 
L 538.306646 -147.83817 
L 538.94039 -149.106107 
L 539.494711 -150.374045 
L 539.974735 -151.641982 
L 540.386081 -152.909919 
L 540.734753 -154.177857 
L 541.027 -155.445794 
L 542.169591 -155.445794 
L 542.169591 -155.445794 
L 542.169591 -154.177857 
L 542.169591 -152.909919 
L 542.169591 -151.641982 
L 542.169591 -150.374045 
L 542.169591 -149.106107 
L 542.169591 -147.83817 
L 542.169591 -146.570233 
L 542.169591 -145.302295 
L 542.169591 -144.034358 
L 542.169591 -142.766421 
L 542.169591 -141.498483 
L 542.169591 -140.230546 
L 542.169591 -138.962609 
L 542.169591 -137.694671 
L 542.169591 -136.426734 
L 542.169591 -135.158797 
L 542.169591 -133.89086 
L 542.169591 -132.622922 
L 542.169591 -131.354985 
L 542.169591 -130.087048 
L 542.169591 -128.81911 
L 542.169591 -127.551173 
L 542.169591 -126.283236 
L 542.169591 -125.015298 
L 542.169591 -123.747361 
L 542.169591 -122.479424 
L 542.169591 -121.211486 
L 542.169591 -119.943549 
L 542.169591 -118.675612 
L 542.169591 -117.407674 
L 542.169591 -116.139737 
L 542.169591 -114.8718 
L 542.169591 -113.603863 
L 542.169591 -112.335925 
L 542.169591 -111.067988 
L 542.169591 -109.800051 
L 542.169591 -108.532113 
L 542.169591 -107.264176 
L 542.169591 -105.996239 
L 542.169591 -104.728301 
L 542.169591 -103.460364 
L 542.169591 -102.192427 
L 542.169591 -100.924489 
L 542.169591 -99.656552 
L 542.169591 -98.388615 
L 542.169591 -97.120677 
L 542.169591 -95.85274 
L 542.169591 -94.584803 
L 542.169591 -93.316866 
L 542.169591 -92.048928 
L 542.169591 -90.780991 
L 542.169591 -89.513054 
L 542.169591 -88.245116 
L 542.169591 -86.977179 
L 542.169591 -85.709242 
L 542.169591 -84.441304 
L 542.169591 -83.173367 
L 542.169591 -81.90543 
L 542.169591 -80.637492 
L 542.169591 -79.369555 
L 542.169591 -78.101618 
L 542.169591 -76.833681 
L 542.169591 -75.565743 
L 542.169591 -74.297806 
L 542.169591 -73.029869 
L 542.169591 -71.761931 
L 542.169591 -70.493994 
L 542.169591 -69.226057 
L 542.169591 -67.958119 
L 542.169591 -66.690182 
L 542.169591 -65.422245 
L 542.169591 -64.154307 
L 542.169591 -62.88637 
L 542.169591 -61.618433 
L 542.169591 -60.350495 
L 542.169591 -59.082558 
L 542.169591 -57.814621 
L 542.169591 -56.546684 
L 542.169591 -55.278746 
L 542.169591 -54.010809 
L 542.169591 -52.742872 
L 542.169591 -51.474934 
L 542.169591 -50.206997 
L 542.169591 -48.93906 
L 542.169591 -47.671122 
L 542.169591 -46.403185 
L 542.169591 -45.135248 
L 542.169591 -43.86731 
L 542.169591 -42.599373 
L 542.169591 -41.331436 
L 542.169591 -40.063498 
L 542.169591 -38.795561 
L 542.169591 -37.527624 
L 542.169591 -36.259687 
L 542.169591 -34.991749 
L 542.169591 -33.723812 
L 542.169591 -32.455875 
L 542.169591 -31.187937 
L 542.169591 -29.92 
z
"/>
    </defs>
    <g clip-path="url(#pcf2c58196c)">
     <use xlink:href="#mcc25d91665" x="0" y="216" style="fill: #81b2d5"/>
    </g>
   </g>
   <g id="PolyCollection_4">
    <defs>
     <path id="mce4d94c854" d="M 566.569669 -31.33744 
L 564.830409 -31.33744 
L 564.830409 -32.556307 
L 564.830409 -33.775174 
L 564.830409 -34.994041 
L 564.830409 -36.212908 
L 564.830409 -37.431775 
L 564.830409 -38.650642 
L 564.830409 -39.869509 
L 564.830409 -41.088376 
L 564.830409 -42.307243 
L 564.830409 -43.526111 
L 564.830409 -44.744978 
L 564.830409 -45.963845 
L 564.830409 -47.182712 
L 564.830409 -48.401579 
L 564.830409 -49.620446 
L 564.830409 -50.839313 
L 564.830409 -52.05818 
L 564.830409 -53.277047 
L 564.830409 -54.495914 
L 564.830409 -55.714782 
L 564.830409 -56.933649 
L 564.830409 -58.152516 
L 564.830409 -59.371383 
L 564.830409 -60.59025 
L 564.830409 -61.809117 
L 564.830409 -63.027984 
L 564.830409 -64.246851 
L 564.830409 -65.465718 
L 564.830409 -66.684585 
L 564.830409 -67.903453 
L 564.830409 -69.12232 
L 564.830409 -70.341187 
L 564.830409 -71.560054 
L 564.830409 -72.778921 
L 564.830409 -73.997788 
L 564.830409 -75.216655 
L 564.830409 -76.435522 
L 564.830409 -77.654389 
L 564.830409 -78.873256 
L 564.830409 -80.092124 
L 564.830409 -81.310991 
L 564.830409 -82.529858 
L 564.830409 -83.748725 
L 564.830409 -84.967592 
L 564.830409 -86.186459 
L 564.830409 -87.405326 
L 564.830409 -88.624193 
L 564.830409 -89.84306 
L 564.830409 -91.061927 
L 564.830409 -92.280795 
L 564.830409 -93.499662 
L 564.830409 -94.718529 
L 564.830409 -95.937396 
L 564.830409 -97.156263 
L 564.830409 -98.37513 
L 564.830409 -99.593997 
L 564.830409 -100.812864 
L 564.830409 -102.031731 
L 564.830409 -103.250599 
L 564.830409 -104.469466 
L 564.830409 -105.688333 
L 564.830409 -106.9072 
L 564.830409 -108.126067 
L 564.830409 -109.344934 
L 564.830409 -110.563801 
L 564.830409 -111.782668 
L 564.830409 -113.001535 
L 564.830409 -114.220402 
L 564.830409 -115.43927 
L 564.830409 -116.658137 
L 564.830409 -117.877004 
L 564.830409 -119.095871 
L 564.830409 -120.314738 
L 564.830409 -121.533605 
L 564.830409 -122.752472 
L 564.830409 -123.971339 
L 564.830409 -125.190206 
L 564.830409 -126.409073 
L 564.830409 -127.627941 
L 564.830409 -128.846808 
L 564.830409 -130.065675 
L 564.830409 -131.284542 
L 564.830409 -132.503409 
L 564.830409 -133.722276 
L 564.830409 -134.941143 
L 564.830409 -136.16001 
L 564.830409 -137.378877 
L 564.830409 -138.597744 
L 564.830409 -139.816612 
L 564.830409 -141.035479 
L 564.830409 -142.254346 
L 564.830409 -143.473213 
L 564.830409 -144.69208 
L 564.830409 -145.910947 
L 564.830409 -147.129814 
L 564.830409 -148.348681 
L 564.830409 -149.567548 
L 564.830409 -150.786415 
L 564.830409 -152.005283 
L 565.218023 -152.005283 
L 565.218023 -152.005283 
L 565.368951 -150.786415 
L 565.561984 -149.567548 
L 565.8025 -148.348681 
L 566.094556 -147.129814 
L 566.440382 -145.910947 
L 566.840064 -144.69208 
L 567.291528 -143.473213 
L 567.790896 -142.254346 
L 568.33322 -141.035479 
L 568.913516 -139.816612 
L 569.527946 -138.597744 
L 570.174908 -137.378877 
L 570.8558 -136.16001 
L 571.57522 -134.941143 
L 572.340478 -133.722276 
L 573.160402 -132.503409 
L 574.0436 -131.284542 
L 574.996432 -130.065675 
L 576.021109 -128.846808 
L 577.114282 -127.627941 
L 578.266492 -126.409073 
L 579.462666 -125.190206 
L 580.683676 -123.971339 
L 581.90876 -122.752472 
L 583.11841 -121.533605 
L 584.297219 -120.314738 
L 585.436171 -119.095871 
L 586.533937 -117.877004 
L 587.596962 -116.658137 
L 588.638384 -115.43927 
L 589.676093 -114.220402 
L 590.730433 -113.001535 
L 591.822129 -111.782668 
L 592.970939 -110.563801 
L 594.195276 -109.344934 
L 595.512741 -108.126067 
L 596.941187 -106.9072 
L 598.499702 -105.688333 
L 600.20887 -104.469466 
L 602.089837 -103.250599 
L 604.162044 -102.031731 
L 606.439927 -100.812864 
L 608.929255 -99.593997 
L 611.623981 -98.37513 
L 614.504471 -97.156263 
L 617.537687 -95.937396 
L 620.679475 -94.718529 
L 623.878587 -93.499662 
L 627.081681 -92.280795 
L 630.238311 -91.061927 
L 633.304964 -89.84306 
L 636.247453 -88.624193 
L 639.04135 -87.405326 
L 641.670589 -86.186459 
L 644.124669 -84.967592 
L 646.395094 -83.748725 
L 648.471701 -82.529858 
L 650.339431 -81.310991 
L 651.975958 -80.092124 
L 653.35042 -78.873256 
L 654.423401 -77.654389 
L 655.148238 -76.435522 
L 655.473684 -75.216655 
L 655.347887 -73.997788 
L 654.723496 -72.778921 
L 653.563547 -71.560054 
L 651.847529 -70.341187 
L 649.576857 -69.12232 
L 646.778855 -67.903453 
L 643.508412 -66.684585 
L 639.846674 -65.465718 
L 635.896513 -64.246851 
L 631.775022 -63.027984 
L 627.603735 -61.809117 
L 623.497767 -60.59025 
L 619.555263 -59.371383 
L 615.848643 -58.152516 
L 612.418894 -56.933649 
L 609.273756 -55.714782 
L 606.390078 -54.495914 
L 603.719999 -53.277047 
L 601.20001 -52.05818 
L 598.761562 -50.839313 
L 596.341645 -49.620446 
L 593.891827 -48.401579 
L 591.38455 -47.182712 
L 588.815955 -45.963845 
L 586.205082 -44.744978 
L 583.589903 -43.526111 
L 581.021048 -42.307243 
L 578.554411 -41.088376 
L 576.243831 -39.869509 
L 574.134891 -38.650642 
L 572.260575 -37.431775 
L 570.639094 -36.212908 
L 569.273827 -34.994041 
L 568.15501 -33.775174 
L 567.262595 -32.556307 
L 566.569669 -31.33744 
z
"/>
    </defs>
    <g clip-path="url(#pcf2c58196c)">
     <use xlink:href="#mce4d94c854" x="0" y="216" style="fill: #477aa7"/>
    </g>
   </g>
   <g id="matplotlib.axis_3">
    <g id="xtick_3">
     <g id="line2d_14">
      <g>
       <use xlink:href="#m777c800b96" x="496.847953" y="192.24" style="stroke: #000000; stroke-width: 0.75"/>
      </g>
     </g>
     <g id="text_10">
      <text style="font: 15px &quot;Suisse Int&apos;l&quot;, sans-serif; text-anchor: middle" x="496.847953" y="213.115" transform="rotate(-0 496.847953 213.115)">4</text>
     </g>
    </g>
    <g id="xtick_4">
     <g id="line2d_15">
      <g>
       <use xlink:href="#m777c800b96" x="610.152047" y="192.24" style="stroke: #000000; stroke-width: 0.75"/>
      </g>
     </g>
     <g id="text_11">
      <text style="font: 15px &quot;Suisse Int&apos;l&quot;, sans-serif; text-anchor: middle" x="610.152047" y="213.115" transform="rotate(-0 610.152047 213.115)">21</text>
     </g>
    </g>
    <g id="text_12">
     <text style="font: 500 15px &quot;Suisse Int&apos;l&quot;, sans-serif; text-anchor: middle" x="553.5" y="236.615" transform="rotate(-0 553.5 236.615)">Time_in_water</text>
    </g>
   </g>
   <g id="matplotlib.axis_4">
    <g id="ytick_5">
     <g id="line2d_16">
      <g>
       <use xlink:href="#m5dd06574c6" x="443.368421" y="172.799047" style="stroke: #000000; stroke-width: 0.75"/>
      </g>
     </g>
     <g id="text_13">
      <text style="font: 15px &quot;Suisse Int&apos;l&quot;, sans-serif; text-anchor: end" x="433.368421" y="178.236547" transform="rotate(-0 433.368421 178.236547)">0</text>
     </g>
    </g>
    <g id="ytick_6">
     <g id="line2d_17">
      <g>
       <use xlink:href="#m5dd06574c6" x="443.368421" y="112.215494" style="stroke: #000000; stroke-width: 0.75"/>
      </g>
     </g>
     <g id="text_14">
      <text style="font: 15px &quot;Suisse Int&apos;l&quot;, sans-serif; text-anchor: end" x="433.368421" y="117.652994" transform="rotate(-0 433.368421 117.652994)">50</text>
     </g>
    </g>
    <g id="ytick_7">
     <g id="line2d_18">
      <g>
       <use xlink:href="#m5dd06574c6" x="443.368421" y="51.631941" style="stroke: #000000; stroke-width: 0.75"/>
      </g>
     </g>
     <g id="text_15">
      <text style="font: 15px &quot;Suisse Int&apos;l&quot;, sans-serif; text-anchor: end" x="433.368421" y="57.069441" transform="rotate(-0 433.368421 57.069441)">100</text>
     </g>
    </g>
    <g id="text_16">
     <text style="font: 500 15px &quot;Suisse Int&apos;l&quot;, sans-serif; text-anchor: middle" x="395.395765" y="109.08" transform="rotate(-90 395.395765 109.08)">Mean_curvilinear_speed</text>
    </g>
   </g>
   <g id="line2d_19">
    <path d="M 539.669591 162.900916 
L 539.669591 83.73329 
" clip-path="url(#pcf2c58196c)" style="fill: none; stroke: #474747; stroke-width: 1.666667; stroke-linecap: round"/>
   </g>
   <g id="line2d_20">
    <path d="M 539.669591 139.72506 
L 539.669591 109.737393 
" clip-path="url(#pcf2c58196c)" style="fill: none; stroke: #474747; stroke-width: 5; stroke-linecap: round"/>
   </g>
   <g id="line2d_21">
    <path d="M 539.669591 124.58795 
" clip-path="url(#pcf2c58196c)" style="fill: none; stroke: #474747; stroke-width: 2; stroke-linecap: round"/>
    <g clip-path="url(#pcf2c58196c)">
     <use xlink:href="#m9d8380af7e" x="539.669591" y="124.58795" style="fill: #ffffff; stroke: #ffffff"/>
    </g>
   </g>
   <g id="line2d_22">
    <path d="M 567.330409 169.239931 
L 567.330409 90.588903 
" clip-path="url(#pcf2c58196c)" style="fill: none; stroke: #474747; stroke-width: 1.666667; stroke-linecap: round"/>
   </g>
   <g id="line2d_23">
    <path d="M 567.330409 148.604169 
L 567.330409 123.616553 
" clip-path="url(#pcf2c58196c)" style="fill: none; stroke: #474747; stroke-width: 5; stroke-linecap: round"/>
   </g>
   <g id="line2d_24">
    <path d="M 567.330409 137.418601 
" clip-path="url(#pcf2c58196c)" style="fill: none; stroke: #474747; stroke-width: 2; stroke-linecap: round"/>
    <g clip-path="url(#pcf2c58196c)">
     <use xlink:href="#m9d8380af7e" x="567.330409" y="137.418601" style="fill: #ffffff; stroke: #ffffff"/>
    </g>
   </g>
   <g id="line2d_25">
    <path d="M 530.839181 32.08 
L 576.160819 32.08 
" clip-path="url(#pcf2c58196c)" style="fill: none; stroke: #000000; stroke-width: 2; stroke-linecap: round"/>
   </g>
   <g id="patch_6">
    <path d="M 443.368421 192.24 
L 443.368421 25.92 
" style="fill: none; stroke: #000000; stroke-width: 0.75; stroke-linejoin: miter; stroke-linecap: square"/>
   </g>
   <g id="patch_7">
    <path d="M 443.368421 192.24 
L 663.631579 192.24 
" style="fill: none; stroke: #000000; stroke-width: 0.75; stroke-linejoin: miter; stroke-linecap: square"/>
   </g>
   <g id="text_17">
    <text style="font: 20px &quot;Suisse Int&apos;l&quot;, sans-serif; text-anchor: middle" x="553.5" y="32.08" transform="rotate(-0 553.5 32.08)">*</text>
   </g>
  </g>
  <g id="axes_3">
   <g id="patch_8">
    <path d="M 751.736842 192.24 
L 972 192.24 
L 972 25.92 
L 751.736842 25.92 
L 751.736842 192.24 
z
" style="fill: none"/>
   </g>
   <g id="PolyCollection_5">
    <defs>
     <path id="m2219371a91" d="M 850.538012 -29.92 
L 845.13768 -29.92 
L 843.507392 -31.190049 
L 841.50617 -32.460098 
L 839.0884 -33.730147 
L 836.214152 -35.000196 
L 832.852882 -36.270245 
L 828.987363 -37.540294 
L 824.617572 -38.810343 
L 819.764206 -40.080392 
L 814.471451 -41.350441 
L 808.808658 -42.62049 
L 802.8706 -43.890539 
L 796.776085 -45.160588 
L 790.66481 -46.430637 
L 784.692489 -47.700686 
L 779.024461 -48.970736 
L 773.828115 -50.240785 
L 769.264629 -51.510834 
L 765.480591 -52.780883 
L 762.600108 -54.050932 
L 760.718024 -55.320981 
L 759.894737 -56.59103 
L 760.153017 -57.861079 
L 761.477049 -59.131128 
L 763.813725 -60.401177 
L 767.07606 -61.671226 
L 771.148393 -62.941275 
L 775.892959 -64.211324 
L 781.157305 -65.481373 
L 786.781994 -66.751422 
L 792.608085 -68.021471 
L 798.483926 -69.29152 
L 804.270895 -70.561569 
L 809.847857 -71.831618 
L 815.114203 -73.101667 
L 819.99149 -74.371716 
L 824.423772 -75.641765 
L 828.376783 -76.911814 
L 831.836233 -78.181863 
L 834.805418 -79.451912 
L 837.302421 -80.721961 
L 839.357107 -81.99201 
L 841.008108 -83.262059 
L 842.299936 -84.532108 
L 843.280329 -85.802157 
L 843.997911 -87.072207 
L 844.500178 -88.342256 
L 844.831853 -89.612305 
L 845.033591 -90.882354 
L 845.141046 -92.152403 
L 845.184272 -93.422452 
L 845.187463 -94.692501 
L 845.168999 -95.96255 
L 845.141783 -97.232599 
L 845.113824 -98.502648 
L 845.089026 -99.772697 
L 845.068107 -101.042746 
L 845.049594 -102.312795 
L 845.030794 -103.582844 
L 845.008683 -104.852893 
L 844.980634 -106.122942 
L 844.944938 -107.392991 
L 844.901092 -108.66304 
L 844.84985 -109.933089 
L 844.79307 -111.203138 
L 844.73341 -112.473187 
L 844.673926 -113.743236 
L 844.617667 -115.013285 
L 844.567319 -116.283334 
L 844.524967 -117.553383 
L 844.491999 -118.823432 
L 844.469165 -120.093481 
L 844.456775 -121.36353 
L 844.454988 -122.633579 
L 844.464142 -123.903628 
L 844.485051 -125.173678 
L 844.519227 -126.443727 
L 844.568962 -127.713776 
L 844.637264 -128.983825 
L 844.727638 -130.253874 
L 844.843736 -131.523923 
L 844.988928 -132.793972 
L 845.165848 -134.064021 
L 845.375973 -135.33407 
L 845.6193 -136.604119 
L 845.894153 -137.874168 
L 846.197164 -139.144217 
L 846.523402 -140.414266 
L 846.866658 -141.684315 
L 847.219846 -142.954364 
L 847.575461 -144.224413 
L 847.926058 -145.494462 
L 848.2647 -146.764511 
L 848.585334 -148.03456 
L 848.883066 -149.304609 
L 849.154322 -150.574658 
L 849.396897 -151.844707 
L 849.609899 -153.114756 
L 849.793607 -154.384805 
L 849.94928 -155.654854 
L 850.538012 -155.654854 
L 850.538012 -155.654854 
L 850.538012 -154.384805 
L 850.538012 -153.114756 
L 850.538012 -151.844707 
L 850.538012 -150.574658 
L 850.538012 -149.304609 
L 850.538012 -148.03456 
L 850.538012 -146.764511 
L 850.538012 -145.494462 
L 850.538012 -144.224413 
L 850.538012 -142.954364 
L 850.538012 -141.684315 
L 850.538012 -140.414266 
L 850.538012 -139.144217 
L 850.538012 -137.874168 
L 850.538012 -136.604119 
L 850.538012 -135.33407 
L 850.538012 -134.064021 
L 850.538012 -132.793972 
L 850.538012 -131.523923 
L 850.538012 -130.253874 
L 850.538012 -128.983825 
L 850.538012 -127.713776 
L 850.538012 -126.443727 
L 850.538012 -125.173678 
L 850.538012 -123.903628 
L 850.538012 -122.633579 
L 850.538012 -121.36353 
L 850.538012 -120.093481 
L 850.538012 -118.823432 
L 850.538012 -117.553383 
L 850.538012 -116.283334 
L 850.538012 -115.013285 
L 850.538012 -113.743236 
L 850.538012 -112.473187 
L 850.538012 -111.203138 
L 850.538012 -109.933089 
L 850.538012 -108.66304 
L 850.538012 -107.392991 
L 850.538012 -106.122942 
L 850.538012 -104.852893 
L 850.538012 -103.582844 
L 850.538012 -102.312795 
L 850.538012 -101.042746 
L 850.538012 -99.772697 
L 850.538012 -98.502648 
L 850.538012 -97.232599 
L 850.538012 -95.96255 
L 850.538012 -94.692501 
L 850.538012 -93.422452 
L 850.538012 -92.152403 
L 850.538012 -90.882354 
L 850.538012 -89.612305 
L 850.538012 -88.342256 
L 850.538012 -87.072207 
L 850.538012 -85.802157 
L 850.538012 -84.532108 
L 850.538012 -83.262059 
L 850.538012 -81.99201 
L 850.538012 -80.721961 
L 850.538012 -79.451912 
L 850.538012 -78.181863 
L 850.538012 -76.911814 
L 850.538012 -75.641765 
L 850.538012 -74.371716 
L 850.538012 -73.101667 
L 850.538012 -71.831618 
L 850.538012 -70.561569 
L 850.538012 -69.29152 
L 850.538012 -68.021471 
L 850.538012 -66.751422 
L 850.538012 -65.481373 
L 850.538012 -64.211324 
L 850.538012 -62.941275 
L 850.538012 -61.671226 
L 850.538012 -60.401177 
L 850.538012 -59.131128 
L 850.538012 -57.861079 
L 850.538012 -56.59103 
L 850.538012 -55.320981 
L 850.538012 -54.050932 
L 850.538012 -52.780883 
L 850.538012 -51.510834 
L 850.538012 -50.240785 
L 850.538012 -48.970736 
L 850.538012 -47.700686 
L 850.538012 -46.430637 
L 850.538012 -45.160588 
L 850.538012 -43.890539 
L 850.538012 -42.62049 
L 850.538012 -41.350441 
L 850.538012 -40.080392 
L 850.538012 -38.810343 
L 850.538012 -37.540294 
L 850.538012 -36.270245 
L 850.538012 -35.000196 
L 850.538012 -33.730147 
L 850.538012 -32.460098 
L 850.538012 -31.190049 
L 850.538012 -29.92 
z
"/>
    </defs>
    <g clip-path="url(#pcbc334583f)">
     <use xlink:href="#m2219371a91" x="0" y="216" style="fill: #81b2d5"/>
    </g>
   </g>
   <g id="PolyCollection_6">
    <defs>
     <path id="me1da418c7b" d="M 874.597385 -39.507553 
L 873.19883 -39.507553 
L 873.19883 -40.474398 
L 873.19883 -41.441244 
L 873.19883 -42.40809 
L 873.19883 -43.374936 
L 873.19883 -44.341782 
L 873.19883 -45.308628 
L 873.19883 -46.275474 
L 873.19883 -47.242319 
L 873.19883 -48.209165 
L 873.19883 -49.176011 
L 873.19883 -50.142857 
L 873.19883 -51.109703 
L 873.19883 -52.076549 
L 873.19883 -53.043394 
L 873.19883 -54.01024 
L 873.19883 -54.977086 
L 873.19883 -55.943932 
L 873.19883 -56.910778 
L 873.19883 -57.877624 
L 873.19883 -58.84447 
L 873.19883 -59.811315 
L 873.19883 -60.778161 
L 873.19883 -61.745007 
L 873.19883 -62.711853 
L 873.19883 -63.678699 
L 873.19883 -64.645545 
L 873.19883 -65.61239 
L 873.19883 -66.579236 
L 873.19883 -67.546082 
L 873.19883 -68.512928 
L 873.19883 -69.479774 
L 873.19883 -70.44662 
L 873.19883 -71.413466 
L 873.19883 -72.380311 
L 873.19883 -73.347157 
L 873.19883 -74.314003 
L 873.19883 -75.280849 
L 873.19883 -76.247695 
L 873.19883 -77.214541 
L 873.19883 -78.181387 
L 873.19883 -79.148232 
L 873.19883 -80.115078 
L 873.19883 -81.081924 
L 873.19883 -82.04877 
L 873.19883 -83.015616 
L 873.19883 -83.982462 
L 873.19883 -84.949307 
L 873.19883 -85.916153 
L 873.19883 -86.882999 
L 873.19883 -87.849845 
L 873.19883 -88.816691 
L 873.19883 -89.783537 
L 873.19883 -90.750383 
L 873.19883 -91.717228 
L 873.19883 -92.684074 
L 873.19883 -93.65092 
L 873.19883 -94.617766 
L 873.19883 -95.584612 
L 873.19883 -96.551458 
L 873.19883 -97.518303 
L 873.19883 -98.485149 
L 873.19883 -99.451995 
L 873.19883 -100.418841 
L 873.19883 -101.385687 
L 873.19883 -102.352533 
L 873.19883 -103.319379 
L 873.19883 -104.286224 
L 873.19883 -105.25307 
L 873.19883 -106.219916 
L 873.19883 -107.186762 
L 873.19883 -108.153608 
L 873.19883 -109.120454 
L 873.19883 -110.087299 
L 873.19883 -111.054145 
L 873.19883 -112.020991 
L 873.19883 -112.987837 
L 873.19883 -113.954683 
L 873.19883 -114.921529 
L 873.19883 -115.888375 
L 873.19883 -116.85522 
L 873.19883 -117.822066 
L 873.19883 -118.788912 
L 873.19883 -119.755758 
L 873.19883 -120.722604 
L 873.19883 -121.68945 
L 873.19883 -122.656295 
L 873.19883 -123.623141 
L 873.19883 -124.589987 
L 873.19883 -125.556833 
L 873.19883 -126.523679 
L 873.19883 -127.490525 
L 873.19883 -128.457371 
L 873.19883 -129.424216 
L 873.19883 -130.391062 
L 873.19883 -131.357908 
L 873.19883 -132.324754 
L 873.19883 -133.2916 
L 873.19883 -134.258446 
L 873.19883 -135.225291 
L 873.390382 -135.225291 
L 873.390382 -135.225291 
L 873.480386 -134.258446 
L 873.598771 -133.2916 
L 873.747905 -132.324754 
L 873.927506 -131.357908 
L 874.13377 -130.391062 
L 874.358909 -129.424216 
L 874.591354 -128.457371 
L 874.816756 -127.490525 
L 875.019809 -126.523679 
L 875.186635 -125.556833 
L 875.307355 -124.589987 
L 875.378292 -123.623141 
L 875.403284 -122.656295 
L 875.393704 -121.68945 
L 875.367054 -120.722604 
L 875.344266 -119.755758 
L 875.346173 -118.788912 
L 875.389779 -117.822066 
L 875.485048 -116.85522 
L 875.632849 -115.888375 
L 875.824465 -114.921529 
L 876.042788 -113.954683 
L 876.264969 -112.987837 
L 876.466016 -112.020991 
L 876.622617 -111.054145 
L 876.716471 -110.087299 
L 876.736505 -109.120454 
L 876.67968 -108.153608 
L 876.550379 -107.186762 
L 876.358729 -106.219916 
L 876.118373 -105.25307 
L 875.84425 -104.286224 
L 875.550823 -103.319379 
L 875.250963 -102.352533 
L 874.955466 -101.385687 
L 874.673031 -100.418841 
L 874.410439 -99.451995 
L 874.172757 -98.485149 
L 873.963464 -97.518303 
L 873.784507 -96.551458 
L 873.636385 -95.584612 
L 873.518343 -94.617766 
L 873.428731 -93.65092 
L 873.365533 -92.684074 
L 873.327011 -91.717228 
L 873.312368 -90.750383 
L 873.322323 -89.783537 
L 873.359501 -88.816691 
L 873.428516 -87.849845 
L 873.535705 -86.882999 
L 873.688454 -85.916153 
L 873.894197 -84.949307 
L 874.159234 -83.982462 
L 874.487637 -83.015616 
L 874.880628 -82.04877 
L 875.336811 -81.081924 
L 875.853554 -80.115078 
L 876.429617 -79.148232 
L 877.068827 -78.181387 
L 877.784284 -77.214541 
L 878.602369 -76.247695 
L 879.565743 -75.280849 
L 880.734619 -74.314003 
L 882.185848 -73.347157 
L 884.009626 -72.380311 
L 886.303915 -71.413466 
L 889.166827 -70.44662 
L 892.687251 -69.479774 
L 896.934092 -68.512928 
L 901.944536 -67.546082 
L 907.711998 -66.579236 
L 914.174768 -65.61239 
L 921.206787 -64.645545 
L 928.612386 -63.678699 
L 936.126924 -62.711853 
L 943.425101 -61.745007 
L 950.137998 -60.778161 
L 955.878767 -59.811315 
L 960.275416 -58.84447 
L 963.007495 -57.877624 
L 963.842105 -56.910778 
L 962.663909 -55.943932 
L 959.493949 -54.977086 
L 954.493391 -54.01024 
L 947.950525 -53.043394 
L 940.252217 -52.076549 
L 931.843768 -51.109703 
L 923.183232 -50.142857 
L 914.697118 -49.176011 
L 906.743839 -48.209165 
L 899.589465 -47.242319 
L 893.397776 -46.275474 
L 888.23394 -45.308628 
L 884.078952 -44.341782 
L 880.850691 -43.374936 
L 878.427235 -42.40809 
L 876.668654 -41.441244 
L 875.434732 -40.474398 
L 874.597385 -39.507553 
z
"/>
    </defs>
    <g clip-path="url(#pcbc334583f)">
     <use xlink:href="#me1da418c7b" x="0" y="216" style="fill: #477aa7"/>
    </g>
   </g>
   <g id="patch_9">
    <path d="M 805.216374 171.494509 
L 805.216374 171.494509 
L 805.216374 171.494509 
L 805.216374 171.494509 
z
" clip-path="url(#pcbc334583f)" style="fill: #81b2d5"/>
   </g>
   <g id="patch_10">
    <path d="M 805.216374 171.494509 
L 805.216374 171.494509 
L 805.216374 171.494509 
L 805.216374 171.494509 
z
" clip-path="url(#pcbc334583f)" style="fill: #477aa7"/>
   </g>
   <g id="matplotlib.axis_5">
    <g id="xtick_5">
     <g id="line2d_26">
      <g>
       <use xlink:href="#m777c800b96" x="805.216374" y="192.24" style="stroke: #000000; stroke-width: 0.75"/>
      </g>
     </g>
     <g id="text_18">
      <text style="font: 15px &quot;Suisse Int&apos;l&quot;, sans-serif; text-anchor: middle" x="805.216374" y="213.115" transform="rotate(-0 805.216374 213.115)">4</text>
     </g>
    </g>
    <g id="xtick_6">
     <g id="line2d_27">
      <g>
       <use xlink:href="#m777c800b96" x="918.520468" y="192.24" style="stroke: #000000; stroke-width: 0.75"/>
      </g>
     </g>
     <g id="text_19">
      <text style="font: 15px &quot;Suisse Int&apos;l&quot;, sans-serif; text-anchor: middle" x="918.520468" y="213.115" transform="rotate(-0 918.520468 213.115)">21</text>
     </g>
    </g>
    <g id="text_20">
     <text style="font: 500 15px &quot;Suisse Int&apos;l&quot;, sans-serif; text-anchor: middle" x="861.868421" y="236.615" transform="rotate(-0 861.868421 236.615)">Time_in_water</text>
    </g>
   </g>
   <g id="matplotlib.axis_6">
    <g id="ytick_8">
     <g id="line2d_28">
      <g>
       <use xlink:href="#m5dd06574c6" x="751.736842" y="171.494509" style="stroke: #000000; stroke-width: 0.75"/>
      </g>
     </g>
     <g id="text_21">
      <text style="font: 15px &quot;Suisse Int&apos;l&quot;, sans-serif; text-anchor: end" x="741.736842" y="176.932009" transform="rotate(-0 741.736842 176.932009)">0</text>
     </g>
    </g>
    <g id="ytick_9">
     <g id="line2d_29">
      <g>
       <use xlink:href="#m5dd06574c6" x="751.736842" y="135.815057" style="stroke: #000000; stroke-width: 0.75"/>
      </g>
     </g>
     <g id="text_22">
      <text style="font: 15px &quot;Suisse Int&apos;l&quot;, sans-serif; text-anchor: end" x="741.736842" y="141.252557" transform="rotate(-0 741.736842 141.252557)">10</text>
     </g>
    </g>
    <g id="ytick_10">
     <g id="line2d_30">
      <g>
       <use xlink:href="#m5dd06574c6" x="751.736842" y="100.135605" style="stroke: #000000; stroke-width: 0.75"/>
      </g>
     </g>
     <g id="text_23">
      <text style="font: 15px &quot;Suisse Int&apos;l&quot;, sans-serif; text-anchor: end" x="741.736842" y="105.573105" transform="rotate(-0 741.736842 105.573105)">20</text>
     </g>
    </g>
    <g id="ytick_11">
     <g id="line2d_31">
      <g>
       <use xlink:href="#m5dd06574c6" x="751.736842" y="64.456154" style="stroke: #000000; stroke-width: 0.75"/>
      </g>
     </g>
     <g id="text_24">
      <text style="font: 15px &quot;Suisse Int&apos;l&quot;, sans-serif; text-anchor: end" x="741.736842" y="69.893654" transform="rotate(-0 741.736842 69.893654)">30</text>
     </g>
    </g>
    <g id="ytick_12">
     <g id="line2d_32">
      <g>
       <use xlink:href="#m5dd06574c6" x="751.736842" y="28.776702" style="stroke: #000000; stroke-width: 0.75"/>
      </g>
     </g>
     <g id="text_25">
      <text style="font: 15px &quot;Suisse Int&apos;l&quot;, sans-serif; text-anchor: end" x="741.736842" y="34.214202" transform="rotate(-0 741.736842 34.214202)">40</text>
     </g>
    </g>
    <g id="text_26">
     <text style="font: 500 15px &quot;Suisse Int&apos;l&quot;, sans-serif; text-anchor: middle" x="709.550905" y="109.08" transform="rotate(-90 709.550905 109.08)">Mean_angular_speed</text>
    </g>
   </g>
   <g id="line2d_33">
    <path d="M 848.038012 164.928167 
L 848.038012 148.774056 
" clip-path="url(#pcbc334583f)" style="fill: none; stroke: #474747; stroke-width: 1.666667; stroke-linecap: round"/>
   </g>
   <g id="line2d_34">
    <path d="M 848.038012 161.864423 
L 848.038012 154.102244 
" clip-path="url(#pcbc334583f)" style="fill: none; stroke: #474747; stroke-width: 5; stroke-linecap: round"/>
   </g>
   <g id="line2d_35">
    <path d="M 848.038012 158.870955 
" clip-path="url(#pcbc334583f)" style="fill: none; stroke: #474747; stroke-width: 2; stroke-linecap: round"/>
    <g clip-path="url(#pcbc334583f)">
     <use xlink:href="#m9d8380af7e" x="848.038012" y="158.870955" style="fill: #ffffff; stroke: #ffffff"/>
    </g>
   </g>
   <g id="line2d_36">
    <path d="M 875.69883 166.289092 
L 875.69883 146.364333 
" clip-path="url(#pcbc334583f)" style="fill: none; stroke: #474747; stroke-width: 1.666667; stroke-linecap: round"/>
   </g>
   <g id="line2d_37">
    <path d="M 875.69883 161.239089 
L 875.69883 154.731176 
" clip-path="url(#pcbc334583f)" style="fill: none; stroke: #474747; stroke-width: 5; stroke-linecap: round"/>
   </g>
   <g id="line2d_38">
    <path d="M 875.69883 158.666669 
" clip-path="url(#pcbc334583f)" style="fill: none; stroke: #474747; stroke-width: 2; stroke-linecap: round"/>
    <g clip-path="url(#pcbc334583f)">
     <use xlink:href="#m9d8380af7e" x="875.69883" y="158.666669" style="fill: #ffffff; stroke: #ffffff"/>
    </g>
   </g>
   <g id="line2d_39">
    <path d="M 839.207602 32.08 
L 884.52924 32.08 
" clip-path="url(#pcbc334583f)" style="fill: none; stroke: #000000; stroke-width: 2; stroke-linecap: round"/>
   </g>
   <g id="patch_11">
    <path d="M 751.736842 192.24 
L 751.736842 25.92 
" style="fill: none; stroke: #000000; stroke-width: 0.75; stroke-linejoin: miter; stroke-linecap: square"/>
   </g>
   <g id="patch_12">
    <path d="M 751.736842 192.24 
L 972 192.24 
" style="fill: none; stroke: #000000; stroke-width: 0.75; stroke-linejoin: miter; stroke-linecap: square"/>
   </g>
   <g id="text_27">
    <text style="font: 16px &quot;Suisse Int&apos;l&quot;, sans-serif; text-anchor: middle" x="861.868421" y="25.109275" transform="rotate(-0 861.868421 25.109275)">ns</text>
   </g>
   <g id="legend_1">
    <g id="text_28">
     <text style="font: 600 16px &quot;Suisse Int&apos;l&quot;, sans-serif; text-anchor: start" x="928.496447" y="37.52" transform="rotate(-0 928.496447 37.52)">Time_in_water</text>
    </g>
    <g id="line2d_40">
     <path d="M 928.496447 47.82 
L 1014.246447 47.82 
" style="fill: none; stroke: #bab0a8; stroke-width: 1.5; stroke-linecap: round"/>
    </g>
    <g id="patch_13">
     <path d="M 928.496447 70.695 
L 943.496447 70.695 
L 943.496447 55.32 
L 928.496447 55.32 
z
" style="fill: #81b2d5"/>
    </g>
    <g id="text_29">
     <text style="font: 15px &quot;Suisse Int&apos;l&quot;, sans-serif; text-anchor: start" x="949.496447" y="68.07" transform="rotate(-0 949.496447 68.07)">4 | n=26</text>
    </g>
    <g id="patch_14">
     <path d="M 928.496447 93.57 
L 943.496447 93.57 
L 943.496447 78.195 
L 928.496447 78.195 
z
" style="fill: #477aa7"/>
    </g>
    <g id="text_30">
     <text style="font: 15px &quot;Suisse Int&apos;l&quot;, sans-serif; text-anchor: start" x="949.496447" y="90.945" transform="rotate(-0 949.496447 90.945)">21 | n=119</text>
    </g>
   </g>
  </g>
 </g>
 <defs>
  <clipPath id="p7a27acdcb3">
   <rect x="135" y="25.92" width="220.263158" height="166.32"/>
  </clipPath>
  <clipPath id="pcf2c58196c">
   <rect x="443.368421" y="25.92" width="220.263158" height="166.32"/>
  </clipPath>
  <clipPath id="pcbc334583f">
   <rect x="751.736842" y="25.92" width="220.263158" height="166.32"/>
  </clipPath>
 </defs>
</svg>
