<?xml version="1.0" encoding="utf-8" standalone="no"?>
<!DOCTYPE svg PUBLIC "-//W3C//DTD SVG 1.1//EN"
  "http://www.w3.org/Graphics/SVG/1.1/DTD/svg11.dtd">
<svg xmlns:xlink="http://www.w3.org/1999/xlink" width="864pt" height="144pt" viewBox="0 0 864 144" xmlns="http://www.w3.org/2000/svg" version="1.1">
 <metadata>
  <rdf:RDF xmlns:dc="http://purl.org/dc/elements/1.1/" xmlns:cc="http://creativecommons.org/ns#" xmlns:rdf="http://www.w3.org/1999/02/22-rdf-syntax-ns#">
   <cc:Work>
    <dc:type rdf:resource="http://purl.org/dc/dcmitype/StillImage"/>
    <dc:date>2024-07-22T14:56:25.710686</dc:date>
    <dc:format>image/svg+xml</dc:format>
    <dc:creator>
     <cc:Agent>
      <dc:title>Matplotlib v3.8.4, https://matplotlib.org/</dc:title>
     </cc:Agent>
    </dc:creator>
   </cc:Work>
  </rdf:RDF>
 </metadata>
 <defs>
  <style type="text/css">*{stroke-linejoin: round; stroke-linecap: butt}</style>
 </defs>
 <g id="figure_1">
  <g id="patch_1">
   <path d="M 0 144 
L 864 144 
L 864 0 
L 0 0 
L 0 144 
z
" style="fill: none"/>
  </g>
  <g id="axes_1">
   <g id="patch_2">
    <path d="M 108 128.16 
L 304.941176 128.16 
L 304.941176 17.28 
L 108 17.28 
L 108 128.16 
z
" style="fill: none"/>
   </g>
   <g id="patch_3">
    <path d="M 115.294118 128.16 
L 120.992647 128.16 
L 120.992647 74.905562 
L 115.294118 74.905562 
L 115.294118 128.16 
z
" clip-path="url(#p7e44a098bf)" style="fill: none; stroke: #596f74; stroke-width: 0.5; stroke-linejoin: miter"/>
   </g>
   <g id="patch_4">
    <path d="M 120.992647 128.16 
L 126.691176 128.16 
L 126.691176 101.532781 
L 120.992647 101.532781 
L 120.992647 128.16 
z
" clip-path="url(#p7e44a098bf)" style="fill: none; stroke: #596f74; stroke-width: 0.5; stroke-linejoin: miter"/>
   </g>
   <g id="patch_5">
    <path d="M 126.691176 128.16 
L 132.389706 128.16 
L 132.389706 114.846391 
L 126.691176 114.846391 
L 126.691176 128.16 
z
" clip-path="url(#p7e44a098bf)" style="fill: none; stroke: #596f74; stroke-width: 0.5; stroke-linejoin: miter"/>
   </g>
   <g id="patch_6">
    <path d="M 132.389706 128.16 
L 138.088235 128.16 
L 138.088235 74.905562 
L 132.389706 74.905562 
L 132.389706 128.16 
z
" clip-path="url(#p7e44a098bf)" style="fill: none; stroke: #596f74; stroke-width: 0.5; stroke-linejoin: miter"/>
   </g>
   <g id="patch_7">
    <path d="M 138.088235 128.16 
L 143.786765 128.16 
L 143.786765 101.532781 
L 138.088235 101.532781 
L 138.088235 128.16 
z
" clip-path="url(#p7e44a098bf)" style="fill: none; stroke: #596f74; stroke-width: 0.5; stroke-linejoin: miter"/>
   </g>
   <g id="patch_8">
    <path d="M 143.786765 128.16 
L 149.485294 128.16 
L 149.485294 101.532781 
L 143.786765 101.532781 
L 143.786765 128.16 
z
" clip-path="url(#p7e44a098bf)" style="fill: none; stroke: #596f74; stroke-width: 0.5; stroke-linejoin: miter"/>
   </g>
   <g id="patch_9">
    <path d="M 149.485294 128.16 
L 155.183824 128.16 
L 155.183824 88.219172 
L 149.485294 88.219172 
L 149.485294 128.16 
z
" clip-path="url(#p7e44a098bf)" style="fill: none; stroke: #596f74; stroke-width: 0.5; stroke-linejoin: miter"/>
   </g>
   <g id="patch_10">
    <path d="M 155.183824 128.16 
L 160.882353 128.16 
L 160.882353 34.964734 
L 155.183824 34.964734 
L 155.183824 128.16 
z
" clip-path="url(#p7e44a098bf)" style="fill: none; stroke: #596f74; stroke-width: 0.5; stroke-linejoin: miter"/>
   </g>
   <g id="patch_11">
    <path d="M 160.882353 128.16 
L 166.580882 128.16 
L 166.580882 128.16 
L 160.882353 128.16 
L 160.882353 128.16 
z
" clip-path="url(#p7e44a098bf)" style="fill: none; stroke: #596f74; stroke-width: 0.5; stroke-linejoin: miter"/>
   </g>
   <g id="patch_12">
    <path d="M 166.580882 128.16 
L 172.279412 128.16 
L 172.279412 88.219172 
L 166.580882 88.219172 
L 166.580882 128.16 
z
" clip-path="url(#p7e44a098bf)" style="fill: none; stroke: #596f74; stroke-width: 0.5; stroke-linejoin: miter"/>
   </g>
   <g id="patch_13">
    <path d="M 172.279412 128.16 
L 177.977941 128.16 
L 177.977941 114.846391 
L 172.279412 114.846391 
L 172.279412 128.16 
z
" clip-path="url(#p7e44a098bf)" style="fill: none; stroke: #596f74; stroke-width: 0.5; stroke-linejoin: miter"/>
   </g>
   <g id="patch_14">
    <path d="M 177.977941 128.16 
L 183.676471 128.16 
L 183.676471 101.532781 
L 177.977941 101.532781 
L 177.977941 128.16 
z
" clip-path="url(#p7e44a098bf)" style="fill: none; stroke: #596f74; stroke-width: 0.5; stroke-linejoin: miter"/>
   </g>
   <g id="patch_15">
    <path d="M 183.676471 128.16 
L 189.375 128.16 
L 189.375 101.532781 
L 183.676471 101.532781 
L 183.676471 128.16 
z
" clip-path="url(#p7e44a098bf)" style="fill: none; stroke: #596f74; stroke-width: 0.5; stroke-linejoin: miter"/>
   </g>
   <g id="patch_16">
    <path d="M 189.375 128.16 
L 195.073529 128.16 
L 195.073529 114.846391 
L 189.375 114.846391 
L 189.375 128.16 
z
" clip-path="url(#p7e44a098bf)" style="fill: none; stroke: #596f74; stroke-width: 0.5; stroke-linejoin: miter"/>
   </g>
   <g id="patch_17">
    <path d="M 195.073529 128.16 
L 200.772059 128.16 
L 200.772059 101.532781 
L 195.073529 101.532781 
L 195.073529 128.16 
z
" clip-path="url(#p7e44a098bf)" style="fill: none; stroke: #596f74; stroke-width: 0.5; stroke-linejoin: miter"/>
   </g>
   <g id="patch_18">
    <path d="M 200.772059 128.16 
L 206.470588 128.16 
L 206.470588 128.16 
L 200.772059 128.16 
L 200.772059 128.16 
z
" clip-path="url(#p7e44a098bf)" style="fill: none; stroke: #596f74; stroke-width: 0.5; stroke-linejoin: miter"/>
   </g>
   <g id="patch_19">
    <path d="M 206.470588 128.16 
L 212.169118 128.16 
L 212.169118 128.16 
L 206.470588 128.16 
L 206.470588 128.16 
z
" clip-path="url(#p7e44a098bf)" style="fill: none; stroke: #596f74; stroke-width: 0.5; stroke-linejoin: miter"/>
   </g>
   <g id="patch_20">
    <path d="M 212.169118 128.16 
L 217.867647 128.16 
L 217.867647 128.16 
L 212.169118 128.16 
L 212.169118 128.16 
z
" clip-path="url(#p7e44a098bf)" style="fill: none; stroke: #596f74; stroke-width: 0.5; stroke-linejoin: miter"/>
   </g>
   <g id="patch_21">
    <path d="M 217.867647 128.16 
L 223.566176 128.16 
L 223.566176 114.846391 
L 217.867647 114.846391 
L 217.867647 128.16 
z
" clip-path="url(#p7e44a098bf)" style="fill: none; stroke: #596f74; stroke-width: 0.5; stroke-linejoin: miter"/>
   </g>
   <g id="patch_22">
    <path d="M 223.566176 128.16 
L 229.264706 128.16 
L 229.264706 128.16 
L 223.566176 128.16 
L 223.566176 128.16 
z
" clip-path="url(#p7e44a098bf)" style="fill: none; stroke: #596f74; stroke-width: 0.5; stroke-linejoin: miter"/>
   </g>
   <g id="patch_23">
    <path d="M 229.264706 128.16 
L 234.963235 128.16 
L 234.963235 114.846391 
L 229.264706 114.846391 
L 229.264706 128.16 
z
" clip-path="url(#p7e44a098bf)" style="fill: none; stroke: #596f74; stroke-width: 0.5; stroke-linejoin: miter"/>
   </g>
   <g id="patch_24">
    <path d="M 234.963235 128.16 
L 240.661765 128.16 
L 240.661765 128.16 
L 234.963235 128.16 
L 234.963235 128.16 
z
" clip-path="url(#p7e44a098bf)" style="fill: none; stroke: #596f74; stroke-width: 0.5; stroke-linejoin: miter"/>
   </g>
   <g id="patch_25">
    <path d="M 240.661765 128.16 
L 246.360294 128.16 
L 246.360294 128.16 
L 240.661765 128.16 
L 240.661765 128.16 
z
" clip-path="url(#p7e44a098bf)" style="fill: none; stroke: #596f74; stroke-width: 0.5; stroke-linejoin: miter"/>
   </g>
   <g id="patch_26">
    <path d="M 246.360294 128.16 
L 252.058824 128.16 
L 252.058824 114.846391 
L 246.360294 114.846391 
L 246.360294 128.16 
z
" clip-path="url(#p7e44a098bf)" style="fill: none; stroke: #596f74; stroke-width: 0.5; stroke-linejoin: miter"/>
   </g>
   <g id="patch_27">
    <path d="M 252.058824 128.16 
L 257.757353 128.16 
L 257.757353 114.846391 
L 252.058824 114.846391 
L 252.058824 128.16 
z
" clip-path="url(#p7e44a098bf)" style="fill: none; stroke: #596f74; stroke-width: 0.5; stroke-linejoin: miter"/>
   </g>
   <g id="patch_28">
    <path d="M 257.757353 128.16 
L 263.455882 128.16 
L 263.455882 128.16 
L 257.757353 128.16 
L 257.757353 128.16 
z
" clip-path="url(#p7e44a098bf)" style="fill: none; stroke: #596f74; stroke-width: 0.5; stroke-linejoin: miter"/>
   </g>
   <g id="patch_29">
    <path d="M 263.455882 128.16 
L 269.154412 128.16 
L 269.154412 128.16 
L 263.455882 128.16 
L 263.455882 128.16 
z
" clip-path="url(#p7e44a098bf)" style="fill: none; stroke: #596f74; stroke-width: 0.5; stroke-linejoin: miter"/>
   </g>
   <g id="patch_30">
    <path d="M 269.154412 128.16 
L 274.852941 128.16 
L 274.852941 128.16 
L 269.154412 128.16 
L 269.154412 128.16 
z
" clip-path="url(#p7e44a098bf)" style="fill: none; stroke: #596f74; stroke-width: 0.5; stroke-linejoin: miter"/>
   </g>
   <g id="patch_31">
    <path d="M 274.852941 128.16 
L 280.551471 128.16 
L 280.551471 128.16 
L 274.852941 128.16 
L 274.852941 128.16 
z
" clip-path="url(#p7e44a098bf)" style="fill: none; stroke: #596f74; stroke-width: 0.5; stroke-linejoin: miter"/>
   </g>
   <g id="patch_32">
    <path d="M 280.551471 128.16 
L 286.25 128.16 
L 286.25 128.16 
L 280.551471 128.16 
L 280.551471 128.16 
z
" clip-path="url(#p7e44a098bf)" style="fill: none; stroke: #596f74; stroke-width: 0.5; stroke-linejoin: miter"/>
   </g>
   <g id="patch_33">
    <path d="M 286.25 128.16 
L 291.948529 128.16 
L 291.948529 128.16 
L 286.25 128.16 
L 286.25 128.16 
z
" clip-path="url(#p7e44a098bf)" style="fill: none; stroke: #596f74; stroke-width: 0.5; stroke-linejoin: miter"/>
   </g>
   <g id="patch_34">
    <path d="M 291.948529 128.16 
L 297.647059 128.16 
L 297.647059 128.16 
L 291.948529 128.16 
L 291.948529 128.16 
z
" clip-path="url(#p7e44a098bf)" style="fill: none; stroke: #596f74; stroke-width: 0.5; stroke-linejoin: miter"/>
   </g>
   <g id="patch_35">
    <path d="M 115.294118 128.16 
L 120.992647 128.16 
L 120.992647 72.369637 
L 115.294118 72.369637 
L 115.294118 128.16 
z
" clip-path="url(#p7e44a098bf)" style="fill: none; stroke: #b5bea4; stroke-width: 0.5; stroke-linejoin: miter"/>
   </g>
   <g id="patch_36">
    <path d="M 120.992647 128.16 
L 126.691176 128.16 
L 126.691176 82.513339 
L 120.992647 82.513339 
L 120.992647 128.16 
z
" clip-path="url(#p7e44a098bf)" style="fill: none; stroke: #b5bea4; stroke-width: 0.5; stroke-linejoin: miter"/>
   </g>
   <g id="patch_37">
    <path d="M 126.691176 128.16 
L 132.389706 128.16 
L 132.389706 62.225934 
L 126.691176 62.225934 
L 126.691176 128.16 
z
" clip-path="url(#p7e44a098bf)" style="fill: none; stroke: #b5bea4; stroke-width: 0.5; stroke-linejoin: miter"/>
   </g>
   <g id="patch_38">
    <path d="M 132.389706 128.16 
L 138.088235 128.16 
L 138.088235 102.800744 
L 132.389706 102.800744 
L 132.389706 128.16 
z
" clip-path="url(#p7e44a098bf)" style="fill: none; stroke: #b5bea4; stroke-width: 0.5; stroke-linejoin: miter"/>
   </g>
   <g id="patch_39">
    <path d="M 138.088235 128.16 
L 143.786765 128.16 
L 143.786765 92.657041 
L 138.088235 92.657041 
L 138.088235 128.16 
z
" clip-path="url(#p7e44a098bf)" style="fill: none; stroke: #b5bea4; stroke-width: 0.5; stroke-linejoin: miter"/>
   </g>
   <g id="patch_40">
    <path d="M 143.786765 128.16 
L 149.485294 128.16 
L 149.485294 67.297785 
L 143.786765 67.297785 
L 143.786765 128.16 
z
" clip-path="url(#p7e44a098bf)" style="fill: none; stroke: #b5bea4; stroke-width: 0.5; stroke-linejoin: miter"/>
   </g>
   <g id="patch_41">
    <path d="M 149.485294 128.16 
L 155.183824 128.16 
L 155.183824 87.58519 
L 149.485294 87.58519 
L 149.485294 128.16 
z
" clip-path="url(#p7e44a098bf)" style="fill: none; stroke: #b5bea4; stroke-width: 0.5; stroke-linejoin: miter"/>
   </g>
   <g id="patch_42">
    <path d="M 155.183824 128.16 
L 160.882353 128.16 
L 160.882353 82.513339 
L 155.183824 82.513339 
L 155.183824 128.16 
z
" clip-path="url(#p7e44a098bf)" style="fill: none; stroke: #b5bea4; stroke-width: 0.5; stroke-linejoin: miter"/>
   </g>
   <g id="patch_43">
    <path d="M 160.882353 128.16 
L 166.580882 128.16 
L 166.580882 97.728893 
L 160.882353 97.728893 
L 160.882353 128.16 
z
" clip-path="url(#p7e44a098bf)" style="fill: none; stroke: #b5bea4; stroke-width: 0.5; stroke-linejoin: miter"/>
   </g>
   <g id="patch_44">
    <path d="M 166.580882 128.16 
L 172.279412 128.16 
L 172.279412 112.944446 
L 166.580882 112.944446 
L 166.580882 128.16 
z
" clip-path="url(#p7e44a098bf)" style="fill: none; stroke: #b5bea4; stroke-width: 0.5; stroke-linejoin: miter"/>
   </g>
   <g id="patch_45">
    <path d="M 172.279412 128.16 
L 177.977941 128.16 
L 177.977941 118.016298 
L 172.279412 118.016298 
L 172.279412 128.16 
z
" clip-path="url(#p7e44a098bf)" style="fill: none; stroke: #b5bea4; stroke-width: 0.5; stroke-linejoin: miter"/>
   </g>
   <g id="patch_46">
    <path d="M 177.977941 128.16 
L 183.676471 128.16 
L 183.676471 97.728893 
L 177.977941 97.728893 
L 177.977941 128.16 
z
" clip-path="url(#p7e44a098bf)" style="fill: none; stroke: #b5bea4; stroke-width: 0.5; stroke-linejoin: miter"/>
   </g>
   <g id="patch_47">
    <path d="M 183.676471 128.16 
L 189.375 128.16 
L 189.375 123.088149 
L 183.676471 123.088149 
L 183.676471 128.16 
z
" clip-path="url(#p7e44a098bf)" style="fill: none; stroke: #b5bea4; stroke-width: 0.5; stroke-linejoin: miter"/>
   </g>
   <g id="patch_48">
    <path d="M 189.375 128.16 
L 195.073529 128.16 
L 195.073529 118.016298 
L 189.375 118.016298 
L 189.375 128.16 
z
" clip-path="url(#p7e44a098bf)" style="fill: none; stroke: #b5bea4; stroke-width: 0.5; stroke-linejoin: miter"/>
   </g>
   <g id="patch_49">
    <path d="M 195.073529 128.16 
L 200.772059 128.16 
L 200.772059 102.800744 
L 195.073529 102.800744 
L 195.073529 128.16 
z
" clip-path="url(#p7e44a098bf)" style="fill: none; stroke: #b5bea4; stroke-width: 0.5; stroke-linejoin: miter"/>
   </g>
   <g id="patch_50">
    <path d="M 200.772059 128.16 
L 206.470588 128.16 
L 206.470588 123.088149 
L 200.772059 123.088149 
L 200.772059 128.16 
z
" clip-path="url(#p7e44a098bf)" style="fill: none; stroke: #b5bea4; stroke-width: 0.5; stroke-linejoin: miter"/>
   </g>
   <g id="patch_51">
    <path d="M 206.470588 128.16 
L 212.169118 128.16 
L 212.169118 123.088149 
L 206.470588 123.088149 
L 206.470588 128.16 
z
" clip-path="url(#p7e44a098bf)" style="fill: none; stroke: #b5bea4; stroke-width: 0.5; stroke-linejoin: miter"/>
   </g>
   <g id="patch_52">
    <path d="M 212.169118 128.16 
L 217.867647 128.16 
L 217.867647 128.16 
L 212.169118 128.16 
L 212.169118 128.16 
z
" clip-path="url(#p7e44a098bf)" style="fill: none; stroke: #b5bea4; stroke-width: 0.5; stroke-linejoin: miter"/>
   </g>
   <g id="patch_53">
    <path d="M 217.867647 128.16 
L 223.566176 128.16 
L 223.566176 128.16 
L 217.867647 128.16 
L 217.867647 128.16 
z
" clip-path="url(#p7e44a098bf)" style="fill: none; stroke: #b5bea4; stroke-width: 0.5; stroke-linejoin: miter"/>
   </g>
   <g id="patch_54">
    <path d="M 223.566176 128.16 
L 229.264706 128.16 
L 229.264706 128.16 
L 223.566176 128.16 
L 223.566176 128.16 
z
" clip-path="url(#p7e44a098bf)" style="fill: none; stroke: #b5bea4; stroke-width: 0.5; stroke-linejoin: miter"/>
   </g>
   <g id="patch_55">
    <path d="M 229.264706 128.16 
L 234.963235 128.16 
L 234.963235 128.16 
L 229.264706 128.16 
L 229.264706 128.16 
z
" clip-path="url(#p7e44a098bf)" style="fill: none; stroke: #b5bea4; stroke-width: 0.5; stroke-linejoin: miter"/>
   </g>
   <g id="patch_56">
    <path d="M 234.963235 128.16 
L 240.661765 128.16 
L 240.661765 118.016298 
L 234.963235 118.016298 
L 234.963235 128.16 
z
" clip-path="url(#p7e44a098bf)" style="fill: none; stroke: #b5bea4; stroke-width: 0.5; stroke-linejoin: miter"/>
   </g>
   <g id="patch_57">
    <path d="M 240.661765 128.16 
L 246.360294 128.16 
L 246.360294 128.16 
L 240.661765 128.16 
L 240.661765 128.16 
z
" clip-path="url(#p7e44a098bf)" style="fill: none; stroke: #b5bea4; stroke-width: 0.5; stroke-linejoin: miter"/>
   </g>
   <g id="patch_58">
    <path d="M 246.360294 128.16 
L 252.058824 128.16 
L 252.058824 123.088149 
L 246.360294 123.088149 
L 246.360294 128.16 
z
" clip-path="url(#p7e44a098bf)" style="fill: none; stroke: #b5bea4; stroke-width: 0.5; stroke-linejoin: miter"/>
   </g>
   <g id="patch_59">
    <path d="M 252.058824 128.16 
L 257.757353 128.16 
L 257.757353 128.16 
L 252.058824 128.16 
L 252.058824 128.16 
z
" clip-path="url(#p7e44a098bf)" style="fill: none; stroke: #b5bea4; stroke-width: 0.5; stroke-linejoin: miter"/>
   </g>
   <g id="patch_60">
    <path d="M 257.757353 128.16 
L 263.455882 128.16 
L 263.455882 128.16 
L 257.757353 128.16 
L 257.757353 128.16 
z
" clip-path="url(#p7e44a098bf)" style="fill: none; stroke: #b5bea4; stroke-width: 0.5; stroke-linejoin: miter"/>
   </g>
   <g id="patch_61">
    <path d="M 263.455882 128.16 
L 269.154412 128.16 
L 269.154412 128.16 
L 263.455882 128.16 
L 263.455882 128.16 
z
" clip-path="url(#p7e44a098bf)" style="fill: none; stroke: #b5bea4; stroke-width: 0.5; stroke-linejoin: miter"/>
   </g>
   <g id="patch_62">
    <path d="M 269.154412 128.16 
L 274.852941 128.16 
L 274.852941 128.16 
L 269.154412 128.16 
L 269.154412 128.16 
z
" clip-path="url(#p7e44a098bf)" style="fill: none; stroke: #b5bea4; stroke-width: 0.5; stroke-linejoin: miter"/>
   </g>
   <g id="patch_63">
    <path d="M 274.852941 128.16 
L 280.551471 128.16 
L 280.551471 128.16 
L 274.852941 128.16 
L 274.852941 128.16 
z
" clip-path="url(#p7e44a098bf)" style="fill: none; stroke: #b5bea4; stroke-width: 0.5; stroke-linejoin: miter"/>
   </g>
   <g id="patch_64">
    <path d="M 280.551471 128.16 
L 286.25 128.16 
L 286.25 128.16 
L 280.551471 128.16 
L 280.551471 128.16 
z
" clip-path="url(#p7e44a098bf)" style="fill: none; stroke: #b5bea4; stroke-width: 0.5; stroke-linejoin: miter"/>
   </g>
   <g id="patch_65">
    <path d="M 286.25 128.16 
L 291.948529 128.16 
L 291.948529 128.16 
L 286.25 128.16 
L 286.25 128.16 
z
" clip-path="url(#p7e44a098bf)" style="fill: none; stroke: #b5bea4; stroke-width: 0.5; stroke-linejoin: miter"/>
   </g>
   <g id="patch_66">
    <path d="M 291.948529 128.16 
L 297.647059 128.16 
L 297.647059 123.088149 
L 291.948529 123.088149 
L 291.948529 128.16 
z
" clip-path="url(#p7e44a098bf)" style="fill: none; stroke: #b5bea4; stroke-width: 0.5; stroke-linejoin: miter"/>
   </g>
   <g id="matplotlib.axis_1">
    <g id="xtick_1">
     <g id="line2d_1">
      <defs>
       <path id="m83c334bef7" d="M 0 0 
L 0 5 
" style="stroke: #000000; stroke-width: 0.75"/>
      </defs>
      <g>
       <use xlink:href="#m83c334bef7" x="114.847144" y="128.16" style="stroke: #000000; stroke-width: 0.75"/>
      </g>
     </g>
     <g id="text_1">
      <text style="font: 15px &quot;Suisse Int&apos;l&quot;, sans-serif; text-anchor: middle" x="114.847144" y="149.035" transform="rotate(-0 114.847144 149.035)">0.0</text>
     </g>
    </g>
    <g id="xtick_2">
     <g id="line2d_2">
      <g>
       <use xlink:href="#m83c334bef7" x="190.809957" y="128.16" style="stroke: #000000; stroke-width: 0.75"/>
      </g>
     </g>
     <g id="text_2">
      <text style="font: 15px &quot;Suisse Int&apos;l&quot;, sans-serif; text-anchor: middle" x="190.809957" y="149.035" transform="rotate(-0 190.809957 149.035)">0.2</text>
     </g>
    </g>
    <g id="xtick_3">
     <g id="line2d_3">
      <g>
       <use xlink:href="#m83c334bef7" x="266.772769" y="128.16" style="stroke: #000000; stroke-width: 0.75"/>
      </g>
     </g>
     <g id="text_3">
      <text style="font: 15px &quot;Suisse Int&apos;l&quot;, sans-serif; text-anchor: middle" x="266.772769" y="149.035" transform="rotate(-0 266.772769 149.035)">0.4</text>
     </g>
    </g>
    <g id="text_4">
     <text style="font: 500 15px &quot;Suisse Int&apos;l&quot;, sans-serif; text-anchor: middle" x="206.470588" y="172.535" transform="rotate(-0 206.470588 172.535)">Confinement_ratio</text>
    </g>
   </g>
   <g id="matplotlib.axis_2">
    <g id="ytick_1">
     <g id="line2d_4">
      <defs>
       <path id="m3eef057d8d" d="M 0 0 
L -5 0 
" style="stroke: #000000; stroke-width: 0.75"/>
      </defs>
      <g>
       <use xlink:href="#m3eef057d8d" x="108" y="128.16" style="stroke: #000000; stroke-width: 0.75"/>
      </g>
     </g>
     <g id="text_5">
      <text style="font: 15px &quot;Suisse Int&apos;l&quot;, sans-serif; text-anchor: end" x="98" y="133.5975" transform="rotate(-0 98 133.5975)">0</text>
     </g>
    </g>
    <g id="ytick_2">
     <g id="line2d_5">
      <g>
       <use xlink:href="#m3eef057d8d" x="108" y="74.905562" style="stroke: #000000; stroke-width: 0.75"/>
      </g>
     </g>
     <g id="text_6">
      <text style="font: 15px &quot;Suisse Int&apos;l&quot;, sans-serif; text-anchor: end" x="98" y="80.343062" transform="rotate(-0 98 80.343062)">10</text>
     </g>
    </g>
    <g id="ytick_3">
     <g id="line2d_6">
      <g>
       <use xlink:href="#m3eef057d8d" x="108" y="21.651124" style="stroke: #000000; stroke-width: 0.75"/>
      </g>
     </g>
     <g id="text_7">
      <text style="font: 15px &quot;Suisse Int&apos;l&quot;, sans-serif; text-anchor: end" x="98" y="27.088624" transform="rotate(-0 98 27.088624)">20</text>
     </g>
    </g>
    <g id="text_8">
     <text style="font: 500 15px &quot;Suisse Int&apos;l&quot;, sans-serif; text-anchor: middle" x="66.610938" y="72.72" transform="rotate(-90 66.610938 72.72)">Percent</text>
    </g>
   </g>
   <g id="line2d_7">
    <path d="M 115.294118 110.167254 
L 122.624889 104.284069 
L 126.290275 101.583013 
L 129.955661 99.138844 
L 133.621046 97.004292 
L 136.370086 95.633909 
L 139.119125 94.481534 
L 141.868164 93.565387 
L 144.617204 92.902733 
L 147.366243 92.508031 
L 150.115282 92.390464 
L 152.864322 92.551459 
L 155.613361 92.982826 
L 158.3624 93.66609 
L 161.11144 94.573291 
L 164.776825 96.069811 
L 168.442211 97.809263 
L 173.94029 100.685622 
L 186.76914 107.759937 
L 197.765297 113.728968 
L 202.347029 115.996694 
L 206.012415 117.615595 
L 209.677801 119.006591 
L 213.343187 120.136537 
L 217.008572 120.995103 
L 220.673958 121.596169 
L 224.339344 121.974836 
L 228.921076 122.213397 
L 237.168194 122.341463 
L 243.582619 122.524182 
L 249.080698 122.921087 
L 254.578776 123.58263 
L 260.993201 124.607053 
L 271.989359 126.417948 
L 277.487437 127.10345 
L 282.985516 127.580568 
L 289.399941 127.90763 
L 297.647059 128.089739 
L 297.647059 128.089739 
" clip-path="url(#p7e44a098bf)" style="fill: none; stroke: #596f74; stroke-width: 3; stroke-linecap: round"/>
   </g>
   <g id="line2d_8">
    <path d="M 115.294118 102.931536 
L 118.959503 97.530326 
L 121.708543 93.935204 
L 123.541236 91.847395 
L 125.373928 90.040838 
L 127.206621 88.526882 
L 129.039314 87.302034 
L 130.872007 86.350585 
L 132.7047 85.648369 
L 134.537393 85.167094 
L 136.370086 84.878646 
L 138.202779 84.758765 
L 140.951818 84.858106 
L 143.700857 85.270265 
L 146.449897 86.000215 
L 149.198936 87.069667 
L 151.947975 88.495223 
L 154.697014 90.268963 
L 157.446054 92.347578 
L 161.11144 95.453907 
L 169.358557 102.618311 
L 172.107597 104.72838 
L 174.856636 106.611739 
L 177.605675 108.263009 
L 180.354715 109.703037 
L 184.020101 111.364397 
L 189.518179 113.551066 
L 196.848951 116.492468 
L 203.263376 119.379286 
L 209.677801 122.259075 
L 213.343187 123.657854 
L 216.092226 124.504712 
L 218.841265 125.148446 
L 221.590304 125.583399 
L 224.339344 125.823963 
L 228.00473 125.899805 
L 233.502808 125.719883 
L 239.917233 125.538598 
L 244.498965 125.648031 
L 249.080698 125.983312 
L 258.244162 126.970742 
L 264.658587 127.539571 
L 270.156666 127.805734 
L 275.654744 127.860007 
L 282.985516 127.674617 
L 296.730712 127.231711 
L 297.647059 127.22931 
L 297.647059 127.22931 
" clip-path="url(#p7e44a098bf)" style="fill: none; stroke: #b5bea4; stroke-width: 3; stroke-linecap: round"/>
   </g>
   <g id="line2d_9">
    <path d="M 126.793048 21.544615 
L 176.028342 21.544615 
" clip-path="url(#p7e44a098bf)" style="fill: none; stroke: #000000; stroke-width: 2; stroke-linecap: round"/>
   </g>
   <g id="patch_67">
    <path d="M 108 128.16 
L 108 17.28 
" style="fill: none; stroke: #000000; stroke-width: 0.75; stroke-linejoin: miter; stroke-linecap: square"/>
   </g>
   <g id="patch_68">
    <path d="M 108 128.16 
L 304.941176 128.16 
" style="fill: none; stroke: #000000; stroke-width: 0.75; stroke-linejoin: miter; stroke-linecap: square"/>
   </g>
   <g id="text_9">
    <text style="font: 12px &quot;Suisse Int&apos;l&quot;, sans-serif; text-anchor: middle" x="151.410695" y="16.213846" transform="rotate(-0 151.410695 16.213846)">NS</text>
   </g>
  </g>
  <g id="axes_2">
   <g id="patch_69">
    <path d="M 344.329412 128.16 
L 541.270588 128.16 
L 541.270588 17.28 
L 344.329412 17.28 
L 344.329412 128.16 
z
" style="fill: none"/>
   </g>
   <g id="patch_70">
    <path d="M 351.623529 128.16 
L 357.322059 128.16 
L 357.322059 114.846391 
L 351.623529 114.846391 
L 351.623529 128.16 
z
" clip-path="url(#p35d2f91952)" style="fill: none; stroke: #596f74; stroke-width: 0.5; stroke-linejoin: miter"/>
   </g>
   <g id="patch_71">
    <path d="M 357.322059 128.16 
L 363.020588 128.16 
L 363.020588 128.16 
L 357.322059 128.16 
L 357.322059 128.16 
z
" clip-path="url(#p35d2f91952)" style="fill: none; stroke: #596f74; stroke-width: 0.5; stroke-linejoin: miter"/>
   </g>
   <g id="patch_72">
    <path d="M 363.020588 128.16 
L 368.719118 128.16 
L 368.719118 101.532781 
L 363.020588 101.532781 
L 363.020588 128.16 
z
" clip-path="url(#p35d2f91952)" style="fill: none; stroke: #596f74; stroke-width: 0.5; stroke-linejoin: miter"/>
   </g>
   <g id="patch_73">
    <path d="M 368.719118 128.16 
L 374.417647 128.16 
L 374.417647 114.846391 
L 368.719118 114.846391 
L 368.719118 128.16 
z
" clip-path="url(#p35d2f91952)" style="fill: none; stroke: #596f74; stroke-width: 0.5; stroke-linejoin: miter"/>
   </g>
   <g id="patch_74">
    <path d="M 374.417647 128.16 
L 380.116176 128.16 
L 380.116176 128.16 
L 374.417647 128.16 
L 374.417647 128.16 
z
" clip-path="url(#p35d2f91952)" style="fill: none; stroke: #596f74; stroke-width: 0.5; stroke-linejoin: miter"/>
   </g>
   <g id="patch_75">
    <path d="M 380.116176 128.16 
L 385.814706 128.16 
L 385.814706 88.219172 
L 380.116176 88.219172 
L 380.116176 128.16 
z
" clip-path="url(#p35d2f91952)" style="fill: none; stroke: #596f74; stroke-width: 0.5; stroke-linejoin: miter"/>
   </g>
   <g id="patch_76">
    <path d="M 385.814706 128.16 
L 391.513235 128.16 
L 391.513235 114.846391 
L 385.814706 114.846391 
L 385.814706 128.16 
z
" clip-path="url(#p35d2f91952)" style="fill: none; stroke: #596f74; stroke-width: 0.5; stroke-linejoin: miter"/>
   </g>
   <g id="patch_77">
    <path d="M 391.513235 128.16 
L 397.211765 128.16 
L 397.211765 34.964734 
L 391.513235 34.964734 
L 391.513235 128.16 
z
" clip-path="url(#p35d2f91952)" style="fill: none; stroke: #596f74; stroke-width: 0.5; stroke-linejoin: miter"/>
   </g>
   <g id="patch_78">
    <path d="M 397.211765 128.16 
L 402.910294 128.16 
L 402.910294 74.905562 
L 397.211765 74.905562 
L 397.211765 128.16 
z
" clip-path="url(#p35d2f91952)" style="fill: none; stroke: #596f74; stroke-width: 0.5; stroke-linejoin: miter"/>
   </g>
   <g id="patch_79">
    <path d="M 402.910294 128.16 
L 408.608824 128.16 
L 408.608824 128.16 
L 402.910294 128.16 
L 402.910294 128.16 
z
" clip-path="url(#p35d2f91952)" style="fill: none; stroke: #596f74; stroke-width: 0.5; stroke-linejoin: miter"/>
   </g>
   <g id="patch_80">
    <path d="M 408.608824 128.16 
L 414.307353 128.16 
L 414.307353 74.905562 
L 408.608824 74.905562 
L 408.608824 128.16 
z
" clip-path="url(#p35d2f91952)" style="fill: none; stroke: #596f74; stroke-width: 0.5; stroke-linejoin: miter"/>
   </g>
   <g id="patch_81">
    <path d="M 414.307353 128.16 
L 420.005882 128.16 
L 420.005882 101.532781 
L 414.307353 101.532781 
L 414.307353 128.16 
z
" clip-path="url(#p35d2f91952)" style="fill: none; stroke: #596f74; stroke-width: 0.5; stroke-linejoin: miter"/>
   </g>
   <g id="patch_82">
    <path d="M 420.005882 128.16 
L 425.704412 128.16 
L 425.704412 88.219172 
L 420.005882 88.219172 
L 420.005882 128.16 
z
" clip-path="url(#p35d2f91952)" style="fill: none; stroke: #596f74; stroke-width: 0.5; stroke-linejoin: miter"/>
   </g>
   <g id="patch_83">
    <path d="M 425.704412 128.16 
L 431.402941 128.16 
L 431.402941 88.219172 
L 425.704412 88.219172 
L 425.704412 128.16 
z
" clip-path="url(#p35d2f91952)" style="fill: none; stroke: #596f74; stroke-width: 0.5; stroke-linejoin: miter"/>
   </g>
   <g id="patch_84">
    <path d="M 431.402941 128.16 
L 437.101471 128.16 
L 437.101471 114.846391 
L 431.402941 114.846391 
L 431.402941 128.16 
z
" clip-path="url(#p35d2f91952)" style="fill: none; stroke: #596f74; stroke-width: 0.5; stroke-linejoin: miter"/>
   </g>
   <g id="patch_85">
    <path d="M 437.101471 128.16 
L 442.8 128.16 
L 442.8 101.532781 
L 437.101471 101.532781 
L 437.101471 128.16 
z
" clip-path="url(#p35d2f91952)" style="fill: none; stroke: #596f74; stroke-width: 0.5; stroke-linejoin: miter"/>
   </g>
   <g id="patch_86">
    <path d="M 442.8 128.16 
L 448.498529 128.16 
L 448.498529 128.16 
L 442.8 128.16 
L 442.8 128.16 
z
" clip-path="url(#p35d2f91952)" style="fill: none; stroke: #596f74; stroke-width: 0.5; stroke-linejoin: miter"/>
   </g>
   <g id="patch_87">
    <path d="M 448.498529 128.16 
L 454.197059 128.16 
L 454.197059 114.846391 
L 448.498529 114.846391 
L 448.498529 128.16 
z
" clip-path="url(#p35d2f91952)" style="fill: none; stroke: #596f74; stroke-width: 0.5; stroke-linejoin: miter"/>
   </g>
   <g id="patch_88">
    <path d="M 454.197059 128.16 
L 459.895588 128.16 
L 459.895588 128.16 
L 454.197059 128.16 
L 454.197059 128.16 
z
" clip-path="url(#p35d2f91952)" style="fill: none; stroke: #596f74; stroke-width: 0.5; stroke-linejoin: miter"/>
   </g>
   <g id="patch_89">
    <path d="M 459.895588 128.16 
L 465.594118 128.16 
L 465.594118 128.16 
L 459.895588 128.16 
L 459.895588 128.16 
z
" clip-path="url(#p35d2f91952)" style="fill: none; stroke: #596f74; stroke-width: 0.5; stroke-linejoin: miter"/>
   </g>
   <g id="patch_90">
    <path d="M 465.594118 128.16 
L 471.292647 128.16 
L 471.292647 114.846391 
L 465.594118 114.846391 
L 465.594118 128.16 
z
" clip-path="url(#p35d2f91952)" style="fill: none; stroke: #596f74; stroke-width: 0.5; stroke-linejoin: miter"/>
   </g>
   <g id="patch_91">
    <path d="M 471.292647 128.16 
L 476.991176 128.16 
L 476.991176 114.846391 
L 471.292647 114.846391 
L 471.292647 128.16 
z
" clip-path="url(#p35d2f91952)" style="fill: none; stroke: #596f74; stroke-width: 0.5; stroke-linejoin: miter"/>
   </g>
   <g id="patch_92">
    <path d="M 476.991176 128.16 
L 482.689706 128.16 
L 482.689706 114.846391 
L 476.991176 114.846391 
L 476.991176 128.16 
z
" clip-path="url(#p35d2f91952)" style="fill: none; stroke: #596f74; stroke-width: 0.5; stroke-linejoin: miter"/>
   </g>
   <g id="patch_93">
    <path d="M 482.689706 128.16 
L 488.388235 128.16 
L 488.388235 128.16 
L 482.689706 128.16 
L 482.689706 128.16 
z
" clip-path="url(#p35d2f91952)" style="fill: none; stroke: #596f74; stroke-width: 0.5; stroke-linejoin: miter"/>
   </g>
   <g id="patch_94">
    <path d="M 488.388235 128.16 
L 494.086765 128.16 
L 494.086765 101.532781 
L 488.388235 101.532781 
L 488.388235 128.16 
z
" clip-path="url(#p35d2f91952)" style="fill: none; stroke: #596f74; stroke-width: 0.5; stroke-linejoin: miter"/>
   </g>
   <g id="patch_95">
    <path d="M 494.086765 128.16 
L 499.785294 128.16 
L 499.785294 128.16 
L 494.086765 128.16 
L 494.086765 128.16 
z
" clip-path="url(#p35d2f91952)" style="fill: none; stroke: #596f74; stroke-width: 0.5; stroke-linejoin: miter"/>
   </g>
   <g id="patch_96">
    <path d="M 499.785294 128.16 
L 505.483824 128.16 
L 505.483824 128.16 
L 499.785294 128.16 
L 499.785294 128.16 
z
" clip-path="url(#p35d2f91952)" style="fill: none; stroke: #596f74; stroke-width: 0.5; stroke-linejoin: miter"/>
   </g>
   <g id="patch_97">
    <path d="M 505.483824 128.16 
L 511.182353 128.16 
L 511.182353 128.16 
L 505.483824 128.16 
L 505.483824 128.16 
z
" clip-path="url(#p35d2f91952)" style="fill: none; stroke: #596f74; stroke-width: 0.5; stroke-linejoin: miter"/>
   </g>
   <g id="patch_98">
    <path d="M 511.182353 128.16 
L 516.880882 128.16 
L 516.880882 128.16 
L 511.182353 128.16 
L 511.182353 128.16 
z
" clip-path="url(#p35d2f91952)" style="fill: none; stroke: #596f74; stroke-width: 0.5; stroke-linejoin: miter"/>
   </g>
   <g id="patch_99">
    <path d="M 516.880882 128.16 
L 522.579412 128.16 
L 522.579412 128.16 
L 516.880882 128.16 
L 516.880882 128.16 
z
" clip-path="url(#p35d2f91952)" style="fill: none; stroke: #596f74; stroke-width: 0.5; stroke-linejoin: miter"/>
   </g>
   <g id="patch_100">
    <path d="M 522.579412 128.16 
L 528.277941 128.16 
L 528.277941 128.16 
L 522.579412 128.16 
L 522.579412 128.16 
z
" clip-path="url(#p35d2f91952)" style="fill: none; stroke: #596f74; stroke-width: 0.5; stroke-linejoin: miter"/>
   </g>
   <g id="patch_101">
    <path d="M 528.277941 128.16 
L 533.976471 128.16 
L 533.976471 128.16 
L 528.277941 128.16 
L 528.277941 128.16 
z
" clip-path="url(#p35d2f91952)" style="fill: none; stroke: #596f74; stroke-width: 0.5; stroke-linejoin: miter"/>
   </g>
   <g id="patch_102">
    <path d="M 351.623529 128.16 
L 357.322059 128.16 
L 357.322059 97.728893 
L 351.623529 97.728893 
L 351.623529 128.16 
z
" clip-path="url(#p35d2f91952)" style="fill: none; stroke: #b5bea4; stroke-width: 0.5; stroke-linejoin: miter"/>
   </g>
   <g id="patch_103">
    <path d="M 357.322059 128.16 
L 363.020588 128.16 
L 363.020588 118.016298 
L 357.322059 118.016298 
L 357.322059 128.16 
z
" clip-path="url(#p35d2f91952)" style="fill: none; stroke: #b5bea4; stroke-width: 0.5; stroke-linejoin: miter"/>
   </g>
   <g id="patch_104">
    <path d="M 363.020588 128.16 
L 368.719118 128.16 
L 368.719118 112.944446 
L 363.020588 112.944446 
L 363.020588 128.16 
z
" clip-path="url(#p35d2f91952)" style="fill: none; stroke: #b5bea4; stroke-width: 0.5; stroke-linejoin: miter"/>
   </g>
   <g id="patch_105">
    <path d="M 368.719118 128.16 
L 374.417647 128.16 
L 374.417647 112.944446 
L 368.719118 112.944446 
L 368.719118 128.16 
z
" clip-path="url(#p35d2f91952)" style="fill: none; stroke: #b5bea4; stroke-width: 0.5; stroke-linejoin: miter"/>
   </g>
   <g id="patch_106">
    <path d="M 374.417647 128.16 
L 380.116176 128.16 
L 380.116176 118.016298 
L 374.417647 118.016298 
L 374.417647 128.16 
z
" clip-path="url(#p35d2f91952)" style="fill: none; stroke: #b5bea4; stroke-width: 0.5; stroke-linejoin: miter"/>
   </g>
   <g id="patch_107">
    <path d="M 380.116176 128.16 
L 385.814706 128.16 
L 385.814706 112.944446 
L 380.116176 112.944446 
L 380.116176 128.16 
z
" clip-path="url(#p35d2f91952)" style="fill: none; stroke: #b5bea4; stroke-width: 0.5; stroke-linejoin: miter"/>
   </g>
   <g id="patch_108">
    <path d="M 385.814706 128.16 
L 391.513235 128.16 
L 391.513235 112.944446 
L 385.814706 112.944446 
L 385.814706 128.16 
z
" clip-path="url(#p35d2f91952)" style="fill: none; stroke: #b5bea4; stroke-width: 0.5; stroke-linejoin: miter"/>
   </g>
   <g id="patch_109">
    <path d="M 391.513235 128.16 
L 397.211765 128.16 
L 397.211765 112.944446 
L 391.513235 112.944446 
L 391.513235 128.16 
z
" clip-path="url(#p35d2f91952)" style="fill: none; stroke: #b5bea4; stroke-width: 0.5; stroke-linejoin: miter"/>
   </g>
   <g id="patch_110">
    <path d="M 397.211765 128.16 
L 402.910294 128.16 
L 402.910294 97.728893 
L 397.211765 97.728893 
L 397.211765 128.16 
z
" clip-path="url(#p35d2f91952)" style="fill: none; stroke: #b5bea4; stroke-width: 0.5; stroke-linejoin: miter"/>
   </g>
   <g id="patch_111">
    <path d="M 402.910294 128.16 
L 408.608824 128.16 
L 408.608824 102.800744 
L 402.910294 102.800744 
L 402.910294 128.16 
z
" clip-path="url(#p35d2f91952)" style="fill: none; stroke: #b5bea4; stroke-width: 0.5; stroke-linejoin: miter"/>
   </g>
   <g id="patch_112">
    <path d="M 408.608824 128.16 
L 414.307353 128.16 
L 414.307353 97.728893 
L 408.608824 97.728893 
L 408.608824 128.16 
z
" clip-path="url(#p35d2f91952)" style="fill: none; stroke: #b5bea4; stroke-width: 0.5; stroke-linejoin: miter"/>
   </g>
   <g id="patch_113">
    <path d="M 414.307353 128.16 
L 420.005882 128.16 
L 420.005882 102.800744 
L 414.307353 102.800744 
L 414.307353 128.16 
z
" clip-path="url(#p35d2f91952)" style="fill: none; stroke: #b5bea4; stroke-width: 0.5; stroke-linejoin: miter"/>
   </g>
   <g id="patch_114">
    <path d="M 420.005882 128.16 
L 425.704412 128.16 
L 425.704412 102.800744 
L 420.005882 102.800744 
L 420.005882 128.16 
z
" clip-path="url(#p35d2f91952)" style="fill: none; stroke: #b5bea4; stroke-width: 0.5; stroke-linejoin: miter"/>
   </g>
   <g id="patch_115">
    <path d="M 425.704412 128.16 
L 431.402941 128.16 
L 431.402941 112.944446 
L 425.704412 112.944446 
L 425.704412 128.16 
z
" clip-path="url(#p35d2f91952)" style="fill: none; stroke: #b5bea4; stroke-width: 0.5; stroke-linejoin: miter"/>
   </g>
   <g id="patch_116">
    <path d="M 431.402941 128.16 
L 437.101471 128.16 
L 437.101471 102.800744 
L 431.402941 102.800744 
L 431.402941 128.16 
z
" clip-path="url(#p35d2f91952)" style="fill: none; stroke: #b5bea4; stroke-width: 0.5; stroke-linejoin: miter"/>
   </g>
   <g id="patch_117">
    <path d="M 437.101471 128.16 
L 442.8 128.16 
L 442.8 87.58519 
L 437.101471 87.58519 
L 437.101471 128.16 
z
" clip-path="url(#p35d2f91952)" style="fill: none; stroke: #b5bea4; stroke-width: 0.5; stroke-linejoin: miter"/>
   </g>
   <g id="patch_118">
    <path d="M 442.8 128.16 
L 448.498529 128.16 
L 448.498529 97.728893 
L 442.8 97.728893 
L 442.8 128.16 
z
" clip-path="url(#p35d2f91952)" style="fill: none; stroke: #b5bea4; stroke-width: 0.5; stroke-linejoin: miter"/>
   </g>
   <g id="patch_119">
    <path d="M 448.498529 128.16 
L 454.197059 128.16 
L 454.197059 118.016298 
L 448.498529 118.016298 
L 448.498529 128.16 
z
" clip-path="url(#p35d2f91952)" style="fill: none; stroke: #b5bea4; stroke-width: 0.5; stroke-linejoin: miter"/>
   </g>
   <g id="patch_120">
    <path d="M 454.197059 128.16 
L 459.895588 128.16 
L 459.895588 118.016298 
L 454.197059 118.016298 
L 454.197059 128.16 
z
" clip-path="url(#p35d2f91952)" style="fill: none; stroke: #b5bea4; stroke-width: 0.5; stroke-linejoin: miter"/>
   </g>
   <g id="patch_121">
    <path d="M 459.895588 128.16 
L 465.594118 128.16 
L 465.594118 118.016298 
L 459.895588 118.016298 
L 459.895588 128.16 
z
" clip-path="url(#p35d2f91952)" style="fill: none; stroke: #b5bea4; stroke-width: 0.5; stroke-linejoin: miter"/>
   </g>
   <g id="patch_122">
    <path d="M 465.594118 128.16 
L 471.292647 128.16 
L 471.292647 92.657041 
L 465.594118 92.657041 
L 465.594118 128.16 
z
" clip-path="url(#p35d2f91952)" style="fill: none; stroke: #b5bea4; stroke-width: 0.5; stroke-linejoin: miter"/>
   </g>
   <g id="patch_123">
    <path d="M 471.292647 128.16 
L 476.991176 128.16 
L 476.991176 107.872595 
L 471.292647 107.872595 
L 471.292647 128.16 
z
" clip-path="url(#p35d2f91952)" style="fill: none; stroke: #b5bea4; stroke-width: 0.5; stroke-linejoin: miter"/>
   </g>
   <g id="patch_124">
    <path d="M 476.991176 128.16 
L 482.689706 128.16 
L 482.689706 118.016298 
L 476.991176 118.016298 
L 476.991176 128.16 
z
" clip-path="url(#p35d2f91952)" style="fill: none; stroke: #b5bea4; stroke-width: 0.5; stroke-linejoin: miter"/>
   </g>
   <g id="patch_125">
    <path d="M 482.689706 128.16 
L 488.388235 128.16 
L 488.388235 123.088149 
L 482.689706 123.088149 
L 482.689706 128.16 
z
" clip-path="url(#p35d2f91952)" style="fill: none; stroke: #b5bea4; stroke-width: 0.5; stroke-linejoin: miter"/>
   </g>
   <g id="patch_126">
    <path d="M 488.388235 128.16 
L 494.086765 128.16 
L 494.086765 118.016298 
L 488.388235 118.016298 
L 488.388235 128.16 
z
" clip-path="url(#p35d2f91952)" style="fill: none; stroke: #b5bea4; stroke-width: 0.5; stroke-linejoin: miter"/>
   </g>
   <g id="patch_127">
    <path d="M 494.086765 128.16 
L 499.785294 128.16 
L 499.785294 118.016298 
L 494.086765 118.016298 
L 494.086765 128.16 
z
" clip-path="url(#p35d2f91952)" style="fill: none; stroke: #b5bea4; stroke-width: 0.5; stroke-linejoin: miter"/>
   </g>
   <g id="patch_128">
    <path d="M 499.785294 128.16 
L 505.483824 128.16 
L 505.483824 118.016298 
L 499.785294 118.016298 
L 499.785294 128.16 
z
" clip-path="url(#p35d2f91952)" style="fill: none; stroke: #b5bea4; stroke-width: 0.5; stroke-linejoin: miter"/>
   </g>
   <g id="patch_129">
    <path d="M 505.483824 128.16 
L 511.182353 128.16 
L 511.182353 123.088149 
L 505.483824 123.088149 
L 505.483824 128.16 
z
" clip-path="url(#p35d2f91952)" style="fill: none; stroke: #b5bea4; stroke-width: 0.5; stroke-linejoin: miter"/>
   </g>
   <g id="patch_130">
    <path d="M 511.182353 128.16 
L 516.880882 128.16 
L 516.880882 123.088149 
L 511.182353 123.088149 
L 511.182353 128.16 
z
" clip-path="url(#p35d2f91952)" style="fill: none; stroke: #b5bea4; stroke-width: 0.5; stroke-linejoin: miter"/>
   </g>
   <g id="patch_131">
    <path d="M 516.880882 128.16 
L 522.579412 128.16 
L 522.579412 128.16 
L 516.880882 128.16 
L 516.880882 128.16 
z
" clip-path="url(#p35d2f91952)" style="fill: none; stroke: #b5bea4; stroke-width: 0.5; stroke-linejoin: miter"/>
   </g>
   <g id="patch_132">
    <path d="M 522.579412 128.16 
L 528.277941 128.16 
L 528.277941 118.016298 
L 522.579412 118.016298 
L 522.579412 128.16 
z
" clip-path="url(#p35d2f91952)" style="fill: none; stroke: #b5bea4; stroke-width: 0.5; stroke-linejoin: miter"/>
   </g>
   <g id="patch_133">
    <path d="M 528.277941 128.16 
L 533.976471 128.16 
L 533.976471 123.088149 
L 528.277941 123.088149 
L 528.277941 128.16 
z
" clip-path="url(#p35d2f91952)" style="fill: none; stroke: #b5bea4; stroke-width: 0.5; stroke-linejoin: miter"/>
   </g>
   <g id="matplotlib.axis_3">
    <g id="xtick_4">
     <g id="line2d_10">
      <g>
       <use xlink:href="#m83c334bef7" x="344.398007" y="128.16" style="stroke: #000000; stroke-width: 0.75"/>
      </g>
     </g>
     <g id="text_10">
      <text style="font: 15px &quot;Suisse Int&apos;l&quot;, sans-serif; text-anchor: middle" x="344.398007" y="149.035" transform="rotate(-0 344.398007 149.035)">0</text>
     </g>
    </g>
    <g id="xtick_5">
     <g id="line2d_11">
      <g>
       <use xlink:href="#m83c334bef7" x="405.894729" y="128.16" style="stroke: #000000; stroke-width: 0.75"/>
      </g>
     </g>
     <g id="text_11">
      <text style="font: 15px &quot;Suisse Int&apos;l&quot;, sans-serif; text-anchor: middle" x="405.894729" y="149.035" transform="rotate(-0 405.894729 149.035)">25</text>
     </g>
    </g>
    <g id="xtick_6">
     <g id="line2d_12">
      <g>
       <use xlink:href="#m83c334bef7" x="467.39145" y="128.16" style="stroke: #000000; stroke-width: 0.75"/>
      </g>
     </g>
     <g id="text_12">
      <text style="font: 15px &quot;Suisse Int&apos;l&quot;, sans-serif; text-anchor: middle" x="467.39145" y="149.035" transform="rotate(-0 467.39145 149.035)">50</text>
     </g>
    </g>
    <g id="xtick_7">
     <g id="line2d_13">
      <g>
       <use xlink:href="#m83c334bef7" x="528.888172" y="128.16" style="stroke: #000000; stroke-width: 0.75"/>
      </g>
     </g>
     <g id="text_13">
      <text style="font: 15px &quot;Suisse Int&apos;l&quot;, sans-serif; text-anchor: middle" x="528.888172" y="149.035" transform="rotate(-0 528.888172 149.035)">75</text>
     </g>
    </g>
    <g id="text_14">
     <text style="font: 500 15px &quot;Suisse Int&apos;l&quot;, sans-serif; text-anchor: middle" x="442.8" y="172.535" transform="rotate(-0 442.8 172.535)">Mean_curvilinear_speed</text>
    </g>
   </g>
   <g id="matplotlib.axis_4">
    <g id="ytick_4">
     <g id="line2d_14">
      <g>
       <use xlink:href="#m3eef057d8d" x="344.329412" y="128.16" style="stroke: #000000; stroke-width: 0.75"/>
      </g>
     </g>
     <g id="text_15">
      <text style="font: 15px &quot;Suisse Int&apos;l&quot;, sans-serif; text-anchor: end" x="334.329412" y="133.5975" transform="rotate(-0 334.329412 133.5975)">0</text>
     </g>
    </g>
    <g id="ytick_5">
     <g id="line2d_15">
      <g>
       <use xlink:href="#m3eef057d8d" x="344.329412" y="74.905562" style="stroke: #000000; stroke-width: 0.75"/>
      </g>
     </g>
     <g id="text_16">
      <text style="font: 15px &quot;Suisse Int&apos;l&quot;, sans-serif; text-anchor: end" x="334.329412" y="80.343062" transform="rotate(-0 334.329412 80.343062)">10</text>
     </g>
    </g>
    <g id="ytick_6">
     <g id="line2d_16">
      <g>
       <use xlink:href="#m3eef057d8d" x="344.329412" y="21.651124" style="stroke: #000000; stroke-width: 0.75"/>
      </g>
     </g>
     <g id="text_17">
      <text style="font: 15px &quot;Suisse Int&apos;l&quot;, sans-serif; text-anchor: end" x="334.329412" y="27.088624" transform="rotate(-0 334.329412 27.088624)">20</text>
     </g>
    </g>
   </g>
   <g id="line2d_17">
    <path d="M 351.623529 121.251951 
L 355.288915 119.513494 
L 358.954301 117.538313 
L 362.619687 115.317506 
L 366.285072 112.8478 
L 369.950458 110.143261 
L 375.448537 105.756311 
L 382.779308 99.855789 
L 386.444694 97.227336 
L 389.193733 95.528446 
L 391.942773 94.122823 
L 394.691812 93.045052 
L 397.440851 92.309145 
L 400.189891 91.909414 
L 402.93893 91.82448 
L 405.687969 92.02339 
L 408.437009 92.472364 
L 411.186048 93.1406 
L 413.935087 94.003921 
L 417.600473 95.430597 
L 421.265859 97.150215 
L 424.931244 99.140701 
L 428.59663 101.366431 
L 434.094709 105.008027 
L 442.341827 110.520483 
L 446.007213 112.718602 
L 449.672598 114.633818 
L 452.421638 115.849209 
L 455.170677 116.86126 
L 457.919716 117.66966 
L 460.668756 118.285156 
L 464.334141 118.843074 
L 467.999527 119.168139 
L 474.413952 119.448813 
L 480.828377 119.780979 
L 485.410109 120.256954 
L 489.991842 120.998425 
L 494.573574 121.981298 
L 502.820692 124.059162 
L 509.235117 125.57464 
L 513.816849 126.44674 
L 518.398581 127.102561 
L 522.980313 127.553282 
L 528.478392 127.877706 
L 533.976471 128.042257 
L 533.976471 128.042257 
" clip-path="url(#p35d2f91952)" style="fill: none; stroke: #596f74; stroke-width: 3; stroke-linecap: round"/>
   </g>
   <g id="line2d_18">
    <path d="M 351.623529 119.386548 
L 358.037954 117.414952 
L 363.536033 115.94814 
L 371.783151 114.026554 
L 380.030269 112.06906 
L 386.444694 110.327708 
L 401.106237 106.188388 
L 405.687969 105.185843 
L 410.269701 104.433794 
L 414.851434 103.938742 
L 419.433166 103.677142 
L 424.014898 103.617015 
L 429.512977 103.783321 
L 435.011055 104.21048 
L 439.592787 104.77637 
L 445.090866 105.700717 
L 451.505291 107.052374 
L 459.752409 109.043561 
L 470.748566 111.9264 
L 494.573574 118.341701 
L 501.904345 119.942262 
L 510.151463 121.501538 
L 520.231274 123.178798 
L 532.143778 124.942301 
L 533.976471 125.193666 
L 533.976471 125.193666 
" clip-path="url(#p35d2f91952)" style="fill: none; stroke: #b5bea4; stroke-width: 3; stroke-linecap: round"/>
   </g>
   <g id="line2d_19">
    <path d="M 394.35158 21.544615 
L 443.586874 21.544615 
" clip-path="url(#p35d2f91952)" style="fill: none; stroke: #000000; stroke-width: 2; stroke-linecap: round"/>
   </g>
   <g id="patch_134">
    <path d="M 344.329412 128.16 
L 344.329412 17.28 
" style="fill: none; stroke: #000000; stroke-width: 0.75; stroke-linejoin: miter; stroke-linecap: square"/>
   </g>
   <g id="patch_135">
    <path d="M 344.329412 128.16 
L 541.270588 128.16 
" style="fill: none; stroke: #000000; stroke-width: 0.75; stroke-linejoin: miter; stroke-linecap: square"/>
   </g>
   <g id="text_18">
    <text style="font: 20px &quot;Suisse Int&apos;l&quot;, sans-serif; text-anchor: middle" x="418.969227" y="16.213846" transform="rotate(-0 418.969227 16.213846)">*</text>
   </g>
  </g>
  <g id="axes_3">
   <g id="patch_136">
    <path d="M 580.658824 128.16 
L 777.6 128.16 
L 777.6 17.28 
L 580.658824 17.28 
L 580.658824 128.16 
z
" style="fill: none"/>
   </g>
   <g id="patch_137">
    <path d="M 595.628712 128.16 
L 601.087374 128.16 
L 601.087374 94.270812 
L 595.628712 94.270812 
L 595.628712 128.16 
z
" clip-path="url(#p308f3c8460)" style="fill: none; stroke: #596f74; stroke-width: 0.5; stroke-linejoin: miter"/>
   </g>
   <g id="patch_138">
    <path d="M 601.087374 128.16 
L 606.546035 128.16 
L 606.546035 43.437031 
L 601.087374 43.437031 
L 601.087374 128.16 
z
" clip-path="url(#p308f3c8460)" style="fill: none; stroke: #596f74; stroke-width: 0.5; stroke-linejoin: miter"/>
   </g>
   <g id="patch_139">
    <path d="M 606.546035 128.16 
L 612.004697 128.16 
L 612.004697 34.964734 
L 606.546035 34.964734 
L 606.546035 128.16 
z
" clip-path="url(#p308f3c8460)" style="fill: none; stroke: #596f74; stroke-width: 0.5; stroke-linejoin: miter"/>
   </g>
   <g id="patch_140">
    <path d="M 612.004697 128.16 
L 617.463358 128.16 
L 617.463358 94.270812 
L 612.004697 94.270812 
L 612.004697 128.16 
z
" clip-path="url(#p308f3c8460)" style="fill: none; stroke: #596f74; stroke-width: 0.5; stroke-linejoin: miter"/>
   </g>
   <g id="patch_141">
    <path d="M 617.463358 128.16 
L 622.92202 128.16 
L 622.92202 94.270812 
L 617.463358 94.270812 
L 617.463358 128.16 
z
" clip-path="url(#p308f3c8460)" style="fill: none; stroke: #596f74; stroke-width: 0.5; stroke-linejoin: miter"/>
   </g>
   <g id="patch_142">
    <path d="M 622.92202 128.16 
L 628.380681 128.16 
L 628.380681 102.743109 
L 622.92202 102.743109 
L 622.92202 128.16 
z
" clip-path="url(#p308f3c8460)" style="fill: none; stroke: #596f74; stroke-width: 0.5; stroke-linejoin: miter"/>
   </g>
   <g id="patch_143">
    <path d="M 628.380681 128.16 
L 633.839343 128.16 
L 633.839343 111.215406 
L 628.380681 111.215406 
L 628.380681 128.16 
z
" clip-path="url(#p308f3c8460)" style="fill: none; stroke: #596f74; stroke-width: 0.5; stroke-linejoin: miter"/>
   </g>
   <g id="patch_144">
    <path d="M 633.839343 128.16 
L 639.298005 128.16 
L 639.298005 128.16 
L 633.839343 128.16 
L 633.839343 128.16 
z
" clip-path="url(#p308f3c8460)" style="fill: none; stroke: #596f74; stroke-width: 0.5; stroke-linejoin: miter"/>
   </g>
   <g id="patch_145">
    <path d="M 639.298005 128.16 
L 644.756666 128.16 
L 644.756666 128.16 
L 639.298005 128.16 
L 639.298005 128.16 
z
" clip-path="url(#p308f3c8460)" style="fill: none; stroke: #596f74; stroke-width: 0.5; stroke-linejoin: miter"/>
   </g>
   <g id="patch_146">
    <path d="M 644.756666 128.16 
L 650.215328 128.16 
L 650.215328 119.687703 
L 644.756666 119.687703 
L 644.756666 128.16 
z
" clip-path="url(#p308f3c8460)" style="fill: none; stroke: #596f74; stroke-width: 0.5; stroke-linejoin: miter"/>
   </g>
   <g id="patch_147">
    <path d="M 650.215328 128.16 
L 655.673989 128.16 
L 655.673989 128.16 
L 650.215328 128.16 
L 650.215328 128.16 
z
" clip-path="url(#p308f3c8460)" style="fill: none; stroke: #596f74; stroke-width: 0.5; stroke-linejoin: miter"/>
   </g>
   <g id="patch_148">
    <path d="M 655.673989 128.16 
L 661.132651 128.16 
L 661.132651 128.16 
L 655.673989 128.16 
L 655.673989 128.16 
z
" clip-path="url(#p308f3c8460)" style="fill: none; stroke: #596f74; stroke-width: 0.5; stroke-linejoin: miter"/>
   </g>
   <g id="patch_149">
    <path d="M 661.132651 128.16 
L 666.591312 128.16 
L 666.591312 128.16 
L 661.132651 128.16 
L 661.132651 128.16 
z
" clip-path="url(#p308f3c8460)" style="fill: none; stroke: #596f74; stroke-width: 0.5; stroke-linejoin: miter"/>
   </g>
   <g id="patch_150">
    <path d="M 666.591312 128.16 
L 672.049974 128.16 
L 672.049974 128.16 
L 666.591312 128.16 
L 666.591312 128.16 
z
" clip-path="url(#p308f3c8460)" style="fill: none; stroke: #596f74; stroke-width: 0.5; stroke-linejoin: miter"/>
   </g>
   <g id="patch_151">
    <path d="M 672.049974 128.16 
L 677.508636 128.16 
L 677.508636 128.16 
L 672.049974 128.16 
L 672.049974 128.16 
z
" clip-path="url(#p308f3c8460)" style="fill: none; stroke: #596f74; stroke-width: 0.5; stroke-linejoin: miter"/>
   </g>
   <g id="patch_152">
    <path d="M 677.508636 128.16 
L 682.967297 128.16 
L 682.967297 128.16 
L 677.508636 128.16 
L 677.508636 128.16 
z
" clip-path="url(#p308f3c8460)" style="fill: none; stroke: #596f74; stroke-width: 0.5; stroke-linejoin: miter"/>
   </g>
   <g id="patch_153">
    <path d="M 682.967297 128.16 
L 688.425959 128.16 
L 688.425959 128.16 
L 682.967297 128.16 
L 682.967297 128.16 
z
" clip-path="url(#p308f3c8460)" style="fill: none; stroke: #596f74; stroke-width: 0.5; stroke-linejoin: miter"/>
   </g>
   <g id="patch_154">
    <path d="M 688.425959 128.16 
L 693.88462 128.16 
L 693.88462 128.16 
L 688.425959 128.16 
L 688.425959 128.16 
z
" clip-path="url(#p308f3c8460)" style="fill: none; stroke: #596f74; stroke-width: 0.5; stroke-linejoin: miter"/>
   </g>
   <g id="patch_155">
    <path d="M 693.88462 128.16 
L 699.343282 128.16 
L 699.343282 128.16 
L 693.88462 128.16 
L 693.88462 128.16 
z
" clip-path="url(#p308f3c8460)" style="fill: none; stroke: #596f74; stroke-width: 0.5; stroke-linejoin: miter"/>
   </g>
   <g id="patch_156">
    <path d="M 699.343282 128.16 
L 704.801943 128.16 
L 704.801943 128.16 
L 699.343282 128.16 
L 699.343282 128.16 
z
" clip-path="url(#p308f3c8460)" style="fill: none; stroke: #596f74; stroke-width: 0.5; stroke-linejoin: miter"/>
   </g>
   <g id="patch_157">
    <path d="M 704.801943 128.16 
L 710.260605 128.16 
L 710.260605 128.16 
L 704.801943 128.16 
L 704.801943 128.16 
z
" clip-path="url(#p308f3c8460)" style="fill: none; stroke: #596f74; stroke-width: 0.5; stroke-linejoin: miter"/>
   </g>
   <g id="patch_158">
    <path d="M 710.260605 128.16 
L 715.719267 128.16 
L 715.719267 128.16 
L 710.260605 128.16 
L 710.260605 128.16 
z
" clip-path="url(#p308f3c8460)" style="fill: none; stroke: #596f74; stroke-width: 0.5; stroke-linejoin: miter"/>
   </g>
   <g id="patch_159">
    <path d="M 715.719267 128.16 
L 721.177928 128.16 
L 721.177928 128.16 
L 715.719267 128.16 
L 715.719267 128.16 
z
" clip-path="url(#p308f3c8460)" style="fill: none; stroke: #596f74; stroke-width: 0.5; stroke-linejoin: miter"/>
   </g>
   <g id="patch_160">
    <path d="M 721.177928 128.16 
L 726.63659 128.16 
L 726.63659 119.687703 
L 721.177928 119.687703 
L 721.177928 128.16 
z
" clip-path="url(#p308f3c8460)" style="fill: none; stroke: #596f74; stroke-width: 0.5; stroke-linejoin: miter"/>
   </g>
   <g id="patch_161">
    <path d="M 726.63659 128.16 
L 732.095251 128.16 
L 732.095251 128.16 
L 726.63659 128.16 
L 726.63659 128.16 
z
" clip-path="url(#p308f3c8460)" style="fill: none; stroke: #596f74; stroke-width: 0.5; stroke-linejoin: miter"/>
   </g>
   <g id="patch_162">
    <path d="M 732.095251 128.16 
L 737.553913 128.16 
L 737.553913 128.16 
L 732.095251 128.16 
L 732.095251 128.16 
z
" clip-path="url(#p308f3c8460)" style="fill: none; stroke: #596f74; stroke-width: 0.5; stroke-linejoin: miter"/>
   </g>
   <g id="patch_163">
    <path d="M 737.553913 128.16 
L 743.012574 128.16 
L 743.012574 128.16 
L 737.553913 128.16 
L 737.553913 128.16 
z
" clip-path="url(#p308f3c8460)" style="fill: none; stroke: #596f74; stroke-width: 0.5; stroke-linejoin: miter"/>
   </g>
   <g id="patch_164">
    <path d="M 743.012574 128.16 
L 748.471236 128.16 
L 748.471236 128.16 
L 743.012574 128.16 
L 743.012574 128.16 
z
" clip-path="url(#p308f3c8460)" style="fill: none; stroke: #596f74; stroke-width: 0.5; stroke-linejoin: miter"/>
   </g>
   <g id="patch_165">
    <path d="M 748.471236 128.16 
L 753.929898 128.16 
L 753.929898 128.16 
L 748.471236 128.16 
L 748.471236 128.16 
z
" clip-path="url(#p308f3c8460)" style="fill: none; stroke: #596f74; stroke-width: 0.5; stroke-linejoin: miter"/>
   </g>
   <g id="patch_166">
    <path d="M 753.929898 128.16 
L 759.388559 128.16 
L 759.388559 128.16 
L 753.929898 128.16 
L 753.929898 128.16 
z
" clip-path="url(#p308f3c8460)" style="fill: none; stroke: #596f74; stroke-width: 0.5; stroke-linejoin: miter"/>
   </g>
   <g id="patch_167">
    <path d="M 759.388559 128.16 
L 764.847221 128.16 
L 764.847221 128.16 
L 759.388559 128.16 
L 759.388559 128.16 
z
" clip-path="url(#p308f3c8460)" style="fill: none; stroke: #596f74; stroke-width: 0.5; stroke-linejoin: miter"/>
   </g>
   <g id="patch_168">
    <path d="M 764.847221 128.16 
L 770.305882 128.16 
L 770.305882 128.16 
L 764.847221 128.16 
L 764.847221 128.16 
z
" clip-path="url(#p308f3c8460)" style="fill: none; stroke: #596f74; stroke-width: 0.5; stroke-linejoin: miter"/>
   </g>
   <g id="patch_169">
    <path d="M 595.628712 128.16 
L 601.087374 128.16 
L 601.087374 95.884583 
L 595.628712 95.884583 
L 595.628712 128.16 
z
" clip-path="url(#p308f3c8460)" style="fill: none; stroke: #b5bea4; stroke-width: 0.5; stroke-linejoin: miter"/>
   </g>
   <g id="patch_170">
    <path d="M 601.087374 128.16 
L 606.546035 128.16 
L 606.546035 60.381625 
L 601.087374 60.381625 
L 601.087374 128.16 
z
" clip-path="url(#p308f3c8460)" style="fill: none; stroke: #b5bea4; stroke-width: 0.5; stroke-linejoin: miter"/>
   </g>
   <g id="patch_171">
    <path d="M 606.546035 128.16 
L 612.004697 128.16 
L 612.004697 66.836708 
L 606.546035 66.836708 
L 606.546035 128.16 
z
" clip-path="url(#p308f3c8460)" style="fill: none; stroke: #b5bea4; stroke-width: 0.5; stroke-linejoin: miter"/>
   </g>
   <g id="patch_172">
    <path d="M 612.004697 128.16 
L 617.463358 128.16 
L 617.463358 60.381625 
L 612.004697 60.381625 
L 612.004697 128.16 
z
" clip-path="url(#p308f3c8460)" style="fill: none; stroke: #b5bea4; stroke-width: 0.5; stroke-linejoin: miter"/>
   </g>
   <g id="patch_173">
    <path d="M 617.463358 128.16 
L 622.92202 128.16 
L 622.92202 86.201958 
L 617.463358 86.201958 
L 617.463358 128.16 
z
" clip-path="url(#p308f3c8460)" style="fill: none; stroke: #b5bea4; stroke-width: 0.5; stroke-linejoin: miter"/>
   </g>
   <g id="patch_174">
    <path d="M 622.92202 128.16 
L 628.380681 128.16 
L 628.380681 108.79475 
L 622.92202 108.79475 
L 622.92202 128.16 
z
" clip-path="url(#p308f3c8460)" style="fill: none; stroke: #b5bea4; stroke-width: 0.5; stroke-linejoin: miter"/>
   </g>
   <g id="patch_175">
    <path d="M 628.380681 128.16 
L 633.839343 128.16 
L 633.839343 118.477375 
L 628.380681 118.477375 
L 628.380681 128.16 
z
" clip-path="url(#p308f3c8460)" style="fill: none; stroke: #b5bea4; stroke-width: 0.5; stroke-linejoin: miter"/>
   </g>
   <g id="patch_176">
    <path d="M 633.839343 128.16 
L 639.298005 128.16 
L 639.298005 121.704917 
L 633.839343 121.704917 
L 633.839343 128.16 
z
" clip-path="url(#p308f3c8460)" style="fill: none; stroke: #b5bea4; stroke-width: 0.5; stroke-linejoin: miter"/>
   </g>
   <g id="patch_177">
    <path d="M 639.298005 128.16 
L 644.756666 128.16 
L 644.756666 128.16 
L 639.298005 128.16 
L 639.298005 128.16 
z
" clip-path="url(#p308f3c8460)" style="fill: none; stroke: #b5bea4; stroke-width: 0.5; stroke-linejoin: miter"/>
   </g>
   <g id="patch_178">
    <path d="M 644.756666 128.16 
L 650.215328 128.16 
L 650.215328 124.932458 
L 644.756666 124.932458 
L 644.756666 128.16 
z
" clip-path="url(#p308f3c8460)" style="fill: none; stroke: #b5bea4; stroke-width: 0.5; stroke-linejoin: miter"/>
   </g>
   <g id="patch_179">
    <path d="M 650.215328 128.16 
L 655.673989 128.16 
L 655.673989 124.932458 
L 650.215328 124.932458 
L 650.215328 128.16 
z
" clip-path="url(#p308f3c8460)" style="fill: none; stroke: #b5bea4; stroke-width: 0.5; stroke-linejoin: miter"/>
   </g>
   <g id="patch_180">
    <path d="M 655.673989 128.16 
L 661.132651 128.16 
L 661.132651 128.16 
L 655.673989 128.16 
L 655.673989 128.16 
z
" clip-path="url(#p308f3c8460)" style="fill: none; stroke: #b5bea4; stroke-width: 0.5; stroke-linejoin: miter"/>
   </g>
   <g id="patch_181">
    <path d="M 661.132651 128.16 
L 666.591312 128.16 
L 666.591312 128.16 
L 661.132651 128.16 
L 661.132651 128.16 
z
" clip-path="url(#p308f3c8460)" style="fill: none; stroke: #b5bea4; stroke-width: 0.5; stroke-linejoin: miter"/>
   </g>
   <g id="patch_182">
    <path d="M 666.591312 128.16 
L 672.049974 128.16 
L 672.049974 128.16 
L 666.591312 128.16 
L 666.591312 128.16 
z
" clip-path="url(#p308f3c8460)" style="fill: none; stroke: #b5bea4; stroke-width: 0.5; stroke-linejoin: miter"/>
   </g>
   <g id="patch_183">
    <path d="M 672.049974 128.16 
L 677.508636 128.16 
L 677.508636 128.16 
L 672.049974 128.16 
L 672.049974 128.16 
z
" clip-path="url(#p308f3c8460)" style="fill: none; stroke: #b5bea4; stroke-width: 0.5; stroke-linejoin: miter"/>
   </g>
   <g id="patch_184">
    <path d="M 677.508636 128.16 
L 682.967297 128.16 
L 682.967297 128.16 
L 677.508636 128.16 
L 677.508636 128.16 
z
" clip-path="url(#p308f3c8460)" style="fill: none; stroke: #b5bea4; stroke-width: 0.5; stroke-linejoin: miter"/>
   </g>
   <g id="patch_185">
    <path d="M 682.967297 128.16 
L 688.425959 128.16 
L 688.425959 128.16 
L 682.967297 128.16 
L 682.967297 128.16 
z
" clip-path="url(#p308f3c8460)" style="fill: none; stroke: #b5bea4; stroke-width: 0.5; stroke-linejoin: miter"/>
   </g>
   <g id="patch_186">
    <path d="M 688.425959 128.16 
L 693.88462 128.16 
L 693.88462 124.932458 
L 688.425959 124.932458 
L 688.425959 128.16 
z
" clip-path="url(#p308f3c8460)" style="fill: none; stroke: #b5bea4; stroke-width: 0.5; stroke-linejoin: miter"/>
   </g>
   <g id="patch_187">
    <path d="M 693.88462 128.16 
L 699.343282 128.16 
L 699.343282 128.16 
L 693.88462 128.16 
L 693.88462 128.16 
z
" clip-path="url(#p308f3c8460)" style="fill: none; stroke: #b5bea4; stroke-width: 0.5; stroke-linejoin: miter"/>
   </g>
   <g id="patch_188">
    <path d="M 699.343282 128.16 
L 704.801943 128.16 
L 704.801943 128.16 
L 699.343282 128.16 
L 699.343282 128.16 
z
" clip-path="url(#p308f3c8460)" style="fill: none; stroke: #b5bea4; stroke-width: 0.5; stroke-linejoin: miter"/>
   </g>
   <g id="patch_189">
    <path d="M 704.801943 128.16 
L 710.260605 128.16 
L 710.260605 124.932458 
L 704.801943 124.932458 
L 704.801943 128.16 
z
" clip-path="url(#p308f3c8460)" style="fill: none; stroke: #b5bea4; stroke-width: 0.5; stroke-linejoin: miter"/>
   </g>
   <g id="patch_190">
    <path d="M 710.260605 128.16 
L 715.719267 128.16 
L 715.719267 128.16 
L 710.260605 128.16 
L 710.260605 128.16 
z
" clip-path="url(#p308f3c8460)" style="fill: none; stroke: #b5bea4; stroke-width: 0.5; stroke-linejoin: miter"/>
   </g>
   <g id="patch_191">
    <path d="M 715.719267 128.16 
L 721.177928 128.16 
L 721.177928 121.704917 
L 715.719267 121.704917 
L 715.719267 128.16 
z
" clip-path="url(#p308f3c8460)" style="fill: none; stroke: #b5bea4; stroke-width: 0.5; stroke-linejoin: miter"/>
   </g>
   <g id="patch_192">
    <path d="M 721.177928 128.16 
L 726.63659 128.16 
L 726.63659 128.16 
L 721.177928 128.16 
L 721.177928 128.16 
z
" clip-path="url(#p308f3c8460)" style="fill: none; stroke: #b5bea4; stroke-width: 0.5; stroke-linejoin: miter"/>
   </g>
   <g id="patch_193">
    <path d="M 726.63659 128.16 
L 732.095251 128.16 
L 732.095251 128.16 
L 726.63659 128.16 
L 726.63659 128.16 
z
" clip-path="url(#p308f3c8460)" style="fill: none; stroke: #b5bea4; stroke-width: 0.5; stroke-linejoin: miter"/>
   </g>
   <g id="patch_194">
    <path d="M 732.095251 128.16 
L 737.553913 128.16 
L 737.553913 124.932458 
L 732.095251 124.932458 
L 732.095251 128.16 
z
" clip-path="url(#p308f3c8460)" style="fill: none; stroke: #b5bea4; stroke-width: 0.5; stroke-linejoin: miter"/>
   </g>
   <g id="patch_195">
    <path d="M 737.553913 128.16 
L 743.012574 128.16 
L 743.012574 128.16 
L 737.553913 128.16 
L 737.553913 128.16 
z
" clip-path="url(#p308f3c8460)" style="fill: none; stroke: #b5bea4; stroke-width: 0.5; stroke-linejoin: miter"/>
   </g>
   <g id="patch_196">
    <path d="M 743.012574 128.16 
L 748.471236 128.16 
L 748.471236 124.932458 
L 743.012574 124.932458 
L 743.012574 128.16 
z
" clip-path="url(#p308f3c8460)" style="fill: none; stroke: #b5bea4; stroke-width: 0.5; stroke-linejoin: miter"/>
   </g>
   <g id="patch_197">
    <path d="M 748.471236 128.16 
L 753.929898 128.16 
L 753.929898 124.932458 
L 748.471236 124.932458 
L 748.471236 128.16 
z
" clip-path="url(#p308f3c8460)" style="fill: none; stroke: #b5bea4; stroke-width: 0.5; stroke-linejoin: miter"/>
   </g>
   <g id="patch_198">
    <path d="M 753.929898 128.16 
L 759.388559 128.16 
L 759.388559 128.16 
L 753.929898 128.16 
L 753.929898 128.16 
z
" clip-path="url(#p308f3c8460)" style="fill: none; stroke: #b5bea4; stroke-width: 0.5; stroke-linejoin: miter"/>
   </g>
   <g id="patch_199">
    <path d="M 759.388559 128.16 
L 764.847221 128.16 
L 764.847221 128.16 
L 759.388559 128.16 
L 759.388559 128.16 
z
" clip-path="url(#p308f3c8460)" style="fill: none; stroke: #b5bea4; stroke-width: 0.5; stroke-linejoin: miter"/>
   </g>
   <g id="patch_200">
    <path d="M 764.847221 128.16 
L 770.305882 128.16 
L 770.305882 124.932458 
L 764.847221 124.932458 
L 764.847221 128.16 
z
" clip-path="url(#p308f3c8460)" style="fill: none; stroke: #b5bea4; stroke-width: 0.5; stroke-linejoin: miter"/>
   </g>
   <g id="matplotlib.axis_5">
    <g id="xtick_8">
     <g id="line2d_20">
      <g>
       <use xlink:href="#m83c334bef7" x="584.90522" y="128.16" style="stroke: #000000; stroke-width: 0.75"/>
      </g>
     </g>
     <g id="text_19">
      <text style="font: 15px &quot;Suisse Int&apos;l&quot;, sans-serif; text-anchor: middle" x="584.90522" y="149.035" transform="rotate(-0 584.90522 149.035)">0</text>
     </g>
    </g>
    <g id="xtick_9">
     <g id="line2d_21">
      <g>
       <use xlink:href="#m83c334bef7" x="658.40717" y="128.16" style="stroke: #000000; stroke-width: 0.75"/>
      </g>
     </g>
     <g id="text_20">
      <text style="font: 15px &quot;Suisse Int&apos;l&quot;, sans-serif; text-anchor: middle" x="658.40717" y="149.035" transform="rotate(-0 658.40717 149.035)">10</text>
     </g>
    </g>
    <g id="xtick_10">
     <g id="line2d_22">
      <g>
       <use xlink:href="#m83c334bef7" x="731.90912" y="128.16" style="stroke: #000000; stroke-width: 0.75"/>
      </g>
     </g>
     <g id="text_21">
      <text style="font: 15px &quot;Suisse Int&apos;l&quot;, sans-serif; text-anchor: middle" x="731.90912" y="149.035" transform="rotate(-0 731.90912 149.035)">20</text>
     </g>
    </g>
    <g id="text_22">
     <text style="font: 500 15px &quot;Suisse Int&apos;l&quot;, sans-serif; text-anchor: middle" x="679.129412" y="172.535" transform="rotate(-0 679.129412 172.535)">Mean_angular_speed</text>
    </g>
   </g>
   <g id="matplotlib.axis_6">
    <g id="ytick_7">
     <g id="line2d_23">
      <g>
       <use xlink:href="#m3eef057d8d" x="580.658824" y="128.16" style="stroke: #000000; stroke-width: 0.75"/>
      </g>
     </g>
     <g id="text_23">
      <text style="font: 15px &quot;Suisse Int&apos;l&quot;, sans-serif; text-anchor: end" x="570.658824" y="133.5975" transform="rotate(-0 570.658824 133.5975)">0</text>
     </g>
    </g>
    <g id="ytick_8">
     <g id="line2d_24">
      <g>
       <use xlink:href="#m3eef057d8d" x="580.658824" y="60.381625" style="stroke: #000000; stroke-width: 0.75"/>
      </g>
     </g>
     <g id="text_24">
      <text style="font: 15px &quot;Suisse Int&apos;l&quot;, sans-serif; text-anchor: end" x="570.658824" y="65.819125" transform="rotate(-0 570.658824 65.819125)">20</text>
     </g>
    </g>
   </g>
   <g id="line2d_25">
    <path d="M 595.628712 99.644926 
L 600.017586 87.115021 
L 601.773135 82.644633 
L 603.528684 78.857125 
L 604.406459 77.287013 
L 605.284234 75.962111 
L 606.162009 74.899322 
L 607.039783 74.110864 
L 607.917558 73.603991 
L 608.795333 73.380875 
L 609.673108 73.438648 
L 610.550882 73.769605 
L 611.428657 74.361558 
L 612.306432 75.198314 
L 613.184206 76.26027 
L 614.939756 78.96839 
L 616.695305 82.287407 
L 619.32863 87.96013 
L 624.595278 99.655115 
L 627.228602 104.908151 
L 629.861926 109.530959 
L 631.617476 112.240664 
L 633.373025 114.652412 
L 635.128575 116.771487 
L 636.884124 118.606197 
L 638.639674 120.168311 
L 640.395223 121.474358 
L 642.150772 122.546731 
L 643.906322 123.413796 
L 646.539646 124.402604 
L 649.17297 125.122865 
L 652.684069 125.845908 
L 658.828492 126.844975 
L 664.095141 127.502491 
L 669.361789 127.904978 
L 675.506212 128.100376 
L 686.917283 128.157265 
L 700.961679 128.051272 
L 706.228327 127.821801 
L 711.494976 127.370333 
L 722.028272 126.339073 
L 725.539371 126.295693 
L 729.05047 126.479727 
L 734.317119 127.027941 
L 741.339316 127.732024 
L 746.605965 128.012342 
L 753.628163 128.13713 
L 770.305882 128.159965 
L 770.305882 128.159965 
" clip-path="url(#p308f3c8460)" style="fill: none; stroke: #596f74; stroke-width: 3; stroke-linecap: round"/>
   </g>
   <g id="line2d_26">
    <path d="M 595.628712 102.553389 
L 599.139811 96.790676 
L 601.773135 92.892451 
L 603.528684 90.649578 
L 605.284234 88.778217 
L 607.039783 87.340212 
L 608.795333 86.382405 
L 609.673108 86.093454 
L 610.550882 85.934053 
L 611.428657 85.904863 
L 612.306432 86.005324 
L 613.184206 86.23367 
L 614.061981 86.586968 
L 615.817531 87.651169 
L 617.57308 89.153498 
L 619.32863 91.035766 
L 621.084179 93.229557 
L 623.717503 96.94016 
L 633.373025 111.181932 
L 636.006349 114.434349 
L 638.639674 117.235377 
L 641.272998 119.57411 
L 643.906322 121.476129 
L 646.539646 122.990518 
L 649.17297 124.177613 
L 651.806294 125.099031 
L 654.439619 125.810731 
L 657.950717 126.512264 
L 662.339591 127.100247 
L 666.728465 127.455326 
L 671.995113 127.649802 
L 678.139536 127.638412 
L 686.917283 127.363548 
L 714.1283 126.369328 
L 722.906047 126.327645 
L 746.605965 126.594827 
L 758.894811 126.944405 
L 770.305882 127.345609 
L 770.305882 127.345609 
" clip-path="url(#p308f3c8460)" style="fill: none; stroke: #b5bea4; stroke-width: 3; stroke-linecap: round"/>
   </g>
   <g id="line2d_27">
    <path d="M 587.952941 21.544615 
L 635.115777 21.544615 
" clip-path="url(#p308f3c8460)" style="fill: none; stroke: #000000; stroke-width: 2; stroke-linecap: round"/>
   </g>
   <g id="patch_201">
    <path d="M 580.658824 128.16 
L 580.658824 17.28 
" style="fill: none; stroke: #000000; stroke-width: 0.75; stroke-linejoin: miter; stroke-linecap: square"/>
   </g>
   <g id="patch_202">
    <path d="M 580.658824 128.16 
L 777.6 128.16 
" style="fill: none; stroke: #000000; stroke-width: 0.75; stroke-linejoin: miter; stroke-linecap: square"/>
   </g>
   <g id="text_25">
    <text style="font: 12px &quot;Suisse Int&apos;l&quot;, sans-serif; text-anchor: middle" x="611.534359" y="16.213846" transform="rotate(-0 611.534359 16.213846)">NS</text>
   </g>
   <g id="legend_1">
    <g id="text_26">
     <text style="font: 600 16px &quot;Suisse Int&apos;l&quot;, sans-serif; text-anchor: start" x="691.820735" y="28.88" transform="rotate(-0 691.820735 28.88)">Position_in_tube</text>
    </g>
    <g id="line2d_28">
     <path d="M 691.820735 39.18 
L 760.195735 39.18 
" style="fill: none; stroke: #bab0a8; stroke-width: 1.5; stroke-linecap: round"/>
    </g>
    <g id="patch_203">
     <path d="M 691.820735 62.055 
L 706.820735 62.055 
L 706.820735 46.68 
L 691.820735 46.68 
L 691.820735 62.055 
z
" style="fill: none"/>
    </g>
    <g id="text_27">
     <text style="font: 15px &quot;Suisse Int&apos;l&quot;, sans-serif; text-anchor: start" x="712.820735" y="59.43" transform="rotate(-0 712.820735 59.43)">Top</text>
    </g>
    <g id="patch_204">
     <path d="M 691.820735 84.93 
L 706.820735 84.93 
L 706.820735 69.555 
L 691.820735 69.555 
L 691.820735 84.93 
z
" style="fill: none"/>
    </g>
    <g id="text_28">
     <text style="font: 15px &quot;Suisse Int&apos;l&quot;, sans-serif; text-anchor: start" x="712.820735" y="82.305" transform="rotate(-0 712.820735 82.305)">Middle</text>
    </g>
   </g>
  </g>
 </g>
 <defs>
  <clipPath id="p7e44a098bf">
   <rect x="108" y="17.28" width="196.941176" height="110.88"/>
  </clipPath>
  <clipPath id="p35d2f91952">
   <rect x="344.329412" y="17.28" width="196.941176" height="110.88"/>
  </clipPath>
  <clipPath id="p308f3c8460">
   <rect x="580.658824" y="17.28" width="196.941176" height="110.88"/>
  </clipPath>
 </defs>
</svg>
