<?xml version="1.0" encoding="utf-8" standalone="no"?>
<!DOCTYPE svg PUBLIC "-//W3C//DTD SVG 1.1//EN"
  "http://www.w3.org/Graphics/SVG/1.1/DTD/svg11.dtd">
<svg xmlns:xlink="http://www.w3.org/1999/xlink" width="953.659393pt" height="378.799603pt" viewBox="0 0 953.659393 378.799603" xmlns="http://www.w3.org/2000/svg" version="1.1">
 <metadata>
  <rdf:RDF xmlns:dc="http://purl.org/dc/elements/1.1/" xmlns:cc="http://creativecommons.org/ns#" xmlns:rdf="http://www.w3.org/1999/02/22-rdf-syntax-ns#">
   <cc:Work>
    <dc:type rdf:resource="http://purl.org/dc/dcmitype/StillImage"/>
    <dc:date>2024-07-31T16:23:34.557116</dc:date>
    <dc:format>image/svg+xml</dc:format>
    <dc:creator>
     <cc:Agent>
      <dc:title>Matplotlib v3.8.4, https://matplotlib.org/</dc:title>
     </cc:Agent>
    </dc:creator>
   </cc:Work>
  </rdf:RDF>
 </metadata>
 <defs>
  <style type="text/css">*{stroke-linejoin: round; stroke-linecap: butt}</style>
 </defs>
 <g id="figure_1">
  <g id="patch_1">
   <path d="M 0 378.799603 
L 953.659393 378.799603 
L 953.659393 0 
L 0 0 
L 0 378.799603 
z
" style="fill: none"/>
  </g>
  <g id="axes_1">
   <g id="patch_2">
    <path d="M 81.598281 311.799603 
L 301.500718 311.799603 
L 301.500718 87.33837 
L 81.598281 87.33837 
L 81.598281 311.799603 
z
" style="fill: none"/>
   </g>
   <g id="PolyCollection_1">
    <defs>
     <path id="m3cdc92bee4" d="M 180.237646 -80.201543 
L 179.199464 -80.201543 
L 178.893872 -81.083878 
L 178.518327 -81.966212 
L 178.062103 -82.848547 
L 177.513793 -83.730881 
L 176.861312 -84.613216 
L 176.091843 -85.49555 
L 175.191731 -86.377885 
L 174.146342 -87.26022 
L 172.939914 -88.142554 
L 171.555439 -89.024889 
L 169.974665 -89.907223 
L 168.178259 -90.789558 
L 166.14624 -91.671892 
L 163.858719 -92.554227 
L 161.296996 -93.436562 
L 158.445019 -94.318896 
L 155.291152 -95.201231 
L 151.830167 -96.083565 
L 148.065311 -96.9659 
L 144.010268 -97.848234 
L 139.690819 -98.730569 
L 135.145983 -99.612904 
L 130.42845 -100.495238 
L 125.604173 -101.377573 
L 120.751013 -102.259907 
L 115.956442 -103.142242 
L 111.314376 -104.024577 
L 106.921282 -104.906911 
L 102.871796 -105.789246 
L 99.254133 -106.67158 
L 96.145605 -107.553915 
L 93.608567 -108.436249 
L 91.687107 -109.318584 
L 90.404729 -110.200919 
L 89.763222 -111.083253 
L 89.742816 -111.965588 
L 90.303628 -112.847922 
L 91.388297 -113.730257 
L 92.925623 -114.612591 
L 94.83494 -115.494926 
L 97.0309 -116.377261 
L 99.428329 -117.259595 
L 101.946788 -118.14193 
L 104.514546 -119.024264 
L 107.071697 -119.906599 
L 109.572229 -120.788933 
L 111.984965 -121.671268 
L 114.293366 -122.553603 
L 116.494281 -123.435937 
L 118.59582 -124.318272 
L 120.614569 -125.200606 
L 122.572442 -126.082941 
L 124.493441 -126.965275 
L 126.400629 -127.84761 
L 128.313562 -128.729945 
L 130.246381 -129.612279 
L 132.206693 -130.494614 
L 134.195266 -131.376948 
L 136.206507 -132.259283 
L 138.229575 -133.141617 
L 140.249955 -134.023952 
L 142.251246 -134.906287 
L 144.216934 -135.788621 
L 146.131946 -136.670956 
L 147.983811 -137.55329 
L 149.763343 -138.435625 
L 151.46483 -139.317959 
L 153.085797 -140.200294 
L 154.626439 -141.082629 
L 156.088899 -141.964963 
L 157.476511 -142.847298 
L 158.79317 -143.729632 
L 160.042894 -144.611967 
L 161.229619 -145.494301 
L 162.357208 -146.376636 
L 163.42961 -147.258971 
L 164.451078 -148.141305 
L 165.426342 -149.02364 
L 166.360678 -149.905974 
L 167.259798 -150.788309 
L 168.12958 -151.670643 
L 168.975643 -152.552978 
L 169.802856 -153.435313 
L 170.614837 -154.317647 
L 171.413551 -155.199982 
L 172.199055 -156.082316 
L 172.969451 -156.964651 
L 173.721051 -157.846986 
L 174.448736 -158.72932 
L 175.146467 -159.611655 
L 175.807869 -160.493989 
L 176.426838 -161.376324 
L 176.99808 -162.258658 
L 177.517544 -163.140993 
L 177.982705 -164.023328 
L 178.392694 -164.905662 
L 178.748261 -165.787997 
L 179.051626 -166.670331 
L 179.306217 -167.552666 
L 180.237646 -167.552666 
L 180.237646 -167.552666 
L 180.237646 -166.670331 
L 180.237646 -165.787997 
L 180.237646 -164.905662 
L 180.237646 -164.023328 
L 180.237646 -163.140993 
L 180.237646 -162.258658 
L 180.237646 -161.376324 
L 180.237646 -160.493989 
L 180.237646 -159.611655 
L 180.237646 -158.72932 
L 180.237646 -157.846986 
L 180.237646 -156.964651 
L 180.237646 -156.082316 
L 180.237646 -155.199982 
L 180.237646 -154.317647 
L 180.237646 -153.435313 
L 180.237646 -152.552978 
L 180.237646 -151.670643 
L 180.237646 -150.788309 
L 180.237646 -149.905974 
L 180.237646 -149.02364 
L 180.237646 -148.141305 
L 180.237646 -147.258971 
L 180.237646 -146.376636 
L 180.237646 -145.494301 
L 180.237646 -144.611967 
L 180.237646 -143.729632 
L 180.237646 -142.847298 
L 180.237646 -141.964963 
L 180.237646 -141.082629 
L 180.237646 -140.200294 
L 180.237646 -139.317959 
L 180.237646 -138.435625 
L 180.237646 -137.55329 
L 180.237646 -136.670956 
L 180.237646 -135.788621 
L 180.237646 -134.906287 
L 180.237646 -134.023952 
L 180.237646 -133.141617 
L 180.237646 -132.259283 
L 180.237646 -131.376948 
L 180.237646 -130.494614 
L 180.237646 -129.612279 
L 180.237646 -128.729945 
L 180.237646 -127.84761 
L 180.237646 -126.965275 
L 180.237646 -126.082941 
L 180.237646 -125.200606 
L 180.237646 -124.318272 
L 180.237646 -123.435937 
L 180.237646 -122.553603 
L 180.237646 -121.671268 
L 180.237646 -120.788933 
L 180.237646 -119.906599 
L 180.237646 -119.024264 
L 180.237646 -118.14193 
L 180.237646 -117.259595 
L 180.237646 -116.377261 
L 180.237646 -115.494926 
L 180.237646 -114.612591 
L 180.237646 -113.730257 
L 180.237646 -112.847922 
L 180.237646 -111.965588 
L 180.237646 -111.083253 
L 180.237646 -110.200919 
L 180.237646 -109.318584 
L 180.237646 -108.436249 
L 180.237646 -107.553915 
L 180.237646 -106.67158 
L 180.237646 -105.789246 
L 180.237646 -104.906911 
L 180.237646 -104.024577 
L 180.237646 -103.142242 
L 180.237646 -102.259907 
L 180.237646 -101.377573 
L 180.237646 -100.495238 
L 180.237646 -99.612904 
L 180.237646 -98.730569 
L 180.237646 -97.848234 
L 180.237646 -96.9659 
L 180.237646 -96.083565 
L 180.237646 -95.201231 
L 180.237646 -94.318896 
L 180.237646 -93.436562 
L 180.237646 -92.554227 
L 180.237646 -91.671892 
L 180.237646 -90.789558 
L 180.237646 -89.907223 
L 180.237646 -89.024889 
L 180.237646 -88.142554 
L 180.237646 -87.26022 
L 180.237646 -86.377885 
L 180.237646 -85.49555 
L 180.237646 -84.613216 
L 180.237646 -83.730881 
L 180.237646 -82.848547 
L 180.237646 -81.966212 
L 180.237646 -81.083878 
L 180.237646 -80.201543 
z
"/>
    </defs>
    <g clip-path="url(#pb1e8092165)">
     <use xlink:href="#m3cdc92bee4" x="0" y="378.799603" style="fill: #81b2d5"/>
    </g>
   </g>
   <g id="PolyCollection_2">
    <defs>
     <path id="mf27279f70c" d="M 205.855964 -75.313379 
L 202.861353 -75.313379 
L 202.861353 -77.025988 
L 202.861353 -78.738596 
L 202.861353 -80.451205 
L 202.861353 -82.163814 
L 202.861353 -83.876423 
L 202.861353 -85.589031 
L 202.861353 -87.30164 
L 202.861353 -89.014249 
L 202.861353 -90.726858 
L 202.861353 -92.439466 
L 202.861353 -94.152075 
L 202.861353 -95.864684 
L 202.861353 -97.577292 
L 202.861353 -99.289901 
L 202.861353 -101.00251 
L 202.861353 -102.715119 
L 202.861353 -104.427727 
L 202.861353 -106.140336 
L 202.861353 -107.852945 
L 202.861353 -109.565554 
L 202.861353 -111.278162 
L 202.861353 -112.990771 
L 202.861353 -114.70338 
L 202.861353 -116.415988 
L 202.861353 -118.128597 
L 202.861353 -119.841206 
L 202.861353 -121.553815 
L 202.861353 -123.266423 
L 202.861353 -124.979032 
L 202.861353 -126.691641 
L 202.861353 -128.404249 
L 202.861353 -130.116858 
L 202.861353 -131.829467 
L 202.861353 -133.542076 
L 202.861353 -135.254684 
L 202.861353 -136.967293 
L 202.861353 -138.679902 
L 202.861353 -140.392511 
L 202.861353 -142.105119 
L 202.861353 -143.817728 
L 202.861353 -145.530337 
L 202.861353 -147.242945 
L 202.861353 -148.955554 
L 202.861353 -150.668163 
L 202.861353 -152.380772 
L 202.861353 -154.09338 
L 202.861353 -155.805989 
L 202.861353 -157.518598 
L 202.861353 -159.231207 
L 202.861353 -160.943815 
L 202.861353 -162.656424 
L 202.861353 -164.369033 
L 202.861353 -166.081641 
L 202.861353 -167.79425 
L 202.861353 -169.506859 
L 202.861353 -171.219468 
L 202.861353 -172.932076 
L 202.861353 -174.644685 
L 202.861353 -176.357294 
L 202.861353 -178.069903 
L 202.861353 -179.782511 
L 202.861353 -181.49512 
L 202.861353 -183.207729 
L 202.861353 -184.920337 
L 202.861353 -186.632946 
L 202.861353 -188.345555 
L 202.861353 -190.058164 
L 202.861353 -191.770772 
L 202.861353 -193.483381 
L 202.861353 -195.19599 
L 202.861353 -196.908599 
L 202.861353 -198.621207 
L 202.861353 -200.333816 
L 202.861353 -202.046425 
L 202.861353 -203.759033 
L 202.861353 -205.471642 
L 202.861353 -207.184251 
L 202.861353 -208.89686 
L 202.861353 -210.609468 
L 202.861353 -212.322077 
L 202.861353 -214.034686 
L 202.861353 -215.747294 
L 202.861353 -217.459903 
L 202.861353 -219.172512 
L 202.861353 -220.885121 
L 202.861353 -222.597729 
L 202.861353 -224.310338 
L 202.861353 -226.022947 
L 202.861353 -227.735556 
L 202.861353 -229.448164 
L 202.861353 -231.160773 
L 202.861353 -232.873382 
L 202.861353 -234.58599 
L 202.861353 -236.298599 
L 202.861353 -238.011208 
L 202.861353 -239.723817 
L 202.861353 -241.436425 
L 202.861353 -243.149034 
L 202.861353 -244.861643 
L 203.108981 -244.861643 
L 203.108981 -244.861643 
L 203.209976 -243.149034 
L 203.33668 -241.436425 
L 203.488993 -239.723817 
L 203.663977 -238.011208 
L 203.855391 -236.298599 
L 204.053676 -234.58599 
L 204.246521 -232.873382 
L 204.420056 -231.160773 
L 204.560544 -229.448164 
L 204.656335 -227.735556 
L 204.699773 -226.022947 
L 204.688697 -224.310338 
L 204.627292 -222.597729 
L 204.526146 -220.885121 
L 204.401553 -219.172512 
L 204.274245 -217.459903 
L 204.167779 -215.747294 
L 204.106832 -214.034686 
L 204.115538 -212.322077 
L 204.215939 -210.609468 
L 204.426479 -208.89686 
L 204.760509 -207.184251 
L 205.224766 -205.471642 
L 205.817939 -203.759033 
L 206.529527 -202.046425 
L 207.339305 -200.333816 
L 208.217684 -198.621207 
L 209.127185 -196.908599 
L 210.025036 -195.19599 
L 210.866721 -193.483381 
L 211.610102 -191.770772 
L 212.219652 -190.058164 
L 212.670285 -188.345555 
L 212.950379 -186.632946 
L 213.063691 -184.920337 
L 213.030012 -183.207729 
L 212.884561 -181.49512 
L 212.676194 -179.782511 
L 212.464584 -178.069903 
L 212.316571 -176.357294 
L 212.301867 -174.644685 
L 212.488341 -172.932076 
L 212.937094 -171.219468 
L 213.6976 -169.506859 
L 214.803256 -167.79425 
L 216.267776 -166.081641 
L 218.08295 -164.369033 
L 220.218316 -162.656424 
L 222.623121 -160.943815 
L 225.230727 -159.231207 
L 227.965192 -157.518598 
L 230.749335 -155.805989 
L 233.51328 -154.09338 
L 236.202335 -152.380772 
L 238.783157 -150.668163 
L 241.247467 -148.955554 
L 243.61296 -147.242945 
L 245.921375 -145.530337 
L 248.233904 -143.817728 
L 250.624186 -142.105119 
L 253.169186 -140.392511 
L 255.938402 -138.679902 
L 258.982179 -136.967293 
L 262.320441 -135.254684 
L 265.933628 -133.542076 
L 269.757972 -131.829467 
L 273.686983 -130.116858 
L 277.580221 -128.404249 
L 281.279012 -126.691641 
L 284.627101 -124.979032 
L 287.492679 -123.266423 
L 289.78737 -121.553815 
L 291.477799 -119.841206 
L 292.586597 -118.128597 
L 293.1818 -116.415988 
L 293.356184 -114.70338 
L 293.200558 -112.990771 
L 292.776713 -111.278162 
L 292.096197 -109.565554 
L 291.110134 -107.852945 
L 289.713102 -106.140336 
L 287.76104 -104.427727 
L 285.100048 -102.715119 
L 281.600388 -101.00251 
L 277.188721 -99.289901 
L 271.871861 -97.577292 
L 265.747084 -95.864684 
L 258.996922 -94.152075 
L 251.869607 -92.439466 
L 244.649256 -90.726858 
L 237.621678 -89.014249 
L 231.04214 -87.30164 
L 225.110411 -85.589031 
L 219.956367 -83.876423 
L 215.637018 -82.163814 
L 212.143508 -80.451205 
L 209.415132 -78.738596 
L 207.356714 -77.025988 
L 205.855964 -75.313379 
z
"/>
    </defs>
    <g clip-path="url(#pb1e8092165)">
     <use xlink:href="#mf27279f70c" x="0" y="378.799603" style="fill: #477aa7"/>
    </g>
   </g>
   <g id="matplotlib.axis_1">
    <g id="xtick_1">
     <g id="line2d_1">
      <defs>
       <path id="meeb57ec388" d="M 0 0 
L 0 5 
" style="stroke: #000000; stroke-width: 0.75"/>
      </defs>
      <g>
       <use xlink:href="#meeb57ec388" x="134.990231" y="311.799603" style="stroke: #000000; stroke-width: 0.75"/>
      </g>
     </g>
     <g id="text_1">
      <text style="font: 15px &quot;Suisse Int&apos;l&quot;, sans-serif; text-anchor: middle" x="134.990231" y="332.674603" transform="rotate(-0 134.990231 332.674603)">4</text>
     </g>
    </g>
    <g id="xtick_2">
     <g id="line2d_2">
      <g>
       <use xlink:href="#meeb57ec388" x="248.108769" y="311.799603" style="stroke: #000000; stroke-width: 0.75"/>
      </g>
     </g>
     <g id="text_2">
      <text style="font: 15px &quot;Suisse Int&apos;l&quot;, sans-serif; text-anchor: middle" x="248.108769" y="332.674603" transform="rotate(-0 248.108769 332.674603)">21</text>
     </g>
    </g>
    <g id="text_3">
     <text style="font: 500 15px &quot;Suisse Int&apos;l&quot;, sans-serif; text-anchor: middle" x="191.5495" y="356.174603" transform="rotate(-0 191.5495 356.174603)">Time in water</text>
    </g>
   </g>
   <g id="matplotlib.axis_2">
    <g id="ytick_1">
     <g id="line2d_3">
      <defs>
       <path id="m0fc072ec5d" d="M 0 0 
L -5 0 
" style="stroke: #000000; stroke-width: 0.75"/>
      </defs>
      <g>
       <use xlink:href="#m0fc072ec5d" x="81.598281" y="284.677434" style="stroke: #000000; stroke-width: 0.75"/>
      </g>
     </g>
     <g id="text_4">
      <text style="font: 14.5px &quot;Suisse Int&apos;l Mono&quot;; text-anchor: end" x="71.598281" y="289.933684" transform="rotate(-0 71.598281 289.933684)">0.0</text>
     </g>
    </g>
    <g id="ytick_2">
     <g id="line2d_4">
      <g>
       <use xlink:href="#m0fc072ec5d" x="81.598281" y="229.987142" style="stroke: #000000; stroke-width: 0.75"/>
      </g>
     </g>
     <g id="text_5">
      <text style="font: 14.5px &quot;Suisse Int&apos;l Mono&quot;; text-anchor: end" x="71.598281" y="235.243392" transform="rotate(-0 71.598281 235.243392)">0.2</text>
     </g>
    </g>
    <g id="ytick_3">
     <g id="line2d_5">
      <g>
       <use xlink:href="#m0fc072ec5d" x="81.598281" y="175.296851" style="stroke: #000000; stroke-width: 0.75"/>
      </g>
     </g>
     <g id="text_6">
      <text style="font: 14.5px &quot;Suisse Int&apos;l Mono&quot;; text-anchor: end" x="71.598281" y="180.553101" transform="rotate(-0 71.598281 180.553101)">0.4</text>
     </g>
    </g>
    <g id="ytick_4">
     <g id="line2d_6">
      <g>
       <use xlink:href="#m0fc072ec5d" x="81.598281" y="120.606559" style="stroke: #000000; stroke-width: 0.75"/>
      </g>
     </g>
     <g id="text_7">
      <text style="font: 14.5px &quot;Suisse Int&apos;l Mono&quot;; text-anchor: end" x="71.598281" y="125.862809" transform="rotate(-0 71.598281 125.862809)">0.6</text>
     </g>
    </g>
    <g id="text_8">
     <text style="font: 500 15px &quot;Suisse Int&apos;l&quot;, sans-serif; text-anchor: middle" x="30.875" y="199.568987" transform="rotate(-90 30.875 199.568987)">Confinement ratio</text>
    </g>
   </g>
   <g id="line2d_7">
    <path d="M 177.737646 284.144853 
L 177.737646 225.700145 
" clip-path="url(#pb1e8092165)" style="fill: none; stroke: #474747; stroke-width: 1.666667; stroke-linecap: round"/>
   </g>
   <g id="line2d_8">
    <path d="M 177.737646 270.335391 
L 177.737646 251.695676 
" clip-path="url(#pb1e8092165)" style="fill: none; stroke: #474747; stroke-width: 5; stroke-linecap: round"/>
   </g>
   <g id="line2d_9">
    <path d="M 177.737646 265.129597 
" clip-path="url(#pb1e8092165)" style="fill: none; stroke: #474747; stroke-width: 2; stroke-linecap: round"/>
    <defs>
     <path id="m5b8078bd88" d="M 2.083333 0 
L -2.083333 -0 
" style="stroke: #ffffff"/>
    </defs>
    <g clip-path="url(#pb1e8092165)">
     <use xlink:href="#m5b8078bd88" x="177.737646" y="265.129597" style="fill: #ffffff; stroke: #ffffff"/>
    </g>
   </g>
   <g id="line2d_10">
    <path d="M 205.361353 284.35563 
L 205.361353 195.251355 
" clip-path="url(#pb1e8092165)" style="fill: none; stroke: #474747; stroke-width: 1.666667; stroke-linecap: round"/>
   </g>
   <g id="line2d_11">
    <path d="M 205.361353 273.138544 
L 205.361353 241.835727 
" clip-path="url(#pb1e8092165)" style="fill: none; stroke: #474747; stroke-width: 5; stroke-linecap: round"/>
   </g>
   <g id="line2d_12">
    <path d="M 205.361353 258.867116 
" clip-path="url(#pb1e8092165)" style="fill: none; stroke: #474747; stroke-width: 2; stroke-linecap: round"/>
    <g clip-path="url(#pb1e8092165)">
     <use xlink:href="#m5b8078bd88" x="205.361353" y="258.867116" style="fill: #ffffff; stroke: #ffffff"/>
    </g>
   </g>
   <g id="line2d_13">
    <path d="M 168.925792 95.651749 
L 214.173207 95.651749 
" clip-path="url(#pb1e8092165)" style="fill: none; stroke: #000000; stroke-width: 2; stroke-linecap: round"/>
   </g>
   <g id="patch_3">
    <path d="M 81.598281 311.799603 
L 81.598281 87.33837 
" style="fill: none; stroke: #000000; stroke-width: 0.75; stroke-linejoin: miter; stroke-linecap: square"/>
   </g>
   <g id="patch_4">
    <path d="M 81.598281 311.799603 
L 301.500718 311.799603 
" style="fill: none; stroke: #000000; stroke-width: 0.75; stroke-linejoin: miter; stroke-linecap: square"/>
   </g>
   <g id="text_9">
    <text style="font: 16px &quot;Suisse Int&apos;l&quot;, sans-serif; text-anchor: middle" x="191.5495" y="86.200465" transform="rotate(-0 191.5495 86.200465)">ns</text>
   </g>
  </g>
  <g id="axes_2">
   <g id="patch_5">
    <path d="M 369.232331 311.799603 
L 589.134768 311.799603 
L 589.134768 87.33837 
L 369.232331 87.33837 
L 369.232331 311.799603 
z
" style="fill: none"/>
   </g>
   <g id="PolyCollection_3">
    <defs>
     <path id="mb171ebb791" d="M 467.871696 -75.313379 
L 464.664998 -75.313379 
L 463.821082 -77.024555 
L 462.813201 -78.735731 
L 461.626046 -80.446907 
L 460.247206 -82.158083 
L 458.668355 -83.869258 
L 456.886433 -85.580434 
L 454.904706 -87.29161 
L 452.733611 -89.002786 
L 450.391275 -90.713962 
L 447.903619 -92.425138 
L 445.303975 -94.136314 
L 442.632166 -95.84749 
L 439.933066 -97.558665 
L 437.254679 -99.269841 
L 434.645831 -100.981017 
L 432.153637 -102.692193 
L 429.820884 -104.403369 
L 427.68355 -106.114545 
L 425.768653 -107.825721 
L 424.09258 -109.536897 
L 422.66008 -111.248073 
L 421.463971 -112.959248 
L 420.485622 -114.670424 
L 419.696151 -116.3816 
L 419.058263 -118.092776 
L 418.52856 -119.803952 
L 418.060157 -121.515128 
L 417.605388 -123.226304 
L 417.118402 -124.93748 
L 416.55748 -126.648655 
L 415.886917 -128.359831 
L 415.07838 -130.071007 
L 414.111695 -131.782183 
L 412.975067 -133.493359 
L 411.664791 -135.204535 
L 410.184545 -136.915711 
L 408.54436 -138.626887 
L 406.759426 -140.338062 
L 404.848825 -142.049238 
L 402.834331 -143.760414 
L 400.739365 -145.47159 
L 398.588178 -147.182766 
L 396.405308 -148.893942 
L 394.215332 -150.605118 
L 392.04288 -152.316294 
L 389.912892 -154.02747 
L 387.851034 -155.738645 
L 385.88419 -157.449821 
L 384.040923 -159.160997 
L 382.351818 -160.872173 
L 380.849583 -162.583349 
L 379.568835 -164.294525 
L 378.54553 -166.005701 
L 377.81598 -167.716877 
L 377.415522 -169.428052 
L 377.376866 -171.139228 
L 377.728258 -172.850404 
L 378.491584 -174.56158 
L 379.680586 -176.272756 
L 381.299343 -177.983932 
L 383.341202 -179.695108 
L 385.788243 -181.406284 
L 388.611401 -183.117459 
L 391.771245 -184.828635 
L 395.219383 -186.539811 
L 398.900426 -188.250987 
L 402.754345 -189.962163 
L 406.71907 -191.673339 
L 410.733134 -193.384515 
L 414.738175 -195.095691 
L 418.681123 -196.806867 
L 422.515938 -198.518042 
L 426.204811 -200.229218 
L 429.718779 -201.940394 
L 433.037765 -203.65157 
L 436.1501 -205.362746 
L 439.051624 -207.073922 
L 441.744459 -208.785098 
L 444.235617 -210.496274 
L 446.535543 -212.207449 
L 448.656718 -213.918625 
L 450.612426 -215.629801 
L 452.41574 -217.340977 
L 454.078768 -219.052153 
L 455.612186 -220.763329 
L 457.025013 -222.474505 
L 458.324626 -224.185681 
L 459.516938 -225.896857 
L 460.6067 -227.608032 
L 461.597871 -229.319208 
L 462.493984 -231.030384 
L 463.298499 -232.74156 
L 464.015078 -234.452736 
L 464.647784 -236.163912 
L 465.201197 -237.875088 
L 465.680435 -239.586264 
L 466.091107 -241.297439 
L 466.439208 -243.008615 
L 466.730977 -244.719791 
L 467.871696 -244.719791 
L 467.871696 -244.719791 
L 467.871696 -243.008615 
L 467.871696 -241.297439 
L 467.871696 -239.586264 
L 467.871696 -237.875088 
L 467.871696 -236.163912 
L 467.871696 -234.452736 
L 467.871696 -232.74156 
L 467.871696 -231.030384 
L 467.871696 -229.319208 
L 467.871696 -227.608032 
L 467.871696 -225.896857 
L 467.871696 -224.185681 
L 467.871696 -222.474505 
L 467.871696 -220.763329 
L 467.871696 -219.052153 
L 467.871696 -217.340977 
L 467.871696 -215.629801 
L 467.871696 -213.918625 
L 467.871696 -212.207449 
L 467.871696 -210.496274 
L 467.871696 -208.785098 
L 467.871696 -207.073922 
L 467.871696 -205.362746 
L 467.871696 -203.65157 
L 467.871696 -201.940394 
L 467.871696 -200.229218 
L 467.871696 -198.518042 
L 467.871696 -196.806867 
L 467.871696 -195.095691 
L 467.871696 -193.384515 
L 467.871696 -191.673339 
L 467.871696 -189.962163 
L 467.871696 -188.250987 
L 467.871696 -186.539811 
L 467.871696 -184.828635 
L 467.871696 -183.117459 
L 467.871696 -181.406284 
L 467.871696 -179.695108 
L 467.871696 -177.983932 
L 467.871696 -176.272756 
L 467.871696 -174.56158 
L 467.871696 -172.850404 
L 467.871696 -171.139228 
L 467.871696 -169.428052 
L 467.871696 -167.716877 
L 467.871696 -166.005701 
L 467.871696 -164.294525 
L 467.871696 -162.583349 
L 467.871696 -160.872173 
L 467.871696 -159.160997 
L 467.871696 -157.449821 
L 467.871696 -155.738645 
L 467.871696 -154.02747 
L 467.871696 -152.316294 
L 467.871696 -150.605118 
L 467.871696 -148.893942 
L 467.871696 -147.182766 
L 467.871696 -145.47159 
L 467.871696 -143.760414 
L 467.871696 -142.049238 
L 467.871696 -140.338062 
L 467.871696 -138.626887 
L 467.871696 -136.915711 
L 467.871696 -135.204535 
L 467.871696 -133.493359 
L 467.871696 -131.782183 
L 467.871696 -130.071007 
L 467.871696 -128.359831 
L 467.871696 -126.648655 
L 467.871696 -124.93748 
L 467.871696 -123.226304 
L 467.871696 -121.515128 
L 467.871696 -119.803952 
L 467.871696 -118.092776 
L 467.871696 -116.3816 
L 467.871696 -114.670424 
L 467.871696 -112.959248 
L 467.871696 -111.248073 
L 467.871696 -109.536897 
L 467.871696 -107.825721 
L 467.871696 -106.114545 
L 467.871696 -104.403369 
L 467.871696 -102.692193 
L 467.871696 -100.981017 
L 467.871696 -99.269841 
L 467.871696 -97.558665 
L 467.871696 -95.84749 
L 467.871696 -94.136314 
L 467.871696 -92.425138 
L 467.871696 -90.713962 
L 467.871696 -89.002786 
L 467.871696 -87.29161 
L 467.871696 -85.580434 
L 467.871696 -83.869258 
L 467.871696 -82.158083 
L 467.871696 -80.446907 
L 467.871696 -78.735731 
L 467.871696 -77.024555 
L 467.871696 -75.313379 
z
"/>
    </defs>
    <g clip-path="url(#p297efdf7fc)">
     <use xlink:href="#mb171ebb791" x="0" y="378.799603" style="fill: #81b2d5"/>
    </g>
   </g>
   <g id="PolyCollection_4">
    <defs>
     <path id="mfcaa41a03f" d="M 492.231815 -77.226319 
L 490.495403 -77.226319 
L 490.495403 -78.871271 
L 490.495403 -80.516223 
L 490.495403 -82.161175 
L 490.495403 -83.806127 
L 490.495403 -85.451079 
L 490.495403 -87.096031 
L 490.495403 -88.740983 
L 490.495403 -90.385935 
L 490.495403 -92.030887 
L 490.495403 -93.675839 
L 490.495403 -95.320791 
L 490.495403 -96.965743 
L 490.495403 -98.610695 
L 490.495403 -100.255647 
L 490.495403 -101.900599 
L 490.495403 -103.545551 
L 490.495403 -105.190503 
L 490.495403 -106.835455 
L 490.495403 -108.480407 
L 490.495403 -110.125359 
L 490.495403 -111.770311 
L 490.495403 -113.415263 
L 490.495403 -115.060215 
L 490.495403 -116.705167 
L 490.495403 -118.350119 
L 490.495403 -119.995071 
L 490.495403 -121.640023 
L 490.495403 -123.284975 
L 490.495403 -124.929927 
L 490.495403 -126.574879 
L 490.495403 -128.219831 
L 490.495403 -129.864783 
L 490.495403 -131.509734 
L 490.495403 -133.154686 
L 490.495403 -134.799638 
L 490.495403 -136.44459 
L 490.495403 -138.089542 
L 490.495403 -139.734494 
L 490.495403 -141.379446 
L 490.495403 -143.024398 
L 490.495403 -144.66935 
L 490.495403 -146.314302 
L 490.495403 -147.959254 
L 490.495403 -149.604206 
L 490.495403 -151.249158 
L 490.495403 -152.89411 
L 490.495403 -154.539062 
L 490.495403 -156.184014 
L 490.495403 -157.828966 
L 490.495403 -159.473918 
L 490.495403 -161.11887 
L 490.495403 -162.763822 
L 490.495403 -164.408774 
L 490.495403 -166.053726 
L 490.495403 -167.698678 
L 490.495403 -169.34363 
L 490.495403 -170.988582 
L 490.495403 -172.633534 
L 490.495403 -174.278486 
L 490.495403 -175.923438 
L 490.495403 -177.56839 
L 490.495403 -179.213342 
L 490.495403 -180.858294 
L 490.495403 -182.503246 
L 490.495403 -184.148198 
L 490.495403 -185.79315 
L 490.495403 -187.438102 
L 490.495403 -189.083054 
L 490.495403 -190.728006 
L 490.495403 -192.372958 
L 490.495403 -194.01791 
L 490.495403 -195.662862 
L 490.495403 -197.307814 
L 490.495403 -198.952765 
L 490.495403 -200.597717 
L 490.495403 -202.242669 
L 490.495403 -203.887621 
L 490.495403 -205.532573 
L 490.495403 -207.177525 
L 490.495403 -208.822477 
L 490.495403 -210.467429 
L 490.495403 -212.112381 
L 490.495403 -213.757333 
L 490.495403 -215.402285 
L 490.495403 -217.047237 
L 490.495403 -218.692189 
L 490.495403 -220.337141 
L 490.495403 -221.982093 
L 490.495403 -223.627045 
L 490.495403 -225.271997 
L 490.495403 -226.916949 
L 490.495403 -228.561901 
L 490.495403 -230.206853 
L 490.495403 -231.851805 
L 490.495403 -233.496757 
L 490.495403 -235.141709 
L 490.495403 -236.786661 
L 490.495403 -238.431613 
L 490.495403 -240.076565 
L 490.882382 -240.076565 
L 490.882382 -240.076565 
L 491.033063 -238.431613 
L 491.22578 -236.786661 
L 491.465902 -235.141709 
L 491.75748 -233.496757 
L 492.10274 -231.851805 
L 492.501767 -230.206853 
L 492.952492 -228.561901 
L 493.451042 -226.916949 
L 493.992477 -225.271997 
L 494.571824 -223.627045 
L 495.185247 -221.982093 
L 495.83115 -220.337141 
L 496.510927 -218.692189 
L 497.229169 -217.047237 
L 497.993173 -215.402285 
L 498.811755 -213.757333 
L 499.693505 -212.112381 
L 500.644777 -210.467429 
L 501.667776 -208.822477 
L 502.759159 -207.177525 
L 503.909482 -205.532573 
L 505.103697 -203.887621 
L 506.322707 -202.242669 
L 507.545785 -200.597717 
L 508.753454 -198.952765 
L 509.930333 -197.307814 
L 511.06742 -195.662862 
L 512.163388 -194.01791 
L 513.224671 -192.372958 
L 514.264388 -190.728006 
L 515.300398 -189.083054 
L 516.353011 -187.438102 
L 517.442919 -185.79315 
L 518.589848 -184.148198 
L 519.81218 -182.503246 
L 521.127487 -180.858294 
L 522.553593 -179.213342 
L 524.109556 -177.56839 
L 525.815926 -175.923438 
L 527.693812 -174.278486 
L 529.762625 -172.633534 
L 532.036778 -170.988582 
L 534.522029 -169.34363 
L 537.212342 -167.698678 
L 540.088115 -166.053726 
L 543.116363 -164.408774 
L 546.253006 -162.763822 
L 549.446879 -161.11887 
L 552.644727 -159.473918 
L 555.796187 -157.828966 
L 558.857819 -156.184014 
L 561.795489 -154.539062 
L 564.58481 -152.89411 
L 567.209743 -151.249158 
L 569.659804 -149.604206 
L 571.926512 -147.959254 
L 573.999718 -146.314302 
L 575.864389 -144.66935 
L 577.498235 -143.024398 
L 578.870447 -141.379446 
L 579.94167 -139.734494 
L 580.66532 -138.089542 
L 580.990234 -136.44459 
L 580.864642 -134.799638 
L 580.241274 -133.154686 
L 579.083225 -131.509734 
L 577.370017 -129.864783 
L 575.103063 -128.219831 
L 572.309643 -126.574879 
L 569.044557 -124.929927 
L 565.388815 -123.284975 
L 561.445124 -121.640023 
L 557.330382 -119.995071 
L 553.165926 -118.350119 
L 549.066683 -116.705167 
L 545.130635 -115.060215 
L 541.430086 -113.415263 
L 538.005953 -111.770311 
L 534.865966 -110.125359 
L 531.987011 -108.480407 
L 529.321304 -106.835455 
L 526.805442 -105.190503 
L 524.370988 -103.545551 
L 521.955034 -101.900599 
L 519.509228 -100.255647 
L 517.006057 -98.610695 
L 514.441668 -96.965743 
L 511.835072 -95.320791 
L 509.224175 -93.675839 
L 506.659527 -92.030887 
L 504.19693 -90.385935 
L 501.890133 -88.740983 
L 499.784647 -87.096031 
L 497.913401 -85.451079 
L 496.294575 -83.806127 
L 494.931544 -82.161175 
L 493.814559 -80.516223 
L 492.923606 -78.871271 
L 492.231815 -77.226319 
z
"/>
    </defs>
    <g clip-path="url(#p297efdf7fc)">
     <use xlink:href="#mfcaa41a03f" x="0" y="378.799603" style="fill: #477aa7"/>
    </g>
   </g>
   <g id="matplotlib.axis_3">
    <g id="xtick_3">
     <g id="line2d_14">
      <g>
       <use xlink:href="#meeb57ec388" x="422.624281" y="311.799603" style="stroke: #000000; stroke-width: 0.75"/>
      </g>
     </g>
     <g id="text_10">
      <text style="font: 15px &quot;Suisse Int&apos;l&quot;, sans-serif; text-anchor: middle" x="422.624281" y="332.674603" transform="rotate(-0 422.624281 332.674603)">4</text>
     </g>
    </g>
    <g id="xtick_4">
     <g id="line2d_15">
      <g>
       <use xlink:href="#meeb57ec388" x="535.742818" y="311.799603" style="stroke: #000000; stroke-width: 0.75"/>
      </g>
     </g>
     <g id="text_11">
      <text style="font: 15px &quot;Suisse Int&apos;l&quot;, sans-serif; text-anchor: middle" x="535.742818" y="332.674603" transform="rotate(-0 535.742818 332.674603)">21</text>
     </g>
    </g>
    <g id="text_12">
     <text style="font: 500 15px &quot;Suisse Int&apos;l&quot;, sans-serif; text-anchor: middle" x="479.18355" y="356.174603" transform="rotate(-0 479.18355 356.174603)">Time in water</text>
    </g>
   </g>
   <g id="matplotlib.axis_4">
    <g id="ytick_5">
     <g id="line2d_16">
      <g>
       <use xlink:href="#m0fc072ec5d" x="369.232331" y="285.562588" style="stroke: #000000; stroke-width: 0.75"/>
      </g>
     </g>
     <g id="text_13">
      <text style="font: 14.5px &quot;Suisse Int&apos;l Mono&quot;; text-anchor: end" x="359.232331" y="290.818838" transform="rotate(-0 359.232331 290.818838)">0</text>
     </g>
    </g>
    <g id="ytick_6">
     <g id="line2d_17">
      <g>
       <use xlink:href="#m0fc072ec5d" x="369.232331" y="252.85778" style="stroke: #000000; stroke-width: 0.75"/>
      </g>
     </g>
     <g id="text_14">
      <text style="font: 14.5px &quot;Suisse Int&apos;l Mono&quot;; text-anchor: end" x="359.232331" y="258.11403" transform="rotate(-0 359.232331 258.11403)">20</text>
     </g>
    </g>
    <g id="ytick_7">
     <g id="line2d_18">
      <g>
       <use xlink:href="#m0fc072ec5d" x="369.232331" y="220.152973" style="stroke: #000000; stroke-width: 0.75"/>
      </g>
     </g>
     <g id="text_15">
      <text style="font: 14.5px &quot;Suisse Int&apos;l Mono&quot;; text-anchor: end" x="359.232331" y="225.409223" transform="rotate(-0 359.232331 225.409223)">40</text>
     </g>
    </g>
    <g id="ytick_8">
     <g id="line2d_19">
      <g>
       <use xlink:href="#m0fc072ec5d" x="369.232331" y="187.448165" style="stroke: #000000; stroke-width: 0.75"/>
      </g>
     </g>
     <g id="text_16">
      <text style="font: 14.5px &quot;Suisse Int&apos;l Mono&quot;; text-anchor: end" x="359.232331" y="192.704415" transform="rotate(-0 359.232331 192.704415)">60</text>
     </g>
    </g>
    <g id="ytick_9">
     <g id="line2d_20">
      <g>
       <use xlink:href="#m0fc072ec5d" x="369.232331" y="154.743358" style="stroke: #000000; stroke-width: 0.75"/>
      </g>
     </g>
     <g id="text_17">
      <text style="font: 14.5px &quot;Suisse Int&apos;l Mono&quot;; text-anchor: end" x="359.232331" y="159.999608" transform="rotate(-0 359.232331 159.999608)">80</text>
     </g>
    </g>
    <g id="ytick_10">
     <g id="line2d_21">
      <g>
       <use xlink:href="#m0fc072ec5d" x="369.232331" y="122.03855" style="stroke: #000000; stroke-width: 0.75"/>
      </g>
     </g>
     <g id="text_18">
      <text style="font: 14.5px &quot;Suisse Int&apos;l Mono&quot;; text-anchor: end" x="359.232331" y="127.2948" transform="rotate(-0 359.232331 127.2948)">100</text>
     </g>
    </g>
    <g id="ytick_11">
     <g id="line2d_22">
      <g>
       <use xlink:href="#m0fc072ec5d" x="369.232331" y="89.333743" style="stroke: #000000; stroke-width: 0.75"/>
      </g>
     </g>
     <g id="text_19">
      <text style="font: 14.5px &quot;Suisse Int&apos;l Mono&quot;; text-anchor: end" x="359.232331" y="94.589993" transform="rotate(-0 359.232331 94.589993)">120</text>
     </g>
    </g>
    <g id="text_20">
     <text style="font: 500 15px &quot;Suisse Int&apos;l&quot;, sans-serif; text-anchor: middle" x="318.50905" y="199.568987" transform="rotate(-90 318.50905 199.568987)">Mean curvilinear speed</text>
    </g>
   </g>
   <g id="line2d_23">
    <path d="M 465.371696 272.204324 
L 465.371696 165.361713 
" clip-path="url(#p297efdf7fc)" style="fill: none; stroke: #474747; stroke-width: 1.666667; stroke-linecap: round"/>
   </g>
   <g id="line2d_24">
    <path d="M 465.371696 240.926779 
L 465.371696 200.456188 
" clip-path="url(#p297efdf7fc)" style="fill: none; stroke: #474747; stroke-width: 5; stroke-linecap: round"/>
   </g>
   <g id="line2d_25">
    <path d="M 465.371696 220.498121 
" clip-path="url(#p297efdf7fc)" style="fill: none; stroke: #474747; stroke-width: 2; stroke-linecap: round"/>
    <g clip-path="url(#p297efdf7fc)">
     <use xlink:href="#m5b8078bd88" x="465.371696" y="220.498121" style="fill: #ffffff; stroke: #ffffff"/>
    </g>
   </g>
   <g id="line2d_26">
    <path d="M 492.995403 280.759297 
L 492.995403 174.613873 
" clip-path="url(#p297efdf7fc)" style="fill: none; stroke: #474747; stroke-width: 1.666667; stroke-linecap: round"/>
   </g>
   <g id="line2d_27">
    <path d="M 492.995403 252.909797 
L 492.995403 219.187148 
" clip-path="url(#p297efdf7fc)" style="fill: none; stroke: #474747; stroke-width: 5; stroke-linecap: round"/>
   </g>
   <g id="line2d_28">
    <path d="M 492.995403 237.81404 
" clip-path="url(#p297efdf7fc)" style="fill: none; stroke: #474747; stroke-width: 2; stroke-linecap: round"/>
    <g clip-path="url(#p297efdf7fc)">
     <use xlink:href="#m5b8078bd88" x="492.995403" y="237.81404" style="fill: #ffffff; stroke: #ffffff"/>
    </g>
   </g>
   <g id="line2d_29">
    <path d="M 456.559842 95.651749 
L 501.807257 95.651749 
" clip-path="url(#p297efdf7fc)" style="fill: none; stroke: #000000; stroke-width: 2; stroke-linecap: round"/>
   </g>
   <g id="patch_6">
    <path d="M 369.232331 311.799603 
L 369.232331 87.33837 
" style="fill: none; stroke: #000000; stroke-width: 0.75; stroke-linejoin: miter; stroke-linecap: square"/>
   </g>
   <g id="patch_7">
    <path d="M 369.232331 311.799603 
L 589.134768 311.799603 
" style="fill: none; stroke: #000000; stroke-width: 0.75; stroke-linejoin: miter; stroke-linecap: square"/>
   </g>
   <g id="text_21">
    <text style="font: 20px &quot;Suisse Int&apos;l&quot;, sans-serif; text-anchor: middle" x="479.18355" y="95.651749" transform="rotate(-0 479.18355 95.651749)">*</text>
   </g>
  </g>
  <g id="axes_3">
   <g id="patch_8">
    <path d="M 647.786225 311.799603 
L 867.688662 311.799603 
L 867.688662 87.33837 
L 647.786225 87.33837 
L 647.786225 311.799603 
z
" style="fill: none"/>
   </g>
   <g id="PolyCollection_5">
    <defs>
     <path id="m5d83156678" d="M 746.42559 -75.313379 
L 741.034102 -75.313379 
L 739.406484 -77.027405 
L 737.408539 -78.741431 
L 734.994729 -80.455456 
L 732.125188 -82.169482 
L 728.769423 -83.883508 
L 724.910234 -85.597534 
L 720.547599 -87.31156 
L 715.702181 -89.025585 
L 710.418094 -90.739611 
L 704.764575 -92.453637 
L 698.836242 -94.167663 
L 692.751708 -95.881689 
L 686.650441 -97.595715 
L 680.687901 -99.30974 
L 675.029155 -101.023766 
L 669.841319 -102.737792 
L 665.285307 -104.451818 
L 661.507466 -106.165844 
L 658.6317 -107.879869 
L 656.752698 -109.593895 
L 655.93076 -111.307921 
L 656.188617 -113.021947 
L 657.51048 -114.735973 
L 659.84333 -116.449998 
L 663.100322 -118.164024 
L 667.165986 -119.87805 
L 671.902782 -121.592076 
L 677.158507 -123.306102 
L 682.773984 -125.020127 
L 688.590534 -126.734153 
L 694.456752 -128.448179 
L 700.234244 -130.162205 
L 705.802072 -131.876231 
L 711.059793 -133.590256 
L 715.929094 -135.304282 
L 720.354116 -137.018308 
L 724.300654 -138.732334 
L 727.754439 -140.44636 
L 730.718761 -142.160385 
L 733.211674 -143.874411 
L 735.262995 -145.588437 
L 736.911293 -147.302463 
L 738.201005 -149.016489 
L 739.179793 -150.730515 
L 739.8962 -152.44454 
L 740.397644 -154.158566 
L 740.728776 -155.872592 
L 740.930184 -157.586618 
L 741.037462 -159.300644 
L 741.080618 -161.014669 
L 741.083803 -162.728695 
L 741.06537 -164.442721 
L 741.038198 -166.156747 
L 741.010285 -167.870773 
L 740.985527 -169.584798 
L 740.964643 -171.298824 
L 740.946161 -173.01285 
L 740.927391 -174.726876 
L 740.905316 -176.440902 
L 740.877313 -178.154927 
L 740.841676 -179.868953 
L 740.797901 -181.582979 
L 740.746743 -183.297005 
L 740.690057 -185.011031 
L 740.630494 -186.725056 
L 740.571107 -188.439082 
L 740.51494 -190.153108 
L 740.464675 -191.867134 
L 740.422393 -193.58116 
L 740.389479 -195.295186 
L 740.366682 -197.009211 
L 740.354312 -198.723237 
L 740.352529 -200.437263 
L 740.361667 -202.151289 
L 740.382542 -203.865315 
L 740.416662 -205.57934 
L 740.466315 -207.293366 
L 740.534505 -209.007392 
L 740.624731 -210.721418 
L 740.740639 -212.435444 
L 740.885594 -214.149469 
L 741.062224 -215.863495 
L 741.272005 -217.577521 
L 741.514933 -219.291547 
L 741.789337 -221.005573 
L 742.091851 -222.719598 
L 742.417554 -224.433624 
L 742.760248 -226.14765 
L 743.112858 -227.861676 
L 743.467891 -229.575702 
L 743.817913 -231.289727 
L 744.156001 -233.003753 
L 744.47611 -234.717779 
L 744.773354 -236.431805 
L 745.044166 -238.145831 
L 745.286344 -239.859857 
L 745.498997 -241.573882 
L 745.682404 -243.287908 
L 745.837822 -245.001934 
L 746.42559 -245.001934 
L 746.42559 -245.001934 
L 746.42559 -243.287908 
L 746.42559 -241.573882 
L 746.42559 -239.859857 
L 746.42559 -238.145831 
L 746.42559 -236.431805 
L 746.42559 -234.717779 
L 746.42559 -233.003753 
L 746.42559 -231.289727 
L 746.42559 -229.575702 
L 746.42559 -227.861676 
L 746.42559 -226.14765 
L 746.42559 -224.433624 
L 746.42559 -222.719598 
L 746.42559 -221.005573 
L 746.42559 -219.291547 
L 746.42559 -217.577521 
L 746.42559 -215.863495 
L 746.42559 -214.149469 
L 746.42559 -212.435444 
L 746.42559 -210.721418 
L 746.42559 -209.007392 
L 746.42559 -207.293366 
L 746.42559 -205.57934 
L 746.42559 -203.865315 
L 746.42559 -202.151289 
L 746.42559 -200.437263 
L 746.42559 -198.723237 
L 746.42559 -197.009211 
L 746.42559 -195.295186 
L 746.42559 -193.58116 
L 746.42559 -191.867134 
L 746.42559 -190.153108 
L 746.42559 -188.439082 
L 746.42559 -186.725056 
L 746.42559 -185.011031 
L 746.42559 -183.297005 
L 746.42559 -181.582979 
L 746.42559 -179.868953 
L 746.42559 -178.154927 
L 746.42559 -176.440902 
L 746.42559 -174.726876 
L 746.42559 -173.01285 
L 746.42559 -171.298824 
L 746.42559 -169.584798 
L 746.42559 -167.870773 
L 746.42559 -166.156747 
L 746.42559 -164.442721 
L 746.42559 -162.728695 
L 746.42559 -161.014669 
L 746.42559 -159.300644 
L 746.42559 -157.586618 
L 746.42559 -155.872592 
L 746.42559 -154.158566 
L 746.42559 -152.44454 
L 746.42559 -150.730515 
L 746.42559 -149.016489 
L 746.42559 -147.302463 
L 746.42559 -145.588437 
L 746.42559 -143.874411 
L 746.42559 -142.160385 
L 746.42559 -140.44636 
L 746.42559 -138.732334 
L 746.42559 -137.018308 
L 746.42559 -135.304282 
L 746.42559 -133.590256 
L 746.42559 -131.876231 
L 746.42559 -130.162205 
L 746.42559 -128.448179 
L 746.42559 -126.734153 
L 746.42559 -125.020127 
L 746.42559 -123.306102 
L 746.42559 -121.592076 
L 746.42559 -119.87805 
L 746.42559 -118.164024 
L 746.42559 -116.449998 
L 746.42559 -114.735973 
L 746.42559 -113.021947 
L 746.42559 -111.307921 
L 746.42559 -109.593895 
L 746.42559 -107.879869 
L 746.42559 -106.165844 
L 746.42559 -104.451818 
L 746.42559 -102.737792 
L 746.42559 -101.023766 
L 746.42559 -99.30974 
L 746.42559 -97.595715 
L 746.42559 -95.881689 
L 746.42559 -94.167663 
L 746.42559 -92.453637 
L 746.42559 -90.739611 
L 746.42559 -89.025585 
L 746.42559 -87.31156 
L 746.42559 -85.597534 
L 746.42559 -83.883508 
L 746.42559 -82.169482 
L 746.42559 -80.455456 
L 746.42559 -78.741431 
L 746.42559 -77.027405 
L 746.42559 -75.313379 
z
"/>
    </defs>
    <g clip-path="url(#p28b623586f)">
     <use xlink:href="#m5d83156678" x="0" y="378.799603" style="fill: #81b2d5"/>
    </g>
   </g>
   <g id="PolyCollection_6">
    <defs>
     <path id="m729971bb67" d="M 770.445561 -88.252496 
L 769.049297 -88.252496 
L 769.049297 -89.557326 
L 769.049297 -90.862157 
L 769.049297 -92.166987 
L 769.049297 -93.471818 
L 769.049297 -94.776648 
L 769.049297 -96.081479 
L 769.049297 -97.386309 
L 769.049297 -98.69114 
L 769.049297 -99.99597 
L 769.049297 -101.300801 
L 769.049297 -102.605631 
L 769.049297 -103.910462 
L 769.049297 -105.215292 
L 769.049297 -106.520123 
L 769.049297 -107.824953 
L 769.049297 -109.129784 
L 769.049297 -110.434614 
L 769.049297 -111.739445 
L 769.049297 -113.044275 
L 769.049297 -114.349106 
L 769.049297 -115.653936 
L 769.049297 -116.958767 
L 769.049297 -118.263598 
L 769.049297 -119.568428 
L 769.049297 -120.873259 
L 769.049297 -122.178089 
L 769.049297 -123.48292 
L 769.049297 -124.78775 
L 769.049297 -126.092581 
L 769.049297 -127.397411 
L 769.049297 -128.702242 
L 769.049297 -130.007072 
L 769.049297 -131.311903 
L 769.049297 -132.616733 
L 769.049297 -133.921564 
L 769.049297 -135.226394 
L 769.049297 -136.531225 
L 769.049297 -137.836055 
L 769.049297 -139.140886 
L 769.049297 -140.445716 
L 769.049297 -141.750547 
L 769.049297 -143.055377 
L 769.049297 -144.360208 
L 769.049297 -145.665038 
L 769.049297 -146.969869 
L 769.049297 -148.274699 
L 769.049297 -149.57953 
L 769.049297 -150.88436 
L 769.049297 -152.189191 
L 769.049297 -153.494021 
L 769.049297 -154.798852 
L 769.049297 -156.103682 
L 769.049297 -157.408513 
L 769.049297 -158.713343 
L 769.049297 -160.018174 
L 769.049297 -161.323004 
L 769.049297 -162.627835 
L 769.049297 -163.932665 
L 769.049297 -165.237496 
L 769.049297 -166.542327 
L 769.049297 -167.847157 
L 769.049297 -169.151988 
L 769.049297 -170.456818 
L 769.049297 -171.761649 
L 769.049297 -173.066479 
L 769.049297 -174.37131 
L 769.049297 -175.67614 
L 769.049297 -176.980971 
L 769.049297 -178.285801 
L 769.049297 -179.590632 
L 769.049297 -180.895462 
L 769.049297 -182.200293 
L 769.049297 -183.505123 
L 769.049297 -184.809954 
L 769.049297 -186.114784 
L 769.049297 -187.419615 
L 769.049297 -188.724445 
L 769.049297 -190.029276 
L 769.049297 -191.334106 
L 769.049297 -192.638937 
L 769.049297 -193.943767 
L 769.049297 -195.248598 
L 769.049297 -196.553428 
L 769.049297 -197.858259 
L 769.049297 -199.163089 
L 769.049297 -200.46792 
L 769.049297 -201.77275 
L 769.049297 -203.077581 
L 769.049297 -204.382411 
L 769.049297 -205.687242 
L 769.049297 -206.992072 
L 769.049297 -208.296903 
L 769.049297 -209.601733 
L 769.049297 -210.906564 
L 769.049297 -212.211394 
L 769.049297 -213.516225 
L 769.049297 -214.821056 
L 769.049297 -216.125886 
L 769.049297 -217.430717 
L 769.240535 -217.430717 
L 769.240535 -217.430717 
L 769.330391 -216.125886 
L 769.448582 -214.821056 
L 769.597473 -213.516225 
L 769.776779 -212.211394 
L 769.982705 -210.906564 
L 770.207476 -209.601733 
L 770.43954 -208.296903 
L 770.664574 -206.992072 
L 770.867294 -205.687242 
L 771.033846 -204.382411 
L 771.154369 -203.077581 
L 771.22519 -201.77275 
L 771.25014 -200.46792 
L 771.240576 -199.163089 
L 771.21397 -197.858259 
L 771.19122 -196.553428 
L 771.193124 -195.248598 
L 771.236658 -193.943767 
L 771.331771 -192.638937 
L 771.47933 -191.334106 
L 771.670632 -190.029276 
L 771.888597 -188.724445 
L 772.110415 -187.419615 
L 772.311132 -186.114784 
L 772.467477 -184.809954 
L 772.561177 -183.505123 
L 772.581178 -182.200293 
L 772.524446 -180.895462 
L 772.395357 -179.590632 
L 772.204021 -178.285801 
L 771.964058 -176.980971 
L 771.690384 -175.67614 
L 771.397438 -174.37131 
L 771.098069 -173.066479 
L 770.803056 -171.761649 
L 770.521083 -170.456818 
L 770.258921 -169.151988 
L 770.021629 -167.847157 
L 769.812679 -166.542327 
L 769.634014 -165.237496 
L 769.486135 -163.932665 
L 769.368286 -162.627835 
L 769.278821 -161.323004 
L 769.215727 -160.018174 
L 769.177268 -158.713343 
L 769.162649 -157.408513 
L 769.172587 -156.103682 
L 769.209704 -154.798852 
L 769.278607 -153.494021 
L 769.38562 -152.189191 
L 769.538119 -150.88436 
L 769.743525 -149.57953 
L 770.008128 -148.274699 
L 770.335993 -146.969869 
L 770.728341 -145.665038 
L 771.183777 -144.360208 
L 771.699673 -143.055377 
L 772.274793 -141.750547 
L 772.912956 -140.445716 
L 773.627241 -139.140886 
L 774.443987 -137.836055 
L 775.405782 -136.531225 
L 776.572745 -135.226394 
L 778.021597 -133.921564 
L 779.842388 -132.616733 
L 782.13292 -131.311903 
L 784.991144 -130.007072 
L 788.505802 -128.702242 
L 792.745688 -127.397411 
L 797.747927 -126.092581 
L 803.505944 -124.78775 
L 809.958129 -123.48292 
L 816.978632 -122.178089 
L 824.372103 -120.873259 
L 831.874334 -119.568428 
L 839.16056 -118.263598 
L 845.862463 -116.958767 
L 851.59383 -115.653936 
L 855.983279 -114.349106 
L 858.710884 -113.044275 
L 859.544127 -111.739445 
L 858.36786 -110.434614 
L 855.203092 -109.129784 
L 850.210723 -107.824953 
L 843.678572 -106.520123 
L 835.992872 -105.215292 
L 827.598193 -103.910462 
L 818.95184 -102.605631 
L 810.479624 -101.300801 
L 802.53937 -99.99597 
L 795.396713 -98.69114 
L 789.215163 -97.386309 
L 784.059784 -96.081479 
L 779.9116 -94.776648 
L 776.688627 -93.471818 
L 774.269139 -92.166987 
L 772.513438 -90.862157 
L 771.281537 -89.557326 
L 770.445561 -88.252496 
z
"/>
    </defs>
    <g clip-path="url(#p28b623586f)">
     <use xlink:href="#m729971bb67" x="0" y="378.799603" style="fill: #477aa7"/>
    </g>
   </g>
   <g id="patch_9">
    <path d="M 701.178175 283.802017 
L 701.178175 283.802017 
L 701.178175 283.802017 
L 701.178175 283.802017 
z
" clip-path="url(#p28b623586f)" style="fill: #81b2d5"/>
   </g>
   <g id="patch_10">
    <path d="M 701.178175 283.802017 
L 701.178175 283.802017 
L 701.178175 283.802017 
L 701.178175 283.802017 
z
" clip-path="url(#p28b623586f)" style="fill: #477aa7"/>
   </g>
   <g id="matplotlib.axis_5">
    <g id="xtick_5">
     <g id="line2d_30">
      <g>
       <use xlink:href="#meeb57ec388" x="701.178175" y="311.799603" style="stroke: #000000; stroke-width: 0.75"/>
      </g>
     </g>
     <g id="text_22">
      <text style="font: 15px &quot;Suisse Int&apos;l&quot;, sans-serif; text-anchor: middle" x="701.178175" y="332.674603" transform="rotate(-0 701.178175 332.674603)">4</text>
     </g>
    </g>
    <g id="xtick_6">
     <g id="line2d_31">
      <g>
       <use xlink:href="#meeb57ec388" x="814.296712" y="311.799603" style="stroke: #000000; stroke-width: 0.75"/>
      </g>
     </g>
     <g id="text_23">
      <text style="font: 15px &quot;Suisse Int&apos;l&quot;, sans-serif; text-anchor: middle" x="814.296712" y="332.674603" transform="rotate(-0 814.296712 332.674603)">21</text>
     </g>
    </g>
    <g id="text_24">
     <text style="font: 500 15px &quot;Suisse Int&apos;l&quot;, sans-serif; text-anchor: middle" x="757.737443" y="356.174603" transform="rotate(-0 757.737443 356.174603)">Time in water</text>
    </g>
   </g>
   <g id="matplotlib.axis_6">
    <g id="ytick_12">
     <g id="line2d_32">
      <g>
       <use xlink:href="#m0fc072ec5d" x="647.786225" y="283.802017" style="stroke: #000000; stroke-width: 0.75"/>
      </g>
     </g>
     <g id="text_25">
      <text style="font: 14.5px &quot;Suisse Int&apos;l Mono&quot;; text-anchor: end" x="637.786225" y="289.058267" transform="rotate(-0 637.786225 289.058267)">0</text>
     </g>
    </g>
    <g id="ytick_13">
     <g id="line2d_33">
      <g>
       <use xlink:href="#m0fc072ec5d" x="647.786225" y="235.649938" style="stroke: #000000; stroke-width: 0.75"/>
      </g>
     </g>
     <g id="text_26">
      <text style="font: 14.5px &quot;Suisse Int&apos;l Mono&quot;; text-anchor: end" x="637.786225" y="240.906188" transform="rotate(-0 637.786225 240.906188)">10</text>
     </g>
    </g>
    <g id="ytick_14">
     <g id="line2d_34">
      <g>
       <use xlink:href="#m0fc072ec5d" x="647.786225" y="187.49786" style="stroke: #000000; stroke-width: 0.75"/>
      </g>
     </g>
     <g id="text_27">
      <text style="font: 14.5px &quot;Suisse Int&apos;l Mono&quot;; text-anchor: end" x="637.786225" y="192.75411" transform="rotate(-0 637.786225 192.75411)">20</text>
     </g>
    </g>
    <g id="ytick_15">
     <g id="line2d_35">
      <g>
       <use xlink:href="#m0fc072ec5d" x="647.786225" y="139.345781" style="stroke: #000000; stroke-width: 0.75"/>
      </g>
     </g>
     <g id="text_28">
      <text style="font: 14.5px &quot;Suisse Int&apos;l Mono&quot;; text-anchor: end" x="637.786225" y="144.602031" transform="rotate(-0 637.786225 144.602031)">30</text>
     </g>
    </g>
    <g id="ytick_16">
     <g id="line2d_36">
      <g>
       <use xlink:href="#m0fc072ec5d" x="647.786225" y="91.193702" style="stroke: #000000; stroke-width: 0.75"/>
      </g>
     </g>
     <g id="text_29">
      <text style="font: 14.5px &quot;Suisse Int&apos;l Mono&quot;; text-anchor: end" x="637.786225" y="96.449952" transform="rotate(-0 637.786225 96.449952)">40</text>
     </g>
    </g>
    <g id="text_30">
     <text style="font: 500 15px &quot;Suisse Int&apos;l&quot;, sans-serif; text-anchor: middle" x="606.1431" y="199.568987" transform="rotate(-90 606.1431 199.568987)">Mean angular speed</text>
    </g>
   </g>
   <g id="line2d_37">
    <path d="M 743.92559 274.94025 
L 743.92559 253.139073 
" clip-path="url(#p28b623586f)" style="fill: none; stroke: #474747; stroke-width: 1.666667; stroke-linecap: round"/>
   </g>
   <g id="line2d_38">
    <path d="M 743.92559 270.805499 
L 743.92559 260.32986 
" clip-path="url(#p28b623586f)" style="fill: none; stroke: #474747; stroke-width: 5; stroke-linecap: round"/>
   </g>
   <g id="line2d_39">
    <path d="M 743.92559 266.765591 
" clip-path="url(#p28b623586f)" style="fill: none; stroke: #474747; stroke-width: 2; stroke-linecap: round"/>
    <g clip-path="url(#p28b623586f)">
     <use xlink:href="#m5b8078bd88" x="743.92559" y="266.765591" style="fill: #ffffff; stroke: #ffffff"/>
    </g>
   </g>
   <g id="line2d_40">
    <path d="M 771.549297 276.776919 
L 771.549297 249.886973 
" clip-path="url(#p28b623586f)" style="fill: none; stroke: #474747; stroke-width: 1.666667; stroke-linecap: round"/>
   </g>
   <g id="line2d_41">
    <path d="M 771.549297 269.961564 
L 771.549297 261.17865 
" clip-path="url(#p28b623586f)" style="fill: none; stroke: #474747; stroke-width: 5; stroke-linecap: round"/>
   </g>
   <g id="line2d_42">
    <path d="M 771.549297 266.489891 
" clip-path="url(#p28b623586f)" style="fill: none; stroke: #474747; stroke-width: 2; stroke-linecap: round"/>
    <g clip-path="url(#p28b623586f)">
     <use xlink:href="#m5b8078bd88" x="771.549297" y="266.489891" style="fill: #ffffff; stroke: #ffffff"/>
    </g>
   </g>
   <g id="line2d_43">
    <path d="M 735.113736 95.651749 
L 780.361151 95.651749 
" clip-path="url(#p28b623586f)" style="fill: none; stroke: #000000; stroke-width: 2; stroke-linecap: round"/>
   </g>
   <g id="patch_11">
    <path d="M 647.786225 311.799603 
L 647.786225 87.33837 
" style="fill: none; stroke: #000000; stroke-width: 0.75; stroke-linejoin: miter; stroke-linecap: square"/>
   </g>
   <g id="patch_12">
    <path d="M 647.786225 311.799603 
L 867.688662 311.799603 
" style="fill: none; stroke: #000000; stroke-width: 0.75; stroke-linejoin: miter; stroke-linecap: square"/>
   </g>
   <g id="text_31">
    <text style="font: 16px &quot;Suisse Int&apos;l&quot;, sans-serif; text-anchor: middle" x="757.737443" y="86.244236" transform="rotate(-0 757.737443 86.244236)">ns</text>
   </g>
   <g id="legend_1">
    <g id="text_32">
     <text style="font: 600 16px &quot;Suisse Int&apos;l&quot;, sans-serif; text-anchor: start" x="824.076893" y="31.6" transform="rotate(-0 824.076893 31.6)">Time_in_water</text>
    </g>
    <g id="line2d_44">
     <path d="M 824.076893 41.9 
L 909.826893 41.9 
" style="fill: none; stroke: #bab0a8; stroke-width: 1.5; stroke-linecap: round"/>
    </g>
    <g id="patch_13">
     <path d="M 824.076893 64.775 
L 839.076893 64.775 
L 839.076893 49.4 
L 824.076893 49.4 
z
" style="fill: #81b2d5"/>
    </g>
    <g id="text_33">
     <text style="font: 15px &quot;Suisse Int&apos;l&quot;, sans-serif; text-anchor: start" x="845.076893" y="62.15" transform="rotate(-0 845.076893 62.15)">4 | n=26</text>
    </g>
    <g id="patch_14">
     <path d="M 824.076893 87.65 
L 839.076893 87.65 
L 839.076893 72.275 
L 824.076893 72.275 
z
" style="fill: #477aa7"/>
    </g>
    <g id="text_34">
     <text style="font: 15px &quot;Suisse Int&apos;l&quot;, sans-serif; text-anchor: start" x="845.076893" y="85.025" transform="rotate(-0 845.076893 85.025)">21 | n=119</text>
    </g>
   </g>
  </g>
 </g>
 <defs>
  <clipPath id="pb1e8092165">
   <rect x="81.598281" y="87.33837" width="219.902437" height="224.461233"/>
  </clipPath>
  <clipPath id="p297efdf7fc">
   <rect x="369.232331" y="87.33837" width="219.902437" height="224.461233"/>
  </clipPath>
  <clipPath id="p28b623586f">
   <rect x="647.786225" y="87.33837" width="219.902437" height="224.461233"/>
  </clipPath>
 </defs>
</svg>
