<?xml version="1.0" encoding="utf-8" standalone="no"?>
<!DOCTYPE svg PUBLIC "-//W3C//DTD SVG 1.1//EN"
  "http://www.w3.org/Graphics/SVG/1.1/DTD/svg11.dtd">
<svg xmlns:xlink="http://www.w3.org/1999/xlink" width="1080pt" height="216pt" viewBox="0 0 1080 216" xmlns="http://www.w3.org/2000/svg" version="1.1">
 <metadata>
  <rdf:RDF xmlns:dc="http://purl.org/dc/elements/1.1/" xmlns:cc="http://creativecommons.org/ns#" xmlns:rdf="http://www.w3.org/1999/02/22-rdf-syntax-ns#">
   <cc:Work>
    <dc:type rdf:resource="http://purl.org/dc/dcmitype/StillImage"/>
    <dc:date>2024-07-24T17:53:01.668975</dc:date>
    <dc:format>image/svg+xml</dc:format>
    <dc:creator>
     <cc:Agent>
      <dc:title>Matplotlib v3.8.4, https://matplotlib.org/</dc:title>
     </cc:Agent>
    </dc:creator>
   </cc:Work>
  </rdf:RDF>
 </metadata>
 <defs>
  <style type="text/css">*{stroke-linejoin: round; stroke-linecap: butt}</style>
 </defs>
 <g id="figure_1">
  <g id="patch_1">
   <path d="M 0 216 
L 1080 216 
L 1080 0 
L 0 0 
L 0 216 
z
" style="fill: none"/>
  </g>
  <g id="axes_1">
   <g id="patch_2">
    <path d="M 135 192.24 
L 355.263158 192.24 
L 355.263158 25.92 
L 135 25.92 
L 135 192.24 
z
" style="fill: none"/>
   </g>
   <g id="PolyCollection_1">
    <defs>
     <path id="m22b116cd60" d="M 233.80117 -33.461469 
L 231.273768 -33.461469 
L 229.916399 -34.698677 
L 228.014611 -35.935885 
L 225.444679 -37.173093 
L 222.095816 -38.410301 
L 217.888677 -39.64751 
L 212.794684 -40.884718 
L 206.852572 -42.121926 
L 200.178114 -43.359134 
L 192.963628 -44.596343 
L 185.465433 -45.833551 
L 177.979832 -47.070759 
L 170.810845 -48.307967 
L 164.235078 -49.545175 
L 158.470288 -50.782384 
L 153.653757 -52.019592 
L 149.83475 -53.2568 
L 146.9823 -54.494008 
L 145.006179 -55.731216 
L 143.785975 -56.968425 
L 143.201521 -58.205633 
L 143.157895 -59.442841 
L 143.599858 -60.680049 
L 144.513494 -61.917257 
L 145.915999 -63.154466 
L 147.837382 -64.391674 
L 150.299403 -65.628882 
L 153.297169 -66.86609 
L 156.787603 -68.103299 
L 160.686888 -69.340507 
L 164.876737 -70.577715 
L 169.217387 -71.814923 
L 173.564089 -73.052131 
L 177.783569 -74.28934 
L 181.767468 -75.526548 
L 185.440852 -76.763756 
L 188.765187 -78.000964 
L 191.736398 -79.238172 
L 194.379459 -80.475381 
L 196.741217 -81.712589 
L 198.88291 -82.949797 
L 200.873197 -84.187005 
L 202.781861 -85.424213 
L 204.673943 -86.661422 
L 206.604051 -87.89863 
L 208.61093 -89.135838 
L 210.712897 -90.373046 
L 212.905039 -91.610255 
L 215.159036 -92.847463 
L 217.426068 -94.084671 
L 219.642581 -95.321879 
L 221.738063 -96.559087 
L 223.643591 -97.796296 
L 225.299863 -99.033504 
L 226.663683 -100.270712 
L 227.712279 -101.50792 
L 228.445229 -102.745128 
L 228.884063 -103.982337 
L 229.069774 -105.219545 
L 229.058556 -106.456753 
L 228.916182 -107.693961 
L 228.711544 -108.931169 
L 228.510025 -110.168378 
L 228.367455 -111.405586 
L 228.325407 -112.642794 
L 228.408402 -113.880002 
L 228.62333 -115.117211 
L 228.961001 -116.354419 
L 229.399421 -117.591627 
L 229.908143 -118.828835 
L 230.452929 -120.066043 
L 231.000039 -121.303252 
L 231.519589 -122.54046 
L 231.987711 -123.777668 
L 232.387434 -125.014876 
L 232.708488 -126.252084 
L 232.946352 -127.489293 
L 233.100963 -128.726501 
L 233.1755 -129.963709 
L 233.17555 -131.200917 
L 233.108791 -132.438125 
L 232.985154 -133.675334 
L 232.817201 -134.912542 
L 232.620404 -136.14975 
L 232.412928 -137.386958 
L 232.2147 -138.624167 
L 232.045728 -139.861375 
L 231.923875 -141.098583 
L 231.862541 -142.335791 
L 231.868771 -143.572999 
L 231.942268 -144.810208 
L 232.075591 -146.047416 
L 232.255513 -147.284624 
L 232.465241 -148.521832 
L 232.687026 -149.75904 
L 232.904598 -150.996249 
L 233.105003 -152.233457 
L 233.279583 -153.470665 
L 233.424098 -154.707873 
L 233.53814 -155.945081 
L 233.80117 -155.945081 
L 233.80117 -155.945081 
L 233.80117 -154.707873 
L 233.80117 -153.470665 
L 233.80117 -152.233457 
L 233.80117 -150.996249 
L 233.80117 -149.75904 
L 233.80117 -148.521832 
L 233.80117 -147.284624 
L 233.80117 -146.047416 
L 233.80117 -144.810208 
L 233.80117 -143.572999 
L 233.80117 -142.335791 
L 233.80117 -141.098583 
L 233.80117 -139.861375 
L 233.80117 -138.624167 
L 233.80117 -137.386958 
L 233.80117 -136.14975 
L 233.80117 -134.912542 
L 233.80117 -133.675334 
L 233.80117 -132.438125 
L 233.80117 -131.200917 
L 233.80117 -129.963709 
L 233.80117 -128.726501 
L 233.80117 -127.489293 
L 233.80117 -126.252084 
L 233.80117 -125.014876 
L 233.80117 -123.777668 
L 233.80117 -122.54046 
L 233.80117 -121.303252 
L 233.80117 -120.066043 
L 233.80117 -118.828835 
L 233.80117 -117.591627 
L 233.80117 -116.354419 
L 233.80117 -115.117211 
L 233.80117 -113.880002 
L 233.80117 -112.642794 
L 233.80117 -111.405586 
L 233.80117 -110.168378 
L 233.80117 -108.931169 
L 233.80117 -107.693961 
L 233.80117 -106.456753 
L 233.80117 -105.219545 
L 233.80117 -103.982337 
L 233.80117 -102.745128 
L 233.80117 -101.50792 
L 233.80117 -100.270712 
L 233.80117 -99.033504 
L 233.80117 -97.796296 
L 233.80117 -96.559087 
L 233.80117 -95.321879 
L 233.80117 -94.084671 
L 233.80117 -92.847463 
L 233.80117 -91.610255 
L 233.80117 -90.373046 
L 233.80117 -89.135838 
L 233.80117 -87.89863 
L 233.80117 -86.661422 
L 233.80117 -85.424213 
L 233.80117 -84.187005 
L 233.80117 -82.949797 
L 233.80117 -81.712589 
L 233.80117 -80.475381 
L 233.80117 -79.238172 
L 233.80117 -78.000964 
L 233.80117 -76.763756 
L 233.80117 -75.526548 
L 233.80117 -74.28934 
L 233.80117 -73.052131 
L 233.80117 -71.814923 
L 233.80117 -70.577715 
L 233.80117 -69.340507 
L 233.80117 -68.103299 
L 233.80117 -66.86609 
L 233.80117 -65.628882 
L 233.80117 -64.391674 
L 233.80117 -63.154466 
L 233.80117 -61.917257 
L 233.80117 -60.680049 
L 233.80117 -59.442841 
L 233.80117 -58.205633 
L 233.80117 -56.968425 
L 233.80117 -55.731216 
L 233.80117 -54.494008 
L 233.80117 -53.2568 
L 233.80117 -52.019592 
L 233.80117 -50.782384 
L 233.80117 -49.545175 
L 233.80117 -48.307967 
L 233.80117 -47.070759 
L 233.80117 -45.833551 
L 233.80117 -44.596343 
L 233.80117 -43.359134 
L 233.80117 -42.121926 
L 233.80117 -40.884718 
L 233.80117 -39.64751 
L 233.80117 -38.410301 
L 233.80117 -37.173093 
L 233.80117 -35.935885 
L 233.80117 -34.698677 
L 233.80117 -33.461469 
z
"/>
    </defs>
    <g clip-path="url(#p7233778bf9)">
     <use xlink:href="#m22b116cd60" x="0" y="216" style="fill: #b4bba7"/>
    </g>
   </g>
   <g id="PolyCollection_2">
    <defs>
     <path id="ma5b8412d13" d="M 259.417853 -29.92 
L 256.461988 -29.92 
L 256.461988 -30.999253 
L 256.461988 -32.078506 
L 256.461988 -33.157759 
L 256.461988 -34.237011 
L 256.461988 -35.316264 
L 256.461988 -36.395517 
L 256.461988 -37.47477 
L 256.461988 -38.554023 
L 256.461988 -39.633276 
L 256.461988 -40.712528 
L 256.461988 -41.791781 
L 256.461988 -42.871034 
L 256.461988 -43.950287 
L 256.461988 -45.02954 
L 256.461988 -46.108793 
L 256.461988 -47.188046 
L 256.461988 -48.267298 
L 256.461988 -49.346551 
L 256.461988 -50.425804 
L 256.461988 -51.505057 
L 256.461988 -52.58431 
L 256.461988 -53.663563 
L 256.461988 -54.742815 
L 256.461988 -55.822068 
L 256.461988 -56.901321 
L 256.461988 -57.980574 
L 256.461988 -59.059827 
L 256.461988 -60.13908 
L 256.461988 -61.218332 
L 256.461988 -62.297585 
L 256.461988 -63.376838 
L 256.461988 -64.456091 
L 256.461988 -65.535344 
L 256.461988 -66.614597 
L 256.461988 -67.69385 
L 256.461988 -68.773102 
L 256.461988 -69.852355 
L 256.461988 -70.931608 
L 256.461988 -72.010861 
L 256.461988 -73.090114 
L 256.461988 -74.169367 
L 256.461988 -75.248619 
L 256.461988 -76.327872 
L 256.461988 -77.407125 
L 256.461988 -78.486378 
L 256.461988 -79.565631 
L 256.461988 -80.644884 
L 256.461988 -81.724137 
L 256.461988 -82.803389 
L 256.461988 -83.882642 
L 256.461988 -84.961895 
L 256.461988 -86.041148 
L 256.461988 -87.120401 
L 256.461988 -88.199654 
L 256.461988 -89.278906 
L 256.461988 -90.358159 
L 256.461988 -91.437412 
L 256.461988 -92.516665 
L 256.461988 -93.595918 
L 256.461988 -94.675171 
L 256.461988 -95.754424 
L 256.461988 -96.833676 
L 256.461988 -97.912929 
L 256.461988 -98.992182 
L 256.461988 -100.071435 
L 256.461988 -101.150688 
L 256.461988 -102.229941 
L 256.461988 -103.309193 
L 256.461988 -104.388446 
L 256.461988 -105.467699 
L 256.461988 -106.546952 
L 256.461988 -107.626205 
L 256.461988 -108.705458 
L 256.461988 -109.784711 
L 256.461988 -110.863963 
L 256.461988 -111.943216 
L 256.461988 -113.022469 
L 256.461988 -114.101722 
L 256.461988 -115.180975 
L 256.461988 -116.260228 
L 256.461988 -117.33948 
L 256.461988 -118.418733 
L 256.461988 -119.497986 
L 256.461988 -120.577239 
L 256.461988 -121.656492 
L 256.461988 -122.735745 
L 256.461988 -123.814997 
L 256.461988 -124.89425 
L 256.461988 -125.973503 
L 256.461988 -127.052756 
L 256.461988 -128.132009 
L 256.461988 -129.211262 
L 256.461988 -130.290515 
L 256.461988 -131.369767 
L 256.461988 -132.44902 
L 256.461988 -133.528273 
L 256.461988 -134.607526 
L 256.461988 -135.686779 
L 256.461988 -136.766032 
L 257.458015 -136.766032 
L 257.458015 -136.766032 
L 257.749995 -135.686779 
L 258.103937 -134.607526 
L 258.525648 -133.528273 
L 259.019414 -132.44902 
L 259.587425 -131.369767 
L 260.229238 -130.290515 
L 260.941355 -129.211262 
L 261.716946 -128.132009 
L 262.545798 -127.052756 
L 263.414493 -125.973503 
L 264.306869 -124.89425 
L 265.204708 -123.814997 
L 266.088652 -122.735745 
L 266.939259 -121.656492 
L 267.738126 -120.577239 
L 268.468997 -119.497986 
L 269.118752 -118.418733 
L 269.678221 -117.33948 
L 270.142751 -116.260228 
L 270.512524 -115.180975 
L 270.7926 -114.101722 
L 270.99274 -113.022469 
L 271.127028 -111.943216 
L 271.213369 -110.863963 
L 271.27289 -109.784711 
L 271.329303 -108.705458 
L 271.408239 -107.626205 
L 271.536562 -106.546952 
L 271.741657 -105.467699 
L 272.050672 -104.388446 
L 272.489702 -103.309193 
L 273.082906 -102.229941 
L 273.851583 -101.150688 
L 274.813243 -100.071435 
L 275.980731 -98.992182 
L 277.361501 -97.912929 
L 278.957105 -96.833676 
L 280.763002 -95.754424 
L 282.768732 -94.675171 
L 284.958494 -93.595918 
L 287.3121 -92.516665 
L 289.806266 -91.437412 
L 292.416114 -90.358159 
L 295.116763 -89.278906 
L 297.884843 -88.199654 
L 300.699774 -87.120401 
L 303.544657 -86.041148 
L 306.406673 -84.961895 
L 309.276933 -83.882642 
L 312.14976 -82.803389 
L 315.021493 -81.724137 
L 317.888914 -80.644884 
L 320.747485 -79.565631 
L 323.589593 -78.486378 
L 326.403025 -77.407125 
L 329.169864 -76.327872 
L 331.865952 -75.248619 
L 334.461042 -74.169367 
L 336.919618 -73.090114 
L 339.202353 -72.010861 
L 341.268047 -70.931608 
L 343.075845 -69.852355 
L 344.587521 -68.773102 
L 345.76957 -67.69385 
L 346.594898 -66.614597 
L 347.043965 -65.535344 
L 347.105263 -64.456091 
L 346.775151 -63.376838 
L 346.057089 -62.297585 
L 344.960444 -61.218332 
L 343.499025 -60.13908 
L 341.68959 -59.059827 
L 339.550515 -57.980574 
L 337.100795 -56.901321 
L 334.359513 -55.822068 
L 331.345812 -54.742815 
L 328.079344 -53.663563 
L 324.581106 -52.58431 
L 320.874498 -51.505057 
L 316.986411 -50.425804 
L 312.948143 -49.346551 
L 308.795951 -48.267298 
L 304.571096 -47.188046 
L 300.319307 -46.108793 
L 296.089643 -45.02954 
L 291.932846 -43.950287 
L 287.899314 -42.871034 
L 284.036891 -41.791781 
L 280.388682 -40.712528 
L 276.991113 -39.633276 
L 273.872416 -38.554023 
L 271.051656 -37.47477 
L 268.538383 -36.395517 
L 266.33289 -35.316264 
L 264.427026 -34.237011 
L 262.80544 -33.157759 
L 261.447111 -32.078506 
L 260.327029 -30.999253 
L 259.417853 -29.92 
z
"/>
    </defs>
    <g clip-path="url(#p7233778bf9)">
     <use xlink:href="#ma5b8412d13" x="0" y="216" style="fill: #5c6d71"/>
    </g>
   </g>
   <g id="matplotlib.axis_1">
    <g id="xtick_1">
     <g id="line2d_1">
      <defs>
       <path id="m53e3d9134c" d="M 0 0 
L 0 5 
" style="stroke: #000000; stroke-width: 0.75"/>
      </defs>
      <g>
       <use xlink:href="#m53e3d9134c" x="188.479532" y="192.24" style="stroke: #000000; stroke-width: 0.75"/>
      </g>
     </g>
     <g id="text_1">
      <text style="font: 15px &quot;Suisse Int&apos;l&quot;, sans-serif; text-anchor: middle" x="188.479532" y="213.115" transform="rotate(-0 188.479532 213.115)">top</text>
     </g>
    </g>
    <g id="xtick_2">
     <g id="line2d_2">
      <g>
       <use xlink:href="#m53e3d9134c" x="301.783626" y="192.24" style="stroke: #000000; stroke-width: 0.75"/>
      </g>
     </g>
     <g id="text_2">
      <text style="font: 15px &quot;Suisse Int&apos;l&quot;, sans-serif; text-anchor: middle" x="301.783626" y="213.115" transform="rotate(-0 301.783626 213.115)">middle</text>
     </g>
    </g>
    <g id="text_3">
     <text style="font: 500 15px &quot;Suisse Int&apos;l&quot;, sans-serif; text-anchor: middle" x="245.131579" y="236.615" transform="rotate(-0 245.131579 236.615)">Position_in_tube</text>
    </g>
   </g>
   <g id="matplotlib.axis_2">
    <g id="ytick_1">
     <g id="line2d_3">
      <defs>
       <path id="m26bb5b56c8" d="M 0 0 
L -5 0 
" style="stroke: #000000; stroke-width: 0.75"/>
      </defs>
      <g>
       <use xlink:href="#m26bb5b56c8" x="135" y="169.683492" style="stroke: #000000; stroke-width: 0.75"/>
      </g>
     </g>
     <g id="text_4">
      <text style="font: 15px &quot;Suisse Int&apos;l&quot;, sans-serif; text-anchor: end" x="125" y="175.120992" transform="rotate(-0 125 175.120992)">0.0</text>
     </g>
    </g>
    <g id="ytick_2">
     <g id="line2d_4">
      <g>
       <use xlink:href="#m26bb5b56c8" x="135" y="129.567177" style="stroke: #000000; stroke-width: 0.75"/>
      </g>
     </g>
     <g id="text_5">
      <text style="font: 15px &quot;Suisse Int&apos;l&quot;, sans-serif; text-anchor: end" x="125" y="135.004677" transform="rotate(-0 125 135.004677)">0.2</text>
     </g>
    </g>
    <g id="ytick_3">
     <g id="line2d_5">
      <g>
       <use xlink:href="#m26bb5b56c8" x="135" y="89.450863" style="stroke: #000000; stroke-width: 0.75"/>
      </g>
     </g>
     <g id="text_6">
      <text style="font: 15px &quot;Suisse Int&apos;l&quot;, sans-serif; text-anchor: end" x="125" y="94.888363" transform="rotate(-0 125 94.888363)">0.4</text>
     </g>
    </g>
    <g id="ytick_4">
     <g id="line2d_6">
      <g>
       <use xlink:href="#m26bb5b56c8" x="135" y="49.334549" style="stroke: #000000; stroke-width: 0.75"/>
      </g>
     </g>
     <g id="text_7">
      <text style="font: 15px &quot;Suisse Int&apos;l&quot;, sans-serif; text-anchor: end" x="125" y="54.772049" transform="rotate(-0 125 54.772049)">0.6</text>
     </g>
    </g>
    <g id="text_8">
     <text style="font: 500 15px &quot;Suisse Int&apos;l&quot;, sans-serif; text-anchor: middle" x="88.871875" y="109.08" transform="rotate(-90 88.871875 109.08)">Confinement_ratio</text>
    </g>
   </g>
   <g id="line2d_7">
    <path d="M 231.30117 169.447443 
L 231.30117 119.700094 
" clip-path="url(#p7233778bf9)" style="fill: none; stroke: #3e3e3e; stroke-width: 1.666667; stroke-linecap: round"/>
   </g>
   <g id="line2d_8">
    <path d="M 231.30117 161.461987 
L 231.30117 142.561526 
" clip-path="url(#p7233778bf9)" style="fill: none; stroke: #3e3e3e; stroke-width: 5; stroke-linecap: round"/>
   </g>
   <g id="line2d_9">
    <path d="M 231.30117 152.865406 
" clip-path="url(#p7233778bf9)" style="fill: none; stroke: #3e3e3e; stroke-width: 2; stroke-linecap: round"/>
    <defs>
     <path id="mc0132bf47e" d="M 2.083333 0 
L -2.083333 -0 
" style="stroke: #ffffff"/>
    </defs>
    <g clip-path="url(#p7233778bf9)">
     <use xlink:href="#mc0132bf47e" x="231.30117" y="152.865406" style="fill: #ffffff; stroke: #ffffff"/>
    </g>
   </g>
   <g id="line2d_10">
    <path d="M 258.961988 168.61468 
L 258.961988 106.841173 
" clip-path="url(#p7233778bf9)" style="fill: none; stroke: #3e3e3e; stroke-width: 1.666667; stroke-linecap: round"/>
   </g>
   <g id="line2d_11">
    <path d="M 258.961988 157.839269 
L 258.961988 134.635362 
" clip-path="url(#p7233778bf9)" style="fill: none; stroke: #3e3e3e; stroke-width: 5; stroke-linecap: round"/>
   </g>
   <g id="line2d_12">
    <path d="M 258.961988 147.882815 
" clip-path="url(#p7233778bf9)" style="fill: none; stroke: #3e3e3e; stroke-width: 2; stroke-linecap: round"/>
    <g clip-path="url(#p7233778bf9)">
     <use xlink:href="#mc0132bf47e" x="258.961988" y="147.882815" style="fill: #ffffff; stroke: #ffffff"/>
    </g>
   </g>
   <g id="line2d_13">
    <path d="M 222.47076 32.08 
L 267.792398 32.08 
" clip-path="url(#p7233778bf9)" style="fill: none; stroke: #000000; stroke-width: 2; stroke-linecap: round"/>
   </g>
   <g id="patch_3">
    <path d="M 135 192.24 
L 135 25.92 
" style="fill: none; stroke: #000000; stroke-width: 0.75; stroke-linejoin: miter; stroke-linecap: square"/>
   </g>
   <g id="patch_4">
    <path d="M 135 192.24 
L 355.263158 192.24 
" style="fill: none; stroke: #000000; stroke-width: 0.75; stroke-linejoin: miter; stroke-linecap: square"/>
   </g>
   <g id="text_9">
    <text style="font: 16px &quot;Suisse Int&apos;l&quot;, sans-serif; text-anchor: middle" x="245.131579" y="25.199825" transform="rotate(-0 245.131579 25.199825)">ns</text>
   </g>
  </g>
  <g id="axes_2">
   <g id="patch_5">
    <path d="M 443.368421 192.24 
L 663.631579 192.24 
L 663.631579 25.92 
L 443.368421 25.92 
L 443.368421 192.24 
z
" style="fill: none"/>
   </g>
   <g id="PolyCollection_3">
    <defs>
     <path id="mab4470e990" d="M 542.169591 -29.92 
L 540.107436 -29.92 
L 539.346967 -31.188721 
L 538.379149 -32.457443 
L 537.174625 -33.726164 
L 535.708664 -34.994885 
L 533.964077 -36.263607 
L 531.93403 -37.532328 
L 529.624351 -38.80105 
L 527.054954 -40.069771 
L 524.26003 -41.338492 
L 521.286772 -42.607214 
L 518.192601 -43.875935 
L 515.041032 -45.144656 
L 511.896543 -46.413378 
L 508.818991 -47.682099 
L 505.858209 -48.95082 
L 503.049443 -50.219542 
L 500.410217 -51.488263 
L 497.939038 -52.756985 
L 495.616157 -54.025706 
L 493.406321 -55.294427 
L 491.263229 -56.563149 
L 489.135202 -57.83187 
L 486.971439 -59.100591 
L 484.728153 -60.369313 
L 482.373943 -61.638034 
L 479.893798 -62.906755 
L 477.291318 -64.175477 
L 474.588914 -65.444198 
L 471.82599 -66.712919 
L 469.055292 -67.981641 
L 466.337871 -69.250362 
L 463.737241 -70.519084 
L 461.31343 -71.787805 
L 459.117661 -73.056526 
L 457.18832 -74.325248 
L 455.548729 -75.593969 
L 454.206954 -76.86269 
L 453.157646 -78.131412 
L 452.385522 -79.400133 
L 451.869894 -80.668854 
L 451.589431 -81.937576 
L 451.526316 -83.206297 
L 451.669075 -84.475019 
L 452.013602 -85.74374 
L 452.562265 -87.012461 
L 453.321369 -88.281183 
L 454.29758 -89.549904 
L 455.494158 -90.818625 
L 456.907844 -92.087347 
L 458.527135 -93.356068 
L 460.332329 -94.624789 
L 462.297346 -95.893511 
L 464.392887 -97.162232 
L 466.590217 -98.430954 
L 468.864706 -99.699675 
L 471.198323 -100.968396 
L 473.580552 -102.237118 
L 476.007571 -103.505839 
L 478.479927 -104.77456 
L 480.999318 -106.043282 
L 483.565234 -107.312003 
L 486.172237 -108.580724 
L 488.808486 -109.849446 
L 491.455765 -111.118167 
L 494.090963 -112.386888 
L 496.688615 -113.65561 
L 499.223918 -114.924331 
L 501.675581 -116.193053 
L 504.027969 -117.461774 
L 506.272207 -118.730495 
L 508.406156 -119.999217 
L 510.433434 -121.267938 
L 512.3618 -122.536659 
L 514.20133 -123.805381 
L 515.962741 -125.074102 
L 517.65614 -126.342823 
L 519.290291 -127.611545 
L 520.872382 -128.880266 
L 522.408114 -130.148988 
L 523.90192 -131.417709 
L 525.357133 -132.68643 
L 526.775983 -133.955152 
L 528.159393 -135.223873 
L 529.506654 -136.492594 
L 530.815106 -137.761316 
L 532.07995 -139.030037 
L 533.294343 -140.298758 
L 534.4498 -141.56748 
L 535.536907 -142.836201 
L 536.546241 -144.104923 
L 537.469371 -145.373644 
L 538.299776 -146.642365 
L 539.033556 -147.911087 
L 539.669832 -149.179808 
L 540.21081 -150.448529 
L 540.66152 -151.717251 
L 541.029304 -152.985972 
L 541.323147 -154.254693 
L 541.552949 -155.523415 
L 542.169591 -155.523415 
L 542.169591 -155.523415 
L 542.169591 -154.254693 
L 542.169591 -152.985972 
L 542.169591 -151.717251 
L 542.169591 -150.448529 
L 542.169591 -149.179808 
L 542.169591 -147.911087 
L 542.169591 -146.642365 
L 542.169591 -145.373644 
L 542.169591 -144.104923 
L 542.169591 -142.836201 
L 542.169591 -141.56748 
L 542.169591 -140.298758 
L 542.169591 -139.030037 
L 542.169591 -137.761316 
L 542.169591 -136.492594 
L 542.169591 -135.223873 
L 542.169591 -133.955152 
L 542.169591 -132.68643 
L 542.169591 -131.417709 
L 542.169591 -130.148988 
L 542.169591 -128.880266 
L 542.169591 -127.611545 
L 542.169591 -126.342823 
L 542.169591 -125.074102 
L 542.169591 -123.805381 
L 542.169591 -122.536659 
L 542.169591 -121.267938 
L 542.169591 -119.999217 
L 542.169591 -118.730495 
L 542.169591 -117.461774 
L 542.169591 -116.193053 
L 542.169591 -114.924331 
L 542.169591 -113.65561 
L 542.169591 -112.386888 
L 542.169591 -111.118167 
L 542.169591 -109.849446 
L 542.169591 -108.580724 
L 542.169591 -107.312003 
L 542.169591 -106.043282 
L 542.169591 -104.77456 
L 542.169591 -103.505839 
L 542.169591 -102.237118 
L 542.169591 -100.968396 
L 542.169591 -99.699675 
L 542.169591 -98.430954 
L 542.169591 -97.162232 
L 542.169591 -95.893511 
L 542.169591 -94.624789 
L 542.169591 -93.356068 
L 542.169591 -92.087347 
L 542.169591 -90.818625 
L 542.169591 -89.549904 
L 542.169591 -88.281183 
L 542.169591 -87.012461 
L 542.169591 -85.74374 
L 542.169591 -84.475019 
L 542.169591 -83.206297 
L 542.169591 -81.937576 
L 542.169591 -80.668854 
L 542.169591 -79.400133 
L 542.169591 -78.131412 
L 542.169591 -76.86269 
L 542.169591 -75.593969 
L 542.169591 -74.325248 
L 542.169591 -73.056526 
L 542.169591 -71.787805 
L 542.169591 -70.519084 
L 542.169591 -69.250362 
L 542.169591 -67.981641 
L 542.169591 -66.712919 
L 542.169591 -65.444198 
L 542.169591 -64.175477 
L 542.169591 -62.906755 
L 542.169591 -61.638034 
L 542.169591 -60.369313 
L 542.169591 -59.100591 
L 542.169591 -57.83187 
L 542.169591 -56.563149 
L 542.169591 -55.294427 
L 542.169591 -54.025706 
L 542.169591 -52.756985 
L 542.169591 -51.488263 
L 542.169591 -50.219542 
L 542.169591 -48.95082 
L 542.169591 -47.682099 
L 542.169591 -46.413378 
L 542.169591 -45.144656 
L 542.169591 -43.875935 
L 542.169591 -42.607214 
L 542.169591 -41.338492 
L 542.169591 -40.069771 
L 542.169591 -38.80105 
L 542.169591 -37.532328 
L 542.169591 -36.263607 
L 542.169591 -34.994885 
L 542.169591 -33.726164 
L 542.169591 -32.457443 
L 542.169591 -31.188721 
L 542.169591 -29.92 
z
"/>
    </defs>
    <g clip-path="url(#pee109c757b)">
     <use xlink:href="#mab4470e990" x="0" y="216" style="fill: #b4bba7"/>
    </g>
   </g>
   <g id="PolyCollection_4">
    <defs>
     <path id="m0a086d335d" d="M 565.754421 -32.448888 
L 564.830409 -32.448888 
L 564.830409 -33.468742 
L 564.830409 -34.488597 
L 564.830409 -35.508452 
L 564.830409 -36.528306 
L 564.830409 -37.548161 
L 564.830409 -38.568016 
L 564.830409 -39.58787 
L 564.830409 -40.607725 
L 564.830409 -41.62758 
L 564.830409 -42.647434 
L 564.830409 -43.667289 
L 564.830409 -44.687144 
L 564.830409 -45.706999 
L 564.830409 -46.726853 
L 564.830409 -47.746708 
L 564.830409 -48.766563 
L 564.830409 -49.786417 
L 564.830409 -50.806272 
L 564.830409 -51.826127 
L 564.830409 -52.845981 
L 564.830409 -53.865836 
L 564.830409 -54.885691 
L 564.830409 -55.905545 
L 564.830409 -56.9254 
L 564.830409 -57.945255 
L 564.830409 -58.965109 
L 564.830409 -59.984964 
L 564.830409 -61.004819 
L 564.830409 -62.024673 
L 564.830409 -63.044528 
L 564.830409 -64.064383 
L 564.830409 -65.084237 
L 564.830409 -66.104092 
L 564.830409 -67.123947 
L 564.830409 -68.143801 
L 564.830409 -69.163656 
L 564.830409 -70.183511 
L 564.830409 -71.203365 
L 564.830409 -72.22322 
L 564.830409 -73.243075 
L 564.830409 -74.262929 
L 564.830409 -75.282784 
L 564.830409 -76.302639 
L 564.830409 -77.322493 
L 564.830409 -78.342348 
L 564.830409 -79.362203 
L 564.830409 -80.382057 
L 564.830409 -81.401912 
L 564.830409 -82.421767 
L 564.830409 -83.441622 
L 564.830409 -84.461476 
L 564.830409 -85.481331 
L 564.830409 -86.501186 
L 564.830409 -87.52104 
L 564.830409 -88.540895 
L 564.830409 -89.56075 
L 564.830409 -90.580604 
L 564.830409 -91.600459 
L 564.830409 -92.620314 
L 564.830409 -93.640168 
L 564.830409 -94.660023 
L 564.830409 -95.679878 
L 564.830409 -96.699732 
L 564.830409 -97.719587 
L 564.830409 -98.739442 
L 564.830409 -99.759296 
L 564.830409 -100.779151 
L 564.830409 -101.799006 
L 564.830409 -102.81886 
L 564.830409 -103.838715 
L 564.830409 -104.85857 
L 564.830409 -105.878424 
L 564.830409 -106.898279 
L 564.830409 -107.918134 
L 564.830409 -108.937988 
L 564.830409 -109.957843 
L 564.830409 -110.977698 
L 564.830409 -111.997552 
L 564.830409 -113.017407 
L 564.830409 -114.037262 
L 564.830409 -115.057116 
L 564.830409 -116.076971 
L 564.830409 -117.096826 
L 564.830409 -118.11668 
L 564.830409 -119.136535 
L 564.830409 -120.15639 
L 564.830409 -121.176245 
L 564.830409 -122.196099 
L 564.830409 -123.215954 
L 564.830409 -124.235809 
L 564.830409 -125.255663 
L 564.830409 -126.275518 
L 564.830409 -127.295373 
L 564.830409 -128.315227 
L 564.830409 -129.335082 
L 564.830409 -130.354937 
L 564.830409 -131.374791 
L 564.830409 -132.394646 
L 564.830409 -133.414501 
L 566.075738 -133.414501 
L 566.075738 -133.414501 
L 566.458492 -132.394646 
L 566.92754 -131.374791 
L 567.492282 -130.354937 
L 568.160258 -129.335082 
L 568.936292 -128.315227 
L 569.82167 -127.295373 
L 570.813433 -126.275518 
L 571.903874 -125.255663 
L 573.080314 -124.235809 
L 574.325223 -123.215954 
L 575.616718 -122.196099 
L 576.929427 -121.176245 
L 578.235701 -120.15639 
L 579.507075 -119.136535 
L 580.715904 -118.11668 
L 581.837028 -117.096826 
L 582.849371 -116.076971 
L 583.737346 -115.057116 
L 584.491972 -114.037262 
L 585.111647 -113.017407 
L 585.602526 -111.997552 
L 585.978512 -110.977698 
L 586.260855 -109.957843 
L 586.477414 -108.937988 
L 586.661613 -107.918134 
L 586.851149 -106.898279 
L 587.086523 -105.878424 
L 587.409441 -104.85857 
L 587.861153 -103.838715 
L 588.480809 -102.81886 
L 589.30388 -101.799006 
L 590.360718 -100.779151 
L 591.67531 -99.759296 
L 593.264263 -98.739442 
L 595.13607 -97.719587 
L 597.290662 -96.699732 
L 599.719276 -95.679878 
L 602.404621 -94.660023 
L 605.321368 -93.640168 
L 608.436946 -92.620314 
L 611.712649 -91.600459 
L 615.105035 -90.580604 
L 618.567593 -89.56075 
L 622.052605 -88.540895 
L 625.513123 -87.52104 
L 628.904902 -86.501186 
L 632.188136 -85.481331 
L 635.328781 -84.461476 
L 638.299313 -83.441622 
L 641.078751 -82.421767 
L 643.651906 -81.401912 
L 646.007874 -80.382057 
L 648.137951 -79.362203 
L 650.033214 -78.342348 
L 651.682143 -77.322493 
L 653.068653 -76.302639 
L 654.170914 -75.282784 
L 654.961233 -74.262929 
L 655.407147 -73.243075 
L 655.473684 -72.22322 
L 655.126588 -71.203365 
L 654.33613 -70.183511 
L 653.08103 -69.163656 
L 651.351954 -68.143801 
L 649.154133 -67.123947 
L 646.508705 -66.104092 
L 643.452606 -65.084237 
L 640.036993 -64.064383 
L 636.32438 -63.044528 
L 632.384843 -62.024673 
L 628.291738 -61.004819 
L 624.117405 -59.984964 
L 619.929321 -58.965109 
L 615.787044 -57.945255 
L 611.740193 -56.9254 
L 607.827515 -55.905545 
L 604.077009 -54.885691 
L 600.506902 -53.865836 
L 597.127245 -52.845981 
L 593.941835 -51.826127 
L 590.950183 -50.806272 
L 588.149311 -49.786417 
L 585.535199 -48.766563 
L 583.103788 -47.746708 
L 580.851542 -46.726853 
L 578.775585 -45.706999 
L 576.873517 -44.687144 
L 575.143019 -43.667289 
L 573.581356 -42.647434 
L 572.184889 -41.62758 
L 570.948678 -40.607725 
L 569.866232 -39.58787 
L 568.929426 -38.568016 
L 568.128591 -37.548161 
L 567.452746 -36.528306 
L 566.889944 -35.508452 
L 566.427675 -34.488597 
L 566.053294 -33.468742 
L 565.754421 -32.448888 
z
"/>
    </defs>
    <g clip-path="url(#pee109c757b)">
     <use xlink:href="#m0a086d335d" x="0" y="216" style="fill: #5c6d71"/>
    </g>
   </g>
   <g id="matplotlib.axis_3">
    <g id="xtick_3">
     <g id="line2d_14">
      <g>
       <use xlink:href="#m53e3d9134c" x="496.847953" y="192.24" style="stroke: #000000; stroke-width: 0.75"/>
      </g>
     </g>
     <g id="text_10">
      <text style="font: 15px &quot;Suisse Int&apos;l&quot;, sans-serif; text-anchor: middle" x="496.847953" y="213.115" transform="rotate(-0 496.847953 213.115)">top</text>
     </g>
    </g>
    <g id="xtick_4">
     <g id="line2d_15">
      <g>
       <use xlink:href="#m53e3d9134c" x="610.152047" y="192.24" style="stroke: #000000; stroke-width: 0.75"/>
      </g>
     </g>
     <g id="text_11">
      <text style="font: 15px &quot;Suisse Int&apos;l&quot;, sans-serif; text-anchor: middle" x="610.152047" y="213.115" transform="rotate(-0 610.152047 213.115)">middle</text>
     </g>
    </g>
    <g id="text_12">
     <text style="font: 500 15px &quot;Suisse Int&apos;l&quot;, sans-serif; text-anchor: middle" x="553.5" y="236.615" transform="rotate(-0 553.5 236.615)">Position_in_tube</text>
    </g>
   </g>
   <g id="matplotlib.axis_4">
    <g id="ytick_5">
     <g id="line2d_16">
      <g>
       <use xlink:href="#m26bb5b56c8" x="443.368421" y="172.314692" style="stroke: #000000; stroke-width: 0.75"/>
      </g>
     </g>
     <g id="text_13">
      <text style="font: 15px &quot;Suisse Int&apos;l&quot;, sans-serif; text-anchor: end" x="433.368421" y="177.752192" transform="rotate(-0 433.368421 177.752192)">0</text>
     </g>
    </g>
    <g id="ytick_6">
     <g id="line2d_17">
      <g>
       <use xlink:href="#m26bb5b56c8" x="443.368421" y="111.023702" style="stroke: #000000; stroke-width: 0.75"/>
      </g>
     </g>
     <g id="text_14">
      <text style="font: 15px &quot;Suisse Int&apos;l&quot;, sans-serif; text-anchor: end" x="433.368421" y="116.461202" transform="rotate(-0 433.368421 116.461202)">50</text>
     </g>
    </g>
    <g id="ytick_7">
     <g id="line2d_18">
      <g>
       <use xlink:href="#m26bb5b56c8" x="443.368421" y="49.732712" style="stroke: #000000; stroke-width: 0.75"/>
      </g>
     </g>
     <g id="text_15">
      <text style="font: 15px &quot;Suisse Int&apos;l&quot;, sans-serif; text-anchor: end" x="433.368421" y="55.170212" transform="rotate(-0 433.368421 55.170212)">100</text>
     </g>
    </g>
    <g id="text_16">
     <text style="font: 500 15px &quot;Suisse Int&apos;l&quot;, sans-serif; text-anchor: middle" x="395.395765" y="109.08" transform="rotate(-90 395.395765 109.08)">Mean_curvilinear_speed</text>
    </g>
   </g>
   <g id="line2d_19">
    <path d="M 539.669591 168.714017 
L 539.669591 77.842569 
" clip-path="url(#pee109c757b)" style="fill: none; stroke: #3e3e3e; stroke-width: 1.666667; stroke-linecap: round"/>
   </g>
   <g id="line2d_20">
    <path d="M 539.669591 145.118305 
L 539.669591 114.393724 
" clip-path="url(#pee109c757b)" style="fill: none; stroke: #3e3e3e; stroke-width: 5; stroke-linecap: round"/>
   </g>
   <g id="line2d_21">
    <path d="M 539.669591 131.64917 
" clip-path="url(#pee109c757b)" style="fill: none; stroke: #3e3e3e; stroke-width: 2; stroke-linecap: round"/>
    <g clip-path="url(#pee109c757b)">
     <use xlink:href="#mc0132bf47e" x="539.669591" y="131.64917" style="fill: #ffffff; stroke: #ffffff"/>
    </g>
   </g>
   <g id="line2d_22">
    <path d="M 567.330409 167.520934 
L 567.330409 108.350659 
" clip-path="url(#pee109c757b)" style="fill: none; stroke: #3e3e3e; stroke-width: 1.666667; stroke-linecap: round"/>
   </g>
   <g id="line2d_23">
    <path d="M 567.330409 148.197098 
L 567.330409 130.917428 
" clip-path="url(#pee109c757b)" style="fill: none; stroke: #3e3e3e; stroke-width: 5; stroke-linecap: round"/>
   </g>
   <g id="line2d_24">
    <path d="M 567.330409 138.658465 
" clip-path="url(#pee109c757b)" style="fill: none; stroke: #3e3e3e; stroke-width: 2; stroke-linecap: round"/>
    <g clip-path="url(#pee109c757b)">
     <use xlink:href="#mc0132bf47e" x="567.330409" y="138.658465" style="fill: #ffffff; stroke: #ffffff"/>
    </g>
   </g>
   <g id="line2d_25">
    <path d="M 530.839181 32.08 
L 576.160819 32.08 
" clip-path="url(#pee109c757b)" style="fill: none; stroke: #000000; stroke-width: 2; stroke-linecap: round"/>
   </g>
   <g id="patch_6">
    <path d="M 443.368421 192.24 
L 443.368421 25.92 
" style="fill: none; stroke: #000000; stroke-width: 0.75; stroke-linejoin: miter; stroke-linecap: square"/>
   </g>
   <g id="patch_7">
    <path d="M 443.368421 192.24 
L 663.631579 192.24 
" style="fill: none; stroke: #000000; stroke-width: 0.75; stroke-linejoin: miter; stroke-linecap: square"/>
   </g>
   <g id="text_17">
    <text style="font: 20px &quot;Suisse Int&apos;l&quot;, sans-serif; text-anchor: middle" x="553.5" y="32.08" transform="rotate(-0 553.5 32.08)">*</text>
   </g>
  </g>
  <g id="axes_3">
   <g id="patch_8">
    <path d="M 751.736842 192.24 
L 972 192.24 
L 972 25.92 
L 751.736842 25.92 
L 751.736842 192.24 
z
" style="fill: none"/>
   </g>
   <g id="PolyCollection_5">
    <defs>
     <path id="m7ff5cf305d" d="M 850.538012 -29.92 
L 848.545753 -29.92 
L 847.495671 -31.18021 
L 846.012948 -32.440421 
L 843.981088 -33.700631 
L 841.279452 -34.960842 
L 837.795074 -36.221052 
L 833.437907 -37.481263 
L 828.158193 -38.741473 
L 821.963859 -40.001683 
L 814.935225 -41.261894 
L 807.234096 -42.522104 
L 799.104685 -43.782315 
L 790.864672 -45.042525 
L 782.886157 -46.302736 
L 775.567818 -47.562946 
L 769.301174 -48.823156 
L 764.434987 -50.083367 
L 761.242342 -51.343577 
L 759.894737 -52.603788 
L 760.446538 -53.863998 
L 762.8317 -55.124209 
L 766.872893 -56.384419 
L 772.301467 -57.64463 
L 778.785328 -58.90484 
L 785.960908 -60.16505 
L 793.46519 -61.425261 
L 800.964097 -62.685471 
L 808.174452 -63.945682 
L 814.877862 -65.205892 
L 820.926162 -66.466103 
L 826.239194 -67.726313 
L 830.796549 -68.986523 
L 834.625353 -70.246734 
L 837.786306 -71.506944 
L 840.359889 -72.767155 
L 842.43425 -74.027365 
L 844.095678 -75.287576 
L 845.422071 -76.547786 
L 846.479291 -77.807996 
L 847.319999 -79.068207 
L 847.984364 -80.328417 
L 848.501964 -81.588628 
L 848.894262 -82.848838 
L 849.177155 -84.109049 
L 849.363226 -85.369259 
L 849.463504 -86.629469 
L 849.488635 -87.88968 
L 849.449496 -89.14989 
L 849.357294 -90.410101 
L 849.223306 -91.670311 
L 849.058363 -92.930522 
L 848.872249 -94.190732 
L 848.673179 -95.450943 
L 848.46747 -96.711153 
L 848.259519 -97.971363 
L 848.052121 -99.231574 
L 847.847057 -100.491784 
L 847.645852 -101.751995 
L 847.450519 -103.012205 
L 847.264096 -104.272416 
L 847.09083 -105.532626 
L 846.935928 -106.792836 
L 846.804905 -108.053047 
L 846.702651 -109.313257 
L 846.632445 -110.573468 
L 846.595146 -111.833678 
L 846.588787 -113.093889 
L 846.608701 -114.354099 
L 846.6482 -115.614309 
L 846.699689 -116.87452 
L 846.756002 -118.13473 
L 846.811668 -119.394941 
L 846.863852 -120.655151 
L 846.912743 -121.915362 
L 846.961323 -123.175572 
L 847.014554 -124.435782 
L 847.078172 -125.695993 
L 847.157361 -126.956203 
L 847.255625 -128.216414 
L 847.37409 -129.476624 
L 847.511398 -130.736835 
L 847.664178 -131.997045 
L 847.827941 -133.257255 
L 847.998132 -134.517466 
L 848.171061 -135.777676 
L 848.34446 -137.037887 
L 848.517556 -138.298097 
L 848.690691 -139.558308 
L 848.864626 -140.818518 
L 849.039784 -142.078729 
L 849.215635 -143.338939 
L 849.390413 -144.599149 
L 849.561187 -145.85936 
L 849.724275 -147.11957 
L 849.875826 -148.379781 
L 850.012444 -149.639991 
L 850.131676 -150.900202 
L 850.232299 -152.160412 
L 850.314361 -153.420622 
L 850.379014 -154.680833 
L 850.538012 -154.680833 
L 850.538012 -154.680833 
L 850.538012 -153.420622 
L 850.538012 -152.160412 
L 850.538012 -150.900202 
L 850.538012 -149.639991 
L 850.538012 -148.379781 
L 850.538012 -147.11957 
L 850.538012 -145.85936 
L 850.538012 -144.599149 
L 850.538012 -143.338939 
L 850.538012 -142.078729 
L 850.538012 -140.818518 
L 850.538012 -139.558308 
L 850.538012 -138.298097 
L 850.538012 -137.037887 
L 850.538012 -135.777676 
L 850.538012 -134.517466 
L 850.538012 -133.257255 
L 850.538012 -131.997045 
L 850.538012 -130.736835 
L 850.538012 -129.476624 
L 850.538012 -128.216414 
L 850.538012 -126.956203 
L 850.538012 -125.695993 
L 850.538012 -124.435782 
L 850.538012 -123.175572 
L 850.538012 -121.915362 
L 850.538012 -120.655151 
L 850.538012 -119.394941 
L 850.538012 -118.13473 
L 850.538012 -116.87452 
L 850.538012 -115.614309 
L 850.538012 -114.354099 
L 850.538012 -113.093889 
L 850.538012 -111.833678 
L 850.538012 -110.573468 
L 850.538012 -109.313257 
L 850.538012 -108.053047 
L 850.538012 -106.792836 
L 850.538012 -105.532626 
L 850.538012 -104.272416 
L 850.538012 -103.012205 
L 850.538012 -101.751995 
L 850.538012 -100.491784 
L 850.538012 -99.231574 
L 850.538012 -97.971363 
L 850.538012 -96.711153 
L 850.538012 -95.450943 
L 850.538012 -94.190732 
L 850.538012 -92.930522 
L 850.538012 -91.670311 
L 850.538012 -90.410101 
L 850.538012 -89.14989 
L 850.538012 -87.88968 
L 850.538012 -86.629469 
L 850.538012 -85.369259 
L 850.538012 -84.109049 
L 850.538012 -82.848838 
L 850.538012 -81.588628 
L 850.538012 -80.328417 
L 850.538012 -79.068207 
L 850.538012 -77.807996 
L 850.538012 -76.547786 
L 850.538012 -75.287576 
L 850.538012 -74.027365 
L 850.538012 -72.767155 
L 850.538012 -71.506944 
L 850.538012 -70.246734 
L 850.538012 -68.986523 
L 850.538012 -67.726313 
L 850.538012 -66.466103 
L 850.538012 -65.205892 
L 850.538012 -63.945682 
L 850.538012 -62.685471 
L 850.538012 -61.425261 
L 850.538012 -60.16505 
L 850.538012 -58.90484 
L 850.538012 -57.64463 
L 850.538012 -56.384419 
L 850.538012 -55.124209 
L 850.538012 -53.863998 
L 850.538012 -52.603788 
L 850.538012 -51.343577 
L 850.538012 -50.083367 
L 850.538012 -48.823156 
L 850.538012 -47.562946 
L 850.538012 -46.302736 
L 850.538012 -45.042525 
L 850.538012 -43.782315 
L 850.538012 -42.522104 
L 850.538012 -41.261894 
L 850.538012 -40.001683 
L 850.538012 -38.741473 
L 850.538012 -37.481263 
L 850.538012 -36.221052 
L 850.538012 -34.960842 
L 850.538012 -33.700631 
L 850.538012 -32.440421 
L 850.538012 -31.18021 
L 850.538012 -29.92 
z
"/>
    </defs>
    <g clip-path="url(#pbb9b575a71)">
     <use xlink:href="#m7ff5cf305d" x="0" y="216" style="fill: #b4bba7"/>
    </g>
   </g>
   <g id="PolyCollection_6">
    <defs>
     <path id="md709b6f826" d="M 876.422874 -35.545465 
L 873.19883 -35.545465 
L 873.19883 -36.457988 
L 873.19883 -37.370512 
L 873.19883 -38.283035 
L 873.19883 -39.195558 
L 873.19883 -40.108082 
L 873.19883 -41.020605 
L 873.19883 -41.933128 
L 873.19883 -42.845652 
L 873.19883 -43.758175 
L 873.19883 -44.670698 
L 873.19883 -45.583221 
L 873.19883 -46.495745 
L 873.19883 -47.408268 
L 873.19883 -48.320791 
L 873.19883 -49.233315 
L 873.19883 -50.145838 
L 873.19883 -51.058361 
L 873.19883 -51.970884 
L 873.19883 -52.883408 
L 873.19883 -53.795931 
L 873.19883 -54.708454 
L 873.19883 -55.620978 
L 873.19883 -56.533501 
L 873.19883 -57.446024 
L 873.19883 -58.358547 
L 873.19883 -59.271071 
L 873.19883 -60.183594 
L 873.19883 -61.096117 
L 873.19883 -62.008641 
L 873.19883 -62.921164 
L 873.19883 -63.833687 
L 873.19883 -64.74621 
L 873.19883 -65.658734 
L 873.19883 -66.571257 
L 873.19883 -67.48378 
L 873.19883 -68.396304 
L 873.19883 -69.308827 
L 873.19883 -70.22135 
L 873.19883 -71.133873 
L 873.19883 -72.046397 
L 873.19883 -72.95892 
L 873.19883 -73.871443 
L 873.19883 -74.783967 
L 873.19883 -75.69649 
L 873.19883 -76.609013 
L 873.19883 -77.521537 
L 873.19883 -78.43406 
L 873.19883 -79.346583 
L 873.19883 -80.259106 
L 873.19883 -81.17163 
L 873.19883 -82.084153 
L 873.19883 -82.996676 
L 873.19883 -83.9092 
L 873.19883 -84.821723 
L 873.19883 -85.734246 
L 873.19883 -86.646769 
L 873.19883 -87.559293 
L 873.19883 -88.471816 
L 873.19883 -89.384339 
L 873.19883 -90.296863 
L 873.19883 -91.209386 
L 873.19883 -92.121909 
L 873.19883 -93.034432 
L 873.19883 -93.946956 
L 873.19883 -94.859479 
L 873.19883 -95.772002 
L 873.19883 -96.684526 
L 873.19883 -97.597049 
L 873.19883 -98.509572 
L 873.19883 -99.422095 
L 873.19883 -100.334619 
L 873.19883 -101.247142 
L 873.19883 -102.159665 
L 873.19883 -103.072189 
L 873.19883 -103.984712 
L 873.19883 -104.897235 
L 873.19883 -105.809758 
L 873.19883 -106.722282 
L 873.19883 -107.634805 
L 873.19883 -108.547328 
L 873.19883 -109.459852 
L 873.19883 -110.372375 
L 873.19883 -111.284898 
L 873.19883 -112.197422 
L 873.19883 -113.109945 
L 873.19883 -114.022468 
L 873.19883 -114.934991 
L 873.19883 -115.847515 
L 873.19883 -116.760038 
L 873.19883 -117.672561 
L 873.19883 -118.585085 
L 873.19883 -119.497608 
L 873.19883 -120.410131 
L 873.19883 -121.322654 
L 873.19883 -122.235178 
L 873.19883 -123.147701 
L 873.19883 -124.060224 
L 873.19883 -124.972748 
L 873.19883 -125.885271 
L 873.619241 -125.885271 
L 873.619241 -125.885271 
L 873.779847 -124.972748 
L 873.979225 -124.060224 
L 874.217537 -123.147701 
L 874.491222 -122.235178 
L 874.792319 -121.322654 
L 875.108302 -120.410131 
L 875.422588 -119.497608 
L 875.715763 -118.585085 
L 875.967463 -117.672561 
L 876.158675 -116.760038 
L 876.274093 -115.847515 
L 876.304142 -114.934991 
L 876.246291 -114.022468 
L 876.1054 -113.109945 
L 875.893051 -112.197422 
L 875.625973 -111.284898 
L 875.323871 -110.372375 
L 875.007041 -109.459852 
L 874.694172 -108.547328 
L 874.400657 -107.634805 
L 874.137587 -106.722282 
L 873.911476 -105.809758 
L 873.724611 -104.897235 
L 873.575834 -103.984712 
L 873.461553 -103.072189 
L 873.376767 -102.159665 
L 873.315958 -101.247142 
L 873.273773 -100.334619 
L 873.245458 -99.422095 
L 873.227081 -98.509572 
L 873.215582 -97.597049 
L 873.208726 -96.684526 
L 873.204991 -95.772002 
L 873.203458 -94.859479 
L 873.203728 -93.946956 
L 873.205874 -93.034432 
L 873.210448 -92.121909 
L 873.218547 -91.209386 
L 873.231908 -90.296863 
L 873.253027 -89.384339 
L 873.285264 -88.471816 
L 873.332887 -87.559293 
L 873.401001 -86.646769 
L 873.495321 -85.734246 
L 873.621741 -84.821723 
L 873.785725 -83.9092 
L 873.991564 -82.996676 
L 874.241629 -82.084153 
L 874.535824 -81.17163 
L 874.871432 -80.259106 
L 875.243592 -79.346583 
L 875.646507 -78.43406 
L 876.075403 -77.521537 
L 876.529015 -76.609013 
L 877.012248 -75.69649 
L 877.538493 -74.783967 
L 878.131071 -73.871443 
L 878.823345 -72.95892 
L 879.657321 -72.046397 
L 880.680844 -71.133873 
L 881.943841 -70.22135 
L 883.494326 -69.308827 
L 885.374979 -68.396304 
L 887.620968 -67.48378 
L 890.259379 -66.571257 
L 893.310092 -65.658734 
L 896.78746 -64.74621 
L 900.701705 -63.833687 
L 905.058792 -62.921164 
L 909.85773 -62.008641 
L 915.084737 -61.096117 
L 920.704563 -60.183594 
L 926.650155 -59.271071 
L 932.812697 -58.358547 
L 939.034579 -57.446024 
L 945.107836 -56.533501 
L 950.780035 -55.620978 
L 955.76845 -54.708454 
L 959.781886 -53.795931 
L 962.547924 -52.883408 
L 963.842105 -51.970884 
L 963.514786 -51.058361 
L 961.511478 -50.145838 
L 957.883294 -49.233315 
L 952.785615 -48.320791 
L 946.464962 -47.408268 
L 939.235896 -46.495745 
L 931.451289 -45.583221 
L 923.47013 -44.670698 
L 915.627175 -43.758175 
L 908.208095 -42.845652 
L 901.432615 -41.933128 
L 895.446691 -41.020605 
L 890.323357 -40.108082 
L 886.070702 -39.195558 
L 882.644709 -38.283035 
L 879.964459 -37.370512 
L 877.927399 -36.457988 
L 876.422874 -35.545465 
z
"/>
    </defs>
    <g clip-path="url(#pbb9b575a71)">
     <use xlink:href="#md709b6f826" x="0" y="216" style="fill: #5c6d71"/>
    </g>
   </g>
   <g id="patch_9">
    <path d="M 805.216374 177.572403 
L 805.216374 177.572403 
L 805.216374 177.572403 
L 805.216374 177.572403 
z
" clip-path="url(#pbb9b575a71)" style="fill: #b4bba7"/>
   </g>
   <g id="patch_10">
    <path d="M 805.216374 177.572403 
L 805.216374 177.572403 
L 805.216374 177.572403 
L 805.216374 177.572403 
z
" clip-path="url(#pbb9b575a71)" style="fill: #5c6d71"/>
   </g>
   <g id="matplotlib.axis_5">
    <g id="xtick_5">
     <g id="line2d_26">
      <g>
       <use xlink:href="#m53e3d9134c" x="805.216374" y="192.24" style="stroke: #000000; stroke-width: 0.75"/>
      </g>
     </g>
     <g id="text_18">
      <text style="font: 15px &quot;Suisse Int&apos;l&quot;, sans-serif; text-anchor: middle" x="805.216374" y="213.115" transform="rotate(-0 805.216374 213.115)">top</text>
     </g>
    </g>
    <g id="xtick_6">
     <g id="line2d_27">
      <g>
       <use xlink:href="#m53e3d9134c" x="918.520468" y="192.24" style="stroke: #000000; stroke-width: 0.75"/>
      </g>
     </g>
     <g id="text_19">
      <text style="font: 15px &quot;Suisse Int&apos;l&quot;, sans-serif; text-anchor: middle" x="918.520468" y="213.115" transform="rotate(-0 918.520468 213.115)">middle</text>
     </g>
    </g>
    <g id="text_20">
     <text style="font: 500 15px &quot;Suisse Int&apos;l&quot;, sans-serif; text-anchor: middle" x="861.868421" y="236.615" transform="rotate(-0 861.868421 236.615)">Position_in_tube</text>
    </g>
   </g>
   <g id="matplotlib.axis_6">
    <g id="ytick_8">
     <g id="line2d_28">
      <g>
       <use xlink:href="#m26bb5b56c8" x="751.736842" y="177.572403" style="stroke: #000000; stroke-width: 0.75"/>
      </g>
     </g>
     <g id="text_21">
      <text style="font: 15px &quot;Suisse Int&apos;l&quot;, sans-serif; text-anchor: end" x="741.736842" y="183.009903" transform="rotate(-0 741.736842 183.009903)">0</text>
     </g>
    </g>
    <g id="ytick_9">
     <g id="line2d_29">
      <g>
       <use xlink:href="#m26bb5b56c8" x="751.736842" y="137.192295" style="stroke: #000000; stroke-width: 0.75"/>
      </g>
     </g>
     <g id="text_22">
      <text style="font: 15px &quot;Suisse Int&apos;l&quot;, sans-serif; text-anchor: end" x="741.736842" y="142.629795" transform="rotate(-0 741.736842 142.629795)">10</text>
     </g>
    </g>
    <g id="ytick_10">
     <g id="line2d_30">
      <g>
       <use xlink:href="#m26bb5b56c8" x="751.736842" y="96.812187" style="stroke: #000000; stroke-width: 0.75"/>
      </g>
     </g>
     <g id="text_23">
      <text style="font: 15px &quot;Suisse Int&apos;l&quot;, sans-serif; text-anchor: end" x="741.736842" y="102.249687" transform="rotate(-0 741.736842 102.249687)">20</text>
     </g>
    </g>
    <g id="ytick_11">
     <g id="line2d_31">
      <g>
       <use xlink:href="#m26bb5b56c8" x="751.736842" y="56.432078" style="stroke: #000000; stroke-width: 0.75"/>
      </g>
     </g>
     <g id="text_24">
      <text style="font: 15px &quot;Suisse Int&apos;l&quot;, sans-serif; text-anchor: end" x="741.736842" y="61.869578" transform="rotate(-0 741.736842 61.869578)">30</text>
     </g>
    </g>
    <g id="text_25">
     <text style="font: 500 15px &quot;Suisse Int&apos;l&quot;, sans-serif; text-anchor: middle" x="710.061842" y="109.08" transform="rotate(-90 710.061842 109.08)">Mean_angular_speed</text>
    </g>
   </g>
   <g id="line2d_32">
    <path d="M 848.038012 171.681188 
L 848.038012 149.131405 
" clip-path="url(#pbb9b575a71)" style="fill: none; stroke: #3e3e3e; stroke-width: 1.666667; stroke-linecap: round"/>
   </g>
   <g id="line2d_33">
    <path d="M 848.038012 166.145147 
L 848.038012 158.233561 
" clip-path="url(#pbb9b575a71)" style="fill: none; stroke: #3e3e3e; stroke-width: 5; stroke-linecap: round"/>
   </g>
   <g id="line2d_34">
    <path d="M 848.038012 162.167181 
" clip-path="url(#pbb9b575a71)" style="fill: none; stroke: #3e3e3e; stroke-width: 2; stroke-linecap: round"/>
    <g clip-path="url(#pbb9b575a71)">
     <use xlink:href="#mc0132bf47e" x="848.038012" y="162.167181" style="fill: #ffffff; stroke: #ffffff"/>
    </g>
   </g>
   <g id="line2d_35">
    <path d="M 875.69883 169.649493 
L 875.69883 151.715552 
" clip-path="url(#pbb9b575a71)" style="fill: none; stroke: #3e3e3e; stroke-width: 1.666667; stroke-linecap: round"/>
   </g>
   <g id="line2d_36">
    <path d="M 875.69883 165.94468 
L 875.69883 159.446549 
" clip-path="url(#pbb9b575a71)" style="fill: none; stroke: #3e3e3e; stroke-width: 5; stroke-linecap: round"/>
   </g>
   <g id="line2d_37">
    <path d="M 875.69883 163.718877 
" clip-path="url(#pbb9b575a71)" style="fill: none; stroke: #3e3e3e; stroke-width: 2; stroke-linecap: round"/>
    <g clip-path="url(#pbb9b575a71)">
     <use xlink:href="#mc0132bf47e" x="875.69883" y="163.718877" style="fill: #ffffff; stroke: #ffffff"/>
    </g>
   </g>
   <g id="line2d_38">
    <path d="M 839.207602 32.08 
L 884.52924 32.08 
" clip-path="url(#pbb9b575a71)" style="fill: none; stroke: #000000; stroke-width: 2; stroke-linecap: round"/>
   </g>
   <g id="patch_11">
    <path d="M 751.736842 192.24 
L 751.736842 25.92 
" style="fill: none; stroke: #000000; stroke-width: 0.75; stroke-linejoin: miter; stroke-linecap: square"/>
   </g>
   <g id="patch_12">
    <path d="M 751.736842 192.24 
L 972 192.24 
" style="fill: none; stroke: #000000; stroke-width: 0.75; stroke-linejoin: miter; stroke-linecap: square"/>
   </g>
   <g id="text_26">
    <text style="font: 16px &quot;Suisse Int&apos;l&quot;, sans-serif; text-anchor: middle" x="861.868421" y="24.80538" transform="rotate(-0 861.868421 24.80538)">ns</text>
   </g>
   <g id="legend_1">
    <g id="text_27">
     <text style="font: 600 16px &quot;Suisse Int&apos;l&quot;, sans-serif; text-anchor: start" x="912.911447" y="37.52" transform="rotate(-0 912.911447 37.52)">Position_in_tube</text>
    </g>
    <g id="line2d_39">
     <path d="M 912.911447 47.82 
L 1030.411447 47.82 
" style="fill: none; stroke: #bab0a8; stroke-width: 1.5; stroke-linecap: round"/>
    </g>
    <g id="patch_13">
     <path d="M 912.911447 70.695 
L 927.911447 70.695 
L 927.911447 55.32 
L 912.911447 55.32 
z
" style="fill: #b4bba7"/>
    </g>
    <g id="text_28">
     <text style="font: 15px &quot;Suisse Int&apos;l&quot;, sans-serif; text-anchor: start" x="933.911447" y="68.07" transform="rotate(-0 933.911447 68.07)">Top | n=105</text>
    </g>
    <g id="patch_14">
     <path d="M 912.911447 93.57 
L 927.911447 93.57 
L 927.911447 78.195 
L 912.911447 78.195 
z
" style="fill: #5c6d71"/>
    </g>
    <g id="text_29">
     <text style="font: 15px &quot;Suisse Int&apos;l&quot;, sans-serif; text-anchor: start" x="933.911447" y="90.945" transform="rotate(-0 933.911447 90.945)">Middle | n=40</text>
    </g>
   </g>
  </g>
 </g>
 <defs>
  <clipPath id="p7233778bf9">
   <rect x="135" y="25.92" width="220.263158" height="166.32"/>
  </clipPath>
  <clipPath id="pee109c757b">
   <rect x="443.368421" y="25.92" width="220.263158" height="166.32"/>
  </clipPath>
  <clipPath id="pbb9b575a71">
   <rect x="751.736842" y="25.92" width="220.263158" height="166.32"/>
  </clipPath>
 </defs>
</svg>
