<?xml version="1.0" encoding="utf-8" standalone="no"?>
<!DOCTYPE svg PUBLIC "-//W3C//DTD SVG 1.1//EN"
  "http://www.w3.org/Graphics/SVG/1.1/DTD/svg11.dtd">
<svg xmlns:xlink="http://www.w3.org/1999/xlink" width="972pt" height="252pt" viewBox="0 0 972 252" xmlns="http://www.w3.org/2000/svg" version="1.1">
 <metadata>
  <rdf:RDF xmlns:dc="http://purl.org/dc/elements/1.1/" xmlns:cc="http://creativecommons.org/ns#" xmlns:rdf="http://www.w3.org/1999/02/22-rdf-syntax-ns#">
   <cc:Work>
    <dc:type rdf:resource="http://purl.org/dc/dcmitype/StillImage"/>
    <dc:date>2024-07-22T14:56:26.237463</dc:date>
    <dc:format>image/svg+xml</dc:format>
    <dc:creator>
     <cc:Agent>
      <dc:title>Matplotlib v3.8.4, https://matplotlib.org/</dc:title>
     </cc:Agent>
    </dc:creator>
   </cc:Work>
  </rdf:RDF>
 </metadata>
 <defs>
  <style type="text/css">*{stroke-linejoin: round; stroke-linecap: butt}</style>
 </defs>
 <g id="figure_1">
  <g id="patch_1">
   <path d="M 0 252 
L 972 252 
L 972 0 
L 0 0 
L 0 252 
z
" style="fill: none"/>
  </g>
  <g id="axes_1">
   <g id="patch_2">
    <path d="M 73.95 187.8 
L 299.277451 187.8 
L 299.277451 47.4 
L 73.95 47.4 
L 73.95 187.8 
z
" style="fill: none"/>
   </g>
   <g id="PolyCollection_1">
    <defs>
     <path id="m7e9321dc31" d="M 175.347353 -69.4 
L 174.014009 -69.4 
L 173.639535 -70.713131 
L 173.181449 -72.026263 
L 172.626662 -73.339394 
L 171.96116 -74.652525 
L 171.170091 -75.965657 
L 170.237878 -77.278788 
L 169.148353 -78.591919 
L 167.884925 -79.905051 
L 166.430812 -81.218182 
L 164.769346 -82.531313 
L 162.884396 -83.844444 
L 160.760925 -85.157576 
L 158.385701 -86.470707 
L 155.748181 -87.783838 
L 152.841543 -89.09697 
L 149.663836 -90.410101 
L 146.219186 -91.723232 
L 142.518963 -93.036364 
L 138.58281 -94.349495 
L 134.439402 -95.662626 
L 130.126824 -96.975758 
L 125.692458 -98.288889 
L 121.192308 -99.60202 
L 116.68973 -100.915152 
L 112.253574 -102.228283 
L 107.955835 -103.541414 
L 103.868912 -104.854545 
L 100.062662 -106.167677 
L 96.601426 -107.480808 
L 93.541248 -108.793939 
L 90.927469 -110.107071 
L 88.792872 -111.420202 
L 87.156488 -112.733333 
L 86.023147 -114.046465 
L 85.383771 -115.359596 
L 85.216373 -116.672727 
L 85.487667 -117.985859 
L 86.155161 -119.29899 
L 87.16958 -120.612121 
L 88.477451 -121.925253 
L 90.023713 -123.238384 
L 91.754182 -124.551515 
L 93.61777 -125.864646 
L 95.568348 -127.177778 
L 97.566188 -128.490909 
L 99.578941 -129.80404 
L 101.582121 -131.117172 
L 103.559124 -132.430303 
L 105.500787 -133.743434 
L 107.404564 -135.056566 
L 109.27338 -136.369697 
L 111.114253 -137.682828 
L 112.936814 -138.99596 
L 114.751805 -140.309091 
L 116.5697 -141.622222 
L 118.399524 -142.935354 
L 120.24796 -144.248485 
L 122.118796 -145.561616 
L 124.012708 -146.874747 
L 125.927376 -148.187879 
L 127.857874 -149.50101 
L 129.797242 -150.814141 
L 131.737178 -152.127273 
L 133.668728 -153.440404 
L 135.582932 -154.753535 
L 137.471336 -156.066667 
L 139.326374 -157.379798 
L 141.141592 -158.692929 
L 142.911747 -160.006061 
L 144.632807 -161.319192 
L 146.301908 -162.632323 
L 147.917272 -163.945455 
L 149.478136 -165.258586 
L 150.98469 -166.571717 
L 152.438013 -167.884848 
L 153.839994 -169.19798 
L 155.193224 -170.511111 
L 156.500825 -171.824242 
L 157.766223 -173.137374 
L 158.992858 -174.450505 
L 160.183861 -175.763636 
L 161.341714 -177.076768 
L 162.467956 -178.389899 
L 163.562947 -179.70303 
L 164.625743 -181.016162 
L 165.654103 -182.329293 
L 166.644618 -183.642424 
L 167.592973 -184.955556 
L 168.494301 -186.268687 
L 169.343593 -187.581818 
L 170.136127 -188.894949 
L 170.86787 -190.208081 
L 171.535807 -191.521212 
L 172.138179 -192.834343 
L 172.674617 -194.147475 
L 173.146156 -195.460606 
L 173.55515 -196.773737 
L 173.905102 -198.086869 
L 174.200433 -199.4 
L 175.347353 -199.4 
L 175.347353 -199.4 
L 175.347353 -198.086869 
L 175.347353 -196.773737 
L 175.347353 -195.460606 
L 175.347353 -194.147475 
L 175.347353 -192.834343 
L 175.347353 -191.521212 
L 175.347353 -190.208081 
L 175.347353 -188.894949 
L 175.347353 -187.581818 
L 175.347353 -186.268687 
L 175.347353 -184.955556 
L 175.347353 -183.642424 
L 175.347353 -182.329293 
L 175.347353 -181.016162 
L 175.347353 -179.70303 
L 175.347353 -178.389899 
L 175.347353 -177.076768 
L 175.347353 -175.763636 
L 175.347353 -174.450505 
L 175.347353 -173.137374 
L 175.347353 -171.824242 
L 175.347353 -170.511111 
L 175.347353 -169.19798 
L 175.347353 -167.884848 
L 175.347353 -166.571717 
L 175.347353 -165.258586 
L 175.347353 -163.945455 
L 175.347353 -162.632323 
L 175.347353 -161.319192 
L 175.347353 -160.006061 
L 175.347353 -158.692929 
L 175.347353 -157.379798 
L 175.347353 -156.066667 
L 175.347353 -154.753535 
L 175.347353 -153.440404 
L 175.347353 -152.127273 
L 175.347353 -150.814141 
L 175.347353 -149.50101 
L 175.347353 -148.187879 
L 175.347353 -146.874747 
L 175.347353 -145.561616 
L 175.347353 -144.248485 
L 175.347353 -142.935354 
L 175.347353 -141.622222 
L 175.347353 -140.309091 
L 175.347353 -138.99596 
L 175.347353 -137.682828 
L 175.347353 -136.369697 
L 175.347353 -135.056566 
L 175.347353 -133.743434 
L 175.347353 -132.430303 
L 175.347353 -131.117172 
L 175.347353 -129.80404 
L 175.347353 -128.490909 
L 175.347353 -127.177778 
L 175.347353 -125.864646 
L 175.347353 -124.551515 
L 175.347353 -123.238384 
L 175.347353 -121.925253 
L 175.347353 -120.612121 
L 175.347353 -119.29899 
L 175.347353 -117.985859 
L 175.347353 -116.672727 
L 175.347353 -115.359596 
L 175.347353 -114.046465 
L 175.347353 -112.733333 
L 175.347353 -111.420202 
L 175.347353 -110.107071 
L 175.347353 -108.793939 
L 175.347353 -107.480808 
L 175.347353 -106.167677 
L 175.347353 -104.854545 
L 175.347353 -103.541414 
L 175.347353 -102.228283 
L 175.347353 -100.915152 
L 175.347353 -99.60202 
L 175.347353 -98.288889 
L 175.347353 -96.975758 
L 175.347353 -95.662626 
L 175.347353 -94.349495 
L 175.347353 -93.036364 
L 175.347353 -91.723232 
L 175.347353 -90.410101 
L 175.347353 -89.09697 
L 175.347353 -87.783838 
L 175.347353 -86.470707 
L 175.347353 -85.157576 
L 175.347353 -83.844444 
L 175.347353 -82.531313 
L 175.347353 -81.218182 
L 175.347353 -79.905051 
L 175.347353 -78.591919 
L 175.347353 -77.278788 
L 175.347353 -75.965657 
L 175.347353 -74.652525 
L 175.347353 -73.339394 
L 175.347353 -72.026263 
L 175.347353 -70.713131 
L 175.347353 -69.4 
z
"/>
    </defs>
    <g clip-path="url(#p3a014eca08)">
     <use xlink:href="#m7e9321dc31" x="0" y="252" style="fill: #b4bba7"/>
    </g>
   </g>
   <g id="PolyCollection_2">
    <defs>
     <path id="m36080c9e3c" d="M 206.579587 -99.448243 
L 197.880098 -99.448243 
L 197.880098 -99.992728 
L 197.880098 -100.537214 
L 197.880098 -101.081699 
L 197.880098 -101.626185 
L 197.880098 -102.170671 
L 197.880098 -102.715156 
L 197.880098 -103.259642 
L 197.880098 -103.804127 
L 197.880098 -104.348613 
L 197.880098 -104.893098 
L 197.880098 -105.437584 
L 197.880098 -105.98207 
L 197.880098 -106.526555 
L 197.880098 -107.071041 
L 197.880098 -107.615526 
L 197.880098 -108.160012 
L 197.880098 -108.704497 
L 197.880098 -109.248983 
L 197.880098 -109.793469 
L 197.880098 -110.337954 
L 197.880098 -110.88244 
L 197.880098 -111.426925 
L 197.880098 -111.971411 
L 197.880098 -112.515896 
L 197.880098 -113.060382 
L 197.880098 -113.604867 
L 197.880098 -114.149353 
L 197.880098 -114.693839 
L 197.880098 -115.238324 
L 197.880098 -115.78281 
L 197.880098 -116.327295 
L 197.880098 -116.871781 
L 197.880098 -117.416266 
L 197.880098 -117.960752 
L 197.880098 -118.505238 
L 197.880098 -119.049723 
L 197.880098 -119.594209 
L 197.880098 -120.138694 
L 197.880098 -120.68318 
L 197.880098 -121.227665 
L 197.880098 -121.772151 
L 197.880098 -122.316637 
L 197.880098 -122.861122 
L 197.880098 -123.405608 
L 197.880098 -123.950093 
L 197.880098 -124.494579 
L 197.880098 -125.039064 
L 197.880098 -125.58355 
L 197.880098 -126.128036 
L 197.880098 -126.672521 
L 197.880098 -127.217007 
L 197.880098 -127.761492 
L 197.880098 -128.305978 
L 197.880098 -128.850463 
L 197.880098 -129.394949 
L 197.880098 -129.939435 
L 197.880098 -130.48392 
L 197.880098 -131.028406 
L 197.880098 -131.572891 
L 197.880098 -132.117377 
L 197.880098 -132.661862 
L 197.880098 -133.206348 
L 197.880098 -133.750834 
L 197.880098 -134.295319 
L 197.880098 -134.839805 
L 197.880098 -135.38429 
L 197.880098 -135.928776 
L 197.880098 -136.473261 
L 197.880098 -137.017747 
L 197.880098 -137.562233 
L 197.880098 -138.106718 
L 197.880098 -138.651204 
L 197.880098 -139.195689 
L 197.880098 -139.740175 
L 197.880098 -140.28466 
L 197.880098 -140.829146 
L 197.880098 -141.373631 
L 197.880098 -141.918117 
L 197.880098 -142.462603 
L 197.880098 -143.007088 
L 197.880098 -143.551574 
L 197.880098 -144.096059 
L 197.880098 -144.640545 
L 197.880098 -145.18503 
L 197.880098 -145.729516 
L 197.880098 -146.274002 
L 197.880098 -146.818487 
L 197.880098 -147.362973 
L 197.880098 -147.907458 
L 197.880098 -148.451944 
L 197.880098 -148.996429 
L 197.880098 -149.540915 
L 197.880098 -150.085401 
L 197.880098 -150.629886 
L 197.880098 -151.174372 
L 197.880098 -151.718857 
L 197.880098 -152.263343 
L 197.880098 -152.807828 
L 197.880098 -153.352314 
L 202.007064 -153.352314 
L 202.007064 -153.352314 
L 202.605347 -152.807828 
L 203.264984 -152.263343 
L 203.987954 -151.718857 
L 204.775573 -151.174372 
L 205.628391 -150.629886 
L 206.546088 -150.085401 
L 207.527384 -149.540915 
L 208.569967 -148.996429 
L 209.670434 -148.451944 
L 210.824264 -147.907458 
L 212.025814 -147.362973 
L 213.268346 -146.818487 
L 214.544093 -146.274002 
L 215.84436 -145.729516 
L 217.159655 -145.18503 
L 218.479865 -144.640545 
L 219.794464 -144.096059 
L 221.092752 -143.551574 
L 222.36412 -143.007088 
L 223.598334 -142.462603 
L 224.785843 -141.918117 
L 225.918078 -141.373631 
L 226.98776 -140.829146 
L 227.989185 -140.28466 
L 228.918497 -139.740175 
L 229.773914 -139.195689 
L 230.555926 -138.651204 
L 231.267429 -138.106718 
L 231.913807 -137.562233 
L 232.502946 -137.017747 
L 233.04518 -136.473261 
L 233.553157 -135.928776 
L 234.041639 -135.38429 
L 234.527224 -134.839805 
L 235.028004 -134.295319 
L 235.563151 -133.750834 
L 236.152462 -133.206348 
L 236.815844 -132.661862 
L 237.572775 -132.117377 
L 238.441745 -131.572891 
L 239.439686 -131.028406 
L 240.581418 -130.48392 
L 241.879115 -129.939435 
L 243.341815 -129.394949 
L 244.974984 -128.850463 
L 246.780151 -128.305978 
L 248.754623 -127.761492 
L 250.891299 -127.217007 
L 253.178579 -126.672521 
L 255.600385 -126.128036 
L 258.136297 -125.58355 
L 260.761793 -125.039064 
L 263.44861 -124.494579 
L 266.165195 -123.950093 
L 268.877268 -123.405608 
L 271.548449 -122.861122 
L 274.140974 -122.316637 
L 276.616445 -121.772151 
L 278.93662 -121.227665 
L 281.064222 -120.68318 
L 282.96373 -120.138694 
L 284.602143 -119.594209 
L 285.949697 -119.049723 
L 286.980513 -118.505238 
L 287.673152 -117.960752 
L 288.011078 -117.416266 
L 287.982996 -116.871781 
L 287.583073 -116.327295 
L 286.811035 -115.78281 
L 285.672124 -115.238324 
L 284.176942 -114.693839 
L 282.34116 -114.149353 
L 280.185132 -113.604867 
L 277.733399 -113.060382 
L 275.014124 -112.515896 
L 272.058447 -111.971411 
L 268.899814 -111.426925 
L 265.573267 -110.88244 
L 262.114731 -110.337954 
L 258.560325 -109.793469 
L 254.945688 -109.248983 
L 251.305364 -108.704497 
L 247.672245 -108.160012 
L 244.077085 -107.615526 
L 240.548093 -107.071041 
L 237.110609 -106.526555 
L 233.786875 -105.98207 
L 230.595886 -105.437584 
L 227.553321 -104.893098 
L 224.671563 -104.348613 
L 221.959778 -103.804127 
L 219.424066 -103.259642 
L 217.067655 -102.715156 
L 214.891144 -102.170671 
L 212.892774 -101.626185 
L 211.06872 -101.081699 
L 209.413394 -100.537214 
L 207.91975 -99.992728 
L 206.579587 -99.448243 
z
"/>
    </defs>
    <g clip-path="url(#p3a014eca08)">
     <use xlink:href="#m36080c9e3c" x="0" y="252" style="fill: #5c6d71"/>
    </g>
   </g>
   <g id="matplotlib.axis_1">
    <g id="xtick_1">
     <g id="line2d_1">
      <defs>
       <path id="m00ad8031e0" d="M 0 0 
L 0 5 
" style="stroke: #000000; stroke-width: 0.75"/>
      </defs>
      <g>
       <use xlink:href="#m00ad8031e0" x="130.281863" y="187.8" style="stroke: #000000; stroke-width: 0.75"/>
      </g>
     </g>
     <g id="text_1">
      <text style="font: 15px &quot;Suisse Int&apos;l&quot;, sans-serif; text-anchor: middle" x="130.281863" y="208.675" transform="rotate(-0 130.281863 208.675)">top</text>
     </g>
    </g>
    <g id="xtick_2">
     <g id="line2d_2">
      <g>
       <use xlink:href="#m00ad8031e0" x="242.945588" y="187.8" style="stroke: #000000; stroke-width: 0.75"/>
      </g>
     </g>
     <g id="text_2">
      <text style="font: 15px &quot;Suisse Int&apos;l&quot;, sans-serif; text-anchor: middle" x="242.945588" y="208.675" transform="rotate(-0 242.945588 208.675)">middle</text>
     </g>
    </g>
    <g id="text_3">
     <text style="font: 500 15px &quot;Suisse Int&apos;l&quot;, sans-serif; text-anchor: middle" x="186.613725" y="232.175" transform="rotate(-0 186.613725 232.175)">Position_in_tube</text>
    </g>
   </g>
   <g id="matplotlib.axis_2">
    <g id="ytick_1">
     <g id="line2d_3">
      <defs>
       <path id="m54c5ba9307" d="M 0 0 
L -5 0 
" style="stroke: #000000; stroke-width: 0.75"/>
      </defs>
      <g>
       <use xlink:href="#m54c5ba9307" x="73.95" y="160.405914" style="stroke: #000000; stroke-width: 0.75"/>
      </g>
     </g>
     <g id="text_4">
      <text style="font: 15px &quot;Suisse Int&apos;l&quot;, sans-serif; text-anchor: end" x="63.95" y="165.843414" transform="rotate(-0 63.95 165.843414)">0.0</text>
     </g>
    </g>
    <g id="ytick_2">
     <g id="line2d_4">
      <g>
       <use xlink:href="#m54c5ba9307" x="73.95" y="121.066761" style="stroke: #000000; stroke-width: 0.75"/>
      </g>
     </g>
     <g id="text_5">
      <text style="font: 15px &quot;Suisse Int&apos;l&quot;, sans-serif; text-anchor: end" x="63.95" y="126.504261" transform="rotate(-0 63.95 126.504261)">0.1</text>
     </g>
    </g>
    <g id="ytick_3">
     <g id="line2d_5">
      <g>
       <use xlink:href="#m54c5ba9307" x="73.95" y="81.727607" style="stroke: #000000; stroke-width: 0.75"/>
      </g>
     </g>
     <g id="text_6">
      <text style="font: 15px &quot;Suisse Int&apos;l&quot;, sans-serif; text-anchor: end" x="63.95" y="87.165107" transform="rotate(-0 63.95 87.165107)">0.2</text>
     </g>
    </g>
    <g id="text_7">
     <text style="font: 500 15px &quot;Suisse Int&apos;l&quot;, sans-serif; text-anchor: middle" x="27.821875" y="117.6" transform="rotate(-90 27.821875 117.6)">Confinement_ratio</text>
    </g>
   </g>
   <g id="line2d_6">
    <path d="M 172.847353 159.639735 
L 172.847353 75.560265 
" clip-path="url(#p3a014eca08)" style="fill: none; stroke: #3e3e3e; stroke-width: 1.666667; stroke-linecap: round"/>
   </g>
   <g id="line2d_7">
    <path d="M 172.847353 140.897819 
L 172.847353 109.662592 
" clip-path="url(#p3a014eca08)" style="fill: none; stroke: #3e3e3e; stroke-width: 5; stroke-linecap: round"/>
   </g>
   <g id="line2d_8">
    <path d="M 172.847353 129.028184 
" clip-path="url(#p3a014eca08)" style="fill: none; stroke: #3e3e3e; stroke-width: 2; stroke-linecap: round"/>
    <defs>
     <path id="mc9b93e95ab" d="M 2.083333 0 
L -2.083333 -0 
" style="stroke: #ffffff"/>
    </defs>
    <g clip-path="url(#p3a014eca08)">
     <use xlink:href="#mc9b93e95ab" x="172.847353" y="129.028184" style="fill: #ffffff; stroke: #ffffff"/>
    </g>
   </g>
   <g id="line2d_9">
    <path d="M 200.380098 136.720871 
L 200.380098 128.042272 
" clip-path="url(#p3a014eca08)" style="fill: none; stroke: #3e3e3e; stroke-width: 1.666667; stroke-linecap: round"/>
   </g>
   <g id="line2d_10">
    <path d="M 200.380098 136.094186 
L 200.380098 128.042272 
" clip-path="url(#p3a014eca08)" style="fill: none; stroke: #3e3e3e; stroke-width: 5; stroke-linecap: round"/>
   </g>
   <g id="line2d_11">
    <path d="M 200.380098 134.224398 
" clip-path="url(#p3a014eca08)" style="fill: none; stroke: #3e3e3e; stroke-width: 2; stroke-linecap: round"/>
    <g clip-path="url(#p3a014eca08)">
     <use xlink:href="#mc9b93e95ab" x="200.380098" y="134.224398" style="fill: #ffffff; stroke: #ffffff"/>
    </g>
   </g>
   <g id="patch_3">
    <path d="M 73.95 187.8 
L 73.95 47.4 
" style="fill: none; stroke: #000000; stroke-width: 0.75; stroke-linejoin: miter; stroke-linecap: square"/>
   </g>
   <g id="patch_4">
    <path d="M 73.95 187.8 
L 299.277451 187.8 
" style="fill: none; stroke: #000000; stroke-width: 0.75; stroke-linejoin: miter; stroke-linecap: square"/>
   </g>
  </g>
  <g id="axes_2">
   <g id="patch_5">
    <path d="M 368.977451 187.8 
L 594.304902 187.8 
L 594.304902 47.4 
L 368.977451 47.4 
L 368.977451 187.8 
z
" style="fill: none"/>
   </g>
   <g id="PolyCollection_3">
    <defs>
     <path id="m53d42aa3f1" d="M 470.374804 -69.4 
L 466.727366 -69.4 
L 465.820326 -70.713131 
L 464.747922 -72.026263 
L 463.49646 -73.339394 
L 462.055316 -74.652525 
L 460.41805 -75.965657 
L 458.583505 -77.278788 
L 456.556805 -78.591919 
L 454.350145 -79.905051 
L 451.983296 -81.218182 
L 449.483728 -82.531313 
L 446.886283 -83.844444 
L 444.232358 -85.157576 
L 441.568573 -86.470707 
L 438.944974 -87.783838 
L 436.412822 -89.09697 
L 434.022085 -90.410101 
L 431.818787 -91.723232 
L 429.842373 -93.036364 
L 428.123286 -94.349495 
L 426.680923 -95.662626 
L 425.522145 -96.975758 
L 424.640463 -98.288889 
L 424.015973 -99.60202 
L 423.616086 -100.915152 
L 423.397006 -102.228283 
L 423.305875 -103.541414 
L 423.283443 -104.854545 
L 423.267103 -106.167677 
L 423.194079 -107.480808 
L 423.00457 -108.793939 
L 422.644669 -110.107071 
L 422.068865 -111.420202 
L 421.242019 -112.733333 
L 420.140715 -114.046465 
L 418.753947 -115.359596 
L 417.08315 -116.672727 
L 415.141627 -117.985859 
L 412.953453 -119.29899 
L 410.551979 -120.612121 
L 407.978047 -121.925253 
L 405.278069 -123.238384 
L 402.502079 -124.551515 
L 399.701889 -125.864646 
L 396.929428 -127.177778 
L 394.235337 -128.490909 
L 391.667854 -129.80404 
L 389.27199 -131.117172 
L 387.088991 -132.430303 
L 385.156016 -133.743434 
L 383.505995 -135.056566 
L 382.167583 -136.369697 
L 381.16514 -137.682828 
L 380.518694 -138.99596 
L 380.243824 -140.309091 
L 380.351447 -141.622222 
L 380.847531 -142.935354 
L 381.732732 -144.248485 
L 383.002027 -145.561616 
L 384.644409 -146.874747 
L 386.642689 -148.187879 
L 388.973512 -149.50101 
L 391.607599 -150.814141 
L 394.510282 -152.127273 
L 397.642325 -153.440404 
L 400.961 -154.753535 
L 404.421387 -156.066667 
L 407.977807 -157.379798 
L 411.585315 -158.692929 
L 415.201129 -160.006061 
L 418.785929 -161.319192 
L 422.304924 -162.632323 
L 425.728629 -163.945455 
L 429.033313 -165.258586 
L 432.201113 -166.571717 
L 435.219819 -167.884848 
L 438.082391 -169.19798 
L 440.78625 -170.511111 
L 443.332433 -171.824242 
L 445.724679 -173.137374 
L 447.968524 -174.450505 
L 450.070473 -175.763636 
L 452.037299 -177.076768 
L 453.875503 -178.389899 
L 455.590946 -179.70303 
L 457.188665 -181.016162 
L 458.672834 -182.329293 
L 460.046868 -183.642424 
L 461.313606 -184.955556 
L 462.475562 -186.268687 
L 463.535187 -187.581818 
L 464.495118 -188.894949 
L 465.358387 -190.208081 
L 466.128572 -191.521212 
L 466.809878 -192.834343 
L 467.407158 -194.147475 
L 467.925863 -195.460606 
L 468.371947 -196.773737 
L 468.751732 -198.086869 
L 469.071751 -199.4 
L 470.374804 -199.4 
L 470.374804 -199.4 
L 470.374804 -198.086869 
L 470.374804 -196.773737 
L 470.374804 -195.460606 
L 470.374804 -194.147475 
L 470.374804 -192.834343 
L 470.374804 -191.521212 
L 470.374804 -190.208081 
L 470.374804 -188.894949 
L 470.374804 -187.581818 
L 470.374804 -186.268687 
L 470.374804 -184.955556 
L 470.374804 -183.642424 
L 470.374804 -182.329293 
L 470.374804 -181.016162 
L 470.374804 -179.70303 
L 470.374804 -178.389899 
L 470.374804 -177.076768 
L 470.374804 -175.763636 
L 470.374804 -174.450505 
L 470.374804 -173.137374 
L 470.374804 -171.824242 
L 470.374804 -170.511111 
L 470.374804 -169.19798 
L 470.374804 -167.884848 
L 470.374804 -166.571717 
L 470.374804 -165.258586 
L 470.374804 -163.945455 
L 470.374804 -162.632323 
L 470.374804 -161.319192 
L 470.374804 -160.006061 
L 470.374804 -158.692929 
L 470.374804 -157.379798 
L 470.374804 -156.066667 
L 470.374804 -154.753535 
L 470.374804 -153.440404 
L 470.374804 -152.127273 
L 470.374804 -150.814141 
L 470.374804 -149.50101 
L 470.374804 -148.187879 
L 470.374804 -146.874747 
L 470.374804 -145.561616 
L 470.374804 -144.248485 
L 470.374804 -142.935354 
L 470.374804 -141.622222 
L 470.374804 -140.309091 
L 470.374804 -138.99596 
L 470.374804 -137.682828 
L 470.374804 -136.369697 
L 470.374804 -135.056566 
L 470.374804 -133.743434 
L 470.374804 -132.430303 
L 470.374804 -131.117172 
L 470.374804 -129.80404 
L 470.374804 -128.490909 
L 470.374804 -127.177778 
L 470.374804 -125.864646 
L 470.374804 -124.551515 
L 470.374804 -123.238384 
L 470.374804 -121.925253 
L 470.374804 -120.612121 
L 470.374804 -119.29899 
L 470.374804 -117.985859 
L 470.374804 -116.672727 
L 470.374804 -115.359596 
L 470.374804 -114.046465 
L 470.374804 -112.733333 
L 470.374804 -111.420202 
L 470.374804 -110.107071 
L 470.374804 -108.793939 
L 470.374804 -107.480808 
L 470.374804 -106.167677 
L 470.374804 -104.854545 
L 470.374804 -103.541414 
L 470.374804 -102.228283 
L 470.374804 -100.915152 
L 470.374804 -99.60202 
L 470.374804 -98.288889 
L 470.374804 -96.975758 
L 470.374804 -95.662626 
L 470.374804 -94.349495 
L 470.374804 -93.036364 
L 470.374804 -91.723232 
L 470.374804 -90.410101 
L 470.374804 -89.09697 
L 470.374804 -87.783838 
L 470.374804 -86.470707 
L 470.374804 -85.157576 
L 470.374804 -83.844444 
L 470.374804 -82.531313 
L 470.374804 -81.218182 
L 470.374804 -79.905051 
L 470.374804 -78.591919 
L 470.374804 -77.278788 
L 470.374804 -75.965657 
L 470.374804 -74.652525 
L 470.374804 -73.339394 
L 470.374804 -72.026263 
L 470.374804 -70.713131 
L 470.374804 -69.4 
z
"/>
    </defs>
    <g clip-path="url(#pa4d07e5ffc)">
     <use xlink:href="#m53d42aa3f1" x="0" y="252" style="fill: #b4bba7"/>
    </g>
   </g>
   <g id="PolyCollection_4">
    <defs>
     <path id="maf548c6171" d="M 500.007723 -80.008203 
L 492.907549 -80.008203 
L 492.907549 -81.048815 
L 492.907549 -82.089428 
L 492.907549 -83.13004 
L 492.907549 -84.170653 
L 492.907549 -85.211266 
L 492.907549 -86.251878 
L 492.907549 -87.292491 
L 492.907549 -88.333103 
L 492.907549 -89.373716 
L 492.907549 -90.414329 
L 492.907549 -91.454941 
L 492.907549 -92.495554 
L 492.907549 -93.536166 
L 492.907549 -94.576779 
L 492.907549 -95.617392 
L 492.907549 -96.658004 
L 492.907549 -97.698617 
L 492.907549 -98.739229 
L 492.907549 -99.779842 
L 492.907549 -100.820454 
L 492.907549 -101.861067 
L 492.907549 -102.90168 
L 492.907549 -103.942292 
L 492.907549 -104.982905 
L 492.907549 -106.023517 
L 492.907549 -107.06413 
L 492.907549 -108.104743 
L 492.907549 -109.145355 
L 492.907549 -110.185968 
L 492.907549 -111.22658 
L 492.907549 -112.267193 
L 492.907549 -113.307806 
L 492.907549 -114.348418 
L 492.907549 -115.389031 
L 492.907549 -116.429643 
L 492.907549 -117.470256 
L 492.907549 -118.510868 
L 492.907549 -119.551481 
L 492.907549 -120.592094 
L 492.907549 -121.632706 
L 492.907549 -122.673319 
L 492.907549 -123.713931 
L 492.907549 -124.754544 
L 492.907549 -125.795157 
L 492.907549 -126.835769 
L 492.907549 -127.876382 
L 492.907549 -128.916994 
L 492.907549 -129.957607 
L 492.907549 -130.99822 
L 492.907549 -132.038832 
L 492.907549 -133.079445 
L 492.907549 -134.120057 
L 492.907549 -135.16067 
L 492.907549 -136.201282 
L 492.907549 -137.241895 
L 492.907549 -138.282508 
L 492.907549 -139.32312 
L 492.907549 -140.363733 
L 492.907549 -141.404345 
L 492.907549 -142.444958 
L 492.907549 -143.485571 
L 492.907549 -144.526183 
L 492.907549 -145.566796 
L 492.907549 -146.607408 
L 492.907549 -147.648021 
L 492.907549 -148.688634 
L 492.907549 -149.729246 
L 492.907549 -150.769859 
L 492.907549 -151.810471 
L 492.907549 -152.851084 
L 492.907549 -153.891696 
L 492.907549 -154.932309 
L 492.907549 -155.972922 
L 492.907549 -157.013534 
L 492.907549 -158.054147 
L 492.907549 -159.094759 
L 492.907549 -160.135372 
L 492.907549 -161.175985 
L 492.907549 -162.216597 
L 492.907549 -163.25721 
L 492.907549 -164.297822 
L 492.907549 -165.338435 
L 492.907549 -166.379048 
L 492.907549 -167.41966 
L 492.907549 -168.460273 
L 492.907549 -169.500885 
L 492.907549 -170.541498 
L 492.907549 -171.582111 
L 492.907549 -172.622723 
L 492.907549 -173.663336 
L 492.907549 -174.703948 
L 492.907549 -175.744561 
L 492.907549 -176.785173 
L 492.907549 -177.825786 
L 492.907549 -178.866399 
L 492.907549 -179.907011 
L 492.907549 -180.947624 
L 492.907549 -181.988236 
L 492.907549 -183.028849 
L 500.18254 -183.028849 
L 500.18254 -183.028849 
L 501.298612 -181.988236 
L 502.543344 -180.947624 
L 503.924139 -179.907011 
L 505.4476 -178.866399 
L 507.119295 -177.825786 
L 508.943527 -176.785173 
L 510.923096 -175.744561 
L 513.059075 -174.703948 
L 515.350595 -173.663336 
L 517.794656 -172.622723 
L 520.385962 -171.582111 
L 523.116805 -170.541498 
L 525.976982 -169.500885 
L 528.953779 -168.460273 
L 532.032003 -167.41966 
L 535.194084 -166.379048 
L 538.420243 -165.338435 
L 541.688726 -164.297822 
L 544.976106 -163.25721 
L 548.257654 -162.216597 
L 551.507754 -161.175985 
L 554.700383 -160.135372 
L 557.809616 -159.094759 
L 560.810171 -158.054147 
L 563.677953 -157.013534 
L 566.3906 -155.972922 
L 568.928011 -154.932309 
L 571.272835 -153.891696 
L 573.4109 -152.851084 
L 575.331586 -151.810471 
L 577.028102 -150.769859 
L 578.497671 -149.729246 
L 579.741618 -148.688634 
L 580.765335 -147.648021 
L 581.578142 -146.607408 
L 582.193027 -145.566796 
L 582.626287 -144.526183 
L 582.89706 -143.485571 
L 583.026775 -142.444958 
L 583.038529 -141.404345 
L 582.956407 -140.363733 
L 582.804768 -139.32312 
L 582.607519 -138.282508 
L 582.387403 -137.241895 
L 582.165309 -136.201282 
L 581.959646 -135.16067 
L 581.785786 -134.120057 
L 581.655601 -133.079445 
L 581.577104 -132.038832 
L 581.554213 -130.99822 
L 581.586637 -129.957607 
L 581.669893 -128.916994 
L 581.795454 -127.876382 
L 581.951014 -126.835769 
L 582.120878 -125.795157 
L 582.286443 -124.754544 
L 582.426774 -123.713931 
L 582.519243 -122.673319 
L 582.540213 -121.632706 
L 582.465753 -120.592094 
L 582.272351 -119.551481 
L 581.937609 -118.510868 
L 581.440903 -117.470256 
L 580.763974 -116.429643 
L 579.891454 -115.389031 
L 578.811295 -114.348418 
L 577.515104 -113.307806 
L 575.998363 -112.267193 
L 574.260545 -111.22658 
L 572.305121 -110.185968 
L 570.139449 -109.145355 
L 567.774579 -108.104743 
L 565.224954 -107.06413 
L 562.508043 -106.023517 
L 559.643903 -104.982905 
L 556.6547 -103.942292 
L 553.56419 -102.90168 
L 550.397188 -101.861067 
L 547.179038 -100.820454 
L 543.935093 -99.779842 
L 540.690226 -98.739229 
L 537.468379 -97.698617 
L 534.292163 -96.658004 
L 531.182512 -95.617392 
L 528.1584 -94.576779 
L 525.236625 -93.536166 
L 522.431656 -92.495554 
L 519.755544 -91.454941 
L 517.217895 -90.414329 
L 514.8259 -89.373716 
L 512.584414 -88.333103 
L 510.496081 -87.292491 
L 508.561492 -86.251878 
L 506.779371 -85.211266 
L 505.146788 -84.170653 
L 503.659376 -83.13004 
L 502.311559 -82.089428 
L 501.096781 -81.048815 
L 500.007723 -80.008203 
z
"/>
    </defs>
    <g clip-path="url(#pa4d07e5ffc)">
     <use xlink:href="#maf548c6171" x="0" y="252" style="fill: #5c6d71"/>
    </g>
   </g>
   <g id="matplotlib.axis_3">
    <g id="xtick_3">
     <g id="line2d_12">
      <g>
       <use xlink:href="#m00ad8031e0" x="425.309314" y="187.8" style="stroke: #000000; stroke-width: 0.75"/>
      </g>
     </g>
     <g id="text_8">
      <text style="font: 15px &quot;Suisse Int&apos;l&quot;, sans-serif; text-anchor: middle" x="425.309314" y="208.675" transform="rotate(-0 425.309314 208.675)">top</text>
     </g>
    </g>
    <g id="xtick_4">
     <g id="line2d_13">
      <g>
       <use xlink:href="#m00ad8031e0" x="537.973039" y="187.8" style="stroke: #000000; stroke-width: 0.75"/>
      </g>
     </g>
     <g id="text_9">
      <text style="font: 15px &quot;Suisse Int&apos;l&quot;, sans-serif; text-anchor: middle" x="537.973039" y="208.675" transform="rotate(-0 537.973039 208.675)">middle</text>
     </g>
    </g>
    <g id="text_10">
     <text style="font: 500 15px &quot;Suisse Int&apos;l&quot;, sans-serif; text-anchor: middle" x="481.641176" y="232.175" transform="rotate(-0 481.641176 232.175)">Position_in_tube</text>
    </g>
   </g>
   <g id="matplotlib.axis_4">
    <g id="ytick_4">
     <g id="line2d_14">
      <g>
       <use xlink:href="#m54c5ba9307" x="368.977451" y="167.513644" style="stroke: #000000; stroke-width: 0.75"/>
      </g>
     </g>
     <g id="text_11">
      <text style="font: 15px &quot;Suisse Int&apos;l&quot;, sans-serif; text-anchor: end" x="358.977451" y="172.951144" transform="rotate(-0 358.977451 172.951144)">0</text>
     </g>
    </g>
    <g id="ytick_5">
     <g id="line2d_15">
      <g>
       <use xlink:href="#m54c5ba9307" x="368.977451" y="106.401536" style="stroke: #000000; stroke-width: 0.75"/>
      </g>
     </g>
     <g id="text_12">
      <text style="font: 15px &quot;Suisse Int&apos;l&quot;, sans-serif; text-anchor: end" x="358.977451" y="111.839036" transform="rotate(-0 358.977451 111.839036)">50</text>
     </g>
    </g>
    <g id="text_13">
     <text style="font: 500 15px &quot;Suisse Int&apos;l&quot;, sans-serif; text-anchor: middle" x="327.33292" y="117.6" transform="rotate(-90 327.33292 117.6)">Mean_curvilinear_speed</text>
    </g>
   </g>
   <g id="line2d_16">
    <path d="M 467.874804 157.529159 
L 467.874804 77.670841 
" clip-path="url(#pa4d07e5ffc)" style="fill: none; stroke: #3e3e3e; stroke-width: 1.666667; stroke-linecap: round"/>
   </g>
   <g id="line2d_17">
    <path d="M 467.874804 133.562455 
L 467.874804 103.901815 
" clip-path="url(#pa4d07e5ffc)" style="fill: none; stroke: #3e3e3e; stroke-width: 5; stroke-linecap: round"/>
   </g>
   <g id="line2d_18">
    <path d="M 467.874804 118.881934 
" clip-path="url(#pa4d07e5ffc)" style="fill: none; stroke: #3e3e3e; stroke-width: 2; stroke-linecap: round"/>
    <g clip-path="url(#pa4d07e5ffc)">
     <use xlink:href="#mc9b93e95ab" x="467.874804" y="118.881934" style="fill: #ffffff; stroke: #ffffff"/>
    </g>
   </g>
   <g id="line2d_19">
    <path d="M 495.407549 141.483171 
L 495.407549 99.479778 
" clip-path="url(#pa4d07e5ffc)" style="fill: none; stroke: #3e3e3e; stroke-width: 1.666667; stroke-linecap: round"/>
   </g>
   <g id="line2d_20">
    <path d="M 495.407549 135.175476 
L 495.407549 105.313888 
" clip-path="url(#pa4d07e5ffc)" style="fill: none; stroke: #3e3e3e; stroke-width: 5; stroke-linecap: round"/>
   </g>
   <g id="line2d_21">
    <path d="M 495.407549 120.165752 
" clip-path="url(#pa4d07e5ffc)" style="fill: none; stroke: #3e3e3e; stroke-width: 2; stroke-linecap: round"/>
    <g clip-path="url(#pa4d07e5ffc)">
     <use xlink:href="#mc9b93e95ab" x="495.407549" y="120.165752" style="fill: #ffffff; stroke: #ffffff"/>
    </g>
   </g>
   <g id="patch_6">
    <path d="M 368.977451 187.8 
L 368.977451 47.4 
" style="fill: none; stroke: #000000; stroke-width: 0.75; stroke-linejoin: miter; stroke-linecap: square"/>
   </g>
   <g id="patch_7">
    <path d="M 368.977451 187.8 
L 594.304902 187.8 
" style="fill: none; stroke: #000000; stroke-width: 0.75; stroke-linejoin: miter; stroke-linecap: square"/>
   </g>
  </g>
  <g id="axes_3">
   <g id="patch_8">
    <path d="M 664.004902 187.8 
L 889.332353 187.8 
L 889.332353 47.4 
L 664.004902 47.4 
L 664.004902 187.8 
z
" style="fill: none"/>
   </g>
   <g id="PolyCollection_5">
    <defs>
     <path id="mf8c295f41a" d="M 765.402255 -69.4 
L 760.174174 -69.4 
L 758.693706 -70.713131 
L 756.894108 -72.026263 
L 754.736856 -73.339394 
L 752.18714 -74.652525 
L 749.216497 -75.965657 
L 745.805674 -77.278788 
L 741.947541 -78.591919 
L 737.649865 -79.905051 
L 732.937715 -81.218182 
L 727.855247 -82.531313 
L 722.466651 -83.844444 
L 716.856056 -85.157576 
L 711.126254 -86.470707 
L 705.396187 -87.783838 
L 699.797219 -89.09697 
L 694.468334 -90.410101 
L 689.550479 -91.723232 
L 685.180377 -93.036364 
L 681.484175 -94.349495 
L 678.571353 -95.662626 
L 676.529279 -96.975758 
L 675.418821 -98.288889 
L 675.271275 -99.60202 
L 676.086852 -100.915152 
L 677.834803 -102.228283 
L 680.45515 -103.541414 
L 683.861893 -104.854545 
L 687.947443 -106.167677 
L 692.587961 -107.480808 
L 697.649246 -108.793939 
L 702.992776 -110.107071 
L 708.481554 -111.420202 
L 713.985427 -112.733333 
L 719.385623 -114.046465 
L 724.578328 -115.359596 
L 729.477198 -116.672727 
L 734.014788 -117.985859 
L 738.142947 -119.29899 
L 741.832289 -120.612121 
L 745.070875 -121.925253 
L 747.862289 -123.238384 
L 750.223284 -124.551515 
L 752.181172 -125.864646 
L 753.771121 -127.177778 
L 755.033503 -128.490909 
L 756.011416 -129.80404 
L 756.748459 -131.117172 
L 757.286845 -132.430303 
L 757.665877 -133.743434 
L 757.920829 -135.056566 
L 758.082217 -136.369697 
L 758.175442 -137.682828 
L 758.220789 -138.99596 
L 758.23371 -140.309091 
L 758.22534 -141.622222 
L 758.203183 -142.935354 
L 758.171883 -144.248485 
L 758.134013 -145.561616 
L 758.090822 -146.874747 
L 758.042881 -148.187879 
L 757.990592 -149.50101 
L 757.934542 -150.814141 
L 757.875703 -152.127273 
L 757.815493 -153.440404 
L 757.755735 -154.753535 
L 757.69854 -156.066667 
L 757.646174 -157.379798 
L 757.600928 -158.692929 
L 757.565032 -160.006061 
L 757.540619 -161.319192 
L 757.529746 -162.632323 
L 757.534458 -163.945455 
L 757.556868 -165.258586 
L 757.599233 -166.571717 
L 757.663988 -167.884848 
L 757.753734 -169.19798 
L 757.871139 -170.511111 
L 758.018779 -171.824242 
L 758.198917 -173.137374 
L 758.413241 -174.450505 
L 758.662605 -175.763636 
L 758.946793 -177.076768 
L 759.264346 -178.389899 
L 759.612481 -179.70303 
L 759.987105 -181.016162 
L 760.382947 -182.329293 
L 760.793774 -183.642424 
L 761.212697 -184.955556 
L 761.632523 -186.268687 
L 762.046124 -187.581818 
L 762.44679 -188.894949 
L 762.828545 -190.208081 
L 763.186388 -191.521212 
L 763.516459 -192.834343 
L 763.816117 -194.147475 
L 764.083932 -195.460606 
L 764.319615 -196.773737 
L 764.523871 -198.086869 
L 764.698236 -199.4 
L 765.402255 -199.4 
L 765.402255 -199.4 
L 765.402255 -198.086869 
L 765.402255 -196.773737 
L 765.402255 -195.460606 
L 765.402255 -194.147475 
L 765.402255 -192.834343 
L 765.402255 -191.521212 
L 765.402255 -190.208081 
L 765.402255 -188.894949 
L 765.402255 -187.581818 
L 765.402255 -186.268687 
L 765.402255 -184.955556 
L 765.402255 -183.642424 
L 765.402255 -182.329293 
L 765.402255 -181.016162 
L 765.402255 -179.70303 
L 765.402255 -178.389899 
L 765.402255 -177.076768 
L 765.402255 -175.763636 
L 765.402255 -174.450505 
L 765.402255 -173.137374 
L 765.402255 -171.824242 
L 765.402255 -170.511111 
L 765.402255 -169.19798 
L 765.402255 -167.884848 
L 765.402255 -166.571717 
L 765.402255 -165.258586 
L 765.402255 -163.945455 
L 765.402255 -162.632323 
L 765.402255 -161.319192 
L 765.402255 -160.006061 
L 765.402255 -158.692929 
L 765.402255 -157.379798 
L 765.402255 -156.066667 
L 765.402255 -154.753535 
L 765.402255 -153.440404 
L 765.402255 -152.127273 
L 765.402255 -150.814141 
L 765.402255 -149.50101 
L 765.402255 -148.187879 
L 765.402255 -146.874747 
L 765.402255 -145.561616 
L 765.402255 -144.248485 
L 765.402255 -142.935354 
L 765.402255 -141.622222 
L 765.402255 -140.309091 
L 765.402255 -138.99596 
L 765.402255 -137.682828 
L 765.402255 -136.369697 
L 765.402255 -135.056566 
L 765.402255 -133.743434 
L 765.402255 -132.430303 
L 765.402255 -131.117172 
L 765.402255 -129.80404 
L 765.402255 -128.490909 
L 765.402255 -127.177778 
L 765.402255 -125.864646 
L 765.402255 -124.551515 
L 765.402255 -123.238384 
L 765.402255 -121.925253 
L 765.402255 -120.612121 
L 765.402255 -119.29899 
L 765.402255 -117.985859 
L 765.402255 -116.672727 
L 765.402255 -115.359596 
L 765.402255 -114.046465 
L 765.402255 -112.733333 
L 765.402255 -111.420202 
L 765.402255 -110.107071 
L 765.402255 -108.793939 
L 765.402255 -107.480808 
L 765.402255 -106.167677 
L 765.402255 -104.854545 
L 765.402255 -103.541414 
L 765.402255 -102.228283 
L 765.402255 -100.915152 
L 765.402255 -99.60202 
L 765.402255 -98.288889 
L 765.402255 -96.975758 
L 765.402255 -95.662626 
L 765.402255 -94.349495 
L 765.402255 -93.036364 
L 765.402255 -91.723232 
L 765.402255 -90.410101 
L 765.402255 -89.09697 
L 765.402255 -87.783838 
L 765.402255 -86.470707 
L 765.402255 -85.157576 
L 765.402255 -83.844444 
L 765.402255 -82.531313 
L 765.402255 -81.218182 
L 765.402255 -79.905051 
L 765.402255 -78.591919 
L 765.402255 -77.278788 
L 765.402255 -75.965657 
L 765.402255 -74.652525 
L 765.402255 -73.339394 
L 765.402255 -72.026263 
L 765.402255 -70.713131 
L 765.402255 -69.4 
z
"/>
    </defs>
    <g clip-path="url(#pc9e3a857a5)">
     <use xlink:href="#mf8c295f41a" x="0" y="252" style="fill: #b4bba7"/>
    </g>
   </g>
   <g id="PolyCollection_6">
    <defs>
     <path id="mbd50488886" d="M 795.156931 -87.496155 
L 787.935 -87.496155 
L 787.935 -87.701708 
L 787.935 -87.907262 
L 787.935 -88.112816 
L 787.935 -88.31837 
L 787.935 -88.523923 
L 787.935 -88.729477 
L 787.935 -88.935031 
L 787.935 -89.140585 
L 787.935 -89.346138 
L 787.935 -89.551692 
L 787.935 -89.757246 
L 787.935 -89.9628 
L 787.935 -90.168353 
L 787.935 -90.373907 
L 787.935 -90.579461 
L 787.935 -90.785015 
L 787.935 -90.990568 
L 787.935 -91.196122 
L 787.935 -91.401676 
L 787.935 -91.60723 
L 787.935 -91.812783 
L 787.935 -92.018337 
L 787.935 -92.223891 
L 787.935 -92.429444 
L 787.935 -92.634998 
L 787.935 -92.840552 
L 787.935 -93.046106 
L 787.935 -93.251659 
L 787.935 -93.457213 
L 787.935 -93.662767 
L 787.935 -93.868321 
L 787.935 -94.073874 
L 787.935 -94.279428 
L 787.935 -94.484982 
L 787.935 -94.690536 
L 787.935 -94.896089 
L 787.935 -95.101643 
L 787.935 -95.307197 
L 787.935 -95.512751 
L 787.935 -95.718304 
L 787.935 -95.923858 
L 787.935 -96.129412 
L 787.935 -96.334966 
L 787.935 -96.540519 
L 787.935 -96.746073 
L 787.935 -96.951627 
L 787.935 -97.157181 
L 787.935 -97.362734 
L 787.935 -97.568288 
L 787.935 -97.773842 
L 787.935 -97.979396 
L 787.935 -98.184949 
L 787.935 -98.390503 
L 787.935 -98.596057 
L 787.935 -98.801611 
L 787.935 -99.007164 
L 787.935 -99.212718 
L 787.935 -99.418272 
L 787.935 -99.623826 
L 787.935 -99.829379 
L 787.935 -100.034933 
L 787.935 -100.240487 
L 787.935 -100.446041 
L 787.935 -100.651594 
L 787.935 -100.857148 
L 787.935 -101.062702 
L 787.935 -101.268256 
L 787.935 -101.473809 
L 787.935 -101.679363 
L 787.935 -101.884917 
L 787.935 -102.09047 
L 787.935 -102.296024 
L 787.935 -102.501578 
L 787.935 -102.707132 
L 787.935 -102.912685 
L 787.935 -103.118239 
L 787.935 -103.323793 
L 787.935 -103.529347 
L 787.935 -103.7349 
L 787.935 -103.940454 
L 787.935 -104.146008 
L 787.935 -104.351562 
L 787.935 -104.557115 
L 787.935 -104.762669 
L 787.935 -104.968223 
L 787.935 -105.173777 
L 787.935 -105.37933 
L 787.935 -105.584884 
L 787.935 -105.790438 
L 787.935 -105.995992 
L 787.935 -106.201545 
L 787.935 -106.407099 
L 787.935 -106.612653 
L 787.935 -106.818207 
L 787.935 -107.02376 
L 787.935 -107.229314 
L 787.935 -107.434868 
L 787.935 -107.640422 
L 787.935 -107.845975 
L 792.385195 -107.845975 
L 792.385195 -107.845975 
L 793.044107 -107.640422 
L 793.772516 -107.434868 
L 794.572951 -107.229314 
L 795.447241 -107.02376 
L 796.396397 -106.818207 
L 797.420504 -106.612653 
L 798.518622 -106.407099 
L 799.688714 -106.201545 
L 800.927589 -105.995992 
L 802.230877 -105.790438 
L 803.593035 -105.584884 
L 805.007386 -105.37933 
L 806.466201 -105.173777 
L 807.960815 -104.968223 
L 809.481788 -104.762669 
L 811.019091 -104.557115 
L 812.562343 -104.351562 
L 814.10106 -104.146008 
L 815.62494 -103.940454 
L 817.124154 -103.7349 
L 818.589646 -103.529347 
L 820.013431 -103.323793 
L 821.388871 -103.118239 
L 822.710937 -102.912685 
L 823.976421 -102.707132 
L 825.184116 -102.501578 
L 826.334932 -102.296024 
L 827.431957 -102.09047 
L 828.480448 -101.884917 
L 829.487749 -101.679363 
L 830.463151 -101.473809 
L 831.417665 -101.268256 
L 832.363747 -101.062702 
L 833.314952 -100.857148 
L 834.285546 -100.651594 
L 835.290076 -100.446041 
L 836.342913 -100.240487 
L 837.457776 -100.034933 
L 838.647267 -99.829379 
L 839.922406 -99.623826 
L 841.292202 -99.418272 
L 842.763262 -99.212718 
L 844.339451 -99.007164 
L 846.02161 -98.801611 
L 847.807355 -98.596057 
L 849.690945 -98.390503 
L 851.663231 -98.184949 
L 853.711695 -97.979396 
L 855.820568 -97.773842 
L 857.971032 -97.568288 
L 860.141497 -97.362734 
L 862.307952 -97.157181 
L 864.444381 -96.951627 
L 866.523229 -96.746073 
L 868.515916 -96.540519 
L 870.393385 -96.334966 
L 872.126664 -96.129412 
L 873.687444 -95.923858 
L 875.048646 -95.718304 
L 876.184975 -95.512751 
L 877.073441 -95.307197 
L 877.693834 -95.101643 
L 878.029156 -94.896089 
L 878.06598 -94.690536 
L 877.794741 -94.484982 
L 877.209944 -94.279428 
L 876.310297 -94.073874 
L 875.098749 -93.868321 
L 873.582437 -93.662767 
L 871.772558 -93.457213 
L 869.684143 -93.251659 
L 867.335766 -93.046106 
L 864.749174 -92.840552 
L 861.948861 -92.634998 
L 858.961591 -92.429444 
L 855.815886 -92.223891 
L 852.541489 -92.018337 
L 849.168819 -91.812783 
L 845.728428 -91.60723 
L 842.250478 -91.401676 
L 838.764245 -91.196122 
L 835.29767 -90.990568 
L 831.876948 -90.785015 
L 828.526193 -90.579461 
L 825.267151 -90.373907 
L 822.118985 -90.168353 
L 819.098138 -89.9628 
L 816.218245 -89.757246 
L 813.490128 -89.551692 
L 810.921842 -89.346138 
L 808.518773 -89.140585 
L 806.283794 -88.935031 
L 804.217447 -88.729477 
L 802.31817 -88.523923 
L 800.582532 -88.31837 
L 799.005494 -88.112816 
L 797.580669 -87.907262 
L 796.300583 -87.701708 
L 795.156931 -87.496155 
z
"/>
    </defs>
    <g clip-path="url(#pc9e3a857a5)">
     <use xlink:href="#mbd50488886" x="0" y="252" style="fill: #5c6d71"/>
    </g>
   </g>
   <g id="patch_9">
    <path d="M 720.336765 165.829112 
L 720.336765 165.829112 
L 720.336765 165.829112 
L 720.336765 165.829112 
z
" clip-path="url(#pc9e3a857a5)" style="fill: #b4bba7"/>
   </g>
   <g id="patch_10">
    <path d="M 720.336765 165.829112 
L 720.336765 165.829112 
L 720.336765 165.829112 
L 720.336765 165.829112 
z
" clip-path="url(#pc9e3a857a5)" style="fill: #5c6d71"/>
   </g>
   <g id="matplotlib.axis_5">
    <g id="xtick_5">
     <g id="line2d_22">
      <g>
       <use xlink:href="#m00ad8031e0" x="720.336765" y="187.8" style="stroke: #000000; stroke-width: 0.75"/>
      </g>
     </g>
     <g id="text_14">
      <text style="font: 15px &quot;Suisse Int&apos;l&quot;, sans-serif; text-anchor: middle" x="720.336765" y="208.675" transform="rotate(-0 720.336765 208.675)">top</text>
     </g>
    </g>
    <g id="xtick_6">
     <g id="line2d_23">
      <g>
       <use xlink:href="#m00ad8031e0" x="833.00049" y="187.8" style="stroke: #000000; stroke-width: 0.75"/>
      </g>
     </g>
     <g id="text_15">
      <text style="font: 15px &quot;Suisse Int&apos;l&quot;, sans-serif; text-anchor: middle" x="833.00049" y="208.675" transform="rotate(-0 833.00049 208.675)">middle</text>
     </g>
    </g>
    <g id="text_16">
     <text style="font: 500 15px &quot;Suisse Int&apos;l&quot;, sans-serif; text-anchor: middle" x="776.668627" y="232.175" transform="rotate(-0 776.668627 232.175)">Position_in_tube</text>
    </g>
   </g>
   <g id="matplotlib.axis_6">
    <g id="ytick_6">
     <g id="line2d_24">
      <g>
       <use xlink:href="#m54c5ba9307" x="664.004902" y="165.829112" style="stroke: #000000; stroke-width: 0.75"/>
      </g>
     </g>
     <g id="text_17">
      <text style="font: 15px &quot;Suisse Int&apos;l&quot;, sans-serif; text-anchor: end" x="654.004902" y="171.266612" transform="rotate(-0 654.004902 171.266612)">0</text>
     </g>
    </g>
    <g id="ytick_7">
     <g id="line2d_25">
      <g>
       <use xlink:href="#m54c5ba9307" x="664.004902" y="130.188696" style="stroke: #000000; stroke-width: 0.75"/>
      </g>
     </g>
     <g id="text_18">
      <text style="font: 15px &quot;Suisse Int&apos;l&quot;, sans-serif; text-anchor: end" x="654.004902" y="135.626196" transform="rotate(-0 654.004902 135.626196)">10</text>
     </g>
    </g>
    <g id="ytick_8">
     <g id="line2d_26">
      <g>
       <use xlink:href="#m54c5ba9307" x="664.004902" y="94.548281" style="stroke: #000000; stroke-width: 0.75"/>
      </g>
     </g>
     <g id="text_19">
      <text style="font: 15px &quot;Suisse Int&apos;l&quot;, sans-serif; text-anchor: end" x="654.004902" y="99.985781" transform="rotate(-0 654.004902 99.985781)">20</text>
     </g>
    </g>
    <g id="ytick_9">
     <g id="line2d_27">
      <g>
       <use xlink:href="#m54c5ba9307" x="664.004902" y="58.907865" style="stroke: #000000; stroke-width: 0.75"/>
      </g>
     </g>
     <g id="text_20">
      <text style="font: 15px &quot;Suisse Int&apos;l&quot;, sans-serif; text-anchor: end" x="654.004902" y="64.345365" transform="rotate(-0 654.004902 64.345365)">30</text>
     </g>
    </g>
    <g id="text_21">
     <text style="font: 500 15px &quot;Suisse Int&apos;l&quot;, sans-serif; text-anchor: middle" x="622.329902" y="117.6" transform="rotate(-90 622.329902 117.6)">Mean_angular_speed</text>
    </g>
   </g>
   <g id="line2d_28">
    <path d="M 762.902255 159.269954 
L 762.902255 143.133517 
" clip-path="url(#pc9e3a857a5)" style="fill: none; stroke: #3e3e3e; stroke-width: 1.666667; stroke-linecap: round"/>
   </g>
   <g id="line2d_29">
    <path d="M 762.902255 155.492356 
L 762.902255 147.607699 
" clip-path="url(#pc9e3a857a5)" style="fill: none; stroke: #3e3e3e; stroke-width: 5; stroke-linecap: round"/>
   </g>
   <g id="line2d_30">
    <path d="M 762.902255 152.519124 
" clip-path="url(#pc9e3a857a5)" style="fill: none; stroke: #3e3e3e; stroke-width: 2; stroke-linecap: round"/>
    <g clip-path="url(#pc9e3a857a5)">
     <use xlink:href="#mc9b93e95ab" x="762.902255" y="152.519124" style="fill: #ffffff; stroke: #ffffff"/>
    </g>
   </g>
   <g id="line2d_31">
    <path d="M 790.435 158.62481 
L 790.435 150.03306 
" clip-path="url(#pc9e3a857a5)" style="fill: none; stroke: #3e3e3e; stroke-width: 1.666667; stroke-linecap: round"/>
   </g>
   <g id="line2d_32">
    <path d="M 790.435 158.036855 
L 790.435 154.096413 
" clip-path="url(#pc9e3a857a5)" style="fill: none; stroke: #3e3e3e; stroke-width: 5; stroke-linecap: round"/>
   </g>
   <g id="line2d_33">
    <path d="M 790.435 156.645867 
" clip-path="url(#pc9e3a857a5)" style="fill: none; stroke: #3e3e3e; stroke-width: 2; stroke-linecap: round"/>
    <g clip-path="url(#pc9e3a857a5)">
     <use xlink:href="#mc9b93e95ab" x="790.435" y="156.645867" style="fill: #ffffff; stroke: #ffffff"/>
    </g>
   </g>
   <g id="patch_11">
    <path d="M 664.004902 187.8 
L 664.004902 47.4 
" style="fill: none; stroke: #000000; stroke-width: 0.75; stroke-linejoin: miter; stroke-linecap: square"/>
   </g>
   <g id="patch_12">
    <path d="M 664.004902 187.8 
L 889.332353 187.8 
" style="fill: none; stroke: #000000; stroke-width: 0.75; stroke-linejoin: miter; stroke-linecap: square"/>
   </g>
   <g id="legend_1">
    <g id="text_22">
     <text style="font: 600 16px &quot;Suisse Int&apos;l&quot;, sans-serif; text-anchor: start" x="831.763088" y="59" transform="rotate(-0 831.763088 59)">Position_in_tube</text>
    </g>
    <g id="line2d_34">
     <path d="M 831.763088 69.3 
L 900.138088 69.3 
" style="fill: none; stroke: #bab0a8; stroke-width: 1.5; stroke-linecap: round"/>
    </g>
    <g id="patch_13">
     <path d="M 831.763088 92.175 
L 846.763088 92.175 
L 846.763088 76.8 
L 831.763088 76.8 
z
" style="fill: #b4bba7"/>
    </g>
    <g id="text_23">
     <text style="font: 15px &quot;Suisse Int&apos;l&quot;, sans-serif; text-anchor: start" x="852.763088" y="89.55" transform="rotate(-0 852.763088 89.55)">Top</text>
    </g>
    <g id="patch_14">
     <path d="M 831.763088 115.05 
L 846.763088 115.05 
L 846.763088 99.675 
L 831.763088 99.675 
z
" style="fill: #5c6d71"/>
    </g>
    <g id="text_24">
     <text style="font: 15px &quot;Suisse Int&apos;l&quot;, sans-serif; text-anchor: start" x="852.763088" y="112.425" transform="rotate(-0 852.763088 112.425)">Middle</text>
    </g>
   </g>
  </g>
  <g id="text_25">
   <text style="font: 500 16px &quot;Suisse Int&apos;l&quot;, sans-serif; text-anchor: middle" x="486" y="16.64" transform="rotate(-0 486 16.64)">position_in_tube</text>
  </g>
 </g>
 <defs>
  <clipPath id="p3a014eca08">
   <rect x="73.95" y="47.4" width="225.327451" height="140.4"/>
  </clipPath>
  <clipPath id="pa4d07e5ffc">
   <rect x="368.977451" y="47.4" width="225.327451" height="140.4"/>
  </clipPath>
  <clipPath id="pc9e3a857a5">
   <rect x="664.004902" y="47.4" width="225.327451" height="140.4"/>
  </clipPath>
 </defs>
</svg>
