<?xml version="1.0" encoding="utf-8" standalone="no"?>
<!DOCTYPE svg PUBLIC "-//W3C//DTD SVG 1.1//EN"
  "http://www.w3.org/Graphics/SVG/1.1/DTD/svg11.dtd">
<svg xmlns:xlink="http://www.w3.org/1999/xlink" width="360pt" height="360pt" viewBox="0 0 360 360" xmlns="http://www.w3.org/2000/svg" version="1.1">
 <metadata>
  <rdf:RDF xmlns:dc="http://purl.org/dc/elements/1.1/" xmlns:cc="http://creativecommons.org/ns#" xmlns:rdf="http://www.w3.org/1999/02/22-rdf-syntax-ns#">
   <cc:Work>
    <dc:type rdf:resource="http://purl.org/dc/dcmitype/StillImage"/>
    <dc:date>2024-07-22T16:55:42.252429</dc:date>
    <dc:format>image/svg+xml</dc:format>
    <dc:creator>
     <cc:Agent>
      <dc:title>Matplotlib v3.8.4, https://matplotlib.org/</dc:title>
     </cc:Agent>
    </dc:creator>
   </cc:Work>
  </rdf:RDF>
 </metadata>
 <defs>
  <style type="text/css">*{stroke-linejoin: round; stroke-linecap: butt}</style>
 </defs>
 <g id="figure_1">
  <g id="patch_1">
   <path d="M 0 360 
L 360 360 
L 360 0 
L 0 0 
L 0 360 
z
" style="fill: none"/>
  </g>
  <g id="axes_1">
   <g id="patch_2">
    <path d="M 73.95 295.8 
L 297.54 295.8 
L 297.54 64.131429 
L 73.95 64.131429 
L 73.95 295.8 
z
" style="fill: none"/>
   </g>
   <g id="PathCollection_1">
    <defs>
     <path id="C0_0_0e2a2bbce1" d="M 0 3 
C 0.795609 3 1.55874 2.683901 2.12132 2.12132 
C 2.683901 1.55874 3 0.795609 3 -0 
C 3 -0.795609 2.683901 -1.55874 2.12132 -2.12132 
C 1.55874 -2.683901 0.795609 -3 0 -3 
C -0.795609 -3 -1.55874 -2.683901 -2.12132 -2.12132 
C -2.683901 -1.55874 -3 -0.795609 -3 0 
C -3 0.795609 -2.683901 1.55874 -2.12132 2.12132 
C -1.55874 2.683901 -0.795609 3 0 3 
z
"/>
    </defs>
    <g clip-path="url(#p3822417111)">
     <use xlink:href="#C0_0_0e2a2bbce1" x="122.911777" y="243.46601" style="fill: #f28360; stroke: #ffffff; stroke-width: 0.48"/>
    </g>
    <g clip-path="url(#p3822417111)">
     <use xlink:href="#C0_0_0e2a2bbce1" x="144.496152" y="246.779917" style="fill: #f28360; stroke: #ffffff; stroke-width: 0.48"/>
    </g>
    <g clip-path="url(#p3822417111)">
     <use xlink:href="#C0_0_0e2a2bbce1" x="116.012308" y="241.907799" style="fill: #f28360; stroke: #ffffff; stroke-width: 0.48"/>
    </g>
    <g clip-path="url(#p3822417111)">
     <use xlink:href="#C0_0_0e2a2bbce1" x="129.868367" y="240.412875" style="fill: #f28360; stroke: #ffffff; stroke-width: 0.48"/>
    </g>
    <g clip-path="url(#p3822417111)">
     <use xlink:href="#C0_0_0e2a2bbce1" x="113.519619" y="249.43145" style="fill: #f28360; stroke: #ffffff; stroke-width: 0.48"/>
    </g>
    <g clip-path="url(#p3822417111)">
     <use xlink:href="#C0_0_0e2a2bbce1" x="124.793603" y="251.970855" style="fill: #f28360; stroke: #ffffff; stroke-width: 0.48"/>
    </g>
    <g clip-path="url(#p3822417111)">
     <use xlink:href="#C0_0_0e2a2bbce1" x="118.463843" y="250.450293" style="fill: #f28360; stroke: #ffffff; stroke-width: 0.48"/>
    </g>
    <g clip-path="url(#p3822417111)">
     <use xlink:href="#C0_0_0e2a2bbce1" x="132.191493" y="245.705764" style="fill: #f28360; stroke: #ffffff; stroke-width: 0.48"/>
    </g>
    <g clip-path="url(#p3822417111)">
     <use xlink:href="#C0_0_0e2a2bbce1" x="124.61888" y="245.651936" style="fill: #f28360; stroke: #ffffff; stroke-width: 0.48"/>
    </g>
    <g clip-path="url(#p3822417111)">
     <use xlink:href="#C0_0_0e2a2bbce1" x="132.147918" y="236.050484" style="fill: #f28360; stroke: #ffffff; stroke-width: 0.48"/>
    </g>
    <g clip-path="url(#p3822417111)">
     <use xlink:href="#C0_0_0e2a2bbce1" x="132.758181" y="245.254899" style="fill: #f28360; stroke: #ffffff; stroke-width: 0.48"/>
    </g>
    <g clip-path="url(#p3822417111)">
     <use xlink:href="#C0_0_0e2a2bbce1" x="128.752603" y="242.034241" style="fill: #f28360; stroke: #ffffff; stroke-width: 0.48"/>
    </g>
    <g clip-path="url(#p3822417111)">
     <use xlink:href="#C0_0_0e2a2bbce1" x="118.451811" y="240.556948" style="fill: #f28360; stroke: #ffffff; stroke-width: 0.48"/>
    </g>
    <g clip-path="url(#p3822417111)">
     <use xlink:href="#C0_0_0e2a2bbce1" x="124.815173" y="237.54462" style="fill: #f28360; stroke: #ffffff; stroke-width: 0.48"/>
    </g>
    <g clip-path="url(#p3822417111)">
     <use xlink:href="#C0_0_0e2a2bbce1" x="136.265415" y="238.096545" style="fill: #f28360; stroke: #ffffff; stroke-width: 0.48"/>
    </g>
    <g clip-path="url(#p3822417111)">
     <use xlink:href="#C0_0_0e2a2bbce1" x="112.564024" y="242.478423" style="fill: #f28360; stroke: #ffffff; stroke-width: 0.48"/>
    </g>
    <g clip-path="url(#p3822417111)">
     <use xlink:href="#C0_0_0e2a2bbce1" x="129.490239" y="244.766878" style="fill: #f28360; stroke: #ffffff; stroke-width: 0.48"/>
    </g>
    <g clip-path="url(#p3822417111)">
     <use xlink:href="#C0_0_0e2a2bbce1" x="126.377222" y="236.98291" style="fill: #f28360; stroke: #ffffff; stroke-width: 0.48"/>
    </g>
    <g clip-path="url(#p3822417111)">
     <use xlink:href="#C0_0_0e2a2bbce1" x="140.488474" y="257.385353" style="fill: #f28360; stroke: #ffffff; stroke-width: 0.48"/>
    </g>
    <g clip-path="url(#p3822417111)">
     <use xlink:href="#C0_0_0e2a2bbce1" x="123.407951" y="239.212309" style="fill: #f28360; stroke: #ffffff; stroke-width: 0.48"/>
    </g>
    <g clip-path="url(#p3822417111)">
     <use xlink:href="#C0_0_0e2a2bbce1" x="124.452348" y="246.828474" style="fill: #f28360; stroke: #ffffff; stroke-width: 0.48"/>
    </g>
    <g clip-path="url(#p3822417111)">
     <use xlink:href="#C0_0_0e2a2bbce1" x="115.268121" y="241.296458" style="fill: #f28360; stroke: #ffffff; stroke-width: 0.48"/>
    </g>
    <g clip-path="url(#p3822417111)">
     <use xlink:href="#C0_0_0e2a2bbce1" x="128.557704" y="239.375211" style="fill: #f28360; stroke: #ffffff; stroke-width: 0.48"/>
    </g>
    <g clip-path="url(#p3822417111)">
     <use xlink:href="#C0_0_0e2a2bbce1" x="119.902088" y="250.225707" style="fill: #f28360; stroke: #ffffff; stroke-width: 0.48"/>
    </g>
    <g clip-path="url(#p3822417111)">
     <use xlink:href="#C0_0_0e2a2bbce1" x="114.708764" y="255.878188" style="fill: #f28360; stroke: #ffffff; stroke-width: 0.48"/>
    </g>
    <g clip-path="url(#p3822417111)">
     <use xlink:href="#C0_0_0e2a2bbce1" x="126.452478" y="242.021663" style="fill: #f28360; stroke: #ffffff; stroke-width: 0.48"/>
    </g>
    <g clip-path="url(#p3822417111)">
     <use xlink:href="#C0_0_0e2a2bbce1" x="143.351506" y="221.000658" style="fill: #f28360; stroke: #ffffff; stroke-width: 0.48"/>
    </g>
    <g clip-path="url(#p3822417111)">
     <use xlink:href="#C0_0_0e2a2bbce1" x="143.722444" y="248.49563" style="fill: #f28360; stroke: #ffffff; stroke-width: 0.48"/>
    </g>
    <g clip-path="url(#p3822417111)">
     <use xlink:href="#C0_0_0e2a2bbce1" x="132.472473" y="249.890223" style="fill: #f28360; stroke: #ffffff; stroke-width: 0.48"/>
    </g>
    <g clip-path="url(#p3822417111)">
     <use xlink:href="#C0_0_0e2a2bbce1" x="124.63284" y="160.166493" style="fill: #f28360; stroke: #ffffff; stroke-width: 0.48"/>
    </g>
    <g clip-path="url(#p3822417111)">
     <use xlink:href="#C0_0_0e2a2bbce1" x="117.010615" y="245.386193" style="fill: #f28360; stroke: #ffffff; stroke-width: 0.48"/>
    </g>
    <g clip-path="url(#p3822417111)">
     <use xlink:href="#C0_0_0e2a2bbce1" x="118.146421" y="247.94467" style="fill: #f28360; stroke: #ffffff; stroke-width: 0.48"/>
    </g>
    <g clip-path="url(#p3822417111)">
     <use xlink:href="#C0_0_0e2a2bbce1" x="114.884061" y="230.810757" style="fill: #f28360; stroke: #ffffff; stroke-width: 0.48"/>
    </g>
    <g clip-path="url(#p3822417111)">
     <use xlink:href="#C0_0_0e2a2bbce1" x="113.458847" y="251.21067" style="fill: #f28360; stroke: #ffffff; stroke-width: 0.48"/>
    </g>
    <g clip-path="url(#p3822417111)">
     <use xlink:href="#C0_0_0e2a2bbce1" x="123.689495" y="247.394075" style="fill: #f28360; stroke: #ffffff; stroke-width: 0.48"/>
    </g>
    <g clip-path="url(#p3822417111)">
     <use xlink:href="#C0_0_0e2a2bbce1" x="115.66187" y="231.393518" style="fill: #f28360; stroke: #ffffff; stroke-width: 0.48"/>
    </g>
    <g clip-path="url(#p3822417111)">
     <use xlink:href="#C0_0_0e2a2bbce1" x="121.150548" y="244.001239" style="fill: #f28360; stroke: #ffffff; stroke-width: 0.48"/>
    </g>
    <g clip-path="url(#p3822417111)">
     <use xlink:href="#C0_0_0e2a2bbce1" x="144.162516" y="221.681015" style="fill: #f28360; stroke: #ffffff; stroke-width: 0.48"/>
    </g>
    <g clip-path="url(#p3822417111)">
     <use xlink:href="#C0_0_0e2a2bbce1" x="136.792153" y="235.365331" style="fill: #f28360; stroke: #ffffff; stroke-width: 0.48"/>
    </g>
    <g clip-path="url(#p3822417111)">
     <use xlink:href="#C0_0_0e2a2bbce1" x="119.626605" y="148.654941" style="fill: #f28360; stroke: #ffffff; stroke-width: 0.48"/>
    </g>
    <g clip-path="url(#p3822417111)">
     <use xlink:href="#C0_0_0e2a2bbce1" x="115.280392" y="119.85953" style="fill: #f28360; stroke: #ffffff; stroke-width: 0.48"/>
    </g>
    <g clip-path="url(#p3822417111)">
     <use xlink:href="#C0_0_0e2a2bbce1" x="159.959253" y="241.82253" style="fill: #f28360; stroke: #ffffff; stroke-width: 0.48"/>
    </g>
    <g clip-path="url(#p3822417111)">
     <use xlink:href="#C0_0_0e2a2bbce1" x="125.831775" y="241.531821" style="fill: #f28360; stroke: #ffffff; stroke-width: 0.48"/>
    </g>
    <g clip-path="url(#p3822417111)">
     <use xlink:href="#C0_0_0e2a2bbce1" x="145.04517" y="249.412508" style="fill: #f28360; stroke: #ffffff; stroke-width: 0.48"/>
    </g>
    <g clip-path="url(#p3822417111)">
     <use xlink:href="#C0_0_0e2a2bbce1" x="117.942919" y="124.349629" style="fill: #f28360; stroke: #ffffff; stroke-width: 0.48"/>
    </g>
    <g clip-path="url(#p3822417111)">
     <use xlink:href="#C0_0_0e2a2bbce1" x="124.870532" y="238.72356" style="fill: #f28360; stroke: #ffffff; stroke-width: 0.48"/>
    </g>
    <g clip-path="url(#p3822417111)">
     <use xlink:href="#C0_0_0e2a2bbce1" x="123.495522" y="240.472118" style="fill: #f28360; stroke: #ffffff; stroke-width: 0.48"/>
    </g>
    <g clip-path="url(#p3822417111)">
     <use xlink:href="#C0_0_0e2a2bbce1" x="137.491328" y="236.729945" style="fill: #f28360; stroke: #ffffff; stroke-width: 0.48"/>
    </g>
    <g clip-path="url(#p3822417111)">
     <use xlink:href="#C0_0_0e2a2bbce1" x="116.208171" y="233.932241" style="fill: #f28360; stroke: #ffffff; stroke-width: 0.48"/>
    </g>
    <g clip-path="url(#p3822417111)">
     <use xlink:href="#C0_0_0e2a2bbce1" x="113.126662" y="251.260003" style="fill: #f28360; stroke: #ffffff; stroke-width: 0.48"/>
    </g>
    <g clip-path="url(#p3822417111)">
     <use xlink:href="#C0_0_0e2a2bbce1" x="114.601658" y="244.59176" style="fill: #f28360; stroke: #ffffff; stroke-width: 0.48"/>
    </g>
    <g clip-path="url(#p3822417111)">
     <use xlink:href="#C0_0_0e2a2bbce1" x="137.562349" y="251.484262" style="fill: #f28360; stroke: #ffffff; stroke-width: 0.48"/>
    </g>
    <g clip-path="url(#p3822417111)">
     <use xlink:href="#C0_0_0e2a2bbce1" x="118.864086" y="148.562991" style="fill: #f28360; stroke: #ffffff; stroke-width: 0.48"/>
    </g>
    <g clip-path="url(#p3822417111)">
     <use xlink:href="#C0_0_0e2a2bbce1" x="129.320914" y="241.147785" style="fill: #f28360; stroke: #ffffff; stroke-width: 0.48"/>
    </g>
    <g clip-path="url(#p3822417111)">
     <use xlink:href="#C0_0_0e2a2bbce1" x="114.324178" y="252.883437" style="fill: #f28360; stroke: #ffffff; stroke-width: 0.48"/>
    </g>
    <g clip-path="url(#p3822417111)">
     <use xlink:href="#C0_0_0e2a2bbce1" x="137.385673" y="250.356548" style="fill: #f28360; stroke: #ffffff; stroke-width: 0.48"/>
    </g>
    <g clip-path="url(#p3822417111)">
     <use xlink:href="#C0_0_0e2a2bbce1" x="117.14137" y="236.176741" style="fill: #f28360; stroke: #ffffff; stroke-width: 0.48"/>
    </g>
    <g clip-path="url(#p3822417111)">
     <use xlink:href="#C0_0_0e2a2bbce1" x="114.380631" y="249.763525" style="fill: #f28360; stroke: #ffffff; stroke-width: 0.48"/>
    </g>
    <g clip-path="url(#p3822417111)">
     <use xlink:href="#C0_0_0e2a2bbce1" x="129.698028" y="235.478645" style="fill: #f28360; stroke: #ffffff; stroke-width: 0.48"/>
    </g>
    <g clip-path="url(#p3822417111)">
     <use xlink:href="#C0_0_0e2a2bbce1" x="141.80122" y="248.452799" style="fill: #f28360; stroke: #ffffff; stroke-width: 0.48"/>
    </g>
    <g clip-path="url(#p3822417111)">
     <use xlink:href="#C0_0_0e2a2bbce1" x="160.853031" y="235.974038" style="fill: #f28360; stroke: #ffffff; stroke-width: 0.48"/>
    </g>
    <g clip-path="url(#p3822417111)">
     <use xlink:href="#C0_0_0e2a2bbce1" x="124.401564" y="249.473067" style="fill: #f28360; stroke: #ffffff; stroke-width: 0.48"/>
    </g>
    <g clip-path="url(#p3822417111)">
     <use xlink:href="#C0_0_0e2a2bbce1" x="115.011787" y="235.687236" style="fill: #f28360; stroke: #ffffff; stroke-width: 0.48"/>
    </g>
    <g clip-path="url(#p3822417111)">
     <use xlink:href="#C0_0_0e2a2bbce1" x="138.606651" y="244.352681" style="fill: #f28360; stroke: #ffffff; stroke-width: 0.48"/>
    </g>
    <g clip-path="url(#p3822417111)">
     <use xlink:href="#C0_0_0e2a2bbce1" x="147.11502" y="233.10249" style="fill: #f28360; stroke: #ffffff; stroke-width: 0.48"/>
    </g>
    <g clip-path="url(#p3822417111)">
     <use xlink:href="#C0_0_0e2a2bbce1" x="164.645364" y="244.534083" style="fill: #f28360; stroke: #ffffff; stroke-width: 0.48"/>
    </g>
    <g clip-path="url(#p3822417111)">
     <use xlink:href="#C0_0_0e2a2bbce1" x="127.886799" y="236.604833" style="fill: #f28360; stroke: #ffffff; stroke-width: 0.48"/>
    </g>
    <g clip-path="url(#p3822417111)">
     <use xlink:href="#C0_0_0e2a2bbce1" x="116.911901" y="242.353493" style="fill: #f28360; stroke: #ffffff; stroke-width: 0.48"/>
    </g>
    <g clip-path="url(#p3822417111)">
     <use xlink:href="#C0_0_0e2a2bbce1" x="124.206799" y="238.170379" style="fill: #f28360; stroke: #ffffff; stroke-width: 0.48"/>
    </g>
    <g clip-path="url(#p3822417111)">
     <use xlink:href="#C0_0_0e2a2bbce1" x="127.512732" y="232.262804" style="fill: #f28360; stroke: #ffffff; stroke-width: 0.48"/>
    </g>
    <g clip-path="url(#p3822417111)">
     <use xlink:href="#C0_0_0e2a2bbce1" x="129.714221" y="247.959449" style="fill: #f28360; stroke: #ffffff; stroke-width: 0.48"/>
    </g>
    <g clip-path="url(#p3822417111)">
     <use xlink:href="#C0_0_0e2a2bbce1" x="119.072289" y="239.942282" style="fill: #f28360; stroke: #ffffff; stroke-width: 0.48"/>
    </g>
    <g clip-path="url(#p3822417111)">
     <use xlink:href="#C0_0_0e2a2bbce1" x="134.627227" y="207.677237" style="fill: #f28360; stroke: #ffffff; stroke-width: 0.48"/>
    </g>
    <g clip-path="url(#p3822417111)">
     <use xlink:href="#C0_0_0e2a2bbce1" x="118.82214" y="252.842347" style="fill: #f28360; stroke: #ffffff; stroke-width: 0.48"/>
    </g>
    <g clip-path="url(#p3822417111)">
     <use xlink:href="#C0_0_0e2a2bbce1" x="126.161139" y="250.375177" style="fill: #f28360; stroke: #ffffff; stroke-width: 0.48"/>
    </g>
    <g clip-path="url(#p3822417111)">
     <use xlink:href="#C0_0_0e2a2bbce1" x="113.431678" y="211.993727" style="fill: #f28360; stroke: #ffffff; stroke-width: 0.48"/>
    </g>
    <g clip-path="url(#p3822417111)">
     <use xlink:href="#C0_0_0e2a2bbce1" x="127.82068" y="255.783732" style="fill: #f28360; stroke: #ffffff; stroke-width: 0.48"/>
    </g>
    <g clip-path="url(#p3822417111)">
     <use xlink:href="#C0_0_0e2a2bbce1" x="114.463536" y="225.42935" style="fill: #f28360; stroke: #ffffff; stroke-width: 0.48"/>
    </g>
    <g clip-path="url(#p3822417111)">
     <use xlink:href="#C0_0_0e2a2bbce1" x="126.171515" y="231.243057" style="fill: #f28360; stroke: #ffffff; stroke-width: 0.48"/>
    </g>
    <g clip-path="url(#p3822417111)">
     <use xlink:href="#C0_0_0e2a2bbce1" x="149.318386" y="243.669418" style="fill: #f28360; stroke: #ffffff; stroke-width: 0.48"/>
    </g>
    <g clip-path="url(#p3822417111)">
     <use xlink:href="#C0_0_0e2a2bbce1" x="183.7135" y="246.533205" style="fill: #f28360; stroke: #ffffff; stroke-width: 0.48"/>
    </g>
    <g clip-path="url(#p3822417111)">
     <use xlink:href="#C0_0_0e2a2bbce1" x="129.046011" y="249.48219" style="fill: #f28360; stroke: #ffffff; stroke-width: 0.48"/>
    </g>
    <g clip-path="url(#p3822417111)">
     <use xlink:href="#C0_0_0e2a2bbce1" x="119.077776" y="256.032984" style="fill: #f28360; stroke: #ffffff; stroke-width: 0.48"/>
    </g>
    <g clip-path="url(#p3822417111)">
     <use xlink:href="#C0_0_0e2a2bbce1" x="126.090555" y="243.261331" style="fill: #f28360; stroke: #ffffff; stroke-width: 0.48"/>
    </g>
    <g clip-path="url(#p3822417111)">
     <use xlink:href="#C0_0_0e2a2bbce1" x="130.010511" y="231.596657" style="fill: #f28360; stroke: #ffffff; stroke-width: 0.48"/>
    </g>
    <g clip-path="url(#p3822417111)">
     <use xlink:href="#C0_0_0e2a2bbce1" x="129.633546" y="251.213819" style="fill: #f28360; stroke: #ffffff; stroke-width: 0.48"/>
    </g>
    <g clip-path="url(#p3822417111)">
     <use xlink:href="#C0_0_0e2a2bbce1" x="123.81227" y="243.813821" style="fill: #f28360; stroke: #ffffff; stroke-width: 0.48"/>
    </g>
    <g clip-path="url(#p3822417111)">
     <use xlink:href="#C0_0_0e2a2bbce1" x="158.81882" y="246.83193" style="fill: #f28360; stroke: #ffffff; stroke-width: 0.48"/>
    </g>
    <g clip-path="url(#p3822417111)">
     <use xlink:href="#C0_0_0e2a2bbce1" x="118.940056" y="253.138723" style="fill: #f28360; stroke: #ffffff; stroke-width: 0.48"/>
    </g>
    <g clip-path="url(#p3822417111)">
     <use xlink:href="#C0_0_0e2a2bbce1" x="137.973276" y="251.070592" style="fill: #f28360; stroke: #ffffff; stroke-width: 0.48"/>
    </g>
    <g clip-path="url(#p3822417111)">
     <use xlink:href="#C0_0_0e2a2bbce1" x="126.937763" y="235.568086" style="fill: #f28360; stroke: #ffffff; stroke-width: 0.48"/>
    </g>
    <g clip-path="url(#p3822417111)">
     <use xlink:href="#C0_0_0e2a2bbce1" x="128.305187" y="247.061431" style="fill: #f28360; stroke: #ffffff; stroke-width: 0.48"/>
    </g>
    <g clip-path="url(#p3822417111)">
     <use xlink:href="#C0_0_0e2a2bbce1" x="119.815369" y="244.55946" style="fill: #f28360; stroke: #ffffff; stroke-width: 0.48"/>
    </g>
    <g clip-path="url(#p3822417111)">
     <use xlink:href="#C0_0_0e2a2bbce1" x="140.264475" y="244.516428" style="fill: #f28360; stroke: #ffffff; stroke-width: 0.48"/>
    </g>
    <g clip-path="url(#p3822417111)">
     <use xlink:href="#C0_0_0e2a2bbce1" x="144.580245" y="245.466733" style="fill: #f28360; stroke: #ffffff; stroke-width: 0.48"/>
    </g>
    <g clip-path="url(#p3822417111)">
     <use xlink:href="#C0_0_0e2a2bbce1" x="113.728912" y="236.382035" style="fill: #f28360; stroke: #ffffff; stroke-width: 0.48"/>
    </g>
    <g clip-path="url(#p3822417111)">
     <use xlink:href="#C0_0_0e2a2bbce1" x="120.604676" y="143.209861" style="fill: #f28360; stroke: #ffffff; stroke-width: 0.48"/>
    </g>
    <g clip-path="url(#p3822417111)">
     <use xlink:href="#C0_0_0e2a2bbce1" x="128.976514" y="248.23188" style="fill: #f28360; stroke: #ffffff; stroke-width: 0.48"/>
    </g>
    <g clip-path="url(#p3822417111)">
     <use xlink:href="#C0_0_0e2a2bbce1" x="114.428805" y="249.473072" style="fill: #f28360; stroke: #ffffff; stroke-width: 0.48"/>
    </g>
    <g clip-path="url(#p3822417111)">
     <use xlink:href="#C0_0_0e2a2bbce1" x="127.086853" y="243.566562" style="fill: #f28360; stroke: #ffffff; stroke-width: 0.48"/>
    </g>
    <g clip-path="url(#p3822417111)">
     <use xlink:href="#C0_0_0e2a2bbce1" x="114.854984" y="209.484112" style="fill: #f28360; stroke: #ffffff; stroke-width: 0.48"/>
    </g>
    <g clip-path="url(#p3822417111)">
     <use xlink:href="#C0_0_0e2a2bbce1" x="128.349691" y="247.864644" style="fill: #f28360; stroke: #ffffff; stroke-width: 0.48"/>
    </g>
    <g clip-path="url(#p3822417111)">
     <use xlink:href="#C0_0_0e2a2bbce1" x="128.643136" y="246.791052" style="fill: #f28360; stroke: #ffffff; stroke-width: 0.48"/>
    </g>
    <g clip-path="url(#p3822417111)">
     <use xlink:href="#C0_0_0e2a2bbce1" x="139.215788" y="231.128948" style="fill: #f28360; stroke: #ffffff; stroke-width: 0.48"/>
    </g>
    <g clip-path="url(#p3822417111)">
     <use xlink:href="#C0_0_0e2a2bbce1" x="145.279198" y="240.289371" style="fill: #f28360; stroke: #ffffff; stroke-width: 0.48"/>
    </g>
    <g clip-path="url(#p3822417111)">
     <use xlink:href="#C0_0_0e2a2bbce1" x="166.311853" y="242.685998" style="fill: #f28360; stroke: #ffffff; stroke-width: 0.48"/>
    </g>
    <g clip-path="url(#p3822417111)">
     <use xlink:href="#C0_0_0e2a2bbce1" x="134.948949" y="243.865124" style="fill: #f28360; stroke: #ffffff; stroke-width: 0.48"/>
    </g>
    <g clip-path="url(#p3822417111)">
     <use xlink:href="#C0_0_0e2a2bbce1" x="133.847832" y="253.475271" style="fill: #f28360; stroke: #ffffff; stroke-width: 0.48"/>
    </g>
    <g clip-path="url(#p3822417111)">
     <use xlink:href="#C0_0_0e2a2bbce1" x="124.435725" y="242.760589" style="fill: #f28360; stroke: #ffffff; stroke-width: 0.48"/>
    </g>
    <g clip-path="url(#p3822417111)">
     <use xlink:href="#C0_0_0e2a2bbce1" x="134.716455" y="247.871188" style="fill: #f28360; stroke: #ffffff; stroke-width: 0.48"/>
    </g>
    <g clip-path="url(#p3822417111)">
     <use xlink:href="#C0_0_0e2a2bbce1" x="143.093185" y="226.645874" style="fill: #f28360; stroke: #ffffff; stroke-width: 0.48"/>
    </g>
    <g clip-path="url(#p3822417111)">
     <use xlink:href="#C0_0_0e2a2bbce1" x="120.625601" y="249.24836" style="fill: #f28360; stroke: #ffffff; stroke-width: 0.48"/>
    </g>
    <g clip-path="url(#p3822417111)">
     <use xlink:href="#C0_0_0e2a2bbce1" x="139.831965" y="236.535247" style="fill: #f28360; stroke: #ffffff; stroke-width: 0.48"/>
    </g>
    <g clip-path="url(#p3822417111)">
     <use xlink:href="#C0_0_0e2a2bbce1" x="164.425145" y="248.095158" style="fill: #f28360; stroke: #ffffff; stroke-width: 0.48"/>
    </g>
    <g clip-path="url(#p3822417111)">
     <use xlink:href="#C0_0_0e2a2bbce1" x="153.441883" y="228.712078" style="fill: #f28360; stroke: #ffffff; stroke-width: 0.48"/>
    </g>
    <g clip-path="url(#p3822417111)">
     <use xlink:href="#C0_0_0e2a2bbce1" x="113.179286" y="244.785421" style="fill: #f28360; stroke: #ffffff; stroke-width: 0.48"/>
    </g>
    <g clip-path="url(#p3822417111)">
     <use xlink:href="#C0_0_0e2a2bbce1" x="115.488706" y="239.810581" style="fill: #f28360; stroke: #ffffff; stroke-width: 0.48"/>
    </g>
    <g clip-path="url(#p3822417111)">
     <use xlink:href="#C0_0_0e2a2bbce1" x="113.997566" y="225.17025" style="fill: #f28360; stroke: #ffffff; stroke-width: 0.48"/>
    </g>
    <g clip-path="url(#p3822417111)">
     <use xlink:href="#C0_0_0e2a2bbce1" x="134.614693" y="254.107156" style="fill: #f28360; stroke: #ffffff; stroke-width: 0.48"/>
    </g>
    <g clip-path="url(#p3822417111)">
     <use xlink:href="#C0_0_0e2a2bbce1" x="138.005306" y="235.182327" style="fill: #f28360; stroke: #ffffff; stroke-width: 0.48"/>
    </g>
    <g clip-path="url(#p3822417111)">
     <use xlink:href="#C0_0_0e2a2bbce1" x="118.730324" y="233.069201" style="fill: #f28360; stroke: #ffffff; stroke-width: 0.48"/>
    </g>
    <g clip-path="url(#p3822417111)">
     <use xlink:href="#C0_0_0e2a2bbce1" x="130.454657" y="247.998827" style="fill: #f28360; stroke: #ffffff; stroke-width: 0.48"/>
    </g>
    <g clip-path="url(#p3822417111)">
     <use xlink:href="#C0_0_0e2a2bbce1" x="128.235416" y="241.630341" style="fill: #f28360; stroke: #ffffff; stroke-width: 0.48"/>
    </g>
    <g clip-path="url(#p3822417111)">
     <use xlink:href="#C0_0_0e2a2bbce1" x="119.72503" y="225.401063" style="fill: #f28360; stroke: #ffffff; stroke-width: 0.48"/>
    </g>
    <g clip-path="url(#p3822417111)">
     <use xlink:href="#C0_0_0e2a2bbce1" x="118.884845" y="238.803616" style="fill: #f28360; stroke: #ffffff; stroke-width: 0.48"/>
    </g>
    <g clip-path="url(#p3822417111)">
     <use xlink:href="#C0_0_0e2a2bbce1" x="132.427891" y="238.66307" style="fill: #f28360; stroke: #ffffff; stroke-width: 0.48"/>
    </g>
    <g clip-path="url(#p3822417111)">
     <use xlink:href="#C0_0_0e2a2bbce1" x="119.778845" y="244.34705" style="fill: #f28360; stroke: #ffffff; stroke-width: 0.48"/>
    </g>
    <g clip-path="url(#p3822417111)">
     <use xlink:href="#C0_0_0e2a2bbce1" x="144.35167" y="226.38276" style="fill: #f28360; stroke: #ffffff; stroke-width: 0.48"/>
    </g>
    <g clip-path="url(#p3822417111)">
     <use xlink:href="#C0_0_0e2a2bbce1" x="121.985196" y="254.201889" style="fill: #f28360; stroke: #ffffff; stroke-width: 0.48"/>
    </g>
    <g clip-path="url(#p3822417111)">
     <use xlink:href="#C0_0_0e2a2bbce1" x="125.765869" y="249.740984" style="fill: #f28360; stroke: #ffffff; stroke-width: 0.48"/>
    </g>
    <g clip-path="url(#p3822417111)">
     <use xlink:href="#C0_0_0e2a2bbce1" x="131.855177" y="253.584597" style="fill: #f28360; stroke: #ffffff; stroke-width: 0.48"/>
    </g>
    <g clip-path="url(#p3822417111)">
     <use xlink:href="#C0_0_0e2a2bbce1" x="122.557207" y="235.113749" style="fill: #f28360; stroke: #ffffff; stroke-width: 0.48"/>
    </g>
    <g clip-path="url(#p3822417111)">
     <use xlink:href="#C0_0_0e2a2bbce1" x="112.678252" y="173.068028" style="fill: #f28360; stroke: #ffffff; stroke-width: 0.48"/>
    </g>
    <g clip-path="url(#p3822417111)">
     <use xlink:href="#C0_0_0e2a2bbce1" x="126.740193" y="102.546076" style="fill: #f28360; stroke: #ffffff; stroke-width: 0.48"/>
    </g>
    <g clip-path="url(#p3822417111)">
     <use xlink:href="#C0_0_0e2a2bbce1" x="121.526276" y="254.900162" style="fill: #f28360; stroke: #ffffff; stroke-width: 0.48"/>
    </g>
    <g clip-path="url(#p3822417111)">
     <use xlink:href="#C0_0_0e2a2bbce1" x="117.355557" y="253.079977" style="fill: #f28360; stroke: #ffffff; stroke-width: 0.48"/>
    </g>
    <g clip-path="url(#p3822417111)">
     <use xlink:href="#C0_0_0e2a2bbce1" x="123.088603" y="244.190581" style="fill: #f28360; stroke: #ffffff; stroke-width: 0.48"/>
    </g>
    <g clip-path="url(#p3822417111)">
     <use xlink:href="#C0_0_0e2a2bbce1" x="125.33114" y="247.980784" style="fill: #f28360; stroke: #ffffff; stroke-width: 0.48"/>
    </g>
    <g clip-path="url(#p3822417111)">
     <use xlink:href="#C0_0_0e2a2bbce1" x="138.212338" y="135.82215" style="fill: #f28360; stroke: #ffffff; stroke-width: 0.48"/>
    </g>
    <g clip-path="url(#p3822417111)">
     <use xlink:href="#C0_0_0e2a2bbce1" x="117.093841" y="243.487535" style="fill: #f28360; stroke: #ffffff; stroke-width: 0.48"/>
    </g>
    <g clip-path="url(#p3822417111)">
     <use xlink:href="#C0_0_0e2a2bbce1" x="133.212157" y="246.584168" style="fill: #f28360; stroke: #ffffff; stroke-width: 0.48"/>
    </g>
    <g clip-path="url(#p3822417111)">
     <use xlink:href="#C0_0_0e2a2bbce1" x="129.690828" y="252.287647" style="fill: #f28360; stroke: #ffffff; stroke-width: 0.48"/>
    </g>
    <g clip-path="url(#p3822417111)">
     <use xlink:href="#C0_0_0e2a2bbce1" x="122.878088" y="238.014151" style="fill: #f28360; stroke: #ffffff; stroke-width: 0.48"/>
    </g>
    <g clip-path="url(#p3822417111)">
     <use xlink:href="#C0_0_0e2a2bbce1" x="121.626744" y="253.720772" style="fill: #f28360; stroke: #ffffff; stroke-width: 0.48"/>
    </g>
    <g clip-path="url(#p3822417111)">
     <use xlink:href="#C0_0_0e2a2bbce1" x="121.311974" y="247.918466" style="fill: #f28360; stroke: #ffffff; stroke-width: 0.48"/>
    </g>
    <g clip-path="url(#p3822417111)">
     <use xlink:href="#C0_0_0e2a2bbce1" x="179.714475" y="249.410989" style="fill: #7a77ab; stroke: #ffffff; stroke-width: 0.48"/>
    </g>
    <g clip-path="url(#p3822417111)">
     <use xlink:href="#C0_0_0e2a2bbce1" x="191.900308" y="235.200793" style="fill: #7a77ab; stroke: #ffffff; stroke-width: 0.48"/>
    </g>
    <g clip-path="url(#p3822417111)">
     <use xlink:href="#C0_0_0e2a2bbce1" x="129.591949" y="173.111567" style="fill: #7a77ab; stroke: #ffffff; stroke-width: 0.48"/>
    </g>
    <g clip-path="url(#p3822417111)">
     <use xlink:href="#C0_0_0e2a2bbce1" x="205.283233" y="246.379591" style="fill: #7a77ab; stroke: #ffffff; stroke-width: 0.48"/>
    </g>
    <g clip-path="url(#p3822417111)">
     <use xlink:href="#C0_0_0e2a2bbce1" x="201.786502" y="250.223789" style="fill: #7a77ab; stroke: #ffffff; stroke-width: 0.48"/>
    </g>
    <g clip-path="url(#p3822417111)">
     <use xlink:href="#C0_0_0e2a2bbce1" x="224.495526" y="249.403052" style="fill: #7a77ab; stroke: #ffffff; stroke-width: 0.48"/>
    </g>
    <g clip-path="url(#p3822417111)">
     <use xlink:href="#C0_0_0e2a2bbce1" x="140.637437" y="255.993336" style="fill: #7a77ab; stroke: #ffffff; stroke-width: 0.48"/>
    </g>
    <g clip-path="url(#p3822417111)">
     <use xlink:href="#C0_0_0e2a2bbce1" x="222.301493" y="254.23392" style="fill: #7a77ab; stroke: #ffffff; stroke-width: 0.48"/>
    </g>
    <g clip-path="url(#p3822417111)">
     <use xlink:href="#C0_0_0e2a2bbce1" x="237.218052" y="254.033284" style="fill: #7a77ab; stroke: #ffffff; stroke-width: 0.48"/>
    </g>
    <g clip-path="url(#p3822417111)">
     <use xlink:href="#C0_0_0e2a2bbce1" x="123.344249" y="248.215952" style="fill: #7a77ab; stroke: #ffffff; stroke-width: 0.48"/>
    </g>
    <g clip-path="url(#p3822417111)">
     <use xlink:href="#C0_0_0e2a2bbce1" x="198.612871" y="253.181505" style="fill: #7a77ab; stroke: #ffffff; stroke-width: 0.48"/>
    </g>
    <g clip-path="url(#p3822417111)">
     <use xlink:href="#C0_0_0e2a2bbce1" x="243.348952" y="255.102656" style="fill: #7a77ab; stroke: #ffffff; stroke-width: 0.48"/>
    </g>
    <g clip-path="url(#p3822417111)">
     <use xlink:href="#C0_0_0e2a2bbce1" x="177.352485" y="210.613173" style="fill: #7a77ab; stroke: #ffffff; stroke-width: 0.48"/>
    </g>
    <g clip-path="url(#p3822417111)">
     <use xlink:href="#C0_0_0e2a2bbce1" x="168.861192" y="207.277532" style="fill: #7a77ab; stroke: #ffffff; stroke-width: 0.48"/>
    </g>
    <g clip-path="url(#p3822417111)">
     <use xlink:href="#C0_0_0e2a2bbce1" x="174.251366" y="200.87485" style="fill: #7a77ab; stroke: #ffffff; stroke-width: 0.48"/>
    </g>
    <g clip-path="url(#p3822417111)">
     <use xlink:href="#C0_0_0e2a2bbce1" x="188.964502" y="220.494603" style="fill: #7a77ab; stroke: #ffffff; stroke-width: 0.48"/>
    </g>
    <g clip-path="url(#p3822417111)">
     <use xlink:href="#C0_0_0e2a2bbce1" x="230.661827" y="259.418913" style="fill: #7a77ab; stroke: #ffffff; stroke-width: 0.48"/>
    </g>
    <g clip-path="url(#p3822417111)">
     <use xlink:href="#C0_0_0e2a2bbce1" x="178.427766" y="254.516365" style="fill: #7a77ab; stroke: #ffffff; stroke-width: 0.48"/>
    </g>
    <g clip-path="url(#p3822417111)">
     <use xlink:href="#C0_0_0e2a2bbce1" x="188.922098" y="252.139521" style="fill: #7a77ab; stroke: #ffffff; stroke-width: 0.48"/>
    </g>
    <g clip-path="url(#p3822417111)">
     <use xlink:href="#C0_0_0e2a2bbce1" x="248.145751" y="261.906262" style="fill: #7a77ab; stroke: #ffffff; stroke-width: 0.48"/>
    </g>
    <g clip-path="url(#p3822417111)">
     <use xlink:href="#C0_0_0e2a2bbce1" x="228.317489" y="249.737949" style="fill: #7a77ab; stroke: #ffffff; stroke-width: 0.48"/>
    </g>
    <g clip-path="url(#p3822417111)">
     <use xlink:href="#C0_0_0e2a2bbce1" x="192.145896" y="252.343367" style="fill: #7a77ab; stroke: #ffffff; stroke-width: 0.48"/>
    </g>
    <g clip-path="url(#p3822417111)">
     <use xlink:href="#C0_0_0e2a2bbce1" x="239.41119" y="251.418881" style="fill: #7a77ab; stroke: #ffffff; stroke-width: 0.48"/>
    </g>
    <g clip-path="url(#p3822417111)">
     <use xlink:href="#C0_0_0e2a2bbce1" x="159.401188" y="187.878661" style="fill: #7a77ab; stroke: #ffffff; stroke-width: 0.48"/>
    </g>
    <g clip-path="url(#p3822417111)">
     <use xlink:href="#C0_0_0e2a2bbce1" x="202.858787" y="228.764652" style="fill: #7a77ab; stroke: #ffffff; stroke-width: 0.48"/>
    </g>
    <g clip-path="url(#p3822417111)">
     <use xlink:href="#C0_0_0e2a2bbce1" x="207.562774" y="232.217179" style="fill: #7a77ab; stroke: #ffffff; stroke-width: 0.48"/>
    </g>
    <g clip-path="url(#p3822417111)">
     <use xlink:href="#C0_0_0e2a2bbce1" x="216.855804" y="238.298671" style="fill: #7a77ab; stroke: #ffffff; stroke-width: 0.48"/>
    </g>
    <g clip-path="url(#p3822417111)">
     <use xlink:href="#C0_0_0e2a2bbce1" x="211.15696" y="235.247543" style="fill: #7a77ab; stroke: #ffffff; stroke-width: 0.48"/>
    </g>
    <g clip-path="url(#p3822417111)">
     <use xlink:href="#C0_0_0e2a2bbce1" x="213.847014" y="233.781462" style="fill: #7a77ab; stroke: #ffffff; stroke-width: 0.48"/>
    </g>
    <g clip-path="url(#p3822417111)">
     <use xlink:href="#C0_0_0e2a2bbce1" x="130.905986" y="243.066426" style="fill: #7a77ab; stroke: #ffffff; stroke-width: 0.48"/>
    </g>
    <g clip-path="url(#p3822417111)">
     <use xlink:href="#C0_0_0e2a2bbce1" x="245.317534" y="254.128432" style="fill: #7a77ab; stroke: #ffffff; stroke-width: 0.48"/>
    </g>
    <g clip-path="url(#p3822417111)">
     <use xlink:href="#C0_0_0e2a2bbce1" x="219.488346" y="250.037188" style="fill: #7a77ab; stroke: #ffffff; stroke-width: 0.48"/>
    </g>
    <g clip-path="url(#p3822417111)">
     <use xlink:href="#C0_0_0e2a2bbce1" x="152.70905" y="235.319315" style="fill: #7a77ab; stroke: #ffffff; stroke-width: 0.48"/>
    </g>
    <g clip-path="url(#p3822417111)">
     <use xlink:href="#C0_0_0e2a2bbce1" x="171.311991" y="242.815934" style="fill: #7a77ab; stroke: #ffffff; stroke-width: 0.48"/>
    </g>
    <g clip-path="url(#p3822417111)">
     <use xlink:href="#C0_0_0e2a2bbce1" x="234.324291" y="255.93739" style="fill: #7a77ab; stroke: #ffffff; stroke-width: 0.48"/>
    </g>
    <g clip-path="url(#p3822417111)">
     <use xlink:href="#C0_0_0e2a2bbce1" x="171.753907" y="248.454572" style="fill: #7a77ab; stroke: #ffffff; stroke-width: 0.48"/>
    </g>
    <g clip-path="url(#p3822417111)">
     <use xlink:href="#C0_0_0e2a2bbce1" x="150.49141" y="214.805707" style="fill: #7a77ab; stroke: #ffffff; stroke-width: 0.48"/>
    </g>
    <g clip-path="url(#p3822417111)">
     <use xlink:href="#C0_0_0e2a2bbce1" x="168.793984" y="255.911" style="fill: #7a77ab; stroke: #ffffff; stroke-width: 0.48"/>
    </g>
    <g clip-path="url(#p3822417111)">
     <use xlink:href="#C0_0_0e2a2bbce1" x="186.328348" y="249.40303" style="fill: #7a77ab; stroke: #ffffff; stroke-width: 0.48"/>
    </g>
    <g clip-path="url(#p3822417111)">
     <use xlink:href="#C0_0_0e2a2bbce1" x="161.052431" y="235.278257" style="fill: #7a77ab; stroke: #ffffff; stroke-width: 0.48"/>
    </g>
    <g clip-path="url(#p3822417111)">
     <use xlink:href="#C0_0_0e2a2bbce1" x="207.998027" y="233.625393" style="fill: #7a77ab; stroke: #ffffff; stroke-width: 0.48"/>
    </g>
    <g clip-path="url(#p3822417111)">
     <use xlink:href="#C0_0_0e2a2bbce1" x="201.424413" y="232.650258" style="fill: #7a77ab; stroke: #ffffff; stroke-width: 0.48"/>
    </g>
    <g clip-path="url(#p3822417111)">
     <use xlink:href="#C0_0_0e2a2bbce1" x="222.345237" y="247.375132" style="fill: #7a77ab; stroke: #ffffff; stroke-width: 0.48"/>
    </g>
    <g clip-path="url(#p3822417111)">
     <use xlink:href="#C0_0_0e2a2bbce1" x="232.972022" y="244.410955" style="fill: #7a77ab; stroke: #ffffff; stroke-width: 0.48"/>
    </g>
    <g clip-path="url(#p3822417111)">
     <use xlink:href="#C0_0_0e2a2bbce1" x="151.703064" y="242.66593" style="fill: #7a77ab; stroke: #ffffff; stroke-width: 0.48"/>
    </g>
    <g clip-path="url(#p3822417111)">
     <use xlink:href="#C0_0_0e2a2bbce1" x="231.153037" y="251.225906" style="fill: #7a77ab; stroke: #ffffff; stroke-width: 0.48"/>
    </g>
    <g clip-path="url(#p3822417111)">
     <use xlink:href="#C0_0_0e2a2bbce1" x="214.619327" y="257.929866" style="fill: #7a77ab; stroke: #ffffff; stroke-width: 0.48"/>
    </g>
    <g clip-path="url(#p3822417111)">
     <use xlink:href="#C0_0_0e2a2bbce1" x="206.50314" y="257.419001" style="fill: #7a77ab; stroke: #ffffff; stroke-width: 0.48"/>
    </g>
    <g clip-path="url(#p3822417111)">
     <use xlink:href="#C0_0_0e2a2bbce1" x="186.460307" y="233.396907" style="fill: #7a77ab; stroke: #ffffff; stroke-width: 0.48"/>
    </g>
    <g clip-path="url(#p3822417111)">
     <use xlink:href="#C0_0_0e2a2bbce1" x="144.702934" y="221.844844" style="fill: #7a77ab; stroke: #ffffff; stroke-width: 0.48"/>
    </g>
    <g clip-path="url(#p3822417111)">
     <use xlink:href="#C0_0_0e2a2bbce1" x="185.044149" y="245.033824" style="fill: #7a77ab; stroke: #ffffff; stroke-width: 0.48"/>
    </g>
    <g clip-path="url(#p3822417111)">
     <use xlink:href="#C0_0_0e2a2bbce1" x="171.900206" y="216.208364" style="fill: #7a77ab; stroke: #ffffff; stroke-width: 0.48"/>
    </g>
    <g clip-path="url(#p3822417111)">
     <use xlink:href="#C0_0_0e2a2bbce1" x="168.878773" y="209.087732" style="fill: #7a77ab; stroke: #ffffff; stroke-width: 0.48"/>
    </g>
    <g clip-path="url(#p3822417111)">
     <use xlink:href="#C0_0_0e2a2bbce1" x="152.997588" y="219.875607" style="fill: #7a77ab; stroke: #ffffff; stroke-width: 0.48"/>
    </g>
    <g clip-path="url(#p3822417111)">
     <use xlink:href="#C0_0_0e2a2bbce1" x="178.747098" y="253.815039" style="fill: #7a77ab; stroke: #ffffff; stroke-width: 0.48"/>
    </g>
    <g clip-path="url(#p3822417111)">
     <use xlink:href="#C0_0_0e2a2bbce1" x="228.651303" y="254.595865" style="fill: #7a77ab; stroke: #ffffff; stroke-width: 0.48"/>
    </g>
    <g clip-path="url(#p3822417111)">
     <use xlink:href="#C0_0_0e2a2bbce1" x="146.043223" y="240.726862" style="fill: #7a77ab; stroke: #ffffff; stroke-width: 0.48"/>
    </g>
    <g clip-path="url(#p3822417111)">
     <use xlink:href="#C0_0_0e2a2bbce1" x="141.128708" y="202.472" style="fill: #7a77ab; stroke: #ffffff; stroke-width: 0.48"/>
    </g>
    <g clip-path="url(#p3822417111)">
     <use xlink:href="#C0_0_0e2a2bbce1" x="158.02421" y="252.371707" style="fill: #7a77ab; stroke: #ffffff; stroke-width: 0.48"/>
    </g>
    <g clip-path="url(#p3822417111)">
     <use xlink:href="#C0_0_0e2a2bbce1" x="216.808691" y="236.71757" style="fill: #7a77ab; stroke: #ffffff; stroke-width: 0.48"/>
    </g>
    <g clip-path="url(#p3822417111)">
     <use xlink:href="#C0_0_0e2a2bbce1" x="164.410039" y="239.698569" style="fill: #7a77ab; stroke: #ffffff; stroke-width: 0.48"/>
    </g>
    <g clip-path="url(#p3822417111)">
     <use xlink:href="#C0_0_0e2a2bbce1" x="155.289642" y="250.500471" style="fill: #7a77ab; stroke: #ffffff; stroke-width: 0.48"/>
    </g>
    <g clip-path="url(#p3822417111)">
     <use xlink:href="#C0_0_0e2a2bbce1" x="203.041272" y="247.943948" style="fill: #7a77ab; stroke: #ffffff; stroke-width: 0.48"/>
    </g>
    <g clip-path="url(#p3822417111)">
     <use xlink:href="#C0_0_0e2a2bbce1" x="198.678434" y="242.388618" style="fill: #7a77ab; stroke: #ffffff; stroke-width: 0.48"/>
    </g>
    <g clip-path="url(#p3822417111)">
     <use xlink:href="#C0_0_0e2a2bbce1" x="227.895041" y="258.611069" style="fill: #7a77ab; stroke: #ffffff; stroke-width: 0.48"/>
    </g>
    <g clip-path="url(#p3822417111)">
     <use xlink:href="#C0_0_0e2a2bbce1" x="183.686158" y="242.976065" style="fill: #7a77ab; stroke: #ffffff; stroke-width: 0.48"/>
    </g>
    <g clip-path="url(#p3822417111)">
     <use xlink:href="#C0_0_0e2a2bbce1" x="181.957905" y="245.316468" style="fill: #7a77ab; stroke: #ffffff; stroke-width: 0.48"/>
    </g>
    <g clip-path="url(#p3822417111)">
     <use xlink:href="#C0_0_0e2a2bbce1" x="160.420028" y="231.2548" style="fill: #7a77ab; stroke: #ffffff; stroke-width: 0.48"/>
    </g>
    <g clip-path="url(#p3822417111)">
     <use xlink:href="#C0_0_0e2a2bbce1" x="170.655519" y="249.033153" style="fill: #7a77ab; stroke: #ffffff; stroke-width: 0.48"/>
    </g>
    <g clip-path="url(#p3822417111)">
     <use xlink:href="#C0_0_0e2a2bbce1" x="216.939091" y="246.797845" style="fill: #7a77ab; stroke: #ffffff; stroke-width: 0.48"/>
    </g>
    <g clip-path="url(#p3822417111)">
     <use xlink:href="#C0_0_0e2a2bbce1" x="193.177321" y="239.369786" style="fill: #7a77ab; stroke: #ffffff; stroke-width: 0.48"/>
    </g>
    <g clip-path="url(#p3822417111)">
     <use xlink:href="#C0_0_0e2a2bbce1" x="203.730534" y="250.73102" style="fill: #7a77ab; stroke: #ffffff; stroke-width: 0.48"/>
    </g>
    <g clip-path="url(#p3822417111)">
     <use xlink:href="#C0_0_0e2a2bbce1" x="169.047564" y="222.706517" style="fill: #7a77ab; stroke: #ffffff; stroke-width: 0.48"/>
    </g>
    <g clip-path="url(#p3822417111)">
     <use xlink:href="#C0_0_0e2a2bbce1" x="177.761158" y="236.64081" style="fill: #7a77ab; stroke: #ffffff; stroke-width: 0.48"/>
    </g>
    <g clip-path="url(#p3822417111)">
     <use xlink:href="#C0_0_0e2a2bbce1" x="176.638813" y="240.828814" style="fill: #7a77ab; stroke: #ffffff; stroke-width: 0.48"/>
    </g>
    <g clip-path="url(#p3822417111)">
     <use xlink:href="#C0_0_0e2a2bbce1" x="173.086449" y="255.370293" style="fill: #7a77ab; stroke: #ffffff; stroke-width: 0.48"/>
    </g>
    <g clip-path="url(#p3822417111)">
     <use xlink:href="#C0_0_0e2a2bbce1" x="133.933106" y="231.442497" style="fill: #7a77ab; stroke: #ffffff; stroke-width: 0.48"/>
    </g>
    <g clip-path="url(#p3822417111)">
     <use xlink:href="#C0_0_0e2a2bbce1" x="151.785501" y="206.127204" style="fill: #7a77ab; stroke: #ffffff; stroke-width: 0.48"/>
    </g>
    <g clip-path="url(#p3822417111)">
     <use xlink:href="#C0_0_0e2a2bbce1" x="226.881954" y="246.380494" style="fill: #7a77ab; stroke: #ffffff; stroke-width: 0.48"/>
    </g>
    <g clip-path="url(#p3822417111)">
     <use xlink:href="#C0_0_0e2a2bbce1" x="236.48758" y="259.970024" style="fill: #7a77ab; stroke: #ffffff; stroke-width: 0.48"/>
    </g>
    <g clip-path="url(#p3822417111)">
     <use xlink:href="#C0_0_0e2a2bbce1" x="141.973121" y="210.973281" style="fill: #7a77ab; stroke: #ffffff; stroke-width: 0.48"/>
    </g>
    <g clip-path="url(#p3822417111)">
     <use xlink:href="#C0_0_0e2a2bbce1" x="167.362536" y="221.607326" style="fill: #7a77ab; stroke: #ffffff; stroke-width: 0.48"/>
    </g>
    <g clip-path="url(#p3822417111)">
     <use xlink:href="#C0_0_0e2a2bbce1" x="136.932997" y="214.196349" style="fill: #7a77ab; stroke: #ffffff; stroke-width: 0.48"/>
    </g>
    <g clip-path="url(#p3822417111)">
     <use xlink:href="#C0_0_0e2a2bbce1" x="243.208823" y="253.949987" style="fill: #7a77ab; stroke: #ffffff; stroke-width: 0.48"/>
    </g>
    <g clip-path="url(#p3822417111)">
     <use xlink:href="#C0_0_0e2a2bbce1" x="137.731692" y="227.811656" style="fill: #7a77ab; stroke: #ffffff; stroke-width: 0.48"/>
    </g>
    <g clip-path="url(#p3822417111)">
     <use xlink:href="#C0_0_0e2a2bbce1" x="138.657667" y="222.277986" style="fill: #7a77ab; stroke: #ffffff; stroke-width: 0.48"/>
    </g>
    <g clip-path="url(#p3822417111)">
     <use xlink:href="#C0_0_0e2a2bbce1" x="189.75943" y="228.106143" style="fill: #7a77ab; stroke: #ffffff; stroke-width: 0.48"/>
    </g>
    <g clip-path="url(#p3822417111)">
     <use xlink:href="#C0_0_0e2a2bbce1" x="138.563072" y="234.462482" style="fill: #7a77ab; stroke: #ffffff; stroke-width: 0.48"/>
    </g>
    <g clip-path="url(#p3822417111)">
     <use xlink:href="#C0_0_0e2a2bbce1" x="210.826205" y="256.396377" style="fill: #7a77ab; stroke: #ffffff; stroke-width: 0.48"/>
    </g>
    <g clip-path="url(#p3822417111)">
     <use xlink:href="#C0_0_0e2a2bbce1" x="127.898072" y="206.324852" style="fill: #7a77ab; stroke: #ffffff; stroke-width: 0.48"/>
    </g>
    <g clip-path="url(#p3822417111)">
     <use xlink:href="#C0_0_0e2a2bbce1" x="133.48629" y="230.376487" style="fill: #7a77ab; stroke: #ffffff; stroke-width: 0.48"/>
    </g>
   </g>
   <g id="matplotlib.axis_1">
    <g id="xtick_1">
     <g id="line2d_1">
      <defs>
       <path id="m9444084ba2" d="M 0 0 
L 0 5 
" style="stroke: #000000; stroke-width: 0.75"/>
      </defs>
      <g>
       <use xlink:href="#m9444084ba2" x="112.389626" y="295.8" style="stroke: #000000; stroke-width: 0.75"/>
      </g>
     </g>
     <g id="text_1">
      <text style="font: 15px &quot;Suisse Int&apos;l&quot;, sans-serif; text-anchor: middle" x="112.389626" y="316.675" transform="rotate(-0 112.389626 316.675)">0.0</text>
     </g>
    </g>
    <g id="xtick_2">
     <g id="line2d_2">
      <g>
       <use xlink:href="#m9444084ba2" x="186.486516" y="295.8" style="stroke: #000000; stroke-width: 0.75"/>
      </g>
     </g>
     <g id="text_2">
      <text style="font: 15px &quot;Suisse Int&apos;l&quot;, sans-serif; text-anchor: middle" x="186.486516" y="316.675" transform="rotate(-0 186.486516 316.675)">0.5</text>
     </g>
    </g>
    <g id="xtick_3">
     <g id="line2d_3">
      <g>
       <use xlink:href="#m9444084ba2" x="260.583406" y="295.8" style="stroke: #000000; stroke-width: 0.75"/>
      </g>
     </g>
     <g id="text_3">
      <text style="font: 15px &quot;Suisse Int&apos;l&quot;, sans-serif; text-anchor: middle" x="260.583406" y="316.675" transform="rotate(-0 260.583406 316.675)">1.0</text>
     </g>
    </g>
    <g id="text_4">
     <text style="font: 500 15px &quot;Suisse Int&apos;l&quot;, sans-serif; text-anchor: middle" x="185.745" y="340.175" transform="rotate(-0 185.745 340.175)">Confinement_ratio</text>
    </g>
   </g>
   <g id="matplotlib.axis_2">
    <g id="ytick_1">
     <g id="line2d_4">
      <defs>
       <path id="mfb1649049b" d="M 0 0 
L -5 0 
" style="stroke: #000000; stroke-width: 0.75"/>
      </defs>
      <g>
       <use xlink:href="#mfb1649049b" x="73.95" y="266.89099" style="stroke: #000000; stroke-width: 0.75"/>
      </g>
     </g>
     <g id="text_5">
      <text style="font: 15px &quot;Suisse Int&apos;l&quot;, sans-serif; text-anchor: end" x="63.95" y="272.32849" transform="rotate(-0 63.95 272.32849)">0</text>
     </g>
    </g>
    <g id="ytick_2">
     <g id="line2d_5">
      <g>
       <use xlink:href="#mfb1649049b" x="73.95" y="201.736575" style="stroke: #000000; stroke-width: 0.75"/>
      </g>
     </g>
     <g id="text_6">
      <text style="font: 15px &quot;Suisse Int&apos;l&quot;, sans-serif; text-anchor: end" x="63.95" y="207.174075" transform="rotate(-0 63.95 207.174075)">10</text>
     </g>
    </g>
    <g id="ytick_3">
     <g id="line2d_6">
      <g>
       <use xlink:href="#mfb1649049b" x="73.95" y="136.58216" style="stroke: #000000; stroke-width: 0.75"/>
      </g>
     </g>
     <g id="text_7">
      <text style="font: 15px &quot;Suisse Int&apos;l&quot;, sans-serif; text-anchor: end" x="63.95" y="142.01966" transform="rotate(-0 63.95 142.01966)">20</text>
     </g>
    </g>
    <g id="ytick_4">
     <g id="line2d_7">
      <g>
       <use xlink:href="#mfb1649049b" x="73.95" y="71.427745" style="stroke: #000000; stroke-width: 0.75"/>
      </g>
     </g>
     <g id="text_8">
      <text style="font: 15px &quot;Suisse Int&apos;l&quot;, sans-serif; text-anchor: end" x="63.95" y="76.865245" transform="rotate(-0 63.95 76.865245)">30</text>
     </g>
    </g>
    <g id="text_9">
     <text style="font: 500 15px &quot;Suisse Int&apos;l&quot;, sans-serif; text-anchor: middle" x="32.275" y="179.965714" transform="rotate(-90 32.275 179.965714)">Mean_angular_speed</text>
    </g>
   </g>
   <g id="line2d_8"/>
   <g id="line2d_9"/>
   <g id="patch_3">
    <path d="M 73.95 295.8 
L 73.95 64.131429 
" style="fill: none; stroke: #000000; stroke-width: 0.75; stroke-linejoin: miter; stroke-linecap: square"/>
   </g>
   <g id="patch_4">
    <path d="M 73.95 295.8 
L 297.54 295.8 
" style="fill: none; stroke: #000000; stroke-width: 0.75; stroke-linejoin: miter; stroke-linecap: square"/>
   </g>
   <g id="legend_1">
    <g id="text_10">
     <text style="font: 600 16px &quot;Suisse Int&apos;l&quot;, sans-serif; text-anchor: start" x="317.7525" y="75.731429" transform="rotate(-0 317.7525 75.731429)">Vessel_type</text>
    </g>
    <g id="line2d_10">
     <path d="M 317.7525 86.031429 
L 361 86.031429 
" style="fill: none; stroke: #bab0a8; stroke-width: 1.5; stroke-linecap: round"/>
    </g>
    <g id="line2d_11">
     <defs>
      <path id="m482533417b" d="M 0 3 
C 0.795609 3 1.55874 2.683901 2.12132 2.12132 
C 2.683901 1.55874 3 0.795609 3 0 
C 3 -0.795609 2.683901 -1.55874 2.12132 -2.12132 
C 1.55874 -2.683901 0.795609 -3 0 -3 
C -0.795609 -3 -1.55874 -2.683901 -2.12132 -2.12132 
C -2.683901 -1.55874 -3 -0.795609 -3 0 
C -3 0.795609 -2.683901 1.55874 -2.12132 2.12132 
C -1.55874 2.683901 -0.795609 3 0 3 
z
" style="stroke: #ffffff; stroke-width: 0.48"/>
     </defs>
     <g>
      <use xlink:href="#m482533417b" x="325.2525" y="99.906429" style="fill: #f28360; stroke: #ffffff; stroke-width: 0.48"/>
     </g>
    </g>
    <g id="text_11">
     <text style="font: 15px &quot;Suisse Int&apos;l&quot;, sans-serif; text-anchor: start" x="338.7525" y="106.281429" transform="rotate(-0 338.7525 106.281429)">Pools</text>
    </g>
    <g id="line2d_12">
     <defs>
      <path id="mc4a038a7eb" d="M 0 3 
C 0.795609 3 1.55874 2.683901 2.12132 2.12132 
C 2.683901 1.55874 3 0.795609 3 0 
C 3 -0.795609 2.683901 -1.55874 2.12132 -2.12132 
C 1.55874 -2.683901 0.795609 -3 0 -3 
C -0.795609 -3 -1.55874 -2.683901 -2.12132 -2.12132 
C -2.683901 -1.55874 -3 -0.795609 -3 0 
C -3 0.795609 -2.683901 1.55874 -2.12132 2.12132 
C -1.55874 2.683901 -0.795609 3 0 3 
z
" style="stroke: #ffffff; stroke-width: 0.48"/>
     </defs>
     <g>
      <use xlink:href="#mc4a038a7eb" x="325.2525" y="122.781429" style="fill: #7a77ab; stroke: #ffffff; stroke-width: 0.48"/>
     </g>
    </g>
    <g id="text_12">
     <text style="font: 15px &quot;Suisse Int&apos;l&quot;, sans-serif; text-anchor: start" x="338.7525" y="129.156429" transform="rotate(-0 338.7525 129.156429)">Wells</text>
    </g>
   </g>
  </g>
  <g id="axes_2">
   <g id="patch_5">
    <path d="M 73.95 56.142857 
L 297.54 56.142857 
L 297.54 16.2 
L 73.95 16.2 
L 73.95 56.142857 
z
" style="fill: none"/>
   </g>
   <g id="PolyCollection_1">
    <defs>
     <path id="mf1bf55260a" d="M 82.231111 -303.865015 
L 82.231111 -303.857143 
L 83.271452 -303.857143 
L 84.311792 -303.857143 
L 85.352133 -303.857143 
L 86.392473 -303.857143 
L 87.432814 -303.857143 
L 88.473155 -303.857143 
L 89.513495 -303.857143 
L 90.553836 -303.857143 
L 91.594176 -303.857143 
L 92.634517 -303.857143 
L 93.674858 -303.857143 
L 94.715198 -303.857143 
L 95.755539 -303.857143 
L 96.795879 -303.857143 
L 97.83622 -303.857143 
L 98.876561 -303.857143 
L 99.916901 -303.857143 
L 100.957242 -303.857143 
L 101.997582 -303.857143 
L 103.037923 -303.857143 
L 104.078264 -303.857143 
L 105.118604 -303.857143 
L 106.158945 -303.857143 
L 107.199285 -303.857143 
L 108.239626 -303.857143 
L 109.279966 -303.857143 
L 110.320307 -303.857143 
L 111.360648 -303.857143 
L 112.400988 -303.857143 
L 113.441329 -303.857143 
L 114.481669 -303.857143 
L 115.52201 -303.857143 
L 116.562351 -303.857143 
L 117.602691 -303.857143 
L 118.643032 -303.857143 
L 119.683372 -303.857143 
L 120.723713 -303.857143 
L 121.764054 -303.857143 
L 122.804394 -303.857143 
L 123.844735 -303.857143 
L 124.885075 -303.857143 
L 125.925416 -303.857143 
L 126.965757 -303.857143 
L 128.006097 -303.857143 
L 129.046438 -303.857143 
L 130.086778 -303.857143 
L 131.127119 -303.857143 
L 132.16746 -303.857143 
L 133.2078 -303.857143 
L 134.248141 -303.857143 
L 135.288481 -303.857143 
L 136.328822 -303.857143 
L 137.369162 -303.857143 
L 138.409503 -303.857143 
L 139.449844 -303.857143 
L 140.490184 -303.857143 
L 141.530525 -303.857143 
L 142.570865 -303.857143 
L 143.611206 -303.857143 
L 144.651547 -303.857143 
L 145.691887 -303.857143 
L 146.732228 -303.857143 
L 147.772568 -303.857143 
L 148.812909 -303.857143 
L 149.85325 -303.857143 
L 150.89359 -303.857143 
L 151.933931 -303.857143 
L 152.974271 -303.857143 
L 154.014612 -303.857143 
L 155.054953 -303.857143 
L 156.095293 -303.857143 
L 157.135634 -303.857143 
L 158.175974 -303.857143 
L 159.216315 -303.857143 
L 160.256655 -303.857143 
L 161.296996 -303.857143 
L 162.337337 -303.857143 
L 163.377677 -303.857143 
L 164.418018 -303.857143 
L 165.458358 -303.857143 
L 166.498699 -303.857143 
L 167.53904 -303.857143 
L 168.57938 -303.857143 
L 169.619721 -303.857143 
L 170.660061 -303.857143 
L 171.700402 -303.857143 
L 172.740743 -303.857143 
L 173.781083 -303.857143 
L 174.821424 -303.857143 
L 175.861764 -303.857143 
L 176.902105 -303.857143 
L 177.942446 -303.857143 
L 178.982786 -303.857143 
L 180.023127 -303.857143 
L 181.063467 -303.857143 
L 182.103808 -303.857143 
L 183.144149 -303.857143 
L 184.184489 -303.857143 
L 185.22483 -303.857143 
L 186.26517 -303.857143 
L 187.305511 -303.857143 
L 188.345851 -303.857143 
L 189.386192 -303.857143 
L 190.426533 -303.857143 
L 191.466873 -303.857143 
L 192.507214 -303.857143 
L 193.547554 -303.857143 
L 194.587895 -303.857143 
L 195.628236 -303.857143 
L 196.668576 -303.857143 
L 197.708917 -303.857143 
L 198.749257 -303.857143 
L 199.789598 -303.857143 
L 200.829939 -303.857143 
L 201.870279 -303.857143 
L 202.91062 -303.857143 
L 203.95096 -303.857143 
L 204.991301 -303.857143 
L 206.031642 -303.857143 
L 207.071982 -303.857143 
L 208.112323 -303.857143 
L 209.152663 -303.857143 
L 210.193004 -303.857143 
L 211.233345 -303.857143 
L 212.273685 -303.857143 
L 213.314026 -303.857143 
L 214.354366 -303.857143 
L 215.394707 -303.857143 
L 216.435047 -303.857143 
L 217.475388 -303.857143 
L 218.515729 -303.857143 
L 219.556069 -303.857143 
L 220.59641 -303.857143 
L 221.63675 -303.857143 
L 222.677091 -303.857143 
L 223.717432 -303.857143 
L 224.757772 -303.857143 
L 225.798113 -303.857143 
L 226.838453 -303.857143 
L 227.878794 -303.857143 
L 228.919135 -303.857143 
L 229.959475 -303.857143 
L 230.999816 -303.857143 
L 232.040156 -303.857143 
L 233.080497 -303.857143 
L 234.120838 -303.857143 
L 235.161178 -303.857143 
L 236.201519 -303.857143 
L 237.241859 -303.857143 
L 238.2822 -303.857143 
L 239.32254 -303.857143 
L 240.362881 -303.857143 
L 241.403222 -303.857143 
L 242.443562 -303.857143 
L 243.483903 -303.857143 
L 244.524243 -303.857143 
L 245.564584 -303.857143 
L 246.604925 -303.857143 
L 247.645265 -303.857143 
L 248.685606 -303.857143 
L 249.725946 -303.857143 
L 250.766287 -303.857143 
L 251.806628 -303.857143 
L 252.846968 -303.857143 
L 253.887309 -303.857143 
L 254.927649 -303.857143 
L 255.96799 -303.857143 
L 257.008331 -303.857143 
L 258.048671 -303.857143 
L 259.089012 -303.857143 
L 260.129352 -303.857143 
L 261.169693 -303.857143 
L 262.210034 -303.857143 
L 263.250374 -303.857143 
L 264.290715 -303.857143 
L 265.331055 -303.857143 
L 266.371396 -303.857143 
L 267.411736 -303.857143 
L 268.452077 -303.857143 
L 269.492418 -303.857143 
L 270.532758 -303.857143 
L 271.573099 -303.857143 
L 272.613439 -303.857143 
L 273.65378 -303.857143 
L 274.694121 -303.857143 
L 275.734461 -303.857143 
L 276.774802 -303.857143 
L 277.815142 -303.857143 
L 278.855483 -303.857143 
L 279.895824 -303.857143 
L 280.936164 -303.857143 
L 281.976505 -303.857143 
L 283.016845 -303.857143 
L 284.057186 -303.857143 
L 285.097527 -303.857143 
L 286.137867 -303.857143 
L 287.178208 -303.857143 
L 288.218548 -303.857143 
L 289.258889 -303.857143 
L 289.258889 -303.866885 
L 289.258889 -303.866885 
L 288.218548 -303.869577 
L 287.178208 -303.872929 
L 286.137867 -303.87708 
L 285.097527 -303.882191 
L 284.057186 -303.888451 
L 283.016845 -303.896073 
L 281.976505 -303.905302 
L 280.936164 -303.916415 
L 279.895824 -303.929721 
L 278.855483 -303.945566 
L 277.815142 -303.964329 
L 276.774802 -303.986425 
L 275.734461 -304.012302 
L 274.694121 -304.042441 
L 273.65378 -304.077351 
L 272.613439 -304.117566 
L 271.573099 -304.163642 
L 270.532758 -304.216145 
L 269.492418 -304.275648 
L 268.452077 -304.342722 
L 267.411736 -304.417924 
L 266.371396 -304.501789 
L 265.331055 -304.594817 
L 264.290715 -304.697464 
L 263.250374 -304.810126 
L 262.210034 -304.933131 
L 261.169693 -305.066728 
L 260.129352 -305.211076 
L 259.089012 -305.366232 
L 258.048671 -305.532148 
L 257.008331 -305.708661 
L 255.96799 -305.895493 
L 254.927649 -306.092243 
L 253.887309 -306.298394 
L 252.846968 -306.513311 
L 251.806628 -306.736249 
L 250.766287 -306.966357 
L 249.725946 -307.202693 
L 248.685606 -307.44423 
L 247.645265 -307.689874 
L 246.604925 -307.938479 
L 245.564584 -308.188859 
L 244.524243 -308.439813 
L 243.483903 -308.690133 
L 242.443562 -308.938633 
L 241.403222 -309.184155 
L 240.362881 -309.425596 
L 239.32254 -309.661915 
L 238.2822 -309.892153 
L 237.241859 -310.115441 
L 236.201519 -310.331013 
L 235.161178 -310.53821 
L 234.120838 -310.73649 
L 233.080497 -310.925424 
L 232.040156 -311.104703 
L 230.999816 -311.27413 
L 229.959475 -311.433619 
L 228.919135 -311.583185 
L 227.878794 -311.722937 
L 226.838453 -311.853069 
L 225.798113 -311.973846 
L 224.757772 -312.085596 
L 223.717432 -312.188696 
L 222.677091 -312.283559 
L 221.63675 -312.37063 
L 220.59641 -312.450368 
L 219.556069 -312.523247 
L 218.515729 -312.58974 
L 217.475388 -312.650323 
L 216.435047 -312.705468 
L 215.394707 -312.755643 
L 214.354366 -312.801311 
L 213.314026 -312.842935 
L 212.273685 -312.880977 
L 211.233345 -312.915904 
L 210.193004 -312.94819 
L 209.152663 -312.978316 
L 208.112323 -313.006775 
L 207.071982 -313.034073 
L 206.031642 -313.060723 
L 204.991301 -313.087243 
L 203.95096 -313.114155 
L 202.91062 -313.14197 
L 201.870279 -313.171183 
L 200.829939 -313.202259 
L 199.789598 -313.235622 
L 198.749257 -313.27164 
L 197.708917 -313.310609 
L 196.668576 -313.352742 
L 195.628236 -313.398154 
L 194.587895 -313.446848 
L 193.547554 -313.498711 
L 192.507214 -313.553502 
L 191.466873 -313.610852 
L 190.426533 -313.670262 
L 189.386192 -313.731108 
L 188.345851 -313.792649 
L 187.305511 -313.85404 
L 186.26517 -313.914346 
L 185.22483 -313.972565 
L 184.184489 -314.027645 
L 183.144149 -314.078516 
L 182.103808 -314.12411 
L 181.063467 -314.163392 
L 180.023127 -314.195387 
L 178.982786 -314.219204 
L 177.942446 -314.234064 
L 176.902105 -314.239321 
L 175.861764 -314.234478 
L 174.821424 -314.219204 
L 173.781083 -314.193343 
L 172.740743 -314.156918 
L 171.700402 -314.110131 
L 170.660061 -314.053356 
L 169.619721 -313.987129 
L 168.57938 -313.912131 
L 167.53904 -313.829167 
L 166.498699 -313.739142 
L 165.458358 -313.643034 
L 164.418018 -313.541864 
L 163.377677 -313.436665 
L 162.337337 -313.328454 
L 161.296996 -313.218195 
L 160.256655 -313.106777 
L 159.216315 -312.994984 
L 158.175974 -312.883474 
L 157.135634 -312.77276 
L 156.095293 -312.663194 
L 155.054953 -312.554959 
L 154.014612 -312.448065 
L 152.974271 -312.342348 
L 151.933931 -312.237478 
L 150.89359 -312.13297 
L 149.85325 -312.028197 
L 148.812909 -311.922415 
L 147.772568 -311.814778 
L 146.732228 -311.704375 
L 145.691887 -311.590249 
L 144.651547 -311.471431 
L 143.611206 -311.346971 
L 142.570865 -311.215966 
L 141.530525 -311.077588 
L 140.490184 -310.931115 
L 139.449844 -310.775949 
L 138.409503 -310.611643 
L 137.369162 -310.437914 
L 136.328822 -310.254655 
L 135.288481 -310.061945 
L 134.248141 -309.860053 
L 133.2078 -309.64943 
L 132.16746 -309.43071 
L 131.127119 -309.204693 
L 130.086778 -308.972332 
L 129.046438 -308.734712 
L 128.006097 -308.49303 
L 126.965757 -308.24857 
L 125.925416 -308.002675 
L 124.885075 -307.756721 
L 123.844735 -307.51209 
L 122.804394 -307.270146 
L 121.764054 -307.032203 
L 120.723713 -306.799512 
L 119.683372 -306.57323 
L 118.643032 -306.35441 
L 117.602691 -306.143985 
L 116.562351 -305.942755 
L 115.52201 -305.751382 
L 114.481669 -305.570384 
L 113.441329 -305.400139 
L 112.400988 -305.240883 
L 111.360648 -305.092718 
L 110.320307 -304.955622 
L 109.279966 -304.829454 
L 108.239626 -304.71397 
L 107.199285 -304.608837 
L 106.158945 -304.513641 
L 105.118604 -304.427906 
L 104.078264 -304.351105 
L 103.037923 -304.282677 
L 101.997582 -304.222035 
L 100.957242 -304.16858 
L 99.916901 -304.121713 
L 98.876561 -304.080842 
L 97.83622 -304.045389 
L 96.795879 -304.014801 
L 95.755539 -303.988551 
L 94.715198 -303.966145 
L 93.674858 -303.947122 
L 92.634517 -303.931058 
L 91.594176 -303.917566 
L 90.553836 -303.906293 
L 89.513495 -303.896927 
L 88.473155 -303.889186 
L 87.432814 -303.882823 
L 86.392473 -303.877621 
L 85.352133 -303.87339 
L 84.311792 -303.869969 
L 83.271452 -303.867217 
L 82.231111 -303.865015 
z
" style="stroke: #7a77ab; stroke-width: 2"/>
    </defs>
    <g clip-path="url(#p55eac9886d)">
     <use xlink:href="#mf1bf55260a" x="0" y="360" style="fill: #7a77ab; fill-opacity: 0.25; stroke: #7a77ab; stroke-width: 2"/>
    </g>
   </g>
   <g id="PolyCollection_2">
    <defs>
     <path id="m820bf55042" d="M 98.518081 -303.921192 
L 98.518081 -303.857143 
L 99.016781 -303.857143 
L 99.515481 -303.857143 
L 100.014182 -303.857143 
L 100.512882 -303.857143 
L 101.011582 -303.857143 
L 101.510283 -303.857143 
L 102.008983 -303.857143 
L 102.507683 -303.857143 
L 103.006384 -303.857143 
L 103.505084 -303.857143 
L 104.003784 -303.857143 
L 104.502485 -303.857143 
L 105.001185 -303.857143 
L 105.499885 -303.857143 
L 105.998585 -303.857143 
L 106.497286 -303.857143 
L 106.995986 -303.857143 
L 107.494686 -303.857143 
L 107.993387 -303.857143 
L 108.492087 -303.857143 
L 108.990787 -303.857143 
L 109.489488 -303.857143 
L 109.988188 -303.857143 
L 110.486888 -303.857143 
L 110.985589 -303.857143 
L 111.484289 -303.857143 
L 111.982989 -303.857143 
L 112.48169 -303.857143 
L 112.98039 -303.857143 
L 113.47909 -303.857143 
L 113.977791 -303.857143 
L 114.476491 -303.857143 
L 114.975191 -303.857143 
L 115.473891 -303.857143 
L 115.972592 -303.857143 
L 116.471292 -303.857143 
L 116.969992 -303.857143 
L 117.468693 -303.857143 
L 117.967393 -303.857143 
L 118.466093 -303.857143 
L 118.964794 -303.857143 
L 119.463494 -303.857143 
L 119.962194 -303.857143 
L 120.460895 -303.857143 
L 120.959595 -303.857143 
L 121.458295 -303.857143 
L 121.956996 -303.857143 
L 122.455696 -303.857143 
L 122.954396 -303.857143 
L 123.453097 -303.857143 
L 123.951797 -303.857143 
L 124.450497 -303.857143 
L 124.949197 -303.857143 
L 125.447898 -303.857143 
L 125.946598 -303.857143 
L 126.445298 -303.857143 
L 126.943999 -303.857143 
L 127.442699 -303.857143 
L 127.941399 -303.857143 
L 128.4401 -303.857143 
L 128.9388 -303.857143 
L 129.4375 -303.857143 
L 129.936201 -303.857143 
L 130.434901 -303.857143 
L 130.933601 -303.857143 
L 131.432302 -303.857143 
L 131.931002 -303.857143 
L 132.429702 -303.857143 
L 132.928402 -303.857143 
L 133.427103 -303.857143 
L 133.925803 -303.857143 
L 134.424503 -303.857143 
L 134.923204 -303.857143 
L 135.421904 -303.857143 
L 135.920604 -303.857143 
L 136.419305 -303.857143 
L 136.918005 -303.857143 
L 137.416705 -303.857143 
L 137.915406 -303.857143 
L 138.414106 -303.857143 
L 138.912806 -303.857143 
L 139.411507 -303.857143 
L 139.910207 -303.857143 
L 140.408907 -303.857143 
L 140.907608 -303.857143 
L 141.406308 -303.857143 
L 141.905008 -303.857143 
L 142.403708 -303.857143 
L 142.902409 -303.857143 
L 143.401109 -303.857143 
L 143.899809 -303.857143 
L 144.39851 -303.857143 
L 144.89721 -303.857143 
L 145.39591 -303.857143 
L 145.894611 -303.857143 
L 146.393311 -303.857143 
L 146.892011 -303.857143 
L 147.390712 -303.857143 
L 147.889412 -303.857143 
L 148.388112 -303.857143 
L 148.886813 -303.857143 
L 149.385513 -303.857143 
L 149.884213 -303.857143 
L 150.382914 -303.857143 
L 150.881614 -303.857143 
L 151.380314 -303.857143 
L 151.879014 -303.857143 
L 152.377715 -303.857143 
L 152.876415 -303.857143 
L 153.375115 -303.857143 
L 153.873816 -303.857143 
L 154.372516 -303.857143 
L 154.871216 -303.857143 
L 155.369917 -303.857143 
L 155.868617 -303.857143 
L 156.367317 -303.857143 
L 156.866018 -303.857143 
L 157.364718 -303.857143 
L 157.863418 -303.857143 
L 158.362119 -303.857143 
L 158.860819 -303.857143 
L 159.359519 -303.857143 
L 159.858219 -303.857143 
L 160.35692 -303.857143 
L 160.85562 -303.857143 
L 161.35432 -303.857143 
L 161.853021 -303.857143 
L 162.351721 -303.857143 
L 162.850421 -303.857143 
L 163.349122 -303.857143 
L 163.847822 -303.857143 
L 164.346522 -303.857143 
L 164.845223 -303.857143 
L 165.343923 -303.857143 
L 165.842623 -303.857143 
L 166.341324 -303.857143 
L 166.840024 -303.857143 
L 167.338724 -303.857143 
L 167.837425 -303.857143 
L 168.336125 -303.857143 
L 168.834825 -303.857143 
L 169.333525 -303.857143 
L 169.832226 -303.857143 
L 170.330926 -303.857143 
L 170.829626 -303.857143 
L 171.328327 -303.857143 
L 171.827027 -303.857143 
L 172.325727 -303.857143 
L 172.824428 -303.857143 
L 173.323128 -303.857143 
L 173.821828 -303.857143 
L 174.320529 -303.857143 
L 174.819229 -303.857143 
L 175.317929 -303.857143 
L 175.81663 -303.857143 
L 176.31533 -303.857143 
L 176.81403 -303.857143 
L 177.312731 -303.857143 
L 177.811431 -303.857143 
L 178.310131 -303.857143 
L 178.808831 -303.857143 
L 179.307532 -303.857143 
L 179.806232 -303.857143 
L 180.304932 -303.857143 
L 180.803633 -303.857143 
L 181.302333 -303.857143 
L 181.801033 -303.857143 
L 182.299734 -303.857143 
L 182.798434 -303.857143 
L 183.297134 -303.857143 
L 183.795835 -303.857143 
L 184.294535 -303.857143 
L 184.793235 -303.857143 
L 185.291936 -303.857143 
L 185.790636 -303.857143 
L 186.289336 -303.857143 
L 186.788037 -303.857143 
L 187.286737 -303.857143 
L 187.785437 -303.857143 
L 188.284137 -303.857143 
L 188.782838 -303.857143 
L 189.281538 -303.857143 
L 189.780238 -303.857143 
L 190.278939 -303.857143 
L 190.777639 -303.857143 
L 191.276339 -303.857143 
L 191.77504 -303.857143 
L 192.27374 -303.857143 
L 192.77244 -303.857143 
L 193.271141 -303.857143 
L 193.769841 -303.857143 
L 194.268541 -303.857143 
L 194.767242 -303.857143 
L 195.265942 -303.857143 
L 195.764642 -303.857143 
L 196.263342 -303.857143 
L 196.762043 -303.857143 
L 197.260743 -303.857143 
L 197.759443 -303.857143 
L 197.759443 -303.864288 
L 197.759443 -303.864288 
L 197.260743 -303.866922 
L 196.762043 -303.870377 
L 196.263342 -303.87485 
L 195.764642 -303.880568 
L 195.265942 -303.887782 
L 194.767242 -303.896767 
L 194.268541 -303.907808 
L 193.769841 -303.921195 
L 193.271141 -303.937205 
L 192.77244 -303.956088 
L 192.27374 -303.978045 
L 191.77504 -304.003208 
L 191.276339 -304.031618 
L 190.777639 -304.063202 
L 190.278939 -304.097759 
L 189.780238 -304.134942 
L 189.281538 -304.174252 
L 188.782838 -304.215043 
L 188.284137 -304.256526 
L 187.785437 -304.297791 
L 187.286737 -304.33784 
L 186.788037 -304.37562 
L 186.289336 -304.410071 
L 185.790636 -304.440177 
L 185.291936 -304.465013 
L 184.793235 -304.483801 
L 184.294535 -304.495947 
L 183.795835 -304.501081 
L 183.297134 -304.499084 
L 182.798434 -304.490095 
L 182.299734 -304.474518 
L 181.801033 -304.453006 
L 181.302333 -304.426437 
L 180.803633 -304.395887 
L 180.304932 -304.362585 
L 179.806232 -304.327879 
L 179.307532 -304.293192 
L 178.808831 -304.259988 
L 178.310131 -304.229734 
L 177.811431 -304.203878 
L 177.312731 -304.183829 
L 176.81403 -304.170936 
L 176.31533 -304.166484 
L 175.81663 -304.171679 
L 175.317929 -304.187638 
L 174.819229 -304.215378 
L 174.320529 -304.255798 
L 173.821828 -304.309653 
L 173.323128 -304.377526 
L 172.824428 -304.459797 
L 172.325727 -304.556601 
L 171.827027 -304.667792 
L 171.328327 -304.79291 
L 170.829626 -304.931148 
L 170.330926 -305.081339 
L 169.832226 -305.241951 
L 169.333525 -305.411092 
L 168.834825 -305.586546 
L 168.336125 -305.765811 
L 167.837425 -305.946163 
L 167.338724 -306.124729 
L 166.840024 -306.298571 
L 166.341324 -306.464775 
L 165.842623 -306.620542 
L 165.343923 -306.763279 
L 164.845223 -306.890678 
L 164.346522 -307.000794 
L 163.847822 -307.092105 
L 163.349122 -307.16356 
L 162.850421 -307.21462 
L 162.351721 -307.245275 
L 161.853021 -307.256062 
L 161.35432 -307.248057 
L 160.85562 -307.222864 
L 160.35692 -307.182595 
L 159.858219 -307.129838 
L 159.359519 -307.067612 
L 158.860819 -306.999328 
L 158.362119 -306.928725 
L 157.863418 -306.859819 
L 157.364718 -306.796831 
L 156.866018 -306.744122 
L 156.367317 -306.706121 
L 155.868617 -306.687243 
L 155.369917 -306.691819 
L 154.871216 -306.724004 
L 154.372516 -306.787702 
L 153.873816 -306.886466 
L 153.375115 -307.023419 
L 152.876415 -307.20115 
L 152.377715 -307.421631 
L 151.879014 -307.686125 
L 151.380314 -307.995113 
L 150.881614 -308.348233 
L 150.382914 -308.744238 
L 149.884213 -309.180991 
L 149.385513 -309.655489 
L 148.886813 -310.163924 
L 148.388112 -310.701791 
L 147.889412 -311.264024 
L 147.390712 -311.845178 
L 146.892011 -312.439622 
L 146.393311 -313.041759 
L 145.894611 -313.646244 
L 145.39591 -314.248193 
L 144.89721 -314.843369 
L 144.39851 -315.428336 
L 143.899809 -316.00058 
L 143.401109 -316.558579 
L 142.902409 -317.101835 
L 142.403708 -317.630868 
L 141.905008 -318.147174 
L 141.406308 -318.653152 
L 140.907608 -319.15202 
L 140.408907 -319.647709 
L 139.910207 -320.144748 
L 139.411507 -320.648141 
L 138.912806 -321.163235 
L 138.414106 -321.695573 
L 137.915406 -322.25073 
L 137.416705 -322.834133 
L 136.918005 -323.450854 
L 136.419305 -324.105386 
L 135.920604 -324.801405 
L 135.421904 -325.541523 
L 134.923204 -326.327052 
L 134.424503 -327.15779 
L 133.925803 -328.03185 
L 133.427103 -328.945549 
L 132.928402 -329.893376 
L 132.429702 -330.868048 
L 131.931002 -331.860658 
L 131.432302 -332.860926 
L 130.933601 -333.857532 
L 130.434901 -334.838527 
L 129.936201 -335.791793 
L 129.4375 -336.705528 
L 128.9388 -337.568728 
L 128.4401 -338.371631 
L 127.941399 -339.106097 
L 127.442699 -339.76589 
L 126.943999 -340.346853 
L 126.445298 -340.846951 
L 125.946598 -341.266183 
L 125.447898 -341.606367 
L 124.949197 -341.870809 
L 124.450497 -342.06387 
L 123.951797 -342.190483 
L 123.453097 -342.255613 
L 122.954396 -342.263736 
L 122.455696 -342.218347 
L 121.956996 -342.121539 
L 121.458295 -341.973692 
L 120.959595 -341.77328 
L 120.460895 -341.51683 
L 119.962194 -341.199034 
L 119.463494 -340.813007 
L 118.964794 -340.350691 
L 118.466093 -339.80338 
L 117.967393 -339.162328 
L 117.468693 -338.419421 
L 116.969992 -337.567854 
L 116.471292 -336.602781 
L 115.972592 -335.521892 
L 115.473891 -334.325871 
L 114.975191 -333.018709 
L 114.476491 -331.607846 
L 113.977791 -330.10412 
L 113.47909 -328.521537 
L 112.98039 -326.876851 
L 112.48169 -325.189006 
L 111.982989 -323.478445 
L 111.484289 -321.766344 
L 110.985589 -320.073824 
L 110.486888 -318.421165 
L 109.988188 -316.827096 
L 109.489488 -315.308176 
L 108.990787 -313.878315 
L 108.492087 -312.548446 
L 107.993387 -311.326353 
L 107.494686 -310.216661 
L 106.995986 -309.220973 
L 106.497286 -308.338127 
L 105.998585 -307.564547 
L 105.499885 -306.894664 
L 105.001185 -306.321363 
L 104.502485 -305.836447 
L 104.003784 -305.431063 
L 103.505084 -305.096104 
L 103.006384 -304.822543 
L 102.507683 -304.601712 
L 102.008983 -304.425503 
L 101.510283 -304.286523 
L 101.011582 -304.178166 
L 100.512882 -304.094656 
L 100.014182 -304.031034 
L 99.515481 -303.98312 
L 99.016781 -303.947447 
L 98.518081 -303.921192 
z
" style="stroke: #f28360; stroke-width: 2"/>
    </defs>
    <g clip-path="url(#p55eac9886d)">
     <use xlink:href="#m820bf55042" x="0" y="360" style="fill: #f28360; fill-opacity: 0.25; stroke: #f28360; stroke-width: 2"/>
    </g>
   </g>
   <g id="matplotlib.axis_3">
    <g id="xtick_4">
     <g id="line2d_13">
      <g>
       <use xlink:href="#m9444084ba2" x="112.389626" y="56.142857" style="stroke: #000000; stroke-width: 0.75"/>
      </g>
     </g>
    </g>
    <g id="xtick_5">
     <g id="line2d_14">
      <g>
       <use xlink:href="#m9444084ba2" x="186.486516" y="56.142857" style="stroke: #000000; stroke-width: 0.75"/>
      </g>
     </g>
    </g>
    <g id="xtick_6">
     <g id="line2d_15">
      <g>
       <use xlink:href="#m9444084ba2" x="260.583406" y="56.142857" style="stroke: #000000; stroke-width: 0.75"/>
      </g>
     </g>
    </g>
   </g>
   <g id="matplotlib.axis_4">
    <g id="ytick_5"/>
    <g id="ytick_6"/>
   </g>
   <g id="patch_6">
    <path d="M 73.95 56.142857 
L 297.54 56.142857 
" style="fill: none; stroke: #000000; stroke-width: 0.75; stroke-linejoin: miter; stroke-linecap: square"/>
   </g>
  </g>
  <g id="axes_3">
   <g id="patch_7">
    <path d="M 305.25 295.8 
L 343.8 295.8 
L 343.8 64.131429 
L 305.25 64.131429 
L 305.25 295.8 
z
" style="fill: none"/>
   </g>
   <g id="PolyCollection_3">
    <defs>
     <path id="mee226cd286" d="M 305.274469 -76.528138 
L 305.25 -76.528138 
L 305.25 -77.191083 
L 305.25 -77.854027 
L 305.25 -78.516971 
L 305.25 -79.179915 
L 305.25 -79.842859 
L 305.25 -80.505804 
L 305.25 -81.168748 
L 305.25 -81.831692 
L 305.25 -82.494636 
L 305.25 -83.15758 
L 305.25 -83.820525 
L 305.25 -84.483469 
L 305.25 -85.146413 
L 305.25 -85.809357 
L 305.25 -86.472301 
L 305.25 -87.135245 
L 305.25 -87.79819 
L 305.25 -88.461134 
L 305.25 -89.124078 
L 305.25 -89.787022 
L 305.25 -90.449966 
L 305.25 -91.112911 
L 305.25 -91.775855 
L 305.25 -92.438799 
L 305.25 -93.101743 
L 305.25 -93.764687 
L 305.25 -94.427632 
L 305.25 -95.090576 
L 305.25 -95.75352 
L 305.25 -96.416464 
L 305.25 -97.079408 
L 305.25 -97.742353 
L 305.25 -98.405297 
L 305.25 -99.068241 
L 305.25 -99.731185 
L 305.25 -100.394129 
L 305.25 -101.057074 
L 305.25 -101.720018 
L 305.25 -102.382962 
L 305.25 -103.045906 
L 305.25 -103.70885 
L 305.25 -104.371794 
L 305.25 -105.034739 
L 305.25 -105.697683 
L 305.25 -106.360627 
L 305.25 -107.023571 
L 305.25 -107.686515 
L 305.25 -108.34946 
L 305.25 -109.012404 
L 305.25 -109.675348 
L 305.25 -110.338292 
L 305.25 -111.001236 
L 305.25 -111.664181 
L 305.25 -112.327125 
L 305.25 -112.990069 
L 305.25 -113.653013 
L 305.25 -114.315957 
L 305.25 -114.978902 
L 305.25 -115.641846 
L 305.25 -116.30479 
L 305.25 -116.967734 
L 305.25 -117.630678 
L 305.25 -118.293622 
L 305.25 -118.956567 
L 305.25 -119.619511 
L 305.25 -120.282455 
L 305.25 -120.945399 
L 305.25 -121.608343 
L 305.25 -122.271288 
L 305.25 -122.934232 
L 305.25 -123.597176 
L 305.25 -124.26012 
L 305.25 -124.923064 
L 305.25 -125.586009 
L 305.25 -126.248953 
L 305.25 -126.911897 
L 305.25 -127.574841 
L 305.25 -128.237785 
L 305.25 -128.90073 
L 305.25 -129.563674 
L 305.25 -130.226618 
L 305.25 -130.889562 
L 305.25 -131.552506 
L 305.25 -132.215451 
L 305.25 -132.878395 
L 305.25 -133.541339 
L 305.25 -134.204283 
L 305.25 -134.867227 
L 305.25 -135.530171 
L 305.25 -136.193116 
L 305.25 -136.85606 
L 305.25 -137.519004 
L 305.25 -138.181948 
L 305.25 -138.844892 
L 305.25 -139.507837 
L 305.25 -140.170781 
L 305.25 -140.833725 
L 305.25 -141.496669 
L 305.25 -142.159613 
L 305.25 -142.822558 
L 305.25 -143.485502 
L 305.25 -144.148446 
L 305.25 -144.81139 
L 305.25 -145.474334 
L 305.25 -146.137279 
L 305.25 -146.800223 
L 305.25 -147.463167 
L 305.25 -148.126111 
L 305.25 -148.789055 
L 305.25 -149.451999 
L 305.25 -150.114944 
L 305.25 -150.777888 
L 305.25 -151.440832 
L 305.25 -152.103776 
L 305.25 -152.76672 
L 305.25 -153.429665 
L 305.25 -154.092609 
L 305.25 -154.755553 
L 305.25 -155.418497 
L 305.25 -156.081441 
L 305.25 -156.744386 
L 305.25 -157.40733 
L 305.25 -158.070274 
L 305.25 -158.733218 
L 305.25 -159.396162 
L 305.25 -160.059107 
L 305.25 -160.722051 
L 305.25 -161.384995 
L 305.25 -162.047939 
L 305.25 -162.710883 
L 305.25 -163.373828 
L 305.25 -164.036772 
L 305.25 -164.699716 
L 305.25 -165.36266 
L 305.25 -166.025604 
L 305.25 -166.688548 
L 305.25 -167.351493 
L 305.25 -168.014437 
L 305.25 -168.677381 
L 305.25 -169.340325 
L 305.25 -170.003269 
L 305.25 -170.666214 
L 305.25 -171.329158 
L 305.25 -171.992102 
L 305.25 -172.655046 
L 305.25 -173.31799 
L 305.25 -173.980935 
L 305.25 -174.643879 
L 305.25 -175.306823 
L 305.25 -175.969767 
L 305.25 -176.632711 
L 305.25 -177.295656 
L 305.25 -177.9586 
L 305.25 -178.621544 
L 305.25 -179.284488 
L 305.25 -179.947432 
L 305.25 -180.610376 
L 305.25 -181.273321 
L 305.25 -181.936265 
L 305.25 -182.599209 
L 305.25 -183.262153 
L 305.25 -183.925097 
L 305.25 -184.588042 
L 305.25 -185.250986 
L 305.25 -185.91393 
L 305.25 -186.576874 
L 305.25 -187.239818 
L 305.25 -187.902763 
L 305.25 -188.565707 
L 305.25 -189.228651 
L 305.25 -189.891595 
L 305.25 -190.554539 
L 305.25 -191.217484 
L 305.25 -191.880428 
L 305.25 -192.543372 
L 305.25 -193.206316 
L 305.25 -193.86926 
L 305.25 -194.532204 
L 305.25 -195.195149 
L 305.25 -195.858093 
L 305.25 -196.521037 
L 305.25 -197.183981 
L 305.25 -197.846925 
L 305.25 -198.50987 
L 305.25 -199.172814 
L 305.25 -199.835758 
L 305.25 -200.498702 
L 305.25 -201.161646 
L 305.25 -201.824591 
L 305.25 -202.487535 
L 305.25 -203.150479 
L 305.25 -203.813423 
L 305.25 -204.476367 
L 305.25 -205.139312 
L 305.25 -205.802256 
L 305.25 -206.4652 
L 305.25 -207.128144 
L 305.25 -207.791088 
L 305.25 -208.454033 
L 305.258643 -208.454033 
L 305.258643 -208.454033 
L 305.26135 -207.791088 
L 305.264778 -207.128144 
L 305.26908 -206.4652 
L 305.274426 -205.802256 
L 305.281005 -205.139312 
L 305.289024 -204.476367 
L 305.298702 -203.813423 
L 305.310268 -203.150479 
L 305.323952 -202.487535 
L 305.339979 -201.824591 
L 305.358559 -201.161646 
L 305.379876 -200.498702 
L 305.404077 -199.835758 
L 305.431259 -199.172814 
L 305.461458 -198.50987 
L 305.494637 -197.846925 
L 305.530679 -197.183981 
L 305.569375 -196.521037 
L 305.610428 -195.858093 
L 305.653446 -195.195149 
L 305.697953 -194.532204 
L 305.743394 -193.86926 
L 305.789154 -193.206316 
L 305.834572 -192.543372 
L 305.878972 -191.880428 
L 305.921681 -191.217484 
L 305.962064 -190.554539 
L 305.999546 -189.891595 
L 306.033645 -189.228651 
L 306.06399 -188.565707 
L 306.090344 -187.902763 
L 306.112614 -187.239818 
L 306.130858 -186.576874 
L 306.145285 -185.91393 
L 306.156242 -185.250986 
L 306.164198 -184.588042 
L 306.169722 -183.925097 
L 306.173455 -183.262153 
L 306.176077 -182.599209 
L 306.178278 -181.936265 
L 306.180728 -181.273321 
L 306.184051 -180.610376 
L 306.188805 -179.947432 
L 306.195472 -179.284488 
L 306.20445 -178.621544 
L 306.216065 -177.9586 
L 306.230583 -177.295656 
L 306.248231 -176.632711 
L 306.269228 -175.969767 
L 306.29382 -175.306823 
L 306.322311 -174.643879 
L 306.355099 -173.980935 
L 306.392704 -173.31799 
L 306.435791 -172.655046 
L 306.485184 -171.992102 
L 306.541864 -171.329158 
L 306.606965 -170.666214 
L 306.681743 -170.003269 
L 306.767548 -169.340325 
L 306.865775 -168.677381 
L 306.977807 -168.014437 
L 307.104956 -167.351493 
L 307.248396 -166.688548 
L 307.409101 -166.025604 
L 307.587778 -165.36266 
L 307.784819 -164.699716 
L 308.00025 -164.036772 
L 308.233701 -163.373828 
L 308.484391 -162.710883 
L 308.751121 -162.047939 
L 309.032292 -161.384995 
L 309.325936 -160.722051 
L 309.62976 -160.059107 
L 309.941212 -159.396162 
L 310.257547 -158.733218 
L 310.575909 -158.070274 
L 310.893422 -157.40733 
L 311.207273 -156.744386 
L 311.514798 -156.081441 
L 311.81357 -155.418497 
L 312.101465 -154.755553 
L 312.376728 -154.092609 
L 312.63802 -153.429665 
L 312.884454 -152.76672 
L 313.115609 -152.103776 
L 313.331533 -151.440832 
L 313.532732 -150.777888 
L 313.720138 -150.114944 
L 313.895078 -149.451999 
L 314.059222 -148.789055 
L 314.214533 -148.126111 
L 314.363213 -147.463167 
L 314.507653 -146.800223 
L 314.650376 -146.137279 
L 314.793999 -145.474334 
L 314.941188 -144.81139 
L 315.094628 -144.148446 
L 315.256992 -143.485502 
L 315.43092 -142.822558 
L 315.618987 -142.159613 
L 315.823684 -141.496669 
L 316.047388 -140.833725 
L 316.292322 -140.170781 
L 316.560513 -139.507837 
L 316.853746 -138.844892 
L 317.173499 -138.181948 
L 317.520888 -137.519004 
L 317.896599 -136.85606 
L 318.300835 -136.193116 
L 318.733267 -135.530171 
L 319.193 -134.867227 
L 319.678566 -134.204283 
L 320.187938 -133.541339 
L 320.718576 -132.878395 
L 321.267503 -132.215451 
L 321.831407 -131.552506 
L 322.406778 -130.889562 
L 322.990055 -130.226618 
L 323.57779 -129.563674 
L 324.166815 -128.90073 
L 324.7544 -128.237785 
L 325.338386 -127.574841 
L 325.917299 -126.911897 
L 326.49041 -126.248953 
L 327.057762 -125.586009 
L 327.620136 -124.923064 
L 328.178967 -124.26012 
L 328.736213 -123.597176 
L 329.294167 -122.934232 
L 329.855244 -122.271288 
L 330.421732 -121.608343 
L 330.995525 -120.945399 
L 331.577869 -120.282455 
L 332.169103 -119.619511 
L 332.768441 -118.956567 
L 333.373786 -118.293622 
L 333.981602 -117.630678 
L 334.586839 -116.967734 
L 335.18293 -116.30479 
L 335.761856 -115.641846 
L 336.314279 -114.978902 
L 336.829744 -114.315957 
L 337.296938 -113.653013 
L 337.704005 -112.990069 
L 338.038894 -112.327125 
L 338.289745 -111.664181 
L 338.445271 -111.001236 
L 338.495155 -110.338292 
L 338.430416 -109.675348 
L 338.243747 -109.012404 
L 337.929806 -108.34946 
L 337.485447 -107.686515 
L 336.909888 -107.023571 
L 336.204794 -106.360627 
L 335.374294 -105.697683 
L 334.424908 -105.034739 
L 333.365404 -104.371794 
L 332.206579 -103.70885 
L 330.960985 -103.045906 
L 329.642599 -102.382962 
L 328.266453 -101.720018 
L 326.848249 -101.057074 
L 325.403954 -100.394129 
L 323.949414 -99.731185 
L 322.499976 -99.068241 
L 321.070149 -98.405297 
L 319.673309 -97.742353 
L 318.321451 -97.079408 
L 317.025003 -96.416464 
L 315.792692 -95.75352 
L 314.631483 -95.090576 
L 313.546558 -94.427632 
L 312.541365 -93.764687 
L 311.617703 -93.101743 
L 310.77585 -92.438799 
L 310.014721 -91.775855 
L 309.33205 -91.112911 
L 308.72458 -90.449966 
L 308.188261 -89.787022 
L 307.718446 -89.124078 
L 307.310078 -88.461134 
L 306.95786 -87.79819 
L 306.656408 -87.135245 
L 306.400384 -86.472301 
L 306.184606 -85.809357 
L 306.004138 -85.146413 
L 305.854356 -84.483469 
L 305.730989 -83.820525 
L 305.630157 -83.15758 
L 305.548371 -82.494636 
L 305.482541 -81.831692 
L 305.42996 -81.168748 
L 305.388282 -80.505804 
L 305.355501 -79.842859 
L 305.329915 -79.179915 
L 305.310099 -78.516971 
L 305.29487 -77.854027 
L 305.283256 -77.191083 
L 305.274469 -76.528138 
z
" style="stroke: #7a77ab; stroke-width: 2"/>
    </defs>
    <g clip-path="url(#p5ab5efff45)">
     <use xlink:href="#mee226cd286" x="0" y="360" style="fill: #7a77ab; fill-opacity: 0.25; stroke: #7a77ab; stroke-width: 2"/>
    </g>
   </g>
   <g id="PolyCollection_4">
    <defs>
     <path id="mc8d1c80f3d" d="M 305.284458 -72.780317 
L 305.25 -72.780317 
L 305.25 -73.858247 
L 305.25 -74.936176 
L 305.25 -76.014105 
L 305.25 -77.092035 
L 305.25 -78.169964 
L 305.25 -79.247893 
L 305.25 -80.325823 
L 305.25 -81.403752 
L 305.25 -82.481681 
L 305.25 -83.559611 
L 305.25 -84.63754 
L 305.25 -85.715469 
L 305.25 -86.793399 
L 305.25 -87.871328 
L 305.25 -88.949257 
L 305.25 -90.027187 
L 305.25 -91.105116 
L 305.25 -92.183045 
L 305.25 -93.260975 
L 305.25 -94.338904 
L 305.25 -95.416833 
L 305.25 -96.494763 
L 305.25 -97.572692 
L 305.25 -98.650621 
L 305.25 -99.728551 
L 305.25 -100.80648 
L 305.25 -101.884409 
L 305.25 -102.962339 
L 305.25 -104.040268 
L 305.25 -105.118197 
L 305.25 -106.196127 
L 305.25 -107.274056 
L 305.25 -108.351985 
L 305.25 -109.429915 
L 305.25 -110.507844 
L 305.25 -111.585773 
L 305.25 -112.663703 
L 305.25 -113.741632 
L 305.25 -114.819561 
L 305.25 -115.897491 
L 305.25 -116.97542 
L 305.25 -118.053349 
L 305.25 -119.131279 
L 305.25 -120.209208 
L 305.25 -121.287137 
L 305.25 -122.365067 
L 305.25 -123.442996 
L 305.25 -124.520925 
L 305.25 -125.598855 
L 305.25 -126.676784 
L 305.25 -127.754713 
L 305.25 -128.832643 
L 305.25 -129.910572 
L 305.25 -130.988501 
L 305.25 -132.066431 
L 305.25 -133.14436 
L 305.25 -134.222289 
L 305.25 -135.300219 
L 305.25 -136.378148 
L 305.25 -137.456077 
L 305.25 -138.534007 
L 305.25 -139.611936 
L 305.25 -140.689865 
L 305.25 -141.767795 
L 305.25 -142.845724 
L 305.25 -143.923653 
L 305.25 -145.001583 
L 305.25 -146.079512 
L 305.25 -147.157441 
L 305.25 -148.235371 
L 305.25 -149.3133 
L 305.25 -150.391229 
L 305.25 -151.469158 
L 305.25 -152.547088 
L 305.25 -153.625017 
L 305.25 -154.702946 
L 305.25 -155.780876 
L 305.25 -156.858805 
L 305.25 -157.936734 
L 305.25 -159.014664 
L 305.25 -160.092593 
L 305.25 -161.170522 
L 305.25 -162.248452 
L 305.25 -163.326381 
L 305.25 -164.40431 
L 305.25 -165.48224 
L 305.25 -166.560169 
L 305.25 -167.638098 
L 305.25 -168.716028 
L 305.25 -169.793957 
L 305.25 -170.871886 
L 305.25 -171.949816 
L 305.25 -173.027745 
L 305.25 -174.105674 
L 305.25 -175.183604 
L 305.25 -176.261533 
L 305.25 -177.339462 
L 305.25 -178.417392 
L 305.25 -179.495321 
L 305.25 -180.57325 
L 305.25 -181.65118 
L 305.25 -182.729109 
L 305.25 -183.807038 
L 305.25 -184.884968 
L 305.25 -185.962897 
L 305.25 -187.040826 
L 305.25 -188.118756 
L 305.25 -189.196685 
L 305.25 -190.274614 
L 305.25 -191.352544 
L 305.25 -192.430473 
L 305.25 -193.508402 
L 305.25 -194.586332 
L 305.25 -195.664261 
L 305.25 -196.74219 
L 305.25 -197.82012 
L 305.25 -198.898049 
L 305.25 -199.975978 
L 305.25 -201.053908 
L 305.25 -202.131837 
L 305.25 -203.209766 
L 305.25 -204.287696 
L 305.25 -205.365625 
L 305.25 -206.443554 
L 305.25 -207.521484 
L 305.25 -208.599413 
L 305.25 -209.677342 
L 305.25 -210.755272 
L 305.25 -211.833201 
L 305.25 -212.91113 
L 305.25 -213.98906 
L 305.25 -215.066989 
L 305.25 -216.144918 
L 305.25 -217.222848 
L 305.25 -218.300777 
L 305.25 -219.378706 
L 305.25 -220.456636 
L 305.25 -221.534565 
L 305.25 -222.612494 
L 305.25 -223.690424 
L 305.25 -224.768353 
L 305.25 -225.846282 
L 305.25 -226.924212 
L 305.25 -228.002141 
L 305.25 -229.08007 
L 305.25 -230.158 
L 305.25 -231.235929 
L 305.25 -232.313858 
L 305.25 -233.391788 
L 305.25 -234.469717 
L 305.25 -235.547646 
L 305.25 -236.625575 
L 305.25 -237.703505 
L 305.25 -238.781434 
L 305.25 -239.859363 
L 305.25 -240.937293 
L 305.25 -242.015222 
L 305.25 -243.093151 
L 305.25 -244.171081 
L 305.25 -245.24901 
L 305.25 -246.326939 
L 305.25 -247.404869 
L 305.25 -248.482798 
L 305.25 -249.560727 
L 305.25 -250.638657 
L 305.25 -251.716586 
L 305.25 -252.794515 
L 305.25 -253.872445 
L 305.25 -254.950374 
L 305.25 -256.028303 
L 305.25 -257.106233 
L 305.25 -258.184162 
L 305.25 -259.262091 
L 305.25 -260.340021 
L 305.25 -261.41795 
L 305.25 -262.495879 
L 305.25 -263.573809 
L 305.25 -264.651738 
L 305.25 -265.729667 
L 305.25 -266.807597 
L 305.25 -267.885526 
L 305.25 -268.963455 
L 305.25 -270.041385 
L 305.25 -271.119314 
L 305.25 -272.197243 
L 305.25 -273.275173 
L 305.25 -274.353102 
L 305.25 -275.431031 
L 305.25 -276.508961 
L 305.25 -277.58689 
L 305.25 -278.664819 
L 305.25 -279.742749 
L 305.25 -280.820678 
L 305.25 -281.898607 
L 305.25 -282.976537 
L 305.25 -284.054466 
L 305.25 -285.132395 
L 305.25 -286.210325 
L 305.25 -287.288254 
L 305.253925 -287.288254 
L 305.253925 -287.288254 
L 305.255403 -286.210325 
L 305.257351 -285.132395 
L 305.259885 -284.054466 
L 305.263139 -282.976537 
L 305.267262 -281.898607 
L 305.272416 -280.820678 
L 305.278775 -279.742749 
L 305.286512 -278.664819 
L 305.2958 -277.58689 
L 305.306796 -276.508961 
L 305.319634 -275.431031 
L 305.334412 -274.353102 
L 305.351184 -273.275173 
L 305.369947 -272.197243 
L 305.390637 -271.119314 
L 305.41312 -270.041385 
L 305.437198 -268.963455 
L 305.462611 -267.885526 
L 305.489046 -266.807597 
L 305.516154 -265.729667 
L 305.543572 -264.651738 
L 305.570942 -263.573809 
L 305.59794 -262.495879 
L 305.624298 -261.41795 
L 305.649826 -260.340021 
L 305.674425 -259.262091 
L 305.698101 -258.184162 
L 305.720964 -257.106233 
L 305.743215 -256.028303 
L 305.765131 -254.950374 
L 305.787039 -253.872445 
L 305.809285 -252.794515 
L 305.832194 -251.716586 
L 305.856043 -250.638657 
L 305.881024 -249.560727 
L 305.907226 -248.482798 
L 305.934619 -247.404869 
L 305.963052 -246.326939 
L 305.992263 -245.24901 
L 306.021905 -244.171081 
L 306.05157 -243.093151 
L 306.080836 -242.015222 
L 306.109303 -240.937293 
L 306.136633 -239.859363 
L 306.162588 -238.781434 
L 306.187054 -237.703505 
L 306.210058 -236.625575 
L 306.231767 -235.547646 
L 306.252476 -234.469717 
L 306.272587 -233.391788 
L 306.292567 -232.313858 
L 306.312907 -231.235929 
L 306.334076 -230.158 
L 306.356466 -229.08007 
L 306.380357 -228.002141 
L 306.40587 -226.924212 
L 306.432949 -225.846282 
L 306.461342 -224.768353 
L 306.490603 -223.690424 
L 306.520108 -222.612494 
L 306.549079 -221.534565 
L 306.576629 -220.456636 
L 306.601801 -219.378706 
L 306.62363 -218.300777 
L 306.641193 -217.222848 
L 306.653662 -216.144918 
L 306.660354 -215.066989 
L 306.660769 -213.98906 
L 306.654617 -212.91113 
L 306.641833 -211.833201 
L 306.622581 -210.755272 
L 306.597238 -209.677342 
L 306.566375 -208.599413 
L 306.530719 -207.521484 
L 306.491113 -206.443554 
L 306.44847 -205.365625 
L 306.403723 -204.287696 
L 306.357783 -203.209766 
L 306.311493 -202.131837 
L 306.265594 -201.053908 
L 306.220698 -199.975978 
L 306.17727 -198.898049 
L 306.135621 -197.82012 
L 306.095905 -196.74219 
L 306.058133 -195.664261 
L 306.022189 -194.586332 
L 305.987855 -193.508402 
L 305.954836 -192.430473 
L 305.922798 -191.352544 
L 305.891395 -190.274614 
L 305.860303 -189.196685 
L 305.829247 -188.118756 
L 305.798032 -187.040826 
L 305.766555 -185.962897 
L 305.734827 -184.884968 
L 305.702973 -183.807038 
L 305.67124 -182.729109 
L 305.639988 -181.65118 
L 305.609682 -180.57325 
L 305.580878 -179.495321 
L 305.554207 -178.417392 
L 305.530358 -177.339462 
L 305.510057 -176.261533 
L 305.494055 -175.183604 
L 305.483103 -174.105674 
L 305.477942 -173.027745 
L 305.479286 -171.949816 
L 305.487811 -170.871886 
L 305.504139 -169.793957 
L 305.528831 -168.716028 
L 305.562379 -167.638098 
L 305.605199 -166.560169 
L 305.657634 -165.48224 
L 305.719965 -164.40431 
L 305.79242 -163.326381 
L 305.875207 -162.248452 
L 305.968556 -161.170522 
L 306.072765 -160.092593 
L 306.188273 -159.014664 
L 306.315731 -157.936734 
L 306.456094 -156.858805 
L 306.610707 -155.780876 
L 306.781394 -154.702946 
L 306.970546 -153.625017 
L 307.181187 -152.547088 
L 307.417026 -151.469158 
L 307.682486 -150.391229 
L 307.982701 -149.3133 
L 308.323475 -148.235371 
L 308.711218 -147.157441 
L 309.15283 -146.079512 
L 309.655561 -145.001583 
L 310.226828 -143.923653 
L 310.874 -142.845724 
L 311.604155 -141.767795 
L 312.423806 -140.689865 
L 313.338608 -139.611936 
L 314.353044 -138.534007 
L 315.470099 -137.456077 
L 316.690933 -136.378148 
L 318.014562 -135.300219 
L 319.437545 -134.222289 
L 320.953718 -133.14436 
L 322.553961 -132.066431 
L 324.226038 -130.988501 
L 325.954513 -129.910572 
L 327.720765 -128.832643 
L 329.503119 -127.754713 
L 331.277099 -126.676784 
L 333.015821 -125.598855 
L 334.690513 -124.520925 
L 336.271179 -123.442996 
L 337.727365 -122.365067 
L 339.029036 -121.287137 
L 340.147517 -120.209208 
L 341.056461 -119.131279 
L 341.732813 -118.053349 
L 342.157714 -116.97542 
L 342.317308 -115.897491 
L 342.203389 -114.819561 
L 341.813873 -113.741632 
L 341.153034 -112.663703 
L 340.231509 -111.585773 
L 339.066038 -110.507844 
L 337.678967 -109.429915 
L 336.097512 -108.351985 
L 334.352837 -107.274056 
L 332.478973 -106.196127 
L 330.511648 -105.118197 
L 328.487073 -104.040268 
L 326.440761 -102.962339 
L 324.406414 -101.884409 
L 322.414961 -100.80648 
L 320.493753 -99.728551 
L 318.665973 -98.650621 
L 316.95026 -97.572692 
L 315.360556 -96.494763 
L 313.906151 -95.416833 
L 312.59193 -94.338904 
L 311.418756 -93.260975 
L 310.383982 -92.183045 
L 309.482033 -91.105116 
L 308.705025 -90.027187 
L 308.043387 -88.949257 
L 307.486456 -87.871328 
L 307.023011 -86.793399 
L 306.641737 -85.715469 
L 306.331614 -84.63754 
L 306.082207 -83.559611 
L 305.883884 -82.481681 
L 305.727953 -81.403752 
L 305.606726 -80.325823 
L 305.513533 -79.247893 
L 305.442693 -78.169964 
L 305.389447 -77.092035 
L 305.349871 -76.014105 
L 305.320786 -74.936176 
L 305.299648 -73.858247 
L 305.284458 -72.780317 
z
" style="stroke: #f28360; stroke-width: 2"/>
    </defs>
    <g clip-path="url(#p5ab5efff45)">
     <use xlink:href="#mc8d1c80f3d" x="0" y="360" style="fill: #f28360; fill-opacity: 0.25; stroke: #f28360; stroke-width: 2"/>
    </g>
   </g>
   <g id="matplotlib.axis_5">
    <g id="xtick_7"/>
    <g id="xtick_8"/>
   </g>
   <g id="matplotlib.axis_6">
    <g id="ytick_7">
     <g id="line2d_16">
      <g>
       <use xlink:href="#mfb1649049b" x="305.25" y="266.89099" style="stroke: #000000; stroke-width: 0.75"/>
      </g>
     </g>
    </g>
    <g id="ytick_8">
     <g id="line2d_17">
      <g>
       <use xlink:href="#mfb1649049b" x="305.25" y="201.736575" style="stroke: #000000; stroke-width: 0.75"/>
      </g>
     </g>
    </g>
    <g id="ytick_9">
     <g id="line2d_18">
      <g>
       <use xlink:href="#mfb1649049b" x="305.25" y="136.58216" style="stroke: #000000; stroke-width: 0.75"/>
      </g>
     </g>
    </g>
    <g id="ytick_10">
     <g id="line2d_19">
      <g>
       <use xlink:href="#mfb1649049b" x="305.25" y="71.427745" style="stroke: #000000; stroke-width: 0.75"/>
      </g>
     </g>
    </g>
   </g>
   <g id="patch_8">
    <path d="M 305.25 295.8 
L 305.25 64.131429 
" style="fill: none; stroke: #000000; stroke-width: 0.75; stroke-linejoin: miter; stroke-linecap: square"/>
   </g>
  </g>
 </g>
 <defs>
  <clipPath id="p3822417111">
   <rect x="73.95" y="64.131429" width="223.59" height="231.668571"/>
  </clipPath>
  <clipPath id="p55eac9886d">
   <rect x="73.95" y="16.2" width="223.59" height="39.942857"/>
  </clipPath>
  <clipPath id="p5ab5efff45">
   <rect x="305.25" y="64.131429" width="38.55" height="231.668571"/>
  </clipPath>
 </defs>
</svg>
