<?xml version="1.0" encoding="utf-8" standalone="no"?>
<!DOCTYPE svg PUBLIC "-//W3C//DTD SVG 1.1//EN"
  "http://www.w3.org/Graphics/SVG/1.1/DTD/svg11.dtd">
<svg xmlns:xlink="http://www.w3.org/1999/xlink" width="954.689663pt" height="378.799603pt" viewBox="0 0 954.689663 378.799603" xmlns="http://www.w3.org/2000/svg" version="1.1">
 <metadata>
  <rdf:RDF xmlns:dc="http://purl.org/dc/elements/1.1/" xmlns:cc="http://creativecommons.org/ns#" xmlns:rdf="http://www.w3.org/1999/02/22-rdf-syntax-ns#">
   <cc:Work>
    <dc:type rdf:resource="http://purl.org/dc/dcmitype/StillImage"/>
    <dc:date>2024-07-31T16:23:34.417379</dc:date>
    <dc:format>image/svg+xml</dc:format>
    <dc:creator>
     <cc:Agent>
      <dc:title>Matplotlib v3.8.4, https://matplotlib.org/</dc:title>
     </cc:Agent>
    </dc:creator>
   </cc:Work>
  </rdf:RDF>
 </metadata>
 <defs>
  <style type="text/css">*{stroke-linejoin: round; stroke-linecap: butt}</style>
 </defs>
 <g id="figure_1">
  <g id="patch_1">
   <path d="M 0 378.799603 
L 954.689663 378.799603 
L 954.689663 0 
L 0 0 
L 0 378.799603 
z
" style="fill: none"/>
  </g>
  <g id="axes_1">
   <g id="patch_2">
    <path d="M 81.598281 311.799603 
L 301.812921 311.799603 
L 301.812921 87.33837 
L 81.598281 87.33837 
L 81.598281 311.799603 
z
" style="fill: none"/>
   </g>
   <g id="PolyCollection_1">
    <defs>
     <path id="mf042eaddd4" d="M 180.377688 -80.092855 
L 177.850843 -80.092855 
L 176.493773 -81.762559 
L 174.592403 -83.432264 
L 172.023037 -85.101969 
L 168.674913 -86.771673 
L 164.4687 -88.441378 
L 159.37583 -90.111083 
L 153.435026 -91.780787 
L 146.762039 -93.450492 
L 139.549142 -95.120197 
L 132.052598 -96.789901 
L 124.568646 -98.459606 
L 117.401238 -100.129311 
L 110.826919 -101.799015 
L 105.063399 -103.46872 
L 100.247929 -105.138425 
L 96.429763 -106.80813 
L 93.577942 -108.477834 
L 91.602256 -110.147539 
L 90.382321 -111.817244 
L 89.797996 -113.486948 
L 89.754379 -115.156653 
L 90.196245 -116.826358 
L 91.10968 -118.496062 
L 92.511876 -120.165767 
L 94.432835 -121.835472 
L 96.894314 -123.505176 
L 99.89142 -125.174881 
L 103.381085 -126.844586 
L 107.279512 -128.51429 
L 111.468438 -130.183995 
L 115.808131 -131.8537 
L 120.153876 -133.523404 
L 124.372426 -135.193109 
L 128.355448 -136.862814 
L 132.028023 -138.532518 
L 135.351625 -140.202223 
L 138.322182 -141.871928 
L 140.964661 -143.541632 
L 143.325898 -145.211337 
L 145.46712 -146.881042 
L 147.456968 -148.550746 
L 149.365211 -150.220451 
L 151.256877 -151.890156 
L 153.18656 -153.55986 
L 155.192997 -155.229565 
L 157.294501 -156.89927 
L 159.48616 -158.568974 
L 161.739661 -160.238679 
L 164.006193 -161.908384 
L 166.222218 -163.578088 
L 168.317238 -165.247793 
L 170.222346 -166.917498 
L 171.878253 -168.587202 
L 173.241773 -170.256907 
L 174.290138 -171.926612 
L 175.022927 -173.596316 
L 175.461665 -175.266021 
L 175.647335 -176.935726 
L 175.636119 -178.60543 
L 175.493776 -180.275135 
L 175.289184 -181.94484 
L 175.087709 -183.614544 
L 174.94517 -185.284249 
L 174.903131 -186.953954 
L 174.986108 -188.623658 
L 175.200989 -190.293363 
L 175.538585 -191.963068 
L 175.976909 -193.632772 
L 176.485518 -195.302477 
L 177.030185 -196.972182 
L 177.577174 -198.641886 
L 178.09661 -200.311591 
L 178.564628 -201.981296 
L 178.964263 -203.651 
L 179.285247 -205.320705 
L 179.523059 -206.99041 
L 179.677635 -208.660114 
L 179.752156 -210.329819 
L 179.752205 -211.999524 
L 179.685462 -213.669228 
L 179.561851 -215.338933 
L 179.393936 -217.008638 
L 179.197183 -218.678342 
L 178.989752 -220.348047 
L 178.791568 -222.017752 
L 178.622633 -223.687456 
L 178.500807 -225.357161 
L 178.439486 -227.026866 
L 178.445714 -228.69657 
L 178.519195 -230.366275 
L 178.65249 -232.03598 
L 178.832371 -233.705684 
L 179.042053 -235.375389 
L 179.26379 -237.045094 
L 179.481314 -238.714798 
L 179.681674 -240.384503 
L 179.856216 -242.054208 
L 180.0007 -243.723912 
L 180.114716 -245.393617 
L 180.377688 -245.393617 
L 180.377688 -245.393617 
L 180.377688 -243.723912 
L 180.377688 -242.054208 
L 180.377688 -240.384503 
L 180.377688 -238.714798 
L 180.377688 -237.045094 
L 180.377688 -235.375389 
L 180.377688 -233.705684 
L 180.377688 -232.03598 
L 180.377688 -230.366275 
L 180.377688 -228.69657 
L 180.377688 -227.026866 
L 180.377688 -225.357161 
L 180.377688 -223.687456 
L 180.377688 -222.017752 
L 180.377688 -220.348047 
L 180.377688 -218.678342 
L 180.377688 -217.008638 
L 180.377688 -215.338933 
L 180.377688 -213.669228 
L 180.377688 -211.999524 
L 180.377688 -210.329819 
L 180.377688 -208.660114 
L 180.377688 -206.99041 
L 180.377688 -205.320705 
L 180.377688 -203.651 
L 180.377688 -201.981296 
L 180.377688 -200.311591 
L 180.377688 -198.641886 
L 180.377688 -196.972182 
L 180.377688 -195.302477 
L 180.377688 -193.632772 
L 180.377688 -191.963068 
L 180.377688 -190.293363 
L 180.377688 -188.623658 
L 180.377688 -186.953954 
L 180.377688 -185.284249 
L 180.377688 -183.614544 
L 180.377688 -181.94484 
L 180.377688 -180.275135 
L 180.377688 -178.60543 
L 180.377688 -176.935726 
L 180.377688 -175.266021 
L 180.377688 -173.596316 
L 180.377688 -171.926612 
L 180.377688 -170.256907 
L 180.377688 -168.587202 
L 180.377688 -166.917498 
L 180.377688 -165.247793 
L 180.377688 -163.578088 
L 180.377688 -161.908384 
L 180.377688 -160.238679 
L 180.377688 -158.568974 
L 180.377688 -156.89927 
L 180.377688 -155.229565 
L 180.377688 -153.55986 
L 180.377688 -151.890156 
L 180.377688 -150.220451 
L 180.377688 -148.550746 
L 180.377688 -146.881042 
L 180.377688 -145.211337 
L 180.377688 -143.541632 
L 180.377688 -141.871928 
L 180.377688 -140.202223 
L 180.377688 -138.532518 
L 180.377688 -136.862814 
L 180.377688 -135.193109 
L 180.377688 -133.523404 
L 180.377688 -131.8537 
L 180.377688 -130.183995 
L 180.377688 -128.51429 
L 180.377688 -126.844586 
L 180.377688 -125.174881 
L 180.377688 -123.505176 
L 180.377688 -121.835472 
L 180.377688 -120.165767 
L 180.377688 -118.496062 
L 180.377688 -116.826358 
L 180.377688 -115.156653 
L 180.377688 -113.486948 
L 180.377688 -111.817244 
L 180.377688 -110.147539 
L 180.377688 -108.477834 
L 180.377688 -106.80813 
L 180.377688 -105.138425 
L 180.377688 -103.46872 
L 180.377688 -101.799015 
L 180.377688 -100.129311 
L 180.377688 -98.459606 
L 180.377688 -96.789901 
L 180.377688 -95.120197 
L 180.377688 -93.450492 
L 180.377688 -91.780787 
L 180.377688 -90.111083 
L 180.377688 -88.441378 
L 180.377688 -86.771673 
L 180.377688 -85.101969 
L 180.377688 -83.432264 
L 180.377688 -81.762559 
L 180.377688 -80.092855 
z
"/>
    </defs>
    <g clip-path="url(#p27c211cd4a)">
     <use xlink:href="#mf042eaddd4" x="0" y="378.799603" style="fill: #b4bba7"/>
    </g>
   </g>
   <g id="PolyCollection_2">
    <defs>
     <path id="m56eeb1101d" d="M 205.988728 -75.313379 
L 203.033515 -75.313379 
L 203.033515 -76.769911 
L 203.033515 -78.226443 
L 203.033515 -79.682975 
L 203.033515 -81.139508 
L 203.033515 -82.59604 
L 203.033515 -84.052572 
L 203.033515 -85.509104 
L 203.033515 -86.965636 
L 203.033515 -88.422168 
L 203.033515 -89.8787 
L 203.033515 -91.335232 
L 203.033515 -92.791765 
L 203.033515 -94.248297 
L 203.033515 -95.704829 
L 203.033515 -97.161361 
L 203.033515 -98.617893 
L 203.033515 -100.074425 
L 203.033515 -101.530957 
L 203.033515 -102.98749 
L 203.033515 -104.444022 
L 203.033515 -105.900554 
L 203.033515 -107.357086 
L 203.033515 -108.813618 
L 203.033515 -110.27015 
L 203.033515 -111.726682 
L 203.033515 -113.183214 
L 203.033515 -114.639747 
L 203.033515 -116.096279 
L 203.033515 -117.552811 
L 203.033515 -119.009343 
L 203.033515 -120.465875 
L 203.033515 -121.922407 
L 203.033515 -123.378939 
L 203.033515 -124.835472 
L 203.033515 -126.292004 
L 203.033515 -127.748536 
L 203.033515 -129.205068 
L 203.033515 -130.6616 
L 203.033515 -132.118132 
L 203.033515 -133.574664 
L 203.033515 -135.031196 
L 203.033515 -136.487729 
L 203.033515 -137.944261 
L 203.033515 -139.400793 
L 203.033515 -140.857325 
L 203.033515 -142.313857 
L 203.033515 -143.770389 
L 203.033515 -145.226921 
L 203.033515 -146.683454 
L 203.033515 -148.139986 
L 203.033515 -149.596518 
L 203.033515 -151.05305 
L 203.033515 -152.509582 
L 203.033515 -153.966114 
L 203.033515 -155.422646 
L 203.033515 -156.879178 
L 203.033515 -158.335711 
L 203.033515 -159.792243 
L 203.033515 -161.248775 
L 203.033515 -162.705307 
L 203.033515 -164.161839 
L 203.033515 -165.618371 
L 203.033515 -167.074903 
L 203.033515 -168.531436 
L 203.033515 -169.987968 
L 203.033515 -171.4445 
L 203.033515 -172.901032 
L 203.033515 -174.357564 
L 203.033515 -175.814096 
L 203.033515 -177.270628 
L 203.033515 -178.72716 
L 203.033515 -180.183693 
L 203.033515 -181.640225 
L 203.033515 -183.096757 
L 203.033515 -184.553289 
L 203.033515 -186.009821 
L 203.033515 -187.466353 
L 203.033515 -188.922885 
L 203.033515 -190.379418 
L 203.033515 -191.83595 
L 203.033515 -193.292482 
L 203.033515 -194.749014 
L 203.033515 -196.205546 
L 203.033515 -197.662078 
L 203.033515 -199.11861 
L 203.033515 -200.575143 
L 203.033515 -202.031675 
L 203.033515 -203.488207 
L 203.033515 -204.944739 
L 203.033515 -206.401271 
L 203.033515 -207.857803 
L 203.033515 -209.314335 
L 203.033515 -210.770867 
L 203.033515 -212.2274 
L 203.033515 -213.683932 
L 203.033515 -215.140464 
L 203.033515 -216.596996 
L 203.033515 -218.053528 
L 203.033515 -219.51006 
L 204.029322 -219.51006 
L 204.029322 -219.51006 
L 204.321238 -218.053528 
L 204.675102 -216.596996 
L 205.09672 -215.140464 
L 205.590377 -213.683932 
L 206.158263 -212.2274 
L 206.799935 -210.770867 
L 207.511895 -209.314335 
L 208.287316 -207.857803 
L 209.115984 -206.401271 
L 209.984489 -204.944739 
L 210.876668 -203.488207 
L 211.774309 -202.031675 
L 212.658058 -200.575143 
L 213.508477 -199.11861 
L 214.307169 -197.662078 
L 215.037879 -196.205546 
L 215.687491 -194.749014 
L 216.246836 -193.292482 
L 216.711264 -191.83595 
L 217.080955 -190.379418 
L 217.36097 -188.922885 
L 217.561066 -187.466353 
L 217.695324 -186.009821 
L 217.781646 -184.553289 
L 217.841154 -183.096757 
L 217.897555 -181.640225 
L 217.976473 -180.183693 
L 218.104768 -178.72716 
L 218.309818 -177.270628 
L 218.618765 -175.814096 
L 219.057698 -174.357564 
L 219.650771 -172.901032 
L 220.419279 -171.4445 
L 221.380727 -169.987968 
L 222.547959 -168.531436 
L 223.928424 -167.074903 
L 225.523677 -165.618371 
L 227.329176 -164.161839 
L 229.334464 -162.705307 
L 231.523743 -161.248775 
L 233.876831 -159.792243 
L 236.370448 -158.335711 
L 238.979721 -156.879178 
L 241.679775 -155.422646 
L 244.447246 -153.966114 
L 247.261557 -152.509582 
L 250.105813 -151.05305 
L 252.967198 -149.596518 
L 255.836826 -148.139986 
L 258.70902 -146.683454 
L 261.580121 -145.226921 
L 264.44691 -143.770389 
L 267.304851 -142.313857 
L 270.146333 -140.857325 
L 272.959146 -139.400793 
L 275.725375 -137.944261 
L 278.42087 -136.487729 
L 281.015388 -135.031196 
L 283.473422 -133.574664 
L 285.755654 -132.118132 
L 287.820893 -130.6616 
L 289.628293 -129.205068 
L 291.139636 -127.748536 
L 292.321425 -126.292004 
L 293.146571 -124.835472 
L 293.595539 -123.378939 
L 293.656824 -121.922407 
L 293.326784 -120.465875 
L 292.608881 -119.009343 
L 291.512477 -117.552811 
L 290.051379 -116.096279 
L 288.242344 -114.639747 
L 286.10374 -113.183214 
L 283.654559 -111.726682 
L 280.913881 -110.27015 
L 277.900844 -108.813618 
L 274.635095 -107.357086 
L 271.137628 -105.900554 
L 267.431836 -104.444022 
L 263.544606 -102.98749 
L 259.507227 -101.530957 
L 255.355949 -100.074425 
L 251.132026 -98.617893 
L 246.881173 -97.161361 
L 242.652441 -95.704829 
L 238.496559 -94.248297 
L 234.463916 -92.791765 
L 230.602344 -91.335232 
L 226.954938 -89.8787 
L 223.558118 -88.422168 
L 220.440108 -86.965636 
L 217.619969 -85.509104 
L 215.107249 -84.052572 
L 212.902242 -82.59604 
L 210.996799 -81.139508 
L 209.375569 -79.682975 
L 208.01754 -78.226443 
L 206.897704 -76.769911 
L 205.988728 -75.313379 
z
"/>
    </defs>
    <g clip-path="url(#p27c211cd4a)">
     <use xlink:href="#m56eeb1101d" x="0" y="378.799603" style="fill: #5c6d71"/>
    </g>
   </g>
   <g id="matplotlib.axis_1">
    <g id="xtick_1">
     <g id="line2d_1">
      <defs>
       <path id="m9362e149c5" d="M 0 0 
L 0 5 
" style="stroke: #000000; stroke-width: 0.75"/>
      </defs>
      <g>
       <use xlink:href="#m9362e149c5" x="135.066033" y="311.799603" style="stroke: #000000; stroke-width: 0.75"/>
      </g>
     </g>
     <g id="text_1">
      <text style="font: 15px &quot;Suisse Int&apos;l&quot;, sans-serif; text-anchor: middle" x="135.066033" y="332.674603" transform="rotate(-0 135.066033 332.674603)">top</text>
     </g>
    </g>
    <g id="xtick_2">
     <g id="line2d_2">
      <g>
       <use xlink:href="#m9362e149c5" x="248.345169" y="311.799603" style="stroke: #000000; stroke-width: 0.75"/>
      </g>
     </g>
     <g id="text_2">
      <text style="font: 15px &quot;Suisse Int&apos;l&quot;, sans-serif; text-anchor: middle" x="248.345169" y="332.674603" transform="rotate(-0 248.345169 332.674603)">middle</text>
     </g>
    </g>
    <g id="text_3">
     <text style="font: 500 15px &quot;Suisse Int&apos;l&quot;, sans-serif; text-anchor: middle" x="191.705601" y="356.174603" transform="rotate(-0 191.705601 356.174603)">Position in tube</text>
    </g>
   </g>
   <g id="matplotlib.axis_2">
    <g id="ytick_1">
     <g id="line2d_3">
      <defs>
       <path id="ma3a741f646" d="M 0 0 
L -5 0 
" style="stroke: #000000; stroke-width: 0.75"/>
      </defs>
      <g>
       <use xlink:href="#ma3a741f646" x="81.598281" y="281.357914" style="stroke: #000000; stroke-width: 0.75"/>
      </g>
     </g>
     <g id="text_4">
      <text style="font: 14.5px &quot;Suisse Int&apos;l Mono&quot;; text-anchor: end" x="71.598281" y="286.614164" transform="rotate(-0 71.598281 286.614164)">0.0</text>
     </g>
    </g>
    <g id="ytick_2">
     <g id="line2d_4">
      <g>
       <use xlink:href="#ma3a741f646" x="81.598281" y="227.217959" style="stroke: #000000; stroke-width: 0.75"/>
      </g>
     </g>
     <g id="text_5">
      <text style="font: 14.5px &quot;Suisse Int&apos;l Mono&quot;; text-anchor: end" x="71.598281" y="232.474209" transform="rotate(-0 71.598281 232.474209)">0.2</text>
     </g>
    </g>
    <g id="ytick_3">
     <g id="line2d_5">
      <g>
       <use xlink:href="#ma3a741f646" x="81.598281" y="173.078004" style="stroke: #000000; stroke-width: 0.75"/>
      </g>
     </g>
     <g id="text_6">
      <text style="font: 14.5px &quot;Suisse Int&apos;l Mono&quot;; text-anchor: end" x="71.598281" y="178.334254" transform="rotate(-0 71.598281 178.334254)">0.4</text>
     </g>
    </g>
    <g id="ytick_4">
     <g id="line2d_6">
      <g>
       <use xlink:href="#ma3a741f646" x="81.598281" y="118.938048" style="stroke: #000000; stroke-width: 0.75"/>
      </g>
     </g>
     <g id="text_7">
      <text style="font: 14.5px &quot;Suisse Int&apos;l Mono&quot;; text-anchor: end" x="71.598281" y="124.194298" transform="rotate(-0 71.598281 124.194298)">0.6</text>
     </g>
    </g>
    <g id="text_8">
     <text style="font: 500 15px &quot;Suisse Int&apos;l&quot;, sans-serif; text-anchor: middle" x="30.875" y="199.568987" transform="rotate(-90 30.875 199.568987)">Confinement ratio</text>
    </g>
   </g>
   <g id="line2d_7">
    <path d="M 177.877688 281.039349 
L 177.877688 213.901594 
" clip-path="url(#p27c211cd4a)" style="fill: none; stroke: #3e3e3e; stroke-width: 1.666667; stroke-linecap: round"/>
   </g>
   <g id="line2d_8">
    <path d="M 177.877688 270.262381 
L 177.877688 244.754801 
" clip-path="url(#p27c211cd4a)" style="fill: none; stroke: #3e3e3e; stroke-width: 5; stroke-linecap: round"/>
   </g>
   <g id="line2d_9">
    <path d="M 177.877688 258.660654 
" clip-path="url(#p27c211cd4a)" style="fill: none; stroke: #3e3e3e; stroke-width: 2; stroke-linecap: round"/>
    <defs>
     <path id="m5eb57ac861" d="M 2.083333 0 
L -2.083333 -0 
" style="stroke: #ffffff"/>
    </defs>
    <g clip-path="url(#p27c211cd4a)">
     <use xlink:href="#m5eb57ac861" x="177.877688" y="258.660654" style="fill: #ffffff; stroke: #ffffff"/>
    </g>
   </g>
   <g id="line2d_10">
    <path d="M 205.533515 279.915474 
L 205.533515 196.547523 
" clip-path="url(#p27c211cd4a)" style="fill: none; stroke: #3e3e3e; stroke-width: 1.666667; stroke-linecap: round"/>
   </g>
   <g id="line2d_11">
    <path d="M 205.533515 265.373254 
L 205.533515 234.057851 
" clip-path="url(#p27c211cd4a)" style="fill: none; stroke: #3e3e3e; stroke-width: 5; stroke-linecap: round"/>
   </g>
   <g id="line2d_12">
    <path d="M 205.533515 251.936277 
" clip-path="url(#p27c211cd4a)" style="fill: none; stroke: #3e3e3e; stroke-width: 2; stroke-linecap: round"/>
    <g clip-path="url(#p27c211cd4a)">
     <use xlink:href="#m5eb57ac861" x="205.533515" y="251.936277" style="fill: #ffffff; stroke: #ffffff"/>
    </g>
   </g>
   <g id="line2d_13">
    <path d="M 169.049774 95.651749 
L 214.361428 95.651749 
" clip-path="url(#p27c211cd4a)" style="fill: none; stroke: #000000; stroke-width: 2; stroke-linecap: round"/>
   </g>
   <g id="patch_3">
    <path d="M 81.598281 311.799603 
L 81.598281 87.33837 
" style="fill: none; stroke: #000000; stroke-width: 0.75; stroke-linejoin: miter; stroke-linecap: square"/>
   </g>
   <g id="patch_4">
    <path d="M 81.598281 311.799603 
L 301.812921 311.799603 
" style="fill: none; stroke: #000000; stroke-width: 0.75; stroke-linejoin: miter; stroke-linecap: square"/>
   </g>
   <g id="text_9">
    <text style="font: 16px &quot;Suisse Int&apos;l&quot;, sans-serif; text-anchor: middle" x="191.705601" y="86.366441" transform="rotate(-0 191.705601 86.366441)">ns</text>
   </g>
  </g>
  <g id="axes_2">
   <g id="patch_5">
    <path d="M 369.544534 311.799603 
L 589.759174 311.799603 
L 589.759174 87.33837 
L 369.544534 87.33837 
L 369.544534 311.799603 
z
" style="fill: none"/>
   </g>
   <g id="PolyCollection_3">
    <defs>
     <path id="mc1f56c4631" d="M 468.323941 -75.313379 
L 466.26224 -75.313379 
L 465.501938 -77.025613 
L 464.534334 -78.737847 
L 463.330076 -80.450081 
L 461.864437 -82.162315 
L 460.120234 -83.874549 
L 458.090634 -85.586783 
L 455.781464 -87.299017 
L 453.212634 -89.011251 
L 450.418325 -90.723485 
L 447.445722 -92.435719 
L 444.352233 -94.147953 
L 441.201358 -95.860187 
L 438.057561 -97.572421 
L 434.980687 -99.284655 
L 432.020557 -100.996889 
L 429.21241 -102.709123 
L 426.573765 -104.421357 
L 424.103131 -106.133591 
L 421.780762 -107.845825 
L 419.571413 -109.558059 
L 417.428792 -111.270293 
L 415.301235 -112.982527 
L 413.137947 -114.694761 
L 410.895156 -116.406995 
L 408.541465 -118.119229 
L 406.061866 -119.831463 
L 403.459959 -121.543697 
L 400.758151 -123.255931 
L 397.995835 -124.968165 
L 395.225747 -126.680399 
L 392.508925 -128.392633 
L 389.908868 -130.104867 
L 387.485591 -131.817101 
L 385.290305 -133.529336 
L 383.36139 -135.24157 
L 381.722159 -136.953804 
L 380.38068 -138.666038 
L 379.331603 -140.378272 
L 378.559649 -142.090506 
L 378.044135 -143.80274 
L 377.763733 -145.514974 
L 377.700632 -147.227208 
L 377.84336 -148.939442 
L 378.187811 -150.651676 
L 378.736353 -152.36391 
L 379.49529 -154.076144 
L 380.471286 -155.788378 
L 381.6676 -157.500612 
L 383.080975 -159.212846 
L 384.699909 -160.92508 
L 386.504706 -162.637314 
L 388.46929 -164.349548 
L 390.564369 -166.061782 
L 392.761215 -167.774016 
L 395.035203 -169.48625 
L 397.368306 -171.198484 
L 399.750011 -172.910718 
L 402.176495 -174.622952 
L 404.648306 -176.335186 
L 407.167143 -178.04742 
L 409.732493 -179.759654 
L 412.338922 -181.471888 
L 414.97459 -183.184122 
L 417.621286 -184.896356 
L 420.255903 -186.60859 
L 422.852983 -188.320824 
L 425.387728 -190.033058 
L 427.838851 -191.745292 
L 430.190721 -193.457526 
L 432.434464 -195.16976 
L 434.567944 -196.881994 
L 436.594775 -198.594228 
L 438.522716 -200.306462 
L 440.361841 -202.018696 
L 442.122864 -203.73093 
L 443.815889 -205.443164 
L 445.449681 -207.155398 
L 447.031424 -208.867632 
L 448.566817 -210.579866 
L 450.060294 -212.2921 
L 451.515187 -214.004334 
L 452.933724 -215.716568 
L 454.316829 -217.428802 
L 455.663794 -219.141036 
L 456.971957 -220.85327 
L 458.236523 -222.565504 
L 459.450648 -224.277738 
L 460.605851 -225.989972 
L 461.692718 -227.702206 
L 462.70183 -229.41444 
L 463.624756 -231.126674 
L 464.454978 -232.838908 
L 465.188596 -234.551142 
L 465.824733 -236.263376 
L 466.365592 -237.97561 
L 466.816202 -239.687844 
L 467.183906 -241.400078 
L 467.477684 -243.112312 
L 467.707435 -244.824546 
L 468.323941 -244.824546 
L 468.323941 -244.824546 
L 468.323941 -243.112312 
L 468.323941 -241.400078 
L 468.323941 -239.687844 
L 468.323941 -237.97561 
L 468.323941 -236.263376 
L 468.323941 -234.551142 
L 468.323941 -232.838908 
L 468.323941 -231.126674 
L 468.323941 -229.41444 
L 468.323941 -227.702206 
L 468.323941 -225.989972 
L 468.323941 -224.277738 
L 468.323941 -222.565504 
L 468.323941 -220.85327 
L 468.323941 -219.141036 
L 468.323941 -217.428802 
L 468.323941 -215.716568 
L 468.323941 -214.004334 
L 468.323941 -212.2921 
L 468.323941 -210.579866 
L 468.323941 -208.867632 
L 468.323941 -207.155398 
L 468.323941 -205.443164 
L 468.323941 -203.73093 
L 468.323941 -202.018696 
L 468.323941 -200.306462 
L 468.323941 -198.594228 
L 468.323941 -196.881994 
L 468.323941 -195.16976 
L 468.323941 -193.457526 
L 468.323941 -191.745292 
L 468.323941 -190.033058 
L 468.323941 -188.320824 
L 468.323941 -186.60859 
L 468.323941 -184.896356 
L 468.323941 -183.184122 
L 468.323941 -181.471888 
L 468.323941 -179.759654 
L 468.323941 -178.04742 
L 468.323941 -176.335186 
L 468.323941 -174.622952 
L 468.323941 -172.910718 
L 468.323941 -171.198484 
L 468.323941 -169.48625 
L 468.323941 -167.774016 
L 468.323941 -166.061782 
L 468.323941 -164.349548 
L 468.323941 -162.637314 
L 468.323941 -160.92508 
L 468.323941 -159.212846 
L 468.323941 -157.500612 
L 468.323941 -155.788378 
L 468.323941 -154.076144 
L 468.323941 -152.36391 
L 468.323941 -150.651676 
L 468.323941 -148.939442 
L 468.323941 -147.227208 
L 468.323941 -145.514974 
L 468.323941 -143.80274 
L 468.323941 -142.090506 
L 468.323941 -140.378272 
L 468.323941 -138.666038 
L 468.323941 -136.953804 
L 468.323941 -135.24157 
L 468.323941 -133.529336 
L 468.323941 -131.817101 
L 468.323941 -130.104867 
L 468.323941 -128.392633 
L 468.323941 -126.680399 
L 468.323941 -124.968165 
L 468.323941 -123.255931 
L 468.323941 -121.543697 
L 468.323941 -119.831463 
L 468.323941 -118.119229 
L 468.323941 -116.406995 
L 468.323941 -114.694761 
L 468.323941 -112.982527 
L 468.323941 -111.270293 
L 468.323941 -109.558059 
L 468.323941 -107.845825 
L 468.323941 -106.133591 
L 468.323941 -104.421357 
L 468.323941 -102.709123 
L 468.323941 -100.996889 
L 468.323941 -99.284655 
L 468.323941 -97.572421 
L 468.323941 -95.860187 
L 468.323941 -94.147953 
L 468.323941 -92.435719 
L 468.323941 -90.723485 
L 468.323941 -89.011251 
L 468.323941 -87.299017 
L 468.323941 -85.586783 
L 468.323941 -83.874549 
L 468.323941 -82.162315 
L 468.323941 -80.450081 
L 468.323941 -78.737847 
L 468.323941 -77.025613 
L 468.323941 -75.313379 
z
"/>
    </defs>
    <g clip-path="url(#p15658c68ed)">
     <use xlink:href="#mc1f56c4631" x="0" y="378.799603" style="fill: #b4bba7"/>
    </g>
   </g>
   <g id="PolyCollection_4">
    <defs>
     <path id="m283a116543" d="M 491.903576 -78.726301 
L 490.979768 -78.726301 
L 490.979768 -80.102671 
L 490.979768 -81.479041 
L 490.979768 -82.855411 
L 490.979768 -84.231781 
L 490.979768 -85.608151 
L 490.979768 -86.984521 
L 490.979768 -88.360891 
L 490.979768 -89.73726 
L 490.979768 -91.11363 
L 490.979768 -92.49 
L 490.979768 -93.86637 
L 490.979768 -95.24274 
L 490.979768 -96.61911 
L 490.979768 -97.99548 
L 490.979768 -99.37185 
L 490.979768 -100.748219 
L 490.979768 -102.124589 
L 490.979768 -103.500959 
L 490.979768 -104.877329 
L 490.979768 -106.253699 
L 490.979768 -107.630069 
L 490.979768 -109.006439 
L 490.979768 -110.382809 
L 490.979768 -111.759179 
L 490.979768 -113.135548 
L 490.979768 -114.511918 
L 490.979768 -115.888288 
L 490.979768 -117.264658 
L 490.979768 -118.641028 
L 490.979768 -120.017398 
L 490.979768 -121.393768 
L 490.979768 -122.770138 
L 490.979768 -124.146507 
L 490.979768 -125.522877 
L 490.979768 -126.899247 
L 490.979768 -128.275617 
L 490.979768 -129.651987 
L 490.979768 -131.028357 
L 490.979768 -132.404727 
L 490.979768 -133.781097 
L 490.979768 -135.157466 
L 490.979768 -136.533836 
L 490.979768 -137.910206 
L 490.979768 -139.286576 
L 490.979768 -140.662946 
L 490.979768 -142.039316 
L 490.979768 -143.415686 
L 490.979768 -144.792056 
L 490.979768 -146.168425 
L 490.979768 -147.544795 
L 490.979768 -148.921165 
L 490.979768 -150.297535 
L 490.979768 -151.673905 
L 490.979768 -153.050275 
L 490.979768 -154.426645 
L 490.979768 -155.803015 
L 490.979768 -157.179384 
L 490.979768 -158.555754 
L 490.979768 -159.932124 
L 490.979768 -161.308494 
L 490.979768 -162.684864 
L 490.979768 -164.061234 
L 490.979768 -165.437604 
L 490.979768 -166.813974 
L 490.979768 -168.190344 
L 490.979768 -169.566713 
L 490.979768 -170.943083 
L 490.979768 -172.319453 
L 490.979768 -173.695823 
L 490.979768 -175.072193 
L 490.979768 -176.448563 
L 490.979768 -177.824933 
L 490.979768 -179.201303 
L 490.979768 -180.577672 
L 490.979768 -181.954042 
L 490.979768 -183.330412 
L 490.979768 -184.706782 
L 490.979768 -186.083152 
L 490.979768 -187.459522 
L 490.979768 -188.835892 
L 490.979768 -190.212262 
L 490.979768 -191.588631 
L 490.979768 -192.965001 
L 490.979768 -194.341371 
L 490.979768 -195.717741 
L 490.979768 -197.094111 
L 490.979768 -198.470481 
L 490.979768 -199.846851 
L 490.979768 -201.223221 
L 490.979768 -202.59959 
L 490.979768 -203.97596 
L 490.979768 -205.35233 
L 490.979768 -206.7287 
L 490.979768 -208.10507 
L 490.979768 -209.48144 
L 490.979768 -210.85781 
L 490.979768 -212.23418 
L 490.979768 -213.61055 
L 490.979768 -214.986919 
L 492.224822 -214.986919 
L 492.224822 -214.986919 
L 492.607492 -213.61055 
L 493.076437 -212.23418 
L 493.641054 -210.85781 
L 494.308883 -209.48144 
L 495.084747 -208.10507 
L 495.969929 -206.7287 
L 496.961474 -205.35233 
L 498.051674 -203.97596 
L 499.227855 -202.59959 
L 500.47249 -201.223221 
L 501.7637 -199.846851 
L 503.07612 -198.470481 
L 504.382106 -197.094111 
L 505.653201 -195.717741 
L 506.861764 -194.341371 
L 507.98264 -192.965001 
L 508.994761 -191.588631 
L 509.88254 -190.212262 
L 510.637 -188.835892 
L 511.256538 -187.459522 
L 511.747309 -186.083152 
L 512.123212 -184.706782 
L 512.405493 -183.330412 
L 512.622005 -181.954042 
L 512.806162 -180.577672 
L 512.995657 -179.201303 
L 513.230979 -177.824933 
L 513.553826 -176.448563 
L 514.005438 -175.072193 
L 514.624958 -173.695823 
L 515.447847 -172.319453 
L 516.504453 -170.943083 
L 517.818755 -169.566713 
L 519.407358 -168.190344 
L 521.278753 -166.813974 
L 523.432871 -165.437604 
L 525.86095 -164.061234 
L 528.545703 -162.684864 
L 531.461807 -161.308494 
L 534.576699 -159.932124 
L 537.851681 -158.555754 
L 541.24332 -157.179384 
L 544.705115 -155.803015 
L 548.189359 -154.426645 
L 551.649114 -153.050275 
L 555.040147 -151.673905 
L 558.322657 -150.297535 
L 561.462611 -148.921165 
L 564.432488 -147.544795 
L 567.211314 -146.168425 
L 569.783902 -144.792056 
L 572.139352 -143.415686 
L 574.268959 -142.039316 
L 576.163805 -140.662946 
L 577.812371 -139.286576 
L 579.198575 -137.910206 
L 580.300593 -136.533836 
L 581.090738 -135.157466 
L 581.536554 -133.781097 
L 581.603077 -132.404727 
L 581.256057 -131.028357 
L 580.465773 -129.651987 
L 579.210949 -128.275617 
L 577.482255 -126.899247 
L 575.284917 -125.522877 
L 572.640072 -124.146507 
L 569.584647 -122.770138 
L 566.169786 -121.393768 
L 562.457991 -120.017398 
L 558.519322 -118.641028 
L 554.427118 -117.264658 
L 550.253705 -115.888288 
L 546.066543 -114.511918 
L 541.925179 -113.135548 
L 537.879219 -111.759179 
L 533.967403 -110.382809 
L 530.217723 -109.006439 
L 526.648402 -107.630069 
L 523.26949 -106.253699 
L 520.084781 -104.877329 
L 517.093788 -103.500959 
L 514.293533 -102.124589 
L 511.679997 -100.748219 
L 509.249122 -99.37185 
L 506.997372 -97.99548 
L 504.921872 -96.61911 
L 503.020223 -95.24274 
L 501.290106 -93.86637 
L 499.728787 -92.49 
L 498.332627 -91.11363 
L 497.096689 -89.73726 
L 496.014482 -88.360891 
L 495.077882 -86.984521 
L 494.277223 -85.608151 
L 493.601527 -84.231781 
L 493.038849 -82.855411 
L 492.576682 -81.479041 
L 492.202383 -80.102671 
L 491.903576 -78.726301 
z
"/>
    </defs>
    <g clip-path="url(#p15658c68ed)">
     <use xlink:href="#m283a116543" x="0" y="378.799603" style="fill: #5c6d71"/>
    </g>
   </g>
   <g id="matplotlib.axis_3">
    <g id="xtick_3">
     <g id="line2d_14">
      <g>
       <use xlink:href="#m9362e149c5" x="423.012286" y="311.799603" style="stroke: #000000; stroke-width: 0.75"/>
      </g>
     </g>
     <g id="text_10">
      <text style="font: 15px &quot;Suisse Int&apos;l&quot;, sans-serif; text-anchor: middle" x="423.012286" y="332.674603" transform="rotate(-0 423.012286 332.674603)">top</text>
     </g>
    </g>
    <g id="xtick_4">
     <g id="line2d_15">
      <g>
       <use xlink:href="#m9362e149c5" x="536.291422" y="311.799603" style="stroke: #000000; stroke-width: 0.75"/>
      </g>
     </g>
     <g id="text_11">
      <text style="font: 15px &quot;Suisse Int&apos;l&quot;, sans-serif; text-anchor: middle" x="536.291422" y="332.674603" transform="rotate(-0 536.291422 332.674603)">middle</text>
     </g>
    </g>
    <g id="text_12">
     <text style="font: 500 15px &quot;Suisse Int&apos;l&quot;, sans-serif; text-anchor: middle" x="479.651854" y="356.174603" transform="rotate(-0 479.651854 356.174603)">Position in tube</text>
    </g>
   </g>
   <g id="matplotlib.axis_4">
    <g id="ytick_5">
     <g id="line2d_16">
      <g>
       <use xlink:href="#ma3a741f646" x="369.544534" y="284.908915" style="stroke: #000000; stroke-width: 0.75"/>
      </g>
     </g>
     <g id="text_13">
      <text style="font: 14.5px &quot;Suisse Int&apos;l Mono&quot;; text-anchor: end" x="359.544534" y="290.165165" transform="rotate(-0 359.544534 290.165165)">0</text>
     </g>
    </g>
    <g id="ytick_6">
     <g id="line2d_17">
      <g>
       <use xlink:href="#ma3a741f646" x="369.544534" y="251.822212" style="stroke: #000000; stroke-width: 0.75"/>
      </g>
     </g>
     <g id="text_14">
      <text style="font: 14.5px &quot;Suisse Int&apos;l Mono&quot;; text-anchor: end" x="359.544534" y="257.078462" transform="rotate(-0 359.544534 257.078462)">20</text>
     </g>
    </g>
    <g id="ytick_7">
     <g id="line2d_18">
      <g>
       <use xlink:href="#ma3a741f646" x="369.544534" y="218.735508" style="stroke: #000000; stroke-width: 0.75"/>
      </g>
     </g>
     <g id="text_15">
      <text style="font: 14.5px &quot;Suisse Int&apos;l Mono&quot;; text-anchor: end" x="359.544534" y="223.991758" transform="rotate(-0 359.544534 223.991758)">40</text>
     </g>
    </g>
    <g id="ytick_8">
     <g id="line2d_19">
      <g>
       <use xlink:href="#ma3a741f646" x="369.544534" y="185.648805" style="stroke: #000000; stroke-width: 0.75"/>
      </g>
     </g>
     <g id="text_16">
      <text style="font: 14.5px &quot;Suisse Int&apos;l Mono&quot;; text-anchor: end" x="359.544534" y="190.905055" transform="rotate(-0 359.544534 190.905055)">60</text>
     </g>
    </g>
    <g id="ytick_9">
     <g id="line2d_20">
      <g>
       <use xlink:href="#ma3a741f646" x="369.544534" y="152.562102" style="stroke: #000000; stroke-width: 0.75"/>
      </g>
     </g>
     <g id="text_17">
      <text style="font: 14.5px &quot;Suisse Int&apos;l Mono&quot;; text-anchor: end" x="359.544534" y="157.818352" transform="rotate(-0 359.544534 157.818352)">80</text>
     </g>
    </g>
    <g id="ytick_10">
     <g id="line2d_21">
      <g>
       <use xlink:href="#ma3a741f646" x="369.544534" y="119.475399" style="stroke: #000000; stroke-width: 0.75"/>
      </g>
     </g>
     <g id="text_18">
      <text style="font: 14.5px &quot;Suisse Int&apos;l Mono&quot;; text-anchor: end" x="359.544534" y="124.731649" transform="rotate(-0 359.544534 124.731649)">100</text>
     </g>
    </g>
    <g id="text_19">
     <text style="font: 500 15px &quot;Suisse Int&apos;l&quot;, sans-serif; text-anchor: middle" x="318.821253" y="199.568987" transform="rotate(-90 318.821253 199.568987)">Mean curvilinear speed</text>
    </g>
   </g>
   <g id="line2d_22">
    <path d="M 465.823941 280.049536 
L 465.823941 157.411745 
" clip-path="url(#p15658c68ed)" style="fill: none; stroke: #3e3e3e; stroke-width: 1.666667; stroke-linecap: round"/>
   </g>
   <g id="line2d_23">
    <path d="M 465.823941 248.205364 
L 465.823941 206.740253 
" clip-path="url(#p15658c68ed)" style="fill: none; stroke: #3e3e3e; stroke-width: 5; stroke-linecap: round"/>
   </g>
   <g id="line2d_24">
    <path d="M 465.823941 230.027763 
" clip-path="url(#p15658c68ed)" style="fill: none; stroke: #3e3e3e; stroke-width: 2; stroke-linecap: round"/>
    <g clip-path="url(#p15658c68ed)">
     <use xlink:href="#m5eb57ac861" x="465.823941" y="230.027763" style="fill: #ffffff; stroke: #ffffff"/>
    </g>
   </g>
   <g id="line2d_25">
    <path d="M 493.479768 278.439381 
L 493.479768 198.584686 
" clip-path="url(#p15658c68ed)" style="fill: none; stroke: #3e3e3e; stroke-width: 1.666667; stroke-linecap: round"/>
   </g>
   <g id="line2d_26">
    <path d="M 493.479768 252.360425 
L 493.479768 229.040223 
" clip-path="url(#p15658c68ed)" style="fill: none; stroke: #3e3e3e; stroke-width: 5; stroke-linecap: round"/>
   </g>
   <g id="line2d_27">
    <path d="M 493.479768 239.487329 
" clip-path="url(#p15658c68ed)" style="fill: none; stroke: #3e3e3e; stroke-width: 2; stroke-linecap: round"/>
    <g clip-path="url(#p15658c68ed)">
     <use xlink:href="#m5eb57ac861" x="493.479768" y="239.487329" style="fill: #ffffff; stroke: #ffffff"/>
    </g>
   </g>
   <g id="line2d_28">
    <path d="M 456.996027 95.651749 
L 502.307682 95.651749 
" clip-path="url(#p15658c68ed)" style="fill: none; stroke: #000000; stroke-width: 2; stroke-linecap: round"/>
   </g>
   <g id="patch_6">
    <path d="M 369.544534 311.799603 
L 369.544534 87.33837 
" style="fill: none; stroke: #000000; stroke-width: 0.75; stroke-linejoin: miter; stroke-linecap: square"/>
   </g>
   <g id="patch_7">
    <path d="M 369.544534 311.799603 
L 589.759174 311.799603 
" style="fill: none; stroke: #000000; stroke-width: 0.75; stroke-linejoin: miter; stroke-linecap: square"/>
   </g>
   <g id="text_20">
    <text style="font: 20px &quot;Suisse Int&apos;l&quot;, sans-serif; text-anchor: middle" x="479.651854" y="95.651749" transform="rotate(-0 479.651854 95.651749)">*</text>
   </g>
  </g>
  <g id="axes_3">
   <g id="patch_8">
    <path d="M 648.410631 311.799603 
L 868.625271 311.799603 
L 868.625271 87.33837 
L 648.410631 87.33837 
L 648.410631 311.799603 
z
" style="fill: none"/>
   </g>
   <g id="PolyCollection_5">
    <defs>
     <path id="me5a34ab5e9" d="M 747.190038 -75.313379 
L 745.198218 -75.313379 
L 744.148367 -77.014127 
L 742.665971 -78.714875 
L 740.634559 -80.415623 
L 737.933517 -82.116371 
L 734.449907 -83.817118 
L 730.093699 -85.517866 
L 724.815148 -87.218614 
L 718.622179 -88.919362 
L 711.595093 -90.62011 
L 703.895661 -92.320858 
L 695.76804 -94.021606 
L 687.529843 -95.722354 
L 679.553085 -97.423101 
L 672.236357 -99.123849 
L 665.971094 -100.824597 
L 661.105979 -102.525345 
L 657.914038 -104.226093 
L 656.566729 -105.926841 
L 657.118408 -107.627589 
L 659.503046 -109.328337 
L 663.543348 -111.029085 
L 668.970726 -112.729832 
L 675.453159 -114.43058 
L 682.627159 -116.131328 
L 690.129787 -117.832076 
L 697.627043 -119.532824 
L 704.83581 -121.233572 
L 711.537743 -122.93432 
L 717.584711 -124.635068 
L 722.896573 -126.335815 
L 727.452923 -128.036563 
L 731.280884 -129.737311 
L 734.441141 -131.438059 
L 737.014157 -133.138807 
L 739.088061 -134.839555 
L 740.749123 -136.540303 
L 742.075224 -138.241051 
L 743.132211 -139.941799 
L 743.972734 -141.642546 
L 744.636952 -143.343294 
L 745.154438 -145.044042 
L 745.54665 -146.74479 
L 745.82948 -148.445538 
L 746.015511 -150.146286 
L 746.115766 -151.847034 
L 746.140893 -153.547782 
L 746.101761 -155.248529 
L 746.00958 -156.949277 
L 745.875622 -158.650025 
L 745.710715 -160.350773 
L 745.524642 -162.051521 
L 745.325616 -163.752269 
L 745.119952 -165.453017 
L 744.912047 -167.153765 
L 744.704695 -168.854513 
L 744.499676 -170.55526 
L 744.298515 -172.256008 
L 744.103225 -173.956756 
L 743.916843 -175.657504 
L 743.743615 -177.358252 
L 743.588748 -179.059 
L 743.457753 -180.759748 
L 743.355522 -182.460496 
L 743.285331 -184.161243 
L 743.248041 -185.861991 
L 743.241683 -187.562739 
L 743.261593 -189.263487 
L 743.301083 -190.964235 
L 743.352561 -192.664983 
L 743.408861 -194.365731 
L 743.464515 -196.066479 
L 743.516687 -197.767227 
L 743.565567 -199.467974 
L 743.614137 -201.168722 
L 743.667357 -202.86947 
L 743.73096 -204.570218 
L 743.810132 -206.270966 
L 743.908374 -207.971714 
L 744.026813 -209.672462 
L 744.164091 -211.37321 
L 744.316837 -213.073958 
L 744.480564 -214.774705 
L 744.650717 -216.475453 
L 744.823608 -218.176201 
L 744.996969 -219.876949 
L 745.170027 -221.577697 
L 745.343124 -223.278445 
L 745.517021 -224.979193 
L 745.69214 -226.679941 
L 745.867953 -228.380688 
L 746.042691 -230.081436 
L 746.213428 -231.782184 
L 746.37648 -233.482932 
L 746.527998 -235.18368 
L 746.664585 -236.884428 
L 746.783791 -238.585176 
L 746.884393 -240.285924 
L 746.966436 -241.986672 
L 747.031075 -243.687419 
L 747.190038 -243.687419 
L 747.190038 -243.687419 
L 747.190038 -241.986672 
L 747.190038 -240.285924 
L 747.190038 -238.585176 
L 747.190038 -236.884428 
L 747.190038 -235.18368 
L 747.190038 -233.482932 
L 747.190038 -231.782184 
L 747.190038 -230.081436 
L 747.190038 -228.380688 
L 747.190038 -226.679941 
L 747.190038 -224.979193 
L 747.190038 -223.278445 
L 747.190038 -221.577697 
L 747.190038 -219.876949 
L 747.190038 -218.176201 
L 747.190038 -216.475453 
L 747.190038 -214.774705 
L 747.190038 -213.073958 
L 747.190038 -211.37321 
L 747.190038 -209.672462 
L 747.190038 -207.971714 
L 747.190038 -206.270966 
L 747.190038 -204.570218 
L 747.190038 -202.86947 
L 747.190038 -201.168722 
L 747.190038 -199.467974 
L 747.190038 -197.767227 
L 747.190038 -196.066479 
L 747.190038 -194.365731 
L 747.190038 -192.664983 
L 747.190038 -190.964235 
L 747.190038 -189.263487 
L 747.190038 -187.562739 
L 747.190038 -185.861991 
L 747.190038 -184.161243 
L 747.190038 -182.460496 
L 747.190038 -180.759748 
L 747.190038 -179.059 
L 747.190038 -177.358252 
L 747.190038 -175.657504 
L 747.190038 -173.956756 
L 747.190038 -172.256008 
L 747.190038 -170.55526 
L 747.190038 -168.854513 
L 747.190038 -167.153765 
L 747.190038 -165.453017 
L 747.190038 -163.752269 
L 747.190038 -162.051521 
L 747.190038 -160.350773 
L 747.190038 -158.650025 
L 747.190038 -156.949277 
L 747.190038 -155.248529 
L 747.190038 -153.547782 
L 747.190038 -151.847034 
L 747.190038 -150.146286 
L 747.190038 -148.445538 
L 747.190038 -146.74479 
L 747.190038 -145.044042 
L 747.190038 -143.343294 
L 747.190038 -141.642546 
L 747.190038 -139.941799 
L 747.190038 -138.241051 
L 747.190038 -136.540303 
L 747.190038 -134.839555 
L 747.190038 -133.138807 
L 747.190038 -131.438059 
L 747.190038 -129.737311 
L 747.190038 -128.036563 
L 747.190038 -126.335815 
L 747.190038 -124.635068 
L 747.190038 -122.93432 
L 747.190038 -121.233572 
L 747.190038 -119.532824 
L 747.190038 -117.832076 
L 747.190038 -116.131328 
L 747.190038 -114.43058 
L 747.190038 -112.729832 
L 747.190038 -111.029085 
L 747.190038 -109.328337 
L 747.190038 -107.627589 
L 747.190038 -105.926841 
L 747.190038 -104.226093 
L 747.190038 -102.525345 
L 747.190038 -100.824597 
L 747.190038 -99.123849 
L 747.190038 -97.423101 
L 747.190038 -95.722354 
L 747.190038 -94.021606 
L 747.190038 -92.320858 
L 747.190038 -90.62011 
L 747.190038 -88.919362 
L 747.190038 -87.218614 
L 747.190038 -85.517866 
L 747.190038 -83.817118 
L 747.190038 -82.116371 
L 747.190038 -80.415623 
L 747.190038 -78.714875 
L 747.190038 -77.014127 
L 747.190038 -75.313379 
z
"/>
    </defs>
    <g clip-path="url(#p431bdcc530)">
     <use xlink:href="#me5a34ab5e9" x="0" y="378.799603" style="fill: #b4bba7"/>
    </g>
   </g>
   <g id="PolyCollection_6">
    <defs>
     <path id="m3cb4c5d74f" d="M 773.069198 -82.905363 
L 769.845865 -82.905363 
L 769.845865 -84.136882 
L 769.845865 -85.3684 
L 769.845865 -86.599918 
L 769.845865 -87.831436 
L 769.845865 -89.062954 
L 769.845865 -90.294473 
L 769.845865 -91.525991 
L 769.845865 -92.757509 
L 769.845865 -93.989027 
L 769.845865 -95.220545 
L 769.845865 -96.452063 
L 769.845865 -97.683582 
L 769.845865 -98.9151 
L 769.845865 -100.146618 
L 769.845865 -101.378136 
L 769.845865 -102.609654 
L 769.845865 -103.841172 
L 769.845865 -105.072691 
L 769.845865 -106.304209 
L 769.845865 -107.535727 
L 769.845865 -108.767245 
L 769.845865 -109.998763 
L 769.845865 -111.230281 
L 769.845865 -112.4618 
L 769.845865 -113.693318 
L 769.845865 -114.924836 
L 769.845865 -116.156354 
L 769.845865 -117.387872 
L 769.845865 -118.619391 
L 769.845865 -119.850909 
L 769.845865 -121.082427 
L 769.845865 -122.313945 
L 769.845865 -123.545463 
L 769.845865 -124.776981 
L 769.845865 -126.0085 
L 769.845865 -127.240018 
L 769.845865 -128.471536 
L 769.845865 -129.703054 
L 769.845865 -130.934572 
L 769.845865 -132.16609 
L 769.845865 -133.397609 
L 769.845865 -134.629127 
L 769.845865 -135.860645 
L 769.845865 -137.092163 
L 769.845865 -138.323681 
L 769.845865 -139.5552 
L 769.845865 -140.786718 
L 769.845865 -142.018236 
L 769.845865 -143.249754 
L 769.845865 -144.481272 
L 769.845865 -145.71279 
L 769.845865 -146.944309 
L 769.845865 -148.175827 
L 769.845865 -149.407345 
L 769.845865 -150.638863 
L 769.845865 -151.870381 
L 769.845865 -153.101899 
L 769.845865 -154.333418 
L 769.845865 -155.564936 
L 769.845865 -156.796454 
L 769.845865 -158.027972 
L 769.845865 -159.25949 
L 769.845865 -160.491008 
L 769.845865 -161.722527 
L 769.845865 -162.954045 
L 769.845865 -164.185563 
L 769.845865 -165.417081 
L 769.845865 -166.648599 
L 769.845865 -167.880118 
L 769.845865 -169.111636 
L 769.845865 -170.343154 
L 769.845865 -171.574672 
L 769.845865 -172.80619 
L 769.845865 -174.037708 
L 769.845865 -175.269227 
L 769.845865 -176.500745 
L 769.845865 -177.732263 
L 769.845865 -178.963781 
L 769.845865 -180.195299 
L 769.845865 -181.426817 
L 769.845865 -182.658336 
L 769.845865 -183.889854 
L 769.845865 -185.121372 
L 769.845865 -186.35289 
L 769.845865 -187.584408 
L 769.845865 -188.815927 
L 769.845865 -190.047445 
L 769.845865 -191.278963 
L 769.845865 -192.510481 
L 769.845865 -193.741999 
L 769.845865 -194.973517 
L 769.845865 -196.205036 
L 769.845865 -197.436554 
L 769.845865 -198.668072 
L 769.845865 -199.89959 
L 769.845865 -201.131108 
L 769.845865 -202.362626 
L 769.845865 -203.594145 
L 769.845865 -204.825663 
L 770.266182 -204.825663 
L 770.266182 -204.825663 
L 770.426754 -203.594145 
L 770.626087 -202.362626 
L 770.864347 -201.131108 
L 771.137972 -199.89959 
L 771.439002 -198.668072 
L 771.754916 -197.436554 
L 772.069133 -196.205036 
L 772.362243 -194.973517 
L 772.613887 -193.741999 
L 772.805057 -192.510481 
L 772.92045 -191.278963 
L 772.950493 -190.047445 
L 772.892654 -188.815927 
L 772.751794 -187.584408 
L 772.539492 -186.35289 
L 772.272473 -185.121372 
L 771.970437 -183.889854 
L 771.653677 -182.658336 
L 771.340877 -181.426817 
L 771.047426 -180.195299 
L 770.784414 -178.963781 
L 770.558354 -177.732263 
L 770.371529 -176.500745 
L 770.222785 -175.269227 
L 770.108529 -174.037708 
L 770.023762 -172.80619 
L 769.962967 -171.574672 
L 769.920791 -170.343154 
L 769.892482 -169.111636 
L 769.874109 -167.880118 
L 769.862613 -166.648599 
L 769.855758 -165.417081 
L 769.852024 -164.185563 
L 769.850492 -162.954045 
L 769.850762 -161.722527 
L 769.852906 -160.491008 
L 769.85748 -159.25949 
L 769.865577 -158.027972 
L 769.878935 -156.796454 
L 769.900049 -155.564936 
L 769.932279 -154.333418 
L 769.979892 -153.101899 
L 770.047991 -151.870381 
L 770.14229 -150.638863 
L 770.268682 -149.407345 
L 770.432631 -148.175827 
L 770.638424 -146.944309 
L 770.888434 -145.71279 
L 771.182564 -144.481272 
L 771.518098 -143.249754 
L 771.890176 -142.018236 
L 772.293002 -140.786718 
L 772.721804 -139.5552 
L 773.175316 -138.323681 
L 773.658442 -137.092163 
L 774.184572 -135.860645 
L 774.777019 -134.629127 
L 775.46914 -133.397609 
L 776.302932 -132.16609 
L 777.32623 -130.934572 
L 778.588949 -129.703054 
L 780.139093 -128.471536 
L 782.019331 -127.240018 
L 784.264826 -126.0085 
L 786.902655 -124.776981 
L 789.952696 -123.545463 
L 793.429299 -122.313945 
L 797.342681 -121.082427 
L 801.698809 -119.850909 
L 806.496689 -118.619391 
L 811.722545 -117.387872 
L 817.341133 -116.156354 
L 823.285416 -114.924836 
L 829.4466 -113.693318 
L 835.667112 -112.4618 
L 841.739031 -111.230281 
L 847.40998 -109.998763 
L 852.397297 -108.767245 
L 856.409848 -107.535727 
L 859.175278 -106.304209 
L 860.469174 -105.072691 
L 860.141926 -103.841172 
L 858.139059 -102.609654 
L 854.511675 -101.378136 
L 849.415119 -100.146618 
L 843.095858 -98.9151 
L 835.868385 -97.683582 
L 828.085492 -96.452063 
L 820.106091 -95.220545 
L 812.264863 -93.989027 
L 804.847418 -92.757509 
L 798.07343 -91.525991 
L 792.088824 -90.294473 
L 786.966619 -89.062954 
L 782.714901 -87.831436 
L 779.289662 -86.599918 
L 776.610003 -85.3684 
L 774.573392 -84.136882 
L 773.069198 -82.905363 
z
"/>
    </defs>
    <g clip-path="url(#p431bdcc530)">
     <use xlink:href="#m3cb4c5d74f" x="0" y="378.799603" style="fill: #5c6d71"/>
    </g>
   </g>
   <g id="patch_9">
    <path d="M 701.878383 292.004588 
L 701.878383 292.004588 
L 701.878383 292.004588 
L 701.878383 292.004588 
z
" clip-path="url(#p431bdcc530)" style="fill: #b4bba7"/>
   </g>
   <g id="patch_10">
    <path d="M 701.878383 292.004588 
L 701.878383 292.004588 
L 701.878383 292.004588 
L 701.878383 292.004588 
z
" clip-path="url(#p431bdcc530)" style="fill: #5c6d71"/>
   </g>
   <g id="matplotlib.axis_5">
    <g id="xtick_5">
     <g id="line2d_29">
      <g>
       <use xlink:href="#m9362e149c5" x="701.878383" y="311.799603" style="stroke: #000000; stroke-width: 0.75"/>
      </g>
     </g>
     <g id="text_21">
      <text style="font: 15px &quot;Suisse Int&apos;l&quot;, sans-serif; text-anchor: middle" x="701.878383" y="332.674603" transform="rotate(-0 701.878383 332.674603)">top</text>
     </g>
    </g>
    <g id="xtick_6">
     <g id="line2d_30">
      <g>
       <use xlink:href="#m9362e149c5" x="815.157519" y="311.799603" style="stroke: #000000; stroke-width: 0.75"/>
      </g>
     </g>
     <g id="text_22">
      <text style="font: 15px &quot;Suisse Int&apos;l&quot;, sans-serif; text-anchor: middle" x="815.157519" y="332.674603" transform="rotate(-0 815.157519 332.674603)">middle</text>
     </g>
    </g>
    <g id="text_23">
     <text style="font: 500 15px &quot;Suisse Int&apos;l&quot;, sans-serif; text-anchor: middle" x="758.517951" y="356.174603" transform="rotate(-0 758.517951 356.174603)">Position in tube</text>
    </g>
   </g>
   <g id="matplotlib.axis_6">
    <g id="ytick_11">
     <g id="line2d_31">
      <g>
       <use xlink:href="#ma3a741f646" x="648.410631" y="292.004588" style="stroke: #000000; stroke-width: 0.75"/>
      </g>
     </g>
     <g id="text_24">
      <text style="font: 14.5px &quot;Suisse Int&apos;l Mono&quot;; text-anchor: end" x="638.410631" y="297.260838" transform="rotate(-0 638.410631 297.260838)">0</text>
     </g>
    </g>
    <g id="ytick_12">
     <g id="line2d_32">
      <g>
       <use xlink:href="#ma3a741f646" x="648.410631" y="237.508623" style="stroke: #000000; stroke-width: 0.75"/>
      </g>
     </g>
     <g id="text_25">
      <text style="font: 14.5px &quot;Suisse Int&apos;l Mono&quot;; text-anchor: end" x="638.410631" y="242.764873" transform="rotate(-0 638.410631 242.764873)">10</text>
     </g>
    </g>
    <g id="ytick_13">
     <g id="line2d_33">
      <g>
       <use xlink:href="#ma3a741f646" x="648.410631" y="183.012658" style="stroke: #000000; stroke-width: 0.75"/>
      </g>
     </g>
     <g id="text_26">
      <text style="font: 14.5px &quot;Suisse Int&apos;l Mono&quot;; text-anchor: end" x="638.410631" y="188.268908" transform="rotate(-0 638.410631 188.268908)">20</text>
     </g>
    </g>
    <g id="ytick_14">
     <g id="line2d_34">
      <g>
       <use xlink:href="#ma3a741f646" x="648.410631" y="128.516693" style="stroke: #000000; stroke-width: 0.75"/>
      </g>
     </g>
     <g id="text_27">
      <text style="font: 14.5px &quot;Suisse Int&apos;l Mono&quot;; text-anchor: end" x="638.410631" y="133.772943" transform="rotate(-0 638.410631 133.772943)">30</text>
     </g>
    </g>
    <g id="text_28">
     <text style="font: 500 15px &quot;Suisse Int&apos;l&quot;, sans-serif; text-anchor: middle" x="606.767506" y="199.568987" transform="rotate(-90 606.767506 199.568987)">Mean angular speed</text>
    </g>
   </g>
   <g id="line2d_35">
    <path d="M 744.690038 284.053955 
L 744.690038 253.621342 
" clip-path="url(#p431bdcc530)" style="fill: none; stroke: #3e3e3e; stroke-width: 1.666667; stroke-linecap: round"/>
   </g>
   <g id="line2d_36">
    <path d="M 744.690038 276.582655 
L 744.690038 265.905379 
" clip-path="url(#p431bdcc530)" style="fill: none; stroke: #3e3e3e; stroke-width: 5; stroke-linecap: round"/>
   </g>
   <g id="line2d_37">
    <path d="M 744.690038 271.214093 
" clip-path="url(#p431bdcc530)" style="fill: none; stroke: #3e3e3e; stroke-width: 2; stroke-linecap: round"/>
    <g clip-path="url(#p431bdcc530)">
     <use xlink:href="#m5eb57ac861" x="744.690038" y="271.214093" style="fill: #ffffff; stroke: #ffffff"/>
    </g>
   </g>
   <g id="line2d_38">
    <path d="M 772.345865 281.31203 
L 772.345865 257.108841 
" clip-path="url(#p431bdcc530)" style="fill: none; stroke: #3e3e3e; stroke-width: 1.666667; stroke-linecap: round"/>
   </g>
   <g id="line2d_39">
    <path d="M 772.345865 276.312109 
L 772.345865 267.542397 
" clip-path="url(#p431bdcc530)" style="fill: none; stroke: #3e3e3e; stroke-width: 5; stroke-linecap: round"/>
   </g>
   <g id="line2d_40">
    <path d="M 772.345865 273.308222 
" clip-path="url(#p431bdcc530)" style="fill: none; stroke: #3e3e3e; stroke-width: 2; stroke-linecap: round"/>
    <g clip-path="url(#p431bdcc530)">
     <use xlink:href="#m5eb57ac861" x="772.345865" y="273.308222" style="fill: #ffffff; stroke: #ffffff"/>
    </g>
   </g>
   <g id="line2d_41">
    <path d="M 735.862124 95.651749 
L 781.173778 95.651749 
" clip-path="url(#p431bdcc530)" style="fill: none; stroke: #000000; stroke-width: 2; stroke-linecap: round"/>
   </g>
   <g id="patch_11">
    <path d="M 648.410631 311.799603 
L 648.410631 87.33837 
" style="fill: none; stroke: #000000; stroke-width: 0.75; stroke-linejoin: miter; stroke-linecap: square"/>
   </g>
   <g id="patch_12">
    <path d="M 648.410631 311.799603 
L 868.625271 311.799603 
" style="fill: none; stroke: #000000; stroke-width: 0.75; stroke-linejoin: miter; stroke-linecap: square"/>
   </g>
   <g id="text_29">
    <text style="font: 16px &quot;Suisse Int&apos;l&quot;, sans-serif; text-anchor: middle" x="758.517951" y="85.834107" transform="rotate(-0 758.517951 85.834107)">ns</text>
   </g>
   <g id="legend_1">
    <g id="text_30">
     <text style="font: 600 16px &quot;Suisse Int&apos;l&quot;, sans-serif; text-anchor: start" x="809.522163" y="31.6" transform="rotate(-0 809.522163 31.6)">Position_in_tube</text>
    </g>
    <g id="line2d_42">
     <path d="M 809.522163 41.9 
L 927.022163 41.9 
" style="fill: none; stroke: #bab0a8; stroke-width: 1.5; stroke-linecap: round"/>
    </g>
    <g id="patch_13">
     <path d="M 809.522163 64.775 
L 824.522163 64.775 
L 824.522163 49.4 
L 809.522163 49.4 
z
" style="fill: #b4bba7"/>
    </g>
    <g id="text_31">
     <text style="font: 15px &quot;Suisse Int&apos;l&quot;, sans-serif; text-anchor: start" x="830.522163" y="62.15" transform="rotate(-0 830.522163 62.15)">Top | n=105</text>
    </g>
    <g id="patch_14">
     <path d="M 809.522163 87.65 
L 824.522163 87.65 
L 824.522163 72.275 
L 809.522163 72.275 
z
" style="fill: #5c6d71"/>
    </g>
    <g id="text_32">
     <text style="font: 15px &quot;Suisse Int&apos;l&quot;, sans-serif; text-anchor: start" x="830.522163" y="85.025" transform="rotate(-0 830.522163 85.025)">Middle | n=40</text>
    </g>
   </g>
  </g>
 </g>
 <defs>
  <clipPath id="p27c211cd4a">
   <rect x="81.598281" y="87.33837" width="220.21464" height="224.461233"/>
  </clipPath>
  <clipPath id="p15658c68ed">
   <rect x="369.544534" y="87.33837" width="220.21464" height="224.461233"/>
  </clipPath>
  <clipPath id="p431bdcc530">
   <rect x="648.410631" y="87.33837" width="220.21464" height="224.461233"/>
  </clipPath>
 </defs>
</svg>
