<?xml version="1.0" encoding="utf-8" standalone="no"?>
<!DOCTYPE svg PUBLIC "-//W3C//DTD SVG 1.1//EN"
  "http://www.w3.org/Graphics/SVG/1.1/DTD/svg11.dtd">
<svg xmlns:xlink="http://www.w3.org/1999/xlink" width="481.701281pt" height="379.113736pt" viewBox="0 0 481.701281 379.113736" xmlns="http://www.w3.org/2000/svg" version="1.1">
 <metadata>
  <rdf:RDF xmlns:dc="http://purl.org/dc/elements/1.1/" xmlns:cc="http://creativecommons.org/ns#" xmlns:rdf="http://www.w3.org/1999/02/22-rdf-syntax-ns#">
   <cc:Work>
    <dc:type rdf:resource="http://purl.org/dc/dcmitype/StillImage"/>
    <dc:date>2024-07-31T16:24:01.363939</dc:date>
    <dc:format>image/svg+xml</dc:format>
    <dc:creator>
     <cc:Agent>
      <dc:title>Matplotlib v3.8.4, https://matplotlib.org/</dc:title>
     </cc:Agent>
    </dc:creator>
   </cc:Work>
  </rdf:RDF>
 </metadata>
 <defs>
  <style type="text/css">*{stroke-linejoin: round; stroke-linecap: butt}</style>
 </defs>
 <g id="figure_1">
  <g id="patch_1">
   <path d="M 0 379.113736 
L 481.701281 379.113736 
L 481.701281 0 
L 0 0 
L 0 379.113736 
z
" style="fill: none"/>
  </g>
  <g id="axes_1">
   <g id="patch_2">
    <path d="M 81.598281 312.563736 
L 305.188281 312.563736 
L 305.188281 80.895165 
L 81.598281 80.895165 
L 81.598281 312.563736 
z
" style="fill: none"/>
   </g>
   <g id="PathCollection_1">
    <defs>
     <path id="C0_0_24f73ab168" d="M 0 3 
C 0.795609 3 1.55874 2.683901 2.12132 2.12132 
C 2.683901 1.55874 3 0.795609 3 -0 
C 3 -0.795609 2.683901 -1.55874 2.12132 -2.12132 
C 1.55874 -2.683901 0.795609 -3 0 -3 
C -0.795609 -3 -1.55874 -2.683901 -2.12132 -2.12132 
C -2.683901 -1.55874 -3 -0.795609 -3 0 
C -3 0.795609 -2.683901 1.55874 -2.12132 2.12132 
C -1.55874 2.683901 -0.795609 3 0 3 
z
"/>
    </defs>
    <g clip-path="url(#p67f11f46cb)">
     <use xlink:href="#C0_0_24f73ab168" x="130.560058" y="178.507776" style="fill: #f28360; stroke: #ffffff; stroke-width: 0.48"/>
    </g>
    <g clip-path="url(#p67f11f46cb)">
     <use xlink:href="#C0_0_24f73ab168" x="152.144433" y="193.68638" style="fill: #f28360; stroke: #ffffff; stroke-width: 0.48"/>
    </g>
    <g clip-path="url(#p67f11f46cb)">
     <use xlink:href="#C0_0_24f73ab168" x="123.660589" y="194.354676" style="fill: #f28360; stroke: #ffffff; stroke-width: 0.48"/>
    </g>
    <g clip-path="url(#p67f11f46cb)">
     <use xlink:href="#C0_0_24f73ab168" x="137.516648" y="202.495886" style="fill: #f28360; stroke: #ffffff; stroke-width: 0.48"/>
    </g>
    <g clip-path="url(#p67f11f46cb)">
     <use xlink:href="#C0_0_24f73ab168" x="121.1679" y="125.723017" style="fill: #f28360; stroke: #ffffff; stroke-width: 0.48"/>
    </g>
    <g clip-path="url(#p67f11f46cb)">
     <use xlink:href="#C0_0_24f73ab168" x="132.441884" y="229.827286" style="fill: #f28360; stroke: #ffffff; stroke-width: 0.48"/>
    </g>
    <g clip-path="url(#p67f11f46cb)">
     <use xlink:href="#C0_0_24f73ab168" x="126.112124" y="153.390153" style="fill: #f28360; stroke: #ffffff; stroke-width: 0.48"/>
    </g>
    <g clip-path="url(#p67f11f46cb)">
     <use xlink:href="#C0_0_24f73ab168" x="139.839775" y="174.912488" style="fill: #f28360; stroke: #ffffff; stroke-width: 0.48"/>
    </g>
    <g clip-path="url(#p67f11f46cb)">
     <use xlink:href="#C0_0_24f73ab168" x="132.267161" y="167.621341" style="fill: #f28360; stroke: #ffffff; stroke-width: 0.48"/>
    </g>
    <g clip-path="url(#p67f11f46cb)">
     <use xlink:href="#C0_0_24f73ab168" x="139.7962" y="222.673415" style="fill: #f28360; stroke: #ffffff; stroke-width: 0.48"/>
    </g>
    <g clip-path="url(#p67f11f46cb)">
     <use xlink:href="#C0_0_24f73ab168" x="140.406462" y="173.300702" style="fill: #f28360; stroke: #ffffff; stroke-width: 0.48"/>
    </g>
    <g clip-path="url(#p67f11f46cb)">
     <use xlink:href="#C0_0_24f73ab168" x="136.400884" y="205.651484" style="fill: #f28360; stroke: #ffffff; stroke-width: 0.48"/>
    </g>
    <g clip-path="url(#p67f11f46cb)">
     <use xlink:href="#C0_0_24f73ab168" x="126.100093" y="197.131822" style="fill: #f28360; stroke: #ffffff; stroke-width: 0.48"/>
    </g>
    <g clip-path="url(#p67f11f46cb)">
     <use xlink:href="#C0_0_24f73ab168" x="132.463454" y="225.190108" style="fill: #f28360; stroke: #ffffff; stroke-width: 0.48"/>
    </g>
    <g clip-path="url(#p67f11f46cb)">
     <use xlink:href="#C0_0_24f73ab168" x="143.913696" y="226.19579" style="fill: #f28360; stroke: #ffffff; stroke-width: 0.48"/>
    </g>
    <g clip-path="url(#p67f11f46cb)">
     <use xlink:href="#C0_0_24f73ab168" x="120.212305" y="144.690034" style="fill: #f28360; stroke: #ffffff; stroke-width: 0.48"/>
    </g>
    <g clip-path="url(#p67f11f46cb)">
     <use xlink:href="#C0_0_24f73ab168" x="137.138521" y="230.860774" style="fill: #f28360; stroke: #ffffff; stroke-width: 0.48"/>
    </g>
    <g clip-path="url(#p67f11f46cb)">
     <use xlink:href="#C0_0_24f73ab168" x="134.025504" y="216.573695" style="fill: #f28360; stroke: #ffffff; stroke-width: 0.48"/>
    </g>
    <g clip-path="url(#p67f11f46cb)">
     <use xlink:href="#C0_0_24f73ab168" x="148.136755" y="233.206501" style="fill: #f28360; stroke: #ffffff; stroke-width: 0.48"/>
    </g>
    <g clip-path="url(#p67f11f46cb)">
     <use xlink:href="#C0_0_24f73ab168" x="131.056232" y="217.42517" style="fill: #f28360; stroke: #ffffff; stroke-width: 0.48"/>
    </g>
    <g clip-path="url(#p67f11f46cb)">
     <use xlink:href="#C0_0_24f73ab168" x="132.100629" y="240.75972" style="fill: #f28360; stroke: #ffffff; stroke-width: 0.48"/>
    </g>
    <g clip-path="url(#p67f11f46cb)">
     <use xlink:href="#C0_0_24f73ab168" x="122.916402" y="199.181254" style="fill: #f28360; stroke: #ffffff; stroke-width: 0.48"/>
    </g>
    <g clip-path="url(#p67f11f46cb)">
     <use xlink:href="#C0_0_24f73ab168" x="136.205985" y="228.864239" style="fill: #f28360; stroke: #ffffff; stroke-width: 0.48"/>
    </g>
    <g clip-path="url(#p67f11f46cb)">
     <use xlink:href="#C0_0_24f73ab168" x="127.550369" y="194.712516" style="fill: #f28360; stroke: #ffffff; stroke-width: 0.48"/>
    </g>
    <g clip-path="url(#p67f11f46cb)">
     <use xlink:href="#C0_0_24f73ab168" x="122.357045" y="213.049158" style="fill: #f28360; stroke: #ffffff; stroke-width: 0.48"/>
    </g>
    <g clip-path="url(#p67f11f46cb)">
     <use xlink:href="#C0_0_24f73ab168" x="134.100759" y="205.498273" style="fill: #f28360; stroke: #ffffff; stroke-width: 0.48"/>
    </g>
    <g clip-path="url(#p67f11f46cb)">
     <use xlink:href="#C0_0_24f73ab168" x="150.999787" y="240.132984" style="fill: #f28360; stroke: #ffffff; stroke-width: 0.48"/>
    </g>
    <g clip-path="url(#p67f11f46cb)">
     <use xlink:href="#C0_0_24f73ab168" x="151.370725" y="198.868321" style="fill: #f28360; stroke: #ffffff; stroke-width: 0.48"/>
    </g>
    <g clip-path="url(#p67f11f46cb)">
     <use xlink:href="#C0_0_24f73ab168" x="140.120755" y="175.188494" style="fill: #f28360; stroke: #ffffff; stroke-width: 0.48"/>
    </g>
    <g clip-path="url(#p67f11f46cb)">
     <use xlink:href="#C0_0_24f73ab168" x="132.281121" y="267.735885" style="fill: #f28360; stroke: #ffffff; stroke-width: 0.48"/>
    </g>
    <g clip-path="url(#p67f11f46cb)">
     <use xlink:href="#C0_0_24f73ab168" x="124.658896" y="143.385666" style="fill: #f28360; stroke: #ffffff; stroke-width: 0.48"/>
    </g>
    <g clip-path="url(#p67f11f46cb)">
     <use xlink:href="#C0_0_24f73ab168" x="125.794702" y="178.900909" style="fill: #f28360; stroke: #ffffff; stroke-width: 0.48"/>
    </g>
    <g clip-path="url(#p67f11f46cb)">
     <use xlink:href="#C0_0_24f73ab168" x="122.532342" y="190.179622" style="fill: #f28360; stroke: #ffffff; stroke-width: 0.48"/>
    </g>
    <g clip-path="url(#p67f11f46cb)">
     <use xlink:href="#C0_0_24f73ab168" x="121.107128" y="152.578046" style="fill: #f28360; stroke: #ffffff; stroke-width: 0.48"/>
    </g>
    <g clip-path="url(#p67f11f46cb)">
     <use xlink:href="#C0_0_24f73ab168" x="131.337776" y="151.279397" style="fill: #f28360; stroke: #ffffff; stroke-width: 0.48"/>
    </g>
    <g clip-path="url(#p67f11f46cb)">
     <use xlink:href="#C0_0_24f73ab168" x="123.310151" y="190.228278" style="fill: #f28360; stroke: #ffffff; stroke-width: 0.48"/>
    </g>
    <g clip-path="url(#p67f11f46cb)">
     <use xlink:href="#C0_0_24f73ab168" x="128.79883" y="201.530615" style="fill: #f28360; stroke: #ffffff; stroke-width: 0.48"/>
    </g>
    <g clip-path="url(#p67f11f46cb)">
     <use xlink:href="#C0_0_24f73ab168" x="151.810797" y="247.638694" style="fill: #f28360; stroke: #ffffff; stroke-width: 0.48"/>
    </g>
    <g clip-path="url(#p67f11f46cb)">
     <use xlink:href="#C0_0_24f73ab168" x="144.440434" y="217.307505" style="fill: #f28360; stroke: #ffffff; stroke-width: 0.48"/>
    </g>
    <g clip-path="url(#p67f11f46cb)">
     <use xlink:href="#C0_0_24f73ab168" x="127.274887" y="267.551923" style="fill: #f28360; stroke: #ffffff; stroke-width: 0.48"/>
    </g>
    <g clip-path="url(#p67f11f46cb)">
     <use xlink:href="#C0_0_24f73ab168" x="122.928673" y="266.188996" style="fill: #f28360; stroke: #ffffff; stroke-width: 0.48"/>
    </g>
    <g clip-path="url(#p67f11f46cb)">
     <use xlink:href="#C0_0_24f73ab168" x="167.607534" y="228.658692" style="fill: #f28360; stroke: #ffffff; stroke-width: 0.48"/>
    </g>
    <g clip-path="url(#p67f11f46cb)">
     <use xlink:href="#C0_0_24f73ab168" x="133.480056" y="231.906124" style="fill: #f28360; stroke: #ffffff; stroke-width: 0.48"/>
    </g>
    <g clip-path="url(#p67f11f46cb)">
     <use xlink:href="#C0_0_24f73ab168" x="152.693451" y="224.817789" style="fill: #f28360; stroke: #ffffff; stroke-width: 0.48"/>
    </g>
    <g clip-path="url(#p67f11f46cb)">
     <use xlink:href="#C0_0_24f73ab168" x="125.5912" y="264.887342" style="fill: #f28360; stroke: #ffffff; stroke-width: 0.48"/>
    </g>
    <g clip-path="url(#p67f11f46cb)">
     <use xlink:href="#C0_0_24f73ab168" x="132.518813" y="184.000866" style="fill: #f28360; stroke: #ffffff; stroke-width: 0.48"/>
    </g>
    <g clip-path="url(#p67f11f46cb)">
     <use xlink:href="#C0_0_24f73ab168" x="131.143803" y="225.903691" style="fill: #f28360; stroke: #ffffff; stroke-width: 0.48"/>
    </g>
    <g clip-path="url(#p67f11f46cb)">
     <use xlink:href="#C0_0_24f73ab168" x="145.139609" y="234.857453" style="fill: #f28360; stroke: #ffffff; stroke-width: 0.48"/>
    </g>
    <g clip-path="url(#p67f11f46cb)">
     <use xlink:href="#C0_0_24f73ab168" x="123.856452" y="221.671247" style="fill: #f28360; stroke: #ffffff; stroke-width: 0.48"/>
    </g>
    <g clip-path="url(#p67f11f46cb)">
     <use xlink:href="#C0_0_24f73ab168" x="120.774943" y="261.689946" style="fill: #f28360; stroke: #ffffff; stroke-width: 0.48"/>
    </g>
    <g clip-path="url(#p67f11f46cb)">
     <use xlink:href="#C0_0_24f73ab168" x="122.249939" y="157.254375" style="fill: #f28360; stroke: #ffffff; stroke-width: 0.48"/>
    </g>
    <g clip-path="url(#p67f11f46cb)">
     <use xlink:href="#C0_0_24f73ab168" x="145.21063" y="193.422133" style="fill: #f28360; stroke: #ffffff; stroke-width: 0.48"/>
    </g>
    <g clip-path="url(#p67f11f46cb)">
     <use xlink:href="#C0_0_24f73ab168" x="126.512367" y="267.619117" style="fill: #f28360; stroke: #ffffff; stroke-width: 0.48"/>
    </g>
    <g clip-path="url(#p67f11f46cb)">
     <use xlink:href="#C0_0_24f73ab168" x="136.969195" y="213.506445" style="fill: #f28360; stroke: #ffffff; stroke-width: 0.48"/>
    </g>
    <g clip-path="url(#p67f11f46cb)">
     <use xlink:href="#C0_0_24f73ab168" x="121.972459" y="130.456635" style="fill: #f28360; stroke: #ffffff; stroke-width: 0.48"/>
    </g>
    <g clip-path="url(#p67f11f46cb)">
     <use xlink:href="#C0_0_24f73ab168" x="145.033954" y="200.524187" style="fill: #f28360; stroke: #ffffff; stroke-width: 0.48"/>
    </g>
    <g clip-path="url(#p67f11f46cb)">
     <use xlink:href="#C0_0_24f73ab168" x="124.789651" y="195.133868" style="fill: #f28360; stroke: #ffffff; stroke-width: 0.48"/>
    </g>
    <g clip-path="url(#p67f11f46cb)">
     <use xlink:href="#C0_0_24f73ab168" x="122.028912" y="218.804371" style="fill: #f28360; stroke: #ffffff; stroke-width: 0.48"/>
    </g>
    <g clip-path="url(#p67f11f46cb)">
     <use xlink:href="#C0_0_24f73ab168" x="137.346309" y="196.073363" style="fill: #f28360; stroke: #ffffff; stroke-width: 0.48"/>
    </g>
    <g clip-path="url(#p67f11f46cb)">
     <use xlink:href="#C0_0_24f73ab168" x="149.449501" y="210.332482" style="fill: #f28360; stroke: #ffffff; stroke-width: 0.48"/>
    </g>
    <g clip-path="url(#p67f11f46cb)">
     <use xlink:href="#C0_0_24f73ab168" x="168.501312" y="257.64783" style="fill: #f28360; stroke: #ffffff; stroke-width: 0.48"/>
    </g>
    <g clip-path="url(#p67f11f46cb)">
     <use xlink:href="#C0_0_24f73ab168" x="132.049845" y="174.326023" style="fill: #f28360; stroke: #ffffff; stroke-width: 0.48"/>
    </g>
    <g clip-path="url(#p67f11f46cb)">
     <use xlink:href="#C0_0_24f73ab168" x="122.660069" y="179.617132" style="fill: #f28360; stroke: #ffffff; stroke-width: 0.48"/>
    </g>
    <g clip-path="url(#p67f11f46cb)">
     <use xlink:href="#C0_0_24f73ab168" x="146.254932" y="207.762077" style="fill: #f28360; stroke: #ffffff; stroke-width: 0.48"/>
    </g>
    <g clip-path="url(#p67f11f46cb)">
     <use xlink:href="#C0_0_24f73ab168" x="154.763302" y="219.246934" style="fill: #f28360; stroke: #ffffff; stroke-width: 0.48"/>
    </g>
    <g clip-path="url(#p67f11f46cb)">
     <use xlink:href="#C0_0_24f73ab168" x="172.293645" y="241.250684" style="fill: #f28360; stroke: #ffffff; stroke-width: 0.48"/>
    </g>
    <g clip-path="url(#p67f11f46cb)">
     <use xlink:href="#C0_0_24f73ab168" x="135.535081" y="210.915317" style="fill: #f28360; stroke: #ffffff; stroke-width: 0.48"/>
    </g>
    <g clip-path="url(#p67f11f46cb)">
     <use xlink:href="#C0_0_24f73ab168" x="124.560182" y="209.811362" style="fill: #f28360; stroke: #ffffff; stroke-width: 0.48"/>
    </g>
    <g clip-path="url(#p67f11f46cb)">
     <use xlink:href="#C0_0_24f73ab168" x="131.85508" y="220.536749" style="fill: #f28360; stroke: #ffffff; stroke-width: 0.48"/>
    </g>
    <g clip-path="url(#p67f11f46cb)">
     <use xlink:href="#C0_0_24f73ab168" x="135.161013" y="226.684817" style="fill: #f28360; stroke: #ffffff; stroke-width: 0.48"/>
    </g>
    <g clip-path="url(#p67f11f46cb)">
     <use xlink:href="#C0_0_24f73ab168" x="137.362502" y="235.425643" style="fill: #f28360; stroke: #ffffff; stroke-width: 0.48"/>
    </g>
    <g clip-path="url(#p67f11f46cb)">
     <use xlink:href="#C0_0_24f73ab168" x="126.72057" y="211.616541" style="fill: #f28360; stroke: #ffffff; stroke-width: 0.48"/>
    </g>
    <g clip-path="url(#p67f11f46cb)">
     <use xlink:href="#C0_0_24f73ab168" x="142.275508" y="242.649338" style="fill: #f28360; stroke: #ffffff; stroke-width: 0.48"/>
    </g>
    <g clip-path="url(#p67f11f46cb)">
     <use xlink:href="#C0_0_24f73ab168" x="126.470421" y="160.500888" style="fill: #f28360; stroke: #ffffff; stroke-width: 0.48"/>
    </g>
    <g clip-path="url(#p67f11f46cb)">
     <use xlink:href="#C0_0_24f73ab168" x="133.80942" y="177.628698" style="fill: #f28360; stroke: #ffffff; stroke-width: 0.48"/>
    </g>
    <g clip-path="url(#p67f11f46cb)">
     <use xlink:href="#C0_0_24f73ab168" x="121.079959" y="241.223928" style="fill: #f28360; stroke: #ffffff; stroke-width: 0.48"/>
    </g>
    <g clip-path="url(#p67f11f46cb)">
     <use xlink:href="#C0_0_24f73ab168" x="135.468962" y="236.797459" style="fill: #f28360; stroke: #ffffff; stroke-width: 0.48"/>
    </g>
    <g clip-path="url(#p67f11f46cb)">
     <use xlink:href="#C0_0_24f73ab168" x="122.111817" y="251.36233" style="fill: #f28360; stroke: #ffffff; stroke-width: 0.48"/>
    </g>
    <g clip-path="url(#p67f11f46cb)">
     <use xlink:href="#C0_0_24f73ab168" x="133.819797" y="197.994036" style="fill: #f28360; stroke: #ffffff; stroke-width: 0.48"/>
    </g>
    <g clip-path="url(#p67f11f46cb)">
     <use xlink:href="#C0_0_24f73ab168" x="156.966667" y="259.198993" style="fill: #f28360; stroke: #ffffff; stroke-width: 0.48"/>
    </g>
    <g clip-path="url(#p67f11f46cb)">
     <use xlink:href="#C0_0_24f73ab168" x="191.361781" y="264.162977" style="fill: #f28360; stroke: #ffffff; stroke-width: 0.48"/>
    </g>
    <g clip-path="url(#p67f11f46cb)">
     <use xlink:href="#C0_0_24f73ab168" x="136.694292" y="228.457143" style="fill: #f28360; stroke: #ffffff; stroke-width: 0.48"/>
    </g>
    <g clip-path="url(#p67f11f46cb)">
     <use xlink:href="#C0_0_24f73ab168" x="126.726057" y="222.357432" style="fill: #f28360; stroke: #ffffff; stroke-width: 0.48"/>
    </g>
    <g clip-path="url(#p67f11f46cb)">
     <use xlink:href="#C0_0_24f73ab168" x="133.738836" y="243.716999" style="fill: #f28360; stroke: #ffffff; stroke-width: 0.48"/>
    </g>
    <g clip-path="url(#p67f11f46cb)">
     <use xlink:href="#C0_0_24f73ab168" x="137.658793" y="230.214515" style="fill: #f28360; stroke: #ffffff; stroke-width: 0.48"/>
    </g>
    <g clip-path="url(#p67f11f46cb)">
     <use xlink:href="#C0_0_24f73ab168" x="137.281827" y="173.400714" style="fill: #f28360; stroke: #ffffff; stroke-width: 0.48"/>
    </g>
    <g clip-path="url(#p67f11f46cb)">
     <use xlink:href="#C0_0_24f73ab168" x="131.460551" y="235.553104" style="fill: #f28360; stroke: #ffffff; stroke-width: 0.48"/>
    </g>
    <g clip-path="url(#p67f11f46cb)">
     <use xlink:href="#C0_0_24f73ab168" x="166.467102" y="235.36249" style="fill: #f28360; stroke: #ffffff; stroke-width: 0.48"/>
    </g>
    <g clip-path="url(#p67f11f46cb)">
     <use xlink:href="#C0_0_24f73ab168" x="126.588338" y="231.273997" style="fill: #f28360; stroke: #ffffff; stroke-width: 0.48"/>
    </g>
    <g clip-path="url(#p67f11f46cb)">
     <use xlink:href="#C0_0_24f73ab168" x="145.621557" y="198.438456" style="fill: #f28360; stroke: #ffffff; stroke-width: 0.48"/>
    </g>
    <g clip-path="url(#p67f11f46cb)">
     <use xlink:href="#C0_0_24f73ab168" x="134.586044" y="245.253148" style="fill: #f28360; stroke: #ffffff; stroke-width: 0.48"/>
    </g>
    <g clip-path="url(#p67f11f46cb)">
     <use xlink:href="#C0_0_24f73ab168" x="135.953468" y="211.94895" style="fill: #f28360; stroke: #ffffff; stroke-width: 0.48"/>
    </g>
    <g clip-path="url(#p67f11f46cb)">
     <use xlink:href="#C0_0_24f73ab168" x="127.46365" y="208.579374" style="fill: #f28360; stroke: #ffffff; stroke-width: 0.48"/>
    </g>
    <g clip-path="url(#p67f11f46cb)">
     <use xlink:href="#C0_0_24f73ab168" x="147.912757" y="209.358667" style="fill: #f28360; stroke: #ffffff; stroke-width: 0.48"/>
    </g>
    <g clip-path="url(#p67f11f46cb)">
     <use xlink:href="#C0_0_24f73ab168" x="152.228527" y="228.651667" style="fill: #f28360; stroke: #ffffff; stroke-width: 0.48"/>
    </g>
    <g clip-path="url(#p67f11f46cb)">
     <use xlink:href="#C0_0_24f73ab168" x="121.377193" y="258.151538" style="fill: #f28360; stroke: #ffffff; stroke-width: 0.48"/>
    </g>
    <g clip-path="url(#p67f11f46cb)">
     <use xlink:href="#C0_0_24f73ab168" x="128.252957" y="265.871348" style="fill: #f28360; stroke: #ffffff; stroke-width: 0.48"/>
    </g>
    <g clip-path="url(#p67f11f46cb)">
     <use xlink:href="#C0_0_24f73ab168" x="136.624795" y="191.649182" style="fill: #f28360; stroke: #ffffff; stroke-width: 0.48"/>
    </g>
    <g clip-path="url(#p67f11f46cb)">
     <use xlink:href="#C0_0_24f73ab168" x="122.077087" y="208.697282" style="fill: #f28360; stroke: #ffffff; stroke-width: 0.48"/>
    </g>
    <g clip-path="url(#p67f11f46cb)">
     <use xlink:href="#C0_0_24f73ab168" x="134.735134" y="217.765588" style="fill: #f28360; stroke: #ffffff; stroke-width: 0.48"/>
    </g>
    <g clip-path="url(#p67f11f46cb)">
     <use xlink:href="#C0_0_24f73ab168" x="122.503265" y="231.921663" style="fill: #f28360; stroke: #ffffff; stroke-width: 0.48"/>
    </g>
    <g clip-path="url(#p67f11f46cb)">
     <use xlink:href="#C0_0_24f73ab168" x="135.997972" y="219.196596" style="fill: #f28360; stroke: #ffffff; stroke-width: 0.48"/>
    </g>
    <g clip-path="url(#p67f11f46cb)">
     <use xlink:href="#C0_0_24f73ab168" x="136.291417" y="236.029795" style="fill: #f28360; stroke: #ffffff; stroke-width: 0.48"/>
    </g>
    <g clip-path="url(#p67f11f46cb)">
     <use xlink:href="#C0_0_24f73ab168" x="146.864069" y="201.514492" style="fill: #f28360; stroke: #ffffff; stroke-width: 0.48"/>
    </g>
    <g clip-path="url(#p67f11f46cb)">
     <use xlink:href="#C0_0_24f73ab168" x="152.927479" y="220.145327" style="fill: #f28360; stroke: #ffffff; stroke-width: 0.48"/>
    </g>
    <g clip-path="url(#p67f11f46cb)">
     <use xlink:href="#C0_0_24f73ab168" x="173.960134" y="255.092776" style="fill: #f28360; stroke: #ffffff; stroke-width: 0.48"/>
    </g>
    <g clip-path="url(#p67f11f46cb)">
     <use xlink:href="#C0_0_24f73ab168" x="142.59723" y="221.385492" style="fill: #f28360; stroke: #ffffff; stroke-width: 0.48"/>
    </g>
    <g clip-path="url(#p67f11f46cb)">
     <use xlink:href="#C0_0_24f73ab168" x="141.496113" y="216.727948" style="fill: #f28360; stroke: #ffffff; stroke-width: 0.48"/>
    </g>
    <g clip-path="url(#p67f11f46cb)">
     <use xlink:href="#C0_0_24f73ab168" x="132.084006" y="234.074416" style="fill: #f28360; stroke: #ffffff; stroke-width: 0.48"/>
    </g>
    <g clip-path="url(#p67f11f46cb)">
     <use xlink:href="#C0_0_24f73ab168" x="142.364736" y="233.858603" style="fill: #f28360; stroke: #ffffff; stroke-width: 0.48"/>
    </g>
    <g clip-path="url(#p67f11f46cb)">
     <use xlink:href="#C0_0_24f73ab168" x="150.741466" y="212.450698" style="fill: #f28360; stroke: #ffffff; stroke-width: 0.48"/>
    </g>
    <g clip-path="url(#p67f11f46cb)">
     <use xlink:href="#C0_0_24f73ab168" x="128.273883" y="160.281009" style="fill: #f28360; stroke: #ffffff; stroke-width: 0.48"/>
    </g>
    <g clip-path="url(#p67f11f46cb)">
     <use xlink:href="#C0_0_24f73ab168" x="147.480246" y="196.754446" style="fill: #f28360; stroke: #ffffff; stroke-width: 0.48"/>
    </g>
    <g clip-path="url(#p67f11f46cb)">
     <use xlink:href="#C0_0_24f73ab168" x="172.073426" y="243.156151" style="fill: #f28360; stroke: #ffffff; stroke-width: 0.48"/>
    </g>
    <g clip-path="url(#p67f11f46cb)">
     <use xlink:href="#C0_0_24f73ab168" x="161.090164" y="252.355379" style="fill: #f28360; stroke: #ffffff; stroke-width: 0.48"/>
    </g>
    <g clip-path="url(#p67f11f46cb)">
     <use xlink:href="#C0_0_24f73ab168" x="120.827568" y="158.186996" style="fill: #f28360; stroke: #ffffff; stroke-width: 0.48"/>
    </g>
    <g clip-path="url(#p67f11f46cb)">
     <use xlink:href="#C0_0_24f73ab168" x="123.136987" y="236.623975" style="fill: #f28360; stroke: #ffffff; stroke-width: 0.48"/>
    </g>
    <g clip-path="url(#p67f11f46cb)">
     <use xlink:href="#C0_0_24f73ab168" x="121.645847" y="239.223511" style="fill: #f28360; stroke: #ffffff; stroke-width: 0.48"/>
    </g>
    <g clip-path="url(#p67f11f46cb)">
     <use xlink:href="#C0_0_24f73ab168" x="142.262975" y="210.861168" style="fill: #f28360; stroke: #ffffff; stroke-width: 0.48"/>
    </g>
    <g clip-path="url(#p67f11f46cb)">
     <use xlink:href="#C0_0_24f73ab168" x="145.653587" y="215.691319" style="fill: #f28360; stroke: #ffffff; stroke-width: 0.48"/>
    </g>
    <g clip-path="url(#p67f11f46cb)">
     <use xlink:href="#C0_0_24f73ab168" x="126.378606" y="253.313118" style="fill: #f28360; stroke: #ffffff; stroke-width: 0.48"/>
    </g>
    <g clip-path="url(#p67f11f46cb)">
     <use xlink:href="#C0_0_24f73ab168" x="138.102938" y="221.635077" style="fill: #f28360; stroke: #ffffff; stroke-width: 0.48"/>
    </g>
    <g clip-path="url(#p67f11f46cb)">
     <use xlink:href="#C0_0_24f73ab168" x="135.883697" y="197.102955" style="fill: #f28360; stroke: #ffffff; stroke-width: 0.48"/>
    </g>
    <g clip-path="url(#p67f11f46cb)">
     <use xlink:href="#C0_0_24f73ab168" x="127.373312" y="201.349337" style="fill: #f28360; stroke: #ffffff; stroke-width: 0.48"/>
    </g>
    <g clip-path="url(#p67f11f46cb)">
     <use xlink:href="#C0_0_24f73ab168" x="126.533126" y="205.116526" style="fill: #f28360; stroke: #ffffff; stroke-width: 0.48"/>
    </g>
    <g clip-path="url(#p67f11f46cb)">
     <use xlink:href="#C0_0_24f73ab168" x="140.076172" y="176.084451" style="fill: #f28360; stroke: #ffffff; stroke-width: 0.48"/>
    </g>
    <g clip-path="url(#p67f11f46cb)">
     <use xlink:href="#C0_0_24f73ab168" x="127.427126" y="148.179367" style="fill: #f28360; stroke: #ffffff; stroke-width: 0.48"/>
    </g>
    <g clip-path="url(#p67f11f46cb)">
     <use xlink:href="#C0_0_24f73ab168" x="151.999951" y="248.480804" style="fill: #f28360; stroke: #ffffff; stroke-width: 0.48"/>
    </g>
    <g clip-path="url(#p67f11f46cb)">
     <use xlink:href="#C0_0_24f73ab168" x="129.633477" y="132.546685" style="fill: #f28360; stroke: #ffffff; stroke-width: 0.48"/>
    </g>
    <g clip-path="url(#p67f11f46cb)">
     <use xlink:href="#C0_0_24f73ab168" x="133.414151" y="162.618896" style="fill: #f28360; stroke: #ffffff; stroke-width: 0.48"/>
    </g>
    <g clip-path="url(#p67f11f46cb)">
     <use xlink:href="#C0_0_24f73ab168" x="139.503459" y="199.007941" style="fill: #f28360; stroke: #ffffff; stroke-width: 0.48"/>
    </g>
    <g clip-path="url(#p67f11f46cb)">
     <use xlink:href="#C0_0_24f73ab168" x="130.205489" y="197.175907" style="fill: #f28360; stroke: #ffffff; stroke-width: 0.48"/>
    </g>
    <g clip-path="url(#p67f11f46cb)">
     <use xlink:href="#C0_0_24f73ab168" x="120.326534" y="251.722386" style="fill: #f28360; stroke: #ffffff; stroke-width: 0.48"/>
    </g>
    <g clip-path="url(#p67f11f46cb)">
     <use xlink:href="#C0_0_24f73ab168" x="134.388474" y="255.52896" style="fill: #f28360; stroke: #ffffff; stroke-width: 0.48"/>
    </g>
    <g clip-path="url(#p67f11f46cb)">
     <use xlink:href="#C0_0_24f73ab168" x="129.174557" y="166.290907" style="fill: #f28360; stroke: #ffffff; stroke-width: 0.48"/>
    </g>
    <g clip-path="url(#p67f11f46cb)">
     <use xlink:href="#C0_0_24f73ab168" x="125.003838" y="173.200027" style="fill: #f28360; stroke: #ffffff; stroke-width: 0.48"/>
    </g>
    <g clip-path="url(#p67f11f46cb)">
     <use xlink:href="#C0_0_24f73ab168" x="130.736884" y="173.203394" style="fill: #f28360; stroke: #ffffff; stroke-width: 0.48"/>
    </g>
    <g clip-path="url(#p67f11f46cb)">
     <use xlink:href="#C0_0_24f73ab168" x="132.979422" y="182.844748" style="fill: #f28360; stroke: #ffffff; stroke-width: 0.48"/>
    </g>
    <g clip-path="url(#p67f11f46cb)">
     <use xlink:href="#C0_0_24f73ab168" x="145.860619" y="257.713664" style="fill: #f28360; stroke: #ffffff; stroke-width: 0.48"/>
    </g>
    <g clip-path="url(#p67f11f46cb)">
     <use xlink:href="#C0_0_24f73ab168" x="124.742123" y="175.030399" style="fill: #f28360; stroke: #ffffff; stroke-width: 0.48"/>
    </g>
    <g clip-path="url(#p67f11f46cb)">
     <use xlink:href="#C0_0_24f73ab168" x="140.860438" y="186.055981" style="fill: #f28360; stroke: #ffffff; stroke-width: 0.48"/>
    </g>
    <g clip-path="url(#p67f11f46cb)">
     <use xlink:href="#C0_0_24f73ab168" x="137.339109" y="232.563775" style="fill: #f28360; stroke: #ffffff; stroke-width: 0.48"/>
    </g>
    <g clip-path="url(#p67f11f46cb)">
     <use xlink:href="#C0_0_24f73ab168" x="130.526369" y="219.381845" style="fill: #f28360; stroke: #ffffff; stroke-width: 0.48"/>
    </g>
    <g clip-path="url(#p67f11f46cb)">
     <use xlink:href="#C0_0_24f73ab168" x="129.275025" y="166.729206" style="fill: #f28360; stroke: #ffffff; stroke-width: 0.48"/>
    </g>
    <g clip-path="url(#p67f11f46cb)">
     <use xlink:href="#C0_0_24f73ab168" x="128.960255" y="178.921433" style="fill: #f28360; stroke: #ffffff; stroke-width: 0.48"/>
    </g>
    <g clip-path="url(#p67f11f46cb)">
     <use xlink:href="#C0_0_24f73ab168" x="187.362756" y="240.532976" style="fill: #7a77ab; stroke: #ffffff; stroke-width: 0.48"/>
    </g>
    <g clip-path="url(#p67f11f46cb)">
     <use xlink:href="#C0_0_24f73ab168" x="199.548589" y="219.323413" style="fill: #7a77ab; stroke: #ffffff; stroke-width: 0.48"/>
    </g>
    <g clip-path="url(#p67f11f46cb)">
     <use xlink:href="#C0_0_24f73ab168" x="137.24023" y="269.13331" style="fill: #7a77ab; stroke: #ffffff; stroke-width: 0.48"/>
    </g>
    <g clip-path="url(#p67f11f46cb)">
     <use xlink:href="#C0_0_24f73ab168" x="212.931514" y="244.485238" style="fill: #7a77ab; stroke: #ffffff; stroke-width: 0.48"/>
    </g>
    <g clip-path="url(#p67f11f46cb)">
     <use xlink:href="#C0_0_24f73ab168" x="209.434784" y="251.778071" style="fill: #7a77ab; stroke: #ffffff; stroke-width: 0.48"/>
    </g>
    <g clip-path="url(#p67f11f46cb)">
     <use xlink:href="#C0_0_24f73ab168" x="232.143807" y="214.974881" style="fill: #7a77ab; stroke: #ffffff; stroke-width: 0.48"/>
    </g>
    <g clip-path="url(#p67f11f46cb)">
     <use xlink:href="#C0_0_24f73ab168" x="148.285718" y="235.375995" style="fill: #7a77ab; stroke: #ffffff; stroke-width: 0.48"/>
    </g>
    <g clip-path="url(#p67f11f46cb)">
     <use xlink:href="#C0_0_24f73ab168" x="229.949774" y="239.303608" style="fill: #7a77ab; stroke: #ffffff; stroke-width: 0.48"/>
    </g>
    <g clip-path="url(#p67f11f46cb)">
     <use xlink:href="#C0_0_24f73ab168" x="244.866333" y="244.403902" style="fill: #7a77ab; stroke: #ffffff; stroke-width: 0.48"/>
    </g>
    <g clip-path="url(#p67f11f46cb)">
     <use xlink:href="#C0_0_24f73ab168" x="130.99253" y="251.626223" style="fill: #7a77ab; stroke: #ffffff; stroke-width: 0.48"/>
    </g>
    <g clip-path="url(#p67f11f46cb)">
     <use xlink:href="#C0_0_24f73ab168" x="206.261152" y="238.500833" style="fill: #7a77ab; stroke: #ffffff; stroke-width: 0.48"/>
    </g>
    <g clip-path="url(#p67f11f46cb)">
     <use xlink:href="#C0_0_24f73ab168" x="250.997234" y="177.030688" style="fill: #7a77ab; stroke: #ffffff; stroke-width: 0.48"/>
    </g>
    <g clip-path="url(#p67f11f46cb)">
     <use xlink:href="#C0_0_24f73ab168" x="185.000766" y="267.360438" style="fill: #7a77ab; stroke: #ffffff; stroke-width: 0.48"/>
    </g>
    <g clip-path="url(#p67f11f46cb)">
     <use xlink:href="#C0_0_24f73ab168" x="176.509474" y="265.843154" style="fill: #7a77ab; stroke: #ffffff; stroke-width: 0.48"/>
    </g>
    <g clip-path="url(#p67f11f46cb)">
     <use xlink:href="#C0_0_24f73ab168" x="181.899648" y="266.5163" style="fill: #7a77ab; stroke: #ffffff; stroke-width: 0.48"/>
    </g>
    <g clip-path="url(#p67f11f46cb)">
     <use xlink:href="#C0_0_24f73ab168" x="196.612784" y="267.654155" style="fill: #7a77ab; stroke: #ffffff; stroke-width: 0.48"/>
    </g>
    <g clip-path="url(#p67f11f46cb)">
     <use xlink:href="#C0_0_24f73ab168" x="238.310108" y="237.654534" style="fill: #7a77ab; stroke: #ffffff; stroke-width: 0.48"/>
    </g>
    <g clip-path="url(#p67f11f46cb)">
     <use xlink:href="#C0_0_24f73ab168" x="186.076047" y="242.030157" style="fill: #7a77ab; stroke: #ffffff; stroke-width: 0.48"/>
    </g>
    <g clip-path="url(#p67f11f46cb)">
     <use xlink:href="#C0_0_24f73ab168" x="196.570379" y="254.257509" style="fill: #7a77ab; stroke: #ffffff; stroke-width: 0.48"/>
    </g>
    <g clip-path="url(#p67f11f46cb)">
     <use xlink:href="#C0_0_24f73ab168" x="255.794032" y="238.825729" style="fill: #7a77ab; stroke: #ffffff; stroke-width: 0.48"/>
    </g>
    <g clip-path="url(#p67f11f46cb)">
     <use xlink:href="#C0_0_24f73ab168" x="235.96577" y="257.920719" style="fill: #7a77ab; stroke: #ffffff; stroke-width: 0.48"/>
    </g>
    <g clip-path="url(#p67f11f46cb)">
     <use xlink:href="#C0_0_24f73ab168" x="199.794178" y="259.219823" style="fill: #7a77ab; stroke: #ffffff; stroke-width: 0.48"/>
    </g>
    <g clip-path="url(#p67f11f46cb)">
     <use xlink:href="#C0_0_24f73ab168" x="247.059471" y="221.264685" style="fill: #7a77ab; stroke: #ffffff; stroke-width: 0.48"/>
    </g>
    <g clip-path="url(#p67f11f46cb)">
     <use xlink:href="#C0_0_24f73ab168" x="167.04947" y="260.814252" style="fill: #7a77ab; stroke: #ffffff; stroke-width: 0.48"/>
    </g>
    <g clip-path="url(#p67f11f46cb)">
     <use xlink:href="#C0_0_24f73ab168" x="210.507068" y="266.906645" style="fill: #7a77ab; stroke: #ffffff; stroke-width: 0.48"/>
    </g>
    <g clip-path="url(#p67f11f46cb)">
     <use xlink:href="#C0_0_24f73ab168" x="215.211055" y="266.887651" style="fill: #7a77ab; stroke: #ffffff; stroke-width: 0.48"/>
    </g>
    <g clip-path="url(#p67f11f46cb)">
     <use xlink:href="#C0_0_24f73ab168" x="224.504085" y="266.701749" style="fill: #7a77ab; stroke: #ffffff; stroke-width: 0.48"/>
    </g>
    <g clip-path="url(#p67f11f46cb)">
     <use xlink:href="#C0_0_24f73ab168" x="218.805241" y="266.583508" style="fill: #7a77ab; stroke: #ffffff; stroke-width: 0.48"/>
    </g>
    <g clip-path="url(#p67f11f46cb)">
     <use xlink:href="#C0_0_24f73ab168" x="221.495295" y="266.495323" style="fill: #7a77ab; stroke: #ffffff; stroke-width: 0.48"/>
    </g>
    <g clip-path="url(#p67f11f46cb)">
     <use xlink:href="#C0_0_24f73ab168" x="138.554267" y="256.342284" style="fill: #7a77ab; stroke: #ffffff; stroke-width: 0.48"/>
    </g>
    <g clip-path="url(#p67f11f46cb)">
     <use xlink:href="#C0_0_24f73ab168" x="252.965815" y="198.681209" style="fill: #7a77ab; stroke: #ffffff; stroke-width: 0.48"/>
    </g>
    <g clip-path="url(#p67f11f46cb)">
     <use xlink:href="#C0_0_24f73ab168" x="227.136627" y="254.21308" style="fill: #7a77ab; stroke: #ffffff; stroke-width: 0.48"/>
    </g>
    <g clip-path="url(#p67f11f46cb)">
     <use xlink:href="#C0_0_24f73ab168" x="160.357331" y="251.467374" style="fill: #7a77ab; stroke: #ffffff; stroke-width: 0.48"/>
    </g>
    <g clip-path="url(#p67f11f46cb)">
     <use xlink:href="#C0_0_24f73ab168" x="178.960273" y="241.266891" style="fill: #7a77ab; stroke: #ffffff; stroke-width: 0.48"/>
    </g>
    <g clip-path="url(#p67f11f46cb)">
     <use xlink:href="#C0_0_24f73ab168" x="241.972572" y="252.645012" style="fill: #7a77ab; stroke: #ffffff; stroke-width: 0.48"/>
    </g>
    <g clip-path="url(#p67f11f46cb)">
     <use xlink:href="#C0_0_24f73ab168" x="179.402188" y="264.123755" style="fill: #7a77ab; stroke: #ffffff; stroke-width: 0.48"/>
    </g>
    <g clip-path="url(#p67f11f46cb)">
     <use xlink:href="#C0_0_24f73ab168" x="158.139691" y="248.817267" style="fill: #7a77ab; stroke: #ffffff; stroke-width: 0.48"/>
    </g>
    <g clip-path="url(#p67f11f46cb)">
     <use xlink:href="#C0_0_24f73ab168" x="176.442265" y="241.88861" style="fill: #7a77ab; stroke: #ffffff; stroke-width: 0.48"/>
    </g>
    <g clip-path="url(#p67f11f46cb)">
     <use xlink:href="#C0_0_24f73ab168" x="193.976629" y="247.091792" style="fill: #7a77ab; stroke: #ffffff; stroke-width: 0.48"/>
    </g>
    <g clip-path="url(#p67f11f46cb)">
     <use xlink:href="#C0_0_24f73ab168" x="168.700712" y="250.126992" style="fill: #7a77ab; stroke: #ffffff; stroke-width: 0.48"/>
    </g>
    <g clip-path="url(#p67f11f46cb)">
     <use xlink:href="#C0_0_24f73ab168" x="215.646309" y="267.933835" style="fill: #7a77ab; stroke: #ffffff; stroke-width: 0.48"/>
    </g>
    <g clip-path="url(#p67f11f46cb)">
     <use xlink:href="#C0_0_24f73ab168" x="209.072694" y="264.915769" style="fill: #7a77ab; stroke: #ffffff; stroke-width: 0.48"/>
    </g>
    <g clip-path="url(#p67f11f46cb)">
     <use xlink:href="#C0_0_24f73ab168" x="229.993518" y="262.810301" style="fill: #7a77ab; stroke: #ffffff; stroke-width: 0.48"/>
    </g>
    <g clip-path="url(#p67f11f46cb)">
     <use xlink:href="#C0_0_24f73ab168" x="240.620303" y="267.924983" style="fill: #7a77ab; stroke: #ffffff; stroke-width: 0.48"/>
    </g>
    <g clip-path="url(#p67f11f46cb)">
     <use xlink:href="#C0_0_24f73ab168" x="159.351345" y="254.138362" style="fill: #7a77ab; stroke: #ffffff; stroke-width: 0.48"/>
    </g>
    <g clip-path="url(#p67f11f46cb)">
     <use xlink:href="#C0_0_24f73ab168" x="238.801318" y="206.15779" style="fill: #7a77ab; stroke: #ffffff; stroke-width: 0.48"/>
    </g>
    <g clip-path="url(#p67f11f46cb)">
     <use xlink:href="#C0_0_24f73ab168" x="222.267609" y="246.142243" style="fill: #7a77ab; stroke: #ffffff; stroke-width: 0.48"/>
    </g>
    <g clip-path="url(#p67f11f46cb)">
     <use xlink:href="#C0_0_24f73ab168" x="214.151421" y="250.0703" style="fill: #7a77ab; stroke: #ffffff; stroke-width: 0.48"/>
    </g>
    <g clip-path="url(#p67f11f46cb)">
     <use xlink:href="#C0_0_24f73ab168" x="194.108588" y="252.80471" style="fill: #7a77ab; stroke: #ffffff; stroke-width: 0.48"/>
    </g>
    <g clip-path="url(#p67f11f46cb)">
     <use xlink:href="#C0_0_24f73ab168" x="152.351215" y="253.753855" style="fill: #7a77ab; stroke: #ffffff; stroke-width: 0.48"/>
    </g>
    <g clip-path="url(#p67f11f46cb)">
     <use xlink:href="#C0_0_24f73ab168" x="192.69243" y="241.998218" style="fill: #7a77ab; stroke: #ffffff; stroke-width: 0.48"/>
    </g>
    <g clip-path="url(#p67f11f46cb)">
     <use xlink:href="#C0_0_24f73ab168" x="179.548487" y="236.321389" style="fill: #7a77ab; stroke: #ffffff; stroke-width: 0.48"/>
    </g>
    <g clip-path="url(#p67f11f46cb)">
     <use xlink:href="#C0_0_24f73ab168" x="176.527054" y="250.171964" style="fill: #7a77ab; stroke: #ffffff; stroke-width: 0.48"/>
    </g>
    <g clip-path="url(#p67f11f46cb)">
     <use xlink:href="#C0_0_24f73ab168" x="160.645869" y="266.398948" style="fill: #7a77ab; stroke: #ffffff; stroke-width: 0.48"/>
    </g>
    <g clip-path="url(#p67f11f46cb)">
     <use xlink:href="#C0_0_24f73ab168" x="186.395379" y="256.817084" style="fill: #7a77ab; stroke: #ffffff; stroke-width: 0.48"/>
    </g>
    <g clip-path="url(#p67f11f46cb)">
     <use xlink:href="#C0_0_24f73ab168" x="236.299585" y="223.760027" style="fill: #7a77ab; stroke: #ffffff; stroke-width: 0.48"/>
    </g>
    <g clip-path="url(#p67f11f46cb)">
     <use xlink:href="#C0_0_24f73ab168" x="153.691504" y="257.41828" style="fill: #7a77ab; stroke: #ffffff; stroke-width: 0.48"/>
    </g>
    <g clip-path="url(#p67f11f46cb)">
     <use xlink:href="#C0_0_24f73ab168" x="148.776989" y="260.136543" style="fill: #7a77ab; stroke: #ffffff; stroke-width: 0.48"/>
    </g>
    <g clip-path="url(#p67f11f46cb)">
     <use xlink:href="#C0_0_24f73ab168" x="165.672491" y="241.499199" style="fill: #7a77ab; stroke: #ffffff; stroke-width: 0.48"/>
    </g>
    <g clip-path="url(#p67f11f46cb)">
     <use xlink:href="#C0_0_24f73ab168" x="224.456972" y="220.528704" style="fill: #7a77ab; stroke: #ffffff; stroke-width: 0.48"/>
    </g>
    <g clip-path="url(#p67f11f46cb)">
     <use xlink:href="#C0_0_24f73ab168" x="172.05832" y="245.892636" style="fill: #7a77ab; stroke: #ffffff; stroke-width: 0.48"/>
    </g>
    <g clip-path="url(#p67f11f46cb)">
     <use xlink:href="#C0_0_24f73ab168" x="162.937923" y="257.068687" style="fill: #7a77ab; stroke: #ffffff; stroke-width: 0.48"/>
    </g>
    <g clip-path="url(#p67f11f46cb)">
     <use xlink:href="#C0_0_24f73ab168" x="210.689553" y="243.592437" style="fill: #7a77ab; stroke: #ffffff; stroke-width: 0.48"/>
    </g>
    <g clip-path="url(#p67f11f46cb)">
     <use xlink:href="#C0_0_24f73ab168" x="206.326715" y="247.124176" style="fill: #7a77ab; stroke: #ffffff; stroke-width: 0.48"/>
    </g>
    <g clip-path="url(#p67f11f46cb)">
     <use xlink:href="#C0_0_24f73ab168" x="235.543323" y="247.337519" style="fill: #7a77ab; stroke: #ffffff; stroke-width: 0.48"/>
    </g>
    <g clip-path="url(#p67f11f46cb)">
     <use xlink:href="#C0_0_24f73ab168" x="191.334439" y="264.795027" style="fill: #7a77ab; stroke: #ffffff; stroke-width: 0.48"/>
    </g>
    <g clip-path="url(#p67f11f46cb)">
     <use xlink:href="#C0_0_24f73ab168" x="189.606186" y="263.223167" style="fill: #7a77ab; stroke: #ffffff; stroke-width: 0.48"/>
    </g>
    <g clip-path="url(#p67f11f46cb)">
     <use xlink:href="#C0_0_24f73ab168" x="168.068309" y="258.508708" style="fill: #7a77ab; stroke: #ffffff; stroke-width: 0.48"/>
    </g>
    <g clip-path="url(#p67f11f46cb)">
     <use xlink:href="#C0_0_24f73ab168" x="178.3038" y="261.530247" style="fill: #7a77ab; stroke: #ffffff; stroke-width: 0.48"/>
    </g>
    <g clip-path="url(#p67f11f46cb)">
     <use xlink:href="#C0_0_24f73ab168" x="224.587372" y="230.898957" style="fill: #7a77ab; stroke: #ffffff; stroke-width: 0.48"/>
    </g>
    <g clip-path="url(#p67f11f46cb)">
     <use xlink:href="#C0_0_24f73ab168" x="200.825602" y="237.487864" style="fill: #7a77ab; stroke: #ffffff; stroke-width: 0.48"/>
    </g>
    <g clip-path="url(#p67f11f46cb)">
     <use xlink:href="#C0_0_24f73ab168" x="211.378815" y="249.266706" style="fill: #7a77ab; stroke: #ffffff; stroke-width: 0.48"/>
    </g>
    <g clip-path="url(#p67f11f46cb)">
     <use xlink:href="#C0_0_24f73ab168" x="176.695845" y="257.97637" style="fill: #7a77ab; stroke: #ffffff; stroke-width: 0.48"/>
    </g>
    <g clip-path="url(#p67f11f46cb)">
     <use xlink:href="#C0_0_24f73ab168" x="185.40944" y="227.142858" style="fill: #7a77ab; stroke: #ffffff; stroke-width: 0.48"/>
    </g>
    <g clip-path="url(#p67f11f46cb)">
     <use xlink:href="#C0_0_24f73ab168" x="184.287094" y="263.569023" style="fill: #7a77ab; stroke: #ffffff; stroke-width: 0.48"/>
    </g>
    <g clip-path="url(#p67f11f46cb)">
     <use xlink:href="#C0_0_24f73ab168" x="180.73473" y="253.009466" style="fill: #7a77ab; stroke: #ffffff; stroke-width: 0.48"/>
    </g>
    <g clip-path="url(#p67f11f46cb)">
     <use xlink:href="#C0_0_24f73ab168" x="141.581388" y="258.046931" style="fill: #7a77ab; stroke: #ffffff; stroke-width: 0.48"/>
    </g>
    <g clip-path="url(#p67f11f46cb)">
     <use xlink:href="#C0_0_24f73ab168" x="159.433782" y="252.483205" style="fill: #7a77ab; stroke: #ffffff; stroke-width: 0.48"/>
    </g>
    <g clip-path="url(#p67f11f46cb)">
     <use xlink:href="#C0_0_24f73ab168" x="234.530235" y="210.159363" style="fill: #7a77ab; stroke: #ffffff; stroke-width: 0.48"/>
    </g>
    <g clip-path="url(#p67f11f46cb)">
     <use xlink:href="#C0_0_24f73ab168" x="244.135861" y="244.737372" style="fill: #7a77ab; stroke: #ffffff; stroke-width: 0.48"/>
    </g>
    <g clip-path="url(#p67f11f46cb)">
     <use xlink:href="#C0_0_24f73ab168" x="149.621403" y="229.332689" style="fill: #7a77ab; stroke: #ffffff; stroke-width: 0.48"/>
    </g>
    <g clip-path="url(#p67f11f46cb)">
     <use xlink:href="#C0_0_24f73ab168" x="175.010817" y="264.514883" style="fill: #7a77ab; stroke: #ffffff; stroke-width: 0.48"/>
    </g>
    <g clip-path="url(#p67f11f46cb)">
     <use xlink:href="#C0_0_24f73ab168" x="144.581279" y="242.882529" style="fill: #7a77ab; stroke: #ffffff; stroke-width: 0.48"/>
    </g>
    <g clip-path="url(#p67f11f46cb)">
     <use xlink:href="#C0_0_24f73ab168" x="250.857104" y="165.303093" style="fill: #7a77ab; stroke: #ffffff; stroke-width: 0.48"/>
    </g>
    <g clip-path="url(#p67f11f46cb)">
     <use xlink:href="#C0_0_24f73ab168" x="145.379973" y="259.172327" style="fill: #7a77ab; stroke: #ffffff; stroke-width: 0.48"/>
    </g>
    <g clip-path="url(#p67f11f46cb)">
     <use xlink:href="#C0_0_24f73ab168" x="146.305948" y="260.421766" style="fill: #7a77ab; stroke: #ffffff; stroke-width: 0.48"/>
    </g>
    <g clip-path="url(#p67f11f46cb)">
     <use xlink:href="#C0_0_24f73ab168" x="197.407711" y="268.87914" style="fill: #7a77ab; stroke: #ffffff; stroke-width: 0.48"/>
    </g>
    <g clip-path="url(#p67f11f46cb)">
     <use xlink:href="#C0_0_24f73ab168" x="146.211354" y="253.073461" style="fill: #7a77ab; stroke: #ffffff; stroke-width: 0.48"/>
    </g>
    <g clip-path="url(#p67f11f46cb)">
     <use xlink:href="#C0_0_24f73ab168" x="218.474486" y="258.128413" style="fill: #7a77ab; stroke: #ffffff; stroke-width: 0.48"/>
    </g>
    <g clip-path="url(#p67f11f46cb)">
     <use xlink:href="#C0_0_24f73ab168" x="135.546353" y="245.210922" style="fill: #7a77ab; stroke: #ffffff; stroke-width: 0.48"/>
    </g>
    <g clip-path="url(#p67f11f46cb)">
     <use xlink:href="#C0_0_24f73ab168" x="141.134571" y="246.343198" style="fill: #7a77ab; stroke: #ffffff; stroke-width: 0.48"/>
    </g>
   </g>
   <g id="matplotlib.axis_1">
    <g id="xtick_1">
     <g id="line2d_1">
      <defs>
       <path id="m350687f4a2" d="M 0 0 
L 0 5 
" style="stroke: #000000; stroke-width: 0.75"/>
      </defs>
      <g>
       <use xlink:href="#m350687f4a2" x="120.037908" y="312.563736" style="stroke: #000000; stroke-width: 0.75"/>
      </g>
     </g>
     <g id="text_1">
      <text style="font: 14.5px &quot;Suisse Int&apos;l Mono&quot;; text-anchor: middle" x="120.037908" y="333.076236" transform="rotate(-0 120.037908 333.076236)">0.0</text>
     </g>
    </g>
    <g id="xtick_2">
     <g id="line2d_2">
      <g>
       <use xlink:href="#m350687f4a2" x="194.134797" y="312.563736" style="stroke: #000000; stroke-width: 0.75"/>
      </g>
     </g>
     <g id="text_2">
      <text style="font: 14.5px &quot;Suisse Int&apos;l Mono&quot;; text-anchor: middle" x="194.134797" y="333.076236" transform="rotate(-0 194.134797 333.076236)">0.5</text>
     </g>
    </g>
    <g id="xtick_3">
     <g id="line2d_3">
      <g>
       <use xlink:href="#m350687f4a2" x="268.231687" y="312.563736" style="stroke: #000000; stroke-width: 0.75"/>
      </g>
     </g>
     <g id="text_3">
      <text style="font: 14.5px &quot;Suisse Int&apos;l Mono&quot;; text-anchor: middle" x="268.231687" y="333.076236" transform="rotate(-0 268.231687 333.076236)">1.0</text>
     </g>
    </g>
    <g id="text_4">
     <text style="font: 500 15px &quot;Suisse Int&apos;l&quot;, sans-serif; text-anchor: middle" x="193.393281" y="356.488736" transform="rotate(-0 193.393281 356.488736)">Confinement ratio</text>
    </g>
   </g>
   <g id="matplotlib.axis_2">
    <g id="ytick_1">
     <g id="line2d_4">
      <defs>
       <path id="m79766e8135" d="M 0 0 
L -5 0 
" style="stroke: #000000; stroke-width: 0.75"/>
      </defs>
      <g>
       <use xlink:href="#m79766e8135" x="81.598281" y="311.676924" style="stroke: #000000; stroke-width: 0.75"/>
      </g>
     </g>
     <g id="text_5">
      <text style="font: 14.5px &quot;Suisse Int&apos;l Mono&quot;; text-anchor: end" x="71.598281" y="316.933174" transform="rotate(-0 71.598281 316.933174)">−20</text>
     </g>
    </g>
    <g id="ytick_2">
     <g id="line2d_5">
      <g>
       <use xlink:href="#m79766e8135" x="81.598281" y="273.362979" style="stroke: #000000; stroke-width: 0.75"/>
      </g>
     </g>
     <g id="text_6">
      <text style="font: 14.5px &quot;Suisse Int&apos;l Mono&quot;; text-anchor: end" x="71.598281" y="278.619229" transform="rotate(-0 71.598281 278.619229)">0</text>
     </g>
    </g>
    <g id="ytick_3">
     <g id="line2d_6">
      <g>
       <use xlink:href="#m79766e8135" x="81.598281" y="235.049033" style="stroke: #000000; stroke-width: 0.75"/>
      </g>
     </g>
     <g id="text_7">
      <text style="font: 14.5px &quot;Suisse Int&apos;l Mono&quot;; text-anchor: end" x="71.598281" y="240.305283" transform="rotate(-0 71.598281 240.305283)">20</text>
     </g>
    </g>
    <g id="ytick_4">
     <g id="line2d_7">
      <g>
       <use xlink:href="#m79766e8135" x="81.598281" y="196.735088" style="stroke: #000000; stroke-width: 0.75"/>
      </g>
     </g>
     <g id="text_8">
      <text style="font: 14.5px &quot;Suisse Int&apos;l Mono&quot;; text-anchor: end" x="71.598281" y="201.991338" transform="rotate(-0 71.598281 201.991338)">40</text>
     </g>
    </g>
    <g id="ytick_5">
     <g id="line2d_8">
      <g>
       <use xlink:href="#m79766e8135" x="81.598281" y="158.421142" style="stroke: #000000; stroke-width: 0.75"/>
      </g>
     </g>
     <g id="text_9">
      <text style="font: 14.5px &quot;Suisse Int&apos;l Mono&quot;; text-anchor: end" x="71.598281" y="163.677392" transform="rotate(-0 71.598281 163.677392)">60</text>
     </g>
    </g>
    <g id="ytick_6">
     <g id="line2d_9">
      <g>
       <use xlink:href="#m79766e8135" x="81.598281" y="120.107197" style="stroke: #000000; stroke-width: 0.75"/>
      </g>
     </g>
     <g id="text_10">
      <text style="font: 14.5px &quot;Suisse Int&apos;l Mono&quot;; text-anchor: end" x="71.598281" y="125.363447" transform="rotate(-0 71.598281 125.363447)">80</text>
     </g>
    </g>
    <g id="ytick_7">
     <g id="line2d_10">
      <g>
       <use xlink:href="#m79766e8135" x="81.598281" y="81.793251" style="stroke: #000000; stroke-width: 0.75"/>
      </g>
     </g>
     <g id="text_11">
      <text style="font: 14.5px &quot;Suisse Int&apos;l Mono&quot;; text-anchor: end" x="71.598281" y="87.049501" transform="rotate(-0 71.598281 87.049501)">100</text>
     </g>
    </g>
    <g id="text_12">
     <text style="font: 500 15px &quot;Suisse Int&apos;l&quot;, sans-serif; text-anchor: middle" x="30.875" y="196.729451" transform="rotate(-90 30.875 196.729451)">Mean curvilinear speed</text>
    </g>
   </g>
   <g id="line2d_11"/>
   <g id="line2d_12"/>
   <g id="patch_3">
    <path d="M 81.598281 312.563736 
L 81.598281 80.895165 
" style="fill: none; stroke: #000000; stroke-width: 0.75; stroke-linejoin: miter; stroke-linecap: square"/>
   </g>
   <g id="patch_4">
    <path d="M 81.598281 312.563736 
L 305.188281 312.563736 
" style="fill: none; stroke: #000000; stroke-width: 0.75; stroke-linejoin: miter; stroke-linecap: square"/>
   </g>
   <g id="legend_1">
    <g id="text_13">
     <text style="font: 600 16px &quot;Suisse Int&apos;l&quot;, sans-serif; text-anchor: start" x="348.201281" y="92.495165" transform="rotate(-0 348.201281 92.495165)">Vessel_type</text>
    </g>
    <g id="line2d_13">
     <path d="M 348.201281 102.795165 
L 461.701281 102.795165 
" style="fill: none; stroke: #bab0a8; stroke-width: 1.5; stroke-linecap: round"/>
    </g>
    <g id="line2d_14">
     <defs>
      <path id="m410abd8b5a" d="M 0 3 
C 0.795609 3 1.55874 2.683901 2.12132 2.12132 
C 2.683901 1.55874 3 0.795609 3 0 
C 3 -0.795609 2.683901 -1.55874 2.12132 -2.12132 
C 1.55874 -2.683901 0.795609 -3 0 -3 
C -0.795609 -3 -1.55874 -2.683901 -2.12132 -2.12132 
C -2.683901 -1.55874 -3 -0.795609 -3 0 
C -3 0.795609 -2.683901 1.55874 -2.12132 2.12132 
C -1.55874 2.683901 -0.795609 3 0 3 
z
" style="stroke: #ffffff; stroke-width: 0.48"/>
     </defs>
     <g>
      <use xlink:href="#m410abd8b5a" x="355.701281" y="116.670165" style="fill: #f28360; stroke: #ffffff; stroke-width: 0.48"/>
     </g>
    </g>
    <g id="text_14">
     <text style="font: 15px &quot;Suisse Int&apos;l&quot;, sans-serif; text-anchor: start" x="369.201281" y="123.045165" transform="rotate(-0 369.201281 123.045165)">Pools | n=145</text>
    </g>
    <g id="line2d_15">
     <defs>
      <path id="m4e86a2116c" d="M 0 3 
C 0.795609 3 1.55874 2.683901 2.12132 2.12132 
C 2.683901 1.55874 3 0.795609 3 0 
C 3 -0.795609 2.683901 -1.55874 2.12132 -2.12132 
C 1.55874 -2.683901 0.795609 -3 0 -3 
C -0.795609 -3 -1.55874 -2.683901 -2.12132 -2.12132 
C -2.683901 -1.55874 -3 -0.795609 -3 0 
C -3 0.795609 -2.683901 1.55874 -2.12132 2.12132 
C -1.55874 2.683901 -0.795609 3 0 3 
z
" style="stroke: #ffffff; stroke-width: 0.48"/>
     </defs>
     <g>
      <use xlink:href="#m4e86a2116c" x="355.701281" y="139.545165" style="fill: #7a77ab; stroke: #ffffff; stroke-width: 0.48"/>
     </g>
    </g>
    <g id="text_15">
     <text style="font: 15px &quot;Suisse Int&apos;l&quot;, sans-serif; text-anchor: start" x="369.201281" y="145.920165" transform="rotate(-0 369.201281 145.920165)">Wells | n=91</text>
    </g>
   </g>
  </g>
  <g id="axes_2">
   <g id="patch_5">
    <path d="M 81.598281 72.906593 
L 305.188281 72.906593 
L 305.188281 32.963736 
L 81.598281 32.963736 
L 81.598281 72.906593 
z
" style="fill: none"/>
   </g>
   <g id="PolyCollection_1">
    <defs>
     <path id="m20309fa072" d="M 89.879392 -306.213451 
L 89.879392 -306.207143 
L 90.919733 -306.207143 
L 91.960074 -306.207143 
L 93.000414 -306.207143 
L 94.040755 -306.207143 
L 95.081095 -306.207143 
L 96.121436 -306.207143 
L 97.161777 -306.207143 
L 98.202117 -306.207143 
L 99.242458 -306.207143 
L 100.282798 -306.207143 
L 101.323139 -306.207143 
L 102.363479 -306.207143 
L 103.40382 -306.207143 
L 104.444161 -306.207143 
L 105.484501 -306.207143 
L 106.524842 -306.207143 
L 107.565182 -306.207143 
L 108.605523 -306.207143 
L 109.645864 -306.207143 
L 110.686204 -306.207143 
L 111.726545 -306.207143 
L 112.766885 -306.207143 
L 113.807226 -306.207143 
L 114.847567 -306.207143 
L 115.887907 -306.207143 
L 116.928248 -306.207143 
L 117.968588 -306.207143 
L 119.008929 -306.207143 
L 120.04927 -306.207143 
L 121.08961 -306.207143 
L 122.129951 -306.207143 
L 123.170291 -306.207143 
L 124.210632 -306.207143 
L 125.250972 -306.207143 
L 126.291313 -306.207143 
L 127.331654 -306.207143 
L 128.371994 -306.207143 
L 129.412335 -306.207143 
L 130.452675 -306.207143 
L 131.493016 -306.207143 
L 132.533357 -306.207143 
L 133.573697 -306.207143 
L 134.614038 -306.207143 
L 135.654378 -306.207143 
L 136.694719 -306.207143 
L 137.73506 -306.207143 
L 138.7754 -306.207143 
L 139.815741 -306.207143 
L 140.856081 -306.207143 
L 141.896422 -306.207143 
L 142.936763 -306.207143 
L 143.977103 -306.207143 
L 145.017444 -306.207143 
L 146.057784 -306.207143 
L 147.098125 -306.207143 
L 148.138466 -306.207143 
L 149.178806 -306.207143 
L 150.219147 -306.207143 
L 151.259487 -306.207143 
L 152.299828 -306.207143 
L 153.340168 -306.207143 
L 154.380509 -306.207143 
L 155.42085 -306.207143 
L 156.46119 -306.207143 
L 157.501531 -306.207143 
L 158.541871 -306.207143 
L 159.582212 -306.207143 
L 160.622553 -306.207143 
L 161.662893 -306.207143 
L 162.703234 -306.207143 
L 163.743574 -306.207143 
L 164.783915 -306.207143 
L 165.824256 -306.207143 
L 166.864596 -306.207143 
L 167.904937 -306.207143 
L 168.945277 -306.207143 
L 169.985618 -306.207143 
L 171.025959 -306.207143 
L 172.066299 -306.207143 
L 173.10664 -306.207143 
L 174.14698 -306.207143 
L 175.187321 -306.207143 
L 176.227661 -306.207143 
L 177.268002 -306.207143 
L 178.308343 -306.207143 
L 179.348683 -306.207143 
L 180.389024 -306.207143 
L 181.429364 -306.207143 
L 182.469705 -306.207143 
L 183.510046 -306.207143 
L 184.550386 -306.207143 
L 185.590727 -306.207143 
L 186.631067 -306.207143 
L 187.671408 -306.207143 
L 188.711749 -306.207143 
L 189.752089 -306.207143 
L 190.79243 -306.207143 
L 191.83277 -306.207143 
L 192.873111 -306.207143 
L 193.913452 -306.207143 
L 194.953792 -306.207143 
L 195.994133 -306.207143 
L 197.034473 -306.207143 
L 198.074814 -306.207143 
L 199.115155 -306.207143 
L 200.155495 -306.207143 
L 201.195836 -306.207143 
L 202.236176 -306.207143 
L 203.276517 -306.207143 
L 204.316857 -306.207143 
L 205.357198 -306.207143 
L 206.397539 -306.207143 
L 207.437879 -306.207143 
L 208.47822 -306.207143 
L 209.51856 -306.207143 
L 210.558901 -306.207143 
L 211.599242 -306.207143 
L 212.639582 -306.207143 
L 213.679923 -306.207143 
L 214.720263 -306.207143 
L 215.760604 -306.207143 
L 216.800945 -306.207143 
L 217.841285 -306.207143 
L 218.881626 -306.207143 
L 219.921966 -306.207143 
L 220.962307 -306.207143 
L 222.002648 -306.207143 
L 223.042988 -306.207143 
L 224.083329 -306.207143 
L 225.123669 -306.207143 
L 226.16401 -306.207143 
L 227.20435 -306.207143 
L 228.244691 -306.207143 
L 229.285032 -306.207143 
L 230.325372 -306.207143 
L 231.365713 -306.207143 
L 232.406053 -306.207143 
L 233.446394 -306.207143 
L 234.486735 -306.207143 
L 235.527075 -306.207143 
L 236.567416 -306.207143 
L 237.607756 -306.207143 
L 238.648097 -306.207143 
L 239.688438 -306.207143 
L 240.728778 -306.207143 
L 241.769119 -306.207143 
L 242.809459 -306.207143 
L 243.8498 -306.207143 
L 244.890141 -306.207143 
L 245.930481 -306.207143 
L 246.970822 -306.207143 
L 248.011162 -306.207143 
L 249.051503 -306.207143 
L 250.091844 -306.207143 
L 251.132184 -306.207143 
L 252.172525 -306.207143 
L 253.212865 -306.207143 
L 254.253206 -306.207143 
L 255.293546 -306.207143 
L 256.333887 -306.207143 
L 257.374228 -306.207143 
L 258.414568 -306.207143 
L 259.454909 -306.207143 
L 260.495249 -306.207143 
L 261.53559 -306.207143 
L 262.575931 -306.207143 
L 263.616271 -306.207143 
L 264.656612 -306.207143 
L 265.696952 -306.207143 
L 266.737293 -306.207143 
L 267.777634 -306.207143 
L 268.817974 -306.207143 
L 269.858315 -306.207143 
L 270.898655 -306.207143 
L 271.938996 -306.207143 
L 272.979337 -306.207143 
L 274.019677 -306.207143 
L 275.060018 -306.207143 
L 276.100358 -306.207143 
L 277.140699 -306.207143 
L 278.181039 -306.207143 
L 279.22138 -306.207143 
L 280.261721 -306.207143 
L 281.302061 -306.207143 
L 282.342402 -306.207143 
L 283.382742 -306.207143 
L 284.423083 -306.207143 
L 285.463424 -306.207143 
L 286.503764 -306.207143 
L 287.544105 -306.207143 
L 288.584445 -306.207143 
L 289.624786 -306.207143 
L 290.665127 -306.207143 
L 291.705467 -306.207143 
L 292.745808 -306.207143 
L 293.786148 -306.207143 
L 294.826489 -306.207143 
L 295.86683 -306.207143 
L 296.90717 -306.207143 
L 296.90717 -306.214949 
L 296.90717 -306.214949 
L 295.86683 -306.217106 
L 294.826489 -306.219792 
L 293.786148 -306.223118 
L 292.745808 -306.227214 
L 291.705467 -306.232229 
L 290.665127 -306.238337 
L 289.624786 -306.245732 
L 288.584445 -306.254636 
L 287.544105 -306.265299 
L 286.503764 -306.277995 
L 285.463424 -306.29303 
L 284.423083 -306.310734 
L 283.382742 -306.331469 
L 282.342402 -306.355619 
L 281.302061 -306.383591 
L 280.261721 -306.415816 
L 279.22138 -306.452735 
L 278.181039 -306.494805 
L 277.140699 -306.542483 
L 276.100358 -306.596229 
L 275.060018 -306.656487 
L 274.019677 -306.723686 
L 272.979337 -306.798228 
L 271.938996 -306.880477 
L 270.898655 -306.970751 
L 269.858315 -307.069313 
L 268.817974 -307.176362 
L 267.777634 -307.292025 
L 266.737293 -307.416349 
L 265.696952 -307.549294 
L 264.656612 -307.690731 
L 263.616271 -307.840436 
L 262.575931 -307.998088 
L 261.53559 -308.163274 
L 260.495249 -308.335483 
L 259.454909 -308.514119 
L 258.414568 -308.6985 
L 257.374228 -308.887872 
L 256.333887 -309.081411 
L 255.293546 -309.278242 
L 254.253206 -309.477444 
L 253.212865 -309.678069 
L 252.172525 -309.879154 
L 251.132184 -310.079731 
L 250.091844 -310.278849 
L 249.051503 -310.475582 
L 248.011162 -310.669044 
L 246.970822 -310.858403 
L 245.930481 -311.042888 
L 244.890141 -311.221805 
L 243.8498 -311.394539 
L 242.809459 -311.560562 
L 241.769119 -311.71944 
L 240.728778 -311.87083 
L 239.688438 -312.014482 
L 238.648097 -312.150242 
L 237.607756 -312.278037 
L 236.567416 -312.397882 
L 235.527075 -312.509863 
L 234.486735 -312.614135 
L 233.446394 -312.710912 
L 232.406053 -312.800455 
L 231.365713 -312.883066 
L 230.325372 -312.959079 
L 229.285032 -313.028847 
L 228.244691 -313.09274 
L 227.20435 -313.151136 
L 226.16401 -313.204416 
L 225.123669 -313.25296 
L 224.083329 -313.297147 
L 223.042988 -313.337351 
L 222.002648 -313.373944 
L 220.962307 -313.407297 
L 219.921966 -313.437779 
L 218.881626 -313.465766 
L 217.841285 -313.491636 
L 216.800945 -313.515775 
L 215.760604 -313.538579 
L 214.720263 -313.560452 
L 213.679923 -313.581806 
L 212.639582 -313.603057 
L 211.599242 -313.624621 
L 210.558901 -313.646908 
L 209.51856 -313.670316 
L 208.47822 -313.695217 
L 207.437879 -313.72195 
L 206.397539 -313.750811 
L 205.357198 -313.782036 
L 204.316857 -313.815796 
L 203.276517 -313.852184 
L 202.236176 -313.891201 
L 201.195836 -313.932758 
L 200.155495 -313.976661 
L 199.115155 -314.022615 
L 198.074814 -314.070219 
L 197.034473 -314.118974 
L 195.994133 -314.168285 
L 194.953792 -314.217477 
L 193.913452 -314.265799 
L 192.873111 -314.312449 
L 191.83277 -314.356584 
L 190.79243 -314.397346 
L 189.752089 -314.43388 
L 188.711749 -314.465356 
L 187.671408 -314.490992 
L 186.631067 -314.510076 
L 185.590727 -314.521984 
L 184.550386 -314.526196 
L 183.510046 -314.522315 
L 182.469705 -314.510076 
L 181.429364 -314.489354 
L 180.389024 -314.460168 
L 179.348683 -314.422678 
L 178.308343 -314.377186 
L 177.268002 -314.324119 
L 176.227661 -314.264025 
L 175.187321 -314.197547 
L 174.14698 -314.125411 
L 173.10664 -314.048401 
L 172.066299 -313.967336 
L 171.025959 -313.883042 
L 169.985618 -313.796334 
L 168.945277 -313.707986 
L 167.904937 -313.618708 
L 166.864596 -313.529131 
L 165.824256 -313.43978 
L 164.783915 -313.351067 
L 163.743574 -313.263273 
L 162.703234 -313.176547 
L 161.662893 -313.090894 
L 160.622553 -313.006185 
L 159.582212 -312.922155 
L 158.541871 -312.838414 
L 157.501531 -312.754462 
L 156.46119 -312.6697 
L 155.42085 -312.583453 
L 154.380509 -312.494989 
L 153.340168 -312.403542 
L 152.299828 -312.308335 
L 151.259487 -312.208608 
L 150.219147 -312.103636 
L 149.178806 -311.992756 
L 148.138466 -311.87539 
L 147.098125 -311.751058 
L 146.057784 -311.619403 
L 145.017444 -311.480197 
L 143.977103 -311.333354 
L 142.936763 -311.17894 
L 141.896422 -311.017167 
L 140.856081 -310.848399 
L 139.815741 -310.673142 
L 138.7754 -310.492039 
L 137.73506 -310.305852 
L 136.694719 -310.115451 
L 135.654378 -309.921796 
L 134.614038 -309.725915 
L 133.573697 -309.528883 
L 132.533357 -309.331805 
L 131.493016 -309.135787 
L 130.452675 -308.941921 
L 129.412335 -308.751262 
L 128.371994 -308.56481 
L 127.331654 -308.383495 
L 126.291313 -308.208158 
L 125.250972 -308.039549 
L 124.210632 -307.878307 
L 123.170291 -307.724962 
L 122.129951 -307.579932 
L 121.08961 -307.443518 
L 120.04927 -307.315909 
L 119.008929 -307.197187 
L 117.968588 -307.087334 
L 116.928248 -306.986238 
L 115.887907 -306.893703 
L 114.847567 -306.809462 
L 113.807226 -306.733183 
L 112.766885 -306.664485 
L 111.726545 -306.602946 
L 110.686204 -306.548116 
L 109.645864 -306.499524 
L 108.605523 -306.456692 
L 107.565182 -306.419138 
L 106.524842 -306.386389 
L 105.484501 -306.357981 
L 104.444161 -306.333471 
L 103.40382 -306.312438 
L 102.363479 -306.294484 
L 101.323139 -306.279242 
L 100.282798 -306.26637 
L 99.242458 -306.255558 
L 98.202117 -306.246526 
L 97.161777 -306.239021 
L 96.121436 -306.232819 
L 95.081095 -306.22772 
L 94.040755 -306.223551 
L 93.000414 -306.220162 
L 91.960074 -306.21742 
L 90.919733 -306.215215 
L 89.879392 -306.213451 
z
" style="stroke: #7a77ab; stroke-width: 2"/>
    </defs>
    <g clip-path="url(#p65361b9fca)">
     <use xlink:href="#m20309fa072" x="0" y="379.113736" style="fill: #7a77ab; fill-opacity: 0.25; stroke: #7a77ab; stroke-width: 2"/>
    </g>
   </g>
   <g id="PolyCollection_2">
    <defs>
     <path id="m77664649c4" d="M 106.166362 -306.258465 
L 106.166362 -306.207143 
L 106.665062 -306.207143 
L 107.163763 -306.207143 
L 107.662463 -306.207143 
L 108.161163 -306.207143 
L 108.659864 -306.207143 
L 109.158564 -306.207143 
L 109.657264 -306.207143 
L 110.155965 -306.207143 
L 110.654665 -306.207143 
L 111.153365 -306.207143 
L 111.652065 -306.207143 
L 112.150766 -306.207143 
L 112.649466 -306.207143 
L 113.148166 -306.207143 
L 113.646867 -306.207143 
L 114.145567 -306.207143 
L 114.644267 -306.207143 
L 115.142968 -306.207143 
L 115.641668 -306.207143 
L 116.140368 -306.207143 
L 116.639069 -306.207143 
L 117.137769 -306.207143 
L 117.636469 -306.207143 
L 118.13517 -306.207143 
L 118.63387 -306.207143 
L 119.13257 -306.207143 
L 119.631271 -306.207143 
L 120.129971 -306.207143 
L 120.628671 -306.207143 
L 121.127371 -306.207143 
L 121.626072 -306.207143 
L 122.124772 -306.207143 
L 122.623472 -306.207143 
L 123.122173 -306.207143 
L 123.620873 -306.207143 
L 124.119573 -306.207143 
L 124.618274 -306.207143 
L 125.116974 -306.207143 
L 125.615674 -306.207143 
L 126.114375 -306.207143 
L 126.613075 -306.207143 
L 127.111775 -306.207143 
L 127.610476 -306.207143 
L 128.109176 -306.207143 
L 128.607876 -306.207143 
L 129.106576 -306.207143 
L 129.605277 -306.207143 
L 130.103977 -306.207143 
L 130.602677 -306.207143 
L 131.101378 -306.207143 
L 131.600078 -306.207143 
L 132.098778 -306.207143 
L 132.597479 -306.207143 
L 133.096179 -306.207143 
L 133.594879 -306.207143 
L 134.09358 -306.207143 
L 134.59228 -306.207143 
L 135.09098 -306.207143 
L 135.589681 -306.207143 
L 136.088381 -306.207143 
L 136.587081 -306.207143 
L 137.085782 -306.207143 
L 137.584482 -306.207143 
L 138.083182 -306.207143 
L 138.581882 -306.207143 
L 139.080583 -306.207143 
L 139.579283 -306.207143 
L 140.077983 -306.207143 
L 140.576684 -306.207143 
L 141.075384 -306.207143 
L 141.574084 -306.207143 
L 142.072785 -306.207143 
L 142.571485 -306.207143 
L 143.070185 -306.207143 
L 143.568886 -306.207143 
L 144.067586 -306.207143 
L 144.566286 -306.207143 
L 145.064987 -306.207143 
L 145.563687 -306.207143 
L 146.062387 -306.207143 
L 146.561088 -306.207143 
L 147.059788 -306.207143 
L 147.558488 -306.207143 
L 148.057188 -306.207143 
L 148.555889 -306.207143 
L 149.054589 -306.207143 
L 149.553289 -306.207143 
L 150.05199 -306.207143 
L 150.55069 -306.207143 
L 151.04939 -306.207143 
L 151.548091 -306.207143 
L 152.046791 -306.207143 
L 152.545491 -306.207143 
L 153.044192 -306.207143 
L 153.542892 -306.207143 
L 154.041592 -306.207143 
L 154.540293 -306.207143 
L 155.038993 -306.207143 
L 155.537693 -306.207143 
L 156.036394 -306.207143 
L 156.535094 -306.207143 
L 157.033794 -306.207143 
L 157.532494 -306.207143 
L 158.031195 -306.207143 
L 158.529895 -306.207143 
L 159.028595 -306.207143 
L 159.527296 -306.207143 
L 160.025996 -306.207143 
L 160.524696 -306.207143 
L 161.023397 -306.207143 
L 161.522097 -306.207143 
L 162.020797 -306.207143 
L 162.519498 -306.207143 
L 163.018198 -306.207143 
L 163.516898 -306.207143 
L 164.015599 -306.207143 
L 164.514299 -306.207143 
L 165.012999 -306.207143 
L 165.511699 -306.207143 
L 166.0104 -306.207143 
L 166.5091 -306.207143 
L 167.0078 -306.207143 
L 167.506501 -306.207143 
L 168.005201 -306.207143 
L 168.503901 -306.207143 
L 169.002602 -306.207143 
L 169.501302 -306.207143 
L 170.000002 -306.207143 
L 170.498703 -306.207143 
L 170.997403 -306.207143 
L 171.496103 -306.207143 
L 171.994804 -306.207143 
L 172.493504 -306.207143 
L 172.992204 -306.207143 
L 173.490905 -306.207143 
L 173.989605 -306.207143 
L 174.488305 -306.207143 
L 174.987005 -306.207143 
L 175.485706 -306.207143 
L 175.984406 -306.207143 
L 176.483106 -306.207143 
L 176.981807 -306.207143 
L 177.480507 -306.207143 
L 177.979207 -306.207143 
L 178.477908 -306.207143 
L 178.976608 -306.207143 
L 179.475308 -306.207143 
L 179.974009 -306.207143 
L 180.472709 -306.207143 
L 180.971409 -306.207143 
L 181.47011 -306.207143 
L 181.96881 -306.207143 
L 182.46751 -306.207143 
L 182.966211 -306.207143 
L 183.464911 -306.207143 
L 183.963611 -306.207143 
L 184.462311 -306.207143 
L 184.961012 -306.207143 
L 185.459712 -306.207143 
L 185.958412 -306.207143 
L 186.457113 -306.207143 
L 186.955813 -306.207143 
L 187.454513 -306.207143 
L 187.953214 -306.207143 
L 188.451914 -306.207143 
L 188.950614 -306.207143 
L 189.449315 -306.207143 
L 189.948015 -306.207143 
L 190.446715 -306.207143 
L 190.945416 -306.207143 
L 191.444116 -306.207143 
L 191.942816 -306.207143 
L 192.441516 -306.207143 
L 192.940217 -306.207143 
L 193.438917 -306.207143 
L 193.937617 -306.207143 
L 194.436318 -306.207143 
L 194.935018 -306.207143 
L 195.433718 -306.207143 
L 195.932419 -306.207143 
L 196.431119 -306.207143 
L 196.929819 -306.207143 
L 197.42852 -306.207143 
L 197.92722 -306.207143 
L 198.42592 -306.207143 
L 198.924621 -306.207143 
L 199.423321 -306.207143 
L 199.922021 -306.207143 
L 200.420722 -306.207143 
L 200.919422 -306.207143 
L 201.418122 -306.207143 
L 201.916822 -306.207143 
L 202.415523 -306.207143 
L 202.914223 -306.207143 
L 203.412923 -306.207143 
L 203.911624 -306.207143 
L 204.410324 -306.207143 
L 204.909024 -306.207143 
L 205.407725 -306.207143 
L 205.407725 -306.212868 
L 205.407725 -306.212868 
L 204.909024 -306.214979 
L 204.410324 -306.217747 
L 203.911624 -306.221331 
L 203.412923 -306.225913 
L 202.914223 -306.231694 
L 202.415523 -306.238893 
L 201.916822 -306.24774 
L 201.418122 -306.258466 
L 200.919422 -306.271295 
L 200.420722 -306.286426 
L 199.922021 -306.304019 
L 199.423321 -306.324182 
L 198.924621 -306.346947 
L 198.42592 -306.372255 
L 197.92722 -306.399944 
L 197.42852 -306.429738 
L 196.929819 -306.461237 
L 196.431119 -306.493922 
L 195.932419 -306.527161 
L 195.433718 -306.560227 
L 194.935018 -306.592317 
L 194.436318 -306.622589 
L 193.937617 -306.650194 
L 193.438917 -306.674317 
L 192.940217 -306.694219 
L 192.441516 -306.709273 
L 191.942816 -306.719005 
L 191.444116 -306.723119 
L 190.945416 -306.721519 
L 190.446715 -306.714316 
L 189.948015 -306.701835 
L 189.449315 -306.684597 
L 188.950614 -306.663308 
L 188.451914 -306.638829 
L 187.953214 -306.612144 
L 187.454513 -306.584335 
L 186.955813 -306.556542 
L 186.457113 -306.529935 
L 185.958412 -306.505693 
L 185.459712 -306.484976 
L 184.961012 -306.46891 
L 184.462311 -306.45858 
L 183.963611 -306.455013 
L 183.464911 -306.459175 
L 182.966211 -306.471963 
L 182.46751 -306.494191 
L 181.96881 -306.526578 
L 181.47011 -306.569731 
L 180.971409 -306.624117 
L 180.472709 -306.690039 
L 179.974009 -306.767606 
L 179.475308 -306.856702 
L 178.976608 -306.956956 
L 178.477908 -307.067724 
L 177.979207 -307.188069 
L 177.480507 -307.316765 
L 176.981807 -307.452295 
L 176.483106 -307.592883 
L 175.984406 -307.736524 
L 175.485706 -307.881037 
L 174.987005 -308.024119 
L 174.488305 -308.163416 
L 173.989605 -308.296592 
L 173.490905 -308.421405 
L 172.992204 -308.535778 
L 172.493504 -308.63786 
L 171.994804 -308.726094 
L 171.496103 -308.79926 
L 170.997403 -308.856516 
L 170.498703 -308.897429 
L 170.000002 -308.921993 
L 169.501302 -308.930636 
L 169.002602 -308.924221 
L 168.503901 -308.904035 
L 168.005201 -308.871768 
L 167.506501 -308.829495 
L 167.0078 -308.779634 
L 166.5091 -308.724919 
L 166.0104 -308.668346 
L 165.511699 -308.613133 
L 165.012999 -308.562662 
L 164.514299 -308.520428 
L 164.015599 -308.489978 
L 163.516898 -308.474852 
L 163.018198 -308.478518 
L 162.519498 -308.504308 
L 162.020797 -308.555347 
L 161.522097 -308.634485 
L 161.023397 -308.744223 
L 160.524696 -308.886636 
L 160.025996 -309.063303 
L 159.527296 -309.275238 
L 159.028595 -309.522824 
L 158.529895 -309.805773 
L 158.031195 -310.123084 
L 157.532494 -310.473047 
L 157.033794 -310.853253 
L 156.535094 -311.260653 
L 156.036394 -311.691636 
L 155.537693 -312.142144 
L 155.038993 -312.607812 
L 154.540293 -313.084129 
L 154.041592 -313.566611 
L 153.542892 -314.050974 
L 153.044192 -314.533305 
L 152.545491 -315.010209 
L 152.046791 -315.478933 
L 151.548091 -315.937461 
L 151.04939 -316.384576 
L 150.55069 -316.819877 
L 150.05199 -317.243782 
L 149.553289 -317.657488 
L 149.054589 -318.062919 
L 148.555889 -318.462654 
L 148.057188 -318.85984 
L 147.558488 -319.258108 
L 147.059788 -319.661468 
L 146.561088 -320.074204 
L 146.062387 -320.500756 
L 145.563687 -320.945594 
L 145.064987 -321.413065 
L 144.566286 -321.907232 
L 144.067586 -322.431697 
L 143.568886 -322.989404 
L 143.070185 -323.582448 
L 142.571485 -324.211878 
L 142.072785 -324.877533 
L 141.574084 -325.577902 
L 141.075384 -326.310032 
L 140.576684 -327.069509 
L 140.077983 -327.850496 
L 139.579283 -328.645857 
L 139.080583 -329.447354 
L 138.581882 -330.245916 
L 138.083182 -331.03197 
L 137.584482 -331.795805 
L 137.085782 -332.527964 
L 136.587081 -333.219631 
L 136.088381 -333.862983 
L 135.589681 -334.451497 
L 135.09098 -334.980177 
L 134.59228 -335.445693 
L 134.09358 -335.846412 
L 133.594879 -336.182335 
L 133.096179 -336.454919 
L 132.597479 -336.666811 
L 132.098778 -336.821508 
L 131.600078 -336.92296 
L 131.101378 -336.975148 
L 130.602677 -336.981657 
L 130.103977 -336.945287 
L 129.605277 -336.867717 
L 129.106576 -336.749249 
L 128.607876 -336.588663 
L 128.109176 -336.383174 
L 127.610476 -336.12853 
L 127.111775 -335.819213 
L 126.613075 -335.448768 
L 126.114375 -335.010218 
L 125.615674 -334.496554 
L 125.116974 -333.901276 
L 124.618274 -333.21893 
L 124.119573 -332.445635 
L 123.620873 -331.579538 
L 123.122173 -330.621188 
L 122.623472 -329.573783 
L 122.124772 -328.443283 
L 121.626072 -327.238375 
L 121.127371 -325.970279 
L 120.628671 -324.652422 
L 120.129971 -323.299982 
L 119.631271 -321.92934 
L 119.13257 -320.557465 
L 118.63387 -319.201278 
L 118.13517 -317.877033 
L 117.636469 -316.599733 
L 117.137769 -315.38265 
L 116.639069 -314.236929 
L 116.140368 -313.171328 
L 115.641668 -312.192087 
L 115.142968 -311.30291 
L 114.644267 -310.505084 
L 114.145567 -309.797675 
L 113.646867 -309.17782 
L 113.148166 -308.641054 
L 112.649466 -308.181679 
L 112.150766 -307.793123 
L 111.652065 -307.468297 
L 111.153365 -307.1999 
L 110.654665 -306.980701 
L 110.155965 -306.803752 
L 109.657264 -306.66256 
L 109.158564 -306.551197 
L 108.659864 -306.464373 
L 108.161163 -306.397458 
L 107.662463 -306.346479 
L 107.163763 -306.308086 
L 106.665062 -306.279502 
L 106.166362 -306.258465 
z
" style="stroke: #f28360; stroke-width: 2"/>
    </defs>
    <g clip-path="url(#p65361b9fca)">
     <use xlink:href="#m77664649c4" x="0" y="379.113736" style="fill: #f28360; fill-opacity: 0.25; stroke: #f28360; stroke-width: 2"/>
    </g>
   </g>
   <g id="matplotlib.axis_3">
    <g id="xtick_4">
     <g id="line2d_16">
      <g>
       <use xlink:href="#m350687f4a2" x="120.037908" y="72.906593" style="stroke: #000000; stroke-width: 0.75"/>
      </g>
     </g>
    </g>
    <g id="xtick_5">
     <g id="line2d_17">
      <g>
       <use xlink:href="#m350687f4a2" x="194.134797" y="72.906593" style="stroke: #000000; stroke-width: 0.75"/>
      </g>
     </g>
    </g>
    <g id="xtick_6">
     <g id="line2d_18">
      <g>
       <use xlink:href="#m350687f4a2" x="268.231687" y="72.906593" style="stroke: #000000; stroke-width: 0.75"/>
      </g>
     </g>
    </g>
   </g>
   <g id="matplotlib.axis_4">
    <g id="ytick_8"/>
    <g id="ytick_9"/>
   </g>
   <g id="line2d_19">
    <path d="M 135.266883 34.5 
L 191.164383 34.5 
" clip-path="url(#p65361b9fca)" style="fill: none; stroke: #000000; stroke-width: 2; stroke-linecap: round"/>
   </g>
   <g id="patch_6">
    <path d="M 81.598281 72.906593 
L 305.188281 72.906593 
" style="fill: none; stroke: #000000; stroke-width: 0.75; stroke-linejoin: miter; stroke-linecap: square"/>
   </g>
   <g id="text_16">
    <text style="font: 20px &quot;Suisse Int&apos;l&quot;, sans-serif; text-anchor: middle" x="163.215633" y="34.5" transform="rotate(-0 163.215633 34.5)">****</text>
   </g>
  </g>
  <g id="axes_3">
   <g id="patch_7">
    <path d="M 312.898281 312.563736 
L 351.448281 312.563736 
L 351.448281 80.895165 
L 312.898281 80.895165 
L 312.898281 312.563736 
z
" style="fill: none"/>
   </g>
   <g id="PolyCollection_3">
    <defs>
     <path id="m1402367c0b" d="M 312.95791 -86.786969 
L 312.898281 -86.786969 
L 312.898281 -87.541829 
L 312.898281 -88.296689 
L 312.898281 -89.051549 
L 312.898281 -89.806409 
L 312.898281 -90.561269 
L 312.898281 -91.316129 
L 312.898281 -92.070989 
L 312.898281 -92.825849 
L 312.898281 -93.580709 
L 312.898281 -94.335569 
L 312.898281 -95.090429 
L 312.898281 -95.845289 
L 312.898281 -96.600149 
L 312.898281 -97.355009 
L 312.898281 -98.109868 
L 312.898281 -98.864728 
L 312.898281 -99.619588 
L 312.898281 -100.374448 
L 312.898281 -101.129308 
L 312.898281 -101.884168 
L 312.898281 -102.639028 
L 312.898281 -103.393888 
L 312.898281 -104.148748 
L 312.898281 -104.903608 
L 312.898281 -105.658468 
L 312.898281 -106.413328 
L 312.898281 -107.168188 
L 312.898281 -107.923048 
L 312.898281 -108.677908 
L 312.898281 -109.432768 
L 312.898281 -110.187628 
L 312.898281 -110.942488 
L 312.898281 -111.697348 
L 312.898281 -112.452208 
L 312.898281 -113.207068 
L 312.898281 -113.961928 
L 312.898281 -114.716787 
L 312.898281 -115.471647 
L 312.898281 -116.226507 
L 312.898281 -116.981367 
L 312.898281 -117.736227 
L 312.898281 -118.491087 
L 312.898281 -119.245947 
L 312.898281 -120.000807 
L 312.898281 -120.755667 
L 312.898281 -121.510527 
L 312.898281 -122.265387 
L 312.898281 -123.020247 
L 312.898281 -123.775107 
L 312.898281 -124.529967 
L 312.898281 -125.284827 
L 312.898281 -126.039687 
L 312.898281 -126.794547 
L 312.898281 -127.549407 
L 312.898281 -128.304267 
L 312.898281 -129.059127 
L 312.898281 -129.813987 
L 312.898281 -130.568847 
L 312.898281 -131.323706 
L 312.898281 -132.078566 
L 312.898281 -132.833426 
L 312.898281 -133.588286 
L 312.898281 -134.343146 
L 312.898281 -135.098006 
L 312.898281 -135.852866 
L 312.898281 -136.607726 
L 312.898281 -137.362586 
L 312.898281 -138.117446 
L 312.898281 -138.872306 
L 312.898281 -139.627166 
L 312.898281 -140.382026 
L 312.898281 -141.136886 
L 312.898281 -141.891746 
L 312.898281 -142.646606 
L 312.898281 -143.401466 
L 312.898281 -144.156326 
L 312.898281 -144.911186 
L 312.898281 -145.666046 
L 312.898281 -146.420906 
L 312.898281 -147.175766 
L 312.898281 -147.930625 
L 312.898281 -148.685485 
L 312.898281 -149.440345 
L 312.898281 -150.195205 
L 312.898281 -150.950065 
L 312.898281 -151.704925 
L 312.898281 -152.459785 
L 312.898281 -153.214645 
L 312.898281 -153.969505 
L 312.898281 -154.724365 
L 312.898281 -155.479225 
L 312.898281 -156.234085 
L 312.898281 -156.988945 
L 312.898281 -157.743805 
L 312.898281 -158.498665 
L 312.898281 -159.253525 
L 312.898281 -160.008385 
L 312.898281 -160.763245 
L 312.898281 -161.518105 
L 312.898281 -162.272965 
L 312.898281 -163.027825 
L 312.898281 -163.782685 
L 312.898281 -164.537544 
L 312.898281 -165.292404 
L 312.898281 -166.047264 
L 312.898281 -166.802124 
L 312.898281 -167.556984 
L 312.898281 -168.311844 
L 312.898281 -169.066704 
L 312.898281 -169.821564 
L 312.898281 -170.576424 
L 312.898281 -171.331284 
L 312.898281 -172.086144 
L 312.898281 -172.841004 
L 312.898281 -173.595864 
L 312.898281 -174.350724 
L 312.898281 -175.105584 
L 312.898281 -175.860444 
L 312.898281 -176.615304 
L 312.898281 -177.370164 
L 312.898281 -178.125024 
L 312.898281 -178.879884 
L 312.898281 -179.634744 
L 312.898281 -180.389604 
L 312.898281 -181.144464 
L 312.898281 -181.899323 
L 312.898281 -182.654183 
L 312.898281 -183.409043 
L 312.898281 -184.163903 
L 312.898281 -184.918763 
L 312.898281 -185.673623 
L 312.898281 -186.428483 
L 312.898281 -187.183343 
L 312.898281 -187.938203 
L 312.898281 -188.693063 
L 312.898281 -189.447923 
L 312.898281 -190.202783 
L 312.898281 -190.957643 
L 312.898281 -191.712503 
L 312.898281 -192.467363 
L 312.898281 -193.222223 
L 312.898281 -193.977083 
L 312.898281 -194.731943 
L 312.898281 -195.486803 
L 312.898281 -196.241663 
L 312.898281 -196.996523 
L 312.898281 -197.751383 
L 312.898281 -198.506242 
L 312.898281 -199.261102 
L 312.898281 -200.015962 
L 312.898281 -200.770822 
L 312.898281 -201.525682 
L 312.898281 -202.280542 
L 312.898281 -203.035402 
L 312.898281 -203.790262 
L 312.898281 -204.545122 
L 312.898281 -205.299982 
L 312.898281 -206.054842 
L 312.898281 -206.809702 
L 312.898281 -207.564562 
L 312.898281 -208.319422 
L 312.898281 -209.074282 
L 312.898281 -209.829142 
L 312.898281 -210.584002 
L 312.898281 -211.338862 
L 312.898281 -212.093722 
L 312.898281 -212.848582 
L 312.898281 -213.603442 
L 312.898281 -214.358302 
L 312.898281 -215.113161 
L 312.898281 -215.868021 
L 312.898281 -216.622881 
L 312.898281 -217.377741 
L 312.898281 -218.132601 
L 312.898281 -218.887461 
L 312.898281 -219.642321 
L 312.898281 -220.397181 
L 312.898281 -221.152041 
L 312.898281 -221.906901 
L 312.898281 -222.661761 
L 312.898281 -223.416621 
L 312.898281 -224.171481 
L 312.898281 -224.926341 
L 312.898281 -225.681201 
L 312.898281 -226.436061 
L 312.898281 -227.190921 
L 312.898281 -227.945781 
L 312.898281 -228.700641 
L 312.898281 -229.455501 
L 312.898281 -230.210361 
L 312.898281 -230.965221 
L 312.898281 -231.72008 
L 312.898281 -232.47494 
L 312.898281 -233.2298 
L 312.898281 -233.98466 
L 312.898281 -234.73952 
L 312.898281 -235.49438 
L 312.898281 -236.24924 
L 312.898281 -237.0041 
L 312.905827 -237.0041 
L 312.905827 -237.0041 
L 312.908352 -236.24924 
L 312.911596 -235.49438 
L 312.91572 -234.73952 
L 312.920907 -233.98466 
L 312.927361 -233.2298 
L 312.935308 -232.47494 
L 312.944988 -231.72008 
L 312.95665 -230.965221 
L 312.97055 -230.210361 
L 312.986935 -229.455501 
L 313.006037 -228.700641 
L 313.028059 -227.945781 
L 313.053162 -227.190921 
L 313.081457 -226.436061 
L 313.112984 -225.681201 
L 313.147708 -224.926341 
L 313.185508 -224.171481 
L 313.226175 -223.416621 
L 313.269404 -222.661761 
L 313.314804 -221.906901 
L 313.361903 -221.152041 
L 313.410161 -220.397181 
L 313.458984 -219.642321 
L 313.507749 -218.887461 
L 313.555821 -218.132601 
L 313.602579 -217.377741 
L 313.647432 -216.622881 
L 313.689845 -215.868021 
L 313.729349 -215.113161 
L 313.765554 -214.358302 
L 313.798151 -213.603442 
L 313.826914 -212.848582 
L 313.851692 -212.093722 
L 313.872401 -211.338862 
L 313.889007 -210.584002 
L 313.901513 -209.829142 
L 313.909947 -209.074282 
L 313.914346 -208.319422 
L 313.914752 -207.564562 
L 313.911206 -206.809702 
L 313.903749 -206.054842 
L 313.892434 -205.299982 
L 313.877335 -204.545122 
L 313.858564 -203.790262 
L 313.836288 -203.035402 
L 313.810748 -202.280542 
L 313.782275 -201.525682 
L 313.751303 -200.770822 
L 313.718377 -200.015962 
L 313.684152 -199.261102 
L 313.649389 -198.506242 
L 313.614943 -197.751383 
L 313.581741 -196.996523 
L 313.550758 -196.241663 
L 313.52299 -195.486803 
L 313.499417 -194.731943 
L 313.480978 -193.977083 
L 313.468535 -193.222223 
L 313.462843 -192.467363 
L 313.464531 -191.712503 
L 313.474081 -190.957643 
L 313.491814 -190.202783 
L 313.517887 -189.447923 
L 313.552295 -188.693063 
L 313.594875 -187.938203 
L 313.645323 -187.183343 
L 313.703214 -186.428483 
L 313.768023 -185.673623 
L 313.839149 -184.918763 
L 313.915948 -184.163903 
L 313.997755 -183.409043 
L 314.083914 -182.654183 
L 314.173802 -181.899323 
L 314.26685 -181.144464 
L 314.36256 -180.389604 
L 314.460524 -179.634744 
L 314.560428 -178.879884 
L 314.662058 -178.125024 
L 314.765304 -177.370164 
L 314.870154 -176.615304 
L 314.976683 -175.860444 
L 315.085048 -175.105584 
L 315.195465 -174.350724 
L 315.308197 -173.595864 
L 315.42353 -172.841004 
L 315.541753 -172.086144 
L 315.663132 -171.331284 
L 315.787891 -170.576424 
L 315.916186 -169.821564 
L 316.048093 -169.066704 
L 316.183593 -168.311844 
L 316.322565 -167.556984 
L 316.464791 -166.802124 
L 316.609973 -166.047264 
L 316.757751 -165.292404 
L 316.907745 -164.537544 
L 317.059602 -163.782685 
L 317.213053 -163.027825 
L 317.367985 -162.272965 
L 317.524505 -161.518105 
L 317.683021 -160.763245 
L 317.844307 -160.008385 
L 318.009565 -159.253525 
L 318.180475 -158.498665 
L 318.359222 -157.743805 
L 318.548505 -156.988945 
L 318.751515 -156.234085 
L 318.971891 -155.479225 
L 319.21364 -154.724365 
L 319.481034 -153.969505 
L 319.778479 -153.214645 
L 320.110361 -152.459785 
L 320.48088 -151.704925 
L 320.89387 -150.950065 
L 321.352623 -150.195205 
L 321.859717 -149.440345 
L 322.416862 -148.685485 
L 323.024772 -147.930625 
L 323.683068 -147.175766 
L 324.390219 -146.420906 
L 325.143528 -145.666046 
L 325.939164 -144.911186 
L 326.772236 -144.156326 
L 327.636908 -143.401466 
L 328.52656 -142.646606 
L 329.433968 -141.891746 
L 330.351515 -141.136886 
L 331.271403 -140.382026 
L 332.185876 -139.627166 
L 333.087426 -138.872306 
L 333.968982 -138.117446 
L 334.824069 -137.362586 
L 335.646939 -136.607726 
L 336.432655 -135.852866 
L 337.177142 -135.098006 
L 337.877192 -134.343146 
L 338.530442 -133.588286 
L 339.135302 -132.833426 
L 339.690875 -132.078566 
L 340.196836 -131.323706 
L 340.653309 -130.568847 
L 341.060727 -129.813987 
L 341.419689 -129.059127 
L 341.730822 -128.304267 
L 341.994639 -127.549407 
L 342.211419 -126.794547 
L 342.381089 -126.039687 
L 342.503135 -125.284827 
L 342.576522 -124.529967 
L 342.59965 -123.775107 
L 342.570337 -123.020247 
L 342.485838 -122.265387 
L 342.342899 -121.510527 
L 342.137854 -120.755667 
L 341.866769 -120.000807 
L 341.525621 -119.245947 
L 341.110514 -118.491087 
L 340.617929 -117.736227 
L 340.044988 -116.981367 
L 339.389729 -116.226507 
L 338.651363 -115.471647 
L 337.830513 -114.716787 
L 336.929406 -113.961928 
L 335.952002 -113.207068 
L 334.904055 -112.452208 
L 333.793094 -111.697348 
L 332.628312 -110.942488 
L 331.420379 -110.187628 
L 330.181177 -109.432768 
L 328.923462 -108.677908 
L 327.66049 -107.923048 
L 326.40561 -107.168188 
L 325.171852 -106.413328 
L 323.971531 -105.658468 
L 322.815892 -104.903608 
L 321.714804 -104.148748 
L 320.676526 -103.393888 
L 319.707552 -102.639028 
L 318.812532 -101.884168 
L 317.994272 -101.129308 
L 317.253814 -100.374448 
L 316.590566 -99.619588 
L 316.002495 -98.864728 
L 315.486345 -98.109868 
L 315.03788 -97.355009 
L 314.652139 -96.600149 
L 314.323669 -95.845289 
L 314.046762 -95.090429 
L 313.815649 -94.335569 
L 313.624674 -93.580709 
L 313.468429 -92.825849 
L 313.341864 -92.070989 
L 313.240352 -91.316129 
L 313.159737 -90.561269 
L 313.096345 -89.806409 
L 313.046986 -89.051549 
L 313.00893 -88.296689 
L 312.979876 -87.541829 
L 312.95791 -86.786969 
z
" style="stroke: #7a77ab; stroke-width: 2"/>
    </defs>
    <g clip-path="url(#pf189d5a2e7)">
     <use xlink:href="#m1402367c0b" x="0" y="379.113736" style="fill: #7a77ab; fill-opacity: 0.25; stroke: #7a77ab; stroke-width: 2"/>
    </g>
   </g>
   <g id="PolyCollection_4">
    <defs>
     <path id="m1a1667f20a" d="M 312.915406 -75.130317 
L 312.898281 -75.130317 
L 312.898281 -76.208247 
L 312.898281 -77.286176 
L 312.898281 -78.364105 
L 312.898281 -79.442035 
L 312.898281 -80.519964 
L 312.898281 -81.597893 
L 312.898281 -82.675823 
L 312.898281 -83.753752 
L 312.898281 -84.831681 
L 312.898281 -85.909611 
L 312.898281 -86.98754 
L 312.898281 -88.065469 
L 312.898281 -89.143399 
L 312.898281 -90.221328 
L 312.898281 -91.299257 
L 312.898281 -92.377187 
L 312.898281 -93.455116 
L 312.898281 -94.533045 
L 312.898281 -95.610975 
L 312.898281 -96.688904 
L 312.898281 -97.766833 
L 312.898281 -98.844763 
L 312.898281 -99.922692 
L 312.898281 -101.000621 
L 312.898281 -102.078551 
L 312.898281 -103.15648 
L 312.898281 -104.234409 
L 312.898281 -105.312339 
L 312.898281 -106.390268 
L 312.898281 -107.468197 
L 312.898281 -108.546127 
L 312.898281 -109.624056 
L 312.898281 -110.701985 
L 312.898281 -111.779915 
L 312.898281 -112.857844 
L 312.898281 -113.935773 
L 312.898281 -115.013703 
L 312.898281 -116.091632 
L 312.898281 -117.169561 
L 312.898281 -118.247491 
L 312.898281 -119.32542 
L 312.898281 -120.403349 
L 312.898281 -121.481279 
L 312.898281 -122.559208 
L 312.898281 -123.637137 
L 312.898281 -124.715067 
L 312.898281 -125.792996 
L 312.898281 -126.870925 
L 312.898281 -127.948855 
L 312.898281 -129.026784 
L 312.898281 -130.104713 
L 312.898281 -131.182643 
L 312.898281 -132.260572 
L 312.898281 -133.338501 
L 312.898281 -134.416431 
L 312.898281 -135.49436 
L 312.898281 -136.572289 
L 312.898281 -137.650219 
L 312.898281 -138.728148 
L 312.898281 -139.806077 
L 312.898281 -140.884007 
L 312.898281 -141.961936 
L 312.898281 -143.039865 
L 312.898281 -144.117795 
L 312.898281 -145.195724 
L 312.898281 -146.273653 
L 312.898281 -147.351583 
L 312.898281 -148.429512 
L 312.898281 -149.507441 
L 312.898281 -150.585371 
L 312.898281 -151.6633 
L 312.898281 -152.741229 
L 312.898281 -153.819158 
L 312.898281 -154.897088 
L 312.898281 -155.975017 
L 312.898281 -157.052946 
L 312.898281 -158.130876 
L 312.898281 -159.208805 
L 312.898281 -160.286734 
L 312.898281 -161.364664 
L 312.898281 -162.442593 
L 312.898281 -163.520522 
L 312.898281 -164.598452 
L 312.898281 -165.676381 
L 312.898281 -166.75431 
L 312.898281 -167.83224 
L 312.898281 -168.910169 
L 312.898281 -169.988098 
L 312.898281 -171.066028 
L 312.898281 -172.143957 
L 312.898281 -173.221886 
L 312.898281 -174.299816 
L 312.898281 -175.377745 
L 312.898281 -176.455674 
L 312.898281 -177.533604 
L 312.898281 -178.611533 
L 312.898281 -179.689462 
L 312.898281 -180.767392 
L 312.898281 -181.845321 
L 312.898281 -182.92325 
L 312.898281 -184.00118 
L 312.898281 -185.079109 
L 312.898281 -186.157038 
L 312.898281 -187.234968 
L 312.898281 -188.312897 
L 312.898281 -189.390826 
L 312.898281 -190.468756 
L 312.898281 -191.546685 
L 312.898281 -192.624614 
L 312.898281 -193.702544 
L 312.898281 -194.780473 
L 312.898281 -195.858402 
L 312.898281 -196.936332 
L 312.898281 -198.014261 
L 312.898281 -199.09219 
L 312.898281 -200.17012 
L 312.898281 -201.248049 
L 312.898281 -202.325978 
L 312.898281 -203.403908 
L 312.898281 -204.481837 
L 312.898281 -205.559766 
L 312.898281 -206.637696 
L 312.898281 -207.715625 
L 312.898281 -208.793554 
L 312.898281 -209.871484 
L 312.898281 -210.949413 
L 312.898281 -212.027342 
L 312.898281 -213.105272 
L 312.898281 -214.183201 
L 312.898281 -215.26113 
L 312.898281 -216.33906 
L 312.898281 -217.416989 
L 312.898281 -218.494918 
L 312.898281 -219.572848 
L 312.898281 -220.650777 
L 312.898281 -221.728706 
L 312.898281 -222.806636 
L 312.898281 -223.884565 
L 312.898281 -224.962494 
L 312.898281 -226.040424 
L 312.898281 -227.118353 
L 312.898281 -228.196282 
L 312.898281 -229.274212 
L 312.898281 -230.352141 
L 312.898281 -231.43007 
L 312.898281 -232.508 
L 312.898281 -233.585929 
L 312.898281 -234.663858 
L 312.898281 -235.741788 
L 312.898281 -236.819717 
L 312.898281 -237.897646 
L 312.898281 -238.975575 
L 312.898281 -240.053505 
L 312.898281 -241.131434 
L 312.898281 -242.209363 
L 312.898281 -243.287293 
L 312.898281 -244.365222 
L 312.898281 -245.443151 
L 312.898281 -246.521081 
L 312.898281 -247.59901 
L 312.898281 -248.676939 
L 312.898281 -249.754869 
L 312.898281 -250.832798 
L 312.898281 -251.910727 
L 312.898281 -252.988657 
L 312.898281 -254.066586 
L 312.898281 -255.144515 
L 312.898281 -256.222445 
L 312.898281 -257.300374 
L 312.898281 -258.378303 
L 312.898281 -259.456233 
L 312.898281 -260.534162 
L 312.898281 -261.612091 
L 312.898281 -262.690021 
L 312.898281 -263.76795 
L 312.898281 -264.845879 
L 312.898281 -265.923809 
L 312.898281 -267.001738 
L 312.898281 -268.079667 
L 312.898281 -269.157597 
L 312.898281 -270.235526 
L 312.898281 -271.313455 
L 312.898281 -272.391385 
L 312.898281 -273.469314 
L 312.898281 -274.547243 
L 312.898281 -275.625173 
L 312.898281 -276.703102 
L 312.898281 -277.781031 
L 312.898281 -278.858961 
L 312.898281 -279.93689 
L 312.898281 -281.014819 
L 312.898281 -282.092749 
L 312.898281 -283.170678 
L 312.898281 -284.248607 
L 312.898281 -285.326537 
L 312.898281 -286.404466 
L 312.898281 -287.482395 
L 312.898281 -288.560325 
L 312.898281 -289.638254 
L 312.902662 -289.638254 
L 312.902662 -289.638254 
L 312.90406 -288.560325 
L 312.905848 -287.482395 
L 312.908114 -286.404466 
L 312.910965 -285.326537 
L 312.914522 -284.248607 
L 312.918922 -283.170678 
L 312.924323 -282.092749 
L 312.930896 -281.014819 
L 312.938831 -279.93689 
L 312.948331 -278.858961 
L 312.959612 -277.781031 
L 312.972899 -276.703102 
L 312.988419 -275.625173 
L 313.0064 -274.547243 
L 313.027061 -273.469314 
L 313.05061 -272.391385 
L 313.077233 -271.313455 
L 313.107089 -270.235526 
L 313.140303 -269.157597 
L 313.176963 -268.079667 
L 313.217111 -267.001738 
L 313.260744 -265.923809 
L 313.307812 -264.845879 
L 313.358217 -263.76795 
L 313.411822 -262.690021 
L 313.46845 -261.612091 
L 313.5279 -260.534162 
L 313.589949 -259.456233 
L 313.654371 -258.378303 
L 313.720947 -257.300374 
L 313.789475 -256.222445 
L 313.859789 -255.144515 
L 313.931764 -254.066586 
L 314.005329 -252.988657 
L 314.08047 -251.910727 
L 314.157237 -250.832798 
L 314.235743 -249.754869 
L 314.316156 -248.676939 
L 314.398697 -247.59901 
L 314.483627 -246.521081 
L 314.571232 -245.443151 
L 314.661815 -244.365222 
L 314.755674 -243.287293 
L 314.853091 -242.209363 
L 314.954316 -241.131434 
L 315.05956 -240.053505 
L 315.168981 -238.975575 
L 315.282684 -237.897646 
L 315.400717 -236.819717 
L 315.523072 -235.741788 
L 315.649693 -234.663858 
L 315.780484 -233.585929 
L 315.915312 -232.508 
L 316.054025 -231.43007 
L 316.196458 -230.352141 
L 316.342437 -229.274212 
L 316.491792 -228.196282 
L 316.644353 -227.118353 
L 316.79995 -226.040424 
L 316.958409 -224.962494 
L 317.119546 -223.884565 
L 317.283151 -222.806636 
L 317.448982 -221.728706 
L 317.616751 -220.650777 
L 317.786115 -219.572848 
L 317.956666 -218.494918 
L 318.127938 -217.416989 
L 318.2994 -216.33906 
L 318.470476 -215.26113 
L 318.640562 -214.183201 
L 318.809047 -213.105272 
L 318.975349 -212.027342 
L 319.138948 -210.949413 
L 319.299426 -209.871484 
L 319.456499 -208.793554 
L 319.610057 -207.715625 
L 319.760186 -206.637696 
L 319.907186 -205.559766 
L 320.051581 -204.481837 
L 320.19411 -203.403908 
L 320.335703 -202.325978 
L 320.477453 -201.248049 
L 320.620566 -200.17012 
L 320.766304 -199.09219 
L 320.915922 -198.014261 
L 321.070602 -196.936332 
L 321.231386 -195.858402 
L 321.399116 -194.780473 
L 321.574382 -193.702544 
L 321.757487 -192.624614 
L 321.948417 -191.546685 
L 322.14684 -190.468756 
L 322.352116 -189.390826 
L 322.563323 -188.312897 
L 322.7793 -187.234968 
L 322.998699 -186.157038 
L 323.220048 -185.079109 
L 323.441812 -184.00118 
L 323.662462 -182.92325 
L 323.88053 -181.845321 
L 324.094665 -180.767392 
L 324.303666 -179.689462 
L 324.506516 -178.611533 
L 324.702392 -177.533604 
L 324.890664 -176.455674 
L 325.070883 -175.377745 
L 325.242754 -174.299816 
L 325.406108 -173.221886 
L 325.560857 -172.143957 
L 325.706957 -171.066028 
L 325.844365 -169.988098 
L 325.973 -168.910169 
L 326.092709 -167.83224 
L 326.203239 -166.75431 
L 326.30422 -165.676381 
L 326.395146 -164.598452 
L 326.475382 -163.520522 
L 326.544163 -162.442593 
L 326.600605 -161.364664 
L 326.643735 -160.286734 
L 326.672505 -159.208805 
L 326.685834 -158.130876 
L 326.682637 -157.052946 
L 326.661867 -155.975017 
L 326.622554 -154.897088 
L 326.563848 -153.819158 
L 326.485056 -152.741229 
L 326.385683 -151.6633 
L 326.265465 -150.585371 
L 326.124401 -149.507441 
L 325.962771 -148.429512 
L 325.781153 -147.351583 
L 325.580432 -146.273653 
L 325.361786 -145.195724 
L 325.126678 -144.117795 
L 324.876825 -143.039865 
L 324.614159 -141.961936 
L 324.340781 -140.884007 
L 324.058902 -139.806077 
L 323.770784 -138.728148 
L 323.47867 -137.650219 
L 323.184718 -136.572289 
L 322.890935 -135.49436 
L 322.599117 -134.416431 
L 322.310797 -133.338501 
L 322.0272 -132.260572 
L 321.749215 -131.182643 
L 321.47738 -130.104713 
L 321.211878 -129.026784 
L 320.952555 -127.948855 
L 320.698943 -126.870925 
L 320.450307 -125.792996 
L 320.205693 -124.715067 
L 319.96399 -123.637137 
L 319.723997 -122.559208 
L 319.484491 -121.481279 
L 319.244299 -120.403349 
L 319.002359 -119.32542 
L 318.757779 -118.247491 
L 318.509892 -117.169561 
L 318.258286 -116.091632 
L 318.002839 -115.013703 
L 317.743723 -113.935773 
L 317.481411 -112.857844 
L 317.216657 -111.779915 
L 316.950474 -110.701985 
L 316.684093 -109.624056 
L 316.418922 -108.546127 
L 316.156494 -107.468197 
L 315.898407 -106.390268 
L 315.646275 -105.312339 
L 315.401671 -104.234409 
L 315.166073 -103.15648 
L 314.940824 -102.078551 
L 314.727091 -101.000621 
L 314.52584 -99.922692 
L 314.337811 -98.844763 
L 314.163512 -97.766833 
L 314.003218 -96.688904 
L 313.856976 -95.610975 
L 313.724621 -94.533045 
L 313.605794 -93.455116 
L 313.499971 -92.377187 
L 313.406491 -91.299257 
L 313.32458 -90.221328 
L 313.253387 -89.143399 
L 313.192012 -88.065469 
L 313.13953 -86.98754 
L 313.095016 -85.909611 
L 313.057567 -84.831681 
L 313.026318 -83.753752 
L 313.000454 -82.675823 
L 312.979221 -81.597893 
L 312.961931 -80.519964 
L 312.947966 -79.442035 
L 312.936779 -78.364105 
L 312.92789 -77.286176 
L 312.920883 -76.208247 
L 312.915406 -75.130317 
z
" style="stroke: #f28360; stroke-width: 2"/>
    </defs>
    <g clip-path="url(#pf189d5a2e7)">
     <use xlink:href="#m1a1667f20a" x="0" y="379.113736" style="fill: #f28360; fill-opacity: 0.25; stroke: #f28360; stroke-width: 2"/>
    </g>
   </g>
   <g id="matplotlib.axis_5">
    <g id="xtick_7"/>
    <g id="xtick_8"/>
   </g>
   <g id="matplotlib.axis_6">
    <g id="ytick_10">
     <g id="line2d_20">
      <g>
       <use xlink:href="#m79766e8135" x="312.898281" y="311.676924" style="stroke: #000000; stroke-width: 0.75"/>
      </g>
     </g>
    </g>
    <g id="ytick_11">
     <g id="line2d_21">
      <g>
       <use xlink:href="#m79766e8135" x="312.898281" y="273.362979" style="stroke: #000000; stroke-width: 0.75"/>
      </g>
     </g>
    </g>
    <g id="ytick_12">
     <g id="line2d_22">
      <g>
       <use xlink:href="#m79766e8135" x="312.898281" y="235.049033" style="stroke: #000000; stroke-width: 0.75"/>
      </g>
     </g>
    </g>
    <g id="ytick_13">
     <g id="line2d_23">
      <g>
       <use xlink:href="#m79766e8135" x="312.898281" y="196.735088" style="stroke: #000000; stroke-width: 0.75"/>
      </g>
     </g>
    </g>
    <g id="ytick_14">
     <g id="line2d_24">
      <g>
       <use xlink:href="#m79766e8135" x="312.898281" y="158.421142" style="stroke: #000000; stroke-width: 0.75"/>
      </g>
     </g>
    </g>
    <g id="ytick_15">
     <g id="line2d_25">
      <g>
       <use xlink:href="#m79766e8135" x="312.898281" y="120.107197" style="stroke: #000000; stroke-width: 0.75"/>
      </g>
     </g>
    </g>
    <g id="ytick_16">
     <g id="line2d_26">
      <g>
       <use xlink:href="#m79766e8135" x="312.898281" y="81.793251" style="stroke: #000000; stroke-width: 0.75"/>
      </g>
     </g>
    </g>
   </g>
   <g id="line2d_27">
    <path d="M 349.965589 261.600829 
L 349.965589 203.683686 
" clip-path="url(#pf189d5a2e7)" style="fill: none; stroke: #000000; stroke-width: 2; stroke-linecap: round"/>
   </g>
   <g id="patch_8">
    <path d="M 312.898281 312.563736 
L 312.898281 80.895165 
" style="fill: none; stroke: #000000; stroke-width: 0.75; stroke-linejoin: miter; stroke-linecap: square"/>
   </g>
   <g id="text_17">
    <text style="font: 20px &quot;Suisse Int&apos;l&quot;, sans-serif" transform="translate(346.052127 218.561008) rotate(-270)">****</text>
   </g>
  </g>
 </g>
 <defs>
  <clipPath id="p67f11f46cb">
   <rect x="81.598281" y="80.895165" width="223.59" height="231.668571"/>
  </clipPath>
  <clipPath id="p65361b9fca">
   <rect x="81.598281" y="32.963736" width="223.59" height="39.942857"/>
  </clipPath>
  <clipPath id="pf189d5a2e7">
   <rect x="312.898281" y="80.895165" width="38.55" height="231.668571"/>
  </clipPath>
 </defs>
</svg>
