<?xml version="1.0" encoding="utf-8" standalone="no"?>
<!DOCTYPE svg PUBLIC "-//W3C//DTD SVG 1.1//EN"
  "http://www.w3.org/Graphics/SVG/1.1/DTD/svg11.dtd">
<svg xmlns:xlink="http://www.w3.org/1999/xlink" width="954.691304pt" height="378.799603pt" viewBox="0 0 954.691304 378.799603" xmlns="http://www.w3.org/2000/svg" version="1.1">
 <metadata>
  <rdf:RDF xmlns:dc="http://purl.org/dc/elements/1.1/" xmlns:cc="http://creativecommons.org/ns#" xmlns:rdf="http://www.w3.org/1999/02/22-rdf-syntax-ns#">
   <cc:Work>
    <dc:type rdf:resource="http://purl.org/dc/dcmitype/StillImage"/>
    <dc:date>2024-08-02T12:16:22.546807</dc:date>
    <dc:format>image/svg+xml</dc:format>
    <dc:creator>
     <cc:Agent>
      <dc:title>Matplotlib v3.8.4, https://matplotlib.org/</dc:title>
     </cc:Agent>
    </dc:creator>
   </cc:Work>
  </rdf:RDF>
 </metadata>
 <defs>
  <style type="text/css">*{stroke-linejoin: round; stroke-linecap: butt}</style>
 </defs>
 <g id="figure_1">
  <g id="patch_1">
   <path d="M 0 378.799603 
L 954.691304 378.799603 
L 954.691304 0 
L 0 0 
L 0 378.799603 
z
" style="fill: none"/>
  </g>
  <g id="axes_1">
   <g id="patch_2">
    <path d="M 81.598281 311.799603 
L 301.763703 311.799603 
L 301.763703 87.33837 
L 81.598281 87.33837 
L 81.598281 311.799603 
z
" style="fill: none"/>
   </g>
   <g id="PolyCollection_1">
    <defs>
     <path id="m689773ebd4" d="M 180.35561 -80.092855 
L 177.82933 -80.092855 
L 176.472564 -81.762559 
L 174.571619 -83.432264 
L 172.002827 -85.101969 
L 168.655451 -86.771673 
L 164.450178 -88.441378 
L 159.358446 -90.111083 
L 153.418971 -91.780787 
L 146.747474 -93.450492 
L 139.53619 -95.120197 
L 132.041321 -96.789901 
L 124.559042 -98.459606 
L 117.393236 -100.129311 
L 110.820387 -101.799015 
L 105.058155 -103.46872 
L 100.243761 -105.138425 
L 96.426449 -106.80813 
L 93.575264 -108.477834 
L 91.60002 -110.147539 
L 90.380357 -111.817244 
L 89.796163 -113.486948 
L 89.752556 -115.156653 
L 90.194323 -116.826358 
L 91.107554 -118.496062 
L 92.509436 -120.165767 
L 94.429967 -121.835472 
L 96.890895 -123.505176 
L 99.887331 -125.174881 
L 103.376217 -126.844586 
L 107.273772 -128.51429 
L 111.461762 -130.183995 
L 115.800485 -131.8537 
L 120.145259 -133.523404 
L 124.362866 -135.193109 
L 128.344997 -136.862814 
L 132.016752 -138.532518 
L 135.339611 -140.202223 
L 138.309504 -141.871928 
L 140.951392 -143.541632 
L 143.312102 -145.211337 
L 145.452845 -146.881042 
L 147.442249 -148.550746 
L 149.350065 -150.220451 
L 151.241308 -151.890156 
L 153.17056 -153.55986 
L 155.176548 -155.229565 
L 157.277583 -156.89927 
L 159.468752 -158.568974 
L 161.721749 -160.238679 
L 163.987775 -161.908384 
L 166.203304 -163.578088 
L 168.297856 -165.247793 
L 170.202539 -166.917498 
L 171.858075 -168.587202 
L 173.22129 -170.256907 
L 174.269421 -171.926612 
L 175.002046 -173.596316 
L 175.440686 -175.266021 
L 175.626314 -176.935726 
L 175.615101 -178.60543 
L 175.47279 -180.275135 
L 175.268243 -181.94484 
L 175.066813 -183.614544 
L 174.924307 -185.284249 
L 174.882277 -186.953954 
L 174.965235 -188.623658 
L 175.180068 -190.293363 
L 175.517589 -191.963068 
L 175.955815 -193.632772 
L 176.464311 -195.302477 
L 177.008856 -196.972182 
L 177.555722 -198.641886 
L 178.075042 -200.311591 
L 178.542956 -201.981296 
L 178.942501 -203.651 
L 179.263414 -205.320705 
L 179.501172 -206.99041 
L 179.655714 -208.660114 
L 179.730218 -210.329819 
L 179.730268 -211.999524 
L 179.663539 -213.669228 
L 179.539956 -215.338933 
L 179.372079 -217.008638 
L 179.175369 -218.678342 
L 178.967984 -220.348047 
L 178.769845 -222.017752 
L 178.600948 -223.687456 
L 178.479149 -225.357161 
L 178.417842 -227.026866 
L 178.424069 -228.69657 
L 178.497533 -230.366275 
L 178.630798 -232.03598 
L 178.810639 -233.705684 
L 179.020274 -235.375389 
L 179.241961 -237.045094 
L 179.459437 -238.714798 
L 179.659752 -240.384503 
L 179.834255 -242.054208 
L 179.978706 -243.723912 
L 180.092697 -245.393617 
L 180.35561 -245.393617 
L 180.35561 -245.393617 
L 180.35561 -243.723912 
L 180.35561 -242.054208 
L 180.35561 -240.384503 
L 180.35561 -238.714798 
L 180.35561 -237.045094 
L 180.35561 -235.375389 
L 180.35561 -233.705684 
L 180.35561 -232.03598 
L 180.35561 -230.366275 
L 180.35561 -228.69657 
L 180.35561 -227.026866 
L 180.35561 -225.357161 
L 180.35561 -223.687456 
L 180.35561 -222.017752 
L 180.35561 -220.348047 
L 180.35561 -218.678342 
L 180.35561 -217.008638 
L 180.35561 -215.338933 
L 180.35561 -213.669228 
L 180.35561 -211.999524 
L 180.35561 -210.329819 
L 180.35561 -208.660114 
L 180.35561 -206.99041 
L 180.35561 -205.320705 
L 180.35561 -203.651 
L 180.35561 -201.981296 
L 180.35561 -200.311591 
L 180.35561 -198.641886 
L 180.35561 -196.972182 
L 180.35561 -195.302477 
L 180.35561 -193.632772 
L 180.35561 -191.963068 
L 180.35561 -190.293363 
L 180.35561 -188.623658 
L 180.35561 -186.953954 
L 180.35561 -185.284249 
L 180.35561 -183.614544 
L 180.35561 -181.94484 
L 180.35561 -180.275135 
L 180.35561 -178.60543 
L 180.35561 -176.935726 
L 180.35561 -175.266021 
L 180.35561 -173.596316 
L 180.35561 -171.926612 
L 180.35561 -170.256907 
L 180.35561 -168.587202 
L 180.35561 -166.917498 
L 180.35561 -165.247793 
L 180.35561 -163.578088 
L 180.35561 -161.908384 
L 180.35561 -160.238679 
L 180.35561 -158.568974 
L 180.35561 -156.89927 
L 180.35561 -155.229565 
L 180.35561 -153.55986 
L 180.35561 -151.890156 
L 180.35561 -150.220451 
L 180.35561 -148.550746 
L 180.35561 -146.881042 
L 180.35561 -145.211337 
L 180.35561 -143.541632 
L 180.35561 -141.871928 
L 180.35561 -140.202223 
L 180.35561 -138.532518 
L 180.35561 -136.862814 
L 180.35561 -135.193109 
L 180.35561 -133.523404 
L 180.35561 -131.8537 
L 180.35561 -130.183995 
L 180.35561 -128.51429 
L 180.35561 -126.844586 
L 180.35561 -125.174881 
L 180.35561 -123.505176 
L 180.35561 -121.835472 
L 180.35561 -120.165767 
L 180.35561 -118.496062 
L 180.35561 -116.826358 
L 180.35561 -115.156653 
L 180.35561 -113.486948 
L 180.35561 -111.817244 
L 180.35561 -110.147539 
L 180.35561 -108.477834 
L 180.35561 -106.80813 
L 180.35561 -105.138425 
L 180.35561 -103.46872 
L 180.35561 -101.799015 
L 180.35561 -100.129311 
L 180.35561 -98.459606 
L 180.35561 -96.789901 
L 180.35561 -95.120197 
L 180.35561 -93.450492 
L 180.35561 -91.780787 
L 180.35561 -90.111083 
L 180.35561 -88.441378 
L 180.35561 -86.771673 
L 180.35561 -85.101969 
L 180.35561 -83.432264 
L 180.35561 -81.762559 
L 180.35561 -80.092855 
z
"/>
    </defs>
    <g clip-path="url(#p2cd35318a2)">
     <use xlink:href="#m689773ebd4" x="0" y="378.799603" style="fill: #b4bba7"/>
    </g>
   </g>
   <g id="PolyCollection_2">
    <defs>
     <path id="m6faf96afdc" d="M 205.960927 -75.313379 
L 203.006374 -75.313379 
L 203.006374 -76.769911 
L 203.006374 -78.226443 
L 203.006374 -79.682975 
L 203.006374 -81.139508 
L 203.006374 -82.59604 
L 203.006374 -84.052572 
L 203.006374 -85.509104 
L 203.006374 -86.965636 
L 203.006374 -88.422168 
L 203.006374 -89.8787 
L 203.006374 -91.335232 
L 203.006374 -92.791765 
L 203.006374 -94.248297 
L 203.006374 -95.704829 
L 203.006374 -97.161361 
L 203.006374 -98.617893 
L 203.006374 -100.074425 
L 203.006374 -101.530957 
L 203.006374 -102.98749 
L 203.006374 -104.444022 
L 203.006374 -105.900554 
L 203.006374 -107.357086 
L 203.006374 -108.813618 
L 203.006374 -110.27015 
L 203.006374 -111.726682 
L 203.006374 -113.183214 
L 203.006374 -114.639747 
L 203.006374 -116.096279 
L 203.006374 -117.552811 
L 203.006374 -119.009343 
L 203.006374 -120.465875 
L 203.006374 -121.922407 
L 203.006374 -123.378939 
L 203.006374 -124.835472 
L 203.006374 -126.292004 
L 203.006374 -127.748536 
L 203.006374 -129.205068 
L 203.006374 -130.6616 
L 203.006374 -132.118132 
L 203.006374 -133.574664 
L 203.006374 -135.031196 
L 203.006374 -136.487729 
L 203.006374 -137.944261 
L 203.006374 -139.400793 
L 203.006374 -140.857325 
L 203.006374 -142.313857 
L 203.006374 -143.770389 
L 203.006374 -145.226921 
L 203.006374 -146.683454 
L 203.006374 -148.139986 
L 203.006374 -149.596518 
L 203.006374 -151.05305 
L 203.006374 -152.509582 
L 203.006374 -153.966114 
L 203.006374 -155.422646 
L 203.006374 -156.879178 
L 203.006374 -158.335711 
L 203.006374 -159.792243 
L 203.006374 -161.248775 
L 203.006374 -162.705307 
L 203.006374 -164.161839 
L 203.006374 -165.618371 
L 203.006374 -167.074903 
L 203.006374 -168.531436 
L 203.006374 -169.987968 
L 203.006374 -171.4445 
L 203.006374 -172.901032 
L 203.006374 -174.357564 
L 203.006374 -175.814096 
L 203.006374 -177.270628 
L 203.006374 -178.72716 
L 203.006374 -180.183693 
L 203.006374 -181.640225 
L 203.006374 -183.096757 
L 203.006374 -184.553289 
L 203.006374 -186.009821 
L 203.006374 -187.466353 
L 203.006374 -188.922885 
L 203.006374 -190.379418 
L 203.006374 -191.83595 
L 203.006374 -193.292482 
L 203.006374 -194.749014 
L 203.006374 -196.205546 
L 203.006374 -197.662078 
L 203.006374 -199.11861 
L 203.006374 -200.575143 
L 203.006374 -202.031675 
L 203.006374 -203.488207 
L 203.006374 -204.944739 
L 203.006374 -206.401271 
L 203.006374 -207.857803 
L 203.006374 -209.314335 
L 203.006374 -210.770867 
L 203.006374 -212.2274 
L 203.006374 -213.683932 
L 203.006374 -215.140464 
L 203.006374 -216.596996 
L 203.006374 -218.053528 
L 203.006374 -219.51006 
L 204.001958 -219.51006 
L 204.001958 -219.51006 
L 204.293809 -218.053528 
L 204.647594 -216.596996 
L 205.069117 -215.140464 
L 205.562665 -213.683932 
L 206.130423 -212.2274 
L 206.771952 -210.770867 
L 207.483753 -209.314335 
L 208.259 -207.857803 
L 209.087483 -206.401271 
L 209.955794 -204.944739 
L 210.847773 -203.488207 
L 211.745214 -202.031675 
L 212.628766 -200.575143 
L 213.478995 -199.11861 
L 214.277508 -197.662078 
L 215.008055 -196.205546 
L 215.657522 -194.749014 
L 216.216742 -193.292482 
L 216.681066 -191.83595 
L 217.050675 -190.379418 
L 217.330627 -188.922885 
L 217.530678 -187.466353 
L 217.664906 -186.009821 
L 217.751208 -184.553289 
L 217.810703 -183.096757 
L 217.867091 -181.640225 
L 217.945992 -180.183693 
L 218.074258 -178.72716 
L 218.279262 -177.270628 
L 218.58814 -175.814096 
L 219.026975 -174.357564 
L 219.619916 -172.901032 
L 220.388252 -171.4445 
L 221.349485 -169.987968 
L 222.516456 -168.531436 
L 223.896613 -167.074903 
L 225.491509 -165.618371 
L 227.296604 -164.161839 
L 229.301445 -162.705307 
L 231.490234 -161.248775 
L 233.842796 -159.792243 
L 236.335856 -158.335711 
L 238.944545 -156.879178 
L 241.643996 -155.422646 
L 244.410848 -153.966114 
L 247.22453 -152.509582 
L 250.06815 -151.05305 
L 252.928897 -149.596518 
L 255.797883 -148.139986 
L 258.669435 -146.683454 
L 261.539894 -145.226921 
L 264.406043 -143.770389 
L 267.263345 -142.313857 
L 270.104192 -140.857325 
L 272.916376 -139.400793 
L 275.681987 -137.944261 
L 278.376879 -136.487729 
L 280.970817 -135.031196 
L 283.428302 -133.574664 
L 285.710025 -132.118132 
L 287.774801 -130.6616 
L 289.581797 -129.205068 
L 291.092803 -127.748536 
L 292.274327 -126.292004 
L 293.099289 -124.835472 
L 293.548157 -123.378939 
L 293.609428 -121.922407 
L 293.279462 -120.465875 
L 292.561719 -119.009343 
L 291.46556 -117.552811 
L 290.004789 -116.096279 
L 288.196158 -114.639747 
L 286.058032 -113.183214 
L 283.609399 -111.726682 
L 280.869334 -110.27015 
L 277.85697 -108.813618 
L 274.591951 -107.357086 
L 271.095265 -105.900554 
L 267.390302 -104.444022 
L 263.50394 -102.98749 
L 259.467464 -101.530957 
L 255.317114 -100.074425 
L 251.094134 -98.617893 
L 246.844232 -97.161361 
L 242.616445 -95.704829 
L 238.461492 -94.248297 
L 234.42975 -92.791765 
L 230.569041 -91.335232 
L 226.92245 -89.8787 
L 223.526389 -88.422168 
L 220.409076 -86.965636 
L 217.589568 -85.509104 
L 215.07741 -84.052572 
L 212.872895 -82.59604 
L 210.967878 -81.139508 
L 209.347011 -79.682975 
L 207.989285 -78.226443 
L 206.869699 -76.769911 
L 205.960927 -75.313379 
z
"/>
    </defs>
    <g clip-path="url(#p2cd35318a2)">
     <use xlink:href="#m6faf96afdc" x="0" y="378.799603" style="fill: #5c6d71"/>
    </g>
   </g>
   <g id="matplotlib.axis_1">
    <g id="xtick_1">
     <g id="line2d_1">
      <defs>
       <path id="m3c1140e747" d="M 0 0 
L 0 5 
" style="stroke: #000000; stroke-width: 0.75"/>
      </defs>
      <g>
       <use xlink:href="#m3c1140e747" x="135.054083" y="311.799603" style="stroke: #000000; stroke-width: 0.75"/>
      </g>
     </g>
     <g id="text_1">
      <text style="font: 15px &quot;Suisse Int&apos;l&quot;, sans-serif; text-anchor: middle" x="135.054083" y="332.674603" transform="rotate(-0 135.054083 332.674603)">top</text>
     </g>
    </g>
    <g id="xtick_2">
     <g id="line2d_2">
      <g>
       <use xlink:href="#m3c1140e747" x="248.307901" y="311.799603" style="stroke: #000000; stroke-width: 0.75"/>
      </g>
     </g>
     <g id="text_2">
      <text style="font: 15px &quot;Suisse Int&apos;l&quot;, sans-serif; text-anchor: middle" x="248.307901" y="332.674603" transform="rotate(-0 248.307901 332.674603)">middle</text>
     </g>
    </g>
    <g id="text_3">
     <text style="font: 500 15px &quot;Suisse Int&apos;l&quot;, sans-serif; text-anchor: middle" x="191.680992" y="356.174603" transform="rotate(-0 191.680992 356.174603)">Position in tube</text>
    </g>
   </g>
   <g id="matplotlib.axis_2">
    <g id="ytick_1">
     <g id="line2d_3">
      <defs>
       <path id="m81169f9b70" d="M 0 0 
L -5 0 
" style="stroke: #000000; stroke-width: 0.75"/>
      </defs>
      <g>
       <use xlink:href="#m81169f9b70" x="81.598281" y="281.357914" style="stroke: #000000; stroke-width: 0.75"/>
      </g>
     </g>
     <g id="text_4">
      <text style="font: 14.5px &quot;Suisse Int&apos;l Mono&quot;; text-anchor: end" x="71.598281" y="286.614164" transform="rotate(-0 71.598281 286.614164)">0.0</text>
     </g>
    </g>
    <g id="ytick_2">
     <g id="line2d_4">
      <g>
       <use xlink:href="#m81169f9b70" x="81.598281" y="227.217959" style="stroke: #000000; stroke-width: 0.75"/>
      </g>
     </g>
     <g id="text_5">
      <text style="font: 14.5px &quot;Suisse Int&apos;l Mono&quot;; text-anchor: end" x="71.598281" y="232.474209" transform="rotate(-0 71.598281 232.474209)">0.2</text>
     </g>
    </g>
    <g id="ytick_3">
     <g id="line2d_5">
      <g>
       <use xlink:href="#m81169f9b70" x="81.598281" y="173.078004" style="stroke: #000000; stroke-width: 0.75"/>
      </g>
     </g>
     <g id="text_6">
      <text style="font: 14.5px &quot;Suisse Int&apos;l Mono&quot;; text-anchor: end" x="71.598281" y="178.334254" transform="rotate(-0 71.598281 178.334254)">0.4</text>
     </g>
    </g>
    <g id="ytick_4">
     <g id="line2d_6">
      <g>
       <use xlink:href="#m81169f9b70" x="81.598281" y="118.938048" style="stroke: #000000; stroke-width: 0.75"/>
      </g>
     </g>
     <g id="text_7">
      <text style="font: 14.5px &quot;Suisse Int&apos;l Mono&quot;; text-anchor: end" x="71.598281" y="124.194298" transform="rotate(-0 71.598281 124.194298)">0.6</text>
     </g>
    </g>
    <g id="text_8">
     <text style="font: 500 15px &quot;Suisse Int&apos;l&quot;, sans-serif; text-anchor: middle" x="30.875" y="199.568987" transform="rotate(-90 30.875 199.568987)">Confinement ratio</text>
    </g>
   </g>
   <g id="line2d_7">
    <path d="M 177.85561 281.039349 
L 177.85561 213.901594 
" clip-path="url(#p2cd35318a2)" style="fill: none; stroke: #3e3e3e; stroke-width: 1.666667; stroke-linecap: round"/>
   </g>
   <g id="line2d_8">
    <path d="M 177.85561 270.262381 
L 177.85561 244.754801 
" clip-path="url(#p2cd35318a2)" style="fill: none; stroke: #3e3e3e; stroke-width: 5; stroke-linecap: round"/>
   </g>
   <g id="line2d_9">
    <path d="M 177.85561 258.660654 
" clip-path="url(#p2cd35318a2)" style="fill: none; stroke: #3e3e3e; stroke-width: 2; stroke-linecap: round"/>
    <defs>
     <path id="md65f1485d5" d="M 2.083333 0 
L -2.083333 -0 
" style="stroke: #ffffff"/>
    </defs>
    <g clip-path="url(#p2cd35318a2)">
     <use xlink:href="#md65f1485d5" x="177.85561" y="258.660654" style="fill: #ffffff; stroke: #ffffff"/>
    </g>
   </g>
   <g id="line2d_10">
    <path d="M 205.506374 279.915474 
L 205.506374 196.547523 
" clip-path="url(#p2cd35318a2)" style="fill: none; stroke: #3e3e3e; stroke-width: 1.666667; stroke-linecap: round"/>
   </g>
   <g id="line2d_11">
    <path d="M 205.506374 265.373254 
L 205.506374 234.057851 
" clip-path="url(#p2cd35318a2)" style="fill: none; stroke: #3e3e3e; stroke-width: 5; stroke-linecap: round"/>
   </g>
   <g id="line2d_12">
    <path d="M 205.506374 251.936277 
" clip-path="url(#p2cd35318a2)" style="fill: none; stroke: #3e3e3e; stroke-width: 2; stroke-linecap: round"/>
    <g clip-path="url(#p2cd35318a2)">
     <use xlink:href="#md65f1485d5" x="205.506374" y="251.936277" style="fill: #ffffff; stroke: #ffffff"/>
    </g>
   </g>
   <g id="line2d_13">
    <path d="M 169.030228 95.651749 
L 214.331755 95.651749 
" clip-path="url(#p2cd35318a2)" style="fill: none; stroke: #000000; stroke-width: 2; stroke-linecap: round"/>
   </g>
   <g id="patch_3">
    <path d="M 81.598281 311.799603 
L 81.598281 87.33837 
" style="fill: none; stroke: #000000; stroke-width: 0.75; stroke-linejoin: miter; stroke-linecap: square"/>
   </g>
   <g id="patch_4">
    <path d="M 81.598281 311.799603 
L 301.763703 311.799603 
" style="fill: none; stroke: #000000; stroke-width: 0.75; stroke-linejoin: miter; stroke-linecap: square"/>
   </g>
   <g id="text_9">
    <text style="font: 16px &quot;Suisse Int&apos;l&quot;, sans-serif; text-anchor: middle" x="191.680992" y="86.366441" transform="rotate(-0 191.680992 86.366441)">ns</text>
   </g>
  </g>
  <g id="axes_2">
   <g id="patch_5">
    <path d="M 369.659378 311.799603 
L 589.824799 311.799603 
L 589.824799 87.33837 
L 369.659378 87.33837 
L 369.659378 311.799603 
z
" style="fill: none"/>
   </g>
   <g id="PolyCollection_3">
    <defs>
     <path id="m3b5ee65660" d="M 468.416707 -75.313379 
L 466.355467 -75.313379 
L 465.595335 -77.025613 
L 464.627947 -78.737847 
L 463.423958 -80.450081 
L 461.958647 -82.162315 
L 460.214834 -83.874549 
L 458.185688 -85.586783 
L 455.877034 -87.299017 
L 453.308778 -89.011251 
L 450.515093 -90.723485 
L 447.543155 -92.435719 
L 444.450357 -94.147953 
L 441.300186 -95.860187 
L 438.157092 -97.572421 
L 435.080905 -99.284655 
L 432.121437 -100.996889 
L 429.313918 -102.709123 
L 426.675863 -104.421357 
L 424.20578 -106.133591 
L 421.88393 -107.845825 
L 419.675075 -109.558059 
L 417.532934 -111.270293 
L 415.405852 -112.982527 
L 413.243048 -114.694761 
L 411.000757 -116.406995 
L 408.647592 -118.119229 
L 406.168548 -119.831463 
L 403.567222 -121.543697 
L 400.866018 -123.255931 
L 398.10432 -124.968165 
L 395.334851 -126.680399 
L 392.618636 -128.392633 
L 390.01916 -130.104867 
L 387.596425 -131.817101 
L 385.401629 -133.529336 
L 383.473145 -135.24157 
L 381.834281 -136.953804 
L 380.493102 -138.666038 
L 379.444259 -140.378272 
L 378.672478 -142.090506 
L 378.157079 -143.80274 
L 377.87674 -145.514974 
L 377.813653 -147.227208 
L 377.956349 -148.939442 
L 378.300723 -150.651676 
L 378.849143 -152.36391 
L 379.607909 -154.076144 
L 380.583687 -155.788378 
L 381.779735 -157.500612 
L 383.192794 -159.212846 
L 384.811366 -160.92508 
L 386.615759 -162.637314 
L 388.579904 -164.349548 
L 390.674515 -166.061782 
L 392.87087 -167.774016 
L 395.14435 -169.48625 
L 397.476931 -171.198484 
L 399.858103 -172.910718 
L 402.284045 -174.622952 
L 404.755304 -176.335186 
L 407.273578 -178.04742 
L 409.838354 -179.759654 
L 412.444201 -181.471888 
L 415.07928 -183.184122 
L 417.725384 -184.896356 
L 420.359413 -186.60859 
L 422.955913 -188.320824 
L 425.490091 -190.033058 
L 427.940666 -191.745292 
L 430.29201 -193.457526 
L 432.535252 -195.16976 
L 434.668255 -196.881994 
L 436.694633 -198.594228 
L 438.622143 -200.306462 
L 440.460857 -202.018696 
L 442.221486 -203.73093 
L 443.914133 -205.443164 
L 445.547559 -207.155398 
L 447.128949 -208.867632 
L 448.663999 -210.579866 
L 450.157142 -212.2921 
L 451.61171 -214.004334 
L 453.02993 -215.716568 
L 454.412726 -217.428802 
L 455.75939 -219.141036 
L 457.06726 -220.85327 
L 458.331543 -222.565504 
L 459.545397 -224.277738 
L 460.700342 -225.989972 
L 461.786967 -227.702206 
L 462.795853 -229.41444 
L 463.718573 -231.126674 
L 464.548609 -232.838908 
L 465.282063 -234.551142 
L 465.918057 -236.263376 
L 466.458796 -237.97561 
L 466.909306 -239.687844 
L 467.276927 -241.400078 
L 467.570639 -243.112312 
L 467.800339 -244.824546 
L 468.416707 -244.824546 
L 468.416707 -244.824546 
L 468.416707 -243.112312 
L 468.416707 -241.400078 
L 468.416707 -239.687844 
L 468.416707 -237.97561 
L 468.416707 -236.263376 
L 468.416707 -234.551142 
L 468.416707 -232.838908 
L 468.416707 -231.126674 
L 468.416707 -229.41444 
L 468.416707 -227.702206 
L 468.416707 -225.989972 
L 468.416707 -224.277738 
L 468.416707 -222.565504 
L 468.416707 -220.85327 
L 468.416707 -219.141036 
L 468.416707 -217.428802 
L 468.416707 -215.716568 
L 468.416707 -214.004334 
L 468.416707 -212.2921 
L 468.416707 -210.579866 
L 468.416707 -208.867632 
L 468.416707 -207.155398 
L 468.416707 -205.443164 
L 468.416707 -203.73093 
L 468.416707 -202.018696 
L 468.416707 -200.306462 
L 468.416707 -198.594228 
L 468.416707 -196.881994 
L 468.416707 -195.16976 
L 468.416707 -193.457526 
L 468.416707 -191.745292 
L 468.416707 -190.033058 
L 468.416707 -188.320824 
L 468.416707 -186.60859 
L 468.416707 -184.896356 
L 468.416707 -183.184122 
L 468.416707 -181.471888 
L 468.416707 -179.759654 
L 468.416707 -178.04742 
L 468.416707 -176.335186 
L 468.416707 -174.622952 
L 468.416707 -172.910718 
L 468.416707 -171.198484 
L 468.416707 -169.48625 
L 468.416707 -167.774016 
L 468.416707 -166.061782 
L 468.416707 -164.349548 
L 468.416707 -162.637314 
L 468.416707 -160.92508 
L 468.416707 -159.212846 
L 468.416707 -157.500612 
L 468.416707 -155.788378 
L 468.416707 -154.076144 
L 468.416707 -152.36391 
L 468.416707 -150.651676 
L 468.416707 -148.939442 
L 468.416707 -147.227208 
L 468.416707 -145.514974 
L 468.416707 -143.80274 
L 468.416707 -142.090506 
L 468.416707 -140.378272 
L 468.416707 -138.666038 
L 468.416707 -136.953804 
L 468.416707 -135.24157 
L 468.416707 -133.529336 
L 468.416707 -131.817101 
L 468.416707 -130.104867 
L 468.416707 -128.392633 
L 468.416707 -126.680399 
L 468.416707 -124.968165 
L 468.416707 -123.255931 
L 468.416707 -121.543697 
L 468.416707 -119.831463 
L 468.416707 -118.119229 
L 468.416707 -116.406995 
L 468.416707 -114.694761 
L 468.416707 -112.982527 
L 468.416707 -111.270293 
L 468.416707 -109.558059 
L 468.416707 -107.845825 
L 468.416707 -106.133591 
L 468.416707 -104.421357 
L 468.416707 -102.709123 
L 468.416707 -100.996889 
L 468.416707 -99.284655 
L 468.416707 -97.572421 
L 468.416707 -95.860187 
L 468.416707 -94.147953 
L 468.416707 -92.435719 
L 468.416707 -90.723485 
L 468.416707 -89.011251 
L 468.416707 -87.299017 
L 468.416707 -85.586783 
L 468.416707 -83.874549 
L 468.416707 -82.162315 
L 468.416707 -80.450081 
L 468.416707 -78.737847 
L 468.416707 -77.025613 
L 468.416707 -75.313379 
z
"/>
    </defs>
    <g clip-path="url(#pc923a1ccf6)">
     <use xlink:href="#m3b5ee65660" x="0" y="378.799603" style="fill: #b4bba7"/>
    </g>
   </g>
   <g id="PolyCollection_4">
    <defs>
     <path id="mbffa331a57" d="M 491.991072 -78.726301 
L 491.067471 -78.726301 
L 491.067471 -80.102671 
L 491.067471 -81.479041 
L 491.067471 -82.855411 
L 491.067471 -84.231781 
L 491.067471 -85.608151 
L 491.067471 -86.984521 
L 491.067471 -88.360891 
L 491.067471 -89.73726 
L 491.067471 -91.11363 
L 491.067471 -92.49 
L 491.067471 -93.86637 
L 491.067471 -95.24274 
L 491.067471 -96.61911 
L 491.067471 -97.99548 
L 491.067471 -99.37185 
L 491.067471 -100.748219 
L 491.067471 -102.124589 
L 491.067471 -103.500959 
L 491.067471 -104.877329 
L 491.067471 -106.253699 
L 491.067471 -107.630069 
L 491.067471 -109.006439 
L 491.067471 -110.382809 
L 491.067471 -111.759179 
L 491.067471 -113.135548 
L 491.067471 -114.511918 
L 491.067471 -115.888288 
L 491.067471 -117.264658 
L 491.067471 -118.641028 
L 491.067471 -120.017398 
L 491.067471 -121.393768 
L 491.067471 -122.770138 
L 491.067471 -124.146507 
L 491.067471 -125.522877 
L 491.067471 -126.899247 
L 491.067471 -128.275617 
L 491.067471 -129.651987 
L 491.067471 -131.028357 
L 491.067471 -132.404727 
L 491.067471 -133.781097 
L 491.067471 -135.157466 
L 491.067471 -136.533836 
L 491.067471 -137.910206 
L 491.067471 -139.286576 
L 491.067471 -140.662946 
L 491.067471 -142.039316 
L 491.067471 -143.415686 
L 491.067471 -144.792056 
L 491.067471 -146.168425 
L 491.067471 -147.544795 
L 491.067471 -148.921165 
L 491.067471 -150.297535 
L 491.067471 -151.673905 
L 491.067471 -153.050275 
L 491.067471 -154.426645 
L 491.067471 -155.803015 
L 491.067471 -157.179384 
L 491.067471 -158.555754 
L 491.067471 -159.932124 
L 491.067471 -161.308494 
L 491.067471 -162.684864 
L 491.067471 -164.061234 
L 491.067471 -165.437604 
L 491.067471 -166.813974 
L 491.067471 -168.190344 
L 491.067471 -169.566713 
L 491.067471 -170.943083 
L 491.067471 -172.319453 
L 491.067471 -173.695823 
L 491.067471 -175.072193 
L 491.067471 -176.448563 
L 491.067471 -177.824933 
L 491.067471 -179.201303 
L 491.067471 -180.577672 
L 491.067471 -181.954042 
L 491.067471 -183.330412 
L 491.067471 -184.706782 
L 491.067471 -186.083152 
L 491.067471 -187.459522 
L 491.067471 -188.835892 
L 491.067471 -190.212262 
L 491.067471 -191.588631 
L 491.067471 -192.965001 
L 491.067471 -194.341371 
L 491.067471 -195.717741 
L 491.067471 -197.094111 
L 491.067471 -198.470481 
L 491.067471 -199.846851 
L 491.067471 -201.223221 
L 491.067471 -202.59959 
L 491.067471 -203.97596 
L 491.067471 -205.35233 
L 491.067471 -206.7287 
L 491.067471 -208.10507 
L 491.067471 -209.48144 
L 491.067471 -210.85781 
L 491.067471 -212.23418 
L 491.067471 -213.61055 
L 491.067471 -214.986919 
L 492.312246 -214.986919 
L 492.312246 -214.986919 
L 492.694831 -213.61055 
L 493.163671 -212.23418 
L 493.728162 -210.85781 
L 494.395842 -209.48144 
L 495.171532 -208.10507 
L 496.056517 -206.7287 
L 497.04784 -205.35233 
L 498.137796 -203.97596 
L 499.313714 -202.59959 
L 500.558071 -201.223221 
L 501.848993 -199.846851 
L 503.161119 -198.470481 
L 504.466813 -197.094111 
L 505.737624 -195.717741 
L 506.945916 -194.341371 
L 508.066543 -192.965001 
L 509.078437 -191.588631 
L 509.966018 -190.212262 
L 510.720309 -188.835892 
L 511.339708 -187.459522 
L 511.83037 -186.083152 
L 512.206189 -184.706782 
L 512.488407 -183.330412 
L 512.70487 -181.954042 
L 512.888987 -180.577672 
L 513.078439 -179.201303 
L 513.313709 -177.824933 
L 513.636483 -176.448563 
L 514.087994 -175.072193 
L 514.707375 -173.695823 
L 515.530081 -172.319453 
L 516.586451 -170.943083 
L 517.900459 -169.566713 
L 519.488707 -168.190344 
L 521.359683 -166.813974 
L 523.51332 -165.437604 
L 525.940856 -164.061234 
L 528.625009 -162.684864 
L 531.540462 -161.308494 
L 534.654658 -159.932124 
L 537.928907 -158.555754 
L 541.319788 -157.179384 
L 544.78081 -155.803015 
L 548.264275 -154.426645 
L 551.723257 -153.050275 
L 555.113532 -151.673905 
L 558.395309 -150.297535 
L 561.53456 -148.921165 
L 564.503774 -147.544795 
L 567.281979 -146.168425 
L 569.853992 -144.792056 
L 572.208915 -143.415686 
L 574.338046 -142.039316 
L 576.232469 -140.662946 
L 577.880666 -139.286576 
L 579.26656 -137.910206 
L 580.368332 -136.533836 
L 581.158301 -135.157466 
L 581.604017 -133.781097 
L 581.670525 -132.404727 
L 581.323582 -131.028357 
L 580.533476 -129.651987 
L 579.278932 -128.275617 
L 577.550624 -126.899247 
L 575.353777 -125.522877 
L 572.709523 -124.146507 
L 569.654781 -122.770138 
L 566.240683 -121.393768 
L 562.529717 -120.017398 
L 558.591929 -118.641028 
L 554.50064 -117.264658 
L 550.328159 -115.888288 
L 546.141933 -114.511918 
L 542.001495 -113.135548 
L 537.956439 -111.759179 
L 534.045498 -110.382809 
L 530.296655 -109.006439 
L 526.728132 -107.630069 
L 523.349975 -106.253699 
L 520.165978 -104.877329 
L 517.175654 -103.500959 
L 514.376025 -102.124589 
L 511.763073 -100.748219 
L 509.332741 -99.37185 
L 507.081495 -97.99548 
L 505.006458 -96.61911 
L 503.105235 -95.24274 
L 501.375504 -93.86637 
L 499.814534 -92.49 
L 498.418686 -91.11363 
L 497.183024 -89.73726 
L 496.101059 -88.360891 
L 495.164669 -86.984521 
L 494.364189 -85.608151 
L 493.688643 -84.231781 
L 493.126091 -82.855411 
L 492.664027 -81.479041 
L 492.289812 -80.102671 
L 491.991072 -78.726301 
z
"/>
    </defs>
    <g clip-path="url(#pc923a1ccf6)">
     <use xlink:href="#mbffa331a57" x="0" y="378.799603" style="fill: #5c6d71"/>
    </g>
   </g>
   <g id="matplotlib.axis_3">
    <g id="xtick_3">
     <g id="line2d_14">
      <g>
       <use xlink:href="#m3c1140e747" x="423.11518" y="311.799603" style="stroke: #000000; stroke-width: 0.75"/>
      </g>
     </g>
     <g id="text_10">
      <text style="font: 15px &quot;Suisse Int&apos;l&quot;, sans-serif; text-anchor: middle" x="423.11518" y="332.674603" transform="rotate(-0 423.11518 332.674603)">top</text>
     </g>
    </g>
    <g id="xtick_4">
     <g id="line2d_15">
      <g>
       <use xlink:href="#m3c1140e747" x="536.368998" y="311.799603" style="stroke: #000000; stroke-width: 0.75"/>
      </g>
     </g>
     <g id="text_11">
      <text style="font: 15px &quot;Suisse Int&apos;l&quot;, sans-serif; text-anchor: middle" x="536.368998" y="332.674603" transform="rotate(-0 536.368998 332.674603)">middle</text>
     </g>
    </g>
    <g id="text_12">
     <text style="font: 500 15px &quot;Suisse Int&apos;l&quot;, sans-serif; text-anchor: middle" x="479.742089" y="356.174603" transform="rotate(-0 479.742089 356.174603)">Position in tube</text>
    </g>
   </g>
   <g id="matplotlib.axis_4">
    <g id="ytick_5">
     <g id="line2d_16">
      <g>
       <use xlink:href="#m81169f9b70" x="369.659378" y="284.908915" style="stroke: #000000; stroke-width: 0.75"/>
      </g>
     </g>
     <g id="text_13">
      <text style="font: 14.5px &quot;Suisse Int&apos;l Mono&quot;; text-anchor: end" x="359.659378" y="290.165165" transform="rotate(-0 359.659378 290.165165)">0</text>
     </g>
    </g>
    <g id="ytick_6">
     <g id="line2d_17">
      <g>
       <use xlink:href="#m81169f9b70" x="369.659378" y="251.822212" style="stroke: #000000; stroke-width: 0.75"/>
      </g>
     </g>
     <g id="text_14">
      <text style="font: 14.5px &quot;Suisse Int&apos;l Mono&quot;; text-anchor: end" x="359.659378" y="257.078462" transform="rotate(-0 359.659378 257.078462)">20</text>
     </g>
    </g>
    <g id="ytick_7">
     <g id="line2d_18">
      <g>
       <use xlink:href="#m81169f9b70" x="369.659378" y="218.735508" style="stroke: #000000; stroke-width: 0.75"/>
      </g>
     </g>
     <g id="text_15">
      <text style="font: 14.5px &quot;Suisse Int&apos;l Mono&quot;; text-anchor: end" x="359.659378" y="223.991758" transform="rotate(-0 359.659378 223.991758)">40</text>
     </g>
    </g>
    <g id="ytick_8">
     <g id="line2d_19">
      <g>
       <use xlink:href="#m81169f9b70" x="369.659378" y="185.648805" style="stroke: #000000; stroke-width: 0.75"/>
      </g>
     </g>
     <g id="text_16">
      <text style="font: 14.5px &quot;Suisse Int&apos;l Mono&quot;; text-anchor: end" x="359.659378" y="190.905055" transform="rotate(-0 359.659378 190.905055)">60</text>
     </g>
    </g>
    <g id="ytick_9">
     <g id="line2d_20">
      <g>
       <use xlink:href="#m81169f9b70" x="369.659378" y="152.562102" style="stroke: #000000; stroke-width: 0.75"/>
      </g>
     </g>
     <g id="text_17">
      <text style="font: 14.5px &quot;Suisse Int&apos;l Mono&quot;; text-anchor: end" x="359.659378" y="157.818352" transform="rotate(-0 359.659378 157.818352)">80</text>
     </g>
    </g>
    <g id="ytick_10">
     <g id="line2d_21">
      <g>
       <use xlink:href="#m81169f9b70" x="369.659378" y="119.475399" style="stroke: #000000; stroke-width: 0.75"/>
      </g>
     </g>
     <g id="text_18">
      <text style="font: 14.5px &quot;Suisse Int&apos;l Mono&quot;; text-anchor: end" x="359.659378" y="124.731649" transform="rotate(-0 359.659378 124.731649)">100</text>
     </g>
    </g>
    <g id="text_19">
     <text style="font: 500 15px &quot;Suisse Int&apos;l&quot;, sans-serif; text-anchor: middle" x="318.772034" y="199.568987" transform="rotate(-90 318.772034 199.568987)">Mean curvilinear speed (µm/s)</text>
    </g>
   </g>
   <g id="line2d_22">
    <path d="M 465.916707 280.049536 
L 465.916707 157.411745 
" clip-path="url(#pc923a1ccf6)" style="fill: none; stroke: #3e3e3e; stroke-width: 1.666667; stroke-linecap: round"/>
   </g>
   <g id="line2d_23">
    <path d="M 465.916707 248.205364 
L 465.916707 206.740253 
" clip-path="url(#pc923a1ccf6)" style="fill: none; stroke: #3e3e3e; stroke-width: 5; stroke-linecap: round"/>
   </g>
   <g id="line2d_24">
    <path d="M 465.916707 230.027763 
" clip-path="url(#pc923a1ccf6)" style="fill: none; stroke: #3e3e3e; stroke-width: 2; stroke-linecap: round"/>
    <g clip-path="url(#pc923a1ccf6)">
     <use xlink:href="#md65f1485d5" x="465.916707" y="230.027763" style="fill: #ffffff; stroke: #ffffff"/>
    </g>
   </g>
   <g id="line2d_25">
    <path d="M 493.567471 278.439381 
L 493.567471 198.584686 
" clip-path="url(#pc923a1ccf6)" style="fill: none; stroke: #3e3e3e; stroke-width: 1.666667; stroke-linecap: round"/>
   </g>
   <g id="line2d_26">
    <path d="M 493.567471 252.360425 
L 493.567471 229.040223 
" clip-path="url(#pc923a1ccf6)" style="fill: none; stroke: #3e3e3e; stroke-width: 5; stroke-linecap: round"/>
   </g>
   <g id="line2d_27">
    <path d="M 493.567471 239.487329 
" clip-path="url(#pc923a1ccf6)" style="fill: none; stroke: #3e3e3e; stroke-width: 2; stroke-linecap: round"/>
    <g clip-path="url(#pc923a1ccf6)">
     <use xlink:href="#md65f1485d5" x="493.567471" y="239.487329" style="fill: #ffffff; stroke: #ffffff"/>
    </g>
   </g>
   <g id="line2d_28">
    <path d="M 457.091325 95.651749 
L 502.392852 95.651749 
" clip-path="url(#pc923a1ccf6)" style="fill: none; stroke: #000000; stroke-width: 2; stroke-linecap: round"/>
   </g>
   <g id="patch_6">
    <path d="M 369.659378 311.799603 
L 369.659378 87.33837 
" style="fill: none; stroke: #000000; stroke-width: 0.75; stroke-linejoin: miter; stroke-linecap: square"/>
   </g>
   <g id="patch_7">
    <path d="M 369.659378 311.799603 
L 589.824799 311.799603 
" style="fill: none; stroke: #000000; stroke-width: 0.75; stroke-linejoin: miter; stroke-linecap: square"/>
   </g>
   <g id="text_20">
    <text style="font: 20px &quot;Suisse Int&apos;l&quot;, sans-serif; text-anchor: middle" x="479.742089" y="95.651749" transform="rotate(-0 479.742089 95.651749)">*</text>
   </g>
  </g>
  <g id="axes_3">
   <g id="patch_8">
    <path d="M 648.476256 311.799603 
L 868.641678 311.799603 
L 868.641678 87.33837 
L 648.476256 87.33837 
L 648.476256 311.799603 
z
" style="fill: none"/>
   </g>
   <g id="PolyCollection_5">
    <defs>
     <path id="mc228a9f0b2" d="M 747.233585 -75.313379 
L 745.242211 -75.313379 
L 744.192594 -77.014127 
L 742.710529 -78.714875 
L 740.679571 -80.415623 
L 737.979133 -82.116371 
L 734.496301 -83.817118 
L 730.141068 -85.517866 
L 724.863697 -87.218614 
L 718.672112 -88.919362 
L 711.646596 -90.62011 
L 703.948885 -92.320858 
L 695.823081 -94.021606 
L 687.586724 -95.722354 
L 679.611749 -97.423101 
L 672.296657 -99.123849 
L 666.032794 -100.824597 
L 661.168767 -102.525345 
L 657.977539 -104.226093 
L 656.630531 -105.926841 
L 657.182087 -107.627589 
L 659.566191 -109.328337 
L 663.605591 -111.029085 
L 669.031756 -112.729832 
L 675.51274 -114.43058 
L 682.685136 -116.131328 
L 690.186088 -117.832076 
L 697.681668 -119.532824 
L 704.888823 -121.233572 
L 711.589259 -122.93432 
L 717.634875 -124.635068 
L 722.94555 -126.335815 
L 727.500882 -128.036563 
L 731.327987 -129.737311 
L 734.487537 -131.438059 
L 737.059979 -133.138807 
L 739.133419 -134.839555 
L 740.79411 -136.540303 
L 742.119915 -138.241051 
L 743.176665 -139.941799 
L 744.017 -141.642546 
L 744.681071 -143.343294 
L 745.19844 -145.044042 
L 745.590565 -146.74479 
L 745.873332 -148.445538 
L 746.059321 -150.146286 
L 746.159554 -151.847034 
L 746.184675 -153.547782 
L 746.145552 -155.248529 
L 746.053391 -156.949277 
L 745.919463 -158.650025 
L 745.754593 -160.350773 
L 745.568562 -162.051521 
L 745.36958 -163.752269 
L 745.163962 -165.453017 
L 744.956104 -167.153765 
L 744.748798 -168.854513 
L 744.543825 -170.55526 
L 744.342709 -172.256008 
L 744.147463 -173.956756 
L 743.961122 -175.657504 
L 743.787933 -177.358252 
L 743.6331 -179.059 
L 743.502135 -180.759748 
L 743.399926 -182.460496 
L 743.329751 -184.161243 
L 743.292469 -185.861991 
L 743.286113 -187.562739 
L 743.306018 -189.263487 
L 743.345499 -190.964235 
L 743.396966 -192.664983 
L 743.453254 -194.365731 
L 743.508895 -196.066479 
L 743.561056 -197.767227 
L 743.609925 -199.467974 
L 743.658484 -201.168722 
L 743.711691 -202.86947 
L 743.77528 -204.570218 
L 743.854435 -206.270966 
L 743.952655 -207.971714 
L 744.071068 -209.672462 
L 744.208314 -211.37321 
L 744.361027 -213.073958 
L 744.524717 -214.774705 
L 744.694832 -216.475453 
L 744.867685 -218.176201 
L 745.041006 -219.876949 
L 745.214026 -221.577697 
L 745.387084 -223.278445 
L 745.560942 -224.979193 
L 745.736022 -226.679941 
L 745.911796 -228.380688 
L 746.086495 -230.081436 
L 746.257194 -231.782184 
L 746.420209 -233.482932 
L 746.571694 -235.18368 
L 746.70825 -236.884428 
L 746.82743 -238.585176 
L 746.928009 -240.285924 
L 747.010034 -241.986672 
L 747.074658 -243.687419 
L 747.233585 -243.687419 
L 747.233585 -243.687419 
L 747.233585 -241.986672 
L 747.233585 -240.285924 
L 747.233585 -238.585176 
L 747.233585 -236.884428 
L 747.233585 -235.18368 
L 747.233585 -233.482932 
L 747.233585 -231.782184 
L 747.233585 -230.081436 
L 747.233585 -228.380688 
L 747.233585 -226.679941 
L 747.233585 -224.979193 
L 747.233585 -223.278445 
L 747.233585 -221.577697 
L 747.233585 -219.876949 
L 747.233585 -218.176201 
L 747.233585 -216.475453 
L 747.233585 -214.774705 
L 747.233585 -213.073958 
L 747.233585 -211.37321 
L 747.233585 -209.672462 
L 747.233585 -207.971714 
L 747.233585 -206.270966 
L 747.233585 -204.570218 
L 747.233585 -202.86947 
L 747.233585 -201.168722 
L 747.233585 -199.467974 
L 747.233585 -197.767227 
L 747.233585 -196.066479 
L 747.233585 -194.365731 
L 747.233585 -192.664983 
L 747.233585 -190.964235 
L 747.233585 -189.263487 
L 747.233585 -187.562739 
L 747.233585 -185.861991 
L 747.233585 -184.161243 
L 747.233585 -182.460496 
L 747.233585 -180.759748 
L 747.233585 -179.059 
L 747.233585 -177.358252 
L 747.233585 -175.657504 
L 747.233585 -173.956756 
L 747.233585 -172.256008 
L 747.233585 -170.55526 
L 747.233585 -168.854513 
L 747.233585 -167.153765 
L 747.233585 -165.453017 
L 747.233585 -163.752269 
L 747.233585 -162.051521 
L 747.233585 -160.350773 
L 747.233585 -158.650025 
L 747.233585 -156.949277 
L 747.233585 -155.248529 
L 747.233585 -153.547782 
L 747.233585 -151.847034 
L 747.233585 -150.146286 
L 747.233585 -148.445538 
L 747.233585 -146.74479 
L 747.233585 -145.044042 
L 747.233585 -143.343294 
L 747.233585 -141.642546 
L 747.233585 -139.941799 
L 747.233585 -138.241051 
L 747.233585 -136.540303 
L 747.233585 -134.839555 
L 747.233585 -133.138807 
L 747.233585 -131.438059 
L 747.233585 -129.737311 
L 747.233585 -128.036563 
L 747.233585 -126.335815 
L 747.233585 -124.635068 
L 747.233585 -122.93432 
L 747.233585 -121.233572 
L 747.233585 -119.532824 
L 747.233585 -117.832076 
L 747.233585 -116.131328 
L 747.233585 -114.43058 
L 747.233585 -112.729832 
L 747.233585 -111.029085 
L 747.233585 -109.328337 
L 747.233585 -107.627589 
L 747.233585 -105.926841 
L 747.233585 -104.226093 
L 747.233585 -102.525345 
L 747.233585 -100.824597 
L 747.233585 -99.123849 
L 747.233585 -97.423101 
L 747.233585 -95.722354 
L 747.233585 -94.021606 
L 747.233585 -92.320858 
L 747.233585 -90.62011 
L 747.233585 -88.919362 
L 747.233585 -87.218614 
L 747.233585 -85.517866 
L 747.233585 -83.817118 
L 747.233585 -82.116371 
L 747.233585 -80.415623 
L 747.233585 -78.714875 
L 747.233585 -77.014127 
L 747.233585 -75.313379 
z
"/>
    </defs>
    <g clip-path="url(#p8d6d0af92a)">
     <use xlink:href="#mc228a9f0b2" x="0" y="378.799603" style="fill: #b4bba7"/>
    </g>
   </g>
   <g id="PolyCollection_6">
    <defs>
     <path id="mf7d443a296" d="M 773.106962 -82.905363 
L 769.884349 -82.905363 
L 769.884349 -84.136882 
L 769.884349 -85.3684 
L 769.884349 -86.599918 
L 769.884349 -87.831436 
L 769.884349 -89.062954 
L 769.884349 -90.294473 
L 769.884349 -91.525991 
L 769.884349 -92.757509 
L 769.884349 -93.989027 
L 769.884349 -95.220545 
L 769.884349 -96.452063 
L 769.884349 -97.683582 
L 769.884349 -98.9151 
L 769.884349 -100.146618 
L 769.884349 -101.378136 
L 769.884349 -102.609654 
L 769.884349 -103.841172 
L 769.884349 -105.072691 
L 769.884349 -106.304209 
L 769.884349 -107.535727 
L 769.884349 -108.767245 
L 769.884349 -109.998763 
L 769.884349 -111.230281 
L 769.884349 -112.4618 
L 769.884349 -113.693318 
L 769.884349 -114.924836 
L 769.884349 -116.156354 
L 769.884349 -117.387872 
L 769.884349 -118.619391 
L 769.884349 -119.850909 
L 769.884349 -121.082427 
L 769.884349 -122.313945 
L 769.884349 -123.545463 
L 769.884349 -124.776981 
L 769.884349 -126.0085 
L 769.884349 -127.240018 
L 769.884349 -128.471536 
L 769.884349 -129.703054 
L 769.884349 -130.934572 
L 769.884349 -132.16609 
L 769.884349 -133.397609 
L 769.884349 -134.629127 
L 769.884349 -135.860645 
L 769.884349 -137.092163 
L 769.884349 -138.323681 
L 769.884349 -139.5552 
L 769.884349 -140.786718 
L 769.884349 -142.018236 
L 769.884349 -143.249754 
L 769.884349 -144.481272 
L 769.884349 -145.71279 
L 769.884349 -146.944309 
L 769.884349 -148.175827 
L 769.884349 -149.407345 
L 769.884349 -150.638863 
L 769.884349 -151.870381 
L 769.884349 -153.101899 
L 769.884349 -154.333418 
L 769.884349 -155.564936 
L 769.884349 -156.796454 
L 769.884349 -158.027972 
L 769.884349 -159.25949 
L 769.884349 -160.491008 
L 769.884349 -161.722527 
L 769.884349 -162.954045 
L 769.884349 -164.185563 
L 769.884349 -165.417081 
L 769.884349 -166.648599 
L 769.884349 -167.880118 
L 769.884349 -169.111636 
L 769.884349 -170.343154 
L 769.884349 -171.574672 
L 769.884349 -172.80619 
L 769.884349 -174.037708 
L 769.884349 -175.269227 
L 769.884349 -176.500745 
L 769.884349 -177.732263 
L 769.884349 -178.963781 
L 769.884349 -180.195299 
L 769.884349 -181.426817 
L 769.884349 -182.658336 
L 769.884349 -183.889854 
L 769.884349 -185.121372 
L 769.884349 -186.35289 
L 769.884349 -187.584408 
L 769.884349 -188.815927 
L 769.884349 -190.047445 
L 769.884349 -191.278963 
L 769.884349 -192.510481 
L 769.884349 -193.741999 
L 769.884349 -194.973517 
L 769.884349 -196.205036 
L 769.884349 -197.436554 
L 769.884349 -198.668072 
L 769.884349 -199.89959 
L 769.884349 -201.131108 
L 769.884349 -202.362626 
L 769.884349 -203.594145 
L 769.884349 -204.825663 
L 770.304572 -204.825663 
L 770.304572 -204.825663 
L 770.465108 -203.594145 
L 770.664397 -202.362626 
L 770.902604 -201.131108 
L 771.176167 -199.89959 
L 771.47713 -198.668072 
L 771.792973 -197.436554 
L 772.10712 -196.205036 
L 772.400164 -194.973517 
L 772.651753 -193.741999 
L 772.842879 -192.510481 
L 772.958246 -191.278963 
L 772.988283 -190.047445 
L 772.930457 -188.815927 
L 772.789628 -187.584408 
L 772.577374 -186.35289 
L 772.310414 -185.121372 
L 772.008446 -183.889854 
L 771.691757 -182.658336 
L 771.379027 -181.426817 
L 771.085642 -180.195299 
L 770.822688 -178.963781 
L 770.596678 -177.732263 
L 770.409896 -176.500745 
L 770.261185 -175.269227 
L 770.146955 -174.037708 
L 770.062206 -172.80619 
L 770.001424 -171.574672 
L 769.959258 -170.343154 
L 769.930956 -169.111636 
L 769.912586 -167.880118 
L 769.901093 -166.648599 
L 769.89424 -165.417081 
L 769.890506 -164.185563 
L 769.888974 -162.954045 
L 769.889244 -161.722527 
L 769.891389 -160.491008 
L 769.895961 -159.25949 
L 769.904057 -158.027972 
L 769.917411 -156.796454 
L 769.938521 -155.564936 
L 769.970744 -154.333418 
L 770.018345 -153.101899 
L 770.08643 -151.870381 
L 770.180707 -150.638863 
L 770.307071 -149.407345 
L 770.470983 -148.175827 
L 770.67673 -146.944309 
L 770.926685 -145.71279 
L 771.220749 -144.481272 
L 771.556208 -143.249754 
L 771.928202 -142.018236 
L 772.330939 -140.786718 
L 772.759645 -139.5552 
L 773.213056 -138.323681 
L 773.696074 -137.092163 
L 774.222086 -135.860645 
L 774.814401 -134.629127 
L 775.506367 -133.397609 
L 776.339973 -132.16609 
L 777.363042 -130.934572 
L 778.625479 -129.703054 
L 780.175276 -128.471536 
L 782.055094 -127.240018 
L 784.300087 -126.0085 
L 786.937327 -124.776981 
L 789.986686 -123.545463 
L 793.462511 -122.313945 
L 797.375019 -121.082427 
L 801.730173 -119.850909 
L 806.526982 -118.619391 
L 811.751669 -117.387872 
L 817.369002 -116.156354 
L 823.311955 -114.924836 
L 829.471763 -113.693318 
L 835.690884 -112.4618 
L 841.761446 -111.230281 
L 847.431128 -109.998763 
L 852.41733 -108.767245 
L 856.428985 -107.535727 
L 859.193796 -106.304209 
L 860.487403 -105.072691 
L 860.160228 -103.841172 
L 858.157809 -102.609654 
L 854.531235 -101.378136 
L 849.435818 -100.146618 
L 843.11797 -98.9151 
L 835.892112 -97.683582 
L 828.110959 -96.452063 
L 820.133341 -95.220545 
L 812.293866 -93.989027 
L 804.878079 -92.757509 
L 798.105605 -91.525991 
L 792.122337 -90.294473 
L 787.001277 -89.062954 
L 782.750509 -87.831436 
L 779.326036 -86.599918 
L 776.646975 -85.3684 
L 774.610819 -84.136882 
L 773.106962 -82.905363 
z
"/>
    </defs>
    <g clip-path="url(#p8d6d0af92a)">
     <use xlink:href="#mf7d443a296" x="0" y="378.799603" style="fill: #5c6d71"/>
    </g>
   </g>
   <g id="patch_9">
    <path d="M 701.932058 292.004588 
L 701.932058 292.004588 
L 701.932058 292.004588 
L 701.932058 292.004588 
z
" clip-path="url(#p8d6d0af92a)" style="fill: #b4bba7"/>
   </g>
   <g id="patch_10">
    <path d="M 701.932058 292.004588 
L 701.932058 292.004588 
L 701.932058 292.004588 
L 701.932058 292.004588 
z
" clip-path="url(#p8d6d0af92a)" style="fill: #5c6d71"/>
   </g>
   <g id="matplotlib.axis_5">
    <g id="xtick_5">
     <g id="line2d_29">
      <g>
       <use xlink:href="#m3c1140e747" x="701.932058" y="311.799603" style="stroke: #000000; stroke-width: 0.75"/>
      </g>
     </g>
     <g id="text_21">
      <text style="font: 15px &quot;Suisse Int&apos;l&quot;, sans-serif; text-anchor: middle" x="701.932058" y="332.674603" transform="rotate(-0 701.932058 332.674603)">top</text>
     </g>
    </g>
    <g id="xtick_6">
     <g id="line2d_30">
      <g>
       <use xlink:href="#m3c1140e747" x="815.185876" y="311.799603" style="stroke: #000000; stroke-width: 0.75"/>
      </g>
     </g>
     <g id="text_22">
      <text style="font: 15px &quot;Suisse Int&apos;l&quot;, sans-serif; text-anchor: middle" x="815.185876" y="332.674603" transform="rotate(-0 815.185876 332.674603)">middle</text>
     </g>
    </g>
    <g id="text_23">
     <text style="font: 500 15px &quot;Suisse Int&apos;l&quot;, sans-serif; text-anchor: middle" x="758.558967" y="356.174603" transform="rotate(-0 758.558967 356.174603)">Position in tube</text>
    </g>
   </g>
   <g id="matplotlib.axis_6">
    <g id="ytick_11">
     <g id="line2d_31">
      <g>
       <use xlink:href="#m81169f9b70" x="648.476256" y="292.004588" style="stroke: #000000; stroke-width: 0.75"/>
      </g>
     </g>
     <g id="text_24">
      <text style="font: 14.5px &quot;Suisse Int&apos;l Mono&quot;; text-anchor: end" x="638.476256" y="297.260838" transform="rotate(-0 638.476256 297.260838)">0</text>
     </g>
    </g>
    <g id="ytick_12">
     <g id="line2d_32">
      <g>
       <use xlink:href="#m81169f9b70" x="648.476256" y="237.508623" style="stroke: #000000; stroke-width: 0.75"/>
      </g>
     </g>
     <g id="text_25">
      <text style="font: 14.5px &quot;Suisse Int&apos;l Mono&quot;; text-anchor: end" x="638.476256" y="242.764873" transform="rotate(-0 638.476256 242.764873)">10</text>
     </g>
    </g>
    <g id="ytick_13">
     <g id="line2d_33">
      <g>
       <use xlink:href="#m81169f9b70" x="648.476256" y="183.012658" style="stroke: #000000; stroke-width: 0.75"/>
      </g>
     </g>
     <g id="text_26">
      <text style="font: 14.5px &quot;Suisse Int&apos;l Mono&quot;; text-anchor: end" x="638.476256" y="188.268908" transform="rotate(-0 638.476256 188.268908)">20</text>
     </g>
    </g>
    <g id="ytick_14">
     <g id="line2d_34">
      <g>
       <use xlink:href="#m81169f9b70" x="648.476256" y="128.516693" style="stroke: #000000; stroke-width: 0.75"/>
      </g>
     </g>
     <g id="text_27">
      <text style="font: 14.5px &quot;Suisse Int&apos;l Mono&quot;; text-anchor: end" x="638.476256" y="133.772943" transform="rotate(-0 638.476256 133.772943)">30</text>
     </g>
    </g>
    <g id="text_28">
     <text style="font: 500 15px &quot;Suisse Int&apos;l&quot;, sans-serif; text-anchor: middle" x="606.833131" y="199.568987" transform="rotate(-90 606.833131 199.568987)">Mean angular speed (rad/s)</text>
    </g>
   </g>
   <g id="line2d_35">
    <path d="M 744.733585 284.053955 
L 744.733585 253.621342 
" clip-path="url(#p8d6d0af92a)" style="fill: none; stroke: #3e3e3e; stroke-width: 1.666667; stroke-linecap: round"/>
   </g>
   <g id="line2d_36">
    <path d="M 744.733585 276.582655 
L 744.733585 265.905379 
" clip-path="url(#p8d6d0af92a)" style="fill: none; stroke: #3e3e3e; stroke-width: 5; stroke-linecap: round"/>
   </g>
   <g id="line2d_37">
    <path d="M 744.733585 271.214093 
" clip-path="url(#p8d6d0af92a)" style="fill: none; stroke: #3e3e3e; stroke-width: 2; stroke-linecap: round"/>
    <g clip-path="url(#p8d6d0af92a)">
     <use xlink:href="#md65f1485d5" x="744.733585" y="271.214093" style="fill: #ffffff; stroke: #ffffff"/>
    </g>
   </g>
   <g id="line2d_38">
    <path d="M 772.384349 281.31203 
L 772.384349 257.108841 
" clip-path="url(#p8d6d0af92a)" style="fill: none; stroke: #3e3e3e; stroke-width: 1.666667; stroke-linecap: round"/>
   </g>
   <g id="line2d_39">
    <path d="M 772.384349 276.312109 
L 772.384349 267.542397 
" clip-path="url(#p8d6d0af92a)" style="fill: none; stroke: #3e3e3e; stroke-width: 5; stroke-linecap: round"/>
   </g>
   <g id="line2d_40">
    <path d="M 772.384349 273.308222 
" clip-path="url(#p8d6d0af92a)" style="fill: none; stroke: #3e3e3e; stroke-width: 2; stroke-linecap: round"/>
    <g clip-path="url(#p8d6d0af92a)">
     <use xlink:href="#md65f1485d5" x="772.384349" y="273.308222" style="fill: #ffffff; stroke: #ffffff"/>
    </g>
   </g>
   <g id="line2d_41">
    <path d="M 735.908203 95.651749 
L 781.20973 95.651749 
" clip-path="url(#p8d6d0af92a)" style="fill: none; stroke: #000000; stroke-width: 2; stroke-linecap: round"/>
   </g>
   <g id="patch_11">
    <path d="M 648.476256 311.799603 
L 648.476256 87.33837 
" style="fill: none; stroke: #000000; stroke-width: 0.75; stroke-linejoin: miter; stroke-linecap: square"/>
   </g>
   <g id="patch_12">
    <path d="M 648.476256 311.799603 
L 868.641678 311.799603 
" style="fill: none; stroke: #000000; stroke-width: 0.75; stroke-linejoin: miter; stroke-linecap: square"/>
   </g>
   <g id="text_29">
    <text style="font: 16px &quot;Suisse Int&apos;l&quot;, sans-serif; text-anchor: middle" x="758.558967" y="85.834107" transform="rotate(-0 758.558967 85.834107)">ns</text>
   </g>
   <g id="legend_1">
    <g id="text_30">
     <text style="font: 600 16px &quot;Suisse Int&apos;l&quot;, sans-serif; text-anchor: start" x="809.523804" y="31.6" transform="rotate(-0 809.523804 31.6)">Position_in_tube</text>
    </g>
    <g id="line2d_42">
     <path d="M 809.523804 41.9 
L 927.023804 41.9 
" style="fill: none; stroke: #bab0a8; stroke-width: 1.5; stroke-linecap: round"/>
    </g>
    <g id="patch_13">
     <path d="M 809.523804 64.775 
L 824.523804 64.775 
L 824.523804 49.4 
L 809.523804 49.4 
z
" style="fill: #b4bba7"/>
    </g>
    <g id="text_31">
     <text style="font: 15px &quot;Suisse Int&apos;l&quot;, sans-serif; text-anchor: start" x="830.523804" y="62.15" transform="rotate(-0 830.523804 62.15)">Top | n=105</text>
    </g>
    <g id="patch_14">
     <path d="M 809.523804 87.65 
L 824.523804 87.65 
L 824.523804 72.275 
L 809.523804 72.275 
z
" style="fill: #5c6d71"/>
    </g>
    <g id="text_32">
     <text style="font: 15px &quot;Suisse Int&apos;l&quot;, sans-serif; text-anchor: start" x="830.523804" y="85.025" transform="rotate(-0 830.523804 85.025)">Middle | n=40</text>
    </g>
   </g>
  </g>
 </g>
 <defs>
  <clipPath id="p2cd35318a2">
   <rect x="81.598281" y="87.33837" width="220.165421" height="224.461233"/>
  </clipPath>
  <clipPath id="pc923a1ccf6">
   <rect x="369.659378" y="87.33837" width="220.165421" height="224.461233"/>
  </clipPath>
  <clipPath id="p8d6d0af92a">
   <rect x="648.476256" y="87.33837" width="220.165421" height="224.461233"/>
  </clipPath>
 </defs>
</svg>
