<?xml version="1.0" encoding="utf-8" standalone="no"?>
<!DOCTYPE svg PUBLIC "-//W3C//DTD SVG 1.1//EN"
  "http://www.w3.org/Graphics/SVG/1.1/DTD/svg11.dtd">
<svg xmlns:xlink="http://www.w3.org/1999/xlink" width="481.865344pt" height="379.113736pt" viewBox="0 0 481.865344 379.113736" xmlns="http://www.w3.org/2000/svg" version="1.1">
 <metadata>
  <rdf:RDF xmlns:dc="http://purl.org/dc/elements/1.1/" xmlns:cc="http://creativecommons.org/ns#" xmlns:rdf="http://www.w3.org/1999/02/22-rdf-syntax-ns#">
   <cc:Work>
    <dc:type rdf:resource="http://purl.org/dc/dcmitype/StillImage"/>
    <dc:date>2024-08-02T14:02:45.024964</dc:date>
    <dc:format>image/svg+xml</dc:format>
    <dc:creator>
     <cc:Agent>
      <dc:title>Matplotlib v3.8.4, https://matplotlib.org/</dc:title>
     </cc:Agent>
    </dc:creator>
   </cc:Work>
  </rdf:RDF>
 </metadata>
 <defs>
  <style type="text/css">*{stroke-linejoin: round; stroke-linecap: butt}</style>
 </defs>
 <g id="figure_1">
  <g id="patch_1">
   <path d="M 0 379.113736 
L 481.865344 379.113736 
L 481.865344 0 
L 0 0 
L 0 379.113736 
z
" style="fill: none"/>
  </g>
  <g id="axes_1">
   <g id="patch_2">
    <path d="M 81.762344 312.563736 
L 305.352344 312.563736 
L 305.352344 80.895165 
L 81.762344 80.895165 
L 81.762344 312.563736 
z
" style="fill: none"/>
   </g>
   <g id="PathCollection_1">
    <defs>
     <path id="C0_0_4fea74cf15" d="M 0 3 
C 0.795609 3 1.55874 2.683901 2.12132 2.12132 
C 2.683901 1.55874 3 0.795609 3 -0 
C 3 -0.795609 2.683901 -1.55874 2.12132 -2.12132 
C 1.55874 -2.683901 0.795609 -3 0 -3 
C -0.795609 -3 -1.55874 -2.683901 -2.12132 -2.12132 
C -2.683901 -1.55874 -3 -0.795609 -3 0 
C -3 0.795609 -2.683901 1.55874 -2.12132 2.12132 
C -1.55874 2.683901 -0.795609 3 0 3 
z
"/>
    </defs>
    <g clip-path="url(#pae4a136e1e)">
     <use xlink:href="#C0_0_4fea74cf15" x="130.724121" y="178.507776" style="fill: #f28360; stroke: #ffffff; stroke-width: 0.48"/>
    </g>
    <g clip-path="url(#pae4a136e1e)">
     <use xlink:href="#C0_0_4fea74cf15" x="152.308496" y="193.68638" style="fill: #f28360; stroke: #ffffff; stroke-width: 0.48"/>
    </g>
    <g clip-path="url(#pae4a136e1e)">
     <use xlink:href="#C0_0_4fea74cf15" x="123.824652" y="194.354676" style="fill: #f28360; stroke: #ffffff; stroke-width: 0.48"/>
    </g>
    <g clip-path="url(#pae4a136e1e)">
     <use xlink:href="#C0_0_4fea74cf15" x="137.680711" y="202.495886" style="fill: #f28360; stroke: #ffffff; stroke-width: 0.48"/>
    </g>
    <g clip-path="url(#pae4a136e1e)">
     <use xlink:href="#C0_0_4fea74cf15" x="121.331963" y="125.723017" style="fill: #f28360; stroke: #ffffff; stroke-width: 0.48"/>
    </g>
    <g clip-path="url(#pae4a136e1e)">
     <use xlink:href="#C0_0_4fea74cf15" x="132.605946" y="229.827286" style="fill: #f28360; stroke: #ffffff; stroke-width: 0.48"/>
    </g>
    <g clip-path="url(#pae4a136e1e)">
     <use xlink:href="#C0_0_4fea74cf15" x="126.276187" y="153.390153" style="fill: #f28360; stroke: #ffffff; stroke-width: 0.48"/>
    </g>
    <g clip-path="url(#pae4a136e1e)">
     <use xlink:href="#C0_0_4fea74cf15" x="140.003837" y="174.912488" style="fill: #f28360; stroke: #ffffff; stroke-width: 0.48"/>
    </g>
    <g clip-path="url(#pae4a136e1e)">
     <use xlink:href="#C0_0_4fea74cf15" x="132.431224" y="167.621341" style="fill: #f28360; stroke: #ffffff; stroke-width: 0.48"/>
    </g>
    <g clip-path="url(#pae4a136e1e)">
     <use xlink:href="#C0_0_4fea74cf15" x="139.960262" y="222.673415" style="fill: #f28360; stroke: #ffffff; stroke-width: 0.48"/>
    </g>
    <g clip-path="url(#pae4a136e1e)">
     <use xlink:href="#C0_0_4fea74cf15" x="140.570525" y="173.300702" style="fill: #f28360; stroke: #ffffff; stroke-width: 0.48"/>
    </g>
    <g clip-path="url(#pae4a136e1e)">
     <use xlink:href="#C0_0_4fea74cf15" x="136.564947" y="205.651484" style="fill: #f28360; stroke: #ffffff; stroke-width: 0.48"/>
    </g>
    <g clip-path="url(#pae4a136e1e)">
     <use xlink:href="#C0_0_4fea74cf15" x="126.264155" y="197.131822" style="fill: #f28360; stroke: #ffffff; stroke-width: 0.48"/>
    </g>
    <g clip-path="url(#pae4a136e1e)">
     <use xlink:href="#C0_0_4fea74cf15" x="132.627517" y="225.190108" style="fill: #f28360; stroke: #ffffff; stroke-width: 0.48"/>
    </g>
    <g clip-path="url(#pae4a136e1e)">
     <use xlink:href="#C0_0_4fea74cf15" x="144.077759" y="226.19579" style="fill: #f28360; stroke: #ffffff; stroke-width: 0.48"/>
    </g>
    <g clip-path="url(#pae4a136e1e)">
     <use xlink:href="#C0_0_4fea74cf15" x="120.376368" y="144.690034" style="fill: #f28360; stroke: #ffffff; stroke-width: 0.48"/>
    </g>
    <g clip-path="url(#pae4a136e1e)">
     <use xlink:href="#C0_0_4fea74cf15" x="137.302583" y="230.860774" style="fill: #f28360; stroke: #ffffff; stroke-width: 0.48"/>
    </g>
    <g clip-path="url(#pae4a136e1e)">
     <use xlink:href="#C0_0_4fea74cf15" x="134.189566" y="216.573695" style="fill: #f28360; stroke: #ffffff; stroke-width: 0.48"/>
    </g>
    <g clip-path="url(#pae4a136e1e)">
     <use xlink:href="#C0_0_4fea74cf15" x="148.300818" y="233.206501" style="fill: #f28360; stroke: #ffffff; stroke-width: 0.48"/>
    </g>
    <g clip-path="url(#pae4a136e1e)">
     <use xlink:href="#C0_0_4fea74cf15" x="131.220294" y="217.42517" style="fill: #f28360; stroke: #ffffff; stroke-width: 0.48"/>
    </g>
    <g clip-path="url(#pae4a136e1e)">
     <use xlink:href="#C0_0_4fea74cf15" x="132.264691" y="240.75972" style="fill: #f28360; stroke: #ffffff; stroke-width: 0.48"/>
    </g>
    <g clip-path="url(#pae4a136e1e)">
     <use xlink:href="#C0_0_4fea74cf15" x="123.080465" y="199.181254" style="fill: #f28360; stroke: #ffffff; stroke-width: 0.48"/>
    </g>
    <g clip-path="url(#pae4a136e1e)">
     <use xlink:href="#C0_0_4fea74cf15" x="136.370048" y="228.864239" style="fill: #f28360; stroke: #ffffff; stroke-width: 0.48"/>
    </g>
    <g clip-path="url(#pae4a136e1e)">
     <use xlink:href="#C0_0_4fea74cf15" x="127.714432" y="194.712516" style="fill: #f28360; stroke: #ffffff; stroke-width: 0.48"/>
    </g>
    <g clip-path="url(#pae4a136e1e)">
     <use xlink:href="#C0_0_4fea74cf15" x="122.521108" y="213.049158" style="fill: #f28360; stroke: #ffffff; stroke-width: 0.48"/>
    </g>
    <g clip-path="url(#pae4a136e1e)">
     <use xlink:href="#C0_0_4fea74cf15" x="134.264822" y="205.498273" style="fill: #f28360; stroke: #ffffff; stroke-width: 0.48"/>
    </g>
    <g clip-path="url(#pae4a136e1e)">
     <use xlink:href="#C0_0_4fea74cf15" x="151.163849" y="240.132984" style="fill: #f28360; stroke: #ffffff; stroke-width: 0.48"/>
    </g>
    <g clip-path="url(#pae4a136e1e)">
     <use xlink:href="#C0_0_4fea74cf15" x="151.534788" y="198.868321" style="fill: #f28360; stroke: #ffffff; stroke-width: 0.48"/>
    </g>
    <g clip-path="url(#pae4a136e1e)">
     <use xlink:href="#C0_0_4fea74cf15" x="140.284817" y="175.188494" style="fill: #f28360; stroke: #ffffff; stroke-width: 0.48"/>
    </g>
    <g clip-path="url(#pae4a136e1e)">
     <use xlink:href="#C0_0_4fea74cf15" x="132.445183" y="267.735885" style="fill: #f28360; stroke: #ffffff; stroke-width: 0.48"/>
    </g>
    <g clip-path="url(#pae4a136e1e)">
     <use xlink:href="#C0_0_4fea74cf15" x="124.822958" y="143.385666" style="fill: #f28360; stroke: #ffffff; stroke-width: 0.48"/>
    </g>
    <g clip-path="url(#pae4a136e1e)">
     <use xlink:href="#C0_0_4fea74cf15" x="125.958765" y="178.900909" style="fill: #f28360; stroke: #ffffff; stroke-width: 0.48"/>
    </g>
    <g clip-path="url(#pae4a136e1e)">
     <use xlink:href="#C0_0_4fea74cf15" x="122.696405" y="190.179622" style="fill: #f28360; stroke: #ffffff; stroke-width: 0.48"/>
    </g>
    <g clip-path="url(#pae4a136e1e)">
     <use xlink:href="#C0_0_4fea74cf15" x="121.271191" y="152.578046" style="fill: #f28360; stroke: #ffffff; stroke-width: 0.48"/>
    </g>
    <g clip-path="url(#pae4a136e1e)">
     <use xlink:href="#C0_0_4fea74cf15" x="131.501838" y="151.279397" style="fill: #f28360; stroke: #ffffff; stroke-width: 0.48"/>
    </g>
    <g clip-path="url(#pae4a136e1e)">
     <use xlink:href="#C0_0_4fea74cf15" x="123.474214" y="190.228278" style="fill: #f28360; stroke: #ffffff; stroke-width: 0.48"/>
    </g>
    <g clip-path="url(#pae4a136e1e)">
     <use xlink:href="#C0_0_4fea74cf15" x="128.962892" y="201.530615" style="fill: #f28360; stroke: #ffffff; stroke-width: 0.48"/>
    </g>
    <g clip-path="url(#pae4a136e1e)">
     <use xlink:href="#C0_0_4fea74cf15" x="151.97486" y="247.638694" style="fill: #f28360; stroke: #ffffff; stroke-width: 0.48"/>
    </g>
    <g clip-path="url(#pae4a136e1e)">
     <use xlink:href="#C0_0_4fea74cf15" x="144.604497" y="217.307505" style="fill: #f28360; stroke: #ffffff; stroke-width: 0.48"/>
    </g>
    <g clip-path="url(#pae4a136e1e)">
     <use xlink:href="#C0_0_4fea74cf15" x="127.438949" y="267.551923" style="fill: #f28360; stroke: #ffffff; stroke-width: 0.48"/>
    </g>
    <g clip-path="url(#pae4a136e1e)">
     <use xlink:href="#C0_0_4fea74cf15" x="123.092735" y="266.188996" style="fill: #f28360; stroke: #ffffff; stroke-width: 0.48"/>
    </g>
    <g clip-path="url(#pae4a136e1e)">
     <use xlink:href="#C0_0_4fea74cf15" x="167.771596" y="228.658692" style="fill: #f28360; stroke: #ffffff; stroke-width: 0.48"/>
    </g>
    <g clip-path="url(#pae4a136e1e)">
     <use xlink:href="#C0_0_4fea74cf15" x="133.644119" y="231.906124" style="fill: #f28360; stroke: #ffffff; stroke-width: 0.48"/>
    </g>
    <g clip-path="url(#pae4a136e1e)">
     <use xlink:href="#C0_0_4fea74cf15" x="152.857513" y="224.817789" style="fill: #f28360; stroke: #ffffff; stroke-width: 0.48"/>
    </g>
    <g clip-path="url(#pae4a136e1e)">
     <use xlink:href="#C0_0_4fea74cf15" x="125.755263" y="264.887342" style="fill: #f28360; stroke: #ffffff; stroke-width: 0.48"/>
    </g>
    <g clip-path="url(#pae4a136e1e)">
     <use xlink:href="#C0_0_4fea74cf15" x="132.682876" y="184.000866" style="fill: #f28360; stroke: #ffffff; stroke-width: 0.48"/>
    </g>
    <g clip-path="url(#pae4a136e1e)">
     <use xlink:href="#C0_0_4fea74cf15" x="131.307866" y="225.903691" style="fill: #f28360; stroke: #ffffff; stroke-width: 0.48"/>
    </g>
    <g clip-path="url(#pae4a136e1e)">
     <use xlink:href="#C0_0_4fea74cf15" x="145.303671" y="234.857453" style="fill: #f28360; stroke: #ffffff; stroke-width: 0.48"/>
    </g>
    <g clip-path="url(#pae4a136e1e)">
     <use xlink:href="#C0_0_4fea74cf15" x="124.020515" y="221.671247" style="fill: #f28360; stroke: #ffffff; stroke-width: 0.48"/>
    </g>
    <g clip-path="url(#pae4a136e1e)">
     <use xlink:href="#C0_0_4fea74cf15" x="120.939006" y="261.689946" style="fill: #f28360; stroke: #ffffff; stroke-width: 0.48"/>
    </g>
    <g clip-path="url(#pae4a136e1e)">
     <use xlink:href="#C0_0_4fea74cf15" x="122.414002" y="157.254375" style="fill: #f28360; stroke: #ffffff; stroke-width: 0.48"/>
    </g>
    <g clip-path="url(#pae4a136e1e)">
     <use xlink:href="#C0_0_4fea74cf15" x="145.374693" y="193.422133" style="fill: #f28360; stroke: #ffffff; stroke-width: 0.48"/>
    </g>
    <g clip-path="url(#pae4a136e1e)">
     <use xlink:href="#C0_0_4fea74cf15" x="126.67643" y="267.619117" style="fill: #f28360; stroke: #ffffff; stroke-width: 0.48"/>
    </g>
    <g clip-path="url(#pae4a136e1e)">
     <use xlink:href="#C0_0_4fea74cf15" x="137.133258" y="213.506445" style="fill: #f28360; stroke: #ffffff; stroke-width: 0.48"/>
    </g>
    <g clip-path="url(#pae4a136e1e)">
     <use xlink:href="#C0_0_4fea74cf15" x="122.136522" y="130.456635" style="fill: #f28360; stroke: #ffffff; stroke-width: 0.48"/>
    </g>
    <g clip-path="url(#pae4a136e1e)">
     <use xlink:href="#C0_0_4fea74cf15" x="145.198017" y="200.524187" style="fill: #f28360; stroke: #ffffff; stroke-width: 0.48"/>
    </g>
    <g clip-path="url(#pae4a136e1e)">
     <use xlink:href="#C0_0_4fea74cf15" x="124.953714" y="195.133868" style="fill: #f28360; stroke: #ffffff; stroke-width: 0.48"/>
    </g>
    <g clip-path="url(#pae4a136e1e)">
     <use xlink:href="#C0_0_4fea74cf15" x="122.192974" y="218.804371" style="fill: #f28360; stroke: #ffffff; stroke-width: 0.48"/>
    </g>
    <g clip-path="url(#pae4a136e1e)">
     <use xlink:href="#C0_0_4fea74cf15" x="137.510371" y="196.073363" style="fill: #f28360; stroke: #ffffff; stroke-width: 0.48"/>
    </g>
    <g clip-path="url(#pae4a136e1e)">
     <use xlink:href="#C0_0_4fea74cf15" x="149.613563" y="210.332482" style="fill: #f28360; stroke: #ffffff; stroke-width: 0.48"/>
    </g>
    <g clip-path="url(#pae4a136e1e)">
     <use xlink:href="#C0_0_4fea74cf15" x="168.665375" y="257.64783" style="fill: #f28360; stroke: #ffffff; stroke-width: 0.48"/>
    </g>
    <g clip-path="url(#pae4a136e1e)">
     <use xlink:href="#C0_0_4fea74cf15" x="132.213908" y="174.326023" style="fill: #f28360; stroke: #ffffff; stroke-width: 0.48"/>
    </g>
    <g clip-path="url(#pae4a136e1e)">
     <use xlink:href="#C0_0_4fea74cf15" x="122.824131" y="179.617132" style="fill: #f28360; stroke: #ffffff; stroke-width: 0.48"/>
    </g>
    <g clip-path="url(#pae4a136e1e)">
     <use xlink:href="#C0_0_4fea74cf15" x="146.418994" y="207.762077" style="fill: #f28360; stroke: #ffffff; stroke-width: 0.48"/>
    </g>
    <g clip-path="url(#pae4a136e1e)">
     <use xlink:href="#C0_0_4fea74cf15" x="154.927364" y="219.246934" style="fill: #f28360; stroke: #ffffff; stroke-width: 0.48"/>
    </g>
    <g clip-path="url(#pae4a136e1e)">
     <use xlink:href="#C0_0_4fea74cf15" x="172.457707" y="241.250684" style="fill: #f28360; stroke: #ffffff; stroke-width: 0.48"/>
    </g>
    <g clip-path="url(#pae4a136e1e)">
     <use xlink:href="#C0_0_4fea74cf15" x="135.699143" y="210.915317" style="fill: #f28360; stroke: #ffffff; stroke-width: 0.48"/>
    </g>
    <g clip-path="url(#pae4a136e1e)">
     <use xlink:href="#C0_0_4fea74cf15" x="124.724245" y="209.811362" style="fill: #f28360; stroke: #ffffff; stroke-width: 0.48"/>
    </g>
    <g clip-path="url(#pae4a136e1e)">
     <use xlink:href="#C0_0_4fea74cf15" x="132.019143" y="220.536749" style="fill: #f28360; stroke: #ffffff; stroke-width: 0.48"/>
    </g>
    <g clip-path="url(#pae4a136e1e)">
     <use xlink:href="#C0_0_4fea74cf15" x="135.325076" y="226.684817" style="fill: #f28360; stroke: #ffffff; stroke-width: 0.48"/>
    </g>
    <g clip-path="url(#pae4a136e1e)">
     <use xlink:href="#C0_0_4fea74cf15" x="137.526565" y="235.425643" style="fill: #f28360; stroke: #ffffff; stroke-width: 0.48"/>
    </g>
    <g clip-path="url(#pae4a136e1e)">
     <use xlink:href="#C0_0_4fea74cf15" x="126.884632" y="211.616541" style="fill: #f28360; stroke: #ffffff; stroke-width: 0.48"/>
    </g>
    <g clip-path="url(#pae4a136e1e)">
     <use xlink:href="#C0_0_4fea74cf15" x="142.439571" y="242.649338" style="fill: #f28360; stroke: #ffffff; stroke-width: 0.48"/>
    </g>
    <g clip-path="url(#pae4a136e1e)">
     <use xlink:href="#C0_0_4fea74cf15" x="126.634483" y="160.500888" style="fill: #f28360; stroke: #ffffff; stroke-width: 0.48"/>
    </g>
    <g clip-path="url(#pae4a136e1e)">
     <use xlink:href="#C0_0_4fea74cf15" x="133.973483" y="177.628698" style="fill: #f28360; stroke: #ffffff; stroke-width: 0.48"/>
    </g>
    <g clip-path="url(#pae4a136e1e)">
     <use xlink:href="#C0_0_4fea74cf15" x="121.244022" y="241.223928" style="fill: #f28360; stroke: #ffffff; stroke-width: 0.48"/>
    </g>
    <g clip-path="url(#pae4a136e1e)">
     <use xlink:href="#C0_0_4fea74cf15" x="135.633024" y="236.797459" style="fill: #f28360; stroke: #ffffff; stroke-width: 0.48"/>
    </g>
    <g clip-path="url(#pae4a136e1e)">
     <use xlink:href="#C0_0_4fea74cf15" x="122.27588" y="251.36233" style="fill: #f28360; stroke: #ffffff; stroke-width: 0.48"/>
    </g>
    <g clip-path="url(#pae4a136e1e)">
     <use xlink:href="#C0_0_4fea74cf15" x="133.983859" y="197.994036" style="fill: #f28360; stroke: #ffffff; stroke-width: 0.48"/>
    </g>
    <g clip-path="url(#pae4a136e1e)">
     <use xlink:href="#C0_0_4fea74cf15" x="157.13073" y="259.198993" style="fill: #f28360; stroke: #ffffff; stroke-width: 0.48"/>
    </g>
    <g clip-path="url(#pae4a136e1e)">
     <use xlink:href="#C0_0_4fea74cf15" x="191.525844" y="264.162977" style="fill: #f28360; stroke: #ffffff; stroke-width: 0.48"/>
    </g>
    <g clip-path="url(#pae4a136e1e)">
     <use xlink:href="#C0_0_4fea74cf15" x="136.858355" y="228.457143" style="fill: #f28360; stroke: #ffffff; stroke-width: 0.48"/>
    </g>
    <g clip-path="url(#pae4a136e1e)">
     <use xlink:href="#C0_0_4fea74cf15" x="126.89012" y="222.357432" style="fill: #f28360; stroke: #ffffff; stroke-width: 0.48"/>
    </g>
    <g clip-path="url(#pae4a136e1e)">
     <use xlink:href="#C0_0_4fea74cf15" x="133.902899" y="243.716999" style="fill: #f28360; stroke: #ffffff; stroke-width: 0.48"/>
    </g>
    <g clip-path="url(#pae4a136e1e)">
     <use xlink:href="#C0_0_4fea74cf15" x="137.822855" y="230.214515" style="fill: #f28360; stroke: #ffffff; stroke-width: 0.48"/>
    </g>
    <g clip-path="url(#pae4a136e1e)">
     <use xlink:href="#C0_0_4fea74cf15" x="137.44589" y="173.400714" style="fill: #f28360; stroke: #ffffff; stroke-width: 0.48"/>
    </g>
    <g clip-path="url(#pae4a136e1e)">
     <use xlink:href="#C0_0_4fea74cf15" x="131.624614" y="235.553104" style="fill: #f28360; stroke: #ffffff; stroke-width: 0.48"/>
    </g>
    <g clip-path="url(#pae4a136e1e)">
     <use xlink:href="#C0_0_4fea74cf15" x="166.631164" y="235.36249" style="fill: #f28360; stroke: #ffffff; stroke-width: 0.48"/>
    </g>
    <g clip-path="url(#pae4a136e1e)">
     <use xlink:href="#C0_0_4fea74cf15" x="126.7524" y="231.273997" style="fill: #f28360; stroke: #ffffff; stroke-width: 0.48"/>
    </g>
    <g clip-path="url(#pae4a136e1e)">
     <use xlink:href="#C0_0_4fea74cf15" x="145.785619" y="198.438456" style="fill: #f28360; stroke: #ffffff; stroke-width: 0.48"/>
    </g>
    <g clip-path="url(#pae4a136e1e)">
     <use xlink:href="#C0_0_4fea74cf15" x="134.750107" y="245.253148" style="fill: #f28360; stroke: #ffffff; stroke-width: 0.48"/>
    </g>
    <g clip-path="url(#pae4a136e1e)">
     <use xlink:href="#C0_0_4fea74cf15" x="136.117531" y="211.94895" style="fill: #f28360; stroke: #ffffff; stroke-width: 0.48"/>
    </g>
    <g clip-path="url(#pae4a136e1e)">
     <use xlink:href="#C0_0_4fea74cf15" x="127.627712" y="208.579374" style="fill: #f28360; stroke: #ffffff; stroke-width: 0.48"/>
    </g>
    <g clip-path="url(#pae4a136e1e)">
     <use xlink:href="#C0_0_4fea74cf15" x="148.076819" y="209.358667" style="fill: #f28360; stroke: #ffffff; stroke-width: 0.48"/>
    </g>
    <g clip-path="url(#pae4a136e1e)">
     <use xlink:href="#C0_0_4fea74cf15" x="152.392589" y="228.651667" style="fill: #f28360; stroke: #ffffff; stroke-width: 0.48"/>
    </g>
    <g clip-path="url(#pae4a136e1e)">
     <use xlink:href="#C0_0_4fea74cf15" x="121.541256" y="258.151538" style="fill: #f28360; stroke: #ffffff; stroke-width: 0.48"/>
    </g>
    <g clip-path="url(#pae4a136e1e)">
     <use xlink:href="#C0_0_4fea74cf15" x="128.417019" y="265.871348" style="fill: #f28360; stroke: #ffffff; stroke-width: 0.48"/>
    </g>
    <g clip-path="url(#pae4a136e1e)">
     <use xlink:href="#C0_0_4fea74cf15" x="136.788858" y="191.649182" style="fill: #f28360; stroke: #ffffff; stroke-width: 0.48"/>
    </g>
    <g clip-path="url(#pae4a136e1e)">
     <use xlink:href="#C0_0_4fea74cf15" x="122.241149" y="208.697282" style="fill: #f28360; stroke: #ffffff; stroke-width: 0.48"/>
    </g>
    <g clip-path="url(#pae4a136e1e)">
     <use xlink:href="#C0_0_4fea74cf15" x="134.899196" y="217.765588" style="fill: #f28360; stroke: #ffffff; stroke-width: 0.48"/>
    </g>
    <g clip-path="url(#pae4a136e1e)">
     <use xlink:href="#C0_0_4fea74cf15" x="122.667328" y="231.921663" style="fill: #f28360; stroke: #ffffff; stroke-width: 0.48"/>
    </g>
    <g clip-path="url(#pae4a136e1e)">
     <use xlink:href="#C0_0_4fea74cf15" x="136.162034" y="219.196596" style="fill: #f28360; stroke: #ffffff; stroke-width: 0.48"/>
    </g>
    <g clip-path="url(#pae4a136e1e)">
     <use xlink:href="#C0_0_4fea74cf15" x="136.455479" y="236.029795" style="fill: #f28360; stroke: #ffffff; stroke-width: 0.48"/>
    </g>
    <g clip-path="url(#pae4a136e1e)">
     <use xlink:href="#C0_0_4fea74cf15" x="147.028131" y="201.514492" style="fill: #f28360; stroke: #ffffff; stroke-width: 0.48"/>
    </g>
    <g clip-path="url(#pae4a136e1e)">
     <use xlink:href="#C0_0_4fea74cf15" x="153.091542" y="220.145327" style="fill: #f28360; stroke: #ffffff; stroke-width: 0.48"/>
    </g>
    <g clip-path="url(#pae4a136e1e)">
     <use xlink:href="#C0_0_4fea74cf15" x="174.124197" y="255.092776" style="fill: #f28360; stroke: #ffffff; stroke-width: 0.48"/>
    </g>
    <g clip-path="url(#pae4a136e1e)">
     <use xlink:href="#C0_0_4fea74cf15" x="142.761293" y="221.385492" style="fill: #f28360; stroke: #ffffff; stroke-width: 0.48"/>
    </g>
    <g clip-path="url(#pae4a136e1e)">
     <use xlink:href="#C0_0_4fea74cf15" x="141.660176" y="216.727948" style="fill: #f28360; stroke: #ffffff; stroke-width: 0.48"/>
    </g>
    <g clip-path="url(#pae4a136e1e)">
     <use xlink:href="#C0_0_4fea74cf15" x="132.248068" y="234.074416" style="fill: #f28360; stroke: #ffffff; stroke-width: 0.48"/>
    </g>
    <g clip-path="url(#pae4a136e1e)">
     <use xlink:href="#C0_0_4fea74cf15" x="142.528798" y="233.858603" style="fill: #f28360; stroke: #ffffff; stroke-width: 0.48"/>
    </g>
    <g clip-path="url(#pae4a136e1e)">
     <use xlink:href="#C0_0_4fea74cf15" x="150.905528" y="212.450698" style="fill: #f28360; stroke: #ffffff; stroke-width: 0.48"/>
    </g>
    <g clip-path="url(#pae4a136e1e)">
     <use xlink:href="#C0_0_4fea74cf15" x="128.437945" y="160.281009" style="fill: #f28360; stroke: #ffffff; stroke-width: 0.48"/>
    </g>
    <g clip-path="url(#pae4a136e1e)">
     <use xlink:href="#C0_0_4fea74cf15" x="147.644309" y="196.754446" style="fill: #f28360; stroke: #ffffff; stroke-width: 0.48"/>
    </g>
    <g clip-path="url(#pae4a136e1e)">
     <use xlink:href="#C0_0_4fea74cf15" x="172.237489" y="243.156151" style="fill: #f28360; stroke: #ffffff; stroke-width: 0.48"/>
    </g>
    <g clip-path="url(#pae4a136e1e)">
     <use xlink:href="#C0_0_4fea74cf15" x="161.254226" y="252.355379" style="fill: #f28360; stroke: #ffffff; stroke-width: 0.48"/>
    </g>
    <g clip-path="url(#pae4a136e1e)">
     <use xlink:href="#C0_0_4fea74cf15" x="120.99163" y="158.186996" style="fill: #f28360; stroke: #ffffff; stroke-width: 0.48"/>
    </g>
    <g clip-path="url(#pae4a136e1e)">
     <use xlink:href="#C0_0_4fea74cf15" x="123.30105" y="236.623975" style="fill: #f28360; stroke: #ffffff; stroke-width: 0.48"/>
    </g>
    <g clip-path="url(#pae4a136e1e)">
     <use xlink:href="#C0_0_4fea74cf15" x="121.809909" y="239.223511" style="fill: #f28360; stroke: #ffffff; stroke-width: 0.48"/>
    </g>
    <g clip-path="url(#pae4a136e1e)">
     <use xlink:href="#C0_0_4fea74cf15" x="142.427037" y="210.861168" style="fill: #f28360; stroke: #ffffff; stroke-width: 0.48"/>
    </g>
    <g clip-path="url(#pae4a136e1e)">
     <use xlink:href="#C0_0_4fea74cf15" x="145.81765" y="215.691319" style="fill: #f28360; stroke: #ffffff; stroke-width: 0.48"/>
    </g>
    <g clip-path="url(#pae4a136e1e)">
     <use xlink:href="#C0_0_4fea74cf15" x="126.542668" y="253.313118" style="fill: #f28360; stroke: #ffffff; stroke-width: 0.48"/>
    </g>
    <g clip-path="url(#pae4a136e1e)">
     <use xlink:href="#C0_0_4fea74cf15" x="138.267" y="221.635077" style="fill: #f28360; stroke: #ffffff; stroke-width: 0.48"/>
    </g>
    <g clip-path="url(#pae4a136e1e)">
     <use xlink:href="#C0_0_4fea74cf15" x="136.04776" y="197.102955" style="fill: #f28360; stroke: #ffffff; stroke-width: 0.48"/>
    </g>
    <g clip-path="url(#pae4a136e1e)">
     <use xlink:href="#C0_0_4fea74cf15" x="127.537374" y="201.349337" style="fill: #f28360; stroke: #ffffff; stroke-width: 0.48"/>
    </g>
    <g clip-path="url(#pae4a136e1e)">
     <use xlink:href="#C0_0_4fea74cf15" x="126.697188" y="205.116526" style="fill: #f28360; stroke: #ffffff; stroke-width: 0.48"/>
    </g>
    <g clip-path="url(#pae4a136e1e)">
     <use xlink:href="#C0_0_4fea74cf15" x="140.240235" y="176.084451" style="fill: #f28360; stroke: #ffffff; stroke-width: 0.48"/>
    </g>
    <g clip-path="url(#pae4a136e1e)">
     <use xlink:href="#C0_0_4fea74cf15" x="127.591188" y="148.179367" style="fill: #f28360; stroke: #ffffff; stroke-width: 0.48"/>
    </g>
    <g clip-path="url(#pae4a136e1e)">
     <use xlink:href="#C0_0_4fea74cf15" x="152.164014" y="248.480804" style="fill: #f28360; stroke: #ffffff; stroke-width: 0.48"/>
    </g>
    <g clip-path="url(#pae4a136e1e)">
     <use xlink:href="#C0_0_4fea74cf15" x="129.79754" y="132.546685" style="fill: #f28360; stroke: #ffffff; stroke-width: 0.48"/>
    </g>
    <g clip-path="url(#pae4a136e1e)">
     <use xlink:href="#C0_0_4fea74cf15" x="133.578213" y="162.618896" style="fill: #f28360; stroke: #ffffff; stroke-width: 0.48"/>
    </g>
    <g clip-path="url(#pae4a136e1e)">
     <use xlink:href="#C0_0_4fea74cf15" x="139.667521" y="199.007941" style="fill: #f28360; stroke: #ffffff; stroke-width: 0.48"/>
    </g>
    <g clip-path="url(#pae4a136e1e)">
     <use xlink:href="#C0_0_4fea74cf15" x="130.369551" y="197.175907" style="fill: #f28360; stroke: #ffffff; stroke-width: 0.48"/>
    </g>
    <g clip-path="url(#pae4a136e1e)">
     <use xlink:href="#C0_0_4fea74cf15" x="120.490596" y="251.722386" style="fill: #f28360; stroke: #ffffff; stroke-width: 0.48"/>
    </g>
    <g clip-path="url(#pae4a136e1e)">
     <use xlink:href="#C0_0_4fea74cf15" x="134.552537" y="255.52896" style="fill: #f28360; stroke: #ffffff; stroke-width: 0.48"/>
    </g>
    <g clip-path="url(#pae4a136e1e)">
     <use xlink:href="#C0_0_4fea74cf15" x="129.33862" y="166.290907" style="fill: #f28360; stroke: #ffffff; stroke-width: 0.48"/>
    </g>
    <g clip-path="url(#pae4a136e1e)">
     <use xlink:href="#C0_0_4fea74cf15" x="125.167901" y="173.200027" style="fill: #f28360; stroke: #ffffff; stroke-width: 0.48"/>
    </g>
    <g clip-path="url(#pae4a136e1e)">
     <use xlink:href="#C0_0_4fea74cf15" x="130.900947" y="173.203394" style="fill: #f28360; stroke: #ffffff; stroke-width: 0.48"/>
    </g>
    <g clip-path="url(#pae4a136e1e)">
     <use xlink:href="#C0_0_4fea74cf15" x="133.143484" y="182.844748" style="fill: #f28360; stroke: #ffffff; stroke-width: 0.48"/>
    </g>
    <g clip-path="url(#pae4a136e1e)">
     <use xlink:href="#C0_0_4fea74cf15" x="146.024682" y="257.713664" style="fill: #f28360; stroke: #ffffff; stroke-width: 0.48"/>
    </g>
    <g clip-path="url(#pae4a136e1e)">
     <use xlink:href="#C0_0_4fea74cf15" x="124.906185" y="175.030399" style="fill: #f28360; stroke: #ffffff; stroke-width: 0.48"/>
    </g>
    <g clip-path="url(#pae4a136e1e)">
     <use xlink:href="#C0_0_4fea74cf15" x="141.024501" y="186.055981" style="fill: #f28360; stroke: #ffffff; stroke-width: 0.48"/>
    </g>
    <g clip-path="url(#pae4a136e1e)">
     <use xlink:href="#C0_0_4fea74cf15" x="137.503172" y="232.563775" style="fill: #f28360; stroke: #ffffff; stroke-width: 0.48"/>
    </g>
    <g clip-path="url(#pae4a136e1e)">
     <use xlink:href="#C0_0_4fea74cf15" x="130.690431" y="219.381845" style="fill: #f28360; stroke: #ffffff; stroke-width: 0.48"/>
    </g>
    <g clip-path="url(#pae4a136e1e)">
     <use xlink:href="#C0_0_4fea74cf15" x="129.439087" y="166.729206" style="fill: #f28360; stroke: #ffffff; stroke-width: 0.48"/>
    </g>
    <g clip-path="url(#pae4a136e1e)">
     <use xlink:href="#C0_0_4fea74cf15" x="129.124318" y="178.921433" style="fill: #f28360; stroke: #ffffff; stroke-width: 0.48"/>
    </g>
    <g clip-path="url(#pae4a136e1e)">
     <use xlink:href="#C0_0_4fea74cf15" x="187.526819" y="240.532976" style="fill: #7a77ab; stroke: #ffffff; stroke-width: 0.48"/>
    </g>
    <g clip-path="url(#pae4a136e1e)">
     <use xlink:href="#C0_0_4fea74cf15" x="199.712652" y="219.323413" style="fill: #7a77ab; stroke: #ffffff; stroke-width: 0.48"/>
    </g>
    <g clip-path="url(#pae4a136e1e)">
     <use xlink:href="#C0_0_4fea74cf15" x="137.404292" y="269.13331" style="fill: #7a77ab; stroke: #ffffff; stroke-width: 0.48"/>
    </g>
    <g clip-path="url(#pae4a136e1e)">
     <use xlink:href="#C0_0_4fea74cf15" x="213.095577" y="244.485238" style="fill: #7a77ab; stroke: #ffffff; stroke-width: 0.48"/>
    </g>
    <g clip-path="url(#pae4a136e1e)">
     <use xlink:href="#C0_0_4fea74cf15" x="209.598846" y="251.778071" style="fill: #7a77ab; stroke: #ffffff; stroke-width: 0.48"/>
    </g>
    <g clip-path="url(#pae4a136e1e)">
     <use xlink:href="#C0_0_4fea74cf15" x="232.30787" y="214.974881" style="fill: #7a77ab; stroke: #ffffff; stroke-width: 0.48"/>
    </g>
    <g clip-path="url(#pae4a136e1e)">
     <use xlink:href="#C0_0_4fea74cf15" x="148.449781" y="235.375995" style="fill: #7a77ab; stroke: #ffffff; stroke-width: 0.48"/>
    </g>
    <g clip-path="url(#pae4a136e1e)">
     <use xlink:href="#C0_0_4fea74cf15" x="230.113837" y="239.303608" style="fill: #7a77ab; stroke: #ffffff; stroke-width: 0.48"/>
    </g>
    <g clip-path="url(#pae4a136e1e)">
     <use xlink:href="#C0_0_4fea74cf15" x="245.030396" y="244.403902" style="fill: #7a77ab; stroke: #ffffff; stroke-width: 0.48"/>
    </g>
    <g clip-path="url(#pae4a136e1e)">
     <use xlink:href="#C0_0_4fea74cf15" x="131.156593" y="251.626223" style="fill: #7a77ab; stroke: #ffffff; stroke-width: 0.48"/>
    </g>
    <g clip-path="url(#pae4a136e1e)">
     <use xlink:href="#C0_0_4fea74cf15" x="206.425215" y="238.500833" style="fill: #7a77ab; stroke: #ffffff; stroke-width: 0.48"/>
    </g>
    <g clip-path="url(#pae4a136e1e)">
     <use xlink:href="#C0_0_4fea74cf15" x="251.161296" y="177.030688" style="fill: #7a77ab; stroke: #ffffff; stroke-width: 0.48"/>
    </g>
    <g clip-path="url(#pae4a136e1e)">
     <use xlink:href="#C0_0_4fea74cf15" x="185.164828" y="267.360438" style="fill: #7a77ab; stroke: #ffffff; stroke-width: 0.48"/>
    </g>
    <g clip-path="url(#pae4a136e1e)">
     <use xlink:href="#C0_0_4fea74cf15" x="176.673536" y="265.843154" style="fill: #7a77ab; stroke: #ffffff; stroke-width: 0.48"/>
    </g>
    <g clip-path="url(#pae4a136e1e)">
     <use xlink:href="#C0_0_4fea74cf15" x="182.06371" y="266.5163" style="fill: #7a77ab; stroke: #ffffff; stroke-width: 0.48"/>
    </g>
    <g clip-path="url(#pae4a136e1e)">
     <use xlink:href="#C0_0_4fea74cf15" x="196.776846" y="267.654155" style="fill: #7a77ab; stroke: #ffffff; stroke-width: 0.48"/>
    </g>
    <g clip-path="url(#pae4a136e1e)">
     <use xlink:href="#C0_0_4fea74cf15" x="238.474171" y="237.654534" style="fill: #7a77ab; stroke: #ffffff; stroke-width: 0.48"/>
    </g>
    <g clip-path="url(#pae4a136e1e)">
     <use xlink:href="#C0_0_4fea74cf15" x="186.240109" y="242.030157" style="fill: #7a77ab; stroke: #ffffff; stroke-width: 0.48"/>
    </g>
    <g clip-path="url(#pae4a136e1e)">
     <use xlink:href="#C0_0_4fea74cf15" x="196.734441" y="254.257509" style="fill: #7a77ab; stroke: #ffffff; stroke-width: 0.48"/>
    </g>
    <g clip-path="url(#pae4a136e1e)">
     <use xlink:href="#C0_0_4fea74cf15" x="255.958095" y="238.825729" style="fill: #7a77ab; stroke: #ffffff; stroke-width: 0.48"/>
    </g>
    <g clip-path="url(#pae4a136e1e)">
     <use xlink:href="#C0_0_4fea74cf15" x="236.129832" y="257.920719" style="fill: #7a77ab; stroke: #ffffff; stroke-width: 0.48"/>
    </g>
    <g clip-path="url(#pae4a136e1e)">
     <use xlink:href="#C0_0_4fea74cf15" x="199.95824" y="259.219823" style="fill: #7a77ab; stroke: #ffffff; stroke-width: 0.48"/>
    </g>
    <g clip-path="url(#pae4a136e1e)">
     <use xlink:href="#C0_0_4fea74cf15" x="247.223534" y="221.264685" style="fill: #7a77ab; stroke: #ffffff; stroke-width: 0.48"/>
    </g>
    <g clip-path="url(#pae4a136e1e)">
     <use xlink:href="#C0_0_4fea74cf15" x="167.213532" y="260.814252" style="fill: #7a77ab; stroke: #ffffff; stroke-width: 0.48"/>
    </g>
    <g clip-path="url(#pae4a136e1e)">
     <use xlink:href="#C0_0_4fea74cf15" x="210.671131" y="266.906645" style="fill: #7a77ab; stroke: #ffffff; stroke-width: 0.48"/>
    </g>
    <g clip-path="url(#pae4a136e1e)">
     <use xlink:href="#C0_0_4fea74cf15" x="215.375118" y="266.887651" style="fill: #7a77ab; stroke: #ffffff; stroke-width: 0.48"/>
    </g>
    <g clip-path="url(#pae4a136e1e)">
     <use xlink:href="#C0_0_4fea74cf15" x="224.668148" y="266.701749" style="fill: #7a77ab; stroke: #ffffff; stroke-width: 0.48"/>
    </g>
    <g clip-path="url(#pae4a136e1e)">
     <use xlink:href="#C0_0_4fea74cf15" x="218.969303" y="266.583508" style="fill: #7a77ab; stroke: #ffffff; stroke-width: 0.48"/>
    </g>
    <g clip-path="url(#pae4a136e1e)">
     <use xlink:href="#C0_0_4fea74cf15" x="221.659357" y="266.495323" style="fill: #7a77ab; stroke: #ffffff; stroke-width: 0.48"/>
    </g>
    <g clip-path="url(#pae4a136e1e)">
     <use xlink:href="#C0_0_4fea74cf15" x="138.718329" y="256.342284" style="fill: #7a77ab; stroke: #ffffff; stroke-width: 0.48"/>
    </g>
    <g clip-path="url(#pae4a136e1e)">
     <use xlink:href="#C0_0_4fea74cf15" x="253.129878" y="198.681209" style="fill: #7a77ab; stroke: #ffffff; stroke-width: 0.48"/>
    </g>
    <g clip-path="url(#pae4a136e1e)">
     <use xlink:href="#C0_0_4fea74cf15" x="227.300689" y="254.21308" style="fill: #7a77ab; stroke: #ffffff; stroke-width: 0.48"/>
    </g>
    <g clip-path="url(#pae4a136e1e)">
     <use xlink:href="#C0_0_4fea74cf15" x="160.521394" y="251.467374" style="fill: #7a77ab; stroke: #ffffff; stroke-width: 0.48"/>
    </g>
    <g clip-path="url(#pae4a136e1e)">
     <use xlink:href="#C0_0_4fea74cf15" x="179.124335" y="241.266891" style="fill: #7a77ab; stroke: #ffffff; stroke-width: 0.48"/>
    </g>
    <g clip-path="url(#pae4a136e1e)">
     <use xlink:href="#C0_0_4fea74cf15" x="242.136635" y="252.645012" style="fill: #7a77ab; stroke: #ffffff; stroke-width: 0.48"/>
    </g>
    <g clip-path="url(#pae4a136e1e)">
     <use xlink:href="#C0_0_4fea74cf15" x="179.56625" y="264.123755" style="fill: #7a77ab; stroke: #ffffff; stroke-width: 0.48"/>
    </g>
    <g clip-path="url(#pae4a136e1e)">
     <use xlink:href="#C0_0_4fea74cf15" x="158.303753" y="248.817267" style="fill: #7a77ab; stroke: #ffffff; stroke-width: 0.48"/>
    </g>
    <g clip-path="url(#pae4a136e1e)">
     <use xlink:href="#C0_0_4fea74cf15" x="176.606328" y="241.88861" style="fill: #7a77ab; stroke: #ffffff; stroke-width: 0.48"/>
    </g>
    <g clip-path="url(#pae4a136e1e)">
     <use xlink:href="#C0_0_4fea74cf15" x="194.140691" y="247.091792" style="fill: #7a77ab; stroke: #ffffff; stroke-width: 0.48"/>
    </g>
    <g clip-path="url(#pae4a136e1e)">
     <use xlink:href="#C0_0_4fea74cf15" x="168.864775" y="250.126992" style="fill: #7a77ab; stroke: #ffffff; stroke-width: 0.48"/>
    </g>
    <g clip-path="url(#pae4a136e1e)">
     <use xlink:href="#C0_0_4fea74cf15" x="215.810371" y="267.933835" style="fill: #7a77ab; stroke: #ffffff; stroke-width: 0.48"/>
    </g>
    <g clip-path="url(#pae4a136e1e)">
     <use xlink:href="#C0_0_4fea74cf15" x="209.236756" y="264.915769" style="fill: #7a77ab; stroke: #ffffff; stroke-width: 0.48"/>
    </g>
    <g clip-path="url(#pae4a136e1e)">
     <use xlink:href="#C0_0_4fea74cf15" x="230.157581" y="262.810301" style="fill: #7a77ab; stroke: #ffffff; stroke-width: 0.48"/>
    </g>
    <g clip-path="url(#pae4a136e1e)">
     <use xlink:href="#C0_0_4fea74cf15" x="240.784366" y="267.924983" style="fill: #7a77ab; stroke: #ffffff; stroke-width: 0.48"/>
    </g>
    <g clip-path="url(#pae4a136e1e)">
     <use xlink:href="#C0_0_4fea74cf15" x="159.515408" y="254.138362" style="fill: #7a77ab; stroke: #ffffff; stroke-width: 0.48"/>
    </g>
    <g clip-path="url(#pae4a136e1e)">
     <use xlink:href="#C0_0_4fea74cf15" x="238.96538" y="206.15779" style="fill: #7a77ab; stroke: #ffffff; stroke-width: 0.48"/>
    </g>
    <g clip-path="url(#pae4a136e1e)">
     <use xlink:href="#C0_0_4fea74cf15" x="222.431671" y="246.142243" style="fill: #7a77ab; stroke: #ffffff; stroke-width: 0.48"/>
    </g>
    <g clip-path="url(#pae4a136e1e)">
     <use xlink:href="#C0_0_4fea74cf15" x="214.315484" y="250.0703" style="fill: #7a77ab; stroke: #ffffff; stroke-width: 0.48"/>
    </g>
    <g clip-path="url(#pae4a136e1e)">
     <use xlink:href="#C0_0_4fea74cf15" x="194.272651" y="252.80471" style="fill: #7a77ab; stroke: #ffffff; stroke-width: 0.48"/>
    </g>
    <g clip-path="url(#pae4a136e1e)">
     <use xlink:href="#C0_0_4fea74cf15" x="152.515278" y="253.753855" style="fill: #7a77ab; stroke: #ffffff; stroke-width: 0.48"/>
    </g>
    <g clip-path="url(#pae4a136e1e)">
     <use xlink:href="#C0_0_4fea74cf15" x="192.856493" y="241.998218" style="fill: #7a77ab; stroke: #ffffff; stroke-width: 0.48"/>
    </g>
    <g clip-path="url(#pae4a136e1e)">
     <use xlink:href="#C0_0_4fea74cf15" x="179.71255" y="236.321389" style="fill: #7a77ab; stroke: #ffffff; stroke-width: 0.48"/>
    </g>
    <g clip-path="url(#pae4a136e1e)">
     <use xlink:href="#C0_0_4fea74cf15" x="176.691116" y="250.171964" style="fill: #7a77ab; stroke: #ffffff; stroke-width: 0.48"/>
    </g>
    <g clip-path="url(#pae4a136e1e)">
     <use xlink:href="#C0_0_4fea74cf15" x="160.809932" y="266.398948" style="fill: #7a77ab; stroke: #ffffff; stroke-width: 0.48"/>
    </g>
    <g clip-path="url(#pae4a136e1e)">
     <use xlink:href="#C0_0_4fea74cf15" x="186.559441" y="256.817084" style="fill: #7a77ab; stroke: #ffffff; stroke-width: 0.48"/>
    </g>
    <g clip-path="url(#pae4a136e1e)">
     <use xlink:href="#C0_0_4fea74cf15" x="236.463647" y="223.760027" style="fill: #7a77ab; stroke: #ffffff; stroke-width: 0.48"/>
    </g>
    <g clip-path="url(#pae4a136e1e)">
     <use xlink:href="#C0_0_4fea74cf15" x="153.855567" y="257.41828" style="fill: #7a77ab; stroke: #ffffff; stroke-width: 0.48"/>
    </g>
    <g clip-path="url(#pae4a136e1e)">
     <use xlink:href="#C0_0_4fea74cf15" x="148.941052" y="260.136543" style="fill: #7a77ab; stroke: #ffffff; stroke-width: 0.48"/>
    </g>
    <g clip-path="url(#pae4a136e1e)">
     <use xlink:href="#C0_0_4fea74cf15" x="165.836554" y="241.499199" style="fill: #7a77ab; stroke: #ffffff; stroke-width: 0.48"/>
    </g>
    <g clip-path="url(#pae4a136e1e)">
     <use xlink:href="#C0_0_4fea74cf15" x="224.621035" y="220.528704" style="fill: #7a77ab; stroke: #ffffff; stroke-width: 0.48"/>
    </g>
    <g clip-path="url(#pae4a136e1e)">
     <use xlink:href="#C0_0_4fea74cf15" x="172.222383" y="245.892636" style="fill: #7a77ab; stroke: #ffffff; stroke-width: 0.48"/>
    </g>
    <g clip-path="url(#pae4a136e1e)">
     <use xlink:href="#C0_0_4fea74cf15" x="163.101986" y="257.068687" style="fill: #7a77ab; stroke: #ffffff; stroke-width: 0.48"/>
    </g>
    <g clip-path="url(#pae4a136e1e)">
     <use xlink:href="#C0_0_4fea74cf15" x="210.853615" y="243.592437" style="fill: #7a77ab; stroke: #ffffff; stroke-width: 0.48"/>
    </g>
    <g clip-path="url(#pae4a136e1e)">
     <use xlink:href="#C0_0_4fea74cf15" x="206.490778" y="247.124176" style="fill: #7a77ab; stroke: #ffffff; stroke-width: 0.48"/>
    </g>
    <g clip-path="url(#pae4a136e1e)">
     <use xlink:href="#C0_0_4fea74cf15" x="235.707385" y="247.337519" style="fill: #7a77ab; stroke: #ffffff; stroke-width: 0.48"/>
    </g>
    <g clip-path="url(#pae4a136e1e)">
     <use xlink:href="#C0_0_4fea74cf15" x="191.498502" y="264.795027" style="fill: #7a77ab; stroke: #ffffff; stroke-width: 0.48"/>
    </g>
    <g clip-path="url(#pae4a136e1e)">
     <use xlink:href="#C0_0_4fea74cf15" x="189.770249" y="263.223167" style="fill: #7a77ab; stroke: #ffffff; stroke-width: 0.48"/>
    </g>
    <g clip-path="url(#pae4a136e1e)">
     <use xlink:href="#C0_0_4fea74cf15" x="168.232371" y="258.508708" style="fill: #7a77ab; stroke: #ffffff; stroke-width: 0.48"/>
    </g>
    <g clip-path="url(#pae4a136e1e)">
     <use xlink:href="#C0_0_4fea74cf15" x="178.467863" y="261.530247" style="fill: #7a77ab; stroke: #ffffff; stroke-width: 0.48"/>
    </g>
    <g clip-path="url(#pae4a136e1e)">
     <use xlink:href="#C0_0_4fea74cf15" x="224.751434" y="230.898957" style="fill: #7a77ab; stroke: #ffffff; stroke-width: 0.48"/>
    </g>
    <g clip-path="url(#pae4a136e1e)">
     <use xlink:href="#C0_0_4fea74cf15" x="200.989665" y="237.487864" style="fill: #7a77ab; stroke: #ffffff; stroke-width: 0.48"/>
    </g>
    <g clip-path="url(#pae4a136e1e)">
     <use xlink:href="#C0_0_4fea74cf15" x="211.542877" y="249.266706" style="fill: #7a77ab; stroke: #ffffff; stroke-width: 0.48"/>
    </g>
    <g clip-path="url(#pae4a136e1e)">
     <use xlink:href="#C0_0_4fea74cf15" x="176.859907" y="257.97637" style="fill: #7a77ab; stroke: #ffffff; stroke-width: 0.48"/>
    </g>
    <g clip-path="url(#pae4a136e1e)">
     <use xlink:href="#C0_0_4fea74cf15" x="185.573502" y="227.142858" style="fill: #7a77ab; stroke: #ffffff; stroke-width: 0.48"/>
    </g>
    <g clip-path="url(#pae4a136e1e)">
     <use xlink:href="#C0_0_4fea74cf15" x="184.451157" y="263.569023" style="fill: #7a77ab; stroke: #ffffff; stroke-width: 0.48"/>
    </g>
    <g clip-path="url(#pae4a136e1e)">
     <use xlink:href="#C0_0_4fea74cf15" x="180.898792" y="253.009466" style="fill: #7a77ab; stroke: #ffffff; stroke-width: 0.48"/>
    </g>
    <g clip-path="url(#pae4a136e1e)">
     <use xlink:href="#C0_0_4fea74cf15" x="141.74545" y="258.046931" style="fill: #7a77ab; stroke: #ffffff; stroke-width: 0.48"/>
    </g>
    <g clip-path="url(#pae4a136e1e)">
     <use xlink:href="#C0_0_4fea74cf15" x="159.597845" y="252.483205" style="fill: #7a77ab; stroke: #ffffff; stroke-width: 0.48"/>
    </g>
    <g clip-path="url(#pae4a136e1e)">
     <use xlink:href="#C0_0_4fea74cf15" x="234.694298" y="210.159363" style="fill: #7a77ab; stroke: #ffffff; stroke-width: 0.48"/>
    </g>
    <g clip-path="url(#pae4a136e1e)">
     <use xlink:href="#C0_0_4fea74cf15" x="244.299923" y="244.737372" style="fill: #7a77ab; stroke: #ffffff; stroke-width: 0.48"/>
    </g>
    <g clip-path="url(#pae4a136e1e)">
     <use xlink:href="#C0_0_4fea74cf15" x="149.785465" y="229.332689" style="fill: #7a77ab; stroke: #ffffff; stroke-width: 0.48"/>
    </g>
    <g clip-path="url(#pae4a136e1e)">
     <use xlink:href="#C0_0_4fea74cf15" x="175.174879" y="264.514883" style="fill: #7a77ab; stroke: #ffffff; stroke-width: 0.48"/>
    </g>
    <g clip-path="url(#pae4a136e1e)">
     <use xlink:href="#C0_0_4fea74cf15" x="144.745341" y="242.882529" style="fill: #7a77ab; stroke: #ffffff; stroke-width: 0.48"/>
    </g>
    <g clip-path="url(#pae4a136e1e)">
     <use xlink:href="#C0_0_4fea74cf15" x="251.021167" y="165.303093" style="fill: #7a77ab; stroke: #ffffff; stroke-width: 0.48"/>
    </g>
    <g clip-path="url(#pae4a136e1e)">
     <use xlink:href="#C0_0_4fea74cf15" x="145.544036" y="259.172327" style="fill: #7a77ab; stroke: #ffffff; stroke-width: 0.48"/>
    </g>
    <g clip-path="url(#pae4a136e1e)">
     <use xlink:href="#C0_0_4fea74cf15" x="146.47001" y="260.421766" style="fill: #7a77ab; stroke: #ffffff; stroke-width: 0.48"/>
    </g>
    <g clip-path="url(#pae4a136e1e)">
     <use xlink:href="#C0_0_4fea74cf15" x="197.571774" y="268.87914" style="fill: #7a77ab; stroke: #ffffff; stroke-width: 0.48"/>
    </g>
    <g clip-path="url(#pae4a136e1e)">
     <use xlink:href="#C0_0_4fea74cf15" x="146.375416" y="253.073461" style="fill: #7a77ab; stroke: #ffffff; stroke-width: 0.48"/>
    </g>
    <g clip-path="url(#pae4a136e1e)">
     <use xlink:href="#C0_0_4fea74cf15" x="218.638548" y="258.128413" style="fill: #7a77ab; stroke: #ffffff; stroke-width: 0.48"/>
    </g>
    <g clip-path="url(#pae4a136e1e)">
     <use xlink:href="#C0_0_4fea74cf15" x="135.710415" y="245.210922" style="fill: #7a77ab; stroke: #ffffff; stroke-width: 0.48"/>
    </g>
    <g clip-path="url(#pae4a136e1e)">
     <use xlink:href="#C0_0_4fea74cf15" x="141.298634" y="246.343198" style="fill: #7a77ab; stroke: #ffffff; stroke-width: 0.48"/>
    </g>
   </g>
   <g id="matplotlib.axis_1">
    <g id="xtick_1">
     <g id="line2d_1">
      <defs>
       <path id="mba71365c73" d="M 0 0 
L 0 5 
" style="stroke: #000000; stroke-width: 0.75"/>
      </defs>
      <g>
       <use xlink:href="#mba71365c73" x="120.20197" y="312.563736" style="stroke: #000000; stroke-width: 0.75"/>
      </g>
     </g>
     <g id="text_1">
      <text style="font: 14.5px &quot;Suisse Int&apos;l Mono&quot;; text-anchor: middle" x="120.20197" y="333.076236" transform="rotate(-0 120.20197 333.076236)">0.0</text>
     </g>
    </g>
    <g id="xtick_2">
     <g id="line2d_2">
      <g>
       <use xlink:href="#mba71365c73" x="194.29886" y="312.563736" style="stroke: #000000; stroke-width: 0.75"/>
      </g>
     </g>
     <g id="text_2">
      <text style="font: 14.5px &quot;Suisse Int&apos;l Mono&quot;; text-anchor: middle" x="194.29886" y="333.076236" transform="rotate(-0 194.29886 333.076236)">0.5</text>
     </g>
    </g>
    <g id="xtick_3">
     <g id="line2d_3">
      <g>
       <use xlink:href="#mba71365c73" x="268.395749" y="312.563736" style="stroke: #000000; stroke-width: 0.75"/>
      </g>
     </g>
     <g id="text_3">
      <text style="font: 14.5px &quot;Suisse Int&apos;l Mono&quot;; text-anchor: middle" x="268.395749" y="333.076236" transform="rotate(-0 268.395749 333.076236)">1.0</text>
     </g>
    </g>
    <g id="text_4">
     <text style="font: 500 15px &quot;Suisse Int&apos;l&quot;, sans-serif; text-anchor: middle" x="193.557344" y="356.488736" transform="rotate(-0 193.557344 356.488736)">Confinement ratio</text>
    </g>
   </g>
   <g id="matplotlib.axis_2">
    <g id="ytick_1">
     <g id="line2d_4">
      <defs>
       <path id="m7838233e01" d="M 0 0 
L -5 0 
" style="stroke: #000000; stroke-width: 0.75"/>
      </defs>
      <g>
       <use xlink:href="#m7838233e01" x="81.762344" y="311.676924" style="stroke: #000000; stroke-width: 0.75"/>
      </g>
     </g>
     <g id="text_5">
      <text style="font: 14.5px &quot;Suisse Int&apos;l Mono&quot;; text-anchor: end" x="71.762344" y="316.933174" transform="rotate(-0 71.762344 316.933174)">−20</text>
     </g>
    </g>
    <g id="ytick_2">
     <g id="line2d_5">
      <g>
       <use xlink:href="#m7838233e01" x="81.762344" y="273.362979" style="stroke: #000000; stroke-width: 0.75"/>
      </g>
     </g>
     <g id="text_6">
      <text style="font: 14.5px &quot;Suisse Int&apos;l Mono&quot;; text-anchor: end" x="71.762344" y="278.619229" transform="rotate(-0 71.762344 278.619229)">0</text>
     </g>
    </g>
    <g id="ytick_3">
     <g id="line2d_6">
      <g>
       <use xlink:href="#m7838233e01" x="81.762344" y="235.049033" style="stroke: #000000; stroke-width: 0.75"/>
      </g>
     </g>
     <g id="text_7">
      <text style="font: 14.5px &quot;Suisse Int&apos;l Mono&quot;; text-anchor: end" x="71.762344" y="240.305283" transform="rotate(-0 71.762344 240.305283)">20</text>
     </g>
    </g>
    <g id="ytick_4">
     <g id="line2d_7">
      <g>
       <use xlink:href="#m7838233e01" x="81.762344" y="196.735088" style="stroke: #000000; stroke-width: 0.75"/>
      </g>
     </g>
     <g id="text_8">
      <text style="font: 14.5px &quot;Suisse Int&apos;l Mono&quot;; text-anchor: end" x="71.762344" y="201.991338" transform="rotate(-0 71.762344 201.991338)">40</text>
     </g>
    </g>
    <g id="ytick_5">
     <g id="line2d_8">
      <g>
       <use xlink:href="#m7838233e01" x="81.762344" y="158.421142" style="stroke: #000000; stroke-width: 0.75"/>
      </g>
     </g>
     <g id="text_9">
      <text style="font: 14.5px &quot;Suisse Int&apos;l Mono&quot;; text-anchor: end" x="71.762344" y="163.677392" transform="rotate(-0 71.762344 163.677392)">60</text>
     </g>
    </g>
    <g id="ytick_6">
     <g id="line2d_9">
      <g>
       <use xlink:href="#m7838233e01" x="81.762344" y="120.107197" style="stroke: #000000; stroke-width: 0.75"/>
      </g>
     </g>
     <g id="text_10">
      <text style="font: 14.5px &quot;Suisse Int&apos;l Mono&quot;; text-anchor: end" x="71.762344" y="125.363447" transform="rotate(-0 71.762344 125.363447)">80</text>
     </g>
    </g>
    <g id="ytick_7">
     <g id="line2d_10">
      <g>
       <use xlink:href="#m7838233e01" x="81.762344" y="81.793251" style="stroke: #000000; stroke-width: 0.75"/>
      </g>
     </g>
     <g id="text_11">
      <text style="font: 14.5px &quot;Suisse Int&apos;l Mono&quot;; text-anchor: end" x="71.762344" y="87.049501" transform="rotate(-0 71.762344 87.049501)">100</text>
     </g>
    </g>
    <g id="text_12">
     <text style="font: 500 15px &quot;Suisse Int&apos;l&quot;, sans-serif; text-anchor: middle" x="30.875" y="196.729451" transform="rotate(-90 30.875 196.729451)">Mean curvilinear speed (µm/s)</text>
    </g>
   </g>
   <g id="line2d_11"/>
   <g id="line2d_12"/>
   <g id="patch_3">
    <path d="M 81.762344 312.563736 
L 81.762344 80.895165 
" style="fill: none; stroke: #000000; stroke-width: 0.75; stroke-linejoin: miter; stroke-linecap: square"/>
   </g>
   <g id="patch_4">
    <path d="M 81.762344 312.563736 
L 305.352344 312.563736 
" style="fill: none; stroke: #000000; stroke-width: 0.75; stroke-linejoin: miter; stroke-linecap: square"/>
   </g>
   <g id="legend_1">
    <g id="text_13">
     <text style="font: 600 16px &quot;Suisse Int&apos;l&quot;, sans-serif; text-anchor: start" x="348.365344" y="92.495165" transform="rotate(-0 348.365344 92.495165)">Vessel_type</text>
    </g>
    <g id="line2d_13">
     <path d="M 348.365344 102.795165 
L 461.865344 102.795165 
" style="fill: none; stroke: #bab0a8; stroke-width: 1.5; stroke-linecap: round"/>
    </g>
    <g id="line2d_14">
     <defs>
      <path id="mc3f4a2a083" d="M 0 3 
C 0.795609 3 1.55874 2.683901 2.12132 2.12132 
C 2.683901 1.55874 3 0.795609 3 0 
C 3 -0.795609 2.683901 -1.55874 2.12132 -2.12132 
C 1.55874 -2.683901 0.795609 -3 0 -3 
C -0.795609 -3 -1.55874 -2.683901 -2.12132 -2.12132 
C -2.683901 -1.55874 -3 -0.795609 -3 0 
C -3 0.795609 -2.683901 1.55874 -2.12132 2.12132 
C -1.55874 2.683901 -0.795609 3 0 3 
z
" style="stroke: #ffffff; stroke-width: 0.48"/>
     </defs>
     <g>
      <use xlink:href="#mc3f4a2a083" x="355.865344" y="116.670165" style="fill: #f28360; stroke: #ffffff; stroke-width: 0.48"/>
     </g>
    </g>
    <g id="text_14">
     <text style="font: 15px &quot;Suisse Int&apos;l&quot;, sans-serif; text-anchor: start" x="369.365344" y="123.045165" transform="rotate(-0 369.365344 123.045165)">Pools | n=145</text>
    </g>
    <g id="line2d_15">
     <defs>
      <path id="m61a7a7007e" d="M 0 3 
C 0.795609 3 1.55874 2.683901 2.12132 2.12132 
C 2.683901 1.55874 3 0.795609 3 0 
C 3 -0.795609 2.683901 -1.55874 2.12132 -2.12132 
C 1.55874 -2.683901 0.795609 -3 0 -3 
C -0.795609 -3 -1.55874 -2.683901 -2.12132 -2.12132 
C -2.683901 -1.55874 -3 -0.795609 -3 0 
C -3 0.795609 -2.683901 1.55874 -2.12132 2.12132 
C -1.55874 2.683901 -0.795609 3 0 3 
z
" style="stroke: #ffffff; stroke-width: 0.48"/>
     </defs>
     <g>
      <use xlink:href="#m61a7a7007e" x="355.865344" y="139.545165" style="fill: #7a77ab; stroke: #ffffff; stroke-width: 0.48"/>
     </g>
    </g>
    <g id="text_15">
     <text style="font: 15px &quot;Suisse Int&apos;l&quot;, sans-serif; text-anchor: start" x="369.365344" y="145.920165" transform="rotate(-0 369.365344 145.920165)">Wells | n=91</text>
    </g>
   </g>
  </g>
  <g id="axes_2">
   <g id="patch_5">
    <path d="M 81.762344 72.906593 
L 305.352344 72.906593 
L 305.352344 32.963736 
L 81.762344 32.963736 
L 81.762344 72.906593 
z
" style="fill: none"/>
   </g>
   <g id="PolyCollection_1">
    <defs>
     <path id="mf6b7e2e725" d="M 90.043455 -306.213451 
L 90.043455 -306.207143 
L 91.083795 -306.207143 
L 92.124136 -306.207143 
L 93.164477 -306.207143 
L 94.204817 -306.207143 
L 95.245158 -306.207143 
L 96.285498 -306.207143 
L 97.325839 -306.207143 
L 98.36618 -306.207143 
L 99.40652 -306.207143 
L 100.446861 -306.207143 
L 101.487201 -306.207143 
L 102.527542 -306.207143 
L 103.567883 -306.207143 
L 104.608223 -306.207143 
L 105.648564 -306.207143 
L 106.688904 -306.207143 
L 107.729245 -306.207143 
L 108.769586 -306.207143 
L 109.809926 -306.207143 
L 110.850267 -306.207143 
L 111.890607 -306.207143 
L 112.930948 -306.207143 
L 113.971288 -306.207143 
L 115.011629 -306.207143 
L 116.05197 -306.207143 
L 117.09231 -306.207143 
L 118.132651 -306.207143 
L 119.172991 -306.207143 
L 120.213332 -306.207143 
L 121.253673 -306.207143 
L 122.294013 -306.207143 
L 123.334354 -306.207143 
L 124.374694 -306.207143 
L 125.415035 -306.207143 
L 126.455376 -306.207143 
L 127.495716 -306.207143 
L 128.536057 -306.207143 
L 129.576397 -306.207143 
L 130.616738 -306.207143 
L 131.657079 -306.207143 
L 132.697419 -306.207143 
L 133.73776 -306.207143 
L 134.7781 -306.207143 
L 135.818441 -306.207143 
L 136.858781 -306.207143 
L 137.899122 -306.207143 
L 138.939463 -306.207143 
L 139.979803 -306.207143 
L 141.020144 -306.207143 
L 142.060484 -306.207143 
L 143.100825 -306.207143 
L 144.141166 -306.207143 
L 145.181506 -306.207143 
L 146.221847 -306.207143 
L 147.262187 -306.207143 
L 148.302528 -306.207143 
L 149.342869 -306.207143 
L 150.383209 -306.207143 
L 151.42355 -306.207143 
L 152.46389 -306.207143 
L 153.504231 -306.207143 
L 154.544572 -306.207143 
L 155.584912 -306.207143 
L 156.625253 -306.207143 
L 157.665593 -306.207143 
L 158.705934 -306.207143 
L 159.746275 -306.207143 
L 160.786615 -306.207143 
L 161.826956 -306.207143 
L 162.867296 -306.207143 
L 163.907637 -306.207143 
L 164.947977 -306.207143 
L 165.988318 -306.207143 
L 167.028659 -306.207143 
L 168.068999 -306.207143 
L 169.10934 -306.207143 
L 170.14968 -306.207143 
L 171.190021 -306.207143 
L 172.230362 -306.207143 
L 173.270702 -306.207143 
L 174.311043 -306.207143 
L 175.351383 -306.207143 
L 176.391724 -306.207143 
L 177.432065 -306.207143 
L 178.472405 -306.207143 
L 179.512746 -306.207143 
L 180.553086 -306.207143 
L 181.593427 -306.207143 
L 182.633768 -306.207143 
L 183.674108 -306.207143 
L 184.714449 -306.207143 
L 185.754789 -306.207143 
L 186.79513 -306.207143 
L 187.83547 -306.207143 
L 188.875811 -306.207143 
L 189.916152 -306.207143 
L 190.956492 -306.207143 
L 191.996833 -306.207143 
L 193.037173 -306.207143 
L 194.077514 -306.207143 
L 195.117855 -306.207143 
L 196.158195 -306.207143 
L 197.198536 -306.207143 
L 198.238876 -306.207143 
L 199.279217 -306.207143 
L 200.319558 -306.207143 
L 201.359898 -306.207143 
L 202.400239 -306.207143 
L 203.440579 -306.207143 
L 204.48092 -306.207143 
L 205.521261 -306.207143 
L 206.561601 -306.207143 
L 207.601942 -306.207143 
L 208.642282 -306.207143 
L 209.682623 -306.207143 
L 210.722964 -306.207143 
L 211.763304 -306.207143 
L 212.803645 -306.207143 
L 213.843985 -306.207143 
L 214.884326 -306.207143 
L 215.924666 -306.207143 
L 216.965007 -306.207143 
L 218.005348 -306.207143 
L 219.045688 -306.207143 
L 220.086029 -306.207143 
L 221.126369 -306.207143 
L 222.16671 -306.207143 
L 223.207051 -306.207143 
L 224.247391 -306.207143 
L 225.287732 -306.207143 
L 226.328072 -306.207143 
L 227.368413 -306.207143 
L 228.408754 -306.207143 
L 229.449094 -306.207143 
L 230.489435 -306.207143 
L 231.529775 -306.207143 
L 232.570116 -306.207143 
L 233.610457 -306.207143 
L 234.650797 -306.207143 
L 235.691138 -306.207143 
L 236.731478 -306.207143 
L 237.771819 -306.207143 
L 238.812159 -306.207143 
L 239.8525 -306.207143 
L 240.892841 -306.207143 
L 241.933181 -306.207143 
L 242.973522 -306.207143 
L 244.013862 -306.207143 
L 245.054203 -306.207143 
L 246.094544 -306.207143 
L 247.134884 -306.207143 
L 248.175225 -306.207143 
L 249.215565 -306.207143 
L 250.255906 -306.207143 
L 251.296247 -306.207143 
L 252.336587 -306.207143 
L 253.376928 -306.207143 
L 254.417268 -306.207143 
L 255.457609 -306.207143 
L 256.49795 -306.207143 
L 257.53829 -306.207143 
L 258.578631 -306.207143 
L 259.618971 -306.207143 
L 260.659312 -306.207143 
L 261.699653 -306.207143 
L 262.739993 -306.207143 
L 263.780334 -306.207143 
L 264.820674 -306.207143 
L 265.861015 -306.207143 
L 266.901355 -306.207143 
L 267.941696 -306.207143 
L 268.982037 -306.207143 
L 270.022377 -306.207143 
L 271.062718 -306.207143 
L 272.103058 -306.207143 
L 273.143399 -306.207143 
L 274.18374 -306.207143 
L 275.22408 -306.207143 
L 276.264421 -306.207143 
L 277.304761 -306.207143 
L 278.345102 -306.207143 
L 279.385443 -306.207143 
L 280.425783 -306.207143 
L 281.466124 -306.207143 
L 282.506464 -306.207143 
L 283.546805 -306.207143 
L 284.587146 -306.207143 
L 285.627486 -306.207143 
L 286.667827 -306.207143 
L 287.708167 -306.207143 
L 288.748508 -306.207143 
L 289.788848 -306.207143 
L 290.829189 -306.207143 
L 291.86953 -306.207143 
L 292.90987 -306.207143 
L 293.950211 -306.207143 
L 294.990551 -306.207143 
L 296.030892 -306.207143 
L 297.071233 -306.207143 
L 297.071233 -306.214949 
L 297.071233 -306.214949 
L 296.030892 -306.217106 
L 294.990551 -306.219792 
L 293.950211 -306.223118 
L 292.90987 -306.227214 
L 291.86953 -306.232229 
L 290.829189 -306.238337 
L 289.788848 -306.245732 
L 288.748508 -306.254636 
L 287.708167 -306.265299 
L 286.667827 -306.277995 
L 285.627486 -306.29303 
L 284.587146 -306.310734 
L 283.546805 -306.331469 
L 282.506464 -306.355619 
L 281.466124 -306.383591 
L 280.425783 -306.415816 
L 279.385443 -306.452735 
L 278.345102 -306.494805 
L 277.304761 -306.542483 
L 276.264421 -306.596229 
L 275.22408 -306.656487 
L 274.18374 -306.723686 
L 273.143399 -306.798228 
L 272.103058 -306.880477 
L 271.062718 -306.970751 
L 270.022377 -307.069313 
L 268.982037 -307.176362 
L 267.941696 -307.292025 
L 266.901355 -307.416349 
L 265.861015 -307.549294 
L 264.820674 -307.690731 
L 263.780334 -307.840436 
L 262.739993 -307.998088 
L 261.699653 -308.163274 
L 260.659312 -308.335483 
L 259.618971 -308.514119 
L 258.578631 -308.6985 
L 257.53829 -308.887872 
L 256.49795 -309.081411 
L 255.457609 -309.278242 
L 254.417268 -309.477444 
L 253.376928 -309.678069 
L 252.336587 -309.879154 
L 251.296247 -310.079731 
L 250.255906 -310.278849 
L 249.215565 -310.475582 
L 248.175225 -310.669044 
L 247.134884 -310.858403 
L 246.094544 -311.042888 
L 245.054203 -311.221805 
L 244.013862 -311.394539 
L 242.973522 -311.560562 
L 241.933181 -311.71944 
L 240.892841 -311.87083 
L 239.8525 -312.014482 
L 238.812159 -312.150242 
L 237.771819 -312.278037 
L 236.731478 -312.397882 
L 235.691138 -312.509863 
L 234.650797 -312.614135 
L 233.610457 -312.710912 
L 232.570116 -312.800455 
L 231.529775 -312.883066 
L 230.489435 -312.959079 
L 229.449094 -313.028847 
L 228.408754 -313.09274 
L 227.368413 -313.151136 
L 226.328072 -313.204416 
L 225.287732 -313.25296 
L 224.247391 -313.297147 
L 223.207051 -313.337351 
L 222.16671 -313.373944 
L 221.126369 -313.407297 
L 220.086029 -313.437779 
L 219.045688 -313.465766 
L 218.005348 -313.491636 
L 216.965007 -313.515775 
L 215.924666 -313.538579 
L 214.884326 -313.560452 
L 213.843985 -313.581806 
L 212.803645 -313.603057 
L 211.763304 -313.624621 
L 210.722964 -313.646908 
L 209.682623 -313.670316 
L 208.642282 -313.695217 
L 207.601942 -313.72195 
L 206.561601 -313.750811 
L 205.521261 -313.782036 
L 204.48092 -313.815796 
L 203.440579 -313.852184 
L 202.400239 -313.891201 
L 201.359898 -313.932758 
L 200.319558 -313.976661 
L 199.279217 -314.022615 
L 198.238876 -314.070219 
L 197.198536 -314.118974 
L 196.158195 -314.168285 
L 195.117855 -314.217477 
L 194.077514 -314.265799 
L 193.037173 -314.312449 
L 191.996833 -314.356584 
L 190.956492 -314.397346 
L 189.916152 -314.43388 
L 188.875811 -314.465356 
L 187.83547 -314.490992 
L 186.79513 -314.510076 
L 185.754789 -314.521984 
L 184.714449 -314.526196 
L 183.674108 -314.522315 
L 182.633768 -314.510076 
L 181.593427 -314.489354 
L 180.553086 -314.460168 
L 179.512746 -314.422678 
L 178.472405 -314.377186 
L 177.432065 -314.324119 
L 176.391724 -314.264025 
L 175.351383 -314.197547 
L 174.311043 -314.125411 
L 173.270702 -314.048401 
L 172.230362 -313.967336 
L 171.190021 -313.883042 
L 170.14968 -313.796334 
L 169.10934 -313.707986 
L 168.068999 -313.618708 
L 167.028659 -313.529131 
L 165.988318 -313.43978 
L 164.947977 -313.351067 
L 163.907637 -313.263273 
L 162.867296 -313.176547 
L 161.826956 -313.090894 
L 160.786615 -313.006185 
L 159.746275 -312.922155 
L 158.705934 -312.838414 
L 157.665593 -312.754462 
L 156.625253 -312.6697 
L 155.584912 -312.583453 
L 154.544572 -312.494989 
L 153.504231 -312.403542 
L 152.46389 -312.308335 
L 151.42355 -312.208608 
L 150.383209 -312.103636 
L 149.342869 -311.992756 
L 148.302528 -311.87539 
L 147.262187 -311.751058 
L 146.221847 -311.619403 
L 145.181506 -311.480197 
L 144.141166 -311.333354 
L 143.100825 -311.17894 
L 142.060484 -311.017167 
L 141.020144 -310.848399 
L 139.979803 -310.673142 
L 138.939463 -310.492039 
L 137.899122 -310.305852 
L 136.858781 -310.115451 
L 135.818441 -309.921796 
L 134.7781 -309.725915 
L 133.73776 -309.528883 
L 132.697419 -309.331805 
L 131.657079 -309.135787 
L 130.616738 -308.941921 
L 129.576397 -308.751262 
L 128.536057 -308.56481 
L 127.495716 -308.383495 
L 126.455376 -308.208158 
L 125.415035 -308.039549 
L 124.374694 -307.878307 
L 123.334354 -307.724962 
L 122.294013 -307.579932 
L 121.253673 -307.443518 
L 120.213332 -307.315909 
L 119.172991 -307.197187 
L 118.132651 -307.087334 
L 117.09231 -306.986238 
L 116.05197 -306.893703 
L 115.011629 -306.809462 
L 113.971288 -306.733183 
L 112.930948 -306.664485 
L 111.890607 -306.602946 
L 110.850267 -306.548116 
L 109.809926 -306.499524 
L 108.769586 -306.456692 
L 107.729245 -306.419138 
L 106.688904 -306.386389 
L 105.648564 -306.357981 
L 104.608223 -306.333471 
L 103.567883 -306.312438 
L 102.527542 -306.294484 
L 101.487201 -306.279242 
L 100.446861 -306.26637 
L 99.40652 -306.255558 
L 98.36618 -306.246526 
L 97.325839 -306.239021 
L 96.285498 -306.232819 
L 95.245158 -306.22772 
L 94.204817 -306.223551 
L 93.164477 -306.220162 
L 92.124136 -306.21742 
L 91.083795 -306.215215 
L 90.043455 -306.213451 
z
" style="stroke: #7a77ab; stroke-width: 2"/>
    </defs>
    <g clip-path="url(#p4da0d42d4f)">
     <use xlink:href="#mf6b7e2e725" x="0" y="379.113736" style="fill: #7a77ab; fill-opacity: 0.25; stroke: #7a77ab; stroke-width: 2"/>
    </g>
   </g>
   <g id="PolyCollection_2">
    <defs>
     <path id="m3bc08dddcc" d="M 106.330425 -306.258465 
L 106.330425 -306.207143 
L 106.829125 -306.207143 
L 107.327825 -306.207143 
L 107.826525 -306.207143 
L 108.325226 -306.207143 
L 108.823926 -306.207143 
L 109.322626 -306.207143 
L 109.821327 -306.207143 
L 110.320027 -306.207143 
L 110.818727 -306.207143 
L 111.317428 -306.207143 
L 111.816128 -306.207143 
L 112.314828 -306.207143 
L 112.813529 -306.207143 
L 113.312229 -306.207143 
L 113.810929 -306.207143 
L 114.30963 -306.207143 
L 114.80833 -306.207143 
L 115.30703 -306.207143 
L 115.80573 -306.207143 
L 116.304431 -306.207143 
L 116.803131 -306.207143 
L 117.301831 -306.207143 
L 117.800532 -306.207143 
L 118.299232 -306.207143 
L 118.797932 -306.207143 
L 119.296633 -306.207143 
L 119.795333 -306.207143 
L 120.294033 -306.207143 
L 120.792734 -306.207143 
L 121.291434 -306.207143 
L 121.790134 -306.207143 
L 122.288835 -306.207143 
L 122.787535 -306.207143 
L 123.286235 -306.207143 
L 123.784936 -306.207143 
L 124.283636 -306.207143 
L 124.782336 -306.207143 
L 125.281036 -306.207143 
L 125.779737 -306.207143 
L 126.278437 -306.207143 
L 126.777137 -306.207143 
L 127.275838 -306.207143 
L 127.774538 -306.207143 
L 128.273238 -306.207143 
L 128.771939 -306.207143 
L 129.270639 -306.207143 
L 129.769339 -306.207143 
L 130.26804 -306.207143 
L 130.76674 -306.207143 
L 131.26544 -306.207143 
L 131.764141 -306.207143 
L 132.262841 -306.207143 
L 132.761541 -306.207143 
L 133.260242 -306.207143 
L 133.758942 -306.207143 
L 134.257642 -306.207143 
L 134.756342 -306.207143 
L 135.255043 -306.207143 
L 135.753743 -306.207143 
L 136.252443 -306.207143 
L 136.751144 -306.207143 
L 137.249844 -306.207143 
L 137.748544 -306.207143 
L 138.247245 -306.207143 
L 138.745945 -306.207143 
L 139.244645 -306.207143 
L 139.743346 -306.207143 
L 140.242046 -306.207143 
L 140.740746 -306.207143 
L 141.239447 -306.207143 
L 141.738147 -306.207143 
L 142.236847 -306.207143 
L 142.735547 -306.207143 
L 143.234248 -306.207143 
L 143.732948 -306.207143 
L 144.231648 -306.207143 
L 144.730349 -306.207143 
L 145.229049 -306.207143 
L 145.727749 -306.207143 
L 146.22645 -306.207143 
L 146.72515 -306.207143 
L 147.22385 -306.207143 
L 147.722551 -306.207143 
L 148.221251 -306.207143 
L 148.719951 -306.207143 
L 149.218652 -306.207143 
L 149.717352 -306.207143 
L 150.216052 -306.207143 
L 150.714753 -306.207143 
L 151.213453 -306.207143 
L 151.712153 -306.207143 
L 152.210853 -306.207143 
L 152.709554 -306.207143 
L 153.208254 -306.207143 
L 153.706954 -306.207143 
L 154.205655 -306.207143 
L 154.704355 -306.207143 
L 155.203055 -306.207143 
L 155.701756 -306.207143 
L 156.200456 -306.207143 
L 156.699156 -306.207143 
L 157.197857 -306.207143 
L 157.696557 -306.207143 
L 158.195257 -306.207143 
L 158.693958 -306.207143 
L 159.192658 -306.207143 
L 159.691358 -306.207143 
L 160.190059 -306.207143 
L 160.688759 -306.207143 
L 161.187459 -306.207143 
L 161.686159 -306.207143 
L 162.18486 -306.207143 
L 162.68356 -306.207143 
L 163.18226 -306.207143 
L 163.680961 -306.207143 
L 164.179661 -306.207143 
L 164.678361 -306.207143 
L 165.177062 -306.207143 
L 165.675762 -306.207143 
L 166.174462 -306.207143 
L 166.673163 -306.207143 
L 167.171863 -306.207143 
L 167.670563 -306.207143 
L 168.169264 -306.207143 
L 168.667964 -306.207143 
L 169.166664 -306.207143 
L 169.665365 -306.207143 
L 170.164065 -306.207143 
L 170.662765 -306.207143 
L 171.161465 -306.207143 
L 171.660166 -306.207143 
L 172.158866 -306.207143 
L 172.657566 -306.207143 
L 173.156267 -306.207143 
L 173.654967 -306.207143 
L 174.153667 -306.207143 
L 174.652368 -306.207143 
L 175.151068 -306.207143 
L 175.649768 -306.207143 
L 176.148469 -306.207143 
L 176.647169 -306.207143 
L 177.145869 -306.207143 
L 177.64457 -306.207143 
L 178.14327 -306.207143 
L 178.64197 -306.207143 
L 179.14067 -306.207143 
L 179.639371 -306.207143 
L 180.138071 -306.207143 
L 180.636771 -306.207143 
L 181.135472 -306.207143 
L 181.634172 -306.207143 
L 182.132872 -306.207143 
L 182.631573 -306.207143 
L 183.130273 -306.207143 
L 183.628973 -306.207143 
L 184.127674 -306.207143 
L 184.626374 -306.207143 
L 185.125074 -306.207143 
L 185.623775 -306.207143 
L 186.122475 -306.207143 
L 186.621175 -306.207143 
L 187.119876 -306.207143 
L 187.618576 -306.207143 
L 188.117276 -306.207143 
L 188.615976 -306.207143 
L 189.114677 -306.207143 
L 189.613377 -306.207143 
L 190.112077 -306.207143 
L 190.610778 -306.207143 
L 191.109478 -306.207143 
L 191.608178 -306.207143 
L 192.106879 -306.207143 
L 192.605579 -306.207143 
L 193.104279 -306.207143 
L 193.60298 -306.207143 
L 194.10168 -306.207143 
L 194.60038 -306.207143 
L 195.099081 -306.207143 
L 195.597781 -306.207143 
L 196.096481 -306.207143 
L 196.595182 -306.207143 
L 197.093882 -306.207143 
L 197.592582 -306.207143 
L 198.091282 -306.207143 
L 198.589983 -306.207143 
L 199.088683 -306.207143 
L 199.587383 -306.207143 
L 200.086084 -306.207143 
L 200.584784 -306.207143 
L 201.083484 -306.207143 
L 201.582185 -306.207143 
L 202.080885 -306.207143 
L 202.579585 -306.207143 
L 203.078286 -306.207143 
L 203.576986 -306.207143 
L 204.075686 -306.207143 
L 204.574387 -306.207143 
L 205.073087 -306.207143 
L 205.571787 -306.207143 
L 205.571787 -306.212868 
L 205.571787 -306.212868 
L 205.073087 -306.214979 
L 204.574387 -306.217747 
L 204.075686 -306.221331 
L 203.576986 -306.225913 
L 203.078286 -306.231694 
L 202.579585 -306.238893 
L 202.080885 -306.24774 
L 201.582185 -306.258466 
L 201.083484 -306.271295 
L 200.584784 -306.286426 
L 200.086084 -306.304019 
L 199.587383 -306.324182 
L 199.088683 -306.346947 
L 198.589983 -306.372255 
L 198.091282 -306.399944 
L 197.592582 -306.429738 
L 197.093882 -306.461237 
L 196.595182 -306.493922 
L 196.096481 -306.527161 
L 195.597781 -306.560227 
L 195.099081 -306.592317 
L 194.60038 -306.622589 
L 194.10168 -306.650194 
L 193.60298 -306.674317 
L 193.104279 -306.694219 
L 192.605579 -306.709273 
L 192.106879 -306.719005 
L 191.608178 -306.723119 
L 191.109478 -306.721519 
L 190.610778 -306.714316 
L 190.112077 -306.701835 
L 189.613377 -306.684597 
L 189.114677 -306.663308 
L 188.615976 -306.638829 
L 188.117276 -306.612144 
L 187.618576 -306.584335 
L 187.119876 -306.556542 
L 186.621175 -306.529935 
L 186.122475 -306.505693 
L 185.623775 -306.484976 
L 185.125074 -306.46891 
L 184.626374 -306.45858 
L 184.127674 -306.455013 
L 183.628973 -306.459175 
L 183.130273 -306.471963 
L 182.631573 -306.494191 
L 182.132872 -306.526578 
L 181.634172 -306.569731 
L 181.135472 -306.624117 
L 180.636771 -306.690039 
L 180.138071 -306.767606 
L 179.639371 -306.856702 
L 179.14067 -306.956956 
L 178.64197 -307.067724 
L 178.14327 -307.188069 
L 177.64457 -307.316765 
L 177.145869 -307.452295 
L 176.647169 -307.592883 
L 176.148469 -307.736524 
L 175.649768 -307.881037 
L 175.151068 -308.024119 
L 174.652368 -308.163416 
L 174.153667 -308.296592 
L 173.654967 -308.421405 
L 173.156267 -308.535778 
L 172.657566 -308.63786 
L 172.158866 -308.726094 
L 171.660166 -308.79926 
L 171.161465 -308.856516 
L 170.662765 -308.897429 
L 170.164065 -308.921993 
L 169.665365 -308.930636 
L 169.166664 -308.924221 
L 168.667964 -308.904035 
L 168.169264 -308.871768 
L 167.670563 -308.829495 
L 167.171863 -308.779634 
L 166.673163 -308.724919 
L 166.174462 -308.668346 
L 165.675762 -308.613133 
L 165.177062 -308.562662 
L 164.678361 -308.520428 
L 164.179661 -308.489978 
L 163.680961 -308.474852 
L 163.18226 -308.478518 
L 162.68356 -308.504308 
L 162.18486 -308.555347 
L 161.686159 -308.634485 
L 161.187459 -308.744223 
L 160.688759 -308.886636 
L 160.190059 -309.063303 
L 159.691358 -309.275238 
L 159.192658 -309.522824 
L 158.693958 -309.805773 
L 158.195257 -310.123084 
L 157.696557 -310.473047 
L 157.197857 -310.853253 
L 156.699156 -311.260653 
L 156.200456 -311.691636 
L 155.701756 -312.142144 
L 155.203055 -312.607812 
L 154.704355 -313.084129 
L 154.205655 -313.566611 
L 153.706954 -314.050974 
L 153.208254 -314.533305 
L 152.709554 -315.010209 
L 152.210853 -315.478933 
L 151.712153 -315.937461 
L 151.213453 -316.384576 
L 150.714753 -316.819877 
L 150.216052 -317.243782 
L 149.717352 -317.657488 
L 149.218652 -318.062919 
L 148.719951 -318.462654 
L 148.221251 -318.85984 
L 147.722551 -319.258108 
L 147.22385 -319.661468 
L 146.72515 -320.074204 
L 146.22645 -320.500756 
L 145.727749 -320.945594 
L 145.229049 -321.413065 
L 144.730349 -321.907232 
L 144.231648 -322.431697 
L 143.732948 -322.989404 
L 143.234248 -323.582448 
L 142.735547 -324.211878 
L 142.236847 -324.877533 
L 141.738147 -325.577902 
L 141.239447 -326.310032 
L 140.740746 -327.069509 
L 140.242046 -327.850496 
L 139.743346 -328.645857 
L 139.244645 -329.447354 
L 138.745945 -330.245916 
L 138.247245 -331.03197 
L 137.748544 -331.795805 
L 137.249844 -332.527964 
L 136.751144 -333.219631 
L 136.252443 -333.862983 
L 135.753743 -334.451497 
L 135.255043 -334.980177 
L 134.756342 -335.445693 
L 134.257642 -335.846412 
L 133.758942 -336.182335 
L 133.260242 -336.454919 
L 132.761541 -336.666811 
L 132.262841 -336.821508 
L 131.764141 -336.92296 
L 131.26544 -336.975148 
L 130.76674 -336.981657 
L 130.26804 -336.945287 
L 129.769339 -336.867717 
L 129.270639 -336.749249 
L 128.771939 -336.588663 
L 128.273238 -336.383174 
L 127.774538 -336.12853 
L 127.275838 -335.819213 
L 126.777137 -335.448768 
L 126.278437 -335.010218 
L 125.779737 -334.496554 
L 125.281036 -333.901276 
L 124.782336 -333.21893 
L 124.283636 -332.445635 
L 123.784936 -331.579538 
L 123.286235 -330.621188 
L 122.787535 -329.573783 
L 122.288835 -328.443283 
L 121.790134 -327.238375 
L 121.291434 -325.970279 
L 120.792734 -324.652422 
L 120.294033 -323.299982 
L 119.795333 -321.92934 
L 119.296633 -320.557465 
L 118.797932 -319.201278 
L 118.299232 -317.877033 
L 117.800532 -316.599733 
L 117.301831 -315.38265 
L 116.803131 -314.236929 
L 116.304431 -313.171328 
L 115.80573 -312.192087 
L 115.30703 -311.30291 
L 114.80833 -310.505084 
L 114.30963 -309.797675 
L 113.810929 -309.17782 
L 113.312229 -308.641054 
L 112.813529 -308.181679 
L 112.314828 -307.793123 
L 111.816128 -307.468297 
L 111.317428 -307.1999 
L 110.818727 -306.980701 
L 110.320027 -306.803752 
L 109.821327 -306.66256 
L 109.322626 -306.551197 
L 108.823926 -306.464373 
L 108.325226 -306.397458 
L 107.826525 -306.346479 
L 107.327825 -306.308086 
L 106.829125 -306.279502 
L 106.330425 -306.258465 
z
" style="stroke: #f28360; stroke-width: 2"/>
    </defs>
    <g clip-path="url(#p4da0d42d4f)">
     <use xlink:href="#m3bc08dddcc" x="0" y="379.113736" style="fill: #f28360; fill-opacity: 0.25; stroke: #f28360; stroke-width: 2"/>
    </g>
   </g>
   <g id="matplotlib.axis_3">
    <g id="xtick_4">
     <g id="line2d_16">
      <g>
       <use xlink:href="#mba71365c73" x="120.20197" y="72.906593" style="stroke: #000000; stroke-width: 0.75"/>
      </g>
     </g>
    </g>
    <g id="xtick_5">
     <g id="line2d_17">
      <g>
       <use xlink:href="#mba71365c73" x="194.29886" y="72.906593" style="stroke: #000000; stroke-width: 0.75"/>
      </g>
     </g>
    </g>
    <g id="xtick_6">
     <g id="line2d_18">
      <g>
       <use xlink:href="#mba71365c73" x="268.395749" y="72.906593" style="stroke: #000000; stroke-width: 0.75"/>
      </g>
     </g>
    </g>
   </g>
   <g id="matplotlib.axis_4">
    <g id="ytick_8"/>
    <g id="ytick_9"/>
   </g>
   <g id="line2d_19">
    <path d="M 135.430946 34.5 
L 191.328446 34.5 
" clip-path="url(#p4da0d42d4f)" style="fill: none; stroke: #000000; stroke-width: 2; stroke-linecap: round"/>
   </g>
   <g id="patch_6">
    <path d="M 81.762344 72.906593 
L 305.352344 72.906593 
" style="fill: none; stroke: #000000; stroke-width: 0.75; stroke-linejoin: miter; stroke-linecap: square"/>
   </g>
   <g id="text_16">
    <text style="font: 20px &quot;Suisse Int&apos;l&quot;, sans-serif; text-anchor: middle" x="163.379696" y="34.5" transform="rotate(-0 163.379696 34.5)">****</text>
   </g>
  </g>
  <g id="axes_3">
   <g id="patch_7">
    <path d="M 313.062344 312.563736 
L 351.612344 312.563736 
L 351.612344 80.895165 
L 313.062344 80.895165 
L 313.062344 312.563736 
z
" style="fill: none"/>
   </g>
   <g id="PolyCollection_3">
    <defs>
     <path id="mb5725ed0b3" d="M 313.121973 -86.786969 
L 313.062344 -86.786969 
L 313.062344 -87.541829 
L 313.062344 -88.296689 
L 313.062344 -89.051549 
L 313.062344 -89.806409 
L 313.062344 -90.561269 
L 313.062344 -91.316129 
L 313.062344 -92.070989 
L 313.062344 -92.825849 
L 313.062344 -93.580709 
L 313.062344 -94.335569 
L 313.062344 -95.090429 
L 313.062344 -95.845289 
L 313.062344 -96.600149 
L 313.062344 -97.355009 
L 313.062344 -98.109868 
L 313.062344 -98.864728 
L 313.062344 -99.619588 
L 313.062344 -100.374448 
L 313.062344 -101.129308 
L 313.062344 -101.884168 
L 313.062344 -102.639028 
L 313.062344 -103.393888 
L 313.062344 -104.148748 
L 313.062344 -104.903608 
L 313.062344 -105.658468 
L 313.062344 -106.413328 
L 313.062344 -107.168188 
L 313.062344 -107.923048 
L 313.062344 -108.677908 
L 313.062344 -109.432768 
L 313.062344 -110.187628 
L 313.062344 -110.942488 
L 313.062344 -111.697348 
L 313.062344 -112.452208 
L 313.062344 -113.207068 
L 313.062344 -113.961928 
L 313.062344 -114.716787 
L 313.062344 -115.471647 
L 313.062344 -116.226507 
L 313.062344 -116.981367 
L 313.062344 -117.736227 
L 313.062344 -118.491087 
L 313.062344 -119.245947 
L 313.062344 -120.000807 
L 313.062344 -120.755667 
L 313.062344 -121.510527 
L 313.062344 -122.265387 
L 313.062344 -123.020247 
L 313.062344 -123.775107 
L 313.062344 -124.529967 
L 313.062344 -125.284827 
L 313.062344 -126.039687 
L 313.062344 -126.794547 
L 313.062344 -127.549407 
L 313.062344 -128.304267 
L 313.062344 -129.059127 
L 313.062344 -129.813987 
L 313.062344 -130.568847 
L 313.062344 -131.323706 
L 313.062344 -132.078566 
L 313.062344 -132.833426 
L 313.062344 -133.588286 
L 313.062344 -134.343146 
L 313.062344 -135.098006 
L 313.062344 -135.852866 
L 313.062344 -136.607726 
L 313.062344 -137.362586 
L 313.062344 -138.117446 
L 313.062344 -138.872306 
L 313.062344 -139.627166 
L 313.062344 -140.382026 
L 313.062344 -141.136886 
L 313.062344 -141.891746 
L 313.062344 -142.646606 
L 313.062344 -143.401466 
L 313.062344 -144.156326 
L 313.062344 -144.911186 
L 313.062344 -145.666046 
L 313.062344 -146.420906 
L 313.062344 -147.175766 
L 313.062344 -147.930625 
L 313.062344 -148.685485 
L 313.062344 -149.440345 
L 313.062344 -150.195205 
L 313.062344 -150.950065 
L 313.062344 -151.704925 
L 313.062344 -152.459785 
L 313.062344 -153.214645 
L 313.062344 -153.969505 
L 313.062344 -154.724365 
L 313.062344 -155.479225 
L 313.062344 -156.234085 
L 313.062344 -156.988945 
L 313.062344 -157.743805 
L 313.062344 -158.498665 
L 313.062344 -159.253525 
L 313.062344 -160.008385 
L 313.062344 -160.763245 
L 313.062344 -161.518105 
L 313.062344 -162.272965 
L 313.062344 -163.027825 
L 313.062344 -163.782685 
L 313.062344 -164.537544 
L 313.062344 -165.292404 
L 313.062344 -166.047264 
L 313.062344 -166.802124 
L 313.062344 -167.556984 
L 313.062344 -168.311844 
L 313.062344 -169.066704 
L 313.062344 -169.821564 
L 313.062344 -170.576424 
L 313.062344 -171.331284 
L 313.062344 -172.086144 
L 313.062344 -172.841004 
L 313.062344 -173.595864 
L 313.062344 -174.350724 
L 313.062344 -175.105584 
L 313.062344 -175.860444 
L 313.062344 -176.615304 
L 313.062344 -177.370164 
L 313.062344 -178.125024 
L 313.062344 -178.879884 
L 313.062344 -179.634744 
L 313.062344 -180.389604 
L 313.062344 -181.144464 
L 313.062344 -181.899323 
L 313.062344 -182.654183 
L 313.062344 -183.409043 
L 313.062344 -184.163903 
L 313.062344 -184.918763 
L 313.062344 -185.673623 
L 313.062344 -186.428483 
L 313.062344 -187.183343 
L 313.062344 -187.938203 
L 313.062344 -188.693063 
L 313.062344 -189.447923 
L 313.062344 -190.202783 
L 313.062344 -190.957643 
L 313.062344 -191.712503 
L 313.062344 -192.467363 
L 313.062344 -193.222223 
L 313.062344 -193.977083 
L 313.062344 -194.731943 
L 313.062344 -195.486803 
L 313.062344 -196.241663 
L 313.062344 -196.996523 
L 313.062344 -197.751383 
L 313.062344 -198.506242 
L 313.062344 -199.261102 
L 313.062344 -200.015962 
L 313.062344 -200.770822 
L 313.062344 -201.525682 
L 313.062344 -202.280542 
L 313.062344 -203.035402 
L 313.062344 -203.790262 
L 313.062344 -204.545122 
L 313.062344 -205.299982 
L 313.062344 -206.054842 
L 313.062344 -206.809702 
L 313.062344 -207.564562 
L 313.062344 -208.319422 
L 313.062344 -209.074282 
L 313.062344 -209.829142 
L 313.062344 -210.584002 
L 313.062344 -211.338862 
L 313.062344 -212.093722 
L 313.062344 -212.848582 
L 313.062344 -213.603442 
L 313.062344 -214.358302 
L 313.062344 -215.113161 
L 313.062344 -215.868021 
L 313.062344 -216.622881 
L 313.062344 -217.377741 
L 313.062344 -218.132601 
L 313.062344 -218.887461 
L 313.062344 -219.642321 
L 313.062344 -220.397181 
L 313.062344 -221.152041 
L 313.062344 -221.906901 
L 313.062344 -222.661761 
L 313.062344 -223.416621 
L 313.062344 -224.171481 
L 313.062344 -224.926341 
L 313.062344 -225.681201 
L 313.062344 -226.436061 
L 313.062344 -227.190921 
L 313.062344 -227.945781 
L 313.062344 -228.700641 
L 313.062344 -229.455501 
L 313.062344 -230.210361 
L 313.062344 -230.965221 
L 313.062344 -231.72008 
L 313.062344 -232.47494 
L 313.062344 -233.2298 
L 313.062344 -233.98466 
L 313.062344 -234.73952 
L 313.062344 -235.49438 
L 313.062344 -236.24924 
L 313.062344 -237.0041 
L 313.06989 -237.0041 
L 313.06989 -237.0041 
L 313.072415 -236.24924 
L 313.075659 -235.49438 
L 313.079783 -234.73952 
L 313.084969 -233.98466 
L 313.091424 -233.2298 
L 313.099371 -232.47494 
L 313.10905 -231.72008 
L 313.120713 -230.965221 
L 313.134613 -230.210361 
L 313.150998 -229.455501 
L 313.170099 -228.700641 
L 313.192121 -227.945781 
L 313.217225 -227.190921 
L 313.245519 -226.436061 
L 313.277046 -225.681201 
L 313.31177 -224.926341 
L 313.349571 -224.171481 
L 313.390237 -223.416621 
L 313.433466 -222.661761 
L 313.478867 -221.906901 
L 313.525966 -221.152041 
L 313.574223 -220.397181 
L 313.623046 -219.642321 
L 313.671811 -218.887461 
L 313.719884 -218.132601 
L 313.766641 -217.377741 
L 313.811494 -216.622881 
L 313.853907 -215.868021 
L 313.893412 -215.113161 
L 313.929616 -214.358302 
L 313.962213 -213.603442 
L 313.990976 -212.848582 
L 314.015755 -212.093722 
L 314.036464 -211.338862 
L 314.053069 -210.584002 
L 314.065576 -209.829142 
L 314.07401 -209.074282 
L 314.078409 -208.319422 
L 314.078815 -207.564562 
L 314.075268 -206.809702 
L 314.067811 -206.054842 
L 314.056497 -205.299982 
L 314.041398 -204.545122 
L 314.022627 -203.790262 
L 314.000351 -203.035402 
L 313.97481 -202.280542 
L 313.946337 -201.525682 
L 313.915366 -200.770822 
L 313.882439 -200.015962 
L 313.848214 -199.261102 
L 313.813452 -198.506242 
L 313.779006 -197.751383 
L 313.745803 -196.996523 
L 313.714821 -196.241663 
L 313.687052 -195.486803 
L 313.66348 -194.731943 
L 313.645041 -193.977083 
L 313.632597 -193.222223 
L 313.626905 -192.467363 
L 313.628594 -191.712503 
L 313.638143 -190.957643 
L 313.655876 -190.202783 
L 313.68195 -189.447923 
L 313.716357 -188.693063 
L 313.758937 -187.938203 
L 313.809385 -187.183343 
L 313.867277 -186.428483 
L 313.932085 -185.673623 
L 314.003211 -184.918763 
L 314.08001 -184.163903 
L 314.161818 -183.409043 
L 314.247977 -182.654183 
L 314.337865 -181.899323 
L 314.430912 -181.144464 
L 314.526623 -180.389604 
L 314.624587 -179.634744 
L 314.72449 -178.879884 
L 314.82612 -178.125024 
L 314.929367 -177.370164 
L 315.034216 -176.615304 
L 315.140746 -175.860444 
L 315.24911 -175.105584 
L 315.359527 -174.350724 
L 315.472259 -173.595864 
L 315.587593 -172.841004 
L 315.705816 -172.086144 
L 315.827195 -171.331284 
L 315.951953 -170.576424 
L 316.080249 -169.821564 
L 316.212156 -169.066704 
L 316.347655 -168.311844 
L 316.486627 -167.556984 
L 316.628854 -166.802124 
L 316.774036 -166.047264 
L 316.921814 -165.292404 
L 317.071807 -164.537544 
L 317.223664 -163.782685 
L 317.377116 -163.027825 
L 317.532047 -162.272965 
L 317.688568 -161.518105 
L 317.847084 -160.763245 
L 318.00837 -160.008385 
L 318.173628 -159.253525 
L 318.344538 -158.498665 
L 318.523285 -157.743805 
L 318.712568 -156.988945 
L 318.915578 -156.234085 
L 319.135953 -155.479225 
L 319.377702 -154.724365 
L 319.645096 -153.969505 
L 319.942541 -153.214645 
L 320.274423 -152.459785 
L 320.644942 -151.704925 
L 321.057933 -150.950065 
L 321.516686 -150.195205 
L 322.023779 -149.440345 
L 322.580924 -148.685485 
L 323.188835 -147.930625 
L 323.84713 -147.175766 
L 324.554281 -146.420906 
L 325.307591 -145.666046 
L 326.103227 -144.911186 
L 326.936298 -144.156326 
L 327.80097 -143.401466 
L 328.690622 -142.646606 
L 329.598031 -141.891746 
L 330.515578 -141.136886 
L 331.435466 -140.382026 
L 332.349939 -139.627166 
L 333.251489 -138.872306 
L 334.133044 -138.117446 
L 334.988132 -137.362586 
L 335.811002 -136.607726 
L 336.596718 -135.852866 
L 337.341204 -135.098006 
L 338.041255 -134.343146 
L 338.694504 -133.588286 
L 339.299365 -132.833426 
L 339.854937 -132.078566 
L 340.360898 -131.323706 
L 340.817371 -130.568847 
L 341.224789 -129.813987 
L 341.583752 -129.059127 
L 341.894884 -128.304267 
L 342.158701 -127.549407 
L 342.375481 -126.794547 
L 342.545152 -126.039687 
L 342.667198 -125.284827 
L 342.740584 -124.529967 
L 342.763712 -123.775107 
L 342.7344 -123.020247 
L 342.649901 -122.265387 
L 342.506961 -121.510527 
L 342.301916 -120.755667 
L 342.030832 -120.000807 
L 341.689683 -119.245947 
L 341.274576 -118.491087 
L 340.781991 -117.736227 
L 340.209051 -116.981367 
L 339.553791 -116.226507 
L 338.815425 -115.471647 
L 337.994576 -114.716787 
L 337.093469 -113.961928 
L 336.116065 -113.207068 
L 335.068118 -112.452208 
L 333.957156 -111.697348 
L 332.792374 -110.942488 
L 331.584442 -110.187628 
L 330.345239 -109.432768 
L 329.087524 -108.677908 
L 327.824552 -107.923048 
L 326.569672 -107.168188 
L 325.335914 -106.413328 
L 324.135594 -105.658468 
L 322.979955 -104.903608 
L 321.878866 -104.148748 
L 320.840589 -103.393888 
L 319.871615 -102.639028 
L 318.976594 -101.884168 
L 318.158335 -101.129308 
L 317.417877 -100.374448 
L 316.754629 -99.619588 
L 316.166558 -98.864728 
L 315.650407 -98.109868 
L 315.201943 -97.355009 
L 314.816201 -96.600149 
L 314.487732 -95.845289 
L 314.210825 -95.090429 
L 313.979712 -94.335569 
L 313.788736 -93.580709 
L 313.632491 -92.825849 
L 313.505926 -92.070989 
L 313.404415 -91.316129 
L 313.323799 -90.561269 
L 313.260408 -89.806409 
L 313.211049 -89.051549 
L 313.172993 -88.296689 
L 313.143938 -87.541829 
L 313.121973 -86.786969 
z
" style="stroke: #7a77ab; stroke-width: 2"/>
    </defs>
    <g clip-path="url(#pdf46db403c)">
     <use xlink:href="#mb5725ed0b3" x="0" y="379.113736" style="fill: #7a77ab; fill-opacity: 0.25; stroke: #7a77ab; stroke-width: 2"/>
    </g>
   </g>
   <g id="PolyCollection_4">
    <defs>
     <path id="md0b819a51d" d="M 313.079469 -75.130317 
L 313.062344 -75.130317 
L 313.062344 -76.208247 
L 313.062344 -77.286176 
L 313.062344 -78.364105 
L 313.062344 -79.442035 
L 313.062344 -80.519964 
L 313.062344 -81.597893 
L 313.062344 -82.675823 
L 313.062344 -83.753752 
L 313.062344 -84.831681 
L 313.062344 -85.909611 
L 313.062344 -86.98754 
L 313.062344 -88.065469 
L 313.062344 -89.143399 
L 313.062344 -90.221328 
L 313.062344 -91.299257 
L 313.062344 -92.377187 
L 313.062344 -93.455116 
L 313.062344 -94.533045 
L 313.062344 -95.610975 
L 313.062344 -96.688904 
L 313.062344 -97.766833 
L 313.062344 -98.844763 
L 313.062344 -99.922692 
L 313.062344 -101.000621 
L 313.062344 -102.078551 
L 313.062344 -103.15648 
L 313.062344 -104.234409 
L 313.062344 -105.312339 
L 313.062344 -106.390268 
L 313.062344 -107.468197 
L 313.062344 -108.546127 
L 313.062344 -109.624056 
L 313.062344 -110.701985 
L 313.062344 -111.779915 
L 313.062344 -112.857844 
L 313.062344 -113.935773 
L 313.062344 -115.013703 
L 313.062344 -116.091632 
L 313.062344 -117.169561 
L 313.062344 -118.247491 
L 313.062344 -119.32542 
L 313.062344 -120.403349 
L 313.062344 -121.481279 
L 313.062344 -122.559208 
L 313.062344 -123.637137 
L 313.062344 -124.715067 
L 313.062344 -125.792996 
L 313.062344 -126.870925 
L 313.062344 -127.948855 
L 313.062344 -129.026784 
L 313.062344 -130.104713 
L 313.062344 -131.182643 
L 313.062344 -132.260572 
L 313.062344 -133.338501 
L 313.062344 -134.416431 
L 313.062344 -135.49436 
L 313.062344 -136.572289 
L 313.062344 -137.650219 
L 313.062344 -138.728148 
L 313.062344 -139.806077 
L 313.062344 -140.884007 
L 313.062344 -141.961936 
L 313.062344 -143.039865 
L 313.062344 -144.117795 
L 313.062344 -145.195724 
L 313.062344 -146.273653 
L 313.062344 -147.351583 
L 313.062344 -148.429512 
L 313.062344 -149.507441 
L 313.062344 -150.585371 
L 313.062344 -151.6633 
L 313.062344 -152.741229 
L 313.062344 -153.819158 
L 313.062344 -154.897088 
L 313.062344 -155.975017 
L 313.062344 -157.052946 
L 313.062344 -158.130876 
L 313.062344 -159.208805 
L 313.062344 -160.286734 
L 313.062344 -161.364664 
L 313.062344 -162.442593 
L 313.062344 -163.520522 
L 313.062344 -164.598452 
L 313.062344 -165.676381 
L 313.062344 -166.75431 
L 313.062344 -167.83224 
L 313.062344 -168.910169 
L 313.062344 -169.988098 
L 313.062344 -171.066028 
L 313.062344 -172.143957 
L 313.062344 -173.221886 
L 313.062344 -174.299816 
L 313.062344 -175.377745 
L 313.062344 -176.455674 
L 313.062344 -177.533604 
L 313.062344 -178.611533 
L 313.062344 -179.689462 
L 313.062344 -180.767392 
L 313.062344 -181.845321 
L 313.062344 -182.92325 
L 313.062344 -184.00118 
L 313.062344 -185.079109 
L 313.062344 -186.157038 
L 313.062344 -187.234968 
L 313.062344 -188.312897 
L 313.062344 -189.390826 
L 313.062344 -190.468756 
L 313.062344 -191.546685 
L 313.062344 -192.624614 
L 313.062344 -193.702544 
L 313.062344 -194.780473 
L 313.062344 -195.858402 
L 313.062344 -196.936332 
L 313.062344 -198.014261 
L 313.062344 -199.09219 
L 313.062344 -200.17012 
L 313.062344 -201.248049 
L 313.062344 -202.325978 
L 313.062344 -203.403908 
L 313.062344 -204.481837 
L 313.062344 -205.559766 
L 313.062344 -206.637696 
L 313.062344 -207.715625 
L 313.062344 -208.793554 
L 313.062344 -209.871484 
L 313.062344 -210.949413 
L 313.062344 -212.027342 
L 313.062344 -213.105272 
L 313.062344 -214.183201 
L 313.062344 -215.26113 
L 313.062344 -216.33906 
L 313.062344 -217.416989 
L 313.062344 -218.494918 
L 313.062344 -219.572848 
L 313.062344 -220.650777 
L 313.062344 -221.728706 
L 313.062344 -222.806636 
L 313.062344 -223.884565 
L 313.062344 -224.962494 
L 313.062344 -226.040424 
L 313.062344 -227.118353 
L 313.062344 -228.196282 
L 313.062344 -229.274212 
L 313.062344 -230.352141 
L 313.062344 -231.43007 
L 313.062344 -232.508 
L 313.062344 -233.585929 
L 313.062344 -234.663858 
L 313.062344 -235.741788 
L 313.062344 -236.819717 
L 313.062344 -237.897646 
L 313.062344 -238.975575 
L 313.062344 -240.053505 
L 313.062344 -241.131434 
L 313.062344 -242.209363 
L 313.062344 -243.287293 
L 313.062344 -244.365222 
L 313.062344 -245.443151 
L 313.062344 -246.521081 
L 313.062344 -247.59901 
L 313.062344 -248.676939 
L 313.062344 -249.754869 
L 313.062344 -250.832798 
L 313.062344 -251.910727 
L 313.062344 -252.988657 
L 313.062344 -254.066586 
L 313.062344 -255.144515 
L 313.062344 -256.222445 
L 313.062344 -257.300374 
L 313.062344 -258.378303 
L 313.062344 -259.456233 
L 313.062344 -260.534162 
L 313.062344 -261.612091 
L 313.062344 -262.690021 
L 313.062344 -263.76795 
L 313.062344 -264.845879 
L 313.062344 -265.923809 
L 313.062344 -267.001738 
L 313.062344 -268.079667 
L 313.062344 -269.157597 
L 313.062344 -270.235526 
L 313.062344 -271.313455 
L 313.062344 -272.391385 
L 313.062344 -273.469314 
L 313.062344 -274.547243 
L 313.062344 -275.625173 
L 313.062344 -276.703102 
L 313.062344 -277.781031 
L 313.062344 -278.858961 
L 313.062344 -279.93689 
L 313.062344 -281.014819 
L 313.062344 -282.092749 
L 313.062344 -283.170678 
L 313.062344 -284.248607 
L 313.062344 -285.326537 
L 313.062344 -286.404466 
L 313.062344 -287.482395 
L 313.062344 -288.560325 
L 313.062344 -289.638254 
L 313.066724 -289.638254 
L 313.066724 -289.638254 
L 313.068123 -288.560325 
L 313.06991 -287.482395 
L 313.072177 -286.404466 
L 313.075028 -285.326537 
L 313.078584 -284.248607 
L 313.082985 -283.170678 
L 313.088385 -282.092749 
L 313.094958 -281.014819 
L 313.102893 -279.93689 
L 313.112393 -278.858961 
L 313.123675 -277.781031 
L 313.136961 -276.703102 
L 313.152481 -275.625173 
L 313.170462 -274.547243 
L 313.191124 -273.469314 
L 313.214673 -272.391385 
L 313.241296 -271.313455 
L 313.271151 -270.235526 
L 313.304366 -269.157597 
L 313.341025 -268.079667 
L 313.381174 -267.001738 
L 313.424807 -265.923809 
L 313.471874 -264.845879 
L 313.52228 -263.76795 
L 313.575884 -262.690021 
L 313.632513 -261.612091 
L 313.691962 -260.534162 
L 313.754011 -259.456233 
L 313.818434 -258.378303 
L 313.885009 -257.300374 
L 313.953538 -256.222445 
L 314.023852 -255.144515 
L 314.095827 -254.066586 
L 314.169391 -252.988657 
L 314.244532 -251.910727 
L 314.3213 -250.832798 
L 314.399805 -249.754869 
L 314.480218 -248.676939 
L 314.56276 -247.59901 
L 314.647689 -246.521081 
L 314.735295 -245.443151 
L 314.825878 -244.365222 
L 314.919737 -243.287293 
L 315.017153 -242.209363 
L 315.118379 -241.131434 
L 315.223622 -240.053505 
L 315.333043 -238.975575 
L 315.446746 -237.897646 
L 315.564779 -236.819717 
L 315.687134 -235.741788 
L 315.813756 -234.663858 
L 315.944546 -233.585929 
L 316.079374 -232.508 
L 316.218088 -231.43007 
L 316.36052 -230.352141 
L 316.5065 -229.274212 
L 316.655855 -228.196282 
L 316.808416 -227.118353 
L 316.964012 -226.040424 
L 317.122472 -224.962494 
L 317.283608 -223.884565 
L 317.447213 -222.806636 
L 317.613044 -221.728706 
L 317.780814 -220.650777 
L 317.950177 -219.572848 
L 318.120729 -218.494918 
L 318.292 -217.416989 
L 318.463462 -216.33906 
L 318.634539 -215.26113 
L 318.804624 -214.183201 
L 318.973109 -213.105272 
L 319.139411 -212.027342 
L 319.303011 -210.949413 
L 319.463488 -209.871484 
L 319.620562 -208.793554 
L 319.77412 -207.715625 
L 319.924248 -206.637696 
L 320.071249 -205.559766 
L 320.215644 -204.481837 
L 320.358172 -203.403908 
L 320.499765 -202.325978 
L 320.641515 -201.248049 
L 320.784628 -200.17012 
L 320.930366 -199.09219 
L 321.079984 -198.014261 
L 321.234664 -196.936332 
L 321.395448 -195.858402 
L 321.563178 -194.780473 
L 321.738445 -193.702544 
L 321.921549 -192.624614 
L 322.112479 -191.546685 
L 322.310902 -190.468756 
L 322.516178 -189.390826 
L 322.727386 -188.312897 
L 322.943363 -187.234968 
L 323.162762 -186.157038 
L 323.38411 -185.079109 
L 323.605874 -184.00118 
L 323.826524 -182.92325 
L 324.044593 -181.845321 
L 324.258727 -180.767392 
L 324.467728 -179.689462 
L 324.670579 -178.611533 
L 324.866455 -177.533604 
L 325.054727 -176.455674 
L 325.234945 -175.377745 
L 325.406817 -174.299816 
L 325.57017 -173.221886 
L 325.724919 -172.143957 
L 325.871019 -171.066028 
L 326.008427 -169.988098 
L 326.137062 -168.910169 
L 326.256771 -167.83224 
L 326.367302 -166.75431 
L 326.468282 -165.676381 
L 326.559209 -164.598452 
L 326.639445 -163.520522 
L 326.708225 -162.442593 
L 326.764668 -161.364664 
L 326.807797 -160.286734 
L 326.836567 -159.208805 
L 326.849896 -158.130876 
L 326.846699 -157.052946 
L 326.825929 -155.975017 
L 326.786616 -154.897088 
L 326.72791 -153.819158 
L 326.649118 -152.741229 
L 326.549745 -151.6633 
L 326.429528 -150.585371 
L 326.288464 -149.507441 
L 326.126833 -148.429512 
L 325.945216 -147.351583 
L 325.744494 -146.273653 
L 325.525848 -145.195724 
L 325.290741 -144.117795 
L 325.040888 -143.039865 
L 324.778222 -141.961936 
L 324.504843 -140.884007 
L 324.222965 -139.806077 
L 323.934847 -138.728148 
L 323.642732 -137.650219 
L 323.34878 -136.572289 
L 323.054997 -135.49436 
L 322.76318 -134.416431 
L 322.47486 -133.338501 
L 322.191263 -132.260572 
L 321.913278 -131.182643 
L 321.641443 -130.104713 
L 321.375941 -129.026784 
L 321.116617 -127.948855 
L 320.863005 -126.870925 
L 320.61437 -125.792996 
L 320.369755 -124.715067 
L 320.128052 -123.637137 
L 319.888059 -122.559208 
L 319.648554 -121.481279 
L 319.408362 -120.403349 
L 319.166421 -119.32542 
L 318.921842 -118.247491 
L 318.673954 -117.169561 
L 318.422349 -116.091632 
L 318.166901 -115.013703 
L 317.907786 -113.935773 
L 317.645474 -112.857844 
L 317.38072 -111.779915 
L 317.114536 -110.701985 
L 316.848155 -109.624056 
L 316.582985 -108.546127 
L 316.320556 -107.468197 
L 316.062469 -106.390268 
L 315.810338 -105.312339 
L 315.565734 -104.234409 
L 315.330136 -103.15648 
L 315.104887 -102.078551 
L 314.891154 -101.000621 
L 314.689902 -99.922692 
L 314.501873 -98.844763 
L 314.327574 -97.766833 
L 314.167281 -96.688904 
L 314.021039 -95.610975 
L 313.888683 -94.533045 
L 313.769856 -93.455116 
L 313.664034 -92.377187 
L 313.570553 -91.299257 
L 313.488642 -90.221328 
L 313.41745 -89.143399 
L 313.356075 -88.065469 
L 313.303593 -86.98754 
L 313.259079 -85.909611 
L 313.22163 -84.831681 
L 313.190381 -83.753752 
L 313.164517 -82.675823 
L 313.143283 -81.597893 
L 313.125993 -80.519964 
L 313.112029 -79.442035 
L 313.100842 -78.364105 
L 313.091952 -77.286176 
L 313.084946 -76.208247 
L 313.079469 -75.130317 
z
" style="stroke: #f28360; stroke-width: 2"/>
    </defs>
    <g clip-path="url(#pdf46db403c)">
     <use xlink:href="#md0b819a51d" x="0" y="379.113736" style="fill: #f28360; fill-opacity: 0.25; stroke: #f28360; stroke-width: 2"/>
    </g>
   </g>
   <g id="matplotlib.axis_5">
    <g id="xtick_7"/>
    <g id="xtick_8"/>
   </g>
   <g id="matplotlib.axis_6">
    <g id="ytick_10">
     <g id="line2d_20">
      <g>
       <use xlink:href="#m7838233e01" x="313.062344" y="311.676924" style="stroke: #000000; stroke-width: 0.75"/>
      </g>
     </g>
    </g>
    <g id="ytick_11">
     <g id="line2d_21">
      <g>
       <use xlink:href="#m7838233e01" x="313.062344" y="273.362979" style="stroke: #000000; stroke-width: 0.75"/>
      </g>
     </g>
    </g>
    <g id="ytick_12">
     <g id="line2d_22">
      <g>
       <use xlink:href="#m7838233e01" x="313.062344" y="235.049033" style="stroke: #000000; stroke-width: 0.75"/>
      </g>
     </g>
    </g>
    <g id="ytick_13">
     <g id="line2d_23">
      <g>
       <use xlink:href="#m7838233e01" x="313.062344" y="196.735088" style="stroke: #000000; stroke-width: 0.75"/>
      </g>
     </g>
    </g>
    <g id="ytick_14">
     <g id="line2d_24">
      <g>
       <use xlink:href="#m7838233e01" x="313.062344" y="158.421142" style="stroke: #000000; stroke-width: 0.75"/>
      </g>
     </g>
    </g>
    <g id="ytick_15">
     <g id="line2d_25">
      <g>
       <use xlink:href="#m7838233e01" x="313.062344" y="120.107197" style="stroke: #000000; stroke-width: 0.75"/>
      </g>
     </g>
    </g>
    <g id="ytick_16">
     <g id="line2d_26">
      <g>
       <use xlink:href="#m7838233e01" x="313.062344" y="81.793251" style="stroke: #000000; stroke-width: 0.75"/>
      </g>
     </g>
    </g>
   </g>
   <g id="line2d_27">
    <path d="M 350.129651 261.600829 
L 350.129651 203.683686 
" clip-path="url(#pdf46db403c)" style="fill: none; stroke: #000000; stroke-width: 2; stroke-linecap: round"/>
   </g>
   <g id="patch_8">
    <path d="M 313.062344 312.563736 
L 313.062344 80.895165 
" style="fill: none; stroke: #000000; stroke-width: 0.75; stroke-linejoin: miter; stroke-linecap: square"/>
   </g>
   <g id="text_17">
    <text style="font: 20px &quot;Suisse Int&apos;l&quot;, sans-serif" transform="translate(346.21619 218.561008) rotate(-270)">****</text>
   </g>
  </g>
 </g>
 <defs>
  <clipPath id="pae4a136e1e">
   <rect x="81.762344" y="80.895165" width="223.59" height="231.668571"/>
  </clipPath>
  <clipPath id="p4da0d42d4f">
   <rect x="81.762344" y="32.963736" width="223.59" height="39.942857"/>
  </clipPath>
  <clipPath id="pdf46db403c">
   <rect x="313.062344" y="80.895165" width="38.55" height="231.668571"/>
  </clipPath>
 </defs>
</svg>
