<?xml version="1.0" encoding="utf-8" standalone="no"?>
<!DOCTYPE svg PUBLIC "-//W3C//DTD SVG 1.1//EN"
  "http://www.w3.org/Graphics/SVG/1.1/DTD/svg11.dtd">
<svg xmlns:xlink="http://www.w3.org/1999/xlink" width="472.621125pt" height="379.277799pt" viewBox="0 0 472.621125 379.277799" xmlns="http://www.w3.org/2000/svg" version="1.1">
 <metadata>
  <rdf:RDF xmlns:dc="http://purl.org/dc/elements/1.1/" xmlns:cc="http://creativecommons.org/ns#" xmlns:rdf="http://www.w3.org/1999/02/22-rdf-syntax-ns#">
   <cc:Work>
    <dc:type rdf:resource="http://purl.org/dc/dcmitype/StillImage"/>
    <dc:date>2024-08-02T14:02:45.296360</dc:date>
    <dc:format>image/svg+xml</dc:format>
    <dc:creator>
     <cc:Agent>
      <dc:title>Matplotlib v3.8.4, https://matplotlib.org/</dc:title>
     </cc:Agent>
    </dc:creator>
   </cc:Work>
  </rdf:RDF>
 </metadata>
 <defs>
  <style type="text/css">*{stroke-linejoin: round; stroke-linecap: butt}</style>
 </defs>
 <g id="figure_1">
  <g id="patch_1">
   <path d="M 0 379.277799 
L 472.621125 379.277799 
L 472.621125 0 
L 0 0 
L 0 379.277799 
z
" style="fill: none"/>
  </g>
  <g id="axes_1">
   <g id="patch_2">
    <path d="M 72.518125 312.563736 
L 296.108125 312.563736 
L 296.108125 80.895165 
L 72.518125 80.895165 
L 72.518125 312.563736 
z
" style="fill: none"/>
   </g>
   <g id="PathCollection_1">
    <defs>
     <path id="C0_0_9d220731af" d="M 0 3 
C 0.795609 3 1.55874 2.683901 2.12132 2.12132 
C 2.683901 1.55874 3 0.795609 3 -0 
C 3 -0.795609 2.683901 -1.55874 2.12132 -2.12132 
C 1.55874 -2.683901 0.795609 -3 0 -3 
C -0.795609 -3 -1.55874 -2.683901 -2.12132 -2.12132 
C -2.683901 -1.55874 -3 -0.795609 -3 0 
C -3 0.795609 -2.683901 1.55874 -2.12132 2.12132 
C -1.55874 2.683901 -0.795609 3 0 3 
z
"/>
    </defs>
    <g clip-path="url(#p44dbad5d82)">
     <use xlink:href="#C0_0_9d220731af" x="201.899387" y="260.229746" style="fill: #f28360; stroke: #ffffff; stroke-width: 0.48"/>
    </g>
    <g clip-path="url(#p44dbad5d82)">
     <use xlink:href="#C0_0_9d220731af" x="187.25008" y="263.543653" style="fill: #f28360; stroke: #ffffff; stroke-width: 0.48"/>
    </g>
    <g clip-path="url(#p44dbad5d82)">
     <use xlink:href="#C0_0_9d220731af" x="186.605088" y="258.671535" style="fill: #f28360; stroke: #ffffff; stroke-width: 0.48"/>
    </g>
    <g clip-path="url(#p44dbad5d82)">
     <use xlink:href="#C0_0_9d220731af" x="178.747772" y="257.176612" style="fill: #f28360; stroke: #ffffff; stroke-width: 0.48"/>
    </g>
    <g clip-path="url(#p44dbad5d82)">
     <use xlink:href="#C0_0_9d220731af" x="252.843476" y="266.195186" style="fill: #f28360; stroke: #ffffff; stroke-width: 0.48"/>
    </g>
    <g clip-path="url(#p44dbad5d82)">
     <use xlink:href="#C0_0_9d220731af" x="152.369452" y="268.734592" style="fill: #f28360; stroke: #ffffff; stroke-width: 0.48"/>
    </g>
    <g clip-path="url(#p44dbad5d82)">
     <use xlink:href="#C0_0_9d220731af" x="226.141127" y="267.214029" style="fill: #f28360; stroke: #ffffff; stroke-width: 0.48"/>
    </g>
    <g clip-path="url(#p44dbad5d82)">
     <use xlink:href="#C0_0_9d220731af" x="205.369303" y="262.4695" style="fill: #f28360; stroke: #ffffff; stroke-width: 0.48"/>
    </g>
    <g clip-path="url(#p44dbad5d82)">
     <use xlink:href="#C0_0_9d220731af" x="212.406198" y="262.415672" style="fill: #f28360; stroke: #ffffff; stroke-width: 0.48"/>
    </g>
    <g clip-path="url(#p44dbad5d82)">
     <use xlink:href="#C0_0_9d220731af" x="159.273859" y="252.81422" style="fill: #f28360; stroke: #ffffff; stroke-width: 0.48"/>
    </g>
    <g clip-path="url(#p44dbad5d82)">
     <use xlink:href="#C0_0_9d220731af" x="206.924884" y="262.018635" style="fill: #f28360; stroke: #ffffff; stroke-width: 0.48"/>
    </g>
    <g clip-path="url(#p44dbad5d82)">
     <use xlink:href="#C0_0_9d220731af" x="175.702214" y="258.797977" style="fill: #f28360; stroke: #ffffff; stroke-width: 0.48"/>
    </g>
    <g clip-path="url(#p44dbad5d82)">
     <use xlink:href="#C0_0_9d220731af" x="183.924784" y="257.320684" style="fill: #f28360; stroke: #ffffff; stroke-width: 0.48"/>
    </g>
    <g clip-path="url(#p44dbad5d82)">
     <use xlink:href="#C0_0_9d220731af" x="156.844926" y="254.308357" style="fill: #f28360; stroke: #ffffff; stroke-width: 0.48"/>
    </g>
    <g clip-path="url(#p44dbad5d82)">
     <use xlink:href="#C0_0_9d220731af" x="155.874314" y="254.860281" style="fill: #f28360; stroke: #ffffff; stroke-width: 0.48"/>
    </g>
    <g clip-path="url(#p44dbad5d82)">
     <use xlink:href="#C0_0_9d220731af" x="234.537862" y="259.242159" style="fill: #f28360; stroke: #ffffff; stroke-width: 0.48"/>
    </g>
    <g clip-path="url(#p44dbad5d82)">
     <use xlink:href="#C0_0_9d220731af" x="151.372004" y="261.530614" style="fill: #f28360; stroke: #ffffff; stroke-width: 0.48"/>
    </g>
    <g clip-path="url(#p44dbad5d82)">
     <use xlink:href="#C0_0_9d220731af" x="165.160874" y="253.746646" style="fill: #f28360; stroke: #ffffff; stroke-width: 0.48"/>
    </g>
    <g clip-path="url(#p44dbad5d82)">
     <use xlink:href="#C0_0_9d220731af" x="149.108074" y="274.149089" style="fill: #f28360; stroke: #ffffff; stroke-width: 0.48"/>
    </g>
    <g clip-path="url(#p44dbad5d82)">
     <use xlink:href="#C0_0_9d220731af" x="164.339091" y="255.976045" style="fill: #f28360; stroke: #ffffff; stroke-width: 0.48"/>
    </g>
    <g clip-path="url(#p44dbad5d82)">
     <use xlink:href="#C0_0_9d220731af" x="141.818246" y="263.59221" style="fill: #f28360; stroke: #ffffff; stroke-width: 0.48"/>
    </g>
    <g clip-path="url(#p44dbad5d82)">
     <use xlink:href="#C0_0_9d220731af" x="181.946819" y="258.060194" style="fill: #f28360; stroke: #ffffff; stroke-width: 0.48"/>
    </g>
    <g clip-path="url(#p44dbad5d82)">
     <use xlink:href="#C0_0_9d220731af" x="153.298917" y="256.138948" style="fill: #f28360; stroke: #ffffff; stroke-width: 0.48"/>
    </g>
    <g clip-path="url(#p44dbad5d82)">
     <use xlink:href="#C0_0_9d220731af" x="186.259727" y="266.989443" style="fill: #f28360; stroke: #ffffff; stroke-width: 0.48"/>
    </g>
    <g clip-path="url(#p44dbad5d82)">
     <use xlink:href="#C0_0_9d220731af" x="168.562506" y="272.641924" style="fill: #f28360; stroke: #ffffff; stroke-width: 0.48"/>
    </g>
    <g clip-path="url(#p44dbad5d82)">
     <use xlink:href="#C0_0_9d220731af" x="175.850082" y="258.785399" style="fill: #f28360; stroke: #ffffff; stroke-width: 0.48"/>
    </g>
    <g clip-path="url(#p44dbad5d82)">
     <use xlink:href="#C0_0_9d220731af" x="142.423126" y="237.764394" style="fill: #f28360; stroke: #ffffff; stroke-width: 0.48"/>
    </g>
    <g clip-path="url(#p44dbad5d82)">
     <use xlink:href="#C0_0_9d220731af" x="182.24884" y="265.259366" style="fill: #f28360; stroke: #ffffff; stroke-width: 0.48"/>
    </g>
    <g clip-path="url(#p44dbad5d82)">
     <use xlink:href="#C0_0_9d220731af" x="205.102921" y="266.653959" style="fill: #f28360; stroke: #ffffff; stroke-width: 0.48"/>
    </g>
    <g clip-path="url(#p44dbad5d82)">
     <use xlink:href="#C0_0_9d220731af" x="115.782774" y="176.930229" style="fill: #f28360; stroke: #ffffff; stroke-width: 0.48"/>
    </g>
    <g clip-path="url(#p44dbad5d82)">
     <use xlink:href="#C0_0_9d220731af" x="235.796746" y="262.149929" style="fill: #f28360; stroke: #ffffff; stroke-width: 0.48"/>
    </g>
    <g clip-path="url(#p44dbad5d82)">
     <use xlink:href="#C0_0_9d220731af" x="201.519963" y="264.708406" style="fill: #f28360; stroke: #ffffff; stroke-width: 0.48"/>
    </g>
    <g clip-path="url(#p44dbad5d82)">
     <use xlink:href="#C0_0_9d220731af" x="190.634553" y="247.574493" style="fill: #f28360; stroke: #ffffff; stroke-width: 0.48"/>
    </g>
    <g clip-path="url(#p44dbad5d82)">
     <use xlink:href="#C0_0_9d220731af" x="226.924915" y="267.974407" style="fill: #f28360; stroke: #ffffff; stroke-width: 0.48"/>
    </g>
    <g clip-path="url(#p44dbad5d82)">
     <use xlink:href="#C0_0_9d220731af" x="228.178279" y="264.157812" style="fill: #f28360; stroke: #ffffff; stroke-width: 0.48"/>
    </g>
    <g clip-path="url(#p44dbad5d82)">
     <use xlink:href="#C0_0_9d220731af" x="190.587593" y="248.157254" style="fill: #f28360; stroke: #ffffff; stroke-width: 0.48"/>
    </g>
    <g clip-path="url(#p44dbad5d82)">
     <use xlink:href="#C0_0_9d220731af" x="179.679383" y="260.764975" style="fill: #f28360; stroke: #ffffff; stroke-width: 0.48"/>
    </g>
    <g clip-path="url(#p44dbad5d82)">
     <use xlink:href="#C0_0_9d220731af" x="135.17915" y="238.444752" style="fill: #f28360; stroke: #ffffff; stroke-width: 0.48"/>
    </g>
    <g clip-path="url(#p44dbad5d82)">
     <use xlink:href="#C0_0_9d220731af" x="164.452653" y="252.129067" style="fill: #f28360; stroke: #ffffff; stroke-width: 0.48"/>
    </g>
    <g clip-path="url(#p44dbad5d82)">
     <use xlink:href="#C0_0_9d220731af" x="115.96032" y="165.418678" style="fill: #f28360; stroke: #ffffff; stroke-width: 0.48"/>
    </g>
    <g clip-path="url(#p44dbad5d82)">
     <use xlink:href="#C0_0_9d220731af" x="117.27572" y="136.623267" style="fill: #f28360; stroke: #ffffff; stroke-width: 0.48"/>
    </g>
    <g clip-path="url(#p44dbad5d82)">
     <use xlink:href="#C0_0_9d220731af" x="153.497296" y="258.586266" style="fill: #f28360; stroke: #ffffff; stroke-width: 0.48"/>
    </g>
    <g clip-path="url(#p44dbad5d82)">
     <use xlink:href="#C0_0_9d220731af" x="150.363105" y="258.295557" style="fill: #f28360; stroke: #ffffff; stroke-width: 0.48"/>
    </g>
    <g clip-path="url(#p44dbad5d82)">
     <use xlink:href="#C0_0_9d220731af" x="157.204262" y="266.176244" style="fill: #f28360; stroke: #ffffff; stroke-width: 0.48"/>
    </g>
    <g clip-path="url(#p44dbad5d82)">
     <use xlink:href="#C0_0_9d220731af" x="118.531984" y="141.113365" style="fill: #f28360; stroke: #ffffff; stroke-width: 0.48"/>
    </g>
    <g clip-path="url(#p44dbad5d82)">
     <use xlink:href="#C0_0_9d220731af" x="196.597848" y="255.487296" style="fill: #f28360; stroke: #ffffff; stroke-width: 0.48"/>
    </g>
    <g clip-path="url(#p44dbad5d82)">
     <use xlink:href="#C0_0_9d220731af" x="156.156226" y="257.235854" style="fill: #f28360; stroke: #ffffff; stroke-width: 0.48"/>
    </g>
    <g clip-path="url(#p44dbad5d82)">
     <use xlink:href="#C0_0_9d220731af" x="147.514693" y="253.493682" style="fill: #f28360; stroke: #ffffff; stroke-width: 0.48"/>
    </g>
    <g clip-path="url(#p44dbad5d82)">
     <use xlink:href="#C0_0_9d220731af" x="160.24108" y="250.695978" style="fill: #f28360; stroke: #ffffff; stroke-width: 0.48"/>
    </g>
    <g clip-path="url(#p44dbad5d82)">
     <use xlink:href="#C0_0_9d220731af" x="121.617882" y="268.023739" style="fill: #f28360; stroke: #ffffff; stroke-width: 0.48"/>
    </g>
    <g clip-path="url(#p44dbad5d82)">
     <use xlink:href="#C0_0_9d220731af" x="222.411656" y="261.355496" style="fill: #f28360; stroke: #ffffff; stroke-width: 0.48"/>
    </g>
    <g clip-path="url(#p44dbad5d82)">
     <use xlink:href="#C0_0_9d220731af" x="187.505112" y="268.247998" style="fill: #f28360; stroke: #ffffff; stroke-width: 0.48"/>
    </g>
    <g clip-path="url(#p44dbad5d82)">
     <use xlink:href="#C0_0_9d220731af" x="115.89547" y="165.326728" style="fill: #f28360; stroke: #ffffff; stroke-width: 0.48"/>
    </g>
    <g clip-path="url(#p44dbad5d82)">
     <use xlink:href="#C0_0_9d220731af" x="168.121165" y="257.911521" style="fill: #f28360; stroke: #ffffff; stroke-width: 0.48"/>
    </g>
    <g clip-path="url(#p44dbad5d82)">
     <use xlink:href="#C0_0_9d220731af" x="248.274925" y="269.647173" style="fill: #f28360; stroke: #ffffff; stroke-width: 0.48"/>
    </g>
    <g clip-path="url(#p44dbad5d82)">
     <use xlink:href="#C0_0_9d220731af" x="180.650716" y="267.120285" style="fill: #f28360; stroke: #ffffff; stroke-width: 0.48"/>
    </g>
    <g clip-path="url(#p44dbad5d82)">
     <use xlink:href="#C0_0_9d220731af" x="185.853068" y="252.940477" style="fill: #f28360; stroke: #ffffff; stroke-width: 0.48"/>
    </g>
    <g clip-path="url(#p44dbad5d82)">
     <use xlink:href="#C0_0_9d220731af" x="163.007984" y="266.527261" style="fill: #f28360; stroke: #ffffff; stroke-width: 0.48"/>
    </g>
    <g clip-path="url(#p44dbad5d82)">
     <use xlink:href="#C0_0_9d220731af" x="184.946334" y="252.242381" style="fill: #f28360; stroke: #ffffff; stroke-width: 0.48"/>
    </g>
    <g clip-path="url(#p44dbad5d82)">
     <use xlink:href="#C0_0_9d220731af" x="171.184448" y="265.216535" style="fill: #f28360; stroke: #ffffff; stroke-width: 0.48"/>
    </g>
    <g clip-path="url(#p44dbad5d82)">
     <use xlink:href="#C0_0_9d220731af" x="125.519045" y="252.737775" style="fill: #f28360; stroke: #ffffff; stroke-width: 0.48"/>
    </g>
    <g clip-path="url(#p44dbad5d82)">
     <use xlink:href="#C0_0_9d220731af" x="205.935317" y="266.236803" style="fill: #f28360; stroke: #ffffff; stroke-width: 0.48"/>
    </g>
    <g clip-path="url(#p44dbad5d82)">
     <use xlink:href="#C0_0_9d220731af" x="200.828716" y="252.450972" style="fill: #f28360; stroke: #ffffff; stroke-width: 0.48"/>
    </g>
    <g clip-path="url(#p44dbad5d82)">
     <use xlink:href="#C0_0_9d220731af" x="173.66522" y="261.116417" style="fill: #f28360; stroke: #ffffff; stroke-width: 0.48"/>
    </g>
    <g clip-path="url(#p44dbad5d82)">
     <use xlink:href="#C0_0_9d220731af" x="162.580855" y="249.866226" style="fill: #f28360; stroke: #ffffff; stroke-width: 0.48"/>
    </g>
    <g clip-path="url(#p44dbad5d82)">
     <use xlink:href="#C0_0_9d220731af" x="141.344402" y="261.297819" style="fill: #f28360; stroke: #ffffff; stroke-width: 0.48"/>
    </g>
    <g clip-path="url(#p44dbad5d82)">
     <use xlink:href="#C0_0_9d220731af" x="170.621938" y="253.368569" style="fill: #f28360; stroke: #ffffff; stroke-width: 0.48"/>
    </g>
    <g clip-path="url(#p44dbad5d82)">
     <use xlink:href="#C0_0_9d220731af" x="171.687396" y="259.117229" style="fill: #f28360; stroke: #ffffff; stroke-width: 0.48"/>
    </g>
    <g clip-path="url(#p44dbad5d82)">
     <use xlink:href="#C0_0_9d220731af" x="161.336016" y="254.934116" style="fill: #f28360; stroke: #ffffff; stroke-width: 0.48"/>
    </g>
    <g clip-path="url(#p44dbad5d82)">
     <use xlink:href="#C0_0_9d220731af" x="155.40234" y="249.02654" style="fill: #f28360; stroke: #ffffff; stroke-width: 0.48"/>
    </g>
    <g clip-path="url(#p44dbad5d82)">
     <use xlink:href="#C0_0_9d220731af" x="146.966317" y="264.723185" style="fill: #f28360; stroke: #ffffff; stroke-width: 0.48"/>
    </g>
    <g clip-path="url(#p44dbad5d82)">
     <use xlink:href="#C0_0_9d220731af" x="169.945166" y="256.706018" style="fill: #f28360; stroke: #ffffff; stroke-width: 0.48"/>
    </g>
    <g clip-path="url(#p44dbad5d82)">
     <use xlink:href="#C0_0_9d220731af" x="139.994522" y="224.440973" style="fill: #f28360; stroke: #ffffff; stroke-width: 0.48"/>
    </g>
    <g clip-path="url(#p44dbad5d82)">
     <use xlink:href="#C0_0_9d220731af" x="219.278353" y="269.606083" style="fill: #f28360; stroke: #ffffff; stroke-width: 0.48"/>
    </g>
    <g clip-path="url(#p44dbad5d82)">
     <use xlink:href="#C0_0_9d220731af" x="202.747811" y="267.138913" style="fill: #f28360; stroke: #ffffff; stroke-width: 0.48"/>
    </g>
    <g clip-path="url(#p44dbad5d82)">
     <use xlink:href="#C0_0_9d220731af" x="141.370226" y="228.757464" style="fill: #f28360; stroke: #ffffff; stroke-width: 0.48"/>
    </g>
    <g clip-path="url(#p44dbad5d82)">
     <use xlink:href="#C0_0_9d220731af" x="145.642338" y="272.547468" style="fill: #f28360; stroke: #ffffff; stroke-width: 0.48"/>
    </g>
    <g clip-path="url(#p44dbad5d82)">
     <use xlink:href="#C0_0_9d220731af" x="131.585362" y="242.193086" style="fill: #f28360; stroke: #ffffff; stroke-width: 0.48"/>
    </g>
    <g clip-path="url(#p44dbad5d82)">
     <use xlink:href="#C0_0_9d220731af" x="183.092638" y="248.006793" style="fill: #f28360; stroke: #ffffff; stroke-width: 0.48"/>
    </g>
    <g clip-path="url(#p44dbad5d82)">
     <use xlink:href="#C0_0_9d220731af" x="124.021973" y="260.433154" style="fill: #f28360; stroke: #ffffff; stroke-width: 0.48"/>
    </g>
    <g clip-path="url(#p44dbad5d82)">
     <use xlink:href="#C0_0_9d220731af" x="119.23109" y="263.296941" style="fill: #f28360; stroke: #ffffff; stroke-width: 0.48"/>
    </g>
    <g clip-path="url(#p44dbad5d82)">
     <use xlink:href="#C0_0_9d220731af" x="153.691817" y="266.245926" style="fill: #f28360; stroke: #ffffff; stroke-width: 0.48"/>
    </g>
    <g clip-path="url(#p44dbad5d82)">
     <use xlink:href="#C0_0_9d220731af" x="159.578824" y="272.79672" style="fill: #f28360; stroke: #ffffff; stroke-width: 0.48"/>
    </g>
    <g clip-path="url(#p44dbad5d82)">
     <use xlink:href="#C0_0_9d220731af" x="138.964091" y="260.025068" style="fill: #f28360; stroke: #ffffff; stroke-width: 0.48"/>
    </g>
    <g clip-path="url(#p44dbad5d82)">
     <use xlink:href="#C0_0_9d220731af" x="151.995727" y="248.360393" style="fill: #f28360; stroke: #ffffff; stroke-width: 0.48"/>
    </g>
    <g clip-path="url(#p44dbad5d82)">
     <use xlink:href="#C0_0_9d220731af" x="206.828359" y="267.977555" style="fill: #f28360; stroke: #ffffff; stroke-width: 0.48"/>
    </g>
    <g clip-path="url(#p44dbad5d82)">
     <use xlink:href="#C0_0_9d220731af" x="146.843301" y="260.577557" style="fill: #f28360; stroke: #ffffff; stroke-width: 0.48"/>
    </g>
    <g clip-path="url(#p44dbad5d82)">
     <use xlink:href="#C0_0_9d220731af" x="147.027268" y="263.595666" style="fill: #f28360; stroke: #ffffff; stroke-width: 0.48"/>
    </g>
    <g clip-path="url(#p44dbad5d82)">
     <use xlink:href="#C0_0_9d220731af" x="150.97319" y="269.90246" style="fill: #f28360; stroke: #ffffff; stroke-width: 0.48"/>
    </g>
    <g clip-path="url(#p44dbad5d82)">
     <use xlink:href="#C0_0_9d220731af" x="182.663714" y="267.834329" style="fill: #f28360; stroke: #ffffff; stroke-width: 0.48"/>
    </g>
    <g clip-path="url(#p44dbad5d82)">
     <use xlink:href="#C0_0_9d220731af" x="137.481509" y="252.331822" style="fill: #f28360; stroke: #ffffff; stroke-width: 0.48"/>
    </g>
    <g clip-path="url(#p44dbad5d82)">
     <use xlink:href="#C0_0_9d220731af" x="169.624348" y="263.825167" style="fill: #f28360; stroke: #ffffff; stroke-width: 0.48"/>
    </g>
    <g clip-path="url(#p44dbad5d82)">
     <use xlink:href="#C0_0_9d220731af" x="172.876424" y="261.323196" style="fill: #f28360; stroke: #ffffff; stroke-width: 0.48"/>
    </g>
    <g clip-path="url(#p44dbad5d82)">
     <use xlink:href="#C0_0_9d220731af" x="172.124305" y="261.280164" style="fill: #f28360; stroke: #ffffff; stroke-width: 0.48"/>
    </g>
    <g clip-path="url(#p44dbad5d82)">
     <use xlink:href="#C0_0_9d220731af" x="153.504076" y="262.230469" style="fill: #f28360; stroke: #ffffff; stroke-width: 0.48"/>
    </g>
    <g clip-path="url(#p44dbad5d82)">
     <use xlink:href="#C0_0_9d220731af" x="125.032902" y="253.145771" style="fill: #f28360; stroke: #ffffff; stroke-width: 0.48"/>
    </g>
    <g clip-path="url(#p44dbad5d82)">
     <use xlink:href="#C0_0_9d220731af" x="117.582292" y="159.973597" style="fill: #f28360; stroke: #ffffff; stroke-width: 0.48"/>
    </g>
    <g clip-path="url(#p44dbad5d82)">
     <use xlink:href="#C0_0_9d220731af" x="189.216238" y="264.995617" style="fill: #f28360; stroke: #ffffff; stroke-width: 0.48"/>
    </g>
    <g clip-path="url(#p44dbad5d82)">
     <use xlink:href="#C0_0_9d220731af" x="172.762626" y="266.236809" style="fill: #f28360; stroke: #ffffff; stroke-width: 0.48"/>
    </g>
    <g clip-path="url(#p44dbad5d82)">
     <use xlink:href="#C0_0_9d220731af" x="164.010544" y="260.330298" style="fill: #f28360; stroke: #ffffff; stroke-width: 0.48"/>
    </g>
    <g clip-path="url(#p44dbad5d82)">
     <use xlink:href="#C0_0_9d220731af" x="150.348108" y="226.247848" style="fill: #f28360; stroke: #ffffff; stroke-width: 0.48"/>
    </g>
    <g clip-path="url(#p44dbad5d82)">
     <use xlink:href="#C0_0_9d220731af" x="162.629437" y="264.62838" style="fill: #f28360; stroke: #ffffff; stroke-width: 0.48"/>
    </g>
    <g clip-path="url(#p44dbad5d82)">
     <use xlink:href="#C0_0_9d220731af" x="146.383233" y="263.554788" style="fill: #f28360; stroke: #ffffff; stroke-width: 0.48"/>
    </g>
    <g clip-path="url(#p44dbad5d82)">
     <use xlink:href="#C0_0_9d220731af" x="179.694944" y="247.892685" style="fill: #f28360; stroke: #ffffff; stroke-width: 0.48"/>
    </g>
    <g clip-path="url(#p44dbad5d82)">
     <use xlink:href="#C0_0_9d220731af" x="161.713789" y="257.053107" style="fill: #f28360; stroke: #ffffff; stroke-width: 0.48"/>
    </g>
    <g clip-path="url(#p44dbad5d82)">
     <use xlink:href="#C0_0_9d220731af" x="127.985001" y="259.449735" style="fill: #f28360; stroke: #ffffff; stroke-width: 0.48"/>
    </g>
    <g clip-path="url(#p44dbad5d82)">
     <use xlink:href="#C0_0_9d220731af" x="160.51687" y="260.628861" style="fill: #f28360; stroke: #ffffff; stroke-width: 0.48"/>
    </g>
    <g clip-path="url(#p44dbad5d82)">
     <use xlink:href="#C0_0_9d220731af" x="165.012" y="270.239007" style="fill: #f28360; stroke: #ffffff; stroke-width: 0.48"/>
    </g>
    <g clip-path="url(#p44dbad5d82)">
     <use xlink:href="#C0_0_9d220731af" x="148.270425" y="259.524326" style="fill: #f28360; stroke: #ffffff; stroke-width: 0.48"/>
    </g>
    <g clip-path="url(#p44dbad5d82)">
     <use xlink:href="#C0_0_9d220731af" x="148.478712" y="264.634924" style="fill: #f28360; stroke: #ffffff; stroke-width: 0.48"/>
    </g>
    <g clip-path="url(#p44dbad5d82)">
     <use xlink:href="#C0_0_9d220731af" x="169.140097" y="243.40961" style="fill: #f28360; stroke: #ffffff; stroke-width: 0.48"/>
    </g>
    <g clip-path="url(#p44dbad5d82)">
     <use xlink:href="#C0_0_9d220731af" x="219.490564" y="266.012096" style="fill: #f28360; stroke: #ffffff; stroke-width: 0.48"/>
    </g>
    <g clip-path="url(#p44dbad5d82)">
     <use xlink:href="#C0_0_9d220731af" x="184.289001" y="253.298983" style="fill: #f28360; stroke: #ffffff; stroke-width: 0.48"/>
    </g>
    <g clip-path="url(#p44dbad5d82)">
     <use xlink:href="#C0_0_9d220731af" x="139.505381" y="264.858894" style="fill: #f28360; stroke: #ffffff; stroke-width: 0.48"/>
    </g>
    <g clip-path="url(#p44dbad5d82)">
     <use xlink:href="#C0_0_9d220731af" x="130.626942" y="245.475814" style="fill: #f28360; stroke: #ffffff; stroke-width: 0.48"/>
    </g>
    <g clip-path="url(#p44dbad5d82)">
     <use xlink:href="#C0_0_9d220731af" x="221.511556" y="261.549157" style="fill: #f28360; stroke: #ffffff; stroke-width: 0.48"/>
    </g>
    <g clip-path="url(#p44dbad5d82)">
     <use xlink:href="#C0_0_9d220731af" x="145.809773" y="256.574317" style="fill: #f28360; stroke: #ffffff; stroke-width: 0.48"/>
    </g>
    <g clip-path="url(#p44dbad5d82)">
     <use xlink:href="#C0_0_9d220731af" x="143.300885" y="241.933986" style="fill: #f28360; stroke: #ffffff; stroke-width: 0.48"/>
    </g>
    <g clip-path="url(#p44dbad5d82)">
     <use xlink:href="#C0_0_9d220731af" x="170.674198" y="270.870892" style="fill: #f28360; stroke: #ffffff; stroke-width: 0.48"/>
    </g>
    <g clip-path="url(#p44dbad5d82)">
     <use xlink:href="#C0_0_9d220731af" x="166.012481" y="251.946063" style="fill: #f28360; stroke: #ffffff; stroke-width: 0.48"/>
    </g>
    <g clip-path="url(#p44dbad5d82)">
     <use xlink:href="#C0_0_9d220731af" x="129.7026" y="249.832937" style="fill: #f28360; stroke: #ffffff; stroke-width: 0.48"/>
    </g>
    <g clip-path="url(#p44dbad5d82)">
     <use xlink:href="#C0_0_9d220731af" x="160.275989" y="264.762564" style="fill: #f28360; stroke: #ffffff; stroke-width: 0.48"/>
    </g>
    <g clip-path="url(#p44dbad5d82)">
     <use xlink:href="#C0_0_9d220731af" x="183.952645" y="258.394077" style="fill: #f28360; stroke: #ffffff; stroke-width: 0.48"/>
    </g>
    <g clip-path="url(#p44dbad5d82)">
     <use xlink:href="#C0_0_9d220731af" x="179.85434" y="242.164799" style="fill: #f28360; stroke: #ffffff; stroke-width: 0.48"/>
    </g>
    <g clip-path="url(#p44dbad5d82)">
     <use xlink:href="#C0_0_9d220731af" x="176.218518" y="255.567352" style="fill: #f28360; stroke: #ffffff; stroke-width: 0.48"/>
    </g>
    <g clip-path="url(#p44dbad5d82)">
     <use xlink:href="#C0_0_9d220731af" x="204.238208" y="255.426806" style="fill: #f28360; stroke: #ffffff; stroke-width: 0.48"/>
    </g>
    <g clip-path="url(#p44dbad5d82)">
     <use xlink:href="#C0_0_9d220731af" x="231.170207" y="261.110786" style="fill: #f28360; stroke: #ffffff; stroke-width: 0.48"/>
    </g>
    <g clip-path="url(#p44dbad5d82)">
     <use xlink:href="#C0_0_9d220731af" x="134.366406" y="243.146496" style="fill: #f28360; stroke: #ffffff; stroke-width: 0.48"/>
    </g>
    <g clip-path="url(#p44dbad5d82)">
     <use xlink:href="#C0_0_9d220731af" x="246.257758" y="270.965625" style="fill: #f28360; stroke: #ffffff; stroke-width: 0.48"/>
    </g>
    <g clip-path="url(#p44dbad5d82)">
     <use xlink:href="#C0_0_9d220731af" x="217.234202" y="266.50472" style="fill: #f28360; stroke: #ffffff; stroke-width: 0.48"/>
    </g>
    <g clip-path="url(#p44dbad5d82)">
     <use xlink:href="#C0_0_9d220731af" x="182.114088" y="270.348333" style="fill: #f28360; stroke: #ffffff; stroke-width: 0.48"/>
    </g>
    <g clip-path="url(#p44dbad5d82)">
     <use xlink:href="#C0_0_9d220731af" x="183.882237" y="251.877485" style="fill: #f28360; stroke: #ffffff; stroke-width: 0.48"/>
    </g>
    <g clip-path="url(#p44dbad5d82)">
     <use xlink:href="#C0_0_9d220731af" x="131.237861" y="189.831764" style="fill: #f28360; stroke: #ffffff; stroke-width: 0.48"/>
    </g>
    <g clip-path="url(#p44dbad5d82)">
     <use xlink:href="#C0_0_9d220731af" x="127.564027" y="119.309812" style="fill: #f28360; stroke: #ffffff; stroke-width: 0.48"/>
    </g>
    <g clip-path="url(#p44dbad5d82)">
     <use xlink:href="#C0_0_9d220731af" x="213.690238" y="271.663898" style="fill: #f28360; stroke: #ffffff; stroke-width: 0.48"/>
    </g>
    <g clip-path="url(#p44dbad5d82)">
     <use xlink:href="#C0_0_9d220731af" x="207.022048" y="269.843714" style="fill: #f28360; stroke: #ffffff; stroke-width: 0.48"/>
    </g>
    <g clip-path="url(#p44dbad5d82)">
     <use xlink:href="#C0_0_9d220731af" x="207.018799" y="260.954318" style="fill: #f28360; stroke: #ffffff; stroke-width: 0.48"/>
    </g>
    <g clip-path="url(#p44dbad5d82)">
     <use xlink:href="#C0_0_9d220731af" x="197.713651" y="264.744521" style="fill: #f28360; stroke: #ffffff; stroke-width: 0.48"/>
    </g>
    <g clip-path="url(#p44dbad5d82)">
     <use xlink:href="#C0_0_9d220731af" x="125.455507" y="152.585886" style="fill: #f28360; stroke: #ffffff; stroke-width: 0.48"/>
    </g>
    <g clip-path="url(#p44dbad5d82)">
     <use xlink:href="#C0_0_9d220731af" x="205.255504" y="260.251272" style="fill: #f28360; stroke: #ffffff; stroke-width: 0.48"/>
    </g>
    <g clip-path="url(#p44dbad5d82)">
     <use xlink:href="#C0_0_9d220731af" x="194.614397" y="263.347904" style="fill: #f28360; stroke: #ffffff; stroke-width: 0.48"/>
    </g>
    <g clip-path="url(#p44dbad5d82)">
     <use xlink:href="#C0_0_9d220731af" x="149.728388" y="269.051383" style="fill: #f28360; stroke: #ffffff; stroke-width: 0.48"/>
    </g>
    <g clip-path="url(#p44dbad5d82)">
     <use xlink:href="#C0_0_9d220731af" x="162.450648" y="254.777888" style="fill: #f28360; stroke: #ffffff; stroke-width: 0.48"/>
    </g>
    <g clip-path="url(#p44dbad5d82)">
     <use xlink:href="#C0_0_9d220731af" x="213.267223" y="270.484508" style="fill: #f28360; stroke: #ffffff; stroke-width: 0.48"/>
    </g>
    <g clip-path="url(#p44dbad5d82)">
     <use xlink:href="#C0_0_9d220731af" x="201.500155" y="264.682203" style="fill: #f28360; stroke: #ffffff; stroke-width: 0.48"/>
    </g>
    <g clip-path="url(#p44dbad5d82)">
     <use xlink:href="#C0_0_9d220731af" x="142.037083" y="266.174725" style="fill: #7a77ab; stroke: #ffffff; stroke-width: 0.48"/>
    </g>
    <g clip-path="url(#p44dbad5d82)">
     <use xlink:href="#C0_0_9d220731af" x="162.507042" y="251.96453" style="fill: #7a77ab; stroke: #ffffff; stroke-width: 0.48"/>
    </g>
    <g clip-path="url(#p44dbad5d82)">
     <use xlink:href="#C0_0_9d220731af" x="114.434078" y="189.875303" style="fill: #7a77ab; stroke: #ffffff; stroke-width: 0.48"/>
    </g>
    <g clip-path="url(#p44dbad5d82)">
     <use xlink:href="#C0_0_9d220731af" x="138.222641" y="263.143327" style="fill: #7a77ab; stroke: #ffffff; stroke-width: 0.48"/>
    </g>
    <g clip-path="url(#p44dbad5d82)">
     <use xlink:href="#C0_0_9d220731af" x="131.184119" y="266.987525" style="fill: #7a77ab; stroke: #ffffff; stroke-width: 0.48"/>
    </g>
    <g clip-path="url(#p44dbad5d82)">
     <use xlink:href="#C0_0_9d220731af" x="166.703935" y="266.166789" style="fill: #7a77ab; stroke: #ffffff; stroke-width: 0.48"/>
    </g>
    <g clip-path="url(#p44dbad5d82)">
     <use xlink:href="#C0_0_9d220731af" x="147.014234" y="272.757072" style="fill: #7a77ab; stroke: #ffffff; stroke-width: 0.48"/>
    </g>
    <g clip-path="url(#p44dbad5d82)">
     <use xlink:href="#C0_0_9d220731af" x="143.223581" y="270.997656" style="fill: #7a77ab; stroke: #ffffff; stroke-width: 0.48"/>
    </g>
    <g clip-path="url(#p44dbad5d82)">
     <use xlink:href="#C0_0_9d220731af" x="138.301141" y="270.797021" style="fill: #7a77ab; stroke: #ffffff; stroke-width: 0.48"/>
    </g>
    <g clip-path="url(#p44dbad5d82)">
     <use xlink:href="#C0_0_9d220731af" x="131.330671" y="264.979688" style="fill: #7a77ab; stroke: #ffffff; stroke-width: 0.48"/>
    </g>
    <g clip-path="url(#p44dbad5d82)">
     <use xlink:href="#C0_0_9d220731af" x="143.998362" y="269.945241" style="fill: #7a77ab; stroke: #ffffff; stroke-width: 0.48"/>
    </g>
    <g clip-path="url(#p44dbad5d82)">
     <use xlink:href="#C0_0_9d220731af" x="203.324967" y="271.866392" style="fill: #7a77ab; stroke: #ffffff; stroke-width: 0.48"/>
    </g>
    <g clip-path="url(#p44dbad5d82)">
     <use xlink:href="#C0_0_9d220731af" x="116.145128" y="227.376909" style="fill: #7a77ab; stroke: #ffffff; stroke-width: 0.48"/>
    </g>
    <g clip-path="url(#p44dbad5d82)">
     <use xlink:href="#C0_0_9d220731af" x="117.609502" y="224.041268" style="fill: #7a77ab; stroke: #ffffff; stroke-width: 0.48"/>
    </g>
    <g clip-path="url(#p44dbad5d82)">
     <use xlink:href="#C0_0_9d220731af" x="116.95983" y="217.638586" style="fill: #7a77ab; stroke: #ffffff; stroke-width: 0.48"/>
    </g>
    <g clip-path="url(#p44dbad5d82)">
     <use xlink:href="#C0_0_9d220731af" x="115.861653" y="237.258339" style="fill: #7a77ab; stroke: #ffffff; stroke-width: 0.48"/>
    </g>
    <g clip-path="url(#p44dbad5d82)">
     <use xlink:href="#C0_0_9d220731af" x="144.81515" y="276.182649" style="fill: #7a77ab; stroke: #ffffff; stroke-width: 0.48"/>
    </g>
    <g clip-path="url(#p44dbad5d82)">
     <use xlink:href="#C0_0_9d220731af" x="140.59211" y="271.280101" style="fill: #7a77ab; stroke: #ffffff; stroke-width: 0.48"/>
    </g>
    <g clip-path="url(#p44dbad5d82)">
     <use xlink:href="#C0_0_9d220731af" x="128.791141" y="268.903258" style="fill: #7a77ab; stroke: #ffffff; stroke-width: 0.48"/>
    </g>
    <g clip-path="url(#p44dbad5d82)">
     <use xlink:href="#C0_0_9d220731af" x="143.684796" y="278.669999" style="fill: #7a77ab; stroke: #ffffff; stroke-width: 0.48"/>
    </g>
    <g clip-path="url(#p44dbad5d82)">
     <use xlink:href="#C0_0_9d220731af" x="125.255672" y="266.501685" style="fill: #7a77ab; stroke: #ffffff; stroke-width: 0.48"/>
    </g>
    <g clip-path="url(#p44dbad5d82)">
     <use xlink:href="#C0_0_9d220731af" x="124.00187" y="269.107103" style="fill: #7a77ab; stroke: #ffffff; stroke-width: 0.48"/>
    </g>
    <g clip-path="url(#p44dbad5d82)">
     <use xlink:href="#C0_0_9d220731af" x="160.633464" y="268.182618" style="fill: #7a77ab; stroke: #ffffff; stroke-width: 0.48"/>
    </g>
    <g clip-path="url(#p44dbad5d82)">
     <use xlink:href="#C0_0_9d220731af" x="122.463041" y="204.642397" style="fill: #7a77ab; stroke: #ffffff; stroke-width: 0.48"/>
    </g>
    <g clip-path="url(#p44dbad5d82)">
     <use xlink:href="#C0_0_9d220731af" x="116.583097" y="245.528388" style="fill: #7a77ab; stroke: #ffffff; stroke-width: 0.48"/>
    </g>
    <g clip-path="url(#p44dbad5d82)">
     <use xlink:href="#C0_0_9d220731af" x="116.601428" y="248.980915" style="fill: #7a77ab; stroke: #ffffff; stroke-width: 0.48"/>
    </g>
    <g clip-path="url(#p44dbad5d82)">
     <use xlink:href="#C0_0_9d220731af" x="116.780848" y="255.062408" style="fill: #7a77ab; stroke: #ffffff; stroke-width: 0.48"/>
    </g>
    <g clip-path="url(#p44dbad5d82)">
     <use xlink:href="#C0_0_9d220731af" x="116.894966" y="252.011279" style="fill: #7a77ab; stroke: #ffffff; stroke-width: 0.48"/>
    </g>
    <g clip-path="url(#p44dbad5d82)">
     <use xlink:href="#C0_0_9d220731af" x="116.980075" y="250.545198" style="fill: #7a77ab; stroke: #ffffff; stroke-width: 0.48"/>
    </g>
    <g clip-path="url(#p44dbad5d82)">
     <use xlink:href="#C0_0_9d220731af" x="126.779065" y="259.830162" style="fill: #7a77ab; stroke: #ffffff; stroke-width: 0.48"/>
    </g>
    <g clip-path="url(#p44dbad5d82)">
     <use xlink:href="#C0_0_9d220731af" x="182.429427" y="270.892168" style="fill: #7a77ab; stroke: #ffffff; stroke-width: 0.48"/>
    </g>
    <g clip-path="url(#p44dbad5d82)">
     <use xlink:href="#C0_0_9d220731af" x="128.834022" y="266.800925" style="fill: #7a77ab; stroke: #ffffff; stroke-width: 0.48"/>
    </g>
    <g clip-path="url(#p44dbad5d82)">
     <use xlink:href="#C0_0_9d220731af" x="131.483981" y="252.083051" style="fill: #7a77ab; stroke: #ffffff; stroke-width: 0.48"/>
    </g>
    <g clip-path="url(#p44dbad5d82)">
     <use xlink:href="#C0_0_9d220731af" x="141.32876" y="259.57967" style="fill: #7a77ab; stroke: #ffffff; stroke-width: 0.48"/>
    </g>
    <g clip-path="url(#p44dbad5d82)">
     <use xlink:href="#C0_0_9d220731af" x="130.347408" y="272.701126" style="fill: #7a77ab; stroke: #ffffff; stroke-width: 0.48"/>
    </g>
    <g clip-path="url(#p44dbad5d82)">
     <use xlink:href="#C0_0_9d220731af" x="119.268943" y="265.218308" style="fill: #7a77ab; stroke: #ffffff; stroke-width: 0.48"/>
    </g>
    <g clip-path="url(#p44dbad5d82)">
     <use xlink:href="#C0_0_9d220731af" x="134.041676" y="231.569444" style="fill: #7a77ab; stroke: #ffffff; stroke-width: 0.48"/>
    </g>
    <g clip-path="url(#p44dbad5d82)">
     <use xlink:href="#C0_0_9d220731af" x="140.728722" y="272.674736" style="fill: #7a77ab; stroke: #ffffff; stroke-width: 0.48"/>
    </g>
    <g clip-path="url(#p44dbad5d82)">
     <use xlink:href="#C0_0_9d220731af" x="135.706981" y="266.166766" style="fill: #7a77ab; stroke: #ffffff; stroke-width: 0.48"/>
    </g>
    <g clip-path="url(#p44dbad5d82)">
     <use xlink:href="#C0_0_9d220731af" x="132.777622" y="252.041993" style="fill: #7a77ab; stroke: #ffffff; stroke-width: 0.48"/>
    </g>
    <g clip-path="url(#p44dbad5d82)">
     <use xlink:href="#C0_0_9d220731af" x="115.591726" y="250.389129" style="fill: #7a77ab; stroke: #ffffff; stroke-width: 0.48"/>
    </g>
    <g clip-path="url(#p44dbad5d82)">
     <use xlink:href="#C0_0_9d220731af" x="118.504548" y="249.413994" style="fill: #7a77ab; stroke: #ffffff; stroke-width: 0.48"/>
    </g>
    <g clip-path="url(#p44dbad5d82)">
     <use xlink:href="#C0_0_9d220731af" x="120.536596" y="264.138869" style="fill: #7a77ab; stroke: #ffffff; stroke-width: 0.48"/>
    </g>
    <g clip-path="url(#p44dbad5d82)">
     <use xlink:href="#C0_0_9d220731af" x="115.600269" y="261.174691" style="fill: #7a77ab; stroke: #ffffff; stroke-width: 0.48"/>
    </g>
    <g clip-path="url(#p44dbad5d82)">
     <use xlink:href="#C0_0_9d220731af" x="128.906134" y="259.429667" style="fill: #7a77ab; stroke: #ffffff; stroke-width: 0.48"/>
    </g>
    <g clip-path="url(#p44dbad5d82)">
     <use xlink:href="#C0_0_9d220731af" x="175.213564" y="267.989643" style="fill: #7a77ab; stroke: #ffffff; stroke-width: 0.48"/>
    </g>
    <g clip-path="url(#p44dbad5d82)">
     <use xlink:href="#C0_0_9d220731af" x="136.623419" y="274.693602" style="fill: #7a77ab; stroke: #ffffff; stroke-width: 0.48"/>
    </g>
    <g clip-path="url(#p44dbad5d82)">
     <use xlink:href="#C0_0_9d220731af" x="132.832338" y="274.182738" style="fill: #7a77ab; stroke: #ffffff; stroke-width: 0.48"/>
    </g>
    <g clip-path="url(#p44dbad5d82)">
     <use xlink:href="#C0_0_9d220731af" x="130.19328" y="250.160644" style="fill: #7a77ab; stroke: #ffffff; stroke-width: 0.48"/>
    </g>
    <g clip-path="url(#p44dbad5d82)">
     <use xlink:href="#C0_0_9d220731af" x="129.277233" y="238.60858" style="fill: #7a77ab; stroke: #ffffff; stroke-width: 0.48"/>
    </g>
    <g clip-path="url(#p44dbad5d82)">
     <use xlink:href="#C0_0_9d220731af" x="140.622936" y="261.797561" style="fill: #7a77ab; stroke: #ffffff; stroke-width: 0.48"/>
    </g>
    <g clip-path="url(#p44dbad5d82)">
     <use xlink:href="#C0_0_9d220731af" x="146.101807" y="232.9721" style="fill: #7a77ab; stroke: #ffffff; stroke-width: 0.48"/>
    </g>
    <g clip-path="url(#p44dbad5d82)">
     <use xlink:href="#C0_0_9d220731af" x="132.734219" y="225.851468" style="fill: #7a77ab; stroke: #ffffff; stroke-width: 0.48"/>
    </g>
    <g clip-path="url(#p44dbad5d82)">
     <use xlink:href="#C0_0_9d220731af" x="117.07309" y="236.639343" style="fill: #7a77ab; stroke: #ffffff; stroke-width: 0.48"/>
    </g>
    <g clip-path="url(#p44dbad5d82)">
     <use xlink:href="#C0_0_9d220731af" x="126.320823" y="270.578776" style="fill: #7a77ab; stroke: #ffffff; stroke-width: 0.48"/>
    </g>
    <g clip-path="url(#p44dbad5d82)">
     <use xlink:href="#C0_0_9d220731af" x="158.225138" y="271.359601" style="fill: #7a77ab; stroke: #ffffff; stroke-width: 0.48"/>
    </g>
    <g clip-path="url(#p44dbad5d82)">
     <use xlink:href="#C0_0_9d220731af" x="125.74059" y="257.490599" style="fill: #7a77ab; stroke: #ffffff; stroke-width: 0.48"/>
    </g>
    <g clip-path="url(#p44dbad5d82)">
     <use xlink:href="#C0_0_9d220731af" x="123.117117" y="219.235736" style="fill: #7a77ab; stroke: #ffffff; stroke-width: 0.48"/>
    </g>
    <g clip-path="url(#p44dbad5d82)">
     <use xlink:href="#C0_0_9d220731af" x="141.104553" y="269.135443" style="fill: #7a77ab; stroke: #ffffff; stroke-width: 0.48"/>
    </g>
    <g clip-path="url(#p44dbad5d82)">
     <use xlink:href="#C0_0_9d220731af" x="161.343781" y="253.481306" style="fill: #7a77ab; stroke: #ffffff; stroke-width: 0.48"/>
    </g>
    <g clip-path="url(#p44dbad5d82)">
     <use xlink:href="#C0_0_9d220731af" x="136.864321" y="256.462305" style="fill: #7a77ab; stroke: #ffffff; stroke-width: 0.48"/>
    </g>
    <g clip-path="url(#p44dbad5d82)">
     <use xlink:href="#C0_0_9d220731af" x="126.077993" y="267.264207" style="fill: #7a77ab; stroke: #ffffff; stroke-width: 0.48"/>
    </g>
    <g clip-path="url(#p44dbad5d82)">
     <use xlink:href="#C0_0_9d220731af" x="139.08431" y="264.707685" style="fill: #7a77ab; stroke: #ffffff; stroke-width: 0.48"/>
    </g>
    <g clip-path="url(#p44dbad5d82)">
     <use xlink:href="#C0_0_9d220731af" x="135.675726" y="259.152354" style="fill: #7a77ab; stroke: #ffffff; stroke-width: 0.48"/>
    </g>
    <g clip-path="url(#p44dbad5d82)">
     <use xlink:href="#C0_0_9d220731af" x="135.469823" y="275.374805" style="fill: #7a77ab; stroke: #ffffff; stroke-width: 0.48"/>
    </g>
    <g clip-path="url(#p44dbad5d82)">
     <use xlink:href="#C0_0_9d220731af" x="118.62108" y="259.739801" style="fill: #7a77ab; stroke: #ffffff; stroke-width: 0.48"/>
    </g>
    <g clip-path="url(#p44dbad5d82)">
     <use xlink:href="#C0_0_9d220731af" x="120.138127" y="262.080204" style="fill: #7a77ab; stroke: #ffffff; stroke-width: 0.48"/>
    </g>
    <g clip-path="url(#p44dbad5d82)">
     <use xlink:href="#C0_0_9d220731af" x="124.688187" y="248.018536" style="fill: #7a77ab; stroke: #ffffff; stroke-width: 0.48"/>
    </g>
    <g clip-path="url(#p44dbad5d82)">
     <use xlink:href="#C0_0_9d220731af" x="121.772013" y="265.796889" style="fill: #7a77ab; stroke: #ffffff; stroke-width: 0.48"/>
    </g>
    <g clip-path="url(#p44dbad5d82)">
     <use xlink:href="#C0_0_9d220731af" x="151.335151" y="263.561581" style="fill: #7a77ab; stroke: #ffffff; stroke-width: 0.48"/>
    </g>
    <g clip-path="url(#p44dbad5d82)">
     <use xlink:href="#C0_0_9d220731af" x="144.976008" y="256.133523" style="fill: #7a77ab; stroke: #ffffff; stroke-width: 0.48"/>
    </g>
    <g clip-path="url(#p44dbad5d82)">
     <use xlink:href="#C0_0_9d220731af" x="133.607909" y="267.494756" style="fill: #7a77ab; stroke: #ffffff; stroke-width: 0.48"/>
    </g>
    <g clip-path="url(#p44dbad5d82)">
     <use xlink:href="#C0_0_9d220731af" x="125.201962" y="239.470254" style="fill: #7a77ab; stroke: #ffffff; stroke-width: 0.48"/>
    </g>
    <g clip-path="url(#p44dbad5d82)">
     <use xlink:href="#C0_0_9d220731af" x="154.96027" y="253.404547" style="fill: #7a77ab; stroke: #ffffff; stroke-width: 0.48"/>
    </g>
    <g clip-path="url(#p44dbad5d82)">
     <use xlink:href="#C0_0_9d220731af" x="119.804332" y="257.59255" style="fill: #7a77ab; stroke: #ffffff; stroke-width: 0.48"/>
    </g>
    <g clip-path="url(#p44dbad5d82)">
     <use xlink:href="#C0_0_9d220731af" x="129.995663" y="272.13403" style="fill: #7a77ab; stroke: #ffffff; stroke-width: 0.48"/>
    </g>
    <g clip-path="url(#p44dbad5d82)">
     <use xlink:href="#C0_0_9d220731af" x="125.133861" y="248.206233" style="fill: #7a77ab; stroke: #ffffff; stroke-width: 0.48"/>
    </g>
    <g clip-path="url(#p44dbad5d82)">
     <use xlink:href="#C0_0_9d220731af" x="130.503573" y="222.89094" style="fill: #7a77ab; stroke: #ffffff; stroke-width: 0.48"/>
    </g>
    <g clip-path="url(#p44dbad5d82)">
     <use xlink:href="#C0_0_9d220731af" x="171.351531" y="263.14423" style="fill: #7a77ab; stroke: #ffffff; stroke-width: 0.48"/>
    </g>
    <g clip-path="url(#p44dbad5d82)">
     <use xlink:href="#C0_0_9d220731af" x="137.979299" y="276.73376" style="fill: #7a77ab; stroke: #ffffff; stroke-width: 0.48"/>
    </g>
    <g clip-path="url(#p44dbad5d82)">
     <use xlink:href="#C0_0_9d220731af" x="152.846802" y="227.737018" style="fill: #7a77ab; stroke: #ffffff; stroke-width: 0.48"/>
    </g>
    <g clip-path="url(#p44dbad5d82)">
     <use xlink:href="#C0_0_9d220731af" x="118.891455" y="238.371062" style="fill: #7a77ab; stroke: #ffffff; stroke-width: 0.48"/>
    </g>
    <g clip-path="url(#p44dbad5d82)">
     <use xlink:href="#C0_0_9d220731af" x="139.769462" y="230.960085" style="fill: #7a77ab; stroke: #ffffff; stroke-width: 0.48"/>
    </g>
    <g clip-path="url(#p44dbad5d82)">
     <use xlink:href="#C0_0_9d220731af" x="214.643606" y="270.713723" style="fill: #7a77ab; stroke: #ffffff; stroke-width: 0.48"/>
    </g>
    <g clip-path="url(#p44dbad5d82)">
     <use xlink:href="#C0_0_9d220731af" x="124.047709" y="244.575392" style="fill: #7a77ab; stroke: #ffffff; stroke-width: 0.48"/>
    </g>
    <g clip-path="url(#p44dbad5d82)">
     <use xlink:href="#C0_0_9d220731af" x="122.84184" y="239.041722" style="fill: #7a77ab; stroke: #ffffff; stroke-width: 0.48"/>
    </g>
    <g clip-path="url(#p44dbad5d82)">
     <use xlink:href="#C0_0_9d220731af" x="114.679385" y="244.869879" style="fill: #7a77ab; stroke: #ffffff; stroke-width: 0.48"/>
    </g>
    <g clip-path="url(#p44dbad5d82)">
     <use xlink:href="#C0_0_9d220731af" x="129.9339" y="251.226218" style="fill: #7a77ab; stroke: #ffffff; stroke-width: 0.48"/>
    </g>
    <g clip-path="url(#p44dbad5d82)">
     <use xlink:href="#C0_0_9d220731af" x="125.055221" y="273.160113" style="fill: #7a77ab; stroke: #ffffff; stroke-width: 0.48"/>
    </g>
    <g clip-path="url(#p44dbad5d82)">
     <use xlink:href="#C0_0_9d220731af" x="137.522263" y="223.088588" style="fill: #7a77ab; stroke: #ffffff; stroke-width: 0.48"/>
    </g>
    <g clip-path="url(#p44dbad5d82)">
     <use xlink:href="#C0_0_9d220731af" x="136.429471" y="247.140224" style="fill: #7a77ab; stroke: #ffffff; stroke-width: 0.48"/>
    </g>
   </g>
   <g id="matplotlib.axis_1">
    <g id="xtick_1">
     <g id="line2d_1">
      <defs>
       <path id="m55584fc27e" d="M 0 0 
L 0 5 
" style="stroke: #000000; stroke-width: 0.75"/>
      </defs>
      <g>
       <use xlink:href="#m55584fc27e" x="110.351903" y="312.563736" style="stroke: #000000; stroke-width: 0.75"/>
      </g>
     </g>
     <g id="text_1">
      <text style="font: 14.5px &quot;Suisse Int&apos;l Mono&quot;; text-anchor: middle" x="110.351903" y="333.076236" transform="rotate(-0 110.351903 333.076236)">0</text>
     </g>
    </g>
    <g id="xtick_2">
     <g id="line2d_2">
      <g>
       <use xlink:href="#m55584fc27e" x="156.574267" y="312.563736" style="stroke: #000000; stroke-width: 0.75"/>
      </g>
     </g>
     <g id="text_2">
      <text style="font: 14.5px &quot;Suisse Int&apos;l Mono&quot;; text-anchor: middle" x="156.574267" y="333.076236" transform="rotate(-0 156.574267 333.076236)">25</text>
     </g>
    </g>
    <g id="xtick_3">
     <g id="line2d_3">
      <g>
       <use xlink:href="#m55584fc27e" x="202.79663" y="312.563736" style="stroke: #000000; stroke-width: 0.75"/>
      </g>
     </g>
     <g id="text_3">
      <text style="font: 14.5px &quot;Suisse Int&apos;l Mono&quot;; text-anchor: middle" x="202.79663" y="333.076236" transform="rotate(-0 202.79663 333.076236)">50</text>
     </g>
    </g>
    <g id="xtick_4">
     <g id="line2d_4">
      <g>
       <use xlink:href="#m55584fc27e" x="249.018993" y="312.563736" style="stroke: #000000; stroke-width: 0.75"/>
      </g>
     </g>
     <g id="text_4">
      <text style="font: 14.5px &quot;Suisse Int&apos;l Mono&quot;; text-anchor: middle" x="249.018993" y="333.076236" transform="rotate(-0 249.018993 333.076236)">75</text>
     </g>
    </g>
    <g id="xtick_5">
     <g id="line2d_5">
      <g>
       <use xlink:href="#m55584fc27e" x="295.241356" y="312.563736" style="stroke: #000000; stroke-width: 0.75"/>
      </g>
     </g>
     <g id="text_5">
      <text style="font: 14.5px &quot;Suisse Int&apos;l&quot;, sans-serif; text-anchor: middle" x="295.241356" y="333.076236" transform="rotate(-0 295.241356 333.076236)">100</text>
     </g>
    </g>
    <g id="text_6">
     <text style="font: 500 15px &quot;Suisse Int&apos;l&quot;, sans-serif; text-anchor: middle" x="184.313125" y="356.488736" transform="rotate(-0 184.313125 356.488736)">Mean curvilinear speed (µm/s)</text>
    </g>
   </g>
   <g id="matplotlib.axis_2">
    <g id="ytick_1">
     <g id="line2d_6">
      <defs>
       <path id="m6fbd2cf0e8" d="M 0 0 
L -5 0 
" style="stroke: #000000; stroke-width: 0.75"/>
      </defs>
      <g>
       <use xlink:href="#m6fbd2cf0e8" x="72.518125" y="283.654726" style="stroke: #000000; stroke-width: 0.75"/>
      </g>
     </g>
     <g id="text_7">
      <text style="font: 14.5px &quot;Suisse Int&apos;l Mono&quot;; text-anchor: end" x="62.518125" y="288.910976" transform="rotate(-0 62.518125 288.910976)">0</text>
     </g>
    </g>
    <g id="ytick_2">
     <g id="line2d_7">
      <g>
       <use xlink:href="#m6fbd2cf0e8" x="72.518125" y="218.500311" style="stroke: #000000; stroke-width: 0.75"/>
      </g>
     </g>
     <g id="text_8">
      <text style="font: 14.5px &quot;Suisse Int&apos;l Mono&quot;; text-anchor: end" x="62.518125" y="223.756561" transform="rotate(-0 62.518125 223.756561)">10</text>
     </g>
    </g>
    <g id="ytick_3">
     <g id="line2d_8">
      <g>
       <use xlink:href="#m6fbd2cf0e8" x="72.518125" y="153.345896" style="stroke: #000000; stroke-width: 0.75"/>
      </g>
     </g>
     <g id="text_9">
      <text style="font: 14.5px &quot;Suisse Int&apos;l Mono&quot;; text-anchor: end" x="62.518125" y="158.602146" transform="rotate(-0 62.518125 158.602146)">20</text>
     </g>
    </g>
    <g id="ytick_4">
     <g id="line2d_9">
      <g>
       <use xlink:href="#m6fbd2cf0e8" x="72.518125" y="88.191482" style="stroke: #000000; stroke-width: 0.75"/>
      </g>
     </g>
     <g id="text_10">
      <text style="font: 14.5px &quot;Suisse Int&apos;l Mono&quot;; text-anchor: end" x="62.518125" y="93.447732" transform="rotate(-0 62.518125 93.447732)">30</text>
     </g>
    </g>
    <g id="text_11">
     <text style="font: 500 15px &quot;Suisse Int&apos;l&quot;, sans-serif; text-anchor: middle" x="30.875" y="196.729451" transform="rotate(-90 30.875 196.729451)">Mean angular speed (rad/s)</text>
    </g>
   </g>
   <g id="line2d_10"/>
   <g id="line2d_11"/>
   <g id="patch_3">
    <path d="M 72.518125 312.563736 
L 72.518125 80.895165 
" style="fill: none; stroke: #000000; stroke-width: 0.75; stroke-linejoin: miter; stroke-linecap: square"/>
   </g>
   <g id="patch_4">
    <path d="M 72.518125 312.563736 
L 296.108125 312.563736 
" style="fill: none; stroke: #000000; stroke-width: 0.75; stroke-linejoin: miter; stroke-linecap: square"/>
   </g>
   <g id="legend_1">
    <g id="text_12">
     <text style="font: 600 16px &quot;Suisse Int&apos;l&quot;, sans-serif; text-anchor: start" x="339.121125" y="92.495165" transform="rotate(-0 339.121125 92.495165)">Vessel_type</text>
    </g>
    <g id="line2d_12">
     <path d="M 339.121125 102.795165 
L 452.621125 102.795165 
" style="fill: none; stroke: #bab0a8; stroke-width: 1.5; stroke-linecap: round"/>
    </g>
    <g id="line2d_13">
     <defs>
      <path id="maa81389ed6" d="M 0 3 
C 0.795609 3 1.55874 2.683901 2.12132 2.12132 
C 2.683901 1.55874 3 0.795609 3 0 
C 3 -0.795609 2.683901 -1.55874 2.12132 -2.12132 
C 1.55874 -2.683901 0.795609 -3 0 -3 
C -0.795609 -3 -1.55874 -2.683901 -2.12132 -2.12132 
C -2.683901 -1.55874 -3 -0.795609 -3 0 
C -3 0.795609 -2.683901 1.55874 -2.12132 2.12132 
C -1.55874 2.683901 -0.795609 3 0 3 
z
" style="stroke: #ffffff; stroke-width: 0.48"/>
     </defs>
     <g>
      <use xlink:href="#maa81389ed6" x="346.621125" y="116.670165" style="fill: #f28360; stroke: #ffffff; stroke-width: 0.48"/>
     </g>
    </g>
    <g id="text_13">
     <text style="font: 15px &quot;Suisse Int&apos;l&quot;, sans-serif; text-anchor: start" x="360.121125" y="123.045165" transform="rotate(-0 360.121125 123.045165)">Pools | n=145</text>
    </g>
    <g id="line2d_14">
     <defs>
      <path id="mc7e3f5e7ff" d="M 0 3 
C 0.795609 3 1.55874 2.683901 2.12132 2.12132 
C 2.683901 1.55874 3 0.795609 3 0 
C 3 -0.795609 2.683901 -1.55874 2.12132 -2.12132 
C 1.55874 -2.683901 0.795609 -3 0 -3 
C -0.795609 -3 -1.55874 -2.683901 -2.12132 -2.12132 
C -2.683901 -1.55874 -3 -0.795609 -3 0 
C -3 0.795609 -2.683901 1.55874 -2.12132 2.12132 
C -1.55874 2.683901 -0.795609 3 0 3 
z
" style="stroke: #ffffff; stroke-width: 0.48"/>
     </defs>
     <g>
      <use xlink:href="#mc7e3f5e7ff" x="346.621125" y="139.545165" style="fill: #7a77ab; stroke: #ffffff; stroke-width: 0.48"/>
     </g>
    </g>
    <g id="text_14">
     <text style="font: 15px &quot;Suisse Int&apos;l&quot;, sans-serif; text-anchor: start" x="360.121125" y="145.920165" transform="rotate(-0 360.121125 145.920165)">Wells | n=91</text>
    </g>
   </g>
  </g>
  <g id="axes_2">
   <g id="patch_5">
    <path d="M 72.518125 72.906593 
L 296.108125 72.906593 
L 296.108125 32.963736 
L 72.518125 32.963736 
L 72.518125 72.906593 
z
" style="fill: none"/>
   </g>
   <g id="PolyCollection_1">
    <defs>
     <path id="mddf6cc97bd" d="M 92.049406 -306.432989 
L 92.049406 -306.371205 
L 92.777943 -306.371205 
L 93.50648 -306.371205 
L 94.235017 -306.371205 
L 94.963554 -306.371205 
L 95.692091 -306.371205 
L 96.420628 -306.371205 
L 97.149165 -306.371205 
L 97.877702 -306.371205 
L 98.606239 -306.371205 
L 99.334776 -306.371205 
L 100.063313 -306.371205 
L 100.79185 -306.371205 
L 101.520387 -306.371205 
L 102.248925 -306.371205 
L 102.977462 -306.371205 
L 103.705999 -306.371205 
L 104.434536 -306.371205 
L 105.163073 -306.371205 
L 105.89161 -306.371205 
L 106.620147 -306.371205 
L 107.348684 -306.371205 
L 108.077221 -306.371205 
L 108.805758 -306.371205 
L 109.534295 -306.371205 
L 110.262832 -306.371205 
L 110.991369 -306.371205 
L 111.719906 -306.371205 
L 112.448443 -306.371205 
L 113.17698 -306.371205 
L 113.905517 -306.371205 
L 114.634054 -306.371205 
L 115.362591 -306.371205 
L 116.091128 -306.371205 
L 116.819666 -306.371205 
L 117.548203 -306.371205 
L 118.27674 -306.371205 
L 119.005277 -306.371205 
L 119.733814 -306.371205 
L 120.462351 -306.371205 
L 121.190888 -306.371205 
L 121.919425 -306.371205 
L 122.647962 -306.371205 
L 123.376499 -306.371205 
L 124.105036 -306.371205 
L 124.833573 -306.371205 
L 125.56211 -306.371205 
L 126.290647 -306.371205 
L 127.019184 -306.371205 
L 127.747721 -306.371205 
L 128.476258 -306.371205 
L 129.204795 -306.371205 
L 129.933332 -306.371205 
L 130.661869 -306.371205 
L 131.390406 -306.371205 
L 132.118944 -306.371205 
L 132.847481 -306.371205 
L 133.576018 -306.371205 
L 134.304555 -306.371205 
L 135.033092 -306.371205 
L 135.761629 -306.371205 
L 136.490166 -306.371205 
L 137.218703 -306.371205 
L 137.94724 -306.371205 
L 138.675777 -306.371205 
L 139.404314 -306.371205 
L 140.132851 -306.371205 
L 140.861388 -306.371205 
L 141.589925 -306.371205 
L 142.318462 -306.371205 
L 143.046999 -306.371205 
L 143.775536 -306.371205 
L 144.504073 -306.371205 
L 145.23261 -306.371205 
L 145.961147 -306.371205 
L 146.689685 -306.371205 
L 147.418222 -306.371205 
L 148.146759 -306.371205 
L 148.875296 -306.371205 
L 149.603833 -306.371205 
L 150.33237 -306.371205 
L 151.060907 -306.371205 
L 151.789444 -306.371205 
L 152.517981 -306.371205 
L 153.246518 -306.371205 
L 153.975055 -306.371205 
L 154.703592 -306.371205 
L 155.432129 -306.371205 
L 156.160666 -306.371205 
L 156.889203 -306.371205 
L 157.61774 -306.371205 
L 158.346277 -306.371205 
L 159.074814 -306.371205 
L 159.803351 -306.371205 
L 160.531888 -306.371205 
L 161.260425 -306.371205 
L 161.988963 -306.371205 
L 162.7175 -306.371205 
L 163.446037 -306.371205 
L 164.174574 -306.371205 
L 164.903111 -306.371205 
L 165.631648 -306.371205 
L 166.360185 -306.371205 
L 167.088722 -306.371205 
L 167.817259 -306.371205 
L 168.545796 -306.371205 
L 169.274333 -306.371205 
L 170.00287 -306.371205 
L 170.731407 -306.371205 
L 171.459944 -306.371205 
L 172.188481 -306.371205 
L 172.917018 -306.371205 
L 173.645555 -306.371205 
L 174.374092 -306.371205 
L 175.102629 -306.371205 
L 175.831166 -306.371205 
L 176.559703 -306.371205 
L 177.288241 -306.371205 
L 178.016778 -306.371205 
L 178.745315 -306.371205 
L 179.473852 -306.371205 
L 180.202389 -306.371205 
L 180.930926 -306.371205 
L 181.659463 -306.371205 
L 182.388 -306.371205 
L 183.116537 -306.371205 
L 183.845074 -306.371205 
L 184.573611 -306.371205 
L 185.302148 -306.371205 
L 186.030685 -306.371205 
L 186.759222 -306.371205 
L 187.487759 -306.371205 
L 188.216296 -306.371205 
L 188.944833 -306.371205 
L 189.67337 -306.371205 
L 190.401907 -306.371205 
L 191.130444 -306.371205 
L 191.858982 -306.371205 
L 192.587519 -306.371205 
L 193.316056 -306.371205 
L 194.044593 -306.371205 
L 194.77313 -306.371205 
L 195.501667 -306.371205 
L 196.230204 -306.371205 
L 196.958741 -306.371205 
L 197.687278 -306.371205 
L 198.415815 -306.371205 
L 199.144352 -306.371205 
L 199.872889 -306.371205 
L 200.601426 -306.371205 
L 201.329963 -306.371205 
L 202.0585 -306.371205 
L 202.787037 -306.371205 
L 203.515574 -306.371205 
L 204.244111 -306.371205 
L 204.972648 -306.371205 
L 205.701185 -306.371205 
L 206.429722 -306.371205 
L 207.15826 -306.371205 
L 207.886797 -306.371205 
L 208.615334 -306.371205 
L 209.343871 -306.371205 
L 210.072408 -306.371205 
L 210.800945 -306.371205 
L 211.529482 -306.371205 
L 212.258019 -306.371205 
L 212.986556 -306.371205 
L 213.715093 -306.371205 
L 214.44363 -306.371205 
L 215.172167 -306.371205 
L 215.900704 -306.371205 
L 216.629241 -306.371205 
L 217.357778 -306.371205 
L 218.086315 -306.371205 
L 218.814852 -306.371205 
L 219.543389 -306.371205 
L 220.271926 -306.371205 
L 221.000463 -306.371205 
L 221.729001 -306.371205 
L 222.457538 -306.371205 
L 223.186075 -306.371205 
L 223.914612 -306.371205 
L 224.643149 -306.371205 
L 225.371686 -306.371205 
L 226.100223 -306.371205 
L 226.82876 -306.371205 
L 227.557297 -306.371205 
L 228.285834 -306.371205 
L 229.014371 -306.371205 
L 229.742908 -306.371205 
L 230.471445 -306.371205 
L 231.199982 -306.371205 
L 231.928519 -306.371205 
L 232.657056 -306.371205 
L 233.385593 -306.371205 
L 234.11413 -306.371205 
L 234.842667 -306.371205 
L 235.571204 -306.371205 
L 236.299741 -306.371205 
L 237.028279 -306.371205 
L 237.028279 -306.379024 
L 237.028279 -306.379024 
L 236.299741 -306.38164 
L 235.571204 -306.385002 
L 234.842667 -306.389274 
L 234.11413 -306.394648 
L 233.385593 -306.401336 
L 232.657056 -306.40957 
L 231.928519 -306.419599 
L 231.199982 -306.431683 
L 230.471445 -306.446085 
L 229.742908 -306.463062 
L 229.014371 -306.482854 
L 228.285834 -306.505672 
L 227.557297 -306.531683 
L 226.82876 -306.560999 
L 226.100223 -306.593665 
L 225.371686 -306.629644 
L 224.643149 -306.66881 
L 223.914612 -306.710946 
L 223.186075 -306.755737 
L 222.457538 -306.802778 
L 221.729001 -306.851579 
L 221.000463 -306.90158 
L 220.271926 -306.952167 
L 219.543389 -307.002694 
L 218.814852 -307.052503 
L 218.086315 -307.10095 
L 217.357778 -307.147424 
L 216.629241 -307.191369 
L 215.900704 -307.232301 
L 215.172167 -307.269813 
L 214.44363 -307.303588 
L 213.715093 -307.33339 
L 212.986556 -307.359064 
L 212.258019 -307.380521 
L 211.529482 -307.397727 
L 210.800945 -307.410685 
L 210.072408 -307.419424 
L 209.343871 -307.423982 
L 208.615334 -307.424403 
L 207.886797 -307.420728 
L 207.15826 -307.413002 
L 206.429722 -307.401278 
L 205.701185 -307.385634 
L 204.972648 -307.366184 
L 204.244111 -307.343103 
L 203.515574 -307.31664 
L 202.787037 -307.287139 
L 202.0585 -307.255048 
L 201.329963 -307.220932 
L 200.601426 -307.18547 
L 199.872889 -307.149452 
L 199.144352 -307.113761 
L 198.415815 -307.079359 
L 197.687278 -307.047257 
L 196.958741 -307.018485 
L 196.230204 -306.994061 
L 195.501667 -306.974956 
L 194.77313 -306.962063 
L 194.044593 -306.956165 
L 193.316056 -306.957915 
L 192.587519 -306.967809 
L 191.858982 -306.986183 
L 191.130444 -307.013199 
L 190.401907 -307.048849 
L 189.67337 -307.092967 
L 188.944833 -307.145239 
L 188.216296 -307.205221 
L 187.487759 -307.272371 
L 186.759222 -307.346068 
L 186.030685 -307.425641 
L 185.302148 -307.510404 
L 184.573611 -307.599677 
L 183.845074 -307.692812 
L 183.116537 -307.789222 
L 182.388 -307.888391 
L 181.659463 -307.989894 
L 180.930926 -308.093407 
L 180.202389 -308.198709 
L 179.473852 -308.305686 
L 178.745315 -308.414324 
L 178.016778 -308.524703 
L 177.288241 -308.636982 
L 176.559703 -308.751389 
L 175.831166 -308.868194 
L 175.102629 -308.987694 
L 174.374092 -309.110189 
L 173.645555 -309.235954 
L 172.917018 -309.36522 
L 172.188481 -309.498151 
L 171.459944 -309.634824 
L 170.731407 -309.775219 
L 170.00287 -309.919212 
L 169.274333 -310.066578 
L 168.545796 -310.217005 
L 167.817259 -310.370122 
L 167.088722 -310.525536 
L 166.360185 -310.682879 
L 165.631648 -310.841875 
L 164.903111 -311.002404 
L 164.174574 -311.16458 
L 163.446037 -311.328824 
L 162.7175 -311.495937 
L 161.988963 -311.667166 
L 161.260425 -311.844251 
L 160.531888 -312.029457 
L 159.803351 -312.225578 
L 159.074814 -312.435923 
L 158.346277 -312.664262 
L 157.61774 -312.914745 
L 156.889203 -313.191801 
L 156.160666 -313.499992 
L 155.432129 -313.843866 
L 154.703592 -314.227772 
L 153.975055 -314.655684 
L 153.246518 -315.131013 
L 152.517981 -315.656428 
L 151.789444 -316.233704 
L 151.060907 -316.863578 
L 150.33237 -317.545659 
L 149.603833 -318.27836 
L 148.875296 -319.058887 
L 148.146759 -319.883271 
L 147.418222 -320.746442 
L 146.689685 -321.642356 
L 145.961147 -322.564152 
L 145.23261 -323.504346 
L 144.504073 -324.455045 
L 143.775536 -325.40817 
L 143.046999 -326.355684 
L 142.318462 -327.289808 
L 141.589925 -328.203215 
L 140.861388 -329.089198 
L 140.132851 -329.941799 
L 139.404314 -330.755904 
L 138.675777 -331.52729 
L 137.94724 -332.252634 
L 137.218703 -332.929486 
L 136.490166 -333.556201 
L 135.761629 -334.131847 
L 135.033092 -334.656089 
L 134.304555 -335.129055 
L 133.576018 -335.551193 
L 132.847481 -335.923126 
L 132.118944 -336.2455 
L 131.390406 -336.518849 
L 130.661869 -336.743461 
L 129.933332 -336.919262 
L 129.204795 -337.045718 
L 128.476258 -337.121756 
L 127.747721 -337.145719 
L 127.019184 -337.115348 
L 126.290647 -337.027796 
L 125.56211 -336.879692 
L 124.833573 -336.667238 
L 124.105036 -336.386359 
L 123.376499 -336.032885 
L 122.647962 -335.602779 
L 121.919425 -335.092397 
L 121.190888 -334.498755 
L 120.462351 -333.81982 
L 119.733814 -333.054776 
L 119.005277 -332.204268 
L 118.27674 -331.270604 
L 117.548203 -330.257885 
L 116.819666 -329.172074 
L 116.091128 -328.020972 
L 115.362591 -326.814105 
L 114.634054 -325.562529 
L 113.905517 -324.278552 
L 113.17698 -322.975394 
L 112.448443 -321.66679 
L 111.719906 -320.36657 
L 110.991369 -319.088235 
L 110.262832 -317.844545 
L 109.534295 -316.647151 
L 108.805758 -315.506279 
L 108.077221 -314.430487 
L 107.348684 -313.426503 
L 106.620147 -312.499145 
L 105.89161 -311.651321 
L 105.163073 -310.884109 
L 104.434536 -310.196897 
L 103.705999 -309.587578 
L 102.977462 -309.052779 
L 102.248925 -308.588111 
L 101.520387 -308.188432 
L 100.79185 -307.848094 
L 100.063313 -307.561183 
L 99.334776 -307.321719 
L 98.606239 -307.123843 
L 97.877702 -306.961953 
L 97.149165 -306.830815 
L 96.420628 -306.725636 
L 95.692091 -306.642107 
L 94.963554 -306.576425 
L 94.235017 -306.525283 
L 93.50648 -306.485852 
L 92.777943 -306.455748 
L 92.049406 -306.432989 
z
" style="stroke: #7a77ab; stroke-width: 2"/>
    </defs>
    <g clip-path="url(#pcd074da2b8)">
     <use xlink:href="#mddf6cc97bd" x="0" y="379.277799" style="fill: #7a77ab; fill-opacity: 0.25; stroke: #7a77ab; stroke-width: 2"/>
    </g>
   </g>
   <g id="PolyCollection_2">
    <defs>
     <path id="m4e7771cea0" d="M 80.799236 -306.388949 
L 80.799236 -306.371205 
L 81.839577 -306.371205 
L 82.879917 -306.371205 
L 83.920258 -306.371205 
L 84.960598 -306.371205 
L 86.000939 -306.371205 
L 87.04128 -306.371205 
L 88.08162 -306.371205 
L 89.121961 -306.371205 
L 90.162301 -306.371205 
L 91.202642 -306.371205 
L 92.242983 -306.371205 
L 93.283323 -306.371205 
L 94.323664 -306.371205 
L 95.364004 -306.371205 
L 96.404345 -306.371205 
L 97.444686 -306.371205 
L 98.485026 -306.371205 
L 99.525367 -306.371205 
L 100.565707 -306.371205 
L 101.606048 -306.371205 
L 102.646389 -306.371205 
L 103.686729 -306.371205 
L 104.72707 -306.371205 
L 105.76741 -306.371205 
L 106.807751 -306.371205 
L 107.848091 -306.371205 
L 108.888432 -306.371205 
L 109.928773 -306.371205 
L 110.969113 -306.371205 
L 112.009454 -306.371205 
L 113.049794 -306.371205 
L 114.090135 -306.371205 
L 115.130476 -306.371205 
L 116.170816 -306.371205 
L 117.211157 -306.371205 
L 118.251497 -306.371205 
L 119.291838 -306.371205 
L 120.332179 -306.371205 
L 121.372519 -306.371205 
L 122.41286 -306.371205 
L 123.4532 -306.371205 
L 124.493541 -306.371205 
L 125.533882 -306.371205 
L 126.574222 -306.371205 
L 127.614563 -306.371205 
L 128.654903 -306.371205 
L 129.695244 -306.371205 
L 130.735585 -306.371205 
L 131.775925 -306.371205 
L 132.816266 -306.371205 
L 133.856606 -306.371205 
L 134.896947 -306.371205 
L 135.937287 -306.371205 
L 136.977628 -306.371205 
L 138.017969 -306.371205 
L 139.058309 -306.371205 
L 140.09865 -306.371205 
L 141.13899 -306.371205 
L 142.179331 -306.371205 
L 143.219672 -306.371205 
L 144.260012 -306.371205 
L 145.300353 -306.371205 
L 146.340693 -306.371205 
L 147.381034 -306.371205 
L 148.421375 -306.371205 
L 149.461715 -306.371205 
L 150.502056 -306.371205 
L 151.542396 -306.371205 
L 152.582737 -306.371205 
L 153.623078 -306.371205 
L 154.663418 -306.371205 
L 155.703759 -306.371205 
L 156.744099 -306.371205 
L 157.78444 -306.371205 
L 158.82478 -306.371205 
L 159.865121 -306.371205 
L 160.905462 -306.371205 
L 161.945802 -306.371205 
L 162.986143 -306.371205 
L 164.026483 -306.371205 
L 165.066824 -306.371205 
L 166.107165 -306.371205 
L 167.147505 -306.371205 
L 168.187846 -306.371205 
L 169.228186 -306.371205 
L 170.268527 -306.371205 
L 171.308868 -306.371205 
L 172.349208 -306.371205 
L 173.389549 -306.371205 
L 174.429889 -306.371205 
L 175.47023 -306.371205 
L 176.510571 -306.371205 
L 177.550911 -306.371205 
L 178.591252 -306.371205 
L 179.631592 -306.371205 
L 180.671933 -306.371205 
L 181.712274 -306.371205 
L 182.752614 -306.371205 
L 183.792955 -306.371205 
L 184.833295 -306.371205 
L 185.873636 -306.371205 
L 186.913976 -306.371205 
L 187.954317 -306.371205 
L 188.994658 -306.371205 
L 190.034998 -306.371205 
L 191.075339 -306.371205 
L 192.115679 -306.371205 
L 193.15602 -306.371205 
L 194.196361 -306.371205 
L 195.236701 -306.371205 
L 196.277042 -306.371205 
L 197.317382 -306.371205 
L 198.357723 -306.371205 
L 199.398064 -306.371205 
L 200.438404 -306.371205 
L 201.478745 -306.371205 
L 202.519085 -306.371205 
L 203.559426 -306.371205 
L 204.599767 -306.371205 
L 205.640107 -306.371205 
L 206.680448 -306.371205 
L 207.720788 -306.371205 
L 208.761129 -306.371205 
L 209.80147 -306.371205 
L 210.84181 -306.371205 
L 211.882151 -306.371205 
L 212.922491 -306.371205 
L 213.962832 -306.371205 
L 215.003172 -306.371205 
L 216.043513 -306.371205 
L 217.083854 -306.371205 
L 218.124194 -306.371205 
L 219.164535 -306.371205 
L 220.204875 -306.371205 
L 221.245216 -306.371205 
L 222.285557 -306.371205 
L 223.325897 -306.371205 
L 224.366238 -306.371205 
L 225.406578 -306.371205 
L 226.446919 -306.371205 
L 227.48726 -306.371205 
L 228.5276 -306.371205 
L 229.567941 -306.371205 
L 230.608281 -306.371205 
L 231.648622 -306.371205 
L 232.688963 -306.371205 
L 233.729303 -306.371205 
L 234.769644 -306.371205 
L 235.809984 -306.371205 
L 236.850325 -306.371205 
L 237.890665 -306.371205 
L 238.931006 -306.371205 
L 239.971347 -306.371205 
L 241.011687 -306.371205 
L 242.052028 -306.371205 
L 243.092368 -306.371205 
L 244.132709 -306.371205 
L 245.17305 -306.371205 
L 246.21339 -306.371205 
L 247.253731 -306.371205 
L 248.294071 -306.371205 
L 249.334412 -306.371205 
L 250.374753 -306.371205 
L 251.415093 -306.371205 
L 252.455434 -306.371205 
L 253.495774 -306.371205 
L 254.536115 -306.371205 
L 255.576456 -306.371205 
L 256.616796 -306.371205 
L 257.657137 -306.371205 
L 258.697477 -306.371205 
L 259.737818 -306.371205 
L 260.778159 -306.371205 
L 261.818499 -306.371205 
L 262.85884 -306.371205 
L 263.89918 -306.371205 
L 264.939521 -306.371205 
L 265.979861 -306.371205 
L 267.020202 -306.371205 
L 268.060543 -306.371205 
L 269.100883 -306.371205 
L 270.141224 -306.371205 
L 271.181564 -306.371205 
L 272.221905 -306.371205 
L 273.262246 -306.371205 
L 274.302586 -306.371205 
L 275.342927 -306.371205 
L 276.383267 -306.371205 
L 277.423608 -306.371205 
L 278.463949 -306.371205 
L 279.504289 -306.371205 
L 280.54463 -306.371205 
L 281.58497 -306.371205 
L 282.625311 -306.371205 
L 283.665652 -306.371205 
L 284.705992 -306.371205 
L 285.746333 -306.371205 
L 286.786673 -306.371205 
L 287.827014 -306.371205 
L 287.827014 -306.375744 
L 287.827014 -306.375744 
L 286.786673 -306.377193 
L 285.746333 -306.379045 
L 284.705992 -306.381394 
L 283.665652 -306.384348 
L 282.625311 -306.388033 
L 281.58497 -306.392592 
L 280.54463 -306.398188 
L 279.504289 -306.404998 
L 278.463949 -306.41322 
L 277.423608 -306.423063 
L 276.383267 -306.434752 
L 275.342927 -306.448519 
L 274.302586 -306.4646 
L 273.262246 -306.48323 
L 272.221905 -306.504638 
L 271.181564 -306.529038 
L 270.141224 -306.556623 
L 269.100883 -306.587557 
L 268.060543 -306.621972 
L 267.020202 -306.659956 
L 265.979861 -306.701555 
L 264.939521 -306.746764 
L 263.89918 -306.795533 
L 262.85884 -306.847759 
L 261.818499 -306.903301 
L 260.778159 -306.961975 
L 259.737818 -307.023573 
L 258.697477 -307.087864 
L 257.657137 -307.154614 
L 256.616796 -307.223595 
L 255.576456 -307.294599 
L 254.536115 -307.367454 
L 253.495774 -307.442029 
L 252.455434 -307.518252 
L 251.415093 -307.596108 
L 250.374753 -307.675649 
L 249.334412 -307.756991 
L 248.294071 -307.84031 
L 247.253731 -307.925833 
L 246.21339 -308.013831 
L 245.17305 -308.104602 
L 244.132709 -308.198458 
L 243.092368 -308.295708 
L 242.052028 -308.396644 
L 241.011687 -308.501527 
L 239.971347 -308.610573 
L 238.931006 -308.723948 
L 237.890665 -308.841759 
L 236.850325 -308.964057 
L 235.809984 -309.090833 
L 234.769644 -309.222029 
L 233.729303 -309.357545 
L 232.688963 -309.497245 
L 231.648622 -309.64097 
L 230.608281 -309.788549 
L 229.567941 -309.939803 
L 228.5276 -310.094554 
L 227.48726 -310.252627 
L 226.446919 -310.413846 
L 225.406578 -310.57803 
L 224.366238 -310.744989 
L 223.325897 -310.914505 
L 222.285557 -311.086328 
L 221.245216 -311.260159 
L 220.204875 -311.435642 
L 219.164535 -311.612356 
L 218.124194 -311.789815 
L 217.083854 -311.967473 
L 216.043513 -312.14473 
L 215.003172 -312.320961 
L 213.962832 -312.495534 
L 212.922491 -312.667844 
L 211.882151 -312.837355 
L 210.84181 -313.003631 
L 209.80147 -313.16638 
L 208.761129 -313.325486 
L 207.720788 -313.481039 
L 206.680448 -313.63335 
L 205.640107 -313.782963 
L 204.599767 -313.930641 
L 203.559426 -314.07735 
L 202.519085 -314.224222 
L 201.478745 -314.372505 
L 200.438404 -314.523509 
L 199.398064 -314.678533 
L 198.357723 -314.838801 
L 197.317382 -315.005395 
L 196.277042 -315.179185 
L 195.236701 -315.360784 
L 194.196361 -315.550505 
L 193.15602 -315.748333 
L 192.115679 -315.953925 
L 191.075339 -316.166618 
L 190.034998 -316.385457 
L 188.994658 -316.609237 
L 187.954317 -316.836564 
L 186.913976 -317.06591 
L 185.873636 -317.295686 
L 184.833295 -317.524309 
L 183.792955 -317.750256 
L 182.752614 -317.972127 
L 181.712274 -318.18868 
L 180.671933 -318.398859 
L 179.631592 -318.601813 
L 178.591252 -318.796887 
L 177.550911 -318.983617 
L 176.510571 -319.161699 
L 175.47023 -319.330955 
L 174.429889 -319.491295 
L 173.389549 -319.642673 
L 172.349208 -319.785046 
L 171.308868 -319.918329 
L 170.268527 -320.042363 
L 169.228186 -320.156887 
L 168.187846 -320.261516 
L 167.147505 -320.355728 
L 166.107165 -320.438863 
L 165.066824 -320.510129 
L 164.026483 -320.568611 
L 162.986143 -320.613298 
L 161.945802 -320.643108 
L 160.905462 -320.656918 
L 159.865121 -320.653606 
L 158.82478 -320.632085 
L 157.78444 -320.591352 
L 156.744099 -320.530525 
L 155.703759 -320.448886 
L 154.663418 -320.345923 
L 153.623078 -320.221362 
L 152.582737 -320.075201 
L 151.542396 -319.90773 
L 150.502056 -319.719551 
L 149.461715 -319.511577 
L 148.421375 -319.285031 
L 147.381034 -319.041429 
L 146.340693 -318.782548 
L 145.300353 -318.510392 
L 144.260012 -318.227136 
L 143.219672 -317.935073 
L 142.179331 -317.636545 
L 141.13899 -317.333876 
L 140.09865 -317.029303 
L 139.058309 -316.724905 
L 138.017969 -316.422544 
L 136.977628 -316.123807 
L 135.937287 -315.829963 
L 134.896947 -315.541934 
L 133.856606 -315.260277 
L 132.816266 -314.985182 
L 131.775925 -314.716489 
L 130.735585 -314.453714 
L 129.695244 -314.196095 
L 128.654903 -313.942642 
L 127.614563 -313.692206 
L 126.574222 -313.443542 
L 125.533882 -313.195383 
L 124.493541 -312.946512 
L 123.4532 -312.69583 
L 122.41286 -312.442414 
L 121.372519 -312.18557 
L 120.332179 -311.924874 
L 119.291838 -311.660197 
L 118.251497 -311.391719 
L 117.211157 -311.119929 
L 116.170816 -310.845609 
L 115.130476 -310.569808 
L 114.090135 -310.293803 
L 113.049794 -310.019051 
L 112.009454 -309.747141 
L 110.969113 -309.479729 
L 109.928773 -309.218488 
L 108.888432 -308.965046 
L 107.848091 -308.720935 
L 106.807751 -308.487548 
L 105.76741 -308.266093 
L 104.72707 -308.05757 
L 103.686729 -307.862747 
L 102.646389 -307.68215 
L 101.606048 -307.516065 
L 100.565707 -307.364539 
L 99.525367 -307.227401 
L 98.485026 -307.104281 
L 97.444686 -306.994635 
L 96.404345 -306.897777 
L 95.364004 -306.812906 
L 94.323664 -306.739142 
L 93.283323 -306.675549 
L 92.242983 -306.621171 
L 91.202642 -306.575049 
L 90.162301 -306.536247 
L 89.121961 -306.503868 
L 88.08162 -306.47707 
L 87.04128 -306.455069 
L 86.000939 -306.437155 
L 84.960598 -306.422686 
L 83.920258 -306.411094 
L 82.879917 -306.401884 
L 81.839577 -306.394624 
L 80.799236 -306.388949 
z
" style="stroke: #f28360; stroke-width: 2"/>
    </defs>
    <g clip-path="url(#pcd074da2b8)">
     <use xlink:href="#m4e7771cea0" x="0" y="379.277799" style="fill: #f28360; fill-opacity: 0.25; stroke: #f28360; stroke-width: 2"/>
    </g>
   </g>
   <g id="matplotlib.axis_3">
    <g id="xtick_6">
     <g id="line2d_15">
      <g>
       <use xlink:href="#m55584fc27e" x="110.351903" y="72.906593" style="stroke: #000000; stroke-width: 0.75"/>
      </g>
     </g>
    </g>
    <g id="xtick_7">
     <g id="line2d_16">
      <g>
       <use xlink:href="#m55584fc27e" x="156.574267" y="72.906593" style="stroke: #000000; stroke-width: 0.75"/>
      </g>
     </g>
    </g>
    <g id="xtick_8">
     <g id="line2d_17">
      <g>
       <use xlink:href="#m55584fc27e" x="202.79663" y="72.906593" style="stroke: #000000; stroke-width: 0.75"/>
      </g>
     </g>
    </g>
    <g id="xtick_9">
     <g id="line2d_18">
      <g>
       <use xlink:href="#m55584fc27e" x="249.018993" y="72.906593" style="stroke: #000000; stroke-width: 0.75"/>
      </g>
     </g>
    </g>
    <g id="xtick_10">
     <g id="line2d_19">
      <g>
       <use xlink:href="#m55584fc27e" x="295.241356" y="72.906593" style="stroke: #000000; stroke-width: 0.75"/>
      </g>
     </g>
    </g>
   </g>
   <g id="matplotlib.axis_4">
    <g id="ytick_5"/>
    <g id="ytick_6"/>
   </g>
   <g id="line2d_20">
    <path d="M 121.703892 34.5 
L 177.601392 34.5 
" clip-path="url(#pcd074da2b8)" style="fill: none; stroke: #000000; stroke-width: 2; stroke-linecap: round"/>
   </g>
   <g id="patch_6">
    <path d="M 72.518125 72.906593 
L 296.108125 72.906593 
" style="fill: none; stroke: #000000; stroke-width: 0.75; stroke-linejoin: miter; stroke-linecap: square"/>
   </g>
   <g id="text_15">
    <text style="font: 20px &quot;Suisse Int&apos;l&quot;, sans-serif; text-anchor: middle" x="149.652642" y="34.5" transform="rotate(-0 149.652642 34.5)">****</text>
   </g>
  </g>
  <g id="axes_3">
   <g id="patch_7">
    <path d="M 303.818125 312.563736 
L 342.368125 312.563736 
L 342.368125 80.895165 
L 303.818125 80.895165 
L 303.818125 312.563736 
z
" style="fill: none"/>
   </g>
   <g id="PolyCollection_3">
    <defs>
     <path id="med9e714fd0" d="M 303.837731 -79.042201 
L 303.818125 -79.042201 
L 303.818125 -79.705145 
L 303.818125 -80.368089 
L 303.818125 -81.031034 
L 303.818125 -81.693978 
L 303.818125 -82.356922 
L 303.818125 -83.019866 
L 303.818125 -83.68281 
L 303.818125 -84.345754 
L 303.818125 -85.008699 
L 303.818125 -85.671643 
L 303.818125 -86.334587 
L 303.818125 -86.997531 
L 303.818125 -87.660475 
L 303.818125 -88.32342 
L 303.818125 -88.986364 
L 303.818125 -89.649308 
L 303.818125 -90.312252 
L 303.818125 -90.975196 
L 303.818125 -91.638141 
L 303.818125 -92.301085 
L 303.818125 -92.964029 
L 303.818125 -93.626973 
L 303.818125 -94.289917 
L 303.818125 -94.952862 
L 303.818125 -95.615806 
L 303.818125 -96.27875 
L 303.818125 -96.941694 
L 303.818125 -97.604638 
L 303.818125 -98.267582 
L 303.818125 -98.930527 
L 303.818125 -99.593471 
L 303.818125 -100.256415 
L 303.818125 -100.919359 
L 303.818125 -101.582303 
L 303.818125 -102.245248 
L 303.818125 -102.908192 
L 303.818125 -103.571136 
L 303.818125 -104.23408 
L 303.818125 -104.897024 
L 303.818125 -105.559969 
L 303.818125 -106.222913 
L 303.818125 -106.885857 
L 303.818125 -107.548801 
L 303.818125 -108.211745 
L 303.818125 -108.87469 
L 303.818125 -109.537634 
L 303.818125 -110.200578 
L 303.818125 -110.863522 
L 303.818125 -111.526466 
L 303.818125 -112.189411 
L 303.818125 -112.852355 
L 303.818125 -113.515299 
L 303.818125 -114.178243 
L 303.818125 -114.841187 
L 303.818125 -115.504131 
L 303.818125 -116.167076 
L 303.818125 -116.83002 
L 303.818125 -117.492964 
L 303.818125 -118.155908 
L 303.818125 -118.818852 
L 303.818125 -119.481797 
L 303.818125 -120.144741 
L 303.818125 -120.807685 
L 303.818125 -121.470629 
L 303.818125 -122.133573 
L 303.818125 -122.796518 
L 303.818125 -123.459462 
L 303.818125 -124.122406 
L 303.818125 -124.78535 
L 303.818125 -125.448294 
L 303.818125 -126.111239 
L 303.818125 -126.774183 
L 303.818125 -127.437127 
L 303.818125 -128.100071 
L 303.818125 -128.763015 
L 303.818125 -129.425959 
L 303.818125 -130.088904 
L 303.818125 -130.751848 
L 303.818125 -131.414792 
L 303.818125 -132.077736 
L 303.818125 -132.74068 
L 303.818125 -133.403625 
L 303.818125 -134.066569 
L 303.818125 -134.729513 
L 303.818125 -135.392457 
L 303.818125 -136.055401 
L 303.818125 -136.718346 
L 303.818125 -137.38129 
L 303.818125 -138.044234 
L 303.818125 -138.707178 
L 303.818125 -139.370122 
L 303.818125 -140.033067 
L 303.818125 -140.696011 
L 303.818125 -141.358955 
L 303.818125 -142.021899 
L 303.818125 -142.684843 
L 303.818125 -143.347787 
L 303.818125 -144.010732 
L 303.818125 -144.673676 
L 303.818125 -145.33662 
L 303.818125 -145.999564 
L 303.818125 -146.662508 
L 303.818125 -147.325453 
L 303.818125 -147.988397 
L 303.818125 -148.651341 
L 303.818125 -149.314285 
L 303.818125 -149.977229 
L 303.818125 -150.640174 
L 303.818125 -151.303118 
L 303.818125 -151.966062 
L 303.818125 -152.629006 
L 303.818125 -153.29195 
L 303.818125 -153.954895 
L 303.818125 -154.617839 
L 303.818125 -155.280783 
L 303.818125 -155.943727 
L 303.818125 -156.606671 
L 303.818125 -157.269616 
L 303.818125 -157.93256 
L 303.818125 -158.595504 
L 303.818125 -159.258448 
L 303.818125 -159.921392 
L 303.818125 -160.584336 
L 303.818125 -161.247281 
L 303.818125 -161.910225 
L 303.818125 -162.573169 
L 303.818125 -163.236113 
L 303.818125 -163.899057 
L 303.818125 -164.562002 
L 303.818125 -165.224946 
L 303.818125 -165.88789 
L 303.818125 -166.550834 
L 303.818125 -167.213778 
L 303.818125 -167.876723 
L 303.818125 -168.539667 
L 303.818125 -169.202611 
L 303.818125 -169.865555 
L 303.818125 -170.528499 
L 303.818125 -171.191444 
L 303.818125 -171.854388 
L 303.818125 -172.517332 
L 303.818125 -173.180276 
L 303.818125 -173.84322 
L 303.818125 -174.506164 
L 303.818125 -175.169109 
L 303.818125 -175.832053 
L 303.818125 -176.494997 
L 303.818125 -177.157941 
L 303.818125 -177.820885 
L 303.818125 -178.48383 
L 303.818125 -179.146774 
L 303.818125 -179.809718 
L 303.818125 -180.472662 
L 303.818125 -181.135606 
L 303.818125 -181.798551 
L 303.818125 -182.461495 
L 303.818125 -183.124439 
L 303.818125 -183.787383 
L 303.818125 -184.450327 
L 303.818125 -185.113272 
L 303.818125 -185.776216 
L 303.818125 -186.43916 
L 303.818125 -187.102104 
L 303.818125 -187.765048 
L 303.818125 -188.427993 
L 303.818125 -189.090937 
L 303.818125 -189.753881 
L 303.818125 -190.416825 
L 303.818125 -191.079769 
L 303.818125 -191.742713 
L 303.818125 -192.405658 
L 303.818125 -193.068602 
L 303.818125 -193.731546 
L 303.818125 -194.39449 
L 303.818125 -195.057434 
L 303.818125 -195.720379 
L 303.818125 -196.383323 
L 303.818125 -197.046267 
L 303.818125 -197.709211 
L 303.818125 -198.372155 
L 303.818125 -199.0351 
L 303.818125 -199.698044 
L 303.818125 -200.360988 
L 303.818125 -201.023932 
L 303.818125 -201.686876 
L 303.818125 -202.349821 
L 303.818125 -203.012765 
L 303.818125 -203.675709 
L 303.818125 -204.338653 
L 303.818125 -205.001597 
L 303.818125 -205.664541 
L 303.818125 -206.327486 
L 303.818125 -206.99043 
L 303.818125 -207.653374 
L 303.818125 -208.316318 
L 303.818125 -208.979262 
L 303.818125 -209.642207 
L 303.818125 -210.305151 
L 303.818125 -210.968095 
L 303.82505 -210.968095 
L 303.82505 -210.968095 
L 303.827219 -210.305151 
L 303.829967 -209.642207 
L 303.833413 -208.979262 
L 303.837697 -208.316318 
L 303.842969 -207.653374 
L 303.849394 -206.99043 
L 303.857149 -206.327486 
L 303.866416 -205.664541 
L 303.877381 -205.001597 
L 303.890224 -204.338653 
L 303.905112 -203.675709 
L 303.922193 -203.012765 
L 303.941584 -202.349821 
L 303.963365 -201.686876 
L 303.987563 -201.023932 
L 304.014148 -200.360988 
L 304.043028 -199.698044 
L 304.074035 -199.0351 
L 304.106929 -198.372155 
L 304.141399 -197.709211 
L 304.177062 -197.046267 
L 304.213473 -196.383323 
L 304.250139 -195.720379 
L 304.286532 -195.057434 
L 304.322109 -194.39449 
L 304.356331 -193.731546 
L 304.388689 -193.068602 
L 304.418723 -192.405658 
L 304.446046 -191.742713 
L 304.470361 -191.079769 
L 304.491477 -190.416825 
L 304.509322 -189.753881 
L 304.523941 -189.090937 
L 304.535501 -188.427993 
L 304.54428 -187.765048 
L 304.550655 -187.102104 
L 304.555082 -186.43916 
L 304.558073 -185.776216 
L 304.560173 -185.113272 
L 304.561937 -184.450327 
L 304.563901 -183.787383 
L 304.566563 -183.124439 
L 304.570373 -182.461495 
L 304.575715 -181.798551 
L 304.582909 -181.135606 
L 304.592216 -180.472662 
L 304.603849 -179.809718 
L 304.617989 -179.146774 
L 304.634814 -178.48383 
L 304.654519 -177.820885 
L 304.677348 -177.157941 
L 304.703621 -176.494997 
L 304.733753 -175.832053 
L 304.768278 -175.169109 
L 304.807856 -174.506164 
L 304.853273 -173.84322 
L 304.905436 -173.180276 
L 304.965355 -172.517332 
L 305.034109 -171.854388 
L 305.112817 -171.191444 
L 305.202586 -170.528499 
L 305.304468 -169.865555 
L 305.419404 -169.202611 
L 305.548174 -168.539667 
L 305.691345 -167.876723 
L 305.84923 -167.213778 
L 306.021851 -166.550834 
L 306.208911 -165.88789 
L 306.409784 -165.224946 
L 306.62351 -164.562002 
L 306.848808 -163.899057 
L 307.084099 -163.236113 
L 307.327548 -162.573169 
L 307.577109 -161.910225 
L 307.830582 -161.247281 
L 308.085681 -160.584336 
L 308.340098 -159.921392 
L 308.591581 -159.258448 
L 308.837995 -158.595504 
L 309.077396 -157.93256 
L 309.308081 -157.269616 
L 309.528644 -156.606671 
L 309.738013 -155.943727 
L 309.935476 -155.280783 
L 310.120696 -154.617839 
L 310.293713 -153.954895 
L 310.454929 -153.29195 
L 310.605095 -152.629006 
L 310.745271 -151.966062 
L 310.876796 -151.303118 
L 311.001244 -150.640174 
L 311.120379 -149.977229 
L 311.236116 -149.314285 
L 311.350478 -148.651341 
L 311.46556 -147.988397 
L 311.5835 -147.325453 
L 311.706448 -146.662508 
L 311.836548 -145.999564 
L 311.975913 -145.33662 
L 312.126608 -144.673676 
L 312.290629 -144.010732 
L 312.469878 -143.347787 
L 312.666139 -142.684843 
L 312.881036 -142.021899 
L 313.115998 -141.358955 
L 313.372211 -140.696011 
L 313.650567 -140.033067 
L 313.951618 -139.370122 
L 314.275525 -138.707178 
L 314.622024 -138.044234 
L 314.9904 -137.38129 
L 315.379476 -136.718346 
L 315.787627 -136.055401 
L 316.212817 -135.392457 
L 316.652662 -134.729513 
L 317.104509 -134.066569 
L 317.565543 -133.403625 
L 318.032912 -132.74068 
L 318.503854 -132.077736 
L 318.975829 -131.414792 
L 319.44665 -130.751848 
L 319.914588 -130.088904 
L 320.378461 -129.425959 
L 320.837684 -128.763015 
L 321.292293 -128.100071 
L 321.742913 -127.437127 
L 322.190695 -126.774183 
L 322.637206 -126.111239 
L 323.084284 -125.448294 
L 323.533866 -124.78535 
L 323.987782 -124.122406 
L 324.447552 -123.459462 
L 324.914174 -122.796518 
L 325.387919 -122.133573 
L 325.868158 -121.470629 
L 326.35321 -120.807685 
L 326.840242 -120.144741 
L 327.325207 -119.481797 
L 327.802844 -118.818852 
L 328.266727 -118.155908 
L 328.709374 -117.492964 
L 329.122407 -116.83002 
L 329.496761 -116.167076 
L 329.822936 -115.504131 
L 330.091278 -114.841187 
L 330.292279 -114.178243 
L 330.4169 -113.515299 
L 330.456871 -112.852355 
L 330.404997 -112.189411 
L 330.255422 -111.526466 
L 330.003867 -110.863522 
L 329.64781 -110.200578 
L 329.186625 -109.537634 
L 328.621646 -108.87469 
L 327.956181 -108.211745 
L 327.195455 -107.548801 
L 326.346493 -106.885857 
L 325.417948 -106.222913 
L 324.419876 -105.559969 
L 323.363477 -104.897024 
L 322.260796 -104.23408 
L 321.124414 -103.571136 
L 319.967127 -102.908192 
L 318.80163 -102.245248 
L 317.640221 -101.582303 
L 316.494526 -100.919359 
L 315.375263 -100.256415 
L 314.292044 -99.593471 
L 313.253223 -98.930527 
L 312.265795 -98.267582 
L 311.335339 -97.604638 
L 310.466008 -96.941694 
L 309.660565 -96.27875 
L 308.920451 -95.615806 
L 308.245889 -94.952862 
L 307.636011 -94.289917 
L 307.088999 -93.626973 
L 306.602244 -92.964029 
L 306.1725 -92.301085 
L 305.796046 -91.638141 
L 305.468829 -90.975196 
L 305.186603 -90.312252 
L 304.945054 -89.649308 
L 304.739907 -88.986364 
L 304.567008 -88.32342 
L 304.422402 -87.660475 
L 304.302384 -86.997531 
L 304.203533 -86.334587 
L 304.122738 -85.671643 
L 304.057204 -85.008699 
L 304.004456 -84.345754 
L 303.962324 -83.68281 
L 303.928928 -83.019866 
L 303.902661 -82.356922 
L 303.882159 -81.693978 
L 303.866281 -81.031034 
L 303.854078 -80.368089 
L 303.844773 -79.705145 
L 303.837731 -79.042201 
z
" style="stroke: #7a77ab; stroke-width: 2"/>
    </defs>
    <g clip-path="url(#p571668e946)">
     <use xlink:href="#med9e714fd0" x="0" y="379.277799" style="fill: #7a77ab; fill-opacity: 0.25; stroke: #7a77ab; stroke-width: 2"/>
    </g>
   </g>
   <g id="PolyCollection_4">
    <defs>
     <path id="m984f180b9a" d="M 303.845736 -75.29438 
L 303.818125 -75.29438 
L 303.818125 -76.372309 
L 303.818125 -77.450239 
L 303.818125 -78.528168 
L 303.818125 -79.606097 
L 303.818125 -80.684027 
L 303.818125 -81.761956 
L 303.818125 -82.839885 
L 303.818125 -83.917815 
L 303.818125 -84.995744 
L 303.818125 -86.073673 
L 303.818125 -87.151603 
L 303.818125 -88.229532 
L 303.818125 -89.307461 
L 303.818125 -90.385391 
L 303.818125 -91.46332 
L 303.818125 -92.541249 
L 303.818125 -93.619179 
L 303.818125 -94.697108 
L 303.818125 -95.775037 
L 303.818125 -96.852967 
L 303.818125 -97.930896 
L 303.818125 -99.008825 
L 303.818125 -100.086755 
L 303.818125 -101.164684 
L 303.818125 -102.242613 
L 303.818125 -103.320543 
L 303.818125 -104.398472 
L 303.818125 -105.476401 
L 303.818125 -106.554331 
L 303.818125 -107.63226 
L 303.818125 -108.710189 
L 303.818125 -109.788118 
L 303.818125 -110.866048 
L 303.818125 -111.943977 
L 303.818125 -113.021906 
L 303.818125 -114.099836 
L 303.818125 -115.177765 
L 303.818125 -116.255694 
L 303.818125 -117.333624 
L 303.818125 -118.411553 
L 303.818125 -119.489482 
L 303.818125 -120.567412 
L 303.818125 -121.645341 
L 303.818125 -122.72327 
L 303.818125 -123.8012 
L 303.818125 -124.879129 
L 303.818125 -125.957058 
L 303.818125 -127.034988 
L 303.818125 -128.112917 
L 303.818125 -129.190846 
L 303.818125 -130.268776 
L 303.818125 -131.346705 
L 303.818125 -132.424634 
L 303.818125 -133.502564 
L 303.818125 -134.580493 
L 303.818125 -135.658422 
L 303.818125 -136.736352 
L 303.818125 -137.814281 
L 303.818125 -138.89221 
L 303.818125 -139.97014 
L 303.818125 -141.048069 
L 303.818125 -142.125998 
L 303.818125 -143.203928 
L 303.818125 -144.281857 
L 303.818125 -145.359786 
L 303.818125 -146.437716 
L 303.818125 -147.515645 
L 303.818125 -148.593574 
L 303.818125 -149.671504 
L 303.818125 -150.749433 
L 303.818125 -151.827362 
L 303.818125 -152.905292 
L 303.818125 -153.983221 
L 303.818125 -155.06115 
L 303.818125 -156.13908 
L 303.818125 -157.217009 
L 303.818125 -158.294938 
L 303.818125 -159.372868 
L 303.818125 -160.450797 
L 303.818125 -161.528726 
L 303.818125 -162.606656 
L 303.818125 -163.684585 
L 303.818125 -164.762514 
L 303.818125 -165.840444 
L 303.818125 -166.918373 
L 303.818125 -167.996302 
L 303.818125 -169.074232 
L 303.818125 -170.152161 
L 303.818125 -171.23009 
L 303.818125 -172.30802 
L 303.818125 -173.385949 
L 303.818125 -174.463878 
L 303.818125 -175.541808 
L 303.818125 -176.619737 
L 303.818125 -177.697666 
L 303.818125 -178.775596 
L 303.818125 -179.853525 
L 303.818125 -180.931454 
L 303.818125 -182.009384 
L 303.818125 -183.087313 
L 303.818125 -184.165242 
L 303.818125 -185.243172 
L 303.818125 -186.321101 
L 303.818125 -187.39903 
L 303.818125 -188.47696 
L 303.818125 -189.554889 
L 303.818125 -190.632818 
L 303.818125 -191.710748 
L 303.818125 -192.788677 
L 303.818125 -193.866606 
L 303.818125 -194.944535 
L 303.818125 -196.022465 
L 303.818125 -197.100394 
L 303.818125 -198.178323 
L 303.818125 -199.256253 
L 303.818125 -200.334182 
L 303.818125 -201.412111 
L 303.818125 -202.490041 
L 303.818125 -203.56797 
L 303.818125 -204.645899 
L 303.818125 -205.723829 
L 303.818125 -206.801758 
L 303.818125 -207.879687 
L 303.818125 -208.957617 
L 303.818125 -210.035546 
L 303.818125 -211.113475 
L 303.818125 -212.191405 
L 303.818125 -213.269334 
L 303.818125 -214.347263 
L 303.818125 -215.425193 
L 303.818125 -216.503122 
L 303.818125 -217.581051 
L 303.818125 -218.658981 
L 303.818125 -219.73691 
L 303.818125 -220.814839 
L 303.818125 -221.892769 
L 303.818125 -222.970698 
L 303.818125 -224.048627 
L 303.818125 -225.126557 
L 303.818125 -226.204486 
L 303.818125 -227.282415 
L 303.818125 -228.360345 
L 303.818125 -229.438274 
L 303.818125 -230.516203 
L 303.818125 -231.594133 
L 303.818125 -232.672062 
L 303.818125 -233.749991 
L 303.818125 -234.827921 
L 303.818125 -235.90585 
L 303.818125 -236.983779 
L 303.818125 -238.061709 
L 303.818125 -239.139638 
L 303.818125 -240.217567 
L 303.818125 -241.295497 
L 303.818125 -242.373426 
L 303.818125 -243.451355 
L 303.818125 -244.529285 
L 303.818125 -245.607214 
L 303.818125 -246.685143 
L 303.818125 -247.763073 
L 303.818125 -248.841002 
L 303.818125 -249.918931 
L 303.818125 -250.996861 
L 303.818125 -252.07479 
L 303.818125 -253.152719 
L 303.818125 -254.230649 
L 303.818125 -255.308578 
L 303.818125 -256.386507 
L 303.818125 -257.464437 
L 303.818125 -258.542366 
L 303.818125 -259.620295 
L 303.818125 -260.698225 
L 303.818125 -261.776154 
L 303.818125 -262.854083 
L 303.818125 -263.932013 
L 303.818125 -265.009942 
L 303.818125 -266.087871 
L 303.818125 -267.165801 
L 303.818125 -268.24373 
L 303.818125 -269.321659 
L 303.818125 -270.399589 
L 303.818125 -271.477518 
L 303.818125 -272.555447 
L 303.818125 -273.633377 
L 303.818125 -274.711306 
L 303.818125 -275.789235 
L 303.818125 -276.867165 
L 303.818125 -277.945094 
L 303.818125 -279.023023 
L 303.818125 -280.100953 
L 303.818125 -281.178882 
L 303.818125 -282.256811 
L 303.818125 -283.33474 
L 303.818125 -284.41267 
L 303.818125 -285.490599 
L 303.818125 -286.568528 
L 303.818125 -287.646458 
L 303.818125 -288.724387 
L 303.818125 -289.802316 
L 303.82127 -289.802316 
L 303.82127 -289.802316 
L 303.822454 -288.724387 
L 303.824015 -287.646458 
L 303.826046 -286.568528 
L 303.828653 -285.490599 
L 303.831956 -284.41267 
L 303.836087 -283.33474 
L 303.841182 -282.256811 
L 303.847382 -281.178882 
L 303.854824 -280.100953 
L 303.863635 -279.023023 
L 303.873921 -277.945094 
L 303.885763 -276.867165 
L 303.899202 -275.789235 
L 303.914237 -274.711306 
L 303.930815 -273.633377 
L 303.94883 -272.555447 
L 303.968124 -271.477518 
L 303.988486 -270.399589 
L 304.009668 -269.321659 
L 304.031389 -268.24373 
L 304.053359 -267.165801 
L 304.07529 -266.087871 
L 304.096923 -265.009942 
L 304.118044 -263.932013 
L 304.138498 -262.854083 
L 304.158209 -261.776154 
L 304.177181 -260.698225 
L 304.1955 -259.620295 
L 304.213329 -258.542366 
L 304.23089 -257.464437 
L 304.248445 -256.386507 
L 304.26627 -255.308578 
L 304.284627 -254.230649 
L 304.303736 -253.152719 
L 304.323753 -252.07479 
L 304.344749 -250.996861 
L 304.366698 -249.918931 
L 304.389481 -248.841002 
L 304.412887 -247.763073 
L 304.436638 -246.685143 
L 304.460409 -245.607214 
L 304.483859 -244.529285 
L 304.506669 -243.451355 
L 304.528568 -242.373426 
L 304.549365 -241.295497 
L 304.56897 -240.217567 
L 304.587402 -239.139638 
L 304.604797 -238.061709 
L 304.621391 -236.983779 
L 304.637506 -235.90585 
L 304.653515 -234.827921 
L 304.669814 -233.749991 
L 304.686775 -232.672062 
L 304.704717 -231.594133 
L 304.72386 -230.516203 
L 304.744303 -229.438274 
L 304.766001 -228.360345 
L 304.788751 -227.282415 
L 304.812198 -226.204486 
L 304.83584 -225.126557 
L 304.859054 -224.048627 
L 304.881129 -222.970698 
L 304.901299 -221.892769 
L 304.91879 -220.814839 
L 304.932863 -219.73691 
L 304.942854 -218.658981 
L 304.948217 -217.581051 
L 304.948549 -216.503122 
L 304.94362 -215.425193 
L 304.933376 -214.347263 
L 304.917949 -213.269334 
L 304.897643 -212.191405 
L 304.872913 -211.113475 
L 304.844342 -210.035546 
L 304.812607 -208.957617 
L 304.778437 -207.879687 
L 304.742583 -206.801758 
L 304.705772 -205.723829 
L 304.66868 -204.645899 
L 304.631902 -203.56797 
L 304.595928 -202.490041 
L 304.56113 -201.412111 
L 304.527757 -200.334182 
L 304.495933 -199.256253 
L 304.465667 -198.178323 
L 304.436866 -197.100394 
L 304.409355 -196.022465 
L 304.382898 -194.944535 
L 304.357226 -193.866606 
L 304.332064 -192.788677 
L 304.30715 -191.710748 
L 304.282265 -190.632818 
L 304.257253 -189.554889 
L 304.232032 -188.47696 
L 304.206608 -187.39903 
L 304.181084 -186.321101 
L 304.155657 -185.243172 
L 304.130616 -184.165242 
L 304.106332 -183.087313 
L 304.083252 -182.009384 
L 304.061881 -180.931454 
L 304.042771 -179.853525 
L 304.026504 -178.775596 
L 304.013682 -177.697666 
L 304.004906 -176.619737 
L 304.000771 -175.541808 
L 304.001848 -174.463878 
L 304.008679 -173.385949 
L 304.021762 -172.30802 
L 304.041548 -171.23009 
L 304.068429 -170.152161 
L 304.102739 -169.074232 
L 304.144755 -167.996302 
L 304.194699 -166.918373 
L 304.252756 -165.840444 
L 304.319092 -164.762514 
L 304.393891 -163.684585 
L 304.477392 -162.606656 
L 304.569946 -161.528726 
L 304.672076 -160.450797 
L 304.784547 -159.372868 
L 304.908435 -158.294938 
L 305.045204 -157.217009 
L 305.196768 -156.13908 
L 305.36555 -155.06115 
L 305.554524 -153.983221 
L 305.767233 -152.905292 
L 306.007789 -151.827362 
L 306.280845 -150.749433 
L 306.591537 -149.671504 
L 306.945393 -148.593574 
L 307.348222 -147.515645 
L 307.805968 -146.437716 
L 308.324535 -145.359786 
L 308.909595 -144.281857 
L 309.566367 -143.203928 
L 310.299382 -142.125998 
L 311.112231 -141.048069 
L 312.007307 -139.97014 
L 312.98554 -138.89221 
L 314.046139 -137.814281 
L 315.18635 -136.736352 
L 316.401232 -135.658422 
L 317.683478 -134.580493 
L 319.023284 -133.502564 
L 320.408279 -132.424634 
L 321.823546 -131.346705 
L 323.251714 -130.268776 
L 324.673172 -129.190846 
L 326.066379 -128.112917 
L 327.40828 -127.034988 
L 328.674839 -125.957058 
L 329.841654 -124.879129 
L 330.884661 -123.8012 
L 331.780879 -122.72327 
L 332.5092 -121.645341 
L 333.051148 -120.567412 
L 333.391614 -119.489482 
L 333.519493 -118.411553 
L 333.428213 -117.333624 
L 333.1161 -116.255694 
L 332.586582 -115.177765 
L 331.84818 -114.099836 
L 330.91431 -113.021906 
L 329.802874 -111.943977 
L 328.535683 -110.866048 
L 327.137706 -109.788118 
L 325.636212 -108.710189 
L 324.05983 -107.63226 
L 322.437575 -106.554331 
L 320.797901 -105.476401 
L 319.167816 -104.398472 
L 317.5721 -103.320543 
L 316.03267 -102.242613 
L 314.568103 -101.164684 
L 313.193334 -100.086755 
L 311.919532 -99.008825 
L 310.754143 -97.930896 
L 309.701081 -96.852967 
L 308.761038 -95.775037 
L 307.931893 -94.697108 
L 307.209177 -93.619179 
L 306.586574 -92.541249 
L 306.056416 -91.46332 
L 305.610157 -90.385391 
L 305.238807 -89.307461 
L 304.933299 -88.229532 
L 304.684803 -87.151603 
L 304.484957 -86.073673 
L 304.326045 -84.995744 
L 304.2011 -83.917815 
L 304.103963 -82.839885 
L 304.029289 -81.761956 
L 303.972527 -80.684027 
L 303.929861 -79.606097 
L 303.89815 -78.528168 
L 303.874844 -77.450239 
L 303.857907 -76.372309 
L 303.845736 -75.29438 
z
" style="stroke: #f28360; stroke-width: 2"/>
    </defs>
    <g clip-path="url(#p571668e946)">
     <use xlink:href="#m984f180b9a" x="0" y="379.277799" style="fill: #f28360; fill-opacity: 0.25; stroke: #f28360; stroke-width: 2"/>
    </g>
   </g>
   <g id="matplotlib.axis_5">
    <g id="xtick_11"/>
    <g id="xtick_12"/>
   </g>
   <g id="matplotlib.axis_6">
    <g id="ytick_7">
     <g id="line2d_21">
      <g>
       <use xlink:href="#m6fbd2cf0e8" x="303.818125" y="283.654726" style="stroke: #000000; stroke-width: 0.75"/>
      </g>
     </g>
    </g>
    <g id="ytick_8">
     <g id="line2d_22">
      <g>
       <use xlink:href="#m6fbd2cf0e8" x="303.818125" y="218.500311" style="stroke: #000000; stroke-width: 0.75"/>
      </g>
     </g>
    </g>
    <g id="ytick_9">
     <g id="line2d_23">
      <g>
       <use xlink:href="#m6fbd2cf0e8" x="303.818125" y="153.345896" style="stroke: #000000; stroke-width: 0.75"/>
      </g>
     </g>
    </g>
    <g id="ytick_10">
     <g id="line2d_24">
      <g>
       <use xlink:href="#m6fbd2cf0e8" x="303.818125" y="88.191482" style="stroke: #000000; stroke-width: 0.75"/>
      </g>
     </g>
    </g>
   </g>
   <g id="line2d_25">
    <path d="M 340.885433 288.954108 
L 340.885433 231.036965 
" clip-path="url(#p571668e946)" style="fill: none; stroke: #000000; stroke-width: 2; stroke-linecap: round"/>
   </g>
   <g id="patch_8">
    <path d="M 303.818125 312.563736 
L 303.818125 80.895165 
" style="fill: none; stroke: #000000; stroke-width: 0.75; stroke-linejoin: miter; stroke-linecap: square"/>
   </g>
   <g id="text_16">
    <text style="font: 16px &quot;Suisse Int&apos;l&quot;, sans-serif" transform="translate(345.538798 251.171786) rotate(-270)">ns</text>
   </g>
  </g>
 </g>
 <defs>
  <clipPath id="p44dbad5d82">
   <rect x="72.518125" y="80.895165" width="223.59" height="231.668571"/>
  </clipPath>
  <clipPath id="pcd074da2b8">
   <rect x="72.518125" y="32.963736" width="223.59" height="39.942857"/>
  </clipPath>
  <clipPath id="p571668e946">
   <rect x="303.818125" y="80.895165" width="38.55" height="231.668571"/>
  </clipPath>
 </defs>
</svg>
